<?xml version="1.0" encoding="UTF-8" standalone="no"?>
<svg
   xmlns:dc="http://purl.org/dc/elements/1.1/"
   xmlns:cc="http://creativecommons.org/ns#"
   xmlns:rdf="http://www.w3.org/1999/02/22-rdf-syntax-ns#"
   xmlns:svg="http://www.w3.org/2000/svg"
   xmlns="http://www.w3.org/2000/svg"
   viewBox="0 0 793.70135 1122.52"
   height="1122.52"
   width="793.70135"
   xml:space="preserve"
   id="svg2"
   version="1.1"><metadata
     id="metadata8"><rdf:RDF><cc:Work
         rdf:about=""><dc:format>image/svg+xml</dc:format><dc:type
           rdf:resource="http://purl.org/dc/dcmitype/StillImage" /></cc:Work></rdf:RDF></metadata><defs
     id="defs6"><clipPath
       id="clipPath18"
       clipPathUnits="userSpaceOnUse"><path
         id="path16"
         d="M 0,841.89 H 595.276 V 0 H 0 Z" /></clipPath></defs><g
     transform="matrix(1.3333333,0,0,-1.3333333,0,1122.52)"
     id="g10"><g
       id="g12"><g
         clip-path="url(#clipPath18)"
         id="g14"><path
           id="path20"
           style="fill:#231916;fill-opacity:1;fill-rule:nonzero;stroke:none"
           d="m 165.934,676.187 h 16.496 v -3.173 h -6.276 v -12.982 h -3.698 v 12.82 h -6.5 z" /><path
           id="path22"
           style="fill:#231916;fill-opacity:1;fill-rule:nonzero;stroke:none"
           d="m 223.735,676.246 v -16.263 h 3.664 v 6.88 h 9.536 v -6.872 h 3.607 v 16.217 h -3.719 v -5.943 h -9.314 v 5.981 z" /><path
           id="path24"
           style="fill:#231916;fill-opacity:1;fill-rule:nonzero;stroke:none"
           d="m 122.701,676.23 c -0.091,0.01 -0.178,0.022 -0.275,0.022 h -0.008 c -0.001,-0.004 -0.004,-0.004 -0.006,-0.004 v 0.004 h -11.95 v -0.004 h -0.023 c -1.323,0 -2.395,-1.54 -2.407,-3.446 h -0.004 l -0.008,-12.77 h 3.705 v 12.82 h 9.421 v -12.82 h 3.69 v 12.929 c -0.063,1.705 -0.974,3.085 -2.135,3.269" /><path
           id="path26"
           style="fill:#231916;fill-opacity:1;fill-rule:nonzero;stroke:none"
           d="m 141.955,659.905 c 1.254,0.053 2.26,1.524 2.266,3.346 v 0.028 c 0,0.006 -0.002,0.012 -0.002,0.016 h 0.002 v 12.957 h -3.694 v -12.787 h -9.411 v 12.751 h -3.704 V 663.19 c 0.032,-1.817 1.058,-3.279 2.324,-3.285 z" /><path
           id="path28"
           style="fill:#231916;fill-opacity:1;fill-rule:nonzero;stroke:none"
           d="m 163.269,672.852 v 3.4 h -14.37 c -1.272,-0.004 -2.301,-1.477 -2.326,-3.305 v -9.476 c 0,-0.062 0.006,-0.115 0.009,-0.176 0.046,-1.757 1.02,-3.163 2.238,-3.228 h 14.449 v 3.398 h -13.002 v 9.387 z" /><path
           id="path30"
           style="fill:#231916;fill-opacity:1;fill-rule:nonzero;stroke:none"
           d="m 221.085,673.014 v 3.242 l -14.406,-0.004 c -1.256,-0.035 -2.264,-1.491 -2.288,-3.299 v -9.439 c 0.031,-1.801 1.032,-3.244 2.279,-3.281 h 14.415 v 3.176 h -12.999 v 9.605 z" /><path
           id="path32"
           style="fill:#231916;fill-opacity:1;fill-rule:nonzero;stroke:none"
           d="m 201.925,673.014 v 3.147 h -14.489 c -1.269,-0.011 -2.299,-1.487 -2.317,-3.319 v -9.492 -0.002 c 0.03,-1.798 1.035,-3.244 2.282,-3.281 h 14.412 v 3.299 h -13.109 v 3.293 h 13.221 v 3.238 h -13.221 v 3.117 z" /><path
           id="path34"
           style="fill:#004290;fill-opacity:1;fill-rule:nonzero;stroke:none"
           d="m 122.1,699.883 c 2.839,2.318 6.516,4.104 10.509,5.259 3.916,1.133 8.599,1.692 12.741,0.737 -4.365,1.754 -10.301,1.878 -16.01,0.386 -5.92,-1.547 -10.911,-4.291 -14.056,-8.401 2.412,4.373 7.704,7.922 14.45,9.689 3.917,1.026 9.569,1.484 14.139,0.399 -3.935,1.883 -9.889,2.453 -16.5,0.798 -6.034,-1.512 -11.451,-4.37 -14.341,-8.078 2.517,4.437 8.254,7.599 14.151,9.132 4.791,1.245 9.723,1.272 13.421,0.542 -4.238,1.801 -9.739,2.139 -15.862,0.859 -10.584,-2.214 -17.505,-9.095 -16.374,-14.948 0.528,-2.91 4.193,-5.333 8.056,-6.197 -0.267,3.401 1.901,7.033 5.676,9.823" /><path
           id="path36"
           style="fill:#e60013;fill-opacity:1;fill-rule:nonzero;stroke:none"
           d="m 138.417,695.531 c -2.839,-2.317 -6.514,-4.104 -10.508,-5.26 -3.918,-1.131 -8.6,-1.69 -12.742,-0.735 4.365,-1.753 10.301,-1.879 16.01,-0.386 5.919,1.547 10.91,4.292 14.056,8.401 -2.412,-4.374 -7.705,-7.923 -14.449,-9.689 -3.918,-1.027 -9.571,-1.484 -14.139,-0.399 3.935,-1.884 9.888,-2.453 16.498,-0.799 6.035,1.512 11.452,4.371 14.342,8.078 -2.517,-4.436 -8.253,-7.598 -14.151,-9.131 -4.792,-1.245 -9.723,-1.272 -13.421,-0.542 4.238,-1.803 9.74,-2.14 15.863,-0.858 10.583,2.213 17.503,9.093 16.373,14.947 -0.527,2.909 -4.193,5.333 -8.057,6.196 0.269,-3.4 -1.899,-7.033 -5.675,-9.823" /><path
           id="path38"
           style="fill:#231916;fill-opacity:1;fill-rule:nonzero;stroke:none"
           d="m 178.346,695.674 v -4.929 l 1.585,-0.99 1.76,1.269 v 4.65 z m 8.38,5.077 H 172.51 v 3.232 h 14.216 z M 172.44,687.262 h 1.289 1.185 l 1.516,0.441 -1.184,0.842 c -0.395,0.256 -0.633,0.554 -0.715,0.893 -0.082,0.34 -0.122,0.869 -0.122,1.586 v 4.65 h -1.324 v 3.202 h 1.324 v 1.255 h 3.937 v -1.255 h 3.24 v 1.255 h 3.938 v -1.255 h 0.905 v -3.202 h -0.905 v -5.21 c 0,-0.316 -0.053,-0.585 -0.156,-0.812 -0.106,-0.227 -0.296,-0.438 -0.576,-0.633 l -1.515,-1.094 0.975,-0.443 c 0.151,-0.077 0.511,-0.117 1.081,-0.117 l 1.028,-0.044 h 0.905 v -3.057 h -2.212 c -0.419,0 -0.972,0.03 -1.665,0.09 -0.69,0.059 -1.158,0.152 -1.401,0.28 l -2.057,1.02 c -1.056,-0.533 -1.954,-0.915 -2.691,-1.153 -0.738,-0.235 -1.582,-0.354 -2.534,-0.354 h -2.266 z m 21.639,16.987 h 3.78 v -8.25 c 0,-1.25 -0.119,-2.247 -0.359,-2.99 -0.236,-0.742 -0.683,-1.217 -1.34,-1.423 -0.658,-0.208 -1.425,-0.301 -2.308,-0.28 l -1.185,0.014 0.261,-2.435 c 0.069,-0.748 0.197,-1.196 0.383,-1.343 0.186,-0.147 0.738,-0.221 1.655,-0.221 h 4.874 v -3.249 h -6.617 c -0.974,0 -1.81,0.114 -2.508,0.341 -0.698,0.227 -1.172,0.644 -1.428,1.254 -0.257,0.61 -0.418,1.324 -0.488,2.141 l -1.725,17.798 -15.313,-0.014 v -17.166 c 0,-0.982 -0.126,-1.863 -0.375,-2.64 -0.25,-0.778 -0.69,-1.274 -1.324,-1.492 -0.633,-0.215 -1.489,-0.323 -2.569,-0.323 h -1.201 v 3.291 h 0.748 c 0.162,0 0.301,0.103 0.418,0.308 0.116,0.207 0.174,0.721 0.174,1.536 v 19.703 h 19.076 l -0.226,2.834 4.268,-0.015 0.33,-2.819 1.465,-0.03 0.645,2.17 h 2.892 l 1.027,-2.17 0.75,0.03 v -3.217 l -6.534,0.014 1.168,-10.951 1.149,-0.029 c 0.151,-0.01 0.262,0.054 0.331,0.191 0.069,0.139 0.106,0.448 0.106,0.931 z" /><path
           id="path40"
           style="fill:#231916;fill-opacity:1;fill-rule:nonzero;stroke:none"
           d="m 221.867,711.171 h 16.148 V 692.19 h -4.058 v 15.586 h -7.979 v -15.807 h -4.111 z m 9.076,-20.988 -2.719,-4.132 c -0.417,-0.63 -0.86,-1.109 -1.323,-1.439 -0.466,-0.33 -1.092,-0.494 -1.881,-0.494 h -8.417 v 3.292 h 6.481 c 0.465,0 0.811,0.025 1.038,0.072 0.225,0.05 0.415,0.173 0.566,0.37 l 2.84,3.91 c 0.209,0.286 0.348,0.571 0.418,0.857 0.07,0.285 0.105,0.708 0.105,1.269 v 11.556 h 3.99 v -11.777 c 0,-0.414 -0.047,-0.861 -0.14,-1.344 -0.094,-0.482 -0.175,-0.782 -0.244,-0.901 l -0.401,-0.751 h 3.675 v -2.657 c 0,-0.403 0.471,-0.604 1.412,-0.604 h 4.283 v -3.22 h -5.502 c -2.068,0 -3.282,0.213 -3.643,0.636 -0.359,0.423 -0.538,1.029 -0.538,1.815 z m -14.703,8.723 h 2.994 l -0.033,-3.911 c -0.012,-0.394 0.042,-0.666 0.164,-0.819 0.123,-0.153 0.306,-0.229 0.549,-0.229 h 0.592 v -3.453 h -1.775 c -0.454,0 -0.896,0.093 -1.325,0.28 -0.43,0.186 -0.732,0.428 -0.906,0.723 -0.174,0.295 -0.26,0.807 -0.26,1.535 z m -2.632,-1.048 1.642,2.084 -0.057,-15.87 h -3.954 l 0.016,11.705 -0.608,-0.545 c -0.466,-0.415 -1.191,-0.616 -2.178,-0.606 l -1.551,0.015 v 3.483 h 1.08 c 0.697,0 1.388,0.422 2.072,1.269 l 5.367,6.686 h -8.519 v 3.247 l 4.39,-0.03 0.853,1.904 h 3.643 l 0.468,-1.904 3.922,0.03 0.015,-3.085 z" /></g></g></g></svg>