<?xml version="1.0" encoding="UTF-8" standalone="no"?>
<!-- Generator: Adobe Illustrator 23.1.0, SVG Export Plug-In . SVG Version: 6.00 Build 0)  -->

<svg
   xmlns:dc="http://purl.org/dc/elements/1.1/"
   xmlns:cc="http://creativecommons.org/ns#"
   xmlns:rdf="http://www.w3.org/1999/02/22-rdf-syntax-ns#"
   xmlns:svg="http://www.w3.org/2000/svg"
   xmlns="http://www.w3.org/2000/svg"
   xmlns:sodipodi="http://sodipodi.sourceforge.net/DTD/sodipodi-0.dtd"
   xmlns:inkscape="http://www.inkscape.org/namespaces/inkscape"
   version="1.1"
   id="图层_1"
   x="0px"
   y="0px"
   viewBox="0 0 357.15999 30.51"
   xml:space="preserve"
   sodipodi:docname="Logo_Short(EN).svg"
   width="357.16"
   height="30.51"
   inkscape:version="0.92.3 (2405546, 2018-03-11)"><metadata
   id="metadata23"><rdf:RDF><cc:Work
       rdf:about=""><dc:format>image/svg+xml</dc:format><dc:type
         rdf:resource="http://purl.org/dc/dcmitype/StillImage" /><dc:title></dc:title></cc:Work></rdf:RDF></metadata><defs
   id="defs21" /><sodipodi:namedview
   pagecolor="#ffffff"
   bordercolor="#666666"
   borderopacity="1"
   objecttolerance="10"
   gridtolerance="10"
   guidetolerance="10"
   inkscape:pageopacity="0"
   inkscape:pageshadow="2"
   inkscape:window-width="756"
   inkscape:window-height="480"
   id="namedview19"
   showgrid="false"
   fit-margin-top="0"
   fit-margin-left="0"
   fit-margin-right="0"
   fit-margin-bottom="0"
   inkscape:zoom="0.29212621"
   inkscape:cx="179.50001"
   inkscape:cy="-63.734998"
   inkscape:window-x="67"
   inkscape:window-y="27"
   inkscape:window-maximized="0"
   inkscape:current-layer="图层_1" />
<g
   id="g16"
   transform="translate(-118.14,-309.69)">
	<polygon
   points="318.68,315.74 301.76,315.74 301.76,339.96 291.8,339.96 291.8,316.04 274.29,316.04 274.22,309.81 318.68,309.81 "
   id="polygon2" />
	<polygon
   points="439.88,340.05 439.88,327.21 465.58,327.21 465.58,340.04 475.3,340.04 475.3,309.78 465.28,309.78 465.28,320.87 440.18,320.87 440.18,309.7 430,309.7 430,340.05 "
   id="polygon4" />
	<path
   d="m 157.7,309.74 c -0.24,-0.02 -0.47,-0.04 -0.73,-0.04 h -0.02 c -0.01,0 -0.01,0 -0.02,0 v 0 h -32.21 v 0.01 c -0.02,0 -0.04,0 -0.06,0 -3.56,0 -6.45,2.87 -6.49,6.43 h -0.01 l -0.02,23.84 h 9.98 v -23.93 h 25.39 v 23.93 h 9.95 v -24.13 c -0.18,-3.2 -2.63,-5.77 -5.76,-6.11 z"
   id="path6"
   inkscape:connector-curvature="0" />
	<path
   d="m 209.59,340.2 c 3.38,-0.1 6.09,-2.84 6.11,-6.24 v -0.06 c 0,-0.01 0,-0.02 0,-0.03 v 0 -24.17 h -9.96 v 23.86 h -25.36 v -23.79 h -9.99 v 24.3 c 0.09,3.4 2.85,6.13 6.27,6.13 v 0 z"
   id="path8"
   inkscape:connector-curvature="0" />
	<path
   d="m 267.04,316.04 v -6.34 h -38.73 c -3.43,0 -6.2,2.75 -6.27,6.16 v 17.68 c 0,0.12 0.01,0.22 0.02,0.33 0.13,3.28 2.75,5.9 6.04,6.02 h 38.94 v -6.34 H 232 v -17.52 h 35.04 z"
   id="path10"
   inkscape:connector-curvature="0" />
	<path
   d="m 422.87,315.74 v -6.05 l -38.83,0.01 c -3.38,0.06 -6.1,2.78 -6.16,6.15 v 17.61 c 0.08,3.36 2.78,6.06 6.15,6.13 h 38.85 v -5.93 h -35.04 v -17.92 z"
   id="path12"
   inkscape:connector-curvature="0" />
	<path
   d="m 371.23,315.74 v -5.87 h -39.05 c -3.43,0.02 -6.2,2.78 -6.25,6.2 v 17.71 0 c 0.08,3.36 2.79,6.06 6.16,6.12 h 38.84 v -6.15 H 335.6 v -6.15 h 35.64 v -6.04 H 335.6 v -5.82 z"
   id="path14"
   inkscape:connector-curvature="0" />
</g>
</svg>