<?xml version="1.0" encoding="UTF-8" standalone="no"?>
<svg
   xmlns:dc="http://purl.org/dc/elements/1.1/"
   xmlns:cc="http://creativecommons.org/ns#"
   xmlns:rdf="http://www.w3.org/1999/02/22-rdf-syntax-ns#"
   xmlns:svg="http://www.w3.org/2000/svg"
   xmlns="http://www.w3.org/2000/svg"
   viewBox="0 0 666.66669 666.66669"
   height="666.66669"
   width="666.66669"
   xml:space="preserve"
   id="svg2"
   version="1.1"><metadata
     id="metadata8"><rdf:RDF><cc:Work
         rdf:about=""><dc:format>image/svg+xml</dc:format><dc:type
           rdf:resource="http://purl.org/dc/dcmitype/StillImage" /></cc:Work></rdf:RDF></metadata><defs
     id="defs6" /><g
     transform="matrix(1.3333333,0,0,-1.3333333,0,666.66667)"
     id="g10"><g
       transform="scale(0.1)"
       id="g12"><path
         id="path14"
         style="fill:#3facbb;fill-opacity:1;fill-rule:nonzero;stroke:none"
         d="M 5000,0 H 0 V 5000 H 5000 V 0" /><path
         id="path16"
         style="fill:#3facbb;fill-opacity:1;fill-rule:nonzero;stroke:none"
         d="m 1416.09,3122.19 c 0,-25.1 -20.35,-45.45 -45.45,-45.45 H 961.578 c -25.101,0 -45.449,20.35 -45.449,45.45 v 409.06 c 0,25.1 20.348,45.45 45.449,45.45 h 409.062 c 25.1,0 45.45,-20.35 45.45,-45.45 v -409.06" /><path
         id="path18"
         style="fill:none;stroke:#fef5df;stroke-width:20;stroke-linecap:round;stroke-linejoin:round;stroke-miterlimit:10;stroke-dasharray:none;stroke-opacity:1"
         d="m 1416.09,3122.19 c 0,-25.1 -20.35,-45.45 -45.45,-45.45 H 961.578 c -25.101,0 -45.449,20.35 -45.449,45.45 v 409.06 c 0,25.1 20.348,45.45 45.449,45.45 h 409.062 c 25.1,0 45.45,-20.35 45.45,-45.45 z" /><path
         id="path20"
         style="fill:none;stroke:#fef5df;stroke-width:15;stroke-linecap:round;stroke-linejoin:round;stroke-miterlimit:10;stroke-dasharray:none;stroke-opacity:1"
         d="m 1347.09,3178.65 c 0,-18.18 -14.74,-32.91 -32.91,-32.91 h -296.15 c -18.171,0 -32.901,14.73 -32.901,32.91 v 296.14 c 0,18.18 14.73,32.91 32.901,32.91 h 296.15 c 18.17,0 32.91,-14.73 32.91,-32.91 z" /><path
         id="path22"
         style="fill:none;stroke:#fef5df;stroke-width:20;stroke-linecap:round;stroke-linejoin:round;stroke-miterlimit:10;stroke-dasharray:none;stroke-opacity:1"
         d="m 1420.14,3444.02 h 114.42 l 100.16,80.8" /><path
         id="path24"
         style="fill:none;stroke:#fef5df;stroke-width:20;stroke-linecap:round;stroke-linejoin:round;stroke-miterlimit:10;stroke-dasharray:none;stroke-opacity:1"
         d="m 1420.14,3358.09 h 114.42 l 100.16,70.97" /><path
         id="path26"
         style="fill:none;stroke:#fef5df;stroke-width:20;stroke-linecap:round;stroke-linejoin:round;stroke-miterlimit:10;stroke-dasharray:none;stroke-opacity:1"
         d="m 1420.14,3209.41 h 114.42 l 100.16,-80.8" /><path
         id="path28"
         style="fill:none;stroke:#fef5df;stroke-width:20;stroke-linecap:round;stroke-linejoin:round;stroke-miterlimit:10;stroke-dasharray:none;stroke-opacity:1"
         d="m 1420.14,3295.35 h 114.42 l 100.16,-70.97" /><path
         id="path30"
         style="fill:none;stroke:#fef5df;stroke-width:15;stroke-linecap:round;stroke-linejoin:round;stroke-miterlimit:10;stroke-dasharray:none;stroke-opacity:1"
         d="m 1681.49,3536.56 c 0,-12.31 -9.98,-22.29 -22.29,-22.29 -12.31,0 -22.29,9.98 -22.29,22.29 0,12.31 9.98,22.29 22.29,22.29 12.31,0 22.29,-9.98 22.29,-22.29 z" /><path
         id="path32"
         style="fill:none;stroke:#fef5df;stroke-width:15;stroke-linecap:round;stroke-linejoin:round;stroke-miterlimit:10;stroke-dasharray:none;stroke-opacity:1"
         d="m 1681.49,3439.2 c 0,-12.31 -9.98,-22.29 -22.29,-22.29 -12.31,0 -22.29,9.98 -22.29,22.29 0,12.31 9.98,22.29 22.29,22.29 12.31,0 22.29,-9.98 22.29,-22.29 z" /><path
         id="path34"
         style="fill:none;stroke:#fef5df;stroke-width:15;stroke-linecap:round;stroke-linejoin:round;stroke-miterlimit:10;stroke-dasharray:none;stroke-opacity:1"
         d="m 1681.49,3214.24 c 0,-12.31 -9.98,-22.29 -22.29,-22.29 -12.31,0 -22.29,9.98 -22.29,22.29 0,12.31 9.98,22.29 22.29,22.29 12.31,0 22.29,-9.98 22.29,-22.29 z" /><path
         id="path36"
         style="fill:none;stroke:#fef5df;stroke-width:15;stroke-linecap:round;stroke-linejoin:round;stroke-miterlimit:10;stroke-dasharray:none;stroke-opacity:1"
         d="m 1681.49,3116.87 c 0,-12.3 -9.98,-22.28 -22.29,-22.28 -12.31,0 -22.29,9.98 -22.29,22.28 0,12.31 9.98,22.29 22.29,22.29 12.31,0 22.29,-9.98 22.29,-22.29 z" /><path
         id="path38"
         style="fill:none;stroke:#fef5df;stroke-width:20;stroke-linecap:round;stroke-linejoin:round;stroke-miterlimit:10;stroke-dasharray:none;stroke-opacity:1"
         d="M 912.07,3444.02 H 797.66 l -100.168,80.8" /><path
         id="path40"
         style="fill:none;stroke:#fef5df;stroke-width:20;stroke-linecap:round;stroke-linejoin:round;stroke-miterlimit:10;stroke-dasharray:none;stroke-opacity:1"
         d="M 912.07,3358.09 H 797.66 l -100.168,70.97" /><path
         id="path42"
         style="fill:none;stroke:#fef5df;stroke-width:20;stroke-linecap:round;stroke-linejoin:round;stroke-miterlimit:10;stroke-dasharray:none;stroke-opacity:1"
         d="M 912.07,3209.41 H 797.66 l -100.168,-80.8" /><path
         id="path44"
         style="fill:none;stroke:#fef5df;stroke-width:20;stroke-linecap:round;stroke-linejoin:round;stroke-miterlimit:10;stroke-dasharray:none;stroke-opacity:1"
         d="M 912.07,3295.35 H 797.66 l -100.168,-70.97" /><path
         id="path46"
         style="fill:none;stroke:#fef5df;stroke-width:15;stroke-linecap:round;stroke-linejoin:round;stroke-miterlimit:10;stroke-dasharray:none;stroke-opacity:1"
         d="m 650.727,3536.56 c 0,-12.31 9.976,-22.29 22.289,-22.29 12.308,0 22.285,9.98 22.285,22.29 0,12.31 -9.977,22.29 -22.285,22.29 -12.313,0 -22.289,-9.98 -22.289,-22.29 z" /><path
         id="path48"
         style="fill:none;stroke:#fef5df;stroke-width:15;stroke-linecap:round;stroke-linejoin:round;stroke-miterlimit:10;stroke-dasharray:none;stroke-opacity:1"
         d="m 650.727,3439.2 c 0,-12.31 9.976,-22.29 22.289,-22.29 12.308,0 22.285,9.98 22.285,22.29 0,12.31 -9.977,22.29 -22.285,22.29 -12.313,0 -22.289,-9.98 -22.289,-22.29 z" /><path
         id="path50"
         style="fill:none;stroke:#fef5df;stroke-width:15;stroke-linecap:round;stroke-linejoin:round;stroke-miterlimit:10;stroke-dasharray:none;stroke-opacity:1"
         d="m 650.727,3214.24 c 0,-12.31 9.976,-22.29 22.289,-22.29 12.308,0 22.285,9.98 22.285,22.29 0,12.31 -9.977,22.29 -22.285,22.29 -12.313,0 -22.289,-9.98 -22.289,-22.29 z" /><path
         id="path52"
         style="fill:none;stroke:#fef5df;stroke-width:15;stroke-linecap:round;stroke-linejoin:round;stroke-miterlimit:10;stroke-dasharray:none;stroke-opacity:1"
         d="m 650.727,3116.87 c 0,-12.3 9.976,-22.28 22.289,-22.28 12.308,0 22.285,9.98 22.285,22.28 0,12.31 -9.977,22.29 -22.285,22.29 -12.313,0 -22.289,-9.98 -22.289,-22.29 z" /><path
         id="path54"
         style="fill:none;stroke:#fef5df;stroke-width:20;stroke-linecap:round;stroke-linejoin:round;stroke-miterlimit:10;stroke-dasharray:none;stroke-opacity:1"
         d="m 1048.8,3580.76 v 114.41 l -80.796,100.17" /><path
         id="path56"
         style="fill:none;stroke:#fef5df;stroke-width:20;stroke-linecap:round;stroke-linejoin:round;stroke-miterlimit:10;stroke-dasharray:none;stroke-opacity:1"
         d="m 1134.73,3580.76 v 114.41 l -70.96,100.17" /><path
         id="path58"
         style="fill:none;stroke:#fef5df;stroke-width:20;stroke-linecap:round;stroke-linejoin:round;stroke-miterlimit:10;stroke-dasharray:none;stroke-opacity:1"
         d="m 1283.41,3580.76 v 114.41 l 80.8,100.17" /><path
         id="path60"
         style="fill:none;stroke:#fef5df;stroke-width:20;stroke-linecap:round;stroke-linejoin:round;stroke-miterlimit:10;stroke-dasharray:none;stroke-opacity:1"
         d="m 1197.48,3580.76 v 114.41 l 70.97,100.17" /><path
         id="path62"
         style="fill:none;stroke:#fef5df;stroke-width:15;stroke-linecap:round;stroke-linejoin:round;stroke-miterlimit:10;stroke-dasharray:none;stroke-opacity:1"
         d="m 956.266,3842.1 c 12.308,0 22.285,-9.98 22.285,-22.29 0,-12.31 -9.977,-22.28 -22.285,-22.28 -12.313,0 -22.289,9.97 -22.289,22.28 0,12.31 9.976,22.29 22.289,22.29 z" /><path
         id="path64"
         style="fill:none;stroke:#fef5df;stroke-width:15;stroke-linecap:round;stroke-linejoin:round;stroke-miterlimit:10;stroke-dasharray:none;stroke-opacity:1"
         d="m 1053.63,3842.1 c 12.3,0 22.28,-9.98 22.28,-22.29 0,-12.31 -9.98,-22.28 -22.28,-22.28 -12.31,0 -22.29,9.97 -22.29,22.28 0,12.31 9.98,22.29 22.29,22.29 z" /><path
         id="path66"
         style="fill:none;stroke:#fef5df;stroke-width:15;stroke-linecap:round;stroke-linejoin:round;stroke-miterlimit:10;stroke-dasharray:none;stroke-opacity:1"
         d="m 1278.59,3842.1 c 12.31,0 22.29,-9.98 22.29,-22.29 0,-12.31 -9.98,-22.28 -22.29,-22.28 -12.31,0 -22.29,9.97 -22.29,22.28 0,12.31 9.98,22.29 22.29,22.29 z" /><path
         id="path68"
         style="fill:none;stroke:#fef5df;stroke-width:15;stroke-linecap:round;stroke-linejoin:round;stroke-miterlimit:10;stroke-dasharray:none;stroke-opacity:1"
         d="m 1375.95,3842.1 c 12.31,0 22.29,-9.98 22.29,-22.29 0,-12.31 -9.98,-22.28 -22.29,-22.28 -12.31,0 -22.29,9.97 -22.29,22.28 0,12.31 9.98,22.29 22.29,22.29 z" /><path
         id="path70"
         style="fill:none;stroke:#fef5df;stroke-width:20;stroke-linecap:round;stroke-linejoin:round;stroke-miterlimit:10;stroke-dasharray:none;stroke-opacity:1"
         d="M 1048.8,3072.68 V 2958.27 L 968.004,2858.1" /><path
         id="path72"
         style="fill:none;stroke:#fef5df;stroke-width:20;stroke-linecap:round;stroke-linejoin:round;stroke-miterlimit:10;stroke-dasharray:none;stroke-opacity:1"
         d="M 1134.73,3072.68 V 2958.27 L 1063.77,2858.1" /><path
         id="path74"
         style="fill:none;stroke:#fef5df;stroke-width:20;stroke-linecap:round;stroke-linejoin:round;stroke-miterlimit:10;stroke-dasharray:none;stroke-opacity:1"
         d="m 1283.41,3072.68 v -114.41 l 80.8,-100.17" /><path
         id="path76"
         style="fill:none;stroke:#fef5df;stroke-width:20;stroke-linecap:round;stroke-linejoin:round;stroke-miterlimit:10;stroke-dasharray:none;stroke-opacity:1"
         d="m 1197.48,3072.68 v -114.41 l 70.97,-100.17" /><path
         id="path78"
         style="fill:none;stroke:#fef5df;stroke-width:15;stroke-linecap:round;stroke-linejoin:round;stroke-miterlimit:10;stroke-dasharray:none;stroke-opacity:1"
         d="m 956.266,2811.34 c 12.308,0 22.285,9.97 22.285,22.28 0,12.31 -9.977,22.29 -22.285,22.29 -12.313,0 -22.289,-9.98 -22.289,-22.29 0,-12.31 9.976,-22.28 22.289,-22.28 z" /><path
         id="path80"
         style="fill:none;stroke:#fef5df;stroke-width:15;stroke-linecap:round;stroke-linejoin:round;stroke-miterlimit:10;stroke-dasharray:none;stroke-opacity:1"
         d="m 1053.63,2811.34 c 12.3,0 22.28,9.97 22.28,22.28 0,12.31 -9.98,22.29 -22.28,22.29 -12.31,0 -22.29,-9.98 -22.29,-22.29 0,-12.31 9.98,-22.28 22.29,-22.28 z" /><path
         id="path82"
         style="fill:none;stroke:#fef5df;stroke-width:15;stroke-linecap:round;stroke-linejoin:round;stroke-miterlimit:10;stroke-dasharray:none;stroke-opacity:1"
         d="m 1278.59,2811.34 c 12.31,0 22.29,9.97 22.29,22.28 0,12.31 -9.98,22.29 -22.29,22.29 -12.31,0 -22.29,-9.98 -22.29,-22.29 0,-12.31 9.98,-22.28 22.29,-22.28 z" /><path
         id="path84"
         style="fill:none;stroke:#fef5df;stroke-width:15;stroke-linecap:round;stroke-linejoin:round;stroke-miterlimit:10;stroke-dasharray:none;stroke-opacity:1"
         d="m 1375.95,2811.34 c 12.31,0 22.29,9.97 22.29,22.28 0,12.31 -9.98,22.29 -22.29,22.29 -12.31,0 -22.29,-9.98 -22.29,-22.29 0,-12.31 9.98,-22.28 22.29,-22.28 z" /><path
         id="path86"
         style="fill:#fef5df;fill-opacity:1;fill-rule:nonzero;stroke:none"
         d="m 1129.02,3350.65 c 0,-7.96 -6.9,-14.42 -15.42,-14.42 v 0 c -8.52,0 -15.42,6.46 -15.42,14.42 v 41.44 c 0,7.97 6.9,14.42 15.42,14.42 v 0 c 8.52,0 15.42,-6.45 15.42,-14.42 v -41.44" /><path
         id="path88"
         style="fill:#fef5df;fill-opacity:1;fill-rule:nonzero;stroke:none"
         d="m 1234.04,3350.65 c 0,-7.96 -6.9,-14.42 -15.42,-14.42 v 0 c -8.52,0 -15.42,6.46 -15.42,14.42 v 41.44 c 0,7.97 6.9,14.42 15.42,14.42 v 0 c 8.52,0 15.42,-6.45 15.42,-14.42 v -41.44" /><path
         id="path90"
         style="fill:none;stroke:#fef5df;stroke-width:15;stroke-linecap:round;stroke-linejoin:round;stroke-miterlimit:10;stroke-dasharray:none;stroke-opacity:1"
         d="m 1214.95,3282.53 c 0,-19.66 -21.87,-35.6 -48.84,-35.6 -26.97,0 -48.84,15.94 -48.84,35.6" /><path
         id="path92"
         style="fill:none;stroke:#fef5df;stroke-width:15;stroke-linecap:round;stroke-linejoin:round;stroke-miterlimit:10;stroke-dasharray:none;stroke-opacity:1"
         d="m 1206.91,3504.01 v -38.4" /><path
         id="path94"
         style="fill:none;stroke:#fef5df;stroke-width:15;stroke-linecap:round;stroke-linejoin:round;stroke-miterlimit:10;stroke-dasharray:none;stroke-opacity:1"
         d="m 1206.91,3187.82 v -38.39" /><path
         id="path96"
         style="fill:none;stroke:#fef5df;stroke-width:15;stroke-linecap:round;stroke-linejoin:round;stroke-miterlimit:10;stroke-dasharray:none;stroke-opacity:1"
         d="m 1166.11,3504.01 v -38.4" /><path
         id="path98"
         style="fill:none;stroke:#fef5df;stroke-width:15;stroke-linecap:round;stroke-linejoin:round;stroke-miterlimit:10;stroke-dasharray:none;stroke-opacity:1"
         d="m 1166.11,3187.82 v -38.39" /><path
         id="path100"
         style="fill:none;stroke:#fef5df;stroke-width:15;stroke-linecap:round;stroke-linejoin:round;stroke-miterlimit:10;stroke-dasharray:none;stroke-opacity:1"
         d="m 1125.3,3504.01 v -38.4" /><path
         id="path102"
         style="fill:none;stroke:#fef5df;stroke-width:15;stroke-linecap:round;stroke-linejoin:round;stroke-miterlimit:10;stroke-dasharray:none;stroke-opacity:1"
         d="m 1125.3,3187.82 v -38.39" /><path
         id="path104"
         style="fill:none;stroke:#fef5df;stroke-width:15;stroke-linecap:round;stroke-linejoin:round;stroke-miterlimit:10;stroke-dasharray:none;stroke-opacity:1"
         d="m 988.82,3326.72 h 38.39" /><path
         id="path106"
         style="fill:none;stroke:#fef5df;stroke-width:15;stroke-linecap:round;stroke-linejoin:round;stroke-miterlimit:10;stroke-dasharray:none;stroke-opacity:1"
         d="m 1305,3326.72 h 38.4" /><path
         id="path108"
         style="fill:none;stroke:#fef5df;stroke-width:20;stroke-linecap:round;stroke-linejoin:round;stroke-miterlimit:10;stroke-dasharray:none;stroke-opacity:1"
         d="m 4130.73,3143.76 c 0,-19.92 -16.15,-36.06 -36.07,-36.06 h -727.2 c -19.91,0 -36.06,16.14 -36.06,36.06 v 471.67 c 0,19.91 16.15,36.06 36.06,36.06 h 727.2 c 19.92,0 36.07,-16.15 36.07,-36.06 z" /><path
         id="path110"
         style="fill:none;stroke:#fef5df;stroke-width:15;stroke-linecap:round;stroke-linejoin:round;stroke-miterlimit:10;stroke-dasharray:none;stroke-opacity:1"
         d="m 3337.73,3230.25 h 786.66" /><path
         id="path112"
         style="fill:#fef5df;fill-opacity:1;fill-rule:nonzero;stroke:none"
         d="m 3760.72,3169.83 c 0,-12.53 -10.16,-22.69 -22.69,-22.69 -12.53,0 -22.69,10.16 -22.69,22.69 0,12.53 10.16,22.69 22.69,22.69 12.53,0 22.69,-10.16 22.69,-22.69" /><path
         id="path114"
         style="fill:none;stroke:#fef5df;stroke-width:20;stroke-linecap:round;stroke-linejoin:round;stroke-miterlimit:10;stroke-dasharray:none;stroke-opacity:1"
         d="m 3659.14,3101.86 -26.69,-124.02" /><path
         id="path116"
         style="fill:none;stroke:#fef5df;stroke-width:20;stroke-linecap:round;stroke-linejoin:round;stroke-miterlimit:10;stroke-dasharray:none;stroke-opacity:1"
         d="m 3802.99,3101.86 26.69,-124.02" /><path
         id="path118"
         style="fill:none;stroke:#fef5df;stroke-width:20;stroke-linecap:round;stroke-linejoin:round;stroke-miterlimit:10;stroke-dasharray:none;stroke-opacity:1"
         d="m 3884.15,2971.04 h -306.17 c -15.22,0 -27.55,-20.75 -27.55,-46.34 h 361.27 c 0,25.59 -12.33,46.34 -27.55,46.34 z" /><path
         id="path120"
         style="fill:none;stroke:#fef5df;stroke-width:15;stroke-linecap:round;stroke-linejoin:round;stroke-miterlimit:10;stroke-dasharray:none;stroke-opacity:1"
         d="m 3387.22,3230.25 v 374.85 h 687.69 v -374.85" /><path
         id="path122"
         style="fill:#fef5df;fill-opacity:1;fill-rule:nonzero;stroke:none"
         d="m 3693.52,3403.25 h -43.69 v 73.32 h 43.69 v -73.32" /><path
         id="path124"
         style="fill:#fef5df;fill-opacity:1;fill-rule:nonzero;stroke:none"
         d="m 3804.97,3403.25 h -43.7 v 73.32 h 43.7 v -73.32" /><path
         id="path126"
         style="fill:#fef5df;fill-opacity:1;fill-rule:nonzero;stroke:none"
         d="m 3812.98,3305.2 h -171.17 v 28.07 h 171.17 v -28.07" /><path
         id="path128"
         style="fill:#fef5df;fill-opacity:1;fill-rule:nonzero;stroke:none"
         d="m 3641.81,3333.27 h -22.91 v 28.07 h 22.91 v -28.07" /><path
         id="path130"
         style="fill:#fef5df;fill-opacity:1;fill-rule:nonzero;stroke:none"
         d="m 3835.89,3333.27 h -22.91 v 28.07 h 22.91 v -28.07" /><path
         id="path132"
         style="fill:#fef5df;fill-opacity:1;fill-rule:nonzero;stroke:none"
         d="m 3693.14,3513.97 -85.29,-7.04 -1.34,16.17 85.29,7.05 1.34,-16.18" /><path
         id="path134"
         style="fill:#fef5df;fill-opacity:1;fill-rule:nonzero;stroke:none"
         d="m 3768.99,3513.97 85.29,-7.04 1.33,16.17 -85.29,7.05 -1.33,-16.18" /><path
         id="path136"
         style="fill:none;stroke:#fef5df;stroke-width:15;stroke-linecap:round;stroke-linejoin:round;stroke-miterlimit:10;stroke-dasharray:none;stroke-opacity:1"
         d="m 3461.73,3435.77 h 66.65" /><path
         id="path138"
         style="fill:none;stroke:#fef5df;stroke-width:15;stroke-linecap:round;stroke-linejoin:round;stroke-miterlimit:10;stroke-dasharray:none;stroke-opacity:1"
         d="m 3461.73,3399.17 h 66.65" /><path
         id="path140"
         style="fill:none;stroke:#fef5df;stroke-width:15;stroke-linecap:round;stroke-linejoin:round;stroke-miterlimit:10;stroke-dasharray:none;stroke-opacity:1"
         d="m 3461.73,3362.57 h 66.65" /><path
         id="path142"
         style="fill:none;stroke:#fef5df;stroke-width:15;stroke-linecap:round;stroke-linejoin:round;stroke-miterlimit:10;stroke-dasharray:none;stroke-opacity:1"
         d="m 3933.75,3435.77 h 66.65" /><path
         id="path144"
         style="fill:none;stroke:#fef5df;stroke-width:15;stroke-linecap:round;stroke-linejoin:round;stroke-miterlimit:10;stroke-dasharray:none;stroke-opacity:1"
         d="m 3933.75,3399.17 h 66.65" /><path
         id="path146"
         style="fill:none;stroke:#fef5df;stroke-width:15;stroke-linecap:round;stroke-linejoin:round;stroke-miterlimit:10;stroke-dasharray:none;stroke-opacity:1"
         d="m 3933.75,3362.57 h 66.65" /><path
         id="path148"
         style="fill:none;stroke:#fef5df;stroke-width:20;stroke-linecap:round;stroke-linejoin:round;stroke-miterlimit:10;stroke-dasharray:none;stroke-opacity:1"
         d="m 3731.06,2619.31 c -76.31,0 -147.39,-36.5 -165.83,-85.97" /><path
         id="path150"
         style="fill:none;stroke:#fef5df;stroke-width:20;stroke-linecap:round;stroke-linejoin:round;stroke-miterlimit:10;stroke-dasharray:none;stroke-opacity:1"
         d="m 3637.97,2460.42 c -24.07,38.99 -59.23,63.58 -98.39,63.58 -72.54,0 -131.35,-84.34 -131.35,-188.37 0,-51.84 14.61,-98.8 38.24,-132.86" /><path
         id="path152"
         style="fill:none;stroke:#fef5df;stroke-width:20;stroke-linecap:round;stroke-linejoin:round;stroke-miterlimit:10;stroke-dasharray:none;stroke-opacity:1"
         d="m 3526.38,2300.08 c -50.23,-24.13 -85.01,-81.56 -85.01,-150.96 0,-95.68 66.11,-177.88 147.67,-183.6" /><path
         id="path154"
         style="fill:none;stroke:#fef5df;stroke-width:20;stroke-linecap:round;stroke-linejoin:round;stroke-miterlimit:10;stroke-dasharray:none;stroke-opacity:1"
         d="m 3542.82,2363.77 c -9.57,-21.93 -10.58,-49.07 -0.76,-75.56 7,-18.91 18.53,-34.8 32.53,-46.5" /><path
         id="path156"
         style="fill:none;stroke:#fef5df;stroke-width:20;stroke-linecap:round;stroke-linejoin:round;stroke-miterlimit:10;stroke-dasharray:none;stroke-opacity:1"
         d="m 3570.39,2075.84 c 8.36,-13.84 23.15,-25.52 42.04,-31.46 13.47,-4.24 27.12,-4.97 39.44,-2.72" /><path
         id="path158"
         style="fill:none;stroke:#fef5df;stroke-width:20;stroke-linecap:round;stroke-linejoin:round;stroke-miterlimit:10;stroke-dasharray:none;stroke-opacity:1"
         d="m 3448.37,2118.61 c 21.86,-9.53 48.02,-9.23 72.65,3.12 17.58,8.82 31.88,22.53 41.95,38.78" /><path
         id="path160"
         style="fill:none;stroke:#fef5df;stroke-width:20;stroke-linecap:round;stroke-linejoin:round;stroke-miterlimit:10;stroke-dasharray:none;stroke-opacity:1"
         d="m 3628.59,1903.64 c -3.52,18.63 0.43,35.54 12.57,45.9 8.66,7.4 20.26,10.41 33.03,9.51" /><path
         id="path162"
         style="fill:none;stroke:#fef5df;stroke-width:20;stroke-linecap:round;stroke-linejoin:round;stroke-miterlimit:10;stroke-dasharray:none;stroke-opacity:1"
         d="m 3531.27,2347.24 c -20.76,1.87 -39.58,12.08 -51.06,29.92 -8.19,12.74 -11.49,27.56 -10.41,42.49" /><path
         id="path164"
         style="fill:none;stroke:#fef5df;stroke-width:20;stroke-linecap:round;stroke-linejoin:round;stroke-miterlimit:10;stroke-dasharray:none;stroke-opacity:1"
         d="m 3613.19,2393.84 c 19.6,-1.36 40.42,2.83 57.3,12.78 12.05,7.1 20.37,16.12 24.75,25.76" /><path
         id="path166"
         style="fill:none;stroke:#fef5df;stroke-width:20;stroke-linecap:round;stroke-linejoin:round;stroke-miterlimit:10;stroke-dasharray:none;stroke-opacity:1"
         d="m 3652.37,2561.74 c 6.85,-14.99 19.11,-28.57 34.84,-36.86 11.22,-5.91 22.62,-8.29 32.93,-7.52" /><path
         id="path168"
         style="fill:none;stroke:#fef5df;stroke-width:20;stroke-linecap:round;stroke-linejoin:round;stroke-miterlimit:10;stroke-dasharray:none;stroke-opacity:1"
         d="m 3622.24,2118.78 c 10.28,20.15 28.28,38.59 51.12,50.08 16.3,8.2 32.75,11.7 47.55,10.96" /><path
         id="path170"
         style="fill:none;stroke:#fef5df;stroke-width:20;stroke-linecap:round;stroke-linejoin:round;stroke-miterlimit:10;stroke-dasharray:none;stroke-opacity:1"
         d="m 3625.22,2294.24 c 25.58,-17.98 45.04,-43.26 51.86,-70.93 4.86,-19.76 2.59,-37.93 -5.28,-52.84" /><path
         id="path172"
         style="fill:none;stroke:#fef5df;stroke-width:20;stroke-linecap:round;stroke-linejoin:round;stroke-miterlimit:10;stroke-dasharray:none;stroke-opacity:1"
         d="m 3605.35,2042.81 c -10.4,-17.5 -16.31,-37.55 -16.31,-58.86 0,-68.2 67.44,-123.48 142.02,-123.48" /><path
         id="path174"
         style="fill:none;stroke:#fef5df;stroke-width:20;stroke-linecap:round;stroke-linejoin:round;stroke-miterlimit:10;stroke-dasharray:none;stroke-opacity:1"
         d="m 3731.06,2619.31 c 76.31,0 147.4,-36.5 165.84,-85.97" /><path
         id="path176"
         style="fill:none;stroke:#fef5df;stroke-width:20;stroke-linecap:round;stroke-linejoin:round;stroke-miterlimit:10;stroke-dasharray:none;stroke-opacity:1"
         d="m 3859.15,2500.64 c 18.8,14.89 40.41,23.36 63.4,23.36 72.54,0 131.34,-84.34 131.34,-188.37 0,-51.84 -14.6,-98.8 -38.24,-132.86" /><path
         id="path178"
         style="fill:none;stroke:#fef5df;stroke-width:20;stroke-linecap:round;stroke-linejoin:round;stroke-miterlimit:10;stroke-dasharray:none;stroke-opacity:1"
         d="m 3984.45,2260.35 c 22.62,-28.85 36.31,-67.68 36.31,-111.23 0,-95.68 -66.12,-177.88 -147.68,-183.6" /><path
         id="path180"
         style="fill:none;stroke:#fef5df;stroke-width:20;stroke-linecap:round;stroke-linejoin:round;stroke-miterlimit:10;stroke-dasharray:none;stroke-opacity:1"
         d="m 3856.77,2042.81 c 10.4,-17.5 16.31,-37.55 16.31,-58.86 0,-68.2 -67.43,-123.48 -142.02,-123.48" /><path
         id="path182"
         style="fill:none;stroke:#fef5df;stroke-width:20;stroke-linecap:round;stroke-linejoin:round;stroke-miterlimit:10;stroke-dasharray:none;stroke-opacity:1"
         d="M 3731.06,2615.01 V 1864.77" /><path
         id="path184"
         style="fill:none;stroke:#fef5df;stroke-width:15;stroke-linecap:round;stroke-linejoin:round;stroke-miterlimit:10;stroke-dasharray:none;stroke-opacity:1"
         d="m 3738.59,2257.43 h 150.49" /><path
         id="path186"
         style="fill:none;stroke:#fef5df;stroke-width:15;stroke-linecap:round;stroke-linejoin:round;stroke-miterlimit:10;stroke-dasharray:none;stroke-opacity:1"
         d="m 3818.6,2253.72 38.97,-89.48 h 68.98" /><path
         id="path188"
         style="fill:#fef5df;fill-opacity:1;fill-rule:nonzero;stroke:none"
         d="m 3932.38,2257.43 c 0,-11.96 -9.69,-21.65 -21.65,-21.65 -11.96,0 -21.65,9.69 -21.65,21.65 0,11.96 9.69,21.65 21.65,21.65 11.96,0 21.65,-9.69 21.65,-21.65" /><path
         id="path190"
         style="fill:#fef5df;fill-opacity:1;fill-rule:nonzero;stroke:none"
         d="m 3943.98,2163.32 c 0,-11.96 -9.69,-21.66 -21.65,-21.66 -11.96,0 -21.65,9.7 -21.65,21.66 0,11.95 9.69,21.65 21.65,21.65 11.96,0 21.65,-9.7 21.65,-21.65" /><path
         id="path192"
         style="fill:#fef5df;fill-opacity:1;fill-rule:nonzero;stroke:none"
         d="m 3821.55,2097.12 c 0,-11.95 -9.7,-21.65 -21.66,-21.65 -11.95,0 -21.65,9.7 -21.65,21.65 0,11.96 9.7,21.66 21.65,21.66 11.96,0 21.66,-9.7 21.66,-21.66" /><path
         id="path194"
         style="fill:none;stroke:#fef5df;stroke-width:15;stroke-linecap:round;stroke-linejoin:round;stroke-miterlimit:10;stroke-dasharray:none;stroke-opacity:1"
         d="m 3738.59,2300.83 h 125.48 l 57.73,62.55" /><path
         id="path196"
         style="fill:#fef5df;fill-opacity:1;fill-rule:nonzero;stroke:none"
         d="m 3951.61,2372.94 c 0,-11.96 -9.69,-21.65 -21.65,-21.65 -11.96,0 -21.66,9.69 -21.66,21.65 0,11.96 9.7,21.65 21.66,21.65 11.96,0 21.65,-9.69 21.65,-21.65" /><path
         id="path198"
         style="fill:none;stroke:#fef5df;stroke-width:15;stroke-linecap:round;stroke-linejoin:round;stroke-miterlimit:10;stroke-dasharray:none;stroke-opacity:1"
         d="m 3865.4,2390.26 -43.57,-50.81 h -81.55" /><path
         id="path200"
         style="fill:#fef5df;fill-opacity:1;fill-rule:nonzero;stroke:none"
         d="m 3891.67,2399.08 c 0,-11.96 -9.69,-21.65 -21.65,-21.65 -11.96,0 -21.65,9.69 -21.65,21.65 0,11.96 9.69,21.66 21.65,21.66 11.96,0 21.65,-9.7 21.65,-21.66" /><path
         id="path202"
         style="fill:none;stroke:#fef5df;stroke-width:15;stroke-linecap:round;stroke-linejoin:round;stroke-miterlimit:10;stroke-dasharray:none;stroke-opacity:1"
         d="m 3843.82,2195.8 h -42.43 v -98.68" /><path
         id="path204"
         style="fill:none;stroke:#fef5df;stroke-width:20;stroke-linecap:round;stroke-linejoin:round;stroke-miterlimit:10;stroke-dasharray:none;stroke-opacity:1"
         d="m 2456.77,2239.12 v -57.88" /><path
         id="path206"
         style="fill:none;stroke:#fef5df;stroke-width:20;stroke-linecap:round;stroke-linejoin:round;stroke-miterlimit:10;stroke-dasharray:none;stroke-opacity:1"
         d="m 2497.63,2239.12 v -57.88" /><path
         id="path208"
         style="fill:none;stroke:#fef5df;stroke-width:20;stroke-linecap:round;stroke-linejoin:round;stroke-miterlimit:10;stroke-dasharray:none;stroke-opacity:1"
         d="m 2538.49,2239.12 v -57.88" /><path
         id="path210"
         style="fill:none;stroke:#fef5df;stroke-width:20;stroke-linecap:round;stroke-linejoin:round;stroke-miterlimit:10;stroke-dasharray:none;stroke-opacity:1"
         d="m 2789.59,2034.2 c 0,-18.3 -14.84,-33.14 -33.14,-33.14 H 2238.8 c -18.3,0 -33.14,14.84 -33.14,33.14 v 487.17 c 0,18.3 14.84,33.13 33.14,33.13 h 517.65 c 18.3,0 33.14,-14.83 33.14,-33.13 z" /><path
         id="path212"
         style="fill:none;stroke:#fef5df;stroke-width:20;stroke-linecap:round;stroke-linejoin:round;stroke-miterlimit:10;stroke-dasharray:none;stroke-opacity:1"
         d="m 2497.63,2565.08 v 66.04" /><path
         id="path214"
         style="fill:none;stroke:#fef5df;stroke-width:20;stroke-linecap:round;stroke-linejoin:round;stroke-miterlimit:10;stroke-dasharray:none;stroke-opacity:1"
         d="m 2531.73,2671.83 c 0,-18.83 -15.27,-34.1 -34.1,-34.1 -18.84,0 -34.11,15.27 -34.11,34.1 0,18.84 15.27,34.11 34.11,34.11 18.83,0 34.1,-15.27 34.1,-34.11 z" /><path
         id="path216"
         style="fill:none;stroke:#fef5df;stroke-width:20;stroke-linecap:round;stroke-linejoin:round;stroke-miterlimit:10;stroke-dasharray:none;stroke-opacity:1"
         d="m 2197.86,2214.33 h -40.75 c -14.38,0 -26.04,11.65 -26.04,26.04 v 169.39 c 0,14.38 11.66,26.04 26.04,26.04 h 40.75" /><path
         id="path218"
         style="fill:none;stroke:#fef5df;stroke-width:20;stroke-linecap:round;stroke-linejoin:round;stroke-miterlimit:10;stroke-dasharray:none;stroke-opacity:1"
         d="m 2797.39,2214.33 h 40.75 c 14.38,0 26.04,11.65 26.04,26.04 v 169.39 c 0,14.38 -11.66,26.04 -26.04,26.04 h -40.75" /><path
         id="path220"
         style="fill:none;stroke:#fef5df;stroke-width:20;stroke-linecap:round;stroke-linejoin:round;stroke-miterlimit:10;stroke-dasharray:none;stroke-opacity:1"
         d="m 2449.11,2334.85 c 0,-39.74 -32.21,-71.95 -71.95,-71.95 -39.74,0 -71.96,32.21 -71.96,71.95 0,39.74 32.22,71.96 71.96,71.96 39.74,0 71.95,-32.22 71.95,-71.96 z" /><path
         id="path222"
         style="fill:#fef5df;fill-opacity:1;fill-rule:nonzero;stroke:none"
         d="m 2403.67,2334.85 c 0,-14.64 -11.87,-26.52 -26.51,-26.52 -14.65,0 -26.52,11.88 -26.52,26.52 0,14.65 11.87,26.52 26.52,26.52 14.64,0 26.51,-11.87 26.51,-26.52" /><path
         id="path224"
         style="fill:#fef5df;fill-opacity:1;fill-rule:nonzero;stroke:none"
         d="m 2647.39,2334.85 c 0,-14.64 -11.88,-26.52 -26.52,-26.52 -14.65,0 -26.52,11.88 -26.52,26.52 0,14.65 11.87,26.52 26.52,26.52 14.64,0 26.52,-11.87 26.52,-26.52" /><path
         id="path226"
         style="fill:none;stroke:#fef5df;stroke-width:20;stroke-linecap:round;stroke-linejoin:round;stroke-miterlimit:10;stroke-dasharray:none;stroke-opacity:1"
         d="m 2692.82,2334.85 c 0,-39.74 -32.21,-71.95 -71.95,-71.95 -39.74,0 -71.96,32.21 -71.96,71.95 0,39.74 32.22,71.96 71.96,71.96 39.74,0 71.95,-32.22 71.95,-71.96 z" /><path
         id="path228"
         style="fill:none;stroke:#fef5df;stroke-width:20;stroke-linecap:round;stroke-linejoin:round;stroke-miterlimit:10;stroke-dasharray:none;stroke-opacity:1"
         d="m 2128.95,2365.92 h -37.67" /><path
         id="path230"
         style="fill:none;stroke:#fef5df;stroke-width:20;stroke-linecap:round;stroke-linejoin:round;stroke-miterlimit:10;stroke-dasharray:none;stroke-opacity:1"
         d="m 2128.95,2325.06 h -37.67" /><path
         id="path232"
         style="fill:none;stroke:#fef5df;stroke-width:20;stroke-linecap:round;stroke-linejoin:round;stroke-miterlimit:10;stroke-dasharray:none;stroke-opacity:1"
         d="m 2128.95,2284.2 h -37.67" /><path
         id="path234"
         style="fill:none;stroke:#fef5df;stroke-width:20;stroke-linecap:round;stroke-linejoin:round;stroke-miterlimit:10;stroke-dasharray:none;stroke-opacity:1"
         d="m 2903.98,2365.92 h -37.67" /><path
         id="path236"
         style="fill:none;stroke:#fef5df;stroke-width:20;stroke-linecap:round;stroke-linejoin:round;stroke-miterlimit:10;stroke-dasharray:none;stroke-opacity:1"
         d="m 2903.98,2325.06 h -37.67" /><path
         id="path238"
         style="fill:none;stroke:#fef5df;stroke-width:20;stroke-linecap:round;stroke-linejoin:round;stroke-miterlimit:10;stroke-dasharray:none;stroke-opacity:1"
         d="m 2903.98,2284.2 h -37.67" /><path
         id="path240"
         style="fill:none;stroke:#fef5df;stroke-width:15;stroke-linecap:round;stroke-linejoin:round;stroke-miterlimit:10;stroke-dasharray:none;stroke-opacity:1"
         d="m 2333.44,2007.13 v 128.22 c 0,22.71 18.41,41.12 41.12,41.12 h 246.13 c 22.71,0 41.12,-18.41 41.12,-41.12 v -128.22" /><path
         id="path242"
         style="fill:none;stroke:#fef5df;stroke-width:15;stroke-linecap:round;stroke-linejoin:round;stroke-miterlimit:10;stroke-dasharray:none;stroke-opacity:1"
         d="M 2377.16,2549.52 V 2406.27" /><path
         id="path244"
         style="fill:none;stroke:#fef5df;stroke-width:15;stroke-linecap:round;stroke-linejoin:round;stroke-miterlimit:10;stroke-dasharray:none;stroke-opacity:1"
         d="M 2620.87,2549.52 V 2406.27" /><path
         id="path246"
         style="fill:none;stroke:#fef5df;stroke-width:15;stroke-linecap:round;stroke-linejoin:round;stroke-miterlimit:10;stroke-dasharray:none;stroke-opacity:1"
         d="m 2377.16,2250.67 v -72.2" /><path
         id="path248"
         style="fill:none;stroke:#fef5df;stroke-width:15;stroke-linecap:round;stroke-linejoin:round;stroke-miterlimit:10;stroke-dasharray:none;stroke-opacity:1"
         d="m 2620.87,2250.67 v -72.2" /><path
         id="path250"
         style="fill:none;stroke:#fef5df;stroke-width:15;stroke-linecap:round;stroke-linejoin:round;stroke-miterlimit:10;stroke-dasharray:none;stroke-opacity:1"
         d="m 2714.37,1993.16 v -85.2 h -433.49 v 85.2" /><path
         id="path252"
         style="fill:#fef5df;fill-opacity:1;fill-rule:nonzero;stroke:none"
         d="m 2348.2,1950.56 c 0,-7.5 -6.08,-13.58 -13.58,-13.58 -7.51,0 -13.59,6.08 -13.59,13.58 0,7.5 6.08,13.59 13.59,13.59 7.5,0 13.58,-6.09 13.58,-13.59" /><path
         id="path254"
         style="fill:#fef5df;fill-opacity:1;fill-rule:nonzero;stroke:none"
         d="m 2413.4,1950.56 c 0,-7.5 -6.08,-13.58 -13.58,-13.58 -7.5,0 -13.58,6.08 -13.58,13.58 0,7.5 6.08,13.59 13.58,13.59 7.5,0 13.58,-6.09 13.58,-13.59" /><path
         id="path256"
         style="fill:#fef5df;fill-opacity:1;fill-rule:nonzero;stroke:none"
         d="m 2478.61,1950.56 c 0,-7.5 -6.08,-13.58 -13.59,-13.58 -7.5,0 -13.58,6.08 -13.58,13.58 0,7.5 6.08,13.59 13.58,13.59 7.51,0 13.59,-6.09 13.59,-13.59" /><path
         id="path258"
         style="fill:#fef5df;fill-opacity:1;fill-rule:nonzero;stroke:none"
         d="m 2543.81,1950.56 c 0,-7.5 -6.08,-13.58 -13.58,-13.58 -7.5,0 -13.59,6.08 -13.59,13.58 0,7.5 6.09,13.59 13.59,13.59 7.5,0 13.58,-6.09 13.58,-13.59" /><path
         id="path260"
         style="fill:#fef5df;fill-opacity:1;fill-rule:nonzero;stroke:none"
         d="m 2609.01,1950.56 c 0,-7.5 -6.08,-13.58 -13.58,-13.58 -7.5,0 -13.58,6.08 -13.58,13.58 0,7.5 6.08,13.59 13.58,13.59 7.5,0 13.58,-6.09 13.58,-13.59" /><path
         id="path262"
         style="fill:#fef5df;fill-opacity:1;fill-rule:nonzero;stroke:none"
         d="m 2674.22,1950.56 c 0,-7.5 -6.08,-13.58 -13.59,-13.58 -7.5,0 -13.58,6.08 -13.58,13.58 0,7.5 6.08,13.59 13.58,13.59 7.51,0 13.59,-6.09 13.59,-13.59" /><path
         id="path264"
         style="fill:none;stroke:#fef5df;stroke-width:20;stroke-linecap:round;stroke-linejoin:round;stroke-miterlimit:10;stroke-dasharray:none;stroke-opacity:1"
         d="m 2574.34,2113.43 c 0,-26.78 -34.35,-48.49 -76.71,-48.49 -42.37,0 -76.71,21.71 -76.71,48.49" /><path
         id="path266"
         style="fill:#fef5df;fill-opacity:1;fill-rule:nonzero;stroke:none"
         d="m 2747.71,2492.47 c 0,-9.68 -7.85,-17.52 -17.53,-17.52 -9.68,0 -17.52,7.84 -17.52,17.52 0,9.68 7.84,17.53 17.52,17.53 9.68,0 17.53,-7.85 17.53,-17.53" /><path
         id="path268"
         style="fill:#fef5df;fill-opacity:1;fill-rule:nonzero;stroke:none"
         d="m 2747.71,2058.25 c 0,-9.68 -7.85,-17.52 -17.53,-17.52 -9.68,0 -17.52,7.84 -17.52,17.52 0,9.68 7.84,17.53 17.52,17.53 9.68,0 17.53,-7.85 17.53,-17.53" /><path
         id="path270"
         style="fill:#fef5df;fill-opacity:1;fill-rule:nonzero;stroke:none"
         d="m 2282.59,2492.47 c 0,-9.68 -7.84,-17.52 -17.52,-17.52 -9.68,0 -17.52,7.84 -17.52,17.52 0,9.68 7.84,17.53 17.52,17.53 9.68,0 17.52,-7.85 17.52,-17.53" /><path
         id="path272"
         style="fill:#fef5df;fill-opacity:1;fill-rule:nonzero;stroke:none"
         d="m 2282.59,2058.25 c 0,-9.68 -7.84,-17.52 -17.52,-17.52 -9.68,0 -17.52,7.84 -17.52,17.52 0,9.68 7.84,17.53 17.52,17.53 9.68,0 17.52,-7.85 17.52,-17.53" /><path
         id="path274"
         style="fill:none;stroke:#fef5df;stroke-width:15;stroke-linecap:round;stroke-linejoin:round;stroke-miterlimit:10;stroke-dasharray:none;stroke-opacity:1"
         d="m 2559.99,2549.52 v -87.62 h -124.72 v 87.62" /><path
         id="path276"
         style="fill:none;stroke:#fef5df;stroke-width:20;stroke-linecap:round;stroke-linejoin:round;stroke-miterlimit:10;stroke-dasharray:none;stroke-opacity:1"
         d="M 1513.41,2519.85 H 818.805 c -22.789,0 -41.262,-18.47 -41.262,-41.26 v -452.16 c 0,-22.78 18.473,-41.26 41.262,-41.26 h 316.535 v -142.71 l 142.71,142.71 h 235.36 c 22.79,0 41.26,18.48 41.26,41.26 v 452.16 c 0,22.79 -18.47,41.26 -41.26,41.26 z" /><path
         id="path278"
         style="fill:none;stroke:#fef5df;stroke-width:15;stroke-linecap:round;stroke-linejoin:round;stroke-miterlimit:10;stroke-dasharray:none;stroke-opacity:1"
         d="m 932.953,2355.53 c 0,-11.3 -9.164,-20.46 -20.465,-20.46 v 0 c -11.304,0 -20.465,9.16 -20.465,20.46 v 43.27 c 0,11.3 9.161,20.46 20.465,20.46 v 0 c 11.301,0 20.465,-9.16 20.465,-20.46 z" /><path
         id="path280"
         style="fill:none;stroke:#fef5df;stroke-width:15;stroke-linecap:round;stroke-linejoin:round;stroke-miterlimit:10;stroke-dasharray:none;stroke-opacity:1"
         d="m 982.98,2415.05 v -75.77" /><path
         id="path282"
         style="fill:none;stroke:#fef5df;stroke-width:15;stroke-linecap:round;stroke-linejoin:round;stroke-miterlimit:10;stroke-dasharray:none;stroke-opacity:1"
         d="m 1065.31,2355.53 c 0,-11.3 -9.17,-20.46 -20.47,-20.46 v 0 c -11.3,0 -20.47,9.16 -20.47,20.46 v 43.27 c 0,11.3 9.17,20.46 20.47,20.46 v 0 c 11.3,0 20.47,-9.16 20.47,-20.46 z" /><path
         id="path284"
         style="fill:none;stroke:#fef5df;stroke-width:15;stroke-linecap:round;stroke-linejoin:round;stroke-miterlimit:10;stroke-dasharray:none;stroke-opacity:1"
         d="m 1198.3,2355.53 c 0,-11.3 -9.16,-20.46 -20.47,-20.46 v 0 c -11.3,0 -20.46,9.16 -20.46,20.46 v 43.27 c 0,11.3 9.16,20.46 20.46,20.46 v 0 c 11.31,0 20.47,-9.16 20.47,-20.46 z" /><path
         id="path286"
         style="fill:none;stroke:#fef5df;stroke-width:15;stroke-linecap:round;stroke-linejoin:round;stroke-miterlimit:10;stroke-dasharray:none;stroke-opacity:1"
         d="m 1288.63,2355.53 c 0,-11.3 -9.16,-20.46 -20.47,-20.46 v 0 c -11.3,0 -20.46,9.16 -20.46,20.46 v 43.27 c 0,11.3 9.16,20.46 20.46,20.46 v 0 c 11.31,0 20.47,-9.16 20.47,-20.46 z" /><path
         id="path288"
         style="fill:none;stroke:#fef5df;stroke-width:15;stroke-linecap:round;stroke-linejoin:round;stroke-miterlimit:10;stroke-dasharray:none;stroke-opacity:1"
         d="m 1378.96,2355.53 c 0,-11.3 -9.16,-20.46 -20.47,-20.46 v 0 c -11.3,0 -20.46,9.16 -20.46,20.46 v 43.27 c 0,11.3 9.16,20.46 20.46,20.46 v 0 c 11.31,0 20.47,-9.16 20.47,-20.46 z" /><path
         id="path290"
         style="fill:none;stroke:#fef5df;stroke-width:15;stroke-linecap:round;stroke-linejoin:round;stroke-miterlimit:10;stroke-dasharray:none;stroke-opacity:1"
         d="m 1106.95,2415.05 v -75.77" /><path
         id="path292"
         style="fill:none;stroke:#fef5df;stroke-width:15;stroke-linecap:round;stroke-linejoin:round;stroke-miterlimit:10;stroke-dasharray:none;stroke-opacity:1"
         d="m 1440.2,2415.05 v -75.77" /><path
         id="path294"
         style="fill:none;stroke:#fef5df;stroke-width:15;stroke-linecap:round;stroke-linejoin:round;stroke-miterlimit:10;stroke-dasharray:none;stroke-opacity:1"
         d="m 1399.26,2269.34 c 0,11.31 9.17,20.47 20.47,20.47 v 0 c 11.3,0 20.47,-9.16 20.47,-20.47 v -43.26 c 0,-11.31 -9.17,-20.47 -20.47,-20.47 v 0 c -11.3,0 -20.47,9.16 -20.47,20.47 z" /><path
         id="path296"
         style="fill:none;stroke:#fef5df;stroke-width:15;stroke-linecap:round;stroke-linejoin:round;stroke-miterlimit:10;stroke-dasharray:none;stroke-opacity:1"
         d="m 1349.24,2209.82 v 75.78" /><path
         id="path298"
         style="fill:none;stroke:#fef5df;stroke-width:15;stroke-linecap:round;stroke-linejoin:round;stroke-miterlimit:10;stroke-dasharray:none;stroke-opacity:1"
         d="m 1266.91,2269.34 c 0,11.31 9.16,20.47 20.47,20.47 v 0 c 11.3,0 20.46,-9.16 20.46,-20.47 v -43.26 c 0,-11.31 -9.16,-20.47 -20.46,-20.47 v 0 c -11.31,0 -20.47,9.16 -20.47,20.47 z" /><path
         id="path300"
         style="fill:none;stroke:#fef5df;stroke-width:15;stroke-linecap:round;stroke-linejoin:round;stroke-miterlimit:10;stroke-dasharray:none;stroke-opacity:1"
         d="m 1133.92,2269.34 c 0,11.31 9.16,20.47 20.46,20.47 v 0 c 11.31,0 20.47,-9.16 20.47,-20.47 v -43.26 c 0,-11.31 -9.16,-20.47 -20.47,-20.47 v 0 c -11.3,0 -20.46,9.16 -20.46,20.47 z" /><path
         id="path302"
         style="fill:none;stroke:#fef5df;stroke-width:15;stroke-linecap:round;stroke-linejoin:round;stroke-miterlimit:10;stroke-dasharray:none;stroke-opacity:1"
         d="m 1043.59,2269.34 c 0,11.31 9.16,20.47 20.46,20.47 v 0 c 11.31,0 20.47,-9.16 20.47,-20.47 v -43.26 c 0,-11.31 -9.16,-20.47 -20.47,-20.47 v 0 c -11.3,0 -20.46,9.16 -20.46,20.47 z" /><path
         id="path304"
         style="fill:none;stroke:#fef5df;stroke-width:15;stroke-linecap:round;stroke-linejoin:round;stroke-miterlimit:10;stroke-dasharray:none;stroke-opacity:1"
         d="m 953.258,2269.34 c 0,11.31 9.16,20.47 20.465,20.47 v 0 c 11.304,0 20.465,-9.16 20.465,-20.47 v -43.26 c 0,-11.31 -9.161,-20.47 -20.465,-20.47 v 0 c -11.305,0 -20.465,9.16 -20.465,20.47 z" /><path
         id="path306"
         style="fill:none;stroke:#fef5df;stroke-width:15;stroke-linecap:round;stroke-linejoin:round;stroke-miterlimit:10;stroke-dasharray:none;stroke-opacity:1"
         d="m 1225.27,2209.82 v 75.78" /><path
         id="path308"
         style="fill:none;stroke:#fef5df;stroke-width:15;stroke-linecap:round;stroke-linejoin:round;stroke-miterlimit:10;stroke-dasharray:none;stroke-opacity:1"
         d="m 892.023,2209.82 v 75.78" /><path
         id="path310"
         style="fill:none;stroke:#fef5df;stroke-width:15;stroke-linecap:round;stroke-linejoin:round;stroke-miterlimit:10;stroke-dasharray:none;stroke-opacity:1"
         d="m 932.953,2139.89 c 0,11.3 -9.164,20.46 -20.465,20.46 v 0 c -11.304,0 -20.465,-9.16 -20.465,-20.46 v -43.27 c 0,-11.3 9.161,-20.46 20.465,-20.46 v 0 c 11.301,0 20.465,9.16 20.465,20.46 z" /><path
         id="path312"
         style="fill:none;stroke:#fef5df;stroke-width:15;stroke-linecap:round;stroke-linejoin:round;stroke-miterlimit:10;stroke-dasharray:none;stroke-opacity:1"
         d="m 982.98,2080.37 v 75.77" /><path
         id="path314"
         style="fill:none;stroke:#fef5df;stroke-width:15;stroke-linecap:round;stroke-linejoin:round;stroke-miterlimit:10;stroke-dasharray:none;stroke-opacity:1"
         d="m 1065.31,2139.89 c 0,11.3 -9.17,20.46 -20.47,20.46 v 0 c -11.3,0 -20.47,-9.16 -20.47,-20.46 v -43.27 c 0,-11.3 9.17,-20.46 20.47,-20.46 v 0 c 11.3,0 20.47,9.16 20.47,20.46 z" /><path
         id="path316"
         style="fill:none;stroke:#fef5df;stroke-width:15;stroke-linecap:round;stroke-linejoin:round;stroke-miterlimit:10;stroke-dasharray:none;stroke-opacity:1"
         d="m 1198.3,2139.89 c 0,11.3 -9.16,20.46 -20.47,20.46 v 0 c -11.3,0 -20.46,-9.16 -20.46,-20.46 v -43.27 c 0,-11.3 9.16,-20.46 20.46,-20.46 v 0 c 11.31,0 20.47,9.16 20.47,20.46 z" /><path
         id="path318"
         style="fill:none;stroke:#fef5df;stroke-width:15;stroke-linecap:round;stroke-linejoin:round;stroke-miterlimit:10;stroke-dasharray:none;stroke-opacity:1"
         d="m 1288.63,2139.89 c 0,11.3 -9.16,20.46 -20.47,20.46 v 0 c -11.3,0 -20.46,-9.16 -20.46,-20.46 v -43.27 c 0,-11.3 9.16,-20.46 20.46,-20.46 v 0 c 11.31,0 20.47,9.16 20.47,20.46 z" /><path
         id="path320"
         style="fill:none;stroke:#fef5df;stroke-width:15;stroke-linecap:round;stroke-linejoin:round;stroke-miterlimit:10;stroke-dasharray:none;stroke-opacity:1"
         d="m 1378.96,2139.89 c 0,11.3 -9.16,20.46 -20.47,20.46 v 0 c -11.3,0 -20.46,-9.16 -20.46,-20.46 v -43.27 c 0,-11.3 9.16,-20.46 20.46,-20.46 v 0 c 11.31,0 20.47,9.16 20.47,20.46 z" /><path
         id="path322"
         style="fill:none;stroke:#fef5df;stroke-width:15;stroke-linecap:round;stroke-linejoin:round;stroke-miterlimit:10;stroke-dasharray:none;stroke-opacity:1"
         d="m 1106.95,2080.37 v 75.77" /><path
         id="path324"
         style="fill:none;stroke:#fef5df;stroke-width:15;stroke-linecap:round;stroke-linejoin:round;stroke-miterlimit:10;stroke-dasharray:none;stroke-opacity:1"
         d="m 1440.2,2080.37 v 75.77" /><path
         id="path326"
         style="fill:none;stroke:#fef5df;stroke-width:20;stroke-linecap:round;stroke-linejoin:round;stroke-miterlimit:10;stroke-dasharray:none;stroke-opacity:1"
         d="m 2777.99,3032.2 h -72.17 c -14.18,0 -25.67,11.5 -25.67,25.67" /><path
         id="path328"
         style="fill:none;stroke:#fef5df;stroke-width:15;stroke-linecap:round;stroke-linejoin:round;stroke-miterlimit:10;stroke-dasharray:none;stroke-opacity:1"
         d="m 2493.87,3048.35 h 71.95" /><path
         id="path330"
         style="fill:none;stroke:#fef5df;stroke-width:15;stroke-linecap:round;stroke-linejoin:round;stroke-miterlimit:10;stroke-dasharray:none;stroke-opacity:1"
         d="m 2493.87,2990.32 h 71.95" /><path
         id="path332"
         style="fill:#3facbb;fill-opacity:1;fill-rule:nonzero;stroke:none"
         d="m 2562.02,3251.31 91.48,-106.83 h 213.86 c 20.41,438.68 -151.18,526.3 -372.35,526.3 -171.65,0 -325.56,-139.15 -325.56,-310.8 0,-156.16 115.17,-285.42 265.2,-307.47" /><path
         id="path334"
         style="fill:none;stroke:#fef5df;stroke-width:20;stroke-linecap:round;stroke-linejoin:round;stroke-miterlimit:10;stroke-dasharray:none;stroke-opacity:1"
         d="m 2562.02,3251.31 91.48,-106.83 h 213.86 c 20.41,438.68 -151.18,526.3 -372.35,526.3 -171.65,0 -325.56,-139.15 -325.56,-310.8 0,-156.16 115.17,-285.42 265.2,-307.47" /><path
         id="path336"
         style="fill:none;stroke:#fef5df;stroke-width:20;stroke-linecap:round;stroke-linejoin:round;stroke-miterlimit:10;stroke-dasharray:none;stroke-opacity:1"
         d="m 2594.51,3337.52 96.91,-111.62 h 173.86" /><path
         id="path338"
         style="fill:#3facbb;fill-opacity:1;fill-rule:nonzero;stroke:none"
         d="m 2500.11,3714.76 c -206.53,-0.25 -373.87,-159.72 -373.87,-356.4 0,-0.21 0.02,-0.41 0.02,-0.62 h 373.85 v 357.02" /><path
         id="path340"
         style="fill:none;stroke:#fef5df;stroke-width:20;stroke-linecap:round;stroke-linejoin:round;stroke-miterlimit:10;stroke-dasharray:none;stroke-opacity:1"
         d="m 2500.11,3714.76 c -206.53,-0.25 -373.87,-159.72 -373.87,-356.4 0,-0.21 0.02,-0.41 0.02,-0.62 h 373.85 z" /><path
         id="path342"
         style="fill:none;stroke:#fef5df;stroke-width:15;stroke-linecap:round;stroke-linejoin:round;stroke-miterlimit:10;stroke-dasharray:none;stroke-opacity:1"
         d="m 2185,3553.17 h 196.64" /><path
         id="path344"
         style="fill:#fef5df;fill-opacity:1;fill-rule:nonzero;stroke:none"
         d="m 2417.05,3553.17 c 0,-16.25 -13.17,-29.43 -29.43,-29.43 -16.25,0 -29.43,13.18 -29.43,29.43 0,16.26 13.18,29.44 29.43,29.44 16.26,0 29.43,-13.18 29.43,-29.44" /><path
         id="path346"
         style="fill:none;stroke:#fef5df;stroke-width:15;stroke-linecap:round;stroke-linejoin:round;stroke-miterlimit:10;stroke-dasharray:none;stroke-opacity:1"
         d="m 2153.8,3458.62 h 155.03" /><path
         id="path348"
         style="fill:#fef5df;fill-opacity:1;fill-rule:nonzero;stroke:none"
         d="m 2344.25,3458.62 c 0,-16.26 -13.18,-29.43 -29.44,-29.43 -16.25,0 -29.43,13.17 -29.43,29.43 0,16.26 13.18,29.43 29.43,29.43 16.26,0 29.44,-13.17 29.44,-29.43" /><path
         id="path350"
         style="fill:#3facbb;fill-opacity:1;fill-rule:nonzero;stroke:none"
         d="m 2594.51,3337.52 c 0,-61.64 -49.97,-111.62 -111.61,-111.62 -61.65,0 -111.62,49.98 -111.62,111.62 0,61.65 49.97,111.62 111.62,111.62 61.64,0 111.61,-49.97 111.61,-111.62" /><path
         id="path352"
         style="fill:none;stroke:#fef5df;stroke-width:20;stroke-linecap:round;stroke-linejoin:round;stroke-miterlimit:10;stroke-dasharray:none;stroke-opacity:1"
         d="m 2594.51,3337.52 c 0,-61.64 -49.97,-111.62 -111.61,-111.62 -61.65,0 -111.62,49.98 -111.62,111.62 0,61.65 49.97,111.62 111.62,111.62 61.64,0 111.61,-49.97 111.61,-111.62 z" /><path
         id="path354"
         style="fill:none;stroke:#fef5df;stroke-width:20;stroke-linecap:round;stroke-linejoin:round;stroke-miterlimit:10;stroke-dasharray:none;stroke-opacity:1"
         d="m 2526.9,3337.52 c 0,-24.3 -19.7,-44 -44,-44 -24.31,0 -44.01,19.7 -44.01,44 0,24.31 19.7,44.01 44.01,44.01 24.3,0 44,-19.7 44,-44.01 z" /><path
         id="path356"
         style="fill:none;stroke:#fef5df;stroke-width:15;stroke-linecap:round;stroke-linejoin:round;stroke-miterlimit:10;stroke-dasharray:none;stroke-opacity:1"
         d="m 2508.52,3516.53 h 144.87 c 15.83,0 28.66,12.83 28.66,28.66 v 94.35" /><path
         id="path358"
         style="fill:none;stroke:#fef5df;stroke-width:20;stroke-linecap:round;stroke-linejoin:round;stroke-miterlimit:10;stroke-dasharray:none;stroke-opacity:1"
         d="m 2509.5,3458.62 h 323.46" /><path
         id="path360"
         style="fill:#fef5df;fill-opacity:1;fill-rule:nonzero;stroke:none"
         d="m 2582.94,3563.89 c 0,-8.41 -6.81,-15.23 -15.22,-15.23 -8.41,0 -15.23,6.82 -15.23,15.23 0,8.41 6.82,15.22 15.23,15.22 8.41,0 15.22,-6.81 15.22,-15.22" /><path
         id="path362"
         style="fill:#fef5df;fill-opacity:1;fill-rule:nonzero;stroke:none"
         d="m 2582.94,3612.08 c 0,-8.41 -6.81,-15.23 -15.22,-15.23 -8.41,0 -15.23,6.82 -15.23,15.23 0,8.41 6.82,15.22 15.23,15.22 8.41,0 15.22,-6.81 15.22,-15.22" /><path
         id="path364"
         style="fill:none;stroke:#fef5df;stroke-width:15;stroke-linecap:round;stroke-linejoin:round;stroke-miterlimit:10;stroke-dasharray:none;stroke-opacity:1"
         d="m 2195.17,3263.28 h 200.49" /><path
         id="path366"
         style="fill:none;stroke:#fef5df;stroke-width:20;stroke-linecap:round;stroke-linejoin:round;stroke-miterlimit:10;stroke-dasharray:none;stroke-opacity:1"
         d="m 2247.57,3351.9 v -82.71" /><path
         id="path368"
         style="fill:none;stroke:#fef5df;stroke-width:20;stroke-linecap:round;stroke-linejoin:round;stroke-miterlimit:10;stroke-dasharray:none;stroke-opacity:1"
         d="m 2314.81,3351.9 v -82.71" /><path
         id="path370"
         style="fill:none;stroke:#fef5df;stroke-width:20;stroke-linecap:round;stroke-linejoin:round;stroke-miterlimit:10;stroke-dasharray:none;stroke-opacity:1"
         d="M 2791.05,3134.18 V 2959.4 c 0,-11.44 -9.28,-20.72 -20.72,-20.72 h -310.8 c -11.45,0 -20.72,9.28 -20.72,20.72 v 273.12" /><path
         id="path372"
         style="fill:none;stroke:#fef5df;stroke-width:15;stroke-linecap:round;stroke-linejoin:round;stroke-miterlimit:10;stroke-dasharray:none;stroke-opacity:1"
         d="m 2446.5,3115.16 h 95.54 c 14.18,0 25.68,-11.5 25.68,-25.68 v -142.96" /><path
         id="path374"
         style="fill:none;stroke:#fef5df;stroke-width:15;stroke-linecap:round;stroke-linejoin:round;stroke-miterlimit:10;stroke-dasharray:none;stroke-opacity:1"
         d="m 2214.39,3198.79 h 151.32" /><path
         id="path376"
         style="fill:none;stroke:#fef5df;stroke-width:15;stroke-linecap:round;stroke-linejoin:round;stroke-miterlimit:10;stroke-dasharray:none;stroke-opacity:1"
         d="m 2257.84,3143.03 h 107.87" /><path
         id="path378"
         style="fill:none;stroke:#fef5df;stroke-width:20;stroke-linecap:round;stroke-linejoin:round;stroke-miterlimit:10;stroke-dasharray:none;stroke-opacity:1"
         d="m 1187.78,1333.13 v 87.14 h -50.95 c -3.73,13.77 -9.14,26.82 -16.08,38.92 l 36,36 -61.62,61.62 -36,-36 c -12.1,6.95 -25.15,12.35 -38.92,16.09 v 50.95 h -87.144 v -50.95 c -13.769,-3.74 -26.824,-9.15 -38.925,-16.09 l -36,36 -61.618,-61.62 36,-36 c -6.945,-12.1 -12.347,-25.15 -16.085,-38.92 h -50.95 v -87.14 h 50.95 c 3.738,-13.77 9.14,-26.83 16.085,-38.93 l -36,-36 61.618,-61.62 36,36.01 c 12.101,-6.95 25.156,-12.36 38.925,-16.09 v -50.95 h 87.144 v 50.95 c 13.77,3.73 26.82,9.14 38.92,16.09 l 36,-36.01 61.62,61.62 -36,36 c 6.94,12.1 12.35,25.16 16.08,38.93 z" /><path
         id="path380"
         style="fill:#fef5df;fill-opacity:1;fill-rule:nonzero;stroke:none"
         d="m 1015.6,1376.7 c 0,-21.52 -17.448,-38.97 -38.963,-38.97 -21.52,0 -38.965,17.45 -38.965,38.97 0,21.52 17.445,38.96 38.965,38.96 21.515,0 38.963,-17.44 38.963,-38.96" /><path
         id="path382"
         style="fill:none;stroke:#fef5df;stroke-width:20;stroke-linecap:round;stroke-linejoin:round;stroke-miterlimit:10;stroke-dasharray:none;stroke-opacity:1"
         d="m 1147.98,947.43 c -98.62,12.371 -182.363,72.61 -227.23,156.72" /><path
         id="path384"
         style="fill:none;stroke:#fef5df;stroke-width:20;stroke-linecap:round;stroke-linejoin:round;stroke-miterlimit:10;stroke-dasharray:none;stroke-opacity:1"
         d="m 1185.73,1545.33 c 165.75,0 300.12,-134.1 300.12,-299.85 l 80.88,-211.15 h -91.44 V 886.059 c 0,-23.321 -18.91,-42.219 -42.23,-42.219 h -242.85 c -23.32,0 -42.23,18.898 -42.23,42.219 v 64.339 101.442 c 0,23.33 18.91,42.23 42.23,42.23 h 73.88" /><path
         id="path386"
         style="fill:none;stroke:#fef5df;stroke-width:20;stroke-linecap:round;stroke-linejoin:round;stroke-miterlimit:10;stroke-dasharray:none;stroke-opacity:1"
         d="M 1464.36,950.398 H 1354.35" /><path
         id="path388"
         style="fill:none;stroke:#fef5df;stroke-width:20;stroke-linecap:round;stroke-linejoin:round;stroke-miterlimit:10;stroke-dasharray:none;stroke-opacity:1"
         d="m 1417.7,1241.47 c 0,-41.9 -33.37,-75.87 -74.55,-75.87 -41.17,0 -74.54,33.97 -74.54,75.87 0,41.9 33.37,75.87 74.54,75.87 41.18,0 74.55,-33.97 74.55,-75.87 z" /><path
         id="path390"
         style="fill:#fef5df;fill-opacity:1;fill-rule:nonzero;stroke:none"
         d="m 1367.55,1241.47 c 0,-13.48 -10.92,-24.4 -24.4,-24.4 -13.47,0 -24.4,10.92 -24.4,24.4 0,13.48 10.93,24.4 24.4,24.4 13.48,0 24.4,-10.92 24.4,-24.4" /><path
         id="path392"
         style="fill:none;stroke:#fef5df;stroke-width:15;stroke-linecap:round;stroke-linejoin:round;stroke-miterlimit:10;stroke-dasharray:none;stroke-opacity:1"
         d="m 1422.83,1241.47 h 58.07" /><path
         id="path394"
         style="fill:none;stroke:#fef5df;stroke-width:20;stroke-linecap:round;stroke-linejoin:round;stroke-miterlimit:10;stroke-dasharray:none;stroke-opacity:1"
         d="m 976.637,1383.01 v 92.68" /><path
         id="path396"
         style="fill:none;stroke:#fef5df;stroke-width:20;stroke-linecap:round;stroke-linejoin:round;stroke-miterlimit:10;stroke-dasharray:none;stroke-opacity:1"
         d="m 928.836,1467.58 c -32.641,-17.2 -54.918,-51.42 -54.918,-90.88 0,-56.73 45.988,-102.72 102.719,-102.72 56.723,0 102.713,45.99 102.713,102.72 0,39.46 -22.28,73.68 -54.92,90.88" /><path
         id="path398"
         style="fill:none;stroke:#fef5df;stroke-width:15;stroke-linecap:round;stroke-linejoin:round;stroke-miterlimit:10;stroke-dasharray:none;stroke-opacity:1"
         d="m 979.988,1034.24 59.832,59.83" /><path
         id="path400"
         style="fill:none;stroke:#fef5df;stroke-width:15;stroke-linecap:round;stroke-linejoin:round;stroke-miterlimit:10;stroke-dasharray:none;stroke-opacity:1"
         d="m 1032.83,995.43 59.83,59.83" /><path
         id="path402"
         style="fill:none;stroke:#fef5df;stroke-width:15;stroke-linecap:round;stroke-linejoin:round;stroke-miterlimit:10;stroke-dasharray:none;stroke-opacity:1"
         d="m 1238.28,1385.63 h 207.06" /><path
         id="path404"
         style="fill:none;stroke:#fef5df;stroke-width:15;stroke-linecap:round;stroke-linejoin:round;stroke-miterlimit:10;stroke-dasharray:none;stroke-opacity:1"
         d="m 1273.88,1385.63 v 68.92" /><path
         id="path406"
         style="fill:none;stroke:#fef5df;stroke-width:15;stroke-linecap:round;stroke-linejoin:round;stroke-miterlimit:10;stroke-dasharray:none;stroke-opacity:1"
         d="m 1332.71,1385.63 v 68.92" /><path
         id="path408"
         style="fill:none;stroke:#fef5df;stroke-width:20;stroke-linecap:round;stroke-linejoin:round;stroke-miterlimit:10;stroke-dasharray:none;stroke-opacity:1"
         d="m 2660.65,1106.43 h 67.91 c 101.9,0 184.51,82.6 184.51,184.51 0,101.9 -82.61,184.5 -184.51,184.5 -6.65,0 -13.21,-0.39 -19.68,-1.07 -21.68,70.45 -87.26,121.67 -164.83,121.67 -73.42,0 -135.96,-45.97 -160.83,-110.63 -13.53,5.96 -28.45,9.33 -44.18,9.33 -57.82,0 -105.09,-44.76 -109.32,-101.5 -1.35,0.04 -2.67,0.2 -4.03,0.2 -79.26,0 -143.51,-64.25 -143.51,-143.51 0,-79.25 64.25,-143.5 143.51,-143.5 h 173.72" /><path
         id="path410"
         style="fill:none;stroke:#fef5df;stroke-width:15;stroke-linecap:round;stroke-linejoin:round;stroke-miterlimit:10;stroke-dasharray:none;stroke-opacity:1"
         d="m 2695.47,1307.33 c 0,-91.21 -73.94,-165.16 -165.16,-165.16 -91.21,0 -165.15,73.95 -165.15,165.16 0,91.22 73.94,165.16 165.15,165.16 91.22,0 165.16,-73.94 165.16,-165.16 z" /><path
         id="path412"
         style="fill:none;stroke:#fef5df;stroke-width:15;stroke-linecap:round;stroke-linejoin:round;stroke-miterlimit:10;stroke-dasharray:none;stroke-opacity:1"
         d="m 2607.55,1307.33 c 0,-91.21 -34.58,-165.16 -77.24,-165.16 -42.65,0 -77.23,73.95 -77.23,165.16 0,91.22 34.58,165.16 77.23,165.16 42.66,0 77.24,-73.94 77.24,-165.16 z" /><path
         id="path414"
         style="fill:none;stroke:#fef5df;stroke-width:15;stroke-linecap:round;stroke-linejoin:round;stroke-miterlimit:10;stroke-dasharray:none;stroke-opacity:1"
         d="m 2365.87,1307.33 h 328.88" /><path
         id="path416"
         style="fill:none;stroke:#fef5df;stroke-width:15;stroke-linecap:round;stroke-linejoin:round;stroke-miterlimit:10;stroke-dasharray:none;stroke-opacity:1"
         d="m 2530.31,1142.89 v 328.88" /><path
         id="path418"
         style="fill:none;stroke:#fef5df;stroke-width:15;stroke-linecap:round;stroke-linejoin:round;stroke-miterlimit:10;stroke-dasharray:none;stroke-opacity:1"
         d="m 2389.89,1392.38 c 39.88,-19 88.22,-30.2 140.42,-30.2 52.21,0 100.55,11.2 140.43,30.2" /><path
         id="path420"
         style="fill:none;stroke:#fef5df;stroke-width:15;stroke-linecap:round;stroke-linejoin:round;stroke-miterlimit:10;stroke-dasharray:none;stroke-opacity:1"
         d="m 2670.74,1222.29 c -39.88,19 -88.22,30.2 -140.43,30.2 -52.2,0 -100.54,-11.2 -140.42,-30.2" /><path
         id="path422"
         style="fill:none;stroke:#fef5df;stroke-width:15;stroke-linecap:round;stroke-linejoin:round;stroke-miterlimit:10;stroke-dasharray:none;stroke-opacity:1"
         d="m 2453.8,1156.77 v -151.9 L 2334.48,904.121" /><path
         id="path424"
         style="fill:none;stroke:#fef5df;stroke-width:15;stroke-linecap:round;stroke-linejoin:round;stroke-miterlimit:10;stroke-dasharray:none;stroke-opacity:1"
         d="m 2606.83,1156.77 v -151.9 l 88.88,-72.979" /><path
         id="path426"
         style="fill:none;stroke:#fef5df;stroke-width:15;stroke-linecap:round;stroke-linejoin:round;stroke-miterlimit:10;stroke-dasharray:none;stroke-opacity:1"
         d="M 2559.87,1140.33 V 863.41" /><path
         id="path428"
         style="fill:none;stroke:#fef5df;stroke-width:15;stroke-linecap:round;stroke-linejoin:round;stroke-miterlimit:10;stroke-dasharray:none;stroke-opacity:1"
         d="M 2506.23,1140.65 V 974.789 l -52.43,-44.801" /><path
         id="path430"
         style="fill:#fef5df;fill-opacity:1;fill-rule:nonzero;stroke:none"
         d="m 2356.61,897.609 c 0,-15.328 -12.43,-27.769 -27.77,-27.769 -15.33,0 -27.76,12.441 -27.76,27.769 0,15.34 12.43,27.77 27.76,27.77 15.34,0 27.77,-12.43 27.77,-27.77" /><path
         id="path432"
         style="fill:#fef5df;fill-opacity:1;fill-rule:nonzero;stroke:none"
         d="m 2480.02,925.379 c 0,-15.328 -12.44,-27.77 -27.77,-27.77 -15.34,0 -27.77,12.442 -27.77,27.77 0,15.34 12.43,27.769 27.77,27.769 15.33,0 27.77,-12.429 27.77,-27.769" /><path
         id="path434"
         style="fill:#fef5df;fill-opacity:1;fill-rule:nonzero;stroke:none"
         d="m 2723.48,929.988 c 0,-15.34 -12.43,-27.769 -27.77,-27.769 -15.33,0 -27.76,12.429 -27.76,27.769 0,15.332 12.43,27.774 27.76,27.774 15.34,0 27.77,-12.442 27.77,-27.774" /><path
         id="path436"
         style="fill:#fef5df;fill-opacity:1;fill-rule:nonzero;stroke:none"
         d="m 2587.64,863.41 c 0,-15.34 -12.43,-27.769 -27.77,-27.769 -15.33,0 -27.76,12.429 -27.76,27.769 0,15.328 12.43,27.77 27.76,27.77 15.34,0 27.77,-12.442 27.77,-27.77" /><path
         id="path438"
         style="fill:none;stroke:#fef5df;stroke-width:20;stroke-linecap:round;stroke-linejoin:round;stroke-miterlimit:10;stroke-dasharray:none;stroke-opacity:1"
         d="m 3463.67,1341.12 c 0,147.68 119.71,267.4 267.39,267.4 147.68,0 267.4,-119.72 267.4,-267.4" /><path
         id="path440"
         style="fill:none;stroke:#fef5df;stroke-width:20;stroke-linecap:round;stroke-linejoin:round;stroke-miterlimit:10;stroke-dasharray:none;stroke-opacity:1"
         d="m 3463.67,1347.79 v -338.64 l 155.35,-185.99 h 224.09 l 155.35,185.99 v 338.64" /><path
         id="path442"
         style="fill:none;stroke:#fef5df;stroke-width:20;stroke-linecap:round;stroke-linejoin:round;stroke-miterlimit:10;stroke-dasharray:none;stroke-opacity:1"
         d="m 3485.26,1436.22 142.81,-170.61 h 205.99 l 142.8,170.61" /><path
         id="path444"
         style="fill:none;stroke:#fef5df;stroke-width:20;stroke-linecap:round;stroke-linejoin:round;stroke-miterlimit:10;stroke-dasharray:none;stroke-opacity:1"
         d="m 3783.96,1395.98 c 0,-4.19 -3.4,-7.59 -7.59,-7.59 h -90.61 c -4.2,0 -7.6,3.4 -7.6,7.59 v 90.62 c 0,4.19 3.4,7.59 7.6,7.59 h 90.61 c 4.19,0 7.59,-3.4 7.59,-7.59 z" /><path
         id="path446"
         style="fill:none;stroke:#fef5df;stroke-width:15;stroke-linecap:round;stroke-linejoin:round;stroke-miterlimit:10;stroke-dasharray:none;stroke-opacity:1"
         d="m 3704.64,1494.19 v 44.92" /><path
         id="path448"
         style="fill:none;stroke:#fef5df;stroke-width:15;stroke-linecap:round;stroke-linejoin:round;stroke-miterlimit:10;stroke-dasharray:none;stroke-opacity:1"
         d="m 3731.06,1494.19 v 44.92" /><path
         id="path450"
         style="fill:none;stroke:#fef5df;stroke-width:15;stroke-linecap:round;stroke-linejoin:round;stroke-miterlimit:10;stroke-dasharray:none;stroke-opacity:1"
         d="m 3757.48,1494.19 v 44.92" /><path
         id="path452"
         style="fill:none;stroke:#fef5df;stroke-width:15;stroke-linecap:round;stroke-linejoin:round;stroke-miterlimit:10;stroke-dasharray:none;stroke-opacity:1"
         d="m 3704.64,1343.46 v 44.93" /><path
         id="path454"
         style="fill:none;stroke:#fef5df;stroke-width:15;stroke-linecap:round;stroke-linejoin:round;stroke-miterlimit:10;stroke-dasharray:none;stroke-opacity:1"
         d="m 3731.06,1343.46 v 44.93" /><path
         id="path456"
         style="fill:none;stroke:#fef5df;stroke-width:15;stroke-linecap:round;stroke-linejoin:round;stroke-miterlimit:10;stroke-dasharray:none;stroke-opacity:1"
         d="m 3757.48,1343.46 v 44.93" /><path
         id="path458"
         style="fill:none;stroke:#fef5df;stroke-width:15;stroke-linecap:round;stroke-linejoin:round;stroke-miterlimit:10;stroke-dasharray:none;stroke-opacity:1"
         d="m 3678.16,1414.87 h -44.92" /><path
         id="path460"
         style="fill:none;stroke:#fef5df;stroke-width:15;stroke-linecap:round;stroke-linejoin:round;stroke-miterlimit:10;stroke-dasharray:none;stroke-opacity:1"
         d="m 3678.16,1441.29 h -44.92" /><path
         id="path462"
         style="fill:none;stroke:#fef5df;stroke-width:15;stroke-linecap:round;stroke-linejoin:round;stroke-miterlimit:10;stroke-dasharray:none;stroke-opacity:1"
         d="m 3678.16,1467.71 h -44.92" /><path
         id="path464"
         style="fill:none;stroke:#fef5df;stroke-width:15;stroke-linecap:round;stroke-linejoin:round;stroke-miterlimit:10;stroke-dasharray:none;stroke-opacity:1"
         d="m 3828.89,1414.87 h -44.93" /><path
         id="path466"
         style="fill:none;stroke:#fef5df;stroke-width:15;stroke-linecap:round;stroke-linejoin:round;stroke-miterlimit:10;stroke-dasharray:none;stroke-opacity:1"
         d="m 3828.89,1441.29 h -44.93" /><path
         id="path468"
         style="fill:none;stroke:#fef5df;stroke-width:15;stroke-linecap:round;stroke-linejoin:round;stroke-miterlimit:10;stroke-dasharray:none;stroke-opacity:1"
         d="m 3828.89,1467.71 h -44.93" /><path
         id="path470"
         style="fill:none;stroke:#fef5df;stroke-width:15;stroke-linecap:round;stroke-linejoin:round;stroke-miterlimit:10;stroke-dasharray:none;stroke-opacity:1"
         d="m 3823.99,990.531 c 0,-7.781 -15.24,-14.09 -21.05,-14.09 h -143.76 c -5.81,0 -21.05,6.309 -21.05,14.09" /><path
         id="path472"
         style="fill:#fef5df;fill-opacity:1;fill-rule:nonzero;stroke:none"
         d="m 3672.89,1183.61 c 6.82,0 12.36,-5.53 12.36,-12.35 v -78.21 c 0,-6.82 -5.54,-12.36 -12.36,-12.36 h -37.07 c -6.83,0 -12.36,5.54 -12.36,12.36 v 78.21 c 0,6.82 5.53,12.35 12.36,12.35 h 37.07" /><path
         id="path474"
         style="fill:#fef5df;fill-opacity:1;fill-rule:nonzero;stroke:none"
         d="m 3826.31,1183.61 c 6.82,0 12.36,-5.53 12.36,-12.35 v -78.21 c 0,-6.82 -5.54,-12.36 -12.36,-12.36 h -37.07 c -6.83,0 -12.36,5.54 -12.36,12.36 v 78.21 c 0,6.82 5.53,12.35 12.36,12.35 h 37.07" /><path
         id="path476"
         style="fill:none;stroke:#fef5df;stroke-width:15;stroke-linecap:round;stroke-linejoin:round;stroke-miterlimit:10;stroke-dasharray:none;stroke-opacity:1"
         d="m 3458.93,1100.91 h -32.64 c -5.41,0 -9.79,4.37 -9.79,9.78 v 103.81 c 0,5.4 4.38,9.78 9.79,9.78 h 32.64" /><path
         id="path478"
         style="fill:none;stroke:#fef5df;stroke-width:15;stroke-linecap:round;stroke-linejoin:round;stroke-miterlimit:10;stroke-dasharray:none;stroke-opacity:1"
         d="m 4003.2,1100.91 h 32.64 c 5.4,0 9.78,4.37 9.78,9.78 v 103.81 c 0,5.4 -4.38,9.78 -9.78,9.78 h -32.64" /><path
         id="path480"
         style="fill:none;stroke:#fef5df;stroke-width:20;stroke-linecap:round;stroke-linejoin:round;stroke-miterlimit:10;stroke-dasharray:none;stroke-opacity:1"
         d="m 3541.34,928.68 v 143.09 l -71.45,71.06" /><path
         id="path482"
         style="fill:none;stroke:#fef5df;stroke-width:20;stroke-linecap:round;stroke-linejoin:round;stroke-miterlimit:10;stroke-dasharray:none;stroke-opacity:1"
         d="m 3920.79,928.68 v 143.09 l 71.45,71.06" /><path
         id="path484"
         style="fill:none;stroke:#fef5df;stroke-width:20;stroke-linecap:round;stroke-linejoin:round;stroke-miterlimit:10;stroke-dasharray:none;stroke-opacity:1"
         d="M 3731.06,826.469 V 899.32" /><path
         id="path486"
         style="fill:#fef5df;fill-opacity:1;fill-rule:nonzero;stroke:none"
         d="m 1800.21,210.262 c -1.4,-3.063 -3.28,-5.34 -5.63,-6.821 -2.36,-1.492 -4.96,-2.23 -7.81,-2.23 -2.81,0 -5.39,0.781 -7.77,2.359 -2.38,1.551 -4.25,3.871 -5.61,6.961 -1.36,3.09 -2.05,6.821 -2.05,11.219 0,4.148 0.64,7.801 1.93,10.949 1.28,3.153 3.1,5.563 5.43,7.242 2.33,1.68 4.99,2.52 7.95,2.52 2.85,0 5.47,-0.82 7.87,-2.449 2.39,-1.653 4.29,-4.02 5.69,-7.121 1.41,-3.121 2.11,-6.832 2.11,-11.141 0,-4.59 -0.7,-8.418 -2.11,-11.488 z m 10.66,68.398 c -2.46,0 -4.35,-0.84 -5.67,-2.551 -1.33,-1.687 -1.99,-4.211 -1.99,-7.527 V 244.66 c -3.05,3.309 -6.17,5.789 -9.37,7.391 -3.21,1.59 -7.15,2.398 -11.82,2.398 -8.07,0 -14.58,-2.828 -19.53,-8.48 -4.94,-5.66 -7.42,-13.559 -7.42,-23.688 0,-4.793 0.63,-9.23 1.88,-13.351 1.24,-4.121 3.07,-7.7 5.49,-10.739 2.41,-3.05 5.27,-5.402 8.57,-7.043 3.3,-1.636 6.9,-2.457 10.78,-2.457 2.93,0 5.63,0.399 8.09,1.219 2.48,0.809 4.77,2 6.89,3.57 2.12,1.551 4.27,3.579 6.44,6.071 v -1.602 c 0,-2.969 0.72,-5.25 2.17,-6.847 1.44,-1.61 3.27,-2.411 5.49,-2.411 2.26,0 4.09,0.778 5.52,2.309 1.43,1.551 2.14,3.859 2.14,6.949 v 71.461 c 0,3.051 -0.67,5.34 -1.99,6.91 -1.33,1.559 -3.22,2.34 -5.67,2.34" /><path
         id="path488"
         style="fill:#fef5df;fill-opacity:1;fill-rule:nonzero;stroke:none"
         d="m 1842.97,226.852 c 0.56,5.457 2.13,9.589 4.72,12.378 2.59,2.801 5.9,4.18 9.94,4.18 4.24,0 7.64,-1.371 10.24,-4.121 2.59,-2.75 4.09,-6.891 4.48,-12.437 z m 41.55,-7.391 c 2.33,1.219 3.5,3.848 3.5,7.93 0,4.379 -1.14,8.699 -3.39,12.941 -2.25,4.227 -5.64,7.688 -10.18,10.348 -4.53,2.679 -9.96,4 -16.28,4 -4.87,0 -9.3,-0.77 -13.3,-2.34 -4,-1.559 -7.37,-3.801 -10.09,-6.731 -2.73,-2.929 -4.81,-6.437 -6.23,-10.539 -1.43,-4.09 -2.14,-8.531 -2.14,-13.32 0,-10.168 2.89,-18.219 8.67,-24.16 5.77,-5.918 13.87,-8.899 24.27,-8.899 4.55,0 8.58,0.59 12.07,1.778 3.52,1.203 6.41,2.691 8.73,4.48 2.32,1.801 4.04,3.68 5.2,5.641 1.14,1.969 1.72,3.672 1.72,5.14 0,1.661 -0.52,2.942 -1.55,3.86 -1.03,0.902 -2.37,1.359 -4.03,1.359 -1.54,0 -2.73,-0.347 -3.56,-1.07 -2.03,-1.887 -3.66,-3.391 -4.93,-4.508 -1.26,-1.109 -2.65,-2.152 -4.15,-3.121 -1.51,-0.98 -3.05,-1.668 -4.67,-2.141 -1.59,-0.449 -3.36,-0.668 -5.3,-0.668 -2.89,0 -5.53,0.7 -7.93,2.129 -2.39,1.422 -4.32,3.539 -5.76,6.352 -1.44,2.808 -2.18,6.047 -2.22,9.73 h 31.69 c 4.24,0 7.53,0.61 9.86,1.809" /><path
         id="path490"
         style="fill:#fef5df;fill-opacity:1;fill-rule:nonzero;stroke:none"
         d="m 1938.79,223.832 c -3.2,1.688 -7.3,3.16 -12.31,4.387 -4.25,1.031 -7.56,1.91 -9.97,2.613 -2.43,0.707 -4.34,1.609 -5.77,2.699 -1.42,1.09 -2.13,2.481 -2.13,4.188 0,1.863 0.96,3.41 2.9,4.652 1.94,1.25 4.37,1.871 7.3,1.871 2.86,0 5.11,-0.472 6.78,-1.422 1.66,-0.949 3.1,-2.218 4.32,-3.8 1.51,-1.899 2.84,-3.321 4.01,-4.27 1.16,-0.949 2.58,-1.43 4.24,-1.43 2.3,0 4.07,0.602 5.32,1.782 1.24,1.187 1.86,2.707 1.86,4.57 0,1.707 -0.58,3.449 -1.75,5.226 -1.16,1.782 -2.86,3.403 -5.1,4.864 -2.23,1.457 -5.03,2.636 -8.38,3.5 -3.33,0.879 -7.1,1.308 -11.3,1.308 -5.34,0 -9.9,-0.851 -13.67,-2.59 -3.78,-1.718 -6.64,-4.019 -8.58,-6.898 -1.94,-2.891 -2.91,-5.973 -2.91,-9.211 0,-3.629 1.05,-6.699 3.14,-9.199 2.1,-2.492 4.9,-4.5 8.4,-6.024 3.5,-1.519 8.04,-2.976 13.62,-4.347 4.95,-1.199 8.5,-2.442 10.66,-3.75 2.16,-1.313 3.23,-3.379 3.23,-6.219 0,-1.871 -1.04,-3.523 -3.11,-4.973 -2.08,-1.437 -4.74,-2.16 -7.98,-2.16 -4.01,0 -7.15,0.711 -9.47,2.133 -2.32,1.43 -4.31,3.578 -5.97,6.469 -0.83,1.5 -1.7,2.668 -2.61,3.508 -0.91,0.82 -2.21,1.242 -3.91,1.242 -1.94,0 -3.55,-0.641 -4.81,-1.903 -1.27,-1.269 -1.9,-2.789 -1.9,-4.566 0,-2.691 0.99,-5.371 2.96,-8.051 1.98,-2.66 5.05,-4.89 9.21,-6.672 4.15,-1.777 9.14,-2.668 14.95,-2.668 6.09,0 11.27,0.821 15.52,2.457 4.25,1.641 7.47,4.063 9.64,7.243 2.19,3.191 3.27,7.019 3.27,11.488 0,2.973 -0.82,5.613 -2.46,7.922 -1.65,2.32 -4.07,4.328 -7.24,6.031" /><path
         id="path492"
         style="fill:#fef5df;fill-opacity:1;fill-rule:nonzero;stroke:none"
         d="m 1964.86,254.57 c -2.37,0 -4.3,-0.808 -5.78,-2.429 -1.49,-1.629 -2.23,-4.039 -2.23,-7.243 v -46.347 c 0,-3.172 0.74,-5.602 2.23,-7.313 1.48,-1.699 3.41,-2.547 5.78,-2.547 2.38,0 4.33,0.829 5.88,2.489 1.54,1.66 2.32,4.121 2.32,7.371 v 46.82 c 0,2.891 -0.78,5.141 -2.32,6.77 -1.55,1.621 -3.5,2.429 -5.88,2.429" /><path
         id="path494"
         style="fill:#fef5df;fill-opacity:1;fill-rule:nonzero;stroke:none"
         d="m 1965.04,277.961 c -2.17,0 -4.08,-0.742 -5.73,-2.231 -1.64,-1.488 -2.46,-3.371 -2.46,-5.671 0,-2.539 0.8,-4.5 2.41,-5.879 1.6,-1.379 3.53,-2.078 5.78,-2.078 2.18,0 4.06,0.707 5.64,2.109 1.58,1.41 2.38,3.348 2.38,5.848 0,2.57 -0.82,4.531 -2.44,5.882 -1.62,1.34 -3.48,2.02 -5.58,2.02" /><path
         id="path496"
         style="fill:#fef5df;fill-opacity:1;fill-rule:nonzero;stroke:none"
         d="m 2025.99,210.922 c -1.51,-2.91 -3.45,-5.082 -5.85,-6.531 -2.4,-1.442 -4.93,-2.172 -7.62,-2.172 -4.55,0 -8.26,1.683 -11.13,5.051 -2.87,3.359 -4.3,8.332 -4.3,14.89 0,6.488 1.39,11.512 4.18,15.02 2.79,3.519 6.49,5.281 11.13,5.281 4.75,0 8.57,-1.84 11.48,-5.52 2.91,-3.679 4.37,-8.832 4.37,-15.429 0,-4.16 -0.76,-7.68 -2.26,-10.59 z m 10.27,43.648 c -2.17,0 -3.96,-0.769 -5.35,-2.308 -1.38,-1.551 -2.07,-3.723 -2.07,-6.532 v -2.199 c -2.89,3.758 -6.02,6.508 -9.38,8.278 -3.36,1.761 -7.34,2.64 -11.93,2.64 -3.84,0 -7.36,-0.679 -10.56,-2.039 -3.21,-1.371 -6.04,-3.398 -8.49,-6.09 -2.45,-2.679 -4.34,-5.988 -5.67,-9.91 -1.33,-3.922 -1.99,-8.308 -1.99,-13.18 0,-6.531 1.09,-12.281 3.27,-17.269 2.17,-4.981 5.29,-8.859 9.34,-11.629 4.07,-2.773 8.8,-4.16 14.22,-4.16 4.5,0 8.4,0.91 11.66,2.726 3.27,1.821 6.14,4.473 8.64,7.973 -0.08,-5.312 -0.2,-9.16 -0.36,-11.562 -0.16,-2.399 -0.7,-4.637 -1.63,-6.727 -0.93,-2.102 -2.55,-3.73 -4.87,-4.902 -2.31,-1.168 -5.57,-1.75 -9.77,-1.75 -2.05,0 -3.87,0.199 -5.45,0.558 -1.59,0.383 -2.94,0.961 -4.07,1.723 -1.12,0.777 -2.16,1.699 -3.08,2.789 -0.94,1.09 -1.83,2.18 -2.7,3.242 -1.78,2.098 -3.86,3.137 -6.24,3.137 -1.89,0 -3.52,-0.617 -4.86,-1.867 -1.35,-1.242 -2.02,-2.852 -2.02,-4.821 0,-2.621 1.19,-5.171 3.56,-7.64 2.38,-2.469 5.76,-4.481 10.15,-6.051 4.39,-1.57 9.38,-2.352 14.96,-2.352 6.09,0 11.19,0.614 15.28,1.852 4.09,1.219 7.41,3.102 9.94,5.629 2.53,2.543 4.37,5.742 5.52,9.613 1.15,3.887 1.72,8.508 1.72,13.899 v 47.058 c 0,3.84 -0.51,6.781 -1.55,8.813 -1.02,2.039 -3.1,3.058 -6.22,3.058" /><path
         id="path498"
         style="fill:#fef5df;fill-opacity:1;fill-rule:nonzero;stroke:none"
         d="m 2109.78,243.891 c -1.65,3.398 -4.17,6.031 -7.53,7.89 -3.37,1.86 -7.18,2.789 -11.46,2.789 -4.4,0 -8.28,-0.879 -11.66,-2.64 -3.38,-1.758 -6.5,-4.52 -9.35,-8.282 v 1.961 c 0,1.93 -0.34,3.582 -1.03,4.93 -0.7,1.332 -1.62,2.34 -2.76,3.02 -1.15,0.683 -2.44,1.011 -3.87,1.011 -2.33,0 -4.17,-0.761 -5.52,-2.281 -1.34,-1.527 -2.01,-3.828 -2.01,-6.918 v -46.82 c 0,-3.172 0.76,-5.602 2.26,-7.313 1.5,-1.699 3.41,-2.547 5.76,-2.547 2.41,0 4.38,0.821 5.9,2.457 1.52,1.641 2.28,4.114 2.28,7.403 v 20.289 c 0,6.609 0.4,11.121 1.19,13.531 1.11,3 2.85,5.367 5.22,7.098 2.37,1.73 5.01,2.582 7.89,2.582 4.44,0 7.39,-1.422 8.88,-4.25 1.48,-2.821 2.23,-6.91 2.23,-12.25 v -27 c 0,-3.172 0.74,-5.602 2.25,-7.313 1.5,-1.699 3.46,-2.547 5.87,-2.547 2.38,0 4.31,0.829 5.79,2.489 1.49,1.66 2.23,4.121 2.23,7.371 v 30.148 c 0,3.563 -0.16,6.481 -0.48,8.781 -0.31,2.29 -1.01,4.43 -2.08,6.411" /><path
         id="path500"
         style="fill:#fef5df;fill-opacity:1;fill-rule:nonzero;stroke:none"
         d="m 2136.67,226.852 c 0.55,5.457 2.12,9.589 4.71,12.378 2.59,2.801 5.9,4.18 9.94,4.18 4.24,0 7.65,-1.371 10.24,-4.121 2.59,-2.75 4.09,-6.891 4.48,-12.437 z m 41.54,-7.391 c 2.34,1.219 3.5,3.848 3.5,7.93 0,4.379 -1.13,8.699 -3.38,12.941 -2.25,4.227 -5.65,7.688 -10.19,10.348 -4.53,2.679 -9.95,4 -16.28,4 -4.87,0 -9.3,-0.77 -13.3,-2.34 -3.99,-1.559 -7.36,-3.801 -10.08,-6.731 -2.74,-2.929 -4.81,-6.437 -6.24,-10.539 -1.42,-4.09 -2.14,-8.531 -2.14,-13.32 0,-10.168 2.9,-18.219 8.67,-24.16 5.78,-5.918 13.87,-8.899 24.27,-8.899 4.56,0 8.58,0.59 12.09,1.778 3.5,1.203 6.4,2.691 8.71,4.48 2.32,1.801 4.05,3.68 5.2,5.641 1.15,1.969 1.72,3.672 1.72,5.14 0,1.661 -0.51,2.942 -1.54,3.86 -1.03,0.902 -2.38,1.359 -4.04,1.359 -1.54,0 -2.73,-0.347 -3.56,-1.07 -2.01,-1.887 -3.66,-3.391 -4.92,-4.508 -1.27,-1.109 -2.66,-2.152 -4.15,-3.121 -1.51,-0.98 -3.07,-1.668 -4.66,-2.141 -1.61,-0.449 -3.38,-0.668 -5.32,-0.668 -2.89,0 -5.53,0.7 -7.92,2.129 -2.39,1.422 -4.31,3.539 -5.76,6.352 -1.44,2.808 -2.18,6.047 -2.22,9.73 h 31.69 c 4.24,0 7.52,0.61 9.85,1.809" /><path
         id="path502"
         style="fill:#fef5df;fill-opacity:1;fill-rule:nonzero;stroke:none"
         d="m 2231.41,210.262 c -1.4,-3.063 -3.28,-5.34 -5.64,-6.821 -2.35,-1.492 -4.95,-2.23 -7.81,-2.23 -2.81,0 -5.39,0.781 -7.76,2.359 -2.38,1.551 -4.25,3.871 -5.61,6.961 -1.37,3.09 -2.06,6.821 -2.06,11.219 0,4.148 0.65,7.801 1.93,10.949 1.29,3.153 3.1,5.563 5.43,7.242 2.34,1.68 5,2.52 7.96,2.52 2.85,0 5.46,-0.82 7.86,-2.449 2.39,-1.653 4.3,-4.02 5.7,-7.121 1.4,-3.121 2.11,-6.832 2.11,-11.141 0,-4.59 -0.71,-8.418 -2.11,-11.488 z m 10.66,68.398 c -2.46,0 -4.35,-0.84 -5.67,-2.551 -1.33,-1.687 -2,-4.211 -2,-7.527 V 244.66 c -3.04,3.309 -6.16,5.789 -9.37,7.391 -3.2,1.59 -7.14,2.398 -11.81,2.398 -8.07,0 -14.58,-2.828 -19.53,-8.48 -4.95,-5.66 -7.41,-13.559 -7.41,-23.688 0,-4.793 0.62,-9.23 1.87,-13.351 1.24,-4.121 3.07,-7.7 5.49,-10.739 2.41,-3.05 5.27,-5.402 8.57,-7.043 3.3,-1.636 6.89,-2.457 10.77,-2.457 2.93,0 5.63,0.399 8.11,1.219 2.47,0.809 4.76,2 6.88,3.57 2.11,1.551 4.26,3.579 6.43,6.071 v -1.602 c 0,-2.969 0.73,-5.25 2.17,-6.847 1.45,-1.61 3.28,-2.411 5.5,-2.411 2.25,0 4.09,0.778 5.51,2.309 1.43,1.551 2.14,3.859 2.14,6.949 v 71.461 c 0,3.051 -0.66,5.34 -1.99,6.91 -1.33,1.559 -3.21,2.34 -5.66,2.34" /><path
         id="path504"
         style="fill:#fef5df;fill-opacity:1;fill-rule:nonzero;stroke:none"
         d="m 2327.96,206.52 c -2.94,-3.54 -6.46,-5.309 -10.53,-5.309 -4.79,0 -8.66,1.738 -11.61,5.199 -2.94,3.461 -4.42,8.41 -4.42,14.871 0,4.391 0.69,8.18 2.08,11.36 1.38,3.191 3.28,5.621 5.7,7.3 2.4,1.68 5.16,2.52 8.25,2.52 3,0 5.64,-0.84 7.9,-2.52 2.25,-1.679 3.99,-4.07 5.21,-7.152 1.23,-3.09 1.84,-6.769 1.84,-11.039 0,-6.609 -1.48,-11.68 -4.42,-15.23 z m 7.9,44.109 c -4.07,2.543 -8.78,3.82 -14.16,3.82 -4.67,0 -8.59,-0.84 -11.75,-2.519 -3.17,-1.68 -6.28,-4.11 -9.32,-7.27 v 24.75 c 0,2.969 -0.68,5.25 -2.02,6.86 -1.34,1.589 -3.26,2.39 -5.75,2.39 -2.38,0 -4.23,-0.84 -5.56,-2.519 -1.32,-1.672 -1.98,-4.161 -1.98,-7.442 v -70.75 c 0,-3.051 0.68,-5.347 2.05,-6.918 1.36,-1.562 3.19,-2.34 5.49,-2.34 2.25,0 4.11,0.778 5.57,2.34 1.47,1.571 2.2,3.867 2.2,6.918 v 1.602 c 1.78,-2.051 3.22,-3.602 4.3,-4.629 1.09,-1.031 2.41,-2.031 3.95,-2.992 1.54,-0.981 3.41,-1.758 5.61,-2.348 2.19,-0.602 4.54,-0.891 7.03,-0.891 4.07,0 7.81,0.821 11.19,2.457 3.38,1.641 6.26,3.973 8.64,6.981 2.37,3 4.18,6.562 5.43,10.652 1.25,4.098 1.87,8.59 1.87,13.5 0,6.649 -1.12,12.41 -3.36,17.239 -2.24,4.851 -5.38,8.55 -9.43,11.109" /><path
         id="path506"
         style="fill:#fef5df;fill-opacity:1;fill-rule:nonzero;stroke:none"
         d="m 2405.29,253.59 c -1.12,0.66 -2.29,0.98 -3.53,0.98 -1.7,0 -3.02,-0.3 -3.95,-0.898 -0.93,-0.57 -1.81,-1.731 -2.64,-3.434 -0.83,-1.699 -1.76,-4.066 -2.79,-7.058 l -12.99,-37.098 -13.72,39.887 c -0.9,2.769 -1.95,4.89 -3.14,6.371 -1.19,1.492 -2.95,2.23 -5.28,2.23 -1.35,0 -2.64,-0.351 -3.89,-1.07 -1.24,-0.711 -2.22,-1.66 -2.94,-2.852 -0.71,-1.179 -1.07,-2.468 -1.07,-3.847 0,-1.309 0.62,-3.41 1.84,-6.289 l 19.95,-50.211 -1.49,-3.629 c -1.11,-2.652 -2.08,-4.652 -2.94,-6.012 -0.85,-1.379 -1.8,-2.34 -2.87,-2.89 -1.07,-0.559 -2.54,-0.829 -4.4,-0.829 -0.75,0 -1.64,0.118 -2.66,0.348 -0.83,0.25 -1.69,0.371 -2.57,0.371 -2.2,0 -3.88,-0.512 -5,-1.519 -1.13,-1.012 -1.7,-2.45 -1.7,-4.301 0,-2.731 1.19,-4.61 3.57,-5.649 2.37,-1.019 5.93,-1.543 10.68,-1.543 4.87,0 8.73,0.743 11.6,2.231 2.87,1.48 5.17,3.613 6.91,6.391 1.75,2.761 3.53,6.582 5.35,11.441 l 21.13,55.32 c 0.51,1.418 0.95,2.828 1.3,4.211 0.37,1.387 0.61,2.457 0.78,3.207 0,1.231 -0.32,2.391 -0.93,3.5 -0.61,1.11 -1.48,1.992 -2.61,2.641" /><path
         id="path508"
         style="fill:#fef5df;fill-opacity:1;fill-rule:nonzero;stroke:none"
         d="m 2629.3,278.711 c -5.34,0 -9.54,-0.691 -12.61,-2.039 -3.06,-1.371 -5.26,-3.543 -6.54,-6.52 -1.29,-3.011 -1.91,-7.031 -1.91,-12.113 v -4.867 h -3.87 c -5.43,0 -8.14,-1.922 -8.14,-5.82 0,-1.743 0.66,-3.161 1.96,-4.243 1.32,-1.109 3.16,-1.629 5.59,-1.629 h 4.46 v -42.941 c 0,-3.187 0.75,-5.629 2.27,-7.301 1.55,-1.699 3.44,-2.539 5.74,-2.539 2.43,0 4.38,0.84 5.89,2.539 1.55,1.672 2.3,4.114 2.3,7.301 v 42.941 h 3.96 c 2.9,0 5.17,0.352 6.8,1.071 1.66,0.711 2.46,2.41 2.46,5.019 0,3.739 -3.07,5.602 -9.26,5.602 h -3.96 v 3.859 c 0,3.219 0.43,5.68 1.23,7.399 0.86,1.711 2.73,2.59 5.65,2.59 1.07,0 2.41,-0.141 3.9,-0.34 1.55,-0.258 2.67,-0.379 3.29,-0.379 1.34,0 2.52,0.539 3.49,1.597 1,1.071 1.5,2.364 1.5,3.844 0,4.668 -4.71,6.969 -14.2,6.969" /><path
         id="path510"
         style="fill:#fef5df;fill-opacity:1;fill-rule:nonzero;stroke:none"
         d="m 2680.89,252.051 c -3.2,1.711 -6.47,2.551 -9.9,2.551 -3.42,0 -6.11,-0.84 -8.19,-2.551 -2.02,-1.711 -4,-4.211 -5.92,-7.551 -0.14,3.34 -0.8,5.84 -1.98,7.551 -1.19,1.711 -3.13,2.551 -5.84,2.551 -5.25,0 -7.88,-3.641 -7.88,-10.93 v -45.133 c 0,-3.23 0.78,-5.687 2.26,-7.328 1.49,-1.691 3.4,-2.512 5.79,-2.512 2.36,0 4.32,0.813 5.85,2.473 1.51,1.629 2.34,4.098 2.34,7.367 v 13.551 c 0,4.859 0.14,8.992 0.45,12.39 0.33,3.36 0.89,6.301 1.7,8.77 0.84,2.43 2.01,4.25 3.53,5.539 1.49,1.223 3.44,1.859 5.82,1.859 1.71,0 3.73,-0.367 6.02,-1.078 2.25,-0.738 3.7,-1.129 4.32,-1.129 1.58,0 3.04,0.649 4.41,1.95 1.35,1.257 2.04,2.918 2.04,4.879 0,2.8 -1.6,5.07 -4.82,6.781" /><path
         id="path512"
         style="fill:#fef5df;fill-opacity:1;fill-rule:nonzero;stroke:none"
         d="m 2700.21,226.879 c 0.54,5.453 2.13,9.57 4.71,12.363 2.6,2.797 5.92,4.18 9.95,4.18 4.26,0 7.64,-1.363 10.25,-4.133 2.6,-2.73 4.07,-6.879 4.46,-12.41 z m 41.55,-7.399 c 2.33,1.219 3.51,3.852 3.51,7.911 0,4.41 -1.13,8.699 -3.39,12.961 -2.22,4.23 -5.66,7.687 -10.18,10.339 -4.53,2.688 -9.97,4.028 -16.29,4.028 -4.88,0 -9.31,-0.778 -13.29,-2.328 -4.02,-1.571 -7.36,-3.801 -10.08,-6.743 -2.76,-2.949 -4.84,-6.437 -6.24,-10.546 -1.44,-4.102 -2.17,-8.551 -2.17,-13.332 0,-10.168 2.92,-18.231 8.69,-24.18 5.77,-5.93 13.85,-8.891 24.29,-8.891 4.53,0 8.57,0.602 12.07,1.793 3.49,1.168 6.39,2.68 8.74,4.457 2.32,1.821 4.04,3.68 5.22,5.66 1.11,1.95 1.67,3.653 1.67,5.121 0,1.668 -0.49,2.942 -1.52,3.86 -1.05,0.922 -2.38,1.39 -4.06,1.39 -1.52,0 -2.71,-0.378 -3.55,-1.089 -2.02,-1.891 -3.68,-3.403 -4.94,-4.493 -1.27,-1.136 -2.64,-2.168 -4.15,-3.117 -1.5,-0.98 -3.07,-1.699 -4.65,-2.14 -1.61,-0.481 -3.37,-0.68 -5.31,-0.68 -2.91,0 -5.53,0.691 -7.93,2.109 -2.4,1.45 -4.31,3.571 -5.78,6.36 -1.44,2.8 -2.16,6.058 -2.21,9.742 h 31.7 c 4.24,0 7.52,0.598 9.85,1.808" /><path
         id="path514"
         style="fill:#fef5df;fill-opacity:1;fill-rule:nonzero;stroke:none"
         d="m 2767.62,226.879 c 0.52,5.453 2.11,9.57 4.69,12.363 2.61,2.797 5.92,4.18 9.95,4.18 4.26,0 7.64,-1.363 10.27,-4.133 2.57,-2.73 4.07,-6.879 4.46,-12.41 z m 41.54,-7.399 c 2.32,1.219 3.51,3.852 3.51,7.911 0,4.41 -1.16,8.699 -3.4,12.961 -2.22,4.23 -5.64,7.687 -10.13,10.339 -4.6,2.688 -10.03,4.028 -16.33,4.028 -4.87,0 -9.32,-0.778 -13.31,-2.328 -4.01,-1.571 -7.36,-3.801 -10.08,-6.743 -2.74,-2.949 -4.81,-6.437 -6.23,-10.546 -1.44,-4.102 -2.17,-8.551 -2.17,-13.332 0,-10.168 2.9,-18.231 8.68,-24.18 5.79,-5.93 13.87,-8.891 24.29,-8.891 4.53,0 8.6,0.602 12.08,1.793 3.48,1.168 6.41,2.68 8.72,4.457 2.35,1.821 4.09,3.68 5.19,5.66 1.17,1.95 1.71,3.653 1.71,5.121 0,1.668 -0.47,2.942 -1.5,3.86 -1.05,0.922 -2.39,1.39 -4.07,1.39 -1.51,0 -2.7,-0.378 -3.55,-1.089 -2.02,-1.891 -3.68,-3.403 -4.92,-4.493 -1.28,-1.136 -2.64,-2.168 -4.15,-3.117 -1.53,-0.98 -3.07,-1.699 -4.69,-2.14 -1.57,-0.481 -3.35,-0.68 -5.28,-0.68 -2.91,0 -5.55,0.691 -7.94,2.109 -2.39,1.45 -4.31,3.571 -5.76,6.36 -1.43,2.8 -2.18,6.058 -2.21,9.742 h 31.7 c 4.22,0 7.5,0.598 9.84,1.808" /><path
         id="path516"
         style="fill:#fef5df;fill-opacity:1;fill-rule:nonzero;stroke:none"
         d="m 2864.5,210.602 c -1.36,-3.133 -3.2,-5.461 -5.52,-7.043 -2.29,-1.539 -4.8,-2.329 -7.48,-2.329 -4.54,0 -8.28,1.79 -11.32,5.36 -3.07,3.59 -4.6,8.629 -4.6,15.039 0,6.863 1.54,12.043 4.62,15.582 3.06,3.5 6.84,5.269 11.3,5.269 2.81,0 5.41,-0.832 7.7,-2.468 2.3,-1.633 4.11,-3.981 5.41,-7.051 1.3,-3.063 1.97,-6.742 1.97,-11.012 0,-4.429 -0.7,-8.211 -2.08,-11.347 z m 4.76,40.027 c -4.19,2.562 -8.82,3.863 -13.79,3.863 -4.15,0 -7.89,-0.89 -11.13,-2.672 -3.32,-1.761 -6.49,-4.519 -9.53,-8.281 v 1.953 c 0,2.957 -0.71,5.188 -2.18,6.778 -1.43,1.55 -3.29,2.332 -5.59,2.332 -2.33,0 -4.19,-0.782 -5.53,-2.27 -1.34,-1.551 -2,-3.82 -2,-6.922 v -69.949 c 0,-3.539 0.51,-6.199 1.45,-8.07 1.02,-1.832 3.01,-2.743 6.08,-2.743 5.17,0 7.77,3.594 7.77,10.684 v 24.328 c 2.87,-3.578 5.87,-6.34 9.01,-8.16 3.13,-1.871 7.04,-2.801 11.65,-2.801 3.85,0 7.42,0.77 10.8,2.27 3.34,1.531 6.22,3.73 8.68,6.543 2.45,2.828 4.41,6.32 5.81,10.5 1.39,4.179 2.09,8.777 2.09,13.758 0,6.761 -1.22,12.601 -3.66,17.57 -2.44,4.941 -5.73,8.699 -9.93,11.289" /><path
         id="path518"
         style="fill:#fef5df;fill-opacity:1;fill-rule:nonzero;stroke:none"
         d="m 2899,254.602 c -2.38,0 -4.28,-0.793 -5.8,-2.442 -1.45,-1.629 -2.22,-4.031 -2.22,-7.219 v -46.41 c 0,-3.133 0.77,-5.562 2.22,-7.293 1.52,-1.699 3.42,-2.539 5.8,-2.539 2.38,0 4.32,0.821 5.88,2.512 1.54,1.641 2.32,4.098 2.32,7.32 v 46.879 c 0,2.871 -0.78,5.121 -2.32,6.75 -1.56,1.649 -3.5,2.442 -5.88,2.442" /><path
         id="path520"
         style="fill:#fef5df;fill-opacity:1;fill-rule:nonzero;stroke:none"
         d="m 2899.17,278.012 c -2.17,0 -4.07,-0.77 -5.71,-2.231 -1.66,-1.5 -2.48,-3.39 -2.48,-5.679 0,-2.543 0.81,-4.473 2.43,-5.86 1.58,-1.383 3.5,-2.094 5.76,-2.094 2.2,0 4.08,0.711 5.67,2.094 1.56,1.406 2.36,3.348 2.36,5.86 0,2.57 -0.82,4.539 -2.44,5.898 -1.62,1.332 -3.46,2.012 -5.59,2.012" /><path
         id="path522"
         style="fill:#fef5df;fill-opacity:1;fill-rule:nonzero;stroke:none"
         d="m 2972.58,204.309 -16.62,26.132 8.61,7.891 c 4.38,3.957 6.59,7.137 6.59,9.508 0,1.922 -0.69,3.551 -2.01,4.832 -1.38,1.289 -3.05,1.93 -5.09,1.93 -1.69,0 -3.13,-0.43 -4.31,-1.301 -1.21,-0.86 -2.9,-2.512 -5.17,-4.86 l -18.22,-19.14 v 39.328 c 0,3.301 -0.74,5.82 -2.21,7.512 -1.48,1.711 -3.43,2.57 -5.93,2.57 -2.55,0 -4.57,-0.922 -5.96,-2.832 -1.35,-1.891 -2.07,-4.617 -2.07,-8.207 v -69.133 c 0,-3.23 0.74,-5.687 2.15,-7.328 1.41,-1.691 3.39,-2.512 5.88,-2.512 2.13,0 4.06,0.84 5.66,2.539 1.65,1.672 2.48,4.071 2.48,7.184 v 12.91 l 8.8,8.297 14.27,-23.527 c 1.82,-2.782 3.3,-4.711 4.36,-5.801 1.06,-1.09 2.61,-1.602 4.58,-1.602 2.27,0 4.13,0.742 5.54,2.211 1.41,1.52 2.13,3.52 2.13,6.102 0,0.886 -0.29,1.898 -0.81,2.886 -0.53,1.012 -1.44,2.454 -2.65,4.411" /><path
         id="path524"
         style="fill:#fef5df;fill-opacity:1;fill-rule:nonzero;stroke:none"
         d="m 2994.5,206.57 c -2.5,0 -4.59,-0.871 -6.3,-2.609 -1.7,-1.731 -2.56,-3.82 -2.56,-6.231 0,-2.859 0.9,-5.089 2.68,-6.648 1.78,-1.59 3.88,-2.383 6.33,-2.383 2.37,0 4.44,0.793 6.24,2.41 1.74,1.582 2.63,3.801 2.63,6.621 0,2.442 -0.89,4.551 -2.63,6.27 -1.8,1.699 -3.91,2.57 -6.39,2.57" /><path
         id="path526"
         style="fill:#fef5df;fill-opacity:1;fill-rule:nonzero;stroke:none"
         d="m 3068.35,215.832 c -1.66,0 -3.08,-0.531 -4.22,-1.551 -1.13,-1.039 -2.19,-2.461 -3.18,-4.269 -1.77,-3.102 -3.81,-5.391 -6.16,-6.891 -2.31,-1.5 -5.1,-2.25 -8.35,-2.25 -2.4,0 -4.63,0.449 -6.65,1.41 -2.02,0.93 -3.72,2.289 -5.16,4.078 -1.44,1.801 -2.52,3.981 -3.26,6.532 -0.75,2.55 -1.14,5.371 -1.14,8.418 0,6.461 1.47,11.613 4.4,15.332 2.93,3.75 6.82,5.621 11.58,5.621 3.33,0 6.06,-0.75 8.21,-2.274 2.18,-1.476 4.24,-3.75 6.22,-6.738 1.09,-1.578 2.09,-2.691 2.99,-3.391 0.9,-0.687 2.01,-1.039 3.38,-1.039 2.02,0 3.77,0.68 5.24,2.032 1.44,1.347 2.15,3 2.15,4.918 0,1.91 -0.63,3.972 -1.93,6.16 -1.27,2.179 -3.14,4.242 -5.56,6.199 -2.45,1.93 -5.4,3.519 -8.9,4.75 -3.53,1.23 -7.37,1.84 -11.57,1.84 -6.74,0 -12.6,-1.387 -17.46,-4.188 -4.86,-2.793 -8.59,-6.73 -11.14,-11.832 -2.59,-5.109 -3.86,-10.98 -3.86,-17.648 0,-9.813 2.81,-17.641 8.4,-23.492 5.63,-5.817 13.45,-8.758 23.49,-8.758 4.68,0 8.93,0.648 12.68,1.918 3.77,1.25 6.88,2.941 9.35,5.023 2.48,2.067 4.34,4.246 5.53,6.559 1.22,2.289 1.82,4.461 1.82,6.461 0,1.687 -0.67,3.308 -1.98,4.808 -1.29,1.5 -2.94,2.262 -4.92,2.262" /><path
         id="path528"
         style="fill:#fef5df;fill-opacity:1;fill-rule:nonzero;stroke:none"
         d="m 3124.55,206.32 c -2.9,-3.73 -6.82,-5.578 -11.71,-5.578 -3.24,0 -6.05,0.86 -8.46,2.528 -2.4,1.679 -4.23,4.089 -5.53,7.289 -1.3,3.16 -1.94,6.839 -1.94,11.082 0,4.281 0.67,8.031 1.97,11.25 1.31,3.199 3.15,5.629 5.56,7.261 2.43,1.637 5.22,2.457 8.4,2.457 4.89,0 8.81,-1.82 11.71,-5.55 2.89,-3.668 4.36,-8.809 4.36,-15.418 0,-6.512 -1.47,-11.629 -4.36,-15.321 z m 11.92,39.149 c -2.88,2.91 -6.29,5.179 -10.27,6.75 -4.01,1.601 -8.47,2.383 -13.36,2.383 -4.83,0 -9.24,-0.782 -13.26,-2.332 -3.99,-1.579 -7.37,-3.809 -10.19,-6.688 -2.81,-2.883 -4.98,-6.371 -6.49,-10.453 -1.47,-4.078 -2.24,-8.578 -2.24,-13.488 0,-4.852 0.75,-9.301 2.19,-13.321 1.52,-4.011 3.69,-7.5 6.57,-10.48 2.85,-2.918 6.27,-5.199 10.16,-6.758 3.92,-1.59 8.35,-2.391 13.26,-2.391 4.92,0 9.37,0.801 13.36,2.34 3.93,1.578 7.35,3.821 10.2,6.75 2.86,2.91 5.01,6.418 6.56,10.5 1.45,4.078 2.22,8.551 2.22,13.36 0,4.89 -0.75,9.32 -2.21,13.39 -1.49,4.008 -3.64,7.481 -6.5,10.438" /><path
         id="path530"
         style="fill:#fef5df;fill-opacity:1;fill-rule:nonzero;stroke:none"
         d="m 3235.69,251.871 c -3.2,1.731 -7.05,2.621 -11.46,2.621 -3.81,0 -7.26,-0.812 -10.38,-2.41 -3.13,-1.613 -6.07,-4.082 -8.82,-7.383 -1.91,3.262 -4.31,5.723 -7.25,7.352 -2.91,1.621 -6.41,2.441 -10.48,2.441 -3.94,0 -7.47,-0.793 -10.7,-2.41 -3.19,-1.562 -6.2,-4.043 -9.03,-7.383 v 1.531 c 0,2.61 -0.74,4.661 -2.21,6.161 -1.5,1.441 -3.35,2.211 -5.57,2.211 -2.28,0 -4.13,-0.782 -5.56,-2.383 -1.4,-1.571 -2.1,-3.887 -2.1,-6.949 v -46.36 c 0,-3.359 0.78,-5.91 2.35,-7.64 1.56,-1.711 3.57,-2.579 6.04,-2.579 2.49,0 4.48,0.868 6.03,2.579 1.5,1.73 2.27,4.281 2.27,7.64 v 21.891 c 0,6.828 0.86,12.058 2.53,15.66 1.68,3.691 5.16,5.508 10.48,5.508 2.63,0 4.59,-0.719 5.81,-2.199 1.22,-1.418 1.98,-3.309 2.27,-5.52 0.26,-2.258 0.39,-5.441 0.39,-9.52 v -25.82 c 0,-3.41 0.78,-5.941 2.33,-7.672 1.48,-1.699 3.49,-2.547 5.94,-2.547 2.54,0 4.55,0.848 6.11,2.547 1.56,1.731 2.31,4.262 2.31,7.672 v 21.539 c 0,6.942 0.61,11.781 1.77,14.52 1.09,2.09 2.59,3.832 4.51,5.082 1.92,1.25 3.95,1.918 6.09,1.918 2.63,0 4.62,-0.719 5.95,-2.149 1.28,-1.422 2.1,-3.191 2.39,-5.289 0.29,-2.101 0.43,-4.871 0.43,-8.359 V 198.91 c 0,-3.359 0.79,-5.91 2.35,-7.64 1.57,-1.711 3.56,-2.579 6.03,-2.579 2.53,0 4.58,0.848 6.12,2.547 1.54,1.731 2.3,4.262 2.3,7.672 v 31.641 c 0,6.289 -0.69,10.898 -2.07,13.847 -1.58,3.231 -3.98,5.731 -7.17,7.473" /><path
         id="path532"
         style="fill:#fef5df;fill-opacity:1;fill-rule:nonzero;stroke:none"
         d="m 2452.73,225.559 c -0.01,0.043 -0.01,0.062 -0.01,0.113 0,-0.051 0,-0.07 0.01,-0.113" /><path
         id="path534"
         style="fill:#fef5df;fill-opacity:1;fill-rule:nonzero;stroke:none"
         d="m 2453.55,220.391 c 0.01,0 0.01,0 0.01,0 -0.3,1.468 -0.55,2.941 -0.73,4.379 0.18,-1.461 0.43,-2.93 0.72,-4.379" /><path
         id="path536"
         style="fill:#fef5df;fill-opacity:1;fill-rule:nonzero;stroke:none"
         d="m 2458.91,205.34 c -0.03,0.058 -0.06,0.14 -0.1,0.211 0.04,-0.071 0.07,-0.153 0.1,-0.211" /><path
         id="path538"
         style="fill:#fef5df;fill-opacity:1;fill-rule:nonzero;stroke:none"
         d="m 2458.4,206.34 c -0.14,0.281 -0.27,0.57 -0.41,0.84 0.14,-0.289 0.27,-0.559 0.41,-0.84" /><path
         id="path540"
         style="fill:#fef5df;fill-opacity:1;fill-rule:nonzero;stroke:none"
         d="m 2455.06,214.59 c 0.79,-2.5 1.75,-4.93 2.85,-7.238 -1.13,2.359 -2.06,4.789 -2.84,7.238 h -0.01" /><path
         id="path542"
         style="fill:#fef5df;fill-opacity:1;fill-rule:nonzero;stroke:none"
         d="m 2507.36,293.191 -0.76,2.59 c 2.99,0.629 5.24,3.289 5.24,6.461 0,3.637 -2.97,6.59 -6.6,6.59 -3.65,0 -6.61,-2.953 -6.61,-6.59 0,-3.172 2.25,-5.832 5.23,-6.461 l 0.84,-2.89 c -10.22,-1.411 -18.35,-5.391 -18.35,-5.391 l 1.45,-4.41 c 6.17,2.062 11.53,3.312 16.39,3.84 4.76,0.5 8.34,0.722 11.26,0.722 3.14,0 5.44,-0.254 8.09,-0.691 l 0.75,4.758 c 0,0 -7.31,2.25 -16.93,1.472" /><path
         id="path544"
         style="fill:#fef5df;fill-opacity:1;fill-rule:nonzero;stroke:none"
         d="m 2454.53,268.121 c -0.17,-0.242 -4.97,-4.652 -8.76,-12.801 -0.15,0.262 -0.34,0.512 -0.56,0.75 -1.13,1.239 -2.72,1.871 -4.73,1.828 -0.03,0 -0.06,0 -0.1,0 -1.24,0 -2.1,0.422 -2.66,0.934 0.55,0.699 0.89,1.598 0.89,2.578 0,2.301 -1.87,4.18 -4.19,4.18 -2.3,0 -4.17,-1.879 -4.17,-4.18 0,-2.32 1.87,-4.18 4.17,-4.18 0.37,0 0.71,0.059 1.05,0.129 1.03,-1.14 2.66,-2.14 5.04,-2.089 1.24,0.011 2.14,-0.309 2.74,-0.969 0.69,-0.762 0.93,-1.852 1,-2.672 -0.01,-0.02 -0.01,-0.039 -0.02,-0.039 -2.72,-7.43 -1.95,-16.68 -1.95,-16.68 l 6.61,-0.262 c 0.14,3.372 0.62,9.262 2.33,13.942 3.28,9.062 7.41,14.711 7.57,14.949 l 0.04,0.051 c 0.24,0.312 0.47,0.601 0.71,0.89 l -1.96,1.418 -3.05,2.223" /><path
         id="path546"
         style="fill:#fef5df;fill-opacity:1;fill-rule:nonzero;stroke:none"
         d="m 2572.94,282.129 c -2.31,0 -4.19,-1.867 -4.19,-4.168 0,-0.371 0.06,-0.711 0.15,-1.039 -1.15,-1.043 -2.14,-2.672 -2.1,-5.07 0.01,-1.231 -0.3,-2.122 -0.97,-2.723 -0.53,-0.469 -1.19,-0.719 -1.85,-0.879 -4.92,6.891 -10.97,11.09 -10.97,11.09 l -4.74,-5.078 c 3.58,-3.262 7.24,-7.34 10.8,-12.442 2.46,-3.519 4.99,-8.058 7.1,-12.59 l 6.4,3.04 c 0,0 -2.92,7.222 -7.04,13.691 0.72,0.258 1.44,0.648 2.07,1.211 1.25,1.129 1.87,2.726 1.83,4.726 -0.01,1.301 0.42,2.184 0.93,2.762 0.71,-0.539 1.6,-0.89 2.58,-0.89 2.31,0 4.18,1.871 4.18,4.191 0,2.301 -1.87,4.168 -4.18,4.168" /><path
         id="path548"
         style="fill:#fef5df;fill-opacity:1;fill-rule:nonzero;stroke:none"
         d="m 2556.33,224.629 c -8.8,-4.289 -23.3,-9.957 -42.37,-12.617 -7.49,-1.043 -14.74,-1.422 -21.42,-1.422 -8.69,0 -16.38,0.64 -22.27,1.39 -6.72,0.852 -11.97,1.879 -15.2,2.61 0.78,-2.449 1.71,-4.879 2.84,-7.238 0.02,-0.063 0.05,-0.133 0.08,-0.172 0.14,-0.27 0.27,-0.559 0.41,-0.84 0.13,-0.27 0.27,-0.539 0.41,-0.789 0.04,-0.071 0.07,-0.153 0.1,-0.211 1.89,-3.559 4.17,-6.84 6.76,-9.668 8.99,-9.852 18.16,-11.402 18.24,-11.41 l 0.15,-0.02 0.13,-0.051 c 0.09,-0.031 8.22,-2.652 20.57,-2.652 12.16,0 24.09,2.449 35.45,7.293 8.43,4.297 16.39,10.84 20.34,16.68 3.05,4.519 5.26,9.34 6.56,14.328 0.69,2.66 1.24,6.93 0.92,11.41 -2.48,-1.668 -6.4,-4.039 -11.7,-6.621" /><path
         id="path550"
         style="fill:#fef5df;fill-opacity:1;fill-rule:nonzero;stroke:none"
         d="m 2538.29,243.832 c -6.02,0 -10.89,4.887 -10.89,10.898 0,6.02 4.87,10.891 10.89,10.891 6,0 10.89,-4.871 10.89,-10.891 0,-6.011 -4.89,-10.898 -10.89,-10.898 z m -51.5,-12.973 c -9.72,0 -17.59,7.871 -17.59,17.59 0,9.723 7.87,17.61 17.59,17.61 9.73,0 17.6,-7.887 17.6,-17.61 0,-9.719 -7.87,-17.59 -17.6,-17.59 z m 36.43,52.59 c -2.64,0.43 -4.77,0.68 -7.77,0.68 -2.79,0 -6.26,-0.219 -10.89,-0.707 -4.65,-0.481 -9.82,-1.703 -15.82,-3.723 -8.43,-2.82 -16.04,-7.25 -22.04,-12.801 l -0.2,-0.187 c -0.89,-0.813 -2.75,-2.539 -4.88,-5.25 -0.26,-0.379 -4.08,-5.781 -7.1,-14.082 -2.25,-6.219 -2.16,-15.27 -2.16,-15.367 v -0.02 c 0,-2.121 0.13,-4.23 0.36,-6.32 0,-0.051 0,-0.07 0.01,-0.113 0.03,-0.27 0.07,-0.52 0.1,-0.789 0.18,-1.438 0.43,-2.911 0.74,-4.379 4.37,-1.121 30.48,-7.211 59.66,-3.149 18.29,2.547 32.18,7.957 40.61,12.039 7.01,3.399 11.51,6.481 13.25,7.739 -1.73,6.429 -6.51,16.5 -10.89,22.789 -12.53,17.902 -26.04,22.5 -32.98,23.64" /><g
         transform="scale(10)"
         id="g552"><text
           id="text556"
           style="font-variant:normal;font-weight:normal;font-size:23.07029915px;font-family:Norwester;-inkscape-font-specification:Norwester-Regular;writing-mode:lr-tb;fill:#fef5df;fill-opacity:1;fill-rule:nonzero;stroke:none"
           transform="matrix(0.940001,0,0,-1,128.711,431.507)"><tspan
             id="tspan554"
             y="0"
             x="0 14.672863 27.614338 39.380394 45.97842 58.666912 65.264938 77.976852 84.574356 99.247223 111.70466 118.62575 125.22377 138.53516 150.07002 162.73523 174.96204 186.95818 193.55724 206.70659 219.37178 232.68422 245.39508">ARTIFICIAL INTELLIGENCE</tspan></text>
<text
           id="text560"
           style="font-variant:normal;font-weight:normal;font-size:14.23320007px;font-family:'Open Sans';-inkscape-font-specification:OpenSans;writing-mode:lr-tb;fill:#fef5df;fill-opacity:1;fill-rule:nonzero;stroke:none"
           transform="matrix(0.939999,0,0,-1,172.69,416.507)"><tspan
             id="tspan558"
             y="0"
             x="0 8.6275244 16.72677 25.354282 38.916012 47.543522 58.985962 67.571915 71.980476 81.671822 93.468529 101.56777 109.66702 118.29401 127.98486 136.57133 141.25053 153.04724">ELEMENT COLLECTION</tspan></text>
</g><path
         id="path562"
         style="fill:#3facbb;fill-opacity:1;fill-rule:nonzero;stroke:none"
         d="M 1669.66,4203.33 H 1297.57" /><path
         id="path564"
         style="fill:none;stroke:#fef5df;stroke-width:20;stroke-linecap:round;stroke-linejoin:round;stroke-miterlimit:4;stroke-dasharray:none;stroke-opacity:1"
         d="m 1669.66,4203.33 h -5" /><path
         id="path566"
         style="fill:none;stroke:#fef5df;stroke-width:20;stroke-linecap:round;stroke-linejoin:round;stroke-miterlimit:4;stroke-dasharray:10.6496, 42.5985;stroke-dashoffset:0;stroke-opacity:1"
         d="M 1622.06,4203.33 H 1323.87" /><path
         id="path568"
         style="fill:none;stroke:#fef5df;stroke-width:20;stroke-linecap:round;stroke-linejoin:round;stroke-miterlimit:4;stroke-dasharray:none;stroke-opacity:1"
         d="m 1302.57,4203.33 h -5" /><path
         id="path570"
         style="fill:#3facbb;fill-opacity:1;fill-rule:nonzero;stroke:none"
         d="M 3702.43,4203.33 H 3330.34" /><path
         id="path572"
         style="fill:none;stroke:#fef5df;stroke-width:20;stroke-linecap:round;stroke-linejoin:round;stroke-miterlimit:4;stroke-dasharray:none;stroke-opacity:1"
         d="m 3702.43,4203.33 h -5" /><path
         id="path574"
         style="fill:none;stroke:#fef5df;stroke-width:20;stroke-linecap:round;stroke-linejoin:round;stroke-miterlimit:4;stroke-dasharray:10.6496, 42.5985;stroke-dashoffset:0;stroke-opacity:1"
         d="M 3654.83,4203.33 H 3356.64" /><path
         id="path576"
         style="fill:none;stroke:#fef5df;stroke-width:20;stroke-linecap:round;stroke-linejoin:round;stroke-miterlimit:4;stroke-dasharray:none;stroke-opacity:1"
         d="m 3335.34,4203.33 h -5" /></g></g></svg>