<?xml version="1.0" encoding="UTF-8" standalone="no"?>
<svg
   xmlns:dc="http://purl.org/dc/elements/1.1/"
   xmlns:cc="http://creativecommons.org/ns#"
   xmlns:rdf="http://www.w3.org/1999/02/22-rdf-syntax-ns#"
   xmlns:svg="http://www.w3.org/2000/svg"
   xmlns="http://www.w3.org/2000/svg"
   viewBox="0 0 666.66669 666.66669"
   height="666.66669"
   width="666.66669"
   xml:space="preserve"
   id="svg2"
   version="1.1"><metadata
     id="metadata8"><rdf:RDF><cc:Work
         rdf:about=""><dc:format>image/svg+xml</dc:format><dc:type
           rdf:resource="http://purl.org/dc/dcmitype/StillImage" /></cc:Work></rdf:RDF></metadata><defs
     id="defs6" /><g
     transform="matrix(1.3333333,0,0,-1.3333333,0,666.66667)"
     id="g10"><g
       transform="scale(0.1)"
       id="g12"><path
         id="path14"
         style="fill:#ffffff;fill-opacity:1;fill-rule:nonzero;stroke:none"
         d="M 5000,0 H 0 V 5000 H 5000 V 0" /><path
         id="path16"
         style="fill:#a3a2a2;fill-opacity:1;fill-rule:nonzero;stroke:none"
         d="m 1771.2,217.109 c 0,-4.398 0.68,-8.14 2.04,-11.23 1.37,-3.078 3.23,-5.399 5.61,-6.957 2.38,-1.57 4.97,-2.363 7.78,-2.363 2.84,0 5.44,0.742 7.8,2.23 2.36,1.481 4.24,3.762 5.64,6.832 1.41,3.059 2.12,6.91 2.12,11.488 0,4.321 -0.71,8.032 -2.12,11.133 -1.4,3.11 -3.29,5.477 -5.69,7.129 -2.41,1.629 -5.01,2.449 -7.88,2.449 -2.96,0 -5.61,-0.84 -7.95,-2.519 -2.34,-1.68 -4.14,-4.09 -5.42,-7.231 -1.29,-3.16 -1.93,-6.8 -1.93,-10.961 z m 31.87,-23.808 v 1.609 c -2.17,-2.488 -4.32,-4.531 -6.45,-6.078 -2.11,-1.57 -4.4,-2.75 -6.87,-3.562 -2.47,-0.84 -5.17,-1.219 -8.1,-1.219 -3.89,0 -7.49,0.82 -10.78,2.449 -3.31,1.648 -6.16,4 -8.58,7.039 -2.42,3.043 -4.24,6.633 -5.49,10.75 -1.25,4.109 -1.88,8.57 -1.88,13.352 0,10.14 2.48,18.031 7.42,23.699 4.95,5.652 11.47,8.48 19.54,8.48 4.66,0 8.61,-0.8 11.81,-2.41 3.2,-1.601 6.33,-4.078 9.38,-7.371 v 23.902 c 0,3.348 0.66,5.848 1.99,7.539 1.32,1.7 3.21,2.559 5.66,2.559 2.46,0 4.35,-0.777 5.69,-2.34 1.3,-1.57 1.99,-3.879 1.99,-6.918 v -71.48 c 0,-3.09 -0.71,-5.403 -2.15,-6.949 -1.43,-1.532 -3.26,-2.301 -5.53,-2.301 -2.2,0 -4.04,0.789 -5.49,2.398 -1.44,1.61 -2.16,3.891 -2.16,6.852" /><path
         id="path18"
         style="fill:#a3a2a2;fill-opacity:1;fill-rule:nonzero;stroke:none"
         d="m 1842.84,222.211 h 29.39 c -0.39,5.527 -1.9,9.687 -4.49,12.437 -2.59,2.762 -6,4.122 -10.24,4.122 -4.04,0 -7.36,-1.391 -9.94,-4.168 -2.6,-2.793 -4.17,-6.922 -4.72,-12.391 z m 31.69,-9.199 h -31.69 c 0.04,-3.68 0.77,-6.93 2.22,-9.731 1.44,-2.812 3.38,-4.941 5.76,-6.351 2.4,-1.418 5.04,-2.141 7.93,-2.141 1.93,0 3.71,0.223 5.31,0.672 1.6,0.469 3.16,1.18 4.66,2.16 1.49,0.949 2.9,2 4.15,3.098 1.27,1.121 2.91,2.633 4.93,4.511 0.83,0.719 2.01,1.079 3.57,1.079 1.66,0 3.01,-0.457 4.02,-1.379 1.04,-0.91 1.56,-2.18 1.56,-3.86 0,-1.449 -0.58,-3.148 -1.73,-5.121 -1.16,-1.969 -2.88,-3.84 -5.2,-5.64 -2.31,-1.797 -5.21,-3.289 -8.73,-4.477 -3.48,-1.203 -7.52,-1.781 -12.07,-1.781 -10.41,0 -18.5,2.969 -24.28,8.898 -5.77,5.93 -8.66,13.981 -8.66,24.16 0,4.789 0.71,9.243 2.14,13.321 1.42,4.101 3.49,7.621 6.22,10.539 2.73,2.933 6.1,5.172 10.09,6.742 4,1.559 8.43,2.34 13.32,2.34 6.32,0 11.74,-1.332 16.27,-4 4.55,-2.672 7.94,-6.129 10.19,-10.352 2.26,-4.238 3.39,-8.551 3.39,-12.937 0,-4.09 -1.18,-6.723 -3.51,-7.942 -2.32,-1.199 -5.62,-1.808 -9.86,-1.808" /><path
         id="path20"
         style="fill:#a3a2a2;fill-opacity:1;fill-rule:nonzero;stroke:none"
         d="m 1948.38,205.23 c 0,-4.46 -1.08,-8.289 -3.26,-11.48 -2.19,-3.18 -5.39,-5.602 -9.65,-7.25 -4.26,-1.629 -9.43,-2.449 -15.53,-2.449 -5.81,0 -10.8,0.879 -14.96,2.679 -4.16,1.77 -7.23,3.989 -9.2,6.661 -1.97,2.679 -2.97,5.359 -2.97,8.058 0,1.781 0.63,3.293 1.92,4.563 1.25,1.258 2.86,1.886 4.8,1.886 1.7,0 2.99,-0.41 3.91,-1.25 0.92,-0.816 1.77,-1.988 2.61,-3.488 1.66,-2.898 3.66,-5.039 5.97,-6.48 2.32,-1.418 5.47,-2.141 9.47,-2.141 3.25,0 5.91,0.742 7.98,2.18 2.08,1.441 3.12,3.101 3.12,4.961 0,2.851 -1.08,4.91 -3.23,6.218 -2.17,1.301 -5.73,2.571 -10.67,3.75 -5.56,1.383 -10.12,2.844 -13.61,4.383 -3.51,1.508 -6.31,3.508 -8.4,6.008 -2.11,2.492 -3.16,5.563 -3.16,9.211 0,3.219 0.97,6.309 2.91,9.199 1.94,2.871 4.8,5.18 8.59,6.903 3.78,1.718 8.34,2.589 13.67,2.589 4.2,0 7.98,-0.429 11.31,-1.32 3.35,-0.851 6.13,-2.039 8.38,-3.492 2.23,-1.457 3.94,-3.09 5.1,-4.867 1.17,-1.77 1.73,-3.52 1.73,-5.223 0,-1.859 -0.61,-3.391 -1.84,-4.578 -1.25,-1.172 -3.02,-1.789 -5.32,-1.789 -1.66,0 -3.09,0.476 -4.24,1.449 -1.17,0.93 -2.5,2.359 -4.02,4.25 -1.22,1.598 -2.66,2.871 -4.32,3.82 -1.67,0.95 -3.92,1.418 -6.78,1.418 -2.93,0 -5.35,-0.621 -7.29,-1.879 -1.95,-1.242 -2.9,-2.789 -2.9,-4.64 0,-1.719 0.7,-3.102 2.12,-4.188 1.43,-1.101 3.34,-2.011 5.77,-2.711 2.4,-0.711 5.72,-1.582 9.98,-2.609 5.02,-1.23 9.12,-2.691 12.3,-4.391 3.19,-1.703 5.6,-3.699 7.25,-6.031 1.64,-2.32 2.46,-4.961 2.46,-7.93" /><path
         id="path22"
         style="fill:#a3a2a2;fill-opacity:1;fill-rule:nonzero;stroke:none"
         d="m 1972.95,240.742 v -46.84 c 0,-3.254 -0.78,-5.703 -2.31,-7.363 -1.56,-1.66 -3.51,-2.488 -5.88,-2.488 -2.38,0 -4.31,0.84 -5.8,2.551 -1.48,1.699 -2.21,4.128 -2.21,7.3 v 46.36 c 0,3.199 0.73,5.617 2.21,7.238 1.49,1.621 3.42,2.441 5.8,2.441 2.37,0 4.32,-0.82 5.88,-2.441 1.53,-1.621 2.31,-3.891 2.31,-6.758 z m -8.01,16.727 c -2.26,0 -4.19,0.703 -5.8,2.082 -1.6,1.379 -2.39,3.347 -2.39,5.89 0,2.289 0.81,4.161 2.45,5.661 1.64,1.488 3.56,2.23 5.74,2.23 2.09,0 3.95,-0.66 5.58,-2.023 1.62,-1.348 2.43,-3.297 2.43,-5.868 0,-2.511 -0.8,-4.441 -2.38,-5.851 -1.59,-1.41 -3.46,-2.121 -5.63,-2.121" /><path
         id="path24"
         style="fill:#a3a2a2;fill-opacity:1;fill-rule:nonzero;stroke:none"
         d="m 1996.97,217.52 c 0,-6.559 1.45,-11.528 4.32,-14.891 2.87,-3.367 6.58,-5.047 11.13,-5.047 2.69,0 5.23,0.719 7.62,2.168 2.4,1.441 4.34,3.629 5.86,6.531 1.48,2.899 2.24,6.43 2.24,10.59 0,6.609 -1.44,11.758 -4.35,15.43 -2.92,3.679 -6.74,5.519 -11.49,5.519 -4.64,0 -8.35,-1.761 -11.13,-5.281 -2.79,-3.519 -4.2,-8.519 -4.2,-15.019 z m 46.98,20.55 V 191 c 0,-5.379 -0.58,-10.02 -1.74,-13.91 -1.14,-3.871 -2.98,-7.07 -5.52,-9.61 -2.53,-2.531 -5.85,-4.41 -9.93,-5.628 -4.09,-1.231 -9.2,-1.852 -15.3,-1.852 -5.56,0 -10.56,0.781 -14.96,2.34 -4.37,1.59 -7.76,3.601 -10.14,6.058 -2.38,2.481 -3.57,5.024 -3.57,7.641 0,1.973 0.69,3.59 2.01,4.82 1.35,1.27 2.99,1.891 4.89,1.891 2.36,0 4.45,-1.051 6.23,-3.16 0.87,-1.051 1.76,-2.141 2.69,-3.231 0.94,-1.097 1.98,-2.019 3.09,-2.8 1.13,-0.77 2.48,-1.329 4.07,-1.719 1.57,-0.371 3.41,-0.551 5.46,-0.551 4.2,0 7.45,0.582 9.77,1.75 2.31,1.16 3.94,2.801 4.86,4.902 0.93,2.079 1.48,4.329 1.64,6.739 0.16,2.379 0.27,6.23 0.35,11.539 -2.5,-3.489 -5.37,-6.137 -8.64,-7.957 -3.26,-1.813 -7.16,-2.731 -11.65,-2.731 -5.43,0 -10.16,1.379 -14.23,4.168 -4.05,2.762 -7.18,6.633 -9.35,11.633 -2.16,4.977 -3.26,10.738 -3.26,17.258 0,4.871 0.66,9.269 1.99,13.18 1.33,3.929 3.21,7.218 5.67,9.921 2.44,2.68 5.27,4.719 8.48,6.079 3.2,1.359 6.72,2.05 10.56,2.05 4.59,0 8.58,-0.89 11.96,-2.629 3.35,-1.769 6.47,-4.531 9.37,-8.289 v 2.188 c 0,2.812 0.68,4.98 2.07,6.539 1.39,1.531 3.17,2.312 5.34,2.312 3.13,0 5.21,-1.019 6.22,-3.07 1.05,-2.031 1.57,-4.98 1.57,-8.801" /><path
         id="path26"
         style="fill:#a3a2a2;fill-opacity:1;fill-rule:nonzero;stroke:none"
         d="m 2069.7,240.969 v -1.957 c 2.84,3.769 5.95,6.519 9.34,8.277 3.38,1.762 7.27,2.652 11.66,2.652 4.28,0 8.1,-0.953 11.47,-2.793 3.36,-1.867 5.88,-4.488 7.54,-7.886 1.06,-1.981 1.75,-4.121 2.07,-6.422 0.31,-2.289 0.49,-5.219 0.49,-8.789 v -30.149 c 0,-3.254 -0.75,-5.703 -2.24,-7.363 -1.48,-1.66 -3.41,-2.488 -5.79,-2.488 -2.41,0 -4.37,0.84 -5.86,2.551 -1.52,1.699 -2.27,4.128 -2.27,7.3 v 27.02 c 0,5.328 -0.74,9.418 -2.22,12.25 -1.49,2.828 -4.44,4.25 -8.89,4.25 -2.87,0 -5.51,-0.871 -7.88,-2.602 -2.37,-1.711 -4.13,-4.078 -5.23,-7.09 -0.8,-2.41 -1.19,-6.921 -1.19,-13.531 v -20.297 c 0,-3.281 -0.76,-5.754 -2.28,-7.402 -1.52,-1.629 -3.5,-2.449 -5.9,-2.449 -2.34,0 -4.26,0.84 -5.76,2.551 -1.51,1.699 -2.27,4.128 -2.27,7.3 v 46.84 c 0,3.09 0.69,5.387 2.02,6.918 1.34,1.52 3.19,2.281 5.52,2.281 1.43,0 2.73,-0.339 3.87,-1.011 1.13,-0.68 2.07,-1.68 2.75,-3.02 0.71,-1.351 1.05,-3 1.05,-4.941" /><path
         id="path28"
         style="fill:#a3a2a2;fill-opacity:1;fill-rule:nonzero;stroke:none"
         d="m 2136.59,222.211 h 29.39 c -0.39,5.527 -1.9,9.687 -4.49,12.437 -2.59,2.762 -6,4.122 -10.24,4.122 -4.03,0 -7.36,-1.391 -9.94,-4.168 -2.6,-2.793 -4.16,-6.922 -4.72,-12.391 z m 31.69,-9.199 h -31.69 c 0.03,-3.68 0.79,-6.93 2.22,-9.731 1.45,-2.812 3.38,-4.941 5.76,-6.351 2.4,-1.418 5.04,-2.141 7.93,-2.141 1.93,0 3.71,0.223 5.31,0.672 1.6,0.469 3.16,1.18 4.65,2.16 1.51,0.949 2.89,2 4.17,3.098 1.26,1.121 2.9,2.633 4.92,4.511 0.83,0.719 2.02,1.079 3.57,1.079 1.66,0 3.01,-0.457 4.04,-1.379 1.03,-0.91 1.53,-2.18 1.53,-3.86 0,-1.449 -0.57,-3.148 -1.72,-5.121 -1.14,-1.969 -2.88,-3.84 -5.2,-5.64 -2.31,-1.797 -5.21,-3.289 -8.71,-4.477 -3.5,-1.203 -7.53,-1.781 -12.09,-1.781 -10.41,0 -18.5,2.969 -24.28,8.898 -5.77,5.93 -8.66,13.981 -8.66,24.16 0,4.789 0.71,9.243 2.14,13.321 1.42,4.101 3.49,7.621 6.23,10.539 2.72,2.933 6.09,5.172 10.09,6.742 3.99,1.559 8.42,2.34 13.31,2.34 6.31,0 11.74,-1.332 16.28,-4 4.54,-2.672 7.94,-6.129 10.18,-10.352 2.25,-4.238 3.38,-8.551 3.38,-12.937 0,-4.09 -1.17,-6.723 -3.5,-7.942 -2.32,-1.199 -5.61,-1.808 -9.86,-1.808" /><path
         id="path30"
         style="fill:#a3a2a2;fill-opacity:1;fill-rule:nonzero;stroke:none"
         d="m 2202.48,217.109 c 0,-4.398 0.68,-8.14 2.05,-11.23 1.35,-3.078 3.22,-5.399 5.61,-6.957 2.36,-1.57 4.96,-2.363 7.77,-2.363 2.85,0 5.45,0.742 7.8,2.23 2.36,1.481 4.24,3.762 5.65,6.832 1.39,3.059 2.1,6.91 2.1,11.488 0,4.321 -0.71,8.032 -2.1,11.133 -1.41,3.11 -3.31,5.477 -5.7,7.129 -2.41,1.629 -5.02,2.449 -7.89,2.449 -2.95,0 -5.6,-0.84 -7.94,-2.519 -2.33,-1.68 -4.15,-4.09 -5.44,-7.231 -1.28,-3.16 -1.91,-6.8 -1.91,-10.961 z m 31.87,-23.808 v 1.609 c -2.18,-2.488 -4.33,-4.531 -6.44,-6.078 -2.13,-1.57 -4.41,-2.75 -6.87,-3.562 -2.49,-0.84 -5.18,-1.219 -8.11,-1.219 -3.89,0 -7.48,0.82 -10.78,2.449 -3.3,1.648 -6.17,4 -8.58,7.039 -2.42,3.043 -4.24,6.633 -5.48,10.75 -1.25,4.109 -1.88,8.57 -1.88,13.352 0,10.14 2.47,18.031 7.41,23.699 4.95,5.652 11.46,8.48 19.53,8.48 4.68,0 8.63,-0.8 11.82,-2.41 3.21,-1.601 6.34,-4.078 9.38,-7.371 v 23.902 c 0,3.348 0.67,5.848 1.98,7.539 1.34,1.7 3.22,2.559 5.68,2.559 2.46,0 4.34,-0.777 5.67,-2.34 1.32,-1.57 1.99,-3.879 1.99,-6.918 v -71.48 c 0,-3.09 -0.71,-5.403 -2.13,-6.949 -1.45,-1.532 -3.26,-2.301 -5.53,-2.301 -2.22,0 -4.05,0.789 -5.49,2.398 -1.46,1.61 -2.17,3.891 -2.17,6.852" /><path
         id="path32"
         style="fill:#a3a2a2;fill-opacity:1;fill-rule:nonzero;stroke:none"
         d="m 2301.37,216.629 c 0,-6.438 1.46,-11.41 4.41,-14.859 2.94,-3.469 6.82,-5.211 11.6,-5.211 4.08,0 7.59,1.781 10.55,5.32 2.94,3.551 4.41,8.633 4.41,15.23 0,4.27 -0.6,7.95 -1.83,11.039 -1.23,3.102 -2.97,5.473 -5.22,7.153 -2.26,1.679 -4.9,2.519 -7.91,2.519 -3.08,0 -5.84,-0.84 -8.24,-2.519 -2.42,-1.68 -4.32,-4.11 -5.7,-7.289 -1.39,-3.192 -2.07,-6.981 -2.07,-11.383 z m -0.78,48.152 v -24.742 c 3.04,3.141 6.15,5.582 9.31,7.25 3.17,1.68 7.09,2.531 11.76,2.531 5.39,0 10.1,-1.281 14.16,-3.82 4.05,-2.559 7.19,-6.25 9.43,-11.109 2.25,-4.84 3.36,-10.602 3.36,-17.25 0,-4.911 -0.62,-9.399 -1.86,-13.5 -1.26,-4.102 -3.06,-7.653 -5.44,-10.649 -2.37,-3 -5.26,-5.344 -8.63,-6.992 -3.38,-1.629 -7.12,-2.449 -11.2,-2.449 -2.5,0 -4.84,0.301 -7.03,0.879 -2.2,0.601 -4.07,1.379 -5.62,2.359 -1.54,0.953 -2.85,1.961 -3.95,2.981 -1.07,1.031 -2.52,2.582 -4.29,4.64 v -1.609 c 0,-3.039 -0.75,-5.352 -2.21,-6.91 -1.45,-1.571 -3.32,-2.34 -5.57,-2.34 -2.3,0 -4.14,0.769 -5.49,2.34 -1.36,1.558 -2.05,3.871 -2.05,6.91 v 70.758 c 0,3.293 0.67,5.781 1.98,7.441 1.32,1.691 3.19,2.539 5.56,2.539 2.5,0 4.42,-0.797 5.75,-2.41 1.34,-1.609 2.03,-3.879 2.03,-6.848" /><path
         id="path34"
         style="fill:#a3a2a2;fill-opacity:1;fill-rule:nonzero;stroke:none"
         d="m 2369.63,182.02 1.47,3.621 -19.95,50.23 c -1.21,2.879 -1.83,4.988 -1.83,6.301 0,1.367 0.36,2.648 1.07,3.84 0.72,1.199 1.69,2.148 2.93,2.867 1.25,0.711 2.54,1.062 3.89,1.062 2.33,0 4.1,-0.742 5.29,-2.23 1.19,-1.481 2.23,-3.609 3.14,-6.371 l 13.72,-39.891 12.99,37.09 c 1.03,3 1.97,5.363 2.81,7.082 0.82,1.68 1.7,2.84 2.62,3.418 0.93,0.59 2.26,0.902 3.96,0.902 1.23,0 2.4,-0.332 3.53,-0.98 1.12,-0.652 2,-1.539 2.61,-2.641 0.62,-1.109 0.93,-2.281 0.93,-3.511 -0.18,-0.739 -0.41,-1.809 -0.78,-3.2 -0.35,-1.39 -0.8,-2.8 -1.31,-4.218 l -21.13,-55.309 c -1.82,-4.883 -3.6,-8.691 -5.35,-11.461 -1.74,-2.769 -4.03,-4.91 -6.9,-6.379 -2.89,-1.492 -6.74,-2.242 -11.61,-2.242 -4.76,0 -8.31,0.512 -10.69,1.539 -2.37,1.043 -3.56,2.91 -3.56,5.66 0,1.84 0.57,3.293 1.7,4.281 1.12,1.02 2.79,1.54 5,1.54 0.88,0 1.74,-0.129 2.56,-0.368 1.03,-0.23 1.92,-0.363 2.66,-0.363 1.87,0 3.33,0.281 4.4,0.832 1.08,0.551 2.03,1.52 2.88,2.891 0.86,1.34 1.84,3.359 2.95,6.008" /><path
         id="path36"
         style="fill:#a3a2a2;fill-opacity:1;fill-rule:nonzero;stroke:none"
         d="m 2604.39,248.539 h 3.87 v 4.859 c 0,5.094 0.63,9.102 1.92,12.114 1.27,2.988 3.45,5.148 6.54,6.527 3.07,1.352 7.26,2.043 12.6,2.043 9.49,0 14.2,-2.301 14.2,-6.973 0,-1.488 -0.49,-2.769 -1.49,-3.839 -0.98,-1.059 -2.15,-1.598 -3.49,-1.598 -0.63,0 -1.74,0.117 -3.31,0.367 -1.46,0.223 -2.81,0.359 -3.88,0.359 -2.93,0 -4.79,-0.886 -5.65,-2.609 -0.8,-1.707 -1.23,-4.168 -1.23,-7.398 v -3.852 h 3.95 c 6.19,0 9.26,-1.848 9.26,-5.598 0,-2.621 -0.79,-4.312 -2.47,-5.031 -1.62,-0.699 -3.88,-1.058 -6.79,-1.058 h -3.95 v -42.95 c 0,-3.203 -0.76,-5.621 -2.3,-7.3 -1.53,-1.711 -3.48,-2.543 -5.9,-2.543 -2.31,0 -4.2,0.832 -5.74,2.543 -1.53,1.679 -2.27,4.097 -2.27,7.3 v 42.95 h -4.47 c -2.42,0 -4.26,0.507 -5.59,1.64 -1.29,1.047 -1.95,2.477 -1.95,4.219 0,3.898 2.71,5.828 8.14,5.828" /><path
         id="path38"
         style="fill:#a3a2a2;fill-opacity:1;fill-rule:nonzero;stroke:none"
         d="m 2657.46,207.441 v -13.539 c 0,-3.281 -0.84,-5.754 -2.34,-7.382 -1.55,-1.649 -3.5,-2.461 -5.88,-2.461 -2.36,0 -4.28,0.82 -5.76,2.5 -1.49,1.652 -2.27,4.101 -2.27,7.343 v 45.137 c 0,7.293 2.62,10.93 7.87,10.93 2.72,0 4.65,-0.848 5.84,-2.559 1.19,-1.711 1.86,-4.199 1.97,-7.551 1.94,3.352 3.93,5.84 5.94,7.551 2.09,1.711 4.77,2.559 8.19,2.559 3.43,0 6.69,-0.848 9.92,-2.559 3.2,-1.711 4.8,-3.969 4.8,-6.781 0,-1.949 -0.68,-3.617 -2.03,-4.879 -1.37,-1.301 -2.85,-1.941 -4.41,-1.941 -0.63,0 -2.07,0.382 -4.32,1.121 -2.3,0.711 -4.32,1.09 -6.02,1.09 -2.38,0 -4.35,-0.649 -5.83,-1.872 -1.51,-1.277 -2.7,-3.109 -3.52,-5.546 -0.82,-2.461 -1.37,-5.403 -1.72,-8.782 -0.31,-3.359 -0.43,-7.519 -0.43,-12.379" /><path
         id="path40"
         style="fill:#a3a2a2;fill-opacity:1;fill-rule:nonzero;stroke:none"
         d="m 2700.23,222.25 h 29.4 c -0.39,5.531 -1.88,9.672 -4.45,12.41 -2.62,2.762 -6,4.129 -10.26,4.129 -4.04,0 -7.36,-1.379 -9.96,-4.187 -2.58,-2.782 -4.18,-6.891 -4.73,-12.352 m 31.72,-9.219 h -31.72 c 0.06,-3.672 0.79,-6.949 2.23,-9.742 1.47,-2.797 3.38,-4.918 5.76,-6.359 2.42,-1.418 5.04,-2.129 7.95,-2.129 1.94,0 3.69,0.211 5.31,0.711 1.59,0.429 3.15,1.148 4.65,2.129 1.53,0.941 2.87,1.988 4.14,3.121 1.27,1.09 2.93,2.597 4.96,4.476 0.84,0.723 2.02,1.102 3.54,1.102 1.68,0 3.01,-0.469 4.06,-1.399 1.04,-0.91 1.53,-2.179 1.53,-3.851 0,-1.461 -0.57,-3.168 -1.68,-5.11 -1.16,-2 -2.89,-3.859 -5.22,-5.671 -2.34,-1.778 -5.25,-3.289 -8.75,-4.469 -3.48,-1.168 -7.52,-1.781 -12.07,-1.781 -10.43,0 -18.51,2.961 -24.3,8.89 -5.76,5.953 -8.69,14.012 -8.69,24.172 0,4.789 0.74,9.25 2.19,13.34 1.41,4.121 3.48,7.609 6.23,10.559 2.73,2.929 6.07,5.171 10.1,6.73 3.96,1.559 8.4,2.34 13.28,2.34 6.33,0 11.76,-1.34 16.31,-4.039 4.49,-2.641 7.95,-6.102 10.15,-10.34 2.27,-4.25 3.4,-8.539 3.4,-12.961 0,-4.059 -1.17,-6.699 -3.49,-7.918 -2.35,-1.203 -5.63,-1.801 -9.87,-1.801" /><path
         id="path42"
         style="fill:#a3a2a2;fill-opacity:1;fill-rule:nonzero;stroke:none"
         d="m 2767.68,222.25 h 29.37 c -0.41,5.531 -1.89,9.672 -4.47,12.41 -2.62,2.762 -6.02,4.129 -10.26,4.129 -4.04,0 -7.36,-1.379 -9.96,-4.187 -2.57,-2.782 -4.16,-6.891 -4.68,-12.352 m 31.7,-9.219 h -31.7 c 0.03,-3.672 0.78,-6.949 2.2,-9.742 1.45,-2.797 3.36,-4.918 5.76,-6.359 2.39,-1.418 5.04,-2.129 7.95,-2.129 1.92,0 3.7,0.211 5.28,0.711 1.62,0.429 3.16,1.148 4.68,2.129 1.51,0.941 2.88,1.988 4.15,3.121 1.25,1.09 2.91,2.597 4.94,4.476 0.84,0.723 2.03,1.102 3.55,1.102 1.66,0 3.01,-0.469 4.04,-1.399 1.04,-0.91 1.53,-2.179 1.53,-3.851 0,-1.461 -0.55,-3.168 -1.72,-5.11 -1.11,-2 -2.85,-3.859 -5.2,-5.671 -2.3,-1.778 -5.23,-3.289 -8.71,-4.469 -3.47,-1.168 -7.56,-1.781 -12.09,-1.781 -10.43,0 -18.49,2.961 -24.29,8.89 -5.77,5.953 -8.68,14.012 -8.68,24.172 0,4.789 0.73,9.25 2.17,13.34 1.41,4.121 3.5,7.609 6.23,10.559 2.72,2.929 6.08,5.171 10.08,6.73 3.99,1.559 8.46,2.34 13.3,2.34 6.33,0 11.76,-1.34 16.33,-4.039 4.51,-2.641 7.91,-6.102 10.14,-10.34 2.24,-4.25 3.39,-8.539 3.39,-12.961 0,-4.059 -1.17,-6.699 -3.49,-7.918 -2.34,-1.203 -5.63,-1.801 -9.84,-1.801" /><path
         id="path44"
         style="fill:#a3a2a2;fill-opacity:1;fill-rule:nonzero;stroke:none"
         d="m 2866.64,217.301 c 0,4.281 -0.64,7.961 -1.97,11.019 -1.29,3.09 -3.11,5.43 -5.39,7.051 -2.31,1.641 -4.9,2.481 -7.72,2.481 -4.45,0 -8.22,-1.782 -11.29,-5.282 -3.08,-3.55 -4.63,-8.711 -4.63,-15.578 0,-6.41 1.53,-11.461 4.59,-15.043 3.05,-3.578 6.8,-5.367 11.33,-5.367 2.68,0 5.2,0.789 7.5,2.34 2.31,1.57 4.14,3.91 5.51,7.039 1.37,3.141 2.07,6.918 2.07,11.34 m -31.78,23.551 v -1.942 c 3.05,3.762 6.21,6.52 9.55,8.281 3.23,1.77 6.98,2.668 11.12,2.668 4.98,0 9.61,-1.308 13.81,-3.859 4.2,-2.59 7.5,-6.352 9.92,-11.289 2.44,-4.969 3.67,-10.809 3.67,-17.59 0,-4.973 -0.7,-9.57 -2.09,-13.762 -1.41,-4.168 -3.36,-7.668 -5.82,-10.5 -2.46,-2.8 -5.35,-5 -8.67,-6.527 -3.4,-1.512 -6.96,-2.273 -10.82,-2.273 -4.61,0 -8.52,0.929 -11.64,2.812 -3.15,1.801 -6.16,4.57 -9.03,8.141 V 170.68 c 0,-7.09 -2.59,-10.68 -7.77,-10.68 -3.07,0 -5.06,0.922 -6.05,2.738 -0.96,1.871 -1.47,4.532 -1.47,8.082 v 69.95 c 0,3.101 0.66,5.371 1.99,6.929 1.35,1.492 3.21,2.27 5.53,2.27 2.3,0 4.16,-0.778 5.61,-2.328 1.46,-1.59 2.16,-3.832 2.16,-6.789" /><path
         id="path46"
         style="fill:#a3a2a2;fill-opacity:1;fill-rule:nonzero;stroke:none"
         d="m 2907.27,240.77 v -46.879 c 0,-3.231 -0.77,-5.68 -2.31,-7.332 -1.56,-1.68 -3.5,-2.5 -5.88,-2.5 -2.38,0 -4.28,0.832 -5.8,2.543 -1.46,1.718 -2.23,4.148 -2.23,7.289 v 46.418 c 0,3.191 0.77,5.601 2.23,7.222 1.52,1.649 3.42,2.438 5.8,2.438 2.38,0 4.32,-0.789 5.88,-2.438 1.54,-1.621 2.31,-3.902 2.31,-6.761 m -8.01,16.75 c -2.27,0 -4.2,0.71 -5.78,2.089 -1.62,1.403 -2.43,3.321 -2.43,5.852 0,2.301 0.83,4.187 2.49,5.68 1.64,1.48 3.53,2.23 5.72,2.23 2.13,0 3.96,-0.66 5.56,-1.992 1.63,-1.367 2.45,-3.348 2.45,-5.918 0,-2.492 -0.79,-4.441 -2.35,-5.852 -1.6,-1.379 -3.47,-2.089 -5.66,-2.089" /><path
         id="path48"
         style="fill:#a3a2a2;fill-opacity:1;fill-rule:nonzero;stroke:none"
         d="m 2959.51,191.461 -14.28,23.527 -8.78,-8.289 V 193.77 c 0,-3.11 -0.84,-5.489 -2.49,-7.168 -1.62,-1.711 -3.53,-2.543 -5.66,-2.543 -2.48,0 -4.47,0.82 -5.88,2.5 -1.42,1.652 -2.15,4.101 -2.15,7.343 v 69.149 c 0,3.57 0.73,6.32 2.07,8.211 1.41,1.898 3.4,2.82 5.96,2.82 2.48,0 4.45,-0.863 5.94,-2.582 1.46,-1.691 2.21,-4.199 2.21,-7.512 v -39.316 l 18.22,19.129 c 2.26,2.347 3.94,4.008 5.17,4.871 1.18,0.867 2.62,1.297 4.3,1.297 2.03,0 3.71,-0.649 5.1,-1.93 1.33,-1.277 2.01,-2.898 2.01,-4.828 0,-2.371 -2.21,-5.559 -6.58,-9.52 l -8.62,-7.882 16.63,-26.149 c 1.19,-1.949 2.11,-3.39 2.63,-4.41 0.53,-0.988 0.82,-2 0.82,-2.891 0,-2.57 -0.72,-4.597 -2.13,-6.089 -1.4,-1.481 -3.28,-2.211 -5.54,-2.211 -1.98,0 -3.52,0.5 -4.57,1.601 -1.08,1.082 -2.54,3.012 -4.38,5.801" /><path
         id="path50"
         style="fill:#a3a2a2;fill-opacity:1;fill-rule:nonzero;stroke:none"
         d="m 2994.75,184.059 c -2.46,0 -4.55,0.781 -6.33,2.39 -1.8,1.551 -2.7,3.77 -2.7,6.653 0,2.41 0.88,4.488 2.56,6.207 1.74,1.742 3.81,2.621 6.31,2.621 2.5,0 4.59,-0.879 6.41,-2.571 1.73,-1.718 2.61,-3.828 2.61,-6.257 0,-2.84 -0.88,-5.063 -2.61,-6.641 -1.82,-1.621 -3.89,-2.402 -6.25,-2.402" /><path
         id="path52"
         style="fill:#a3a2a2;fill-opacity:1;fill-rule:nonzero;stroke:none"
         d="m 3075.35,204.109 c 0,-2 -0.6,-4.168 -1.8,-6.449 -1.21,-2.328 -3.06,-4.488 -5.56,-6.578 -2.44,-2.07 -5.55,-3.762 -9.32,-5 -3.77,-1.281 -8.03,-1.922 -12.71,-1.922 -10.02,0 -17.85,2.93 -23.48,8.75 -5.59,5.852 -8.4,13.68 -8.4,23.5 0,6.68 1.27,12.539 3.85,17.649 2.56,5.089 6.29,9.05 11.15,11.851 4.87,2.781 10.72,4.18 17.46,4.18 4.22,0 8.05,-0.621 11.59,-1.84 3.49,-1.219 6.44,-2.82 8.9,-4.75 2.42,-1.969 4.28,-4.02 5.55,-6.211 1.29,-2.187 1.93,-4.238 1.93,-6.16 0,-1.918 -0.72,-3.57 -2.15,-4.918 -1.46,-1.34 -3.22,-2.02 -5.23,-2.02 -1.37,0 -2.5,0.348 -3.4,1.028 -0.9,0.703 -1.89,1.812 -2.99,3.383 -1.97,3 -4.02,5.269 -6.21,6.757 -2.15,1.512 -4.88,2.262 -8.22,2.262 -4.77,0 -8.63,-1.871 -11.58,-5.609 -2.93,-3.723 -4.4,-8.883 -4.4,-15.34 0,-3.051 0.39,-5.871 1.13,-8.43 0.75,-2.543 1.84,-4.722 3.27,-6.512 1.44,-1.8 3.14,-3.171 5.15,-4.089 2.03,-0.969 4.28,-1.422 6.66,-1.422 3.26,0 6.04,0.761 8.34,2.261 2.37,1.5 4.4,3.79 6.17,6.879 0.98,1.832 2.06,3.243 3.19,4.27 1.13,1.031 2.56,1.562 4.22,1.562 1.99,0 3.63,-0.761 4.9,-2.261 1.33,-1.508 1.99,-3.121 1.99,-4.821" /><path
         id="path54"
         style="fill:#a3a2a2;fill-opacity:1;fill-rule:nonzero;stroke:none"
         d="m 3129.02,216.992 c 0,6.617 -1.46,11.758 -4.35,15.43 -2.89,3.726 -6.82,5.558 -11.72,5.558 -3.18,0 -5.98,-0.832 -8.38,-2.46 -2.42,-1.641 -4.26,-4.059 -5.59,-7.278 -1.28,-3.211 -1.95,-6.961 -1.95,-11.25 0,-4.242 0.63,-7.922 1.93,-11.07 1.29,-3.203 3.13,-5.613 5.53,-7.301 2.42,-1.66 5.22,-2.531 8.46,-2.531 4.9,0 8.83,1.859 11.72,5.59 2.89,3.679 4.35,8.812 4.35,15.312 m 16.27,0 c 0,-4.801 -0.74,-9.281 -2.22,-13.363 -1.53,-4.078 -3.69,-7.59 -6.55,-10.488 -2.85,-2.93 -6.27,-5.172 -10.21,-6.739 -3.99,-1.562 -8.44,-2.351 -13.36,-2.351 -4.9,0 -9.32,0.789 -13.26,2.398 -3.89,1.551 -7.31,3.821 -10.16,6.75 -2.87,2.981 -5.06,6.461 -6.58,10.473 -1.43,4.039 -2.19,8.476 -2.19,13.32 0,4.918 0.78,9.418 2.25,13.5 1.5,4.09 3.67,7.578 6.48,10.457 2.83,2.883 6.21,5.102 10.2,6.692 4.02,1.55 8.44,2.328 13.26,2.328 4.9,0 9.35,-0.778 13.36,-2.387 3.98,-1.57 7.4,-3.844 10.27,-6.742 2.87,-2.969 5.02,-6.442 6.51,-10.449 1.46,-4.071 2.2,-8.5 2.2,-13.399" /><path
         id="path56"
         style="fill:#a3a2a2;fill-opacity:1;fill-rule:nonzero;stroke:none"
         d="m 3207.13,215.82 v -21.55 c 0,-3.418 -0.76,-5.95 -2.31,-7.668 -1.56,-1.711 -3.57,-2.551 -6.11,-2.551 -2.46,0 -4.45,0.84 -5.96,2.551 -1.54,1.718 -2.32,4.25 -2.32,7.668 v 25.82 c 0,4.09 -0.12,7.262 -0.39,9.531 -0.29,2.211 -1.06,4.078 -2.27,5.52 -1.23,1.461 -3.18,2.191 -5.82,2.191 -5.31,0 -8.79,-1.812 -10.47,-5.5 -1.68,-3.613 -2.53,-8.84 -2.53,-15.684 V 194.27 c 0,-3.36 -0.79,-5.911 -2.27,-7.649 -1.56,-1.711 -3.55,-2.57 -6.04,-2.57 -2.48,0 -4.47,0.859 -6.03,2.57 -1.56,1.738 -2.34,4.289 -2.34,7.649 v 46.359 c 0,3.062 0.68,5.383 2.09,6.953 1.42,1.609 3.28,2.387 5.54,2.387 2.25,0 4.08,-0.77 5.59,-2.219 1.46,-1.488 2.21,-3.539 2.21,-6.16 v -1.52 c 2.83,3.34 5.84,5.821 9.02,7.371 3.24,1.618 6.78,2.418 10.72,2.418 4.06,0 7.56,-0.82 10.49,-2.449 2.93,-1.621 5.33,-4.09 7.25,-7.34 2.73,3.301 5.66,5.762 8.8,7.371 3.13,1.61 6.59,2.418 10.4,2.418 4.39,0 8.24,-0.898 11.46,-2.629 3.18,-1.73 5.57,-4.25 7.15,-7.46 1.39,-2.961 2.09,-7.559 2.09,-13.86 v -31.64 c 0,-3.418 -0.76,-5.95 -2.31,-7.668 -1.54,-1.711 -3.59,-2.551 -6.11,-2.551 -2.48,0 -4.47,0.859 -6.03,2.57 -1.57,1.738 -2.37,4.289 -2.37,7.649 v 27.25 c 0,3.5 -0.13,6.281 -0.43,8.359 -0.29,2.113 -1.09,3.891 -2.38,5.312 -1.33,1.411 -3.32,2.141 -5.96,2.141 -2.15,0 -4.18,-0.672 -6.09,-1.934 -1.92,-1.226 -3.42,-2.976 -4.49,-5.066 -1.18,-2.742 -1.78,-7.582 -1.78,-14.512" /><path
         id="path58"
         style="fill:#a3a2a2;fill-opacity:1;fill-rule:nonzero;stroke:none"
         d="m 2452.71,220.93 c 0,0.019 0,0.07 0,0.109 0,-0.039 0,-0.09 0,-0.109" /><path
         id="path60"
         style="fill:#a3a2a2;fill-opacity:1;fill-rule:nonzero;stroke:none"
         d="m 2453.54,215.742 c 0.01,0 0.01,0 0.01,0 -0.31,1.469 -0.54,2.938 -0.74,4.399 0.2,-1.469 0.43,-2.942 0.73,-4.399" /><path
         id="path62"
         style="fill:#a3a2a2;fill-opacity:1;fill-rule:nonzero;stroke:none"
         d="m 2458.91,200.699 c -0.04,0.063 -0.08,0.133 -0.12,0.211 0.04,-0.078 0.08,-0.148 0.12,-0.211" /><path
         id="path64"
         style="fill:#a3a2a2;fill-opacity:1;fill-rule:nonzero;stroke:none"
         d="m 2458.38,201.699 c -0.14,0.281 -0.25,0.563 -0.39,0.84 0.14,-0.289 0.25,-0.559 0.39,-0.84" /><path
         id="path66"
         style="fill:#a3a2a2;fill-opacity:1;fill-rule:nonzero;stroke:none"
         d="m 2455.04,209.949 c 0.8,-2.508 1.76,-4.929 2.85,-7.238 -1.11,2.359 -2.05,4.789 -2.83,7.238 0,0 0,0 -0.02,0" /><path
         id="path68"
         style="fill:#a3a2a2;fill-opacity:1;fill-rule:nonzero;stroke:none"
         d="m 2515.45,283.031 c 3.14,0 5.45,-0.25 8.1,-0.711 l 0.75,4.789 c 0,0 -7.33,2.243 -16.94,1.45 l -0.76,2.589 c 2.99,0.641 5.24,3.293 5.24,6.473 0,3.649 -2.97,6.578 -6.61,6.578 -3.65,0 -6.6,-2.929 -6.6,-6.578 0,-3.18 2.25,-5.832 5.22,-6.473 l 0.86,-2.886 c -10.24,-1.403 -18.36,-5.383 -18.36,-5.383 l 1.44,-4.399 c 6.17,2.051 11.53,3.301 16.39,3.821 4.77,0.5 8.36,0.73 11.27,0.73" /><path
         id="path70"
         style="fill:#a3a2a2;fill-opacity:1;fill-rule:nonzero;stroke:none"
         d="m 2458.77,258.91 0.04,0.051 c 0.25,0.309 0.49,0.609 0.7,0.891 l -1.95,1.41 -3.05,2.238 c -0.17,-0.25 -4.96,-4.66 -8.75,-12.82 -0.15,0.269 -0.35,0.511 -0.56,0.761 -1.14,1.239 -2.72,1.868 -4.73,1.84 -0.04,0 -0.06,0 -0.1,0 -1.25,0 -2.11,0.41 -2.67,0.91 0.56,0.707 0.89,1.59 0.89,2.59 0,2.301 -1.87,4.168 -4.18,4.168 -2.3,0 -4.18,-1.867 -4.18,-4.168 0,-2.32 1.88,-4.191 4.18,-4.191 0.36,0 0.71,0.07 1.06,0.129 1.01,-1.137 2.64,-2.129 5.04,-2.078 1.23,0.007 2.13,-0.309 2.73,-0.969 0.69,-0.762 0.92,-1.852 1,-2.68 -0.02,-0.012 -0.02,-0.023 -0.02,-0.023 -2.74,-7.438 -1.95,-16.699 -1.95,-16.699 l 6.6,-0.258 c 0.13,3.367 0.62,9.269 2.34,13.937 3.28,9.063 7.4,14.723 7.56,14.961" /><path
         id="path72"
         style="fill:#a3a2a2;fill-opacity:1;fill-rule:nonzero;stroke:none"
         d="m 2572.95,277.512 c -2.31,0 -4.18,-1.871 -4.18,-4.192 0,-0.351 0.04,-0.699 0.16,-1.031 -1.16,-1.027 -2.17,-2.66 -2.11,-5.059 0.02,-1.238 -0.3,-2.121 -0.98,-2.738 -0.53,-0.461 -1.19,-0.722 -1.84,-0.883 -4.92,6.903 -10.97,11.11 -10.97,11.11 l -4.75,-5.09 c 3.6,-3.25 7.25,-7.34 10.8,-12.438 2.46,-3.531 4.98,-8.07 7.11,-12.601 l 6.39,3.051 c 0,0 -2.91,7.218 -7.03,13.699 0.7,0.242 1.42,0.64 2.07,1.199 1.25,1.133 1.87,2.723 1.81,4.75 0,1.281 0.43,2.152 0.94,2.75 0.72,-0.547 1.6,-0.898 2.58,-0.898 2.3,0 4.18,1.871 4.18,4.179 0,2.321 -1.88,4.192 -4.18,4.192" /><path
         id="path74"
         style="fill:#a3a2a2;fill-opacity:1;fill-rule:nonzero;stroke:none"
         d="m 2556.35,219.988 c -8.83,-4.289 -23.3,-9.957 -42.39,-12.629 -7.5,-1.027 -14.74,-1.41 -21.44,-1.41 -8.69,0 -16.37,0.641 -22.27,1.391 -6.71,0.84 -11.97,1.879 -15.19,2.609 0.78,-2.449 1.72,-4.879 2.83,-7.238 0.02,-0.051 0.06,-0.129 0.1,-0.172 0.14,-0.277 0.25,-0.559 0.39,-0.84 0.14,-0.269 0.27,-0.527 0.41,-0.789 0.04,-0.078 0.08,-0.148 0.12,-0.211 1.87,-3.558 4.16,-6.828 6.75,-9.679 8.99,-9.848 18.17,-11.411 18.25,-11.411 l 0.15,-0.019 0.12,-0.051 c 0.1,-0.027 8.22,-2.66 20.57,-2.66 12.16,0 24.1,2.461 35.46,7.312 8.42,4.309 16.41,10.848 20.34,16.688 3.06,4.5 5.27,9.32 6.58,14.332 0.68,2.66 1.23,6.918 0.9,11.398 -2.46,-1.66 -6.39,-4.027 -11.68,-6.621" /><path
         id="path76"
         style="fill:#a3a2a2;fill-opacity:1;fill-rule:nonzero;stroke:none"
         d="m 2486.78,261.43 c 9.72,0 17.61,-7.891 17.61,-17.621 0,-9.707 -7.89,-17.579 -17.61,-17.579 -9.73,0 -17.6,7.872 -17.6,17.579 0,9.73 7.87,17.621 17.6,17.621 z m 51.5,-0.43 c 6.02,0 10.92,-4.891 10.92,-10.898 0,-6.02 -4.9,-10.903 -10.92,-10.903 -5.99,0 -10.88,4.883 -10.88,10.903 0,6.007 4.89,10.898 10.88,10.898 z m -76.68,-4.168 c -0.25,-0.371 -4.08,-5.793 -7.09,-14.094 -2.26,-6.218 -2.17,-15.269 -2.17,-15.367 v -0.019 c 0,-2.133 0.14,-4.231 0.37,-6.313 0,-0.039 0,-0.09 0,-0.109 0.02,-0.282 0.08,-0.532 0.1,-0.789 0.2,-1.461 0.43,-2.93 0.74,-4.399 4.38,-1.113 30.49,-7.203 59.67,-3.14 18.3,2.55 32.21,7.968 40.63,12.046 7.01,3.391 11.5,6.473 13.24,7.743 -1.74,6.418 -6.5,16.511 -10.88,22.8 -12.54,17.899 -26.05,22.5 -32.99,23.641 -2.63,0.43 -4.76,0.668 -7.77,0.668 -2.79,0 -6.25,-0.219 -10.88,-0.711 -4.65,-0.48 -9.84,-1.699 -15.84,-3.719 -8.42,-2.82 -16.03,-7.25 -22.05,-12.789 l -0.2,-0.211 c -0.87,-0.808 -2.73,-2.539 -4.88,-5.238" /><g
         transform="scale(10)"
         id="g78"><text
           id="text82"
           style="font-variant:normal;font-weight:bold;font-size:17.96850014px;font-family:Quicksand;-inkscape-font-specification:Quicksand-Bold;writing-mode:lr-tb;fill:#11bcce;fill-opacity:1;fill-rule:nonzero;stroke:none"
           transform="matrix(1,0,0,-1,89.8215,461.502)"><tspan
             id="tspan80"
             y="0"
             x="0 11.607651 22.478758 34.122345 39.602737 50.473682 55.954075 69.807785 75.288177 86.895828 97.0121 102.40265 107.88304 121.55682 133.20041 143.85573 153.97144 164.17754 169.65703 184.28403 194.93832 208.79282 222.64653 233.30083 238.69138 249.34669 259.46295 270.11725 284.38486 295.04019 308.71399">ARTIFICIAL INTELLIGENCE ELEMENT</tspan></text>
</g><g
         transform="scale(10)"
         id="g84"><text
           id="text88"
           style="font-variant:normal;font-weight:normal;font-size:22.79220009px;font-family:Quicksand;-inkscape-font-specification:Quicksand-Regular;writing-mode:lr-tb;fill:#737ee5;fill-opacity:1;fill-rule:nonzero;stroke:none"
           transform="matrix(1,0,0,-1,174.398,434.946)"><tspan
             id="tspan86"
             y="0"
             x="0 17.117195 36.37648 49.208488 62.040497 75.555611 93.128395 107.89701 114.84863 133.62993">COLLECTION</tspan></text>
</g><path
         id="path90"
         style="fill:#737ee5;fill-opacity:1;fill-rule:nonzero;stroke:none"
         d="m 1645.83,4435 c -255.04,0 -510.09,0 -765.142,0 -6.45,0 -6.45,-10 0,-10 255.052,0 510.102,0 765.142,0 6.46,0 6.46,10 0,10 v 0" /><path
         id="path92"
         style="fill:#737ee5;fill-opacity:1;fill-rule:nonzero;stroke:none"
         d="m 4119.32,4435 c -255.05,0 -510.11,0 -765.16,0 -6.45,0 -6.45,-10 0,-10 255.05,0 510.11,0 765.16,0 6.44,0 6.44,10 0,10 v 0" /><path
         id="path94"
         style="fill:#737ee5;fill-opacity:1;fill-rule:nonzero;stroke:none"
         d="M 1537.69,3364.93 H 345.758 v 164.76 H 1537.69 v -164.76" /><path
         id="path96"
         style="fill:#11bcce;fill-opacity:1;fill-rule:nonzero;stroke:none"
         d="m 1462.23,3394.28 c 0,-58.33 -47.73,-106.06 -106.06,-106.06 H 527.273 c -58.328,0 -106.058,47.73 -106.058,106.06 v 106.06 c 0,58.34 47.73,106.06 106.058,106.06 h 828.897 c 58.33,0 106.06,-47.72 106.06,-106.06 v -106.06" /><path
         id="path98"
         style="fill:#5ee8ef;fill-opacity:1;fill-rule:nonzero;stroke:none"
         d="m 601.508,3382.76 c 0,-23.71 -19.219,-42.93 -42.93,-42.93 v 0 c -23.711,0 -42.93,19.22 -42.93,42.93 v 129.1 c 0,23.71 19.219,42.93 42.93,42.93 v 0 c 23.711,0 42.93,-19.22 42.93,-42.93 v -129.1" /><path
         id="path100"
         style="fill:#5ee8ef;fill-opacity:1;fill-rule:nonzero;stroke:none"
         d="m 753.027,3382.76 c 0,-23.71 -19.222,-42.93 -42.929,-42.93 v 0 c -23.711,0 -42.93,19.22 -42.93,42.93 v 129.1 c 0,23.71 19.219,42.93 42.93,42.93 v 0 c 23.707,0 42.929,-19.22 42.929,-42.93 v -129.1" /><path
         id="path102"
         style="fill:#5ee8ef;fill-opacity:1;fill-rule:nonzero;stroke:none"
         d="m 904.547,3382.76 c 0,-23.71 -19.227,-42.93 -42.938,-42.93 v 0 c -23.711,0 -42.925,19.22 -42.925,42.93 v 129.1 c 0,23.71 19.214,42.93 42.925,42.93 v 0 c 23.711,0 42.938,-19.22 42.938,-42.93 v -129.1" /><path
         id="path104"
         style="fill:#5ee8ef;fill-opacity:1;fill-rule:nonzero;stroke:none"
         d="m 1056.06,3382.76 c 0,-23.71 -19.22,-42.93 -42.93,-42.93 v 0 c -23.712,0 -42.931,19.22 -42.931,42.93 v 129.1 c 0,23.71 19.219,42.93 42.931,42.93 v 0 c 23.71,0 42.93,-19.22 42.93,-42.93 v -129.1" /><path
         id="path106"
         style="fill:#737ee5;fill-opacity:1;fill-rule:nonzero;stroke:none"
         d="m 1072,3873.41 c -15.17,-0.54 -30.35,-1.08 -45.53,-1.62 -10.43,-0.37 -20.85,-0.75 -31.294,-1.12 -0.711,-0.03 -1.246,-0.07 -1.86,-0.11 2.93,34.42 5.825,68.84 8.744,103.26 0.41,1.9 0.38,3.71 -0.23,5.35 -0.96,4.51 -4.545,6.96 -8.74,7.39 -0.332,0.08 -0.656,0.11 -0.988,0.17 -0.204,0 -0.383,0.02 -0.582,0 -3.84,0.41 -7.852,-0.91 -10.489,-5.14 -34.429,-55.29 -68.883,-110.56 -103.301,-165.85 -4.183,-6.71 1.114,-18.22 9.825,-17.13 24.925,3.13 49.863,6.24 74.793,9.37 -11.254,-40.59 -22.504,-81.19 -33.735,-121.78 -3.672,-13.24 13.481,-18.65 20.797,-8.77 44.141,59.62 88.27,119.23 132.43,178.85 5.15,7 -1.81,17.43 -9.84,17.13" /><path
         id="path108"
         style="fill:#11bcce;fill-opacity:1;fill-rule:nonzero;stroke:none"
         d="m 2855.54,3245.99 c 0,-85.17 -69.05,-154.21 -154.2,-154.21 h -402.66 c -85.17,0 -154.21,69.04 -154.21,154.21 v 402.64 c 0,85.17 69.04,154.21 154.21,154.21 h 402.66 c 85.15,0 154.2,-69.04 154.2,-154.21 v -402.64" /><path
         id="path110"
         style="fill:#5ee8ef;fill-opacity:1;fill-rule:nonzero;stroke:none"
         d="m 2753.81,3303.59 c 0,-60.81 -49.3,-110.08 -110.08,-110.08 h -287.45 c -60.79,0 -110.08,49.27 -110.08,110.08 v 287.44 c 0,60.81 49.29,110.08 110.08,110.08 h 287.45 c 60.78,0 110.08,-49.27 110.08,-110.08 v -287.44" /><path
         id="path112"
         style="fill:#737ee5;fill-opacity:1;fill-rule:nonzero;stroke:none"
         d="m 2350.59,3269.03 c -15.9,0 -28.87,12.95 -28.87,28.87 v 5.28 h 84.25 c 4.39,-6.63 11.88,-11.02 20.43,-11.02 13.53,0 24.48,10.95 24.48,24.47 0,13.54 -10.95,24.49 -24.48,24.49 -8.23,0 -15.49,-4.11 -19.93,-10.34 h -84.75 v 48.31 h 145.18 l 53.06,-37.03 c 0,-0.32 -0.07,-0.61 -0.07,-0.94 0,-13.52 10.95,-24.49 24.48,-24.49 13.52,0 24.49,10.97 24.49,24.49 0,13.52 -10.97,24.49 -24.49,24.49 -2.79,0 -5.41,-0.56 -7.88,-1.39 l -60.9,42.48 h -153.87 v 39.68 h 41.08 c 4.42,-6.46 11.81,-10.7 20.21,-10.7 13.53,0 24.49,10.97 24.49,24.49 0,13.52 -10.96,24.49 -24.49,24.49 -8.4,0 -15.78,-4.24 -20.21,-10.68 h -41.08 v 94.9 h 108.1 c 4.4,-6.46 11.81,-10.71 20.21,-10.71 13.51,0 24.49,10.98 24.49,24.5 0,13.52 -10.98,24.49 -24.49,24.49 -8.4,0 -15.8,-4.24 -20.21,-10.69 h -108.1 v 0.25 c 0,15.91 12.97,28.87 28.87,28.87 h 298.83 c 15.92,0 28.87,-12.96 28.87,-28.87 v -24.39 h -119.13 l -74,-40.5 c -3.23,1.57 -6.82,2.52 -10.64,2.52 -13.52,0 -24.48,-10.97 -24.48,-24.48 0,-13.54 10.96,-24.5 24.48,-24.5 12.83,0 23.23,9.91 24.29,22.44 l 67.41,36.92 h 112.07 v -50.04 h -55.71 c -4.41,6.45 -11.82,10.68 -20.21,10.68 -13.52,0 -24.49,-10.98 -24.49,-24.5 0,-13.52 10.97,-24.49 24.49,-24.49 8.4,0 15.8,4.24 20.22,10.7 h 55.7 v -44.86 h -86.02 l -48.18,27.85 c -1.38,12.2 -11.62,21.73 -24.2,21.73 -13.54,0 -24.5,-10.97 -24.5,-24.5 0,-13.52 10.96,-24.48 24.5,-24.48 4.07,0 7.86,1.09 11.23,2.85 l 53.76,-31.05 h 93.41 v -39.68 h -15.5 c -4.41,6.44 -11.81,10.67 -20.2,10.67 -13.52,0 -24.5,-10.97 -24.5,-24.49 0,-13.52 10.98,-24.49 24.5,-24.49 8.39,0 15.8,4.24 20.21,10.7 h 15.49 v -29.43 c 0,-15.92 -12.95,-28.87 -28.87,-28.87 z m 348.4,28.87 v 298.82 c 0,27.34 -22.25,49.58 -49.57,49.58 h -298.83 c -27.34,0 -49.57,-22.24 -49.57,-49.58 V 3297.9 c 0,-27.34 22.23,-49.58 49.57,-49.58 h 298.83 c 27.32,0 49.57,22.24 49.57,49.58" /><path
         id="path114"
         style="fill:#11bcce;fill-opacity:1;fill-rule:nonzero;stroke:none"
         d="m 2520.58,3802.84 h -41.16 v 125.3 h 41.16 v -125.3" /><path
         id="path116"
         style="fill:#11bcce;fill-opacity:1;fill-rule:nonzero;stroke:none"
         d="m 2430.63,3802.84 h -41.17 v 125.3 h 41.17 v -125.3" /><path
         id="path118"
         style="fill:#11bcce;fill-opacity:1;fill-rule:nonzero;stroke:none"
         d="m 2340.67,3802.84 h -41.16 v 125.3 h 41.16 v -125.3" /><path
         id="path120"
         style="fill:#11bcce;fill-opacity:1;fill-rule:nonzero;stroke:none"
         d="m 2700.5,3802.84 h -41.17 v 125.3 h 41.17 v -125.3" /><path
         id="path122"
         style="fill:#11bcce;fill-opacity:1;fill-rule:nonzero;stroke:none"
         d="m 2610.54,3802.84 h -41.17 v 125.3 h 41.17 v -125.3" /><path
         id="path124"
         style="fill:#11bcce;fill-opacity:1;fill-rule:nonzero;stroke:none"
         d="m 2520.58,2966.47 h -41.16 v 125.31 h 41.16 v -125.31" /><path
         id="path126"
         style="fill:#11bcce;fill-opacity:1;fill-rule:nonzero;stroke:none"
         d="m 2430.63,2966.47 h -41.17 v 125.31 h 41.17 v -125.31" /><path
         id="path128"
         style="fill:#11bcce;fill-opacity:1;fill-rule:nonzero;stroke:none"
         d="m 2340.67,2966.47 h -41.16 v 125.31 h 41.16 v -125.31" /><path
         id="path130"
         style="fill:#11bcce;fill-opacity:1;fill-rule:nonzero;stroke:none"
         d="m 2700.5,2966.47 h -41.17 v 125.31 h 41.17 v -125.31" /><path
         id="path132"
         style="fill:#11bcce;fill-opacity:1;fill-rule:nonzero;stroke:none"
         d="m 2610.54,2966.47 h -41.17 v 125.31 h 41.17 v -125.31" /><path
         id="path134"
         style="fill:#11bcce;fill-opacity:1;fill-rule:nonzero;stroke:none"
         d="m 2855.54,3426.72 v 41.18 h 125.3 v -41.18 h -125.3" /><path
         id="path136"
         style="fill:#11bcce;fill-opacity:1;fill-rule:nonzero;stroke:none"
         d="m 2855.54,3516.68 v 41.17 h 125.3 v -41.17 h -125.3" /><path
         id="path138"
         style="fill:#11bcce;fill-opacity:1;fill-rule:nonzero;stroke:none"
         d="m 2855.54,3606.63 v 41.18 h 125.3 v -41.18 h -125.3" /><path
         id="path140"
         style="fill:#11bcce;fill-opacity:1;fill-rule:nonzero;stroke:none"
         d="m 2855.54,3246.81 v 41.18 h 125.3 v -41.18 h -125.3" /><path
         id="path142"
         style="fill:#11bcce;fill-opacity:1;fill-rule:nonzero;stroke:none"
         d="m 2855.54,3336.77 v 41.17 h 125.3 v -41.17 h -125.3" /><path
         id="path144"
         style="fill:#11bcce;fill-opacity:1;fill-rule:nonzero;stroke:none"
         d="m 2019.16,3426.73 v 41.17 h 125.3 v -41.17 h -125.3" /><path
         id="path146"
         style="fill:#11bcce;fill-opacity:1;fill-rule:nonzero;stroke:none"
         d="m 2019.16,3516.68 v 41.17 h 125.3 v -41.17 h -125.3" /><path
         id="path148"
         style="fill:#11bcce;fill-opacity:1;fill-rule:nonzero;stroke:none"
         d="m 2019.16,3606.64 v 41.17 h 125.3 v -41.17 h -125.3" /><path
         id="path150"
         style="fill:#11bcce;fill-opacity:1;fill-rule:nonzero;stroke:none"
         d="m 2019.16,3246.81 v 41.18 h 125.3 v -41.18 h -125.3" /><path
         id="path152"
         style="fill:#11bcce;fill-opacity:1;fill-rule:nonzero;stroke:none"
         d="m 2019.16,3336.77 v 41.17 h 125.3 v -41.17 h -125.3" /><path
         id="path154"
         style="fill:#11bcce;fill-opacity:1;fill-rule:nonzero;stroke:none"
         d="m 4442.78,3228.39 v 559.18 c 0,14.64 -10.57,26.62 -23.48,26.62 h -833.77 c -12.89,0 -23.48,-11.98 -23.48,-26.62 v -559.18 h 880.73" /><path
         id="path156"
         style="fill:#5ee8ef;fill-opacity:1;fill-rule:nonzero;stroke:none"
         d="m 4367.09,3316.32 c 0,-9.29 -8.74,-16.9 -19.44,-16.9 H 3657.2 c -10.7,0 -19.45,7.61 -19.45,16.9 v 415.48 c 0,9.3 8.75,16.91 19.45,16.91 h 690.45 c 10.7,0 19.44,-7.61 19.44,-16.91 v -415.48" /><path
         id="path158"
         style="fill:#737ee5;fill-opacity:1;fill-rule:nonzero;stroke:none"
         d="M 4539.68,3185.96 H 3465.15 v 42.43 h 1074.53 v -42.43" /><path
         id="path160"
         style="fill:#11bcce;fill-opacity:1;fill-rule:nonzero;stroke:none"
         d="m 4002.42,3185.96 h -537.27 c 0,0 19.4,-64.36 85.58,-64.36 66.15,0 837.23,0 903.41,0 66.14,0 85.54,64.36 85.54,64.36 h -537.26" /><path
         id="path162"
         style="fill:#ffffff;fill-opacity:1;fill-rule:nonzero;stroke:none"
         d="m 4010.35,3228.39 h -118.57 c 0,0 4.27,-23.28 18.87,-23.28 14.61,0 99.7,0 99.7,0 0,0 85.09,0 99.69,0 14.6,0 18.89,23.28 18.89,23.28 h -118.58" /><g
         transform="scale(10)"
         id="g164"><text
           id="text170"
           style="font-variant:normal;font-weight:bold;font-size:17.96850014px;font-family:Quicksand;-inkscape-font-specification:Quicksand-Bold;writing-mode:lr-tb;fill:#ffffff;fill-opacity:1;fill-rule:nonzero;stroke:none"
           transform="matrix(1,0,0,-1,369.156,354.785)"><tspan
             id="tspan166"
             y="0"
             x="0 12.667987 18.687433 31.355446 37.374893 43.394341 49.413788">0101110</tspan><tspan
             id="tspan168"
             y="19.049999"
             x="0.360156 6.3796034 12.399051 18.418499 31.086485 37.105934 49.773918 55.793365">11101011</tspan></text>
</g><path
         id="path172"
         style="fill:#5ee8ef;fill-opacity:1;fill-rule:nonzero;stroke:none"
         d="m 746.656,2358.45 h -24.195 c -2.633,-10.09 -6.609,-19.7 -11.824,-28.66 l 17.078,-17.08 -41.676,-41.68 -17.09,17.07 c -8.969,-5.22 -18.594,-9.19 -28.652,-11.82 v -24.2 h -58.965 v 24.2 c -10.078,2.64 -19.695,6.62 -28.637,11.82 l -17.09,-17.07 -41.695,41.68 17.09,17.08 c -5.215,8.97 -9.199,18.59 -11.824,28.66 h -24.211 v 58.94 h 24.215 c 2.636,10.09 6.613,19.7 11.82,28.65 l -17.09,17.09 41.695,41.7 17.09,-17.11 c 8.953,5.23 18.582,9.21 28.637,11.85 v 24.2 h 58.965 v -24.2 c 10.074,-2.64 19.699,-6.62 28.652,-11.84 l 17.09,17.1 41.676,-41.7 -17.078,-17.09 c 5.222,-8.96 9.199,-18.58 11.824,-28.65 h 24.195 z m 101.852,-22.11 v 103.15 h -42.34 c -4.59,17.6 -11.543,34.43 -20.695,50.13 l 29.894,29.9 -72.933,72.97 -29.899,-29.91 c -15.664,9.12 -32.512,16.08 -50.133,20.69 v 42.35 H 559.238 v -42.35 c -17.613,-4.61 -34.457,-11.57 -50.129,-20.7 l -29.898,29.92 -72.941,-72.97 29.902,-29.9 c -9.125,-15.66 -16.074,-32.49 -20.684,-50.13 h -42.375 v -103.15 h 42.367 c 4.598,-17.61 11.555,-34.46 20.692,-50.12 l -29.902,-29.9 72.941,-72.93 29.898,29.88 c 15.653,-9.12 32.493,-16.09 50.129,-20.71 v -42.33 h 103.164 v 42.33 c 17.602,4.61 34.45,11.57 50.133,20.71 l 29.899,-29.88 72.933,72.93 -29.894,29.88 c 9.129,15.67 16.082,32.51 20.699,50.14 h 42.336" /><path
         id="path174"
         style="fill:#737ee5;fill-opacity:1;fill-rule:nonzero;stroke:none"
         d="m 1229.38,2459.57 h -22.17 c -2.42,-9.24 -6.06,-18.06 -10.86,-26.29 l 15.67,-15.65 -38.2,-38.21 -15.68,15.64 c -8.22,-4.77 -17.05,-8.42 -26.26,-10.82 v -22.19 h -54.05 v 22.19 c -9.25,2.42 -18.06,6.06 -26.26,10.82 l -15.66,-15.64 -38.234,38.21 15.664,15.65 c -4.79,8.24 -8.43,17.05 -10.82,26.29 h -22.207 v 54.03 h 22.207 c 2.41,9.24 6.05,18.07 10.82,26.27 l -15.664,15.68 38.234,38.21 15.66,-15.68 c 8.2,4.8 17.04,8.44 26.26,10.86 v 22.18 h 54.05 v -22.18 c 9.23,-2.42 18.05,-6.06 26.26,-10.85 l 15.68,15.67 38.2,-38.21 -15.67,-15.68 c 4.8,-8.22 8.44,-17.05 10.85,-26.27 h 22.18 z m 93.37,-20.27 v 94.57 h -38.82 c -4.19,16.13 -10.57,31.55 -18.96,45.94 l 27.39,27.43 -66.85,66.88 -27.41,-27.42 c -14.36,8.37 -29.79,14.75 -45.96,18.96 v 38.84 h -94.58 v -38.84 c -16.15,-4.21 -31.57,-10.59 -45.95,-18.97 l -27.411,27.43 -66.875,-66.88 27.418,-27.43 c -8.359,-14.34 -14.73,-29.78 -18.961,-45.94 h -38.847 v -94.57 h 38.828 c 4.226,-16.15 10.605,-31.59 18.98,-45.95 l -27.418,-27.41 66.875,-66.87 27.411,27.39 c 14.36,-8.34 29.8,-14.72 45.95,-18.96 v -38.83 h 94.58 v 38.83 c 16.15,4.21 31.58,10.59 45.96,18.96 l 27.41,-27.39 66.85,66.87 -27.39,27.4 c 8.37,14.35 14.74,29.8 18.98,45.96 h 38.8" /><path
         id="path176"
         style="fill:#11bcce;fill-opacity:1;fill-rule:nonzero;stroke:none"
         d="m 1090.22,1920.39 h -24.19 c -2.64,-10.07 -6.61,-19.69 -11.84,-28.65 l 17.09,-17.08 -41.67,-41.68 -17.1,17.07 c -8.96,-5.22 -18.584,-9.19 -28.647,-11.82 v -24.19 h -58.961 v 24.19 c -10.082,2.64 -19.699,6.61 -28.636,11.82 l -17.094,-17.07 -41.692,41.68 17.09,17.08 c -5.215,8.97 -9.195,18.59 -11.828,28.65 h -24.207 v 58.96 h 24.215 c 2.637,10.07 6.609,19.7 11.82,28.65 l -17.09,17.1 41.692,41.7 17.094,-17.12 c 8.945,5.22 18.578,9.22 28.636,11.85 v 24.19 h 58.961 v -24.19 c 10.078,-2.63 19.707,-6.63 28.647,-11.84 l 17.1,17.11 41.67,-41.7 -17.09,-17.1 c 5.23,-8.96 9.21,-18.59 11.84,-28.65 h 24.19 z m 101.86,-22.09 v 103.16 h -42.34 c -4.59,17.58 -11.56,34.42 -20.7,50.12 l 29.89,29.89 -72.93,72.96 -29.9,-29.9 c -15.67,9.11 -32.51,16.08 -50.13,20.69 v 42.36 H 902.805 v -42.36 c -17.61,-4.61 -34.453,-11.58 -50.125,-20.7 l -29.899,29.91 -72.953,-72.96 29.914,-29.89 c -9.129,-15.65 -16.082,-32.5 -20.683,-50.12 H 716.684 V 1898.3 h 42.359 c 4.602,-17.61 11.562,-34.46 20.699,-50.14 l -29.914,-29.9 72.953,-72.92 29.899,29.87 c 15.648,-9.1 32.488,-16.07 50.125,-20.69 v -42.33 h 103.165 v 42.33 c 17.6,4.61 34.45,11.57 50.13,20.69 l 29.9,-29.87 72.93,72.92 -29.89,29.89 c 9.12,15.68 16.08,32.52 20.7,50.15 h 42.34" /><path
         id="path178"
         style="fill:#11bcce;fill-opacity:1;fill-rule:nonzero;stroke:none"
         d="m 4504.15,1811.56 c 0,-38.04 -31.13,-69.17 -69.17,-69.17 h -802.3 c -38.04,0 -69.16,31.13 -69.16,69.17 v 206.77 c 0,38.05 31.12,69.15 69.16,69.15 h 802.3 c 38.04,0 69.17,-31.1 69.17,-69.15 v -206.77" /><path
         id="path180"
         style="fill:#5ee8ef;fill-opacity:1;fill-rule:nonzero;stroke:none"
         d="m 4081.17,1902.18 c 0,-27.32 -22.17,-49.49 -49.47,-49.49 -27.32,0 -49.49,22.17 -49.49,49.49 0,27.33 22.17,49.45 49.49,49.45 27.3,0 49.47,-22.12 49.47,-49.45" /><path
         id="path182"
         style="fill:#5ee8ef;fill-opacity:1;fill-rule:nonzero;stroke:none"
         d="m 4241.02,1902.18 c 0,-27.32 -22.12,-49.49 -49.48,-49.49 -27.31,0 -49.45,22.17 -49.45,49.49 0,27.33 22.14,49.45 49.45,49.45 27.36,0 49.48,-22.12 49.48,-49.45" /><path
         id="path184"
         style="fill:#5ee8ef;fill-opacity:1;fill-rule:nonzero;stroke:none"
         d="m 4400.9,1902.18 c 0,-27.32 -22.16,-49.49 -49.47,-49.49 -27.35,0 -49.49,22.17 -49.49,49.49 0,27.33 22.14,49.45 49.49,49.45 27.31,0 49.47,-22.12 49.47,-49.45" /><path
         id="path186"
         style="fill:#737ee5;fill-opacity:1;fill-rule:nonzero;stroke:none"
         d="m 3727.71,2369.59 c 53.34,81.15 165.56,79.73 217.59,-1.86 15.77,-24.82 55.34,-1.87 39.46,23.07 -70.95,111.4 -224.12,112.07 -296.5,1.9 -16.27,-24.71 23.34,-47.57 39.45,-23.11 v 0" /><path
         id="path188"
         style="fill:#737ee5;fill-opacity:1;fill-rule:nonzero;stroke:none"
         d="m 3660.64,2424.26 c 84.5,131.33 269.26,129.4 351.69,-2.91 15.57,-24.96 55.15,-2.01 39.52,23.07 -100.93,161.97 -327.59,163.25 -430.7,2.91 -15.98,-24.84 23.64,-47.8 39.49,-23.07 v 0" /><path
         id="path190"
         style="fill:#737ee5;fill-opacity:1;fill-rule:nonzero;stroke:none"
         d="m 3599.69,2480.59 c 111.79,176.99 364.55,174.51 473.63,-3.83 15.36,-25.08 54.92,-2.13 39.51,23.07 -127.34,208.11 -422.5,209.85 -552.62,3.84 -15.81,-25.04 23.77,-47.98 39.48,-23.08 v 0" /><path
         id="path192"
         style="fill:#11bcce;fill-opacity:1;fill-rule:nonzero;stroke:none"
         d="m 3746.18,2284.52 c 0,47.8 38.74,86.57 86.59,86.57 47.79,0 86.56,-38.77 86.56,-86.57 0,-47.85 -38.77,-86.59 -86.56,-86.59 -47.85,0 -86.59,38.74 -86.59,86.59" /><path
         id="path194"
         style="fill:#11bcce;fill-opacity:1;fill-rule:nonzero;stroke:none"
         d="m 3816.84,2353.42 c 0,8.79 7.12,15.9 15.93,15.9 v 0 c 8.76,0 15.87,-7.11 15.87,-15.9 v -453.77 c 0,-8.76 -7.11,-15.88 -15.87,-15.88 v 0 c -8.81,0 -15.93,7.12 -15.93,15.88 v 453.77" /><path
         id="path196"
         style="fill:#5ee8ef;fill-opacity:1;fill-rule:nonzero;stroke:none"
         d="m 2871.39,2157.63 c 10.48,28.57 16.42,59.38 16.42,91.6 0,147.52 -119.5,267.12 -267.08,267.12 -110.05,0 -204.35,-66.5 -245.32,-161.45 -21.55,7.64 -44.57,12.01 -68.7,12.01 -63.89,0 -197.25,-56.89 -204.89,-186.55 -179.03,0 -265.37,-98.51 -265.37,-187.08 0,-107.13 97.36,-194.76 216.4,-194.76 h 703.17 c 118.98,0 216.37,87.63 216.37,194.76 0,69 -40.45,129.74 -101,164.35" /><path
         id="path198"
         style="fill:#5ee8ef;fill-opacity:1;fill-rule:nonzero;stroke:none"
         d="m 1622.23,2176.71 c 2.98,0 5.79,0.59 8.48,1.47 l 117.34,-112.14 H 3054.8 c 4.35,-9.55 13.92,-16.22 25.09,-16.22 15.25,0 27.61,12.36 27.61,27.6 0,15.25 -12.36,27.61 -27.61,27.61 -11.43,0 -21.24,-6.96 -25.43,-16.87 H 1756.93 l -109.63,104.76 c 1.59,3.48 2.53,7.31 2.53,11.4 0,15.24 -12.36,27.59 -27.6,27.59 -15.25,0 -27.61,-12.35 -27.61,-27.59 0,-15.25 12.36,-27.61 27.61,-27.61" /><path
         id="path200"
         style="fill:#5ee8ef;fill-opacity:1;fill-rule:nonzero;stroke:none"
         d="m 1832.13,2193.25 c 11.31,0 21,6.81 25.26,16.54 h 1220.83 c 4.27,-9.73 13.96,-16.54 25.27,-16.54 15.24,0 27.59,12.37 27.59,27.61 0,15.24 -12.35,27.6 -27.59,27.6 -11.31,0 -21,-6.81 -25.27,-16.55 H 1857.39 c -4.26,9.74 -13.95,16.55 -25.26,16.55 -15.24,0 -27.6,-12.36 -27.6,-27.6 0,-15.24 12.36,-27.61 27.6,-27.61" /><path
         id="path202"
         style="fill:#5ee8ef;fill-opacity:1;fill-rule:nonzero;stroke:none"
         d="m 1892.13,2375.32 c 4.55,0 8.78,1.21 12.56,3.16 l 103.61,-80 h 913.47 c 4.1,-10.12 13.97,-17.28 25.56,-17.28 15.25,0 27.61,12.35 27.61,27.61 0,15.24 -12.36,27.6 -27.61,27.6 -10.99,0 -20.43,-6.5 -24.86,-15.81 h -906.63 l -97.2,75.05 c 0.64,2.33 1.09,4.74 1.09,7.27 0,15.24 -12.36,27.61 -27.6,27.61 -15.25,0 -27.6,-12.37 -27.6,-27.61 0,-15.24 12.35,-27.6 27.6,-27.6" /><path
         id="path204"
         style="fill:#5ee8ef;fill-opacity:1;fill-rule:nonzero;stroke:none"
         d="m 2093.92,2375.32 c 11.3,0 20.99,6.81 25.26,16.55 h 888.25 c 4.27,-9.74 13.96,-16.55 25.27,-16.55 15.24,0 27.59,12.36 27.59,27.6 0,15.24 -12.35,27.61 -27.59,27.61 -11.31,0 -21,-6.82 -25.27,-16.55 h -888.25 c -4.27,9.73 -13.96,16.55 -25.26,16.55 -15.24,0 -27.6,-12.37 -27.6,-27.61 0,-15.24 12.36,-27.6 27.6,-27.6" /><path
         id="path206"
         style="fill:#5ee8ef;fill-opacity:1;fill-rule:nonzero;stroke:none"
         d="m 2204.8,2435.93 c 11.31,0 21,6.8 25.26,16.53 h 661.78 c 4.26,-9.73 13.95,-16.53 25.26,-16.53 15.24,0 27.6,12.35 27.6,27.61 0,15.23 -12.36,27.59 -27.6,27.59 -11.31,0 -21,-6.81 -25.26,-16.54 h -661.78 c -4.26,9.73 -13.95,16.54 -25.26,16.54 -15.24,0 -27.6,-12.36 -27.6,-27.59 0,-15.26 12.36,-27.61 27.6,-27.61" /><path
         id="path208"
         style="fill:#5ee8ef;fill-opacity:1;fill-rule:nonzero;stroke:none"
         d="m 3168.83,2023.12 c -10.52,0 -19.55,-5.94 -24.21,-14.59 H 1649.11 l -80.41,-48.67 c -4.33,2.84 -9.49,4.51 -15.06,4.51 -15.24,0 -27.6,-12.36 -27.6,-27.6 0,-15.25 12.36,-27.6 27.6,-27.6 15.25,0 27.61,12.35 27.61,27.6 0,1.55 -0.21,3.05 -0.46,4.56 l 74.49,45.07 h 1487.61 c 3.78,-10.75 13.91,-18.49 25.94,-18.49 15.24,0 27.6,12.36 27.6,27.61 0,15.24 -12.36,27.6 -27.6,27.6" /><path
         id="path210"
         style="fill:#5ee8ef;fill-opacity:1;fill-rule:nonzero;stroke:none"
         d="m 3103.49,1923.74 c -11.31,0 -21,-6.82 -25.27,-16.54 H 1728.24 c -4.28,9.72 -13.96,16.54 -25.27,16.54 -15.24,0 -27.6,-12.36 -27.6,-27.61 0,-15.24 12.36,-27.59 27.6,-27.59 11.31,0 20.99,6.8 25.27,16.54 h 1349.98 c 4.27,-9.74 13.96,-16.54 25.27,-16.54 15.24,0 27.59,12.35 27.59,27.59 0,15.25 -12.35,27.61 -27.59,27.61" /><path
         id="path212"
         style="fill:#11bcce;fill-opacity:1;fill-rule:nonzero;stroke:none"
         d="m 1161.55,823.539 c -1.4,0.762 -3.01,1.25 -4.69,1.492 l -66.86,69.02 v 197.399 c 11.17,4.49 19.07,15.39 19.07,28.16 0,16.78 -13.61,30.38 -30.39,30.38 -16.78,0 -30.38,-13.6 -30.38,-30.38 0,-13.75 9.18,-25.23 21.7,-28.99 V 885.949 l 70.58,-72.84 c -28.41,-56.218 -88.6,-78.359 -147.174,-48.468 -0.386,0.199 -0.883,0.281 -1.304,0.449 v 257.85 c 11.838,4.15 20.388,15.31 20.388,28.57 0,16.78 -13.607,30.38 -30.388,30.38 -16.786,0 -30.387,-13.6 -30.387,-30.38 0,-13.26 8.543,-24.42 20.387,-28.57 V 756.309 C 946.477,728.23 912.691,724.742 881.609,745.992 v 99.199 l -70.449,49.68 c 1.438,3.527 2.262,7.379 2.262,11.418 0,16.781 -13.602,30.383 -30.387,30.383 -16.781,0 -30.383,-13.602 -30.383,-30.383 0,-16.789 13.602,-30.391 30.383,-30.391 5.371,0 10.34,1.512 14.719,3.954 l 63.855,-45.043 V 745.73 c -1.421,-1.511 -2.461,-3.32 -2.832,-5.332 -14.851,-80.039 -103.64,-108.718 -161.406,-48.238 -0.812,0.852 -1.863,1.36 -2.867,1.922 v 258.637 l -70.68,81.731 c 3.305,4.87 5.242,10.74 5.242,17.06 0,16.78 -13.601,30.38 -30.382,30.38 -16.786,0 -30.387,-13.6 -30.387,-30.38 0,-16.78 13.601,-30.39 30.387,-30.39 3.132,0 6.089,0.62 8.937,1.5 l 66.883,-77.339 V 688.09 c -55.332,-52.32 -133.84,-11.192 -127.18,63.992 0.625,7.039 -6.504,13.449 -13.254,13.238 -64.968,-2 -90.484,69.399 -60.347,118.262 0.558,0.91 0.879,2 1.179,3.066 l 70.508,22.5 c 5.57,-6.437 13.699,-10.597 22.887,-10.597 16.781,0 30.387,13.609 30.387,30.398 0,16.77 -13.606,30.383 -30.387,30.383 -16.781,0 -30.387,-13.613 -30.387,-30.383 0,-0.398 0.102,-0.769 0.117,-1.16 l -72.086,-23 c -19.968,18.5 -29.773,36.941 -32.25,67.359 2.774,39.852 22.93,66.732 58.829,83.122 5.253,2.41 7.648,9.72 6.093,14.96 -18.308,61.58 19.766,119.12 86.614,115.81 6.003,-0.3 11.043,4.29 12.769,9.72 16.067,50.77 63.777,74.13 113.297,53.97 v -149.1 L 832.637,987.969 c -1.082,-3.129 -1.797,-6.438 -1.797,-9.93 0,-16.789 13.601,-30.391 30.387,-30.391 16.781,0 30.382,13.602 30.382,30.391 0,16.77 -13.601,30.381 -30.382,30.381 -5.95,0 -11.454,-1.78 -16.133,-4.73 l -113.801,105.68 v 141.45 c 0.66,0.7 1.398,1.25 1.937,2.15 29.446,48.73 87.051,56.82 128.813,16.55 2.668,-2.58 6.125,-3.82 9.566,-3.77 v -87.19 c -11.839,-4.15 -20.382,-15.31 -20.382,-28.56 0,-16.79 13.601,-30.39 30.382,-30.39 16.786,0 30.387,13.6 30.387,30.39 0,13.25 -8.543,24.41 -20.387,28.56 v 100.1 c 39.481,29.41 89.176,21.36 117.581,-22.41 0.24,-0.37 0.54,-0.68 0.81,-1.04 v -30.97 c -11.84,-4.15 -20.387,-15.31 -20.387,-28.57 0,-16.78 13.607,-30.39 30.387,-30.39 16.78,0 30.39,13.61 30.39,30.39 0,13.26 -8.55,24.42 -20.39,28.57 v 28.8 c 47.01,28.21 99.6,8.74 115.53,-44.33 0.44,-1.47 1.19,-2.66 1.97,-3.8 v -156.34 c -11.84,-4.15 -20.39,-15.31 -20.39,-28.56 0,-16.79 13.61,-30.389 30.39,-30.389 16.78,0 30.39,13.599 30.39,30.389 0,13.25 -8.55,24.41 -20.39,28.56 v 151.64 c 58.15,7.6 96.45,-38.75 90.96,-95.39 -0.41,-4.29 2.76,-9.54 6.56,-11.44 14.76,-5.72 26.43,-15.65 35.02,-29.79 17.43,-25.25 5.99,-35.07 1.81,-55.25 l -66.86,-73.699 c -3.33,1.257 -6.9,2.031 -10.67,2.031 -16.79,0 -30.39,-13.602 -30.39,-30.383 0,-16.789 13.6,-30.391 30.39,-30.391 16.78,0 30.38,13.602 30.38,30.391 0,5.68 -1.66,10.941 -4.38,15.492 l 55.71,61.399 c 14.17,-20.809 21.35,-40.45 23.25,-66.871 6.47,-90.27 -99.05,-129.399 -167.73,-92.77 z m 192.46,114 c -3.41,15.723 -26.75,56.371 -21.41,71.151 9.7,26.87 -2.27,57.52 -17.31,79.3 -6.54,9.47 -15.74,15.55 -24.84,22.22 -6.2,4.56 -6.28,34.22 -8.16,42.62 -11.71,52.44 -66.07,77.74 -115.11,73.75 -23.65,58.5 -86.51,82.58 -142.83,53.7 -39.284,49.11 -103.967,56.01 -153.01,16.18 -50.266,40.08 -116.555,31.51 -154.582,-20.66 -34.129,12.27 -72.742,12.62 -102.805,-11.49 -15.816,-12.69 -30.957,-28.17 -37.273,-48.15 -1.172,-3.68 -50.887,-15.3 -60.41,-20.57 -36.524,-20.26 -60.403,-74.53 -48.399,-114.93 2.781,-9.35 -30.84,-30.43 -36.453,-38.39 -14.594,-20.74 -21.469,-40.95 -23.773,-65.559 -0.372,-1.359 -0.575,-2.852 -0.438,-4.563 -0.105,-1.589 0.09,-2.976 0.41,-4.277 2.219,-23.32 7.254,-46.641 23.196,-65.062 20.527,-23.719 0.25,-46.957 2.742,-77.821 3.554,-44.117 43.996,-79.988 86.875,-85.386 1.14,-88.473 100.488,-132.352 167.558,-75 66.055,-57.461 164.942,-31.25 191.875,51.25 18.723,-10.313 40.918,-16.192 61.77,-9.473 27.769,8.941 41.375,31.992 69.637,22.012 59.35,-20.961 121.07,15.168 149.57,66.211 54.03,-23.633 109.69,-15.161 155.09,25.539 22.29,19.988 33.53,49.679 38.53,78.328 2.16,12.34 2.23,26.859 -0.45,39.07" /><path
         id="path214"
         style="fill:#5ee8ef;fill-opacity:1;fill-rule:nonzero;stroke:none"
         d="m 4206.22,734.801 -503.7,245.828 503.7,245.841 14.67,-30.04 -442.1,-215.801 442.1,-215.758 -14.67,-30.07" /><path
         id="path216"
         style="fill:#11bcce;fill-opacity:1;fill-rule:nonzero;stroke:none"
         d="m 4340.8,1211.46 c 0,-70.3 -56.97,-127.27 -127.25,-127.27 -70.27,0 -127.24,56.97 -127.24,127.27 0,70.27 56.97,127.24 127.24,127.24 70.28,0 127.25,-56.97 127.25,-127.24" /><path
         id="path218"
         style="fill:#11bcce;fill-opacity:1;fill-rule:nonzero;stroke:none"
         d="m 4340.8,749.84 c 0,-70.281 -56.97,-127.25 -127.25,-127.25 -70.27,0 -127.24,56.969 -127.24,127.25 0,70.289 56.97,127.262 127.24,127.262 70.28,0 127.25,-56.973 127.25,-127.262" /><path
         id="path220"
         style="fill:#737ee5;fill-opacity:1;fill-rule:nonzero;stroke:none"
         d="m 3837.68,980.641 c 0,-53.602 -43.44,-97.039 -97.04,-97.039 -53.59,0 -97.03,43.437 -97.03,97.039 0,53.599 43.44,97.039 97.03,97.039 53.6,0 97.04,-43.44 97.04,-97.039" /><path
         id="path222"
         style="fill:#5ee8ef;fill-opacity:1;fill-rule:nonzero;stroke:none"
         d="m 2561.7,1369.32 h -317.06 v 21.32 h 317.06 v -21.32" /><path
         id="path224"
         style="fill:#5ee8ef;fill-opacity:1;fill-rule:nonzero;stroke:none"
         d="m 2561.7,1284.05 h -317.06 v 21.31 h 317.06 v -21.31" /><path
         id="path226"
         style="fill:#5ee8ef;fill-opacity:1;fill-rule:nonzero;stroke:none"
         d="m 2561.7,1070.88 h -317.06 v 21.32 h 317.06 v -21.32" /><path
         id="path228"
         style="fill:#5ee8ef;fill-opacity:1;fill-rule:nonzero;stroke:none"
         d="m 2561.7,985.609 h -317.06 v 21.301 h 317.06 v -21.301" /><path
         id="path230"
         style="fill:#5ee8ef;fill-opacity:1;fill-rule:nonzero;stroke:none"
         d="m 2561.7,900.32 h -317.06 v 21.328 H 2561.7 V 900.32" /><path
         id="path232"
         style="fill:#5ee8ef;fill-opacity:1;fill-rule:nonzero;stroke:none"
         d="m 2561.7,665.84 h -317.06 v 21.308 H 2561.7 V 665.84" /><path
         id="path234"
         style="fill:#5ee8ef;fill-opacity:1;fill-rule:nonzero;stroke:none"
         d="m 2561.7,580.559 h -317.06 v 21.32 h 317.06 v -21.32" /><path
         id="path236"
         style="fill:#11bcce;fill-opacity:1;fill-rule:nonzero;stroke:none"
         d="m 2212.19,1367.94 c 5,-77.98 43.28,-127.72 103.62,-174.29 75.56,-58.31 201.9,-93.16 209.04,-204.65 6.61,-102.629 -140.57,-156.629 -209.04,-204.629 -61.55,-43.18 -98.77,-98.789 -103.62,-174.301 -2.86,-44.629 66.44,-44.351 69.28,0 6.94,107.969 132.34,150.86 209.07,204.672 61.53,43.137 98.76,98.758 103.6,174.258 13.09,203.8 -301.08,198.46 -312.67,378.94 -2.84,44.33 -72.14,44.63 -69.28,0 v 0" /><path
         id="path238"
         style="fill:#737ee5;fill-opacity:1;fill-rule:nonzero;stroke:none"
         d="m 2524.85,1367.94 c -6.92,-107.96 -132.33,-150.85 -209.04,-204.66 -61.55,-43.15 -98.77,-98.78 -103.62,-174.28 -13.09,-203.801 301.08,-198.449 312.66,-378.93 2.86,-44.351 72.15,-44.629 69.29,0 -4.98,77.969 -43.27,127.719 -103.6,174.301 -75.58,58.301 -201.9,93.141 -209.07,204.629 -6.59,102.63 140.56,156.63 209.07,204.65 61.53,43.17 98.76,98.78 103.6,174.29 2.86,44.63 -66.43,44.33 -69.29,0 v 0" /></g></g></svg>