<?xml version="1.0" encoding="UTF-8"?>
<svg version="1.1" xmlns="http://www.w3.org/2000/svg" xmlns:xlink="http://www.w3.org/1999/xlink" x="0" y="0" width="3062" height="2260" viewBox="0, 0, 3062, 2260">
  <g id="Layer_1">
    <path d="M0.06,0.79 L3061.42,0.79 L3061.42,2260 L0.06,2260 z" fill="#FFFFFE"/>
    <path d="M1301.87,641.153 C1301.87,622.099 1246.16,598.738 1176.07,598.738 C1105.99,598.738 1026.92,598.738 1026.92,598.738 L944.439,485.527 L990.983,485.527 C1009.84,485.527 1025.13,470.24 1025.13,451.384 C1025.13,432.527 1009.84,417.241 990.983,417.241 L894.686,417.241 L777.139,255.905 L669.255,255.905 L821.631,596.714 C821.631,596.714 677.398,596.714 628.545,596.714 C579.692,596.714 512.228,608.346 512.228,608.346 L402.89,476.908 L343.568,478.071 L411.213,632.852 L408.846,638.179 L379.4,640.349 L334.049,642.869 L339.639,643.281 L334.049,643.693 L379.4,646.213 L408.846,648.384 L411.213,653.71 L343.568,808.491 L402.89,809.654 L512.228,678.216 C512.228,678.216 579.692,689.848 628.545,689.848 C677.398,689.848 821.631,689.848 821.631,689.848 L669.255,1030.66 L777.139,1030.66 L894.686,869.322 L990.983,869.322 C1009.84,869.322 1025.13,854.035 1025.13,835.179 C1025.13,816.322 1009.84,801.035 990.983,801.035 L944.439,801.035 L1026.92,687.824 C1026.92,687.824 1105.99,687.824 1176.07,687.824 C1246.16,687.824 1301.87,664.463 1301.87,645.41 C1301.87,644.718 1301.87,641.844 1301.87,641.153" fill="#0A0B09"/>
    <path d="M2609.36,496.236 L2609.36,485.055 L2086.79,397.511 L2076.65,220.253 L2067.08,214.709 L2067.02,214.709 L2057.45,220.253 L2044.64,397.957 L1524.73,485.055 L1524.73,496.236 L1787.04,471.56 L1787.04,497.809 C1769.08,501.837 1755.66,517.865 1755.66,537.039 C1755.66,559.249 1773.67,577.254 1795.88,577.254 C1818.09,577.254 1836.09,559.249 1836.09,537.039 C1836.09,518.898 1824.08,503.569 1807.57,498.558 L1807.57,469.629 L1995.31,451.967 C1993.33,458.689 1992.25,465.798 1992.25,473.162 C1992.25,510.904 2020.22,542.098 2056.56,547.188 L2056.56,565.394 L2056.16,565.394 C2054.35,565.394 2052.89,566.858 2052.89,568.664 C2052.89,570.469 2054.35,571.933 2056.16,571.933 L2060.36,571.933 L2060.36,583.844 L2055.93,583.844 C2051.1,583.844 2047.17,587.765 2047.17,592.602 L2047.17,614.556 C2047.17,619.393 2051.1,623.314 2055.93,623.314 L2058.61,623.314 C2063.26,623.314 2067.02,619.551 2067.02,614.91 L2067.02,586.413 L2071.23,586.413 L2071.23,614.91 C2071.23,619.551 2074.99,623.314 2079.63,623.314 L2082.31,623.314 C2087.15,623.314 2091.07,619.393 2091.07,614.556 L2091.07,592.602 C2091.07,587.765 2087.15,583.844 2082.31,583.844 L2073.67,583.844 L2073.67,571.933 L2077.88,571.933 C2079.68,571.933 2081.15,570.469 2081.15,568.664 C2081.15,566.858 2079.68,565.394 2077.88,565.394 L2077.48,565.394 L2077.48,548.155 L2077.54,548.155 L2077.54,547.188 C2113.88,542.098 2141.85,510.904 2141.85,473.162 C2141.85,465.798 2140.76,458.689 2138.78,451.967 L2326.52,469.629 L2326.52,498.558 C2310.02,503.569 2298,518.898 2298,537.039 C2298,559.249 2316.01,577.254 2338.22,577.254 C2360.43,577.254 2378.43,559.249 2378.43,537.039 C2378.43,517.865 2365.01,501.837 2347.05,497.809 L2347.05,471.56 L2609.36,496.236" fill="#0A0B09"/>
    <path d="M2265.32,975.841 C2265.32,978.46 2263.19,980.583 2260.57,980.583 L2249.7,980.583 C2247.08,980.583 2244.95,978.46 2244.95,975.841 L2244.95,964.964 C2244.95,962.345 2247.08,960.222 2249.7,960.222 L2260.57,960.222 C2263.19,960.222 2265.32,962.345 2265.32,964.964 L2265.32,975.841 z M2207.6,975.841 C2207.6,978.46 2205.48,980.583 2202.86,980.583 L2191.98,980.583 C2189.36,980.583 2187.24,978.46 2187.24,975.841 L2187.24,964.964 C2187.24,962.345 2189.36,960.222 2191.98,960.222 L2202.86,960.222 C2205.48,960.222 2207.6,962.345 2207.6,964.964 L2207.6,975.841 z M2149.89,975.841 C2149.89,978.46 2147.77,980.583 2145.15,980.583 L2134.27,980.583 C2131.65,980.583 2129.53,978.46 2129.53,975.841 L2129.53,964.964 C2129.53,962.345 2131.65,960.222 2134.27,960.222 L2145.15,960.222 C2147.77,960.222 2149.89,962.345 2149.89,964.964 L2149.89,975.841 z M2108.06,1103.97 C2112.44,1103.97 2116,1107.52 2116,1111.91 C2116,1116.3 2112.44,1119.86 2108.06,1119.86 C2103.67,1119.86 2100.11,1116.3 2100.11,1111.91 C2100.11,1107.52 2103.67,1103.97 2108.06,1103.97 z M2092.18,975.841 C2092.18,978.46 2090.05,980.583 2087.43,980.583 L2076.56,980.583 C2073.94,980.583 2071.81,978.46 2071.81,975.841 L2071.81,964.964 C2071.81,962.345 2073.94,960.222 2076.56,960.222 L2087.43,960.222 C2090.05,960.222 2092.18,962.345 2092.18,964.964 L2092.18,975.841 z M2065.86,1103.97 C2070.25,1103.97 2073.81,1107.52 2073.81,1111.91 C2073.81,1116.3 2070.25,1119.86 2065.86,1119.86 C2061.47,1119.86 2057.91,1116.3 2057.91,1111.91 C2057.91,1107.52 2061.47,1103.97 2065.86,1103.97 z M2034.46,975.841 C2034.46,978.46 2032.34,980.583 2029.72,980.583 L2018.84,980.583 C2016.22,980.583 2014.1,978.46 2014.1,975.841 L2014.1,964.964 C2014.1,962.345 2016.22,960.222 2018.84,960.222 L2029.72,960.222 C2032.34,960.222 2034.46,962.345 2034.46,964.964 L2034.46,975.841 z M1976.75,975.841 C1976.75,978.46 1974.63,980.583 1972.01,980.583 L1961.13,980.583 C1958.51,980.583 1956.39,978.46 1956.39,975.841 L1956.39,964.964 C1956.39,962.345 1958.51,960.222 1961.13,960.222 L1972.01,960.222 C1974.63,960.222 1976.75,962.345 1976.75,964.964 L1976.75,975.841 z M1919.04,975.841 C1919.04,978.46 1916.91,980.583 1914.29,980.583 L1903.42,980.583 C1900.8,980.583 1898.67,978.46 1898.67,975.841 L1898.67,964.964 C1898.67,962.345 1900.8,960.222 1903.42,960.222 L1914.29,960.222 C1916.91,960.222 1919.04,962.345 1919.04,964.964 L1919.04,975.841 z M1861.32,975.841 C1861.32,978.46 1859.2,980.583 1856.58,980.583 L1845.7,980.583 C1843.08,980.583 1840.96,978.46 1840.96,975.841 L1840.96,964.964 C1840.96,962.345 1843.08,960.222 1845.7,960.222 L1856.58,960.222 C1859.2,960.222 1861.32,962.345 1861.32,964.964 L1861.32,975.841 z M1806.24,975.841 C1806.24,978.46 1804.12,980.583 1801.5,980.583 L1790.63,980.583 C1788.01,980.583 1785.88,978.46 1785.88,975.841 L1785.88,964.964 C1785.88,962.345 1788.01,960.222 1790.63,960.222 L1801.5,960.222 C1804.12,960.222 1806.24,962.345 1806.24,964.964 L1806.24,975.841 z M1754.08,1103.97 C1758.47,1103.97 1762.03,1107.52 1762.03,1111.91 C1762.03,1116.3 1758.47,1119.86 1754.08,1119.86 C1749.7,1119.86 1746.14,1116.3 1746.14,1111.91 C1746.14,1107.52 1749.7,1103.97 1754.08,1103.97 z M2716,816.083 L2664.64,811.012 C2633.73,807.96 2602.8,816.587 2577.94,835.193 L2465.56,919.28 C2465.56,919.28 2454.95,932.093 2405.66,932.093 C2356.38,932.093 1790.58,932.093 1666.42,932.093 C1625.02,932.093 1601.43,940.493 1597.46,953.542 C1597.46,953.542 1524.73,974.054 1524.73,996.429 C1524.73,1017.48 1547.86,1050.08 1685.67,1053.87 L1685.67,1057.09 C1685.67,1062.72 1690.24,1067.29 1695.87,1067.29 L1739.49,1067.29 L1731.38,1076.69 C1730.39,1077.84 1730.17,1079.27 1730.53,1080.53 C1730.64,1080.89 1736.46,1092.1 1740.35,1099.58 C1737.41,1102.85 1735.6,1107.17 1735.6,1111.91 C1735.6,1122.12 1743.88,1130.39 1754.08,1130.39 C1764.29,1130.39 1772.57,1122.12 1772.57,1111.91 C1772.57,1101.71 1764.29,1093.43 1754.08,1093.43 C1753.1,1093.43 1752.15,1093.53 1751.2,1093.68 L1742.38,1083.64 C1740.93,1081.98 1741.15,1079.44 1742.88,1078.06 L1756.4,1067.29 L1764.79,1067.29 C1770.42,1067.29 1774.99,1062.72 1774.99,1057.09 L1774.99,1054.69 C1800.42,1055.02 1828.28,1055.5 1857.64,1056.1 L1857.64,1070.63 C1857.64,1078.52 1864.04,1084.92 1871.93,1084.92 L2035,1084.92 C2038.11,1084.92 2041.14,1084.62 2044.09,1084.07 C2046.14,1088.07 2049.55,1094.64 2052.12,1099.58 C2049.18,1102.85 2047.38,1107.17 2047.38,1111.91 C2047.38,1122.12 2055.65,1130.39 2065.86,1130.39 C2076.07,1130.39 2084.34,1122.12 2084.34,1111.91 C2084.34,1101.71 2076.07,1093.43 2065.86,1093.43 C2064.88,1093.43 2063.92,1093.53 2062.98,1093.68 L2054.16,1083.64 C2053.6,1083 2053.29,1082.22 2053.22,1081.44 C2055.61,1080.49 2057.91,1079.36 2060.09,1078.06 L2084.59,1078.06 C2084.31,1078.88 2084.28,1079.74 2084.5,1080.53 C2084.61,1080.89 2090.43,1092.1 2094.32,1099.58 C2091.38,1102.85 2089.57,1107.17 2089.57,1111.91 C2089.57,1122.12 2097.85,1130.39 2108.06,1130.39 C2118.26,1130.39 2126.54,1122.12 2126.54,1111.91 C2126.54,1101.71 2118.26,1093.43 2108.06,1093.43 C2107.07,1093.43 2106.12,1093.53 2105.18,1093.68 L2096.35,1083.64 C2094.9,1081.98 2095.12,1079.44 2096.85,1078.06 L2153.27,1078.06 C2162.62,1078.06 2170.57,1072.15 2173.64,1063.87 C2250.88,1065.82 2316.41,1067.29 2352.64,1067.29 C2460.79,1067.29 2628.61,1029.99 2660.31,992.7 L2697.6,974.054 L2697.6,968.665 L2662.02,966.434 L2716,816.083" fill="#0A0B09"/>
    <path d="M1548.34,1907.93 C1548.34,1907.93 1522.77,1861.04 1425.8,1861.04 C1366.36,1861.04 1361.86,1871.7 1339.49,1873.83 C1317.11,1875.96 1230.8,1872.76 1230.8,1872.76 L1068.2,1821.11 L1065.3,1817.08 L1059.39,1818.31 L1049.65,1815.22 L1007.03,1815.22 L1044.53,1835.98 C1040.79,1837.78 1039.15,1839.73 1039.15,1841.12 C1039.15,1845.52 1047.51,1852.2 1077.03,1853.96 L1078.71,1854.89 C1075.34,1856.62 1073.84,1858.45 1073.84,1859.78 C1073.84,1864.12 1081.98,1870.7 1110.62,1872.55 L1116.78,1875.96 L861.05,1877.02 L752.363,1779.14 L718.265,1779.14 L743.839,1882.35 C743.839,1882.35 718.265,1885.55 718.265,1906.86 C718.265,1926.76 726.629,1922.5 727.733,1921.85 L661.791,1962.27 L702.282,1969.73 L786.461,1938.83 L1056.05,1956.75 L737.266,2078.67 C733.956,2079.94 734.192,2084.7 737.611,2085.63 L779.692,2097.11 C784.148,2098.32 788.851,2098.31 793.303,2097.08 L903.924,2066.4 L908.322,2086.19 C898.013,2090.13 893.691,2094.83 893.691,2098.01 C893.691,2107.93 915.475,2123.84 998.025,2123.84 C1003.87,2123.84 1011,2120.13 1011,2103.99 C1011,2088.78 1010.98,2079 964.425,2078.86 L964.436,2078.86 L946.907,2054.48 L1069.58,2020.47 L1073.67,2038.87 C1063.36,2042.81 1059.04,2047.5 1059.04,2050.68 C1059.04,2060.61 1080.82,2076.51 1163.37,2076.51 C1169.22,2076.51 1176.35,2072.8 1176.35,2056.67 C1176.35,2041.46 1176.33,2031.67 1129.77,2031.53 L1129.79,2031.53 L1113.14,2008.39 L1237.19,1973.99 C1237.19,1973.99 1432.19,1991.04 1471.62,1989.97 C1511.04,1988.91 1586.7,1986.78 1586.7,1945.22 C1586.7,1931.37 1577.73,1922.9 1548.34,1907.93" fill="#0A0B09"/>
    <path d="M1828.51,1564.71 C1834.01,1560.59 1849.12,1549.59 1868.36,1550.97 C1887.6,1552.34 2128.1,1578.45 2128.1,1578.45 L2155.58,1564.65 C2155.58,1564.65 2148.71,1526.23 2172.08,1517.98 C2195.44,1509.74 2244.91,1517.98 2244.91,1517.98 L2280.64,1498.74 C2280.64,1498.74 2264.15,1453.39 2308.13,1447.9 C2352.1,1442.4 2376.84,1454.77 2376.84,1454.77 L2490.91,1388.8 L2550,1395.67 L2304.01,1608.69 C2304.01,1608.69 2528.01,1655.41 2555.5,1655.41 C2582.98,1655.41 2654.44,1619.68 2702.54,1567.46 C2750.64,1515.24 2817.98,1538.6 2817.98,1538.6 L2780.87,1611.43 L2811.11,1619.68 L2734.15,1709.37 L2761.63,1820.32 L2701.17,1820.32 L2654.44,1733.74 C2654.44,1733.74 2445.96,1724.75 2227.45,1695.89 L2260.03,2027.84 L2187.19,2018.22 L2163.17,1921.52 C2163.17,1921.52 2122.94,1921.4 2118.82,1887.04 C2114.7,1852.68 2139.07,1855.27 2139.07,1855.27 L2128.44,1815.58 L2104.11,1812 C2091.17,1810.1 2081.47,1799.15 2081.15,1786.08 L2080.99,1779.88 C2080.63,1765.32 2091.91,1753.13 2106.45,1752.36 L2071.34,1667.03 C2071.34,1667.03 1896.74,1659.11 1828.51,1615.56 C1763.92,1574.33 1828.51,1564.71 1828.51,1564.71" fill="#0A0B09"/>
    <path d="M1529.13,1252.2 C1534.23,1264.53 1546.8,1324.31 1203.62,1428.18 L1174.17,1483.44 L1215.41,1483.44 C1215.41,1483.44 1268.43,1467.24 1274.32,1483.44 C1280.21,1499.64 1274.32,1505.54 1231.61,1524.68 C1231.61,1524.68 1243.39,1539.41 1237.5,1551.19 C1231.61,1562.98 1180.06,1586.54 1137.34,1592.44 C1137.34,1592.44 1121.14,1583.6 1124.09,1570.34 C1124.09,1570.34 1127.03,1592.44 1071.06,1610.11 L1009.2,1505.54 C1009.2,1505.54 808.895,1580.65 714.632,1599.8 C620.369,1618.95 567.346,1620.42 567.346,1620.42 L567.346,1639.57 L523.16,1657.24 L464.245,1620.42 L427.424,1621.89 L427.424,1610.11 L235.951,1571.81 L312.54,1542.36 L434.788,1551.19 L393.548,1405.38 L459.827,1383.29 L587.966,1496.7 L645.407,1501.12 L772.073,1443.68 L247.734,1318.48 L324.323,1277.24 L677.81,1328.79 C677.81,1328.79 766.182,1296.39 783.856,1311.12 C801.531,1325.85 792.694,1342.05 792.694,1342.05 L945.871,1361.2 C945.871,1361.2 997.422,1333.21 1022.46,1342.05 C1047.5,1350.89 1035.72,1352.36 1035.72,1352.36 C1035.72,1352.36 1278.74,1262.51 1331.76,1244.84 C1384.78,1227.17 1446.92,1213.42 1475.21,1234.39 C1475.21,1234.39 1519.14,1228.08 1529.13,1252.2" fill="#0A0B09"/>
  </g>
</svg>
