<?xml version="1.0" encoding="UTF-8"?>
<!DOCTYPE svg PUBLIC "-//W3C//DTD SVG 1.1//EN" "http://www.w3.org/Graphics/SVG/1.1/DTD/svg11.dtd">
<svg version="1.1" xmlns="http://www.w3.org/2000/svg" xmlns:xlink="http://www.w3.org/1999/xlink" x="0" y="0" width="1598.335" height="1129.647" viewBox="0, 0, 1598.335, 1129.647">
  <g id="Layer_1">
    <path d="M1259.558,329.707 L1114.211,329.707 L1111.703,283.465 L1261.754,283.465 L1259.558,329.707" fill="#4BDEE0" id="path512"/>
    <path d="M1260.182,567.271 L1115.217,567.271 L1099.939,329.707 L1273.837,329.707 L1260.182,567.271" fill="#4BDEE0" id="path514"/>
    <path d="M1266.694,453.944 L1107.934,453.944 L1099.939,329.707 L1273.837,329.707 L1266.694,453.944" fill="#E9F9FF" id="path516"/>
    <path d="M1140.331,399.63 L1139.49,399.63 L1137.822,356.272 L1138.689,356.272 L1140.331,399.63" fill="#BABABC" id="path518"/>
    <path d="M1139.49,399.63 L1108.838,399.63 L1106.19,356.272 L1137.822,356.272 L1139.49,399.63" fill="#FFFFFF" id="path520"/>
    <path d="M1137.027,359.111 L1138.503,396.778 L1111.562,396.778 L1109.341,359.111 L1137.026,359.111" fill="#134960" id="path522"/>
    <path d="M1138.083,363.128 L1138.917,384.734 L1128.273,396.778 L1111.563,396.778 L1111.351,393.271 L1134.638,366.935 L1138.082,363.128" fill="#30768C" id="path524"/>
    <path d="M1134.315,359.111 L1134.519,363.834 L1111.175,390.183 L1110.716,382.487 L1131.558,359.111 L1134.315,359.111" fill="#30768C" id="path526"/>
    <path d="M1137.822,356.253 L1139.49,399.63 L1135.982,399.63 L1134.199,356.253 L1137.821,356.253" fill="#FFFFFF" id="path528"/>
    <path d="M1171.804,399.63 L1170.97,399.63 L1170.302,356.259 L1171.161,356.259 L1171.804,399.63" fill="#BABABC" id="path530"/>
    <path d="M1170.97,399.63 L1140.331,399.63 L1138.688,356.259 L1170.302,356.259 L1170.969,399.63" fill="#FFFFFF" id="path532"/>
    <path d="M1169.442,359.111 L1170.041,396.772 L1143.101,396.772 L1141.751,359.111 L1169.443,359.111" fill="#134960" id="path534"/>
    <path d="M1170.416,363.128 L1170.746,384.734 L1159.81,396.772 L1143.099,396.772 L1142.973,393.271 L1166.877,366.935 L1170.41,363.128" fill="#30768C" id="path536"/>
    <path d="M1166.736,359.111 L1166.827,363.835 L1142.872,390.164 L1142.597,382.487 L1163.987,359.111 L1166.743,359.111" fill="#30768C" id="path538"/>
    <path d="M1170.314,356.24 L1170.976,399.63 L1167.462,399.63 L1166.679,356.24 L1170.314,356.24" fill="#FFFFFF" id="path540"/>
    <path d="M1203.271,399.63 L1202.442,399.63 L1202.78,356.253 L1203.633,356.253 L1203.271,399.63" fill="#BABABC" id="path542"/>
    <path d="M1202.443,399.63 L1171.804,399.63 L1171.161,356.253 L1202.781,356.253 L1202.443,399.63" fill="#FFFFFF" id="path544"/>
    <path d="M1201.857,359.092 L1201.583,396.772 L1174.649,396.772 L1174.178,359.092 L1201.857,359.092" fill="#134960" id="path546"/>
    <path d="M1202.723,363.115 L1202.561,384.721 L1191.363,396.772 L1174.652,396.772 L1174.616,393.271 L1199.132,366.935 L1202.735,363.115" fill="#30768C" id="path548"/>
    <path d="M1199.158,359.092 L1199.141,363.834 L1174.581,390.164 L1174.491,382.487 L1196.409,359.092 L1199.172,359.092" fill="#30768C" id="path550"/>
    <path d="M1202.78,356.24 L1202.443,399.617 L1198.948,399.617 L1199.177,356.24 L1202.78,356.24" fill="#FFFFFF" id="path552"/>
    <path d="M1234.756,399.63 L1233.923,399.63 L1235.272,356.253 L1236.131,356.253 L1234.756,399.63" fill="#BABABC" id="path554"/>
    <path d="M1233.922,399.63 L1203.271,399.63 L1203.633,356.253 L1235.272,356.253 L1233.922,399.63" fill="#FFFFFF" id="path556"/>
    <path d="M1234.266,359.092 L1233.12,396.759 L1206.205,396.759 L1206.606,359.092 L1234.266,359.092" fill="#134960" id="path558"/>
    <path d="M1235.068,363.115 L1234.394,384.721 L1222.89,396.759 L1206.205,396.759 L1206.241,393.264 L1231.336,366.935 L1235.066,363.115" fill="#30768C" id="path560"/>
    <path d="M1231.561,359.092 L1231.434,363.834 L1206.276,390.164 L1206.366,382.487 L1228.819,359.092 L1231.569,359.092" fill="#30768C" id="path562"/>
    <path d="M1235.278,356.24 L1233.936,399.617 L1230.409,399.617 L1231.643,356.24 L1235.278,356.24" fill="#FFFFFF" id="path564"/>
    <path d="M1265.402,399.617 L1234.756,399.617 L1236.131,356.24 L1267.751,356.24 L1265.402,399.617" fill="#FFFFFF" id="path566"/>
    <path d="M1266.701,359.085 L1264.683,396.778 L1237.736,396.778 L1239.015,359.085 L1266.701,359.085" fill="#134960" id="path568"/>
    <path d="M1266.433,364.057 L1265.28,385.67 L1254.452,396.778 L1237.735,396.778 L1237.861,393.271 L1263.592,366.916 L1266.438,364.057" fill="#30768C" id="path570"/>
    <path d="M1263.989,359.092 L1263.74,363.822 L1237.964,390.164 L1238.226,382.487 L1261.238,359.092 L1263.989,359.092" fill="#30768C" id="path572"/>
    <path d="M1267.757,356.24 L1265.402,399.611 L1261.894,399.611 L1264.135,356.24 L1267.757,356.24" fill="#FFFFFF" id="path574"/>
    <path d="M1141.859,440.016 L1141.05,440.016 L1139.375,396.657 L1140.216,396.657 L1141.859,440.016" fill="#BABABC" id="path576"/>
    <path d="M1141.05,440.016 L1111.315,440.016 L1108.666,396.657 L1139.376,396.657 L1141.05,440.016" fill="#FFFFFF" id="path578"/>
    <path d="M1138.605,399.49 L1140.083,437.164 L1113.945,437.164 L1111.729,399.49 L1138.606,399.49" fill="#134960" id="path580"/>
    <path d="M1139.637,403.513 L1140.47,425.119 L1130.158,437.164 L1113.943,437.164 L1113.74,433.662 L1136.301,407.327 L1139.636,403.513" fill="#30768C" id="path582"/>
    <path d="M1135.976,399.49 L1136.168,404.22 L1113.556,430.562 L1113.097,422.866 L1133.297,399.49 L1135.977,399.49" fill="#30768C" id="path584"/>
    <path d="M1139.376,396.632 L1141.05,440.016 L1137.645,440.016 L1135.862,396.632 L1139.376,396.632" fill="#FFFFFF" id="path586"/>
    <path d="M1172.402,440.016 L1171.586,440.016 L1170.919,396.651 L1171.752,396.651 L1172.402,440.016" fill="#BABABC" id="path588"/>
    <path d="M1171.587,440.016 L1141.859,440.016 L1140.216,396.651 L1170.919,396.651 L1171.587,440.016" fill="#FFFFFF" id="path590"/>
    <path d="M1170.085,399.49 L1170.684,437.151 L1144.552,437.151 L1143.197,399.49 L1170.086,399.49" fill="#134960" id="path592"/>
    <path d="M1171.034,403.513 L1171.371,425.119 L1160.765,437.151 L1144.551,437.151 L1144.425,433.662 L1167.603,407.327 L1171.034,403.513" fill="#30768C" id="path594"/>
    <path d="M1167.456,399.49 L1167.546,404.22 L1144.317,430.549 L1144.037,422.866 L1164.783,399.49 L1167.457,399.49" fill="#30768C" id="path596"/>
    <path d="M1170.932,396.625 L1171.594,440.016 L1168.188,440.016 L1167.412,396.625 L1170.932,396.625" fill="#FFFFFF" id="path598"/>
    <path d="M1202.927,440.016 L1202.124,440.016 L1202.461,396.632 L1203.295,396.632 L1202.927,440.016" fill="#BABABC" id="path600"/>
    <path d="M1202.125,440.016 L1172.402,440.016 L1171.752,396.632 L1202.462,396.632 L1202.124,440.016" fill="#FFFFFF" id="path602"/>
    <path d="M1201.565,399.477 L1201.297,437.151 L1175.159,437.151 L1174.688,399.477 L1201.565,399.477" fill="#134960" id="path604"/>
    <path d="M1202.411,403.501 L1202.231,425.107 L1191.364,437.151 L1175.15,437.151 L1175.114,433.656 L1198.903,407.327 L1202.405,403.501" fill="#30768C" id="path606"/>
    <path d="M1198.948,399.477 L1198.931,404.22 L1175.084,430.549 L1174.994,422.866 L1196.275,399.477 L1198.962,399.477" fill="#30768C" id="path608"/>
    <path d="M1202.462,396.625 L1202.125,440.003 L1198.738,440.003 L1198.962,396.625 L1202.463,396.625" fill="#FFFFFF" id="path610"/>
    <path d="M1233.477,440.016 L1232.668,440.016 L1234.018,396.632 L1234.852,396.632 L1233.477,440.016" fill="#BABABC" id="path612"/>
    <path d="M1232.668,440.016 L1202.927,440.016 L1203.297,396.632 L1234.019,396.632 L1232.669,440.016" fill="#FFFFFF" id="path614"/>
    <path d="M1233.038,399.477 L1231.892,437.145 L1205.772,437.145 L1206.173,399.477 L1233.037,399.477" fill="#134960" id="path616"/>
    <path d="M1233.808,403.501 L1233.14,425.107 L1221.968,437.145 L1205.773,437.145 L1205.809,433.65 L1230.191,407.327 L1233.807,403.501" fill="#30768C" id="path618"/>
    <path d="M1230.415,399.477 L1230.288,404.22 L1205.856,430.537 L1205.928,422.866 L1227.744,399.477 L1230.418,399.477" fill="#30768C" id="path620"/>
    <path d="M1234.018,396.625 L1232.681,440.003 L1229.256,440.003 L1230.49,396.625 L1234.017,396.625" fill="#FFFFFF" id="path622"/>
    <path d="M1263.206,440.003 L1233.477,440.003 L1234.852,396.625 L1265.568,396.625 L1263.206,440.003" fill="#FFFFFF" id="path624"/>
    <path d="M1264.53,399.471 L1262.518,437.151 L1236.373,437.151 L1237.646,399.471 L1264.529,399.471" fill="#134960" id="path626"/>
    <path d="M1264.269,404.443 L1263.116,426.049 L1252.593,437.151 L1236.373,437.151 L1236.499,433.662 L1261.504,407.307 L1264.274,404.443" fill="#30768C" id="path628"/>
    <path d="M1261.894,399.477 L1261.66,404.207 L1236.597,430.537 L1236.859,422.866 L1259.222,399.477 L1261.896,399.477" fill="#30768C" id="path630"/>
    <path d="M1265.568,396.625 L1263.212,440.003 L1259.806,440.003 L1262.047,396.625 L1265.568,396.625" fill="#FFFFFF" id="path632"/>
    <path d="M1278.299,334.22 L1095.514,334.22 L1094.203,314.893 L1279.464,314.893 L1278.298,334.22" fill="#26C5D2" id="path634"/>
    <path d="M1283.424,324.557 L1090.307,324.557 L1088.887,304.479 L1284.709,304.479 L1283.423,324.557" fill="#134960" id="path636"/>
    <path d="M1270.132,506.616 L1103.325,506.616 L1096.96,453.944 L1276.498,453.944 L1270.132,506.616" fill="#26C5D2" id="path638"/>
    <path d="M229.207,562.541 L1369.167,562.541 L1369.167,571.924 L229.207,571.924 L229.207,562.541" fill="#134960" id="path640"/>
    <path d="M1073.953,563.012 L1073.074,571.943 L1046.726,846.182 L551.66,846.182 L525.298,571.943 L524.432,563.012 L531.136,556.385 C596.622,491.815 693.702,454.778 797.563,454.778 L800.777,454.778 C904.637,454.778 1001.756,491.815 1067.198,556.385 L1073.952,563.012" fill="#134960" id="path642"/>
    <path d="M1346.924,571.943 L1346.924,846.182 L251.417,846.182 L251.417,571.943 L1346.924,571.943" fill="#E9F9FF" id="path644"/>
    <path d="M1360.274,624.608 L238.062,624.608 L238.062,571.943 L1360.274,571.943 L1360.274,624.608" fill="#26C5D2" id="path646"/>
    <path d="M1061.533,567.538 L1061.087,571.943 L1059.146,592.104 L1058.788,596.07 L1034.738,846.182 L563.646,846.182 L539.596,596.07 L539.195,592.104 L537.247,571.943 L536.814,567.538 L539.513,564.877 C602.702,502.529 696.599,466.778 797.168,466.689 L801.134,466.689 C821.849,466.689 842.328,468.236 862.298,471.215 C863.602,471.412 864.959,471.616 866.264,471.813 C887.22,475.143 907.617,480.07 927.224,486.461 C928.529,486.895 929.802,487.327 931.114,487.811 C952.14,494.909 972.193,503.796 991.004,514.274 C992.271,514.993 993.544,515.745 994.811,516.496 C1015.806,528.572 1035.171,542.698 1052.397,558.727 C1053.671,559.835 1054.861,561.032 1056.089,562.216 C1057.006,563.05 1057.955,563.967 1058.871,564.877 L1061.532,567.538" fill="#26C5D2" id="path648"/>
    <path d="M1053.276,570.517 L1052.354,579.996 L1026.763,845.946 L571.58,845.946 L558.25,707.321 L556.779,692.272 L554.437,667.948 L553.603,658.94 L552.369,646.558 L551.026,632.305 L550.268,624.608 L545.073,570.517 C581.149,534.912 629.008,507.138 684.016,490.86 C687.906,489.702 691.802,488.594 695.768,487.563 C702.433,485.825 709.219,484.233 716.081,482.846 C721.601,481.693 727.196,480.656 732.792,479.745 C736.612,479.147 740.412,478.599 744.263,478.122 C753.946,476.811 763.75,475.9 773.712,475.334 C781.568,474.869 789.551,474.633 797.565,474.633 L800.78,474.633 C820.623,474.633 840.032,476.059 858.882,478.758 C862.173,479.236 865.471,479.745 868.73,480.306 C871.499,480.739 874.288,481.26 877.057,481.77 C883.919,483.081 890.756,484.59 897.421,486.296 C914.406,490.427 930.76,495.698 946.401,502.013 C948.412,502.771 950.443,503.605 952.429,504.432 C956.077,505.986 959.693,507.571 963.264,509.2 C974.698,514.433 985.609,520.226 996.087,526.509 C1014.656,537.656 1031.641,550.356 1046.811,564.361 C1048.79,566.15 1050.732,568.015 1052.642,569.919 L1053.279,570.517" fill="#134960" id="path650"/>
    <path d="M1456.603,702.088 L1456.603,846.182 L141.732,846.182 L141.732,702.088 L1456.603,702.088" fill="#4BDEE0" id="path652"/>
    <path d="M1456.603,693.863 L1456.603,814.439 L141.732,814.439 L141.732,693.863 L1456.603,693.863" fill="#26C5D2" id="path654"/>
    <path d="M204.526,802.083 L203.468,802.083 L203.468,750.954 L204.526,750.954 L204.526,802.083" fill="#BABABC" id="path656"/>
    <path d="M203.469,802.083 L164.223,802.083 L164.223,750.954 L203.469,750.954 L203.469,802.083" fill="#FFFFFF" id="path658"/>
    <path d="M202.33,754.302 L202.33,798.724 L167.922,798.724 L167.922,754.302 L202.33,754.302" fill="#134960" id="path660"/>
    <path d="M203.469,759.039 L203.469,784.514 L189.26,798.724 L167.922,798.724 L167.922,794.586 L198.975,763.527 L203.469,759.039" fill="#30768C" id="path662"/>
    <path d="M198.975,754.302 L198.975,759.872 L167.922,790.931 L167.922,781.866 L195.543,754.302 L198.975,754.302" fill="#30768C" id="path664"/>
    <path d="M203.469,750.927 L203.469,802.083 L198.975,802.083 L198.975,750.927 L203.469,750.927" fill="#FFFFFF" id="path666"/>
    <path d="M244.829,802.083 L243.746,802.083 L243.746,750.939 L244.829,750.939 L244.829,802.083" fill="#BABABC" id="path668"/>
    <path d="M243.746,802.083 L204.526,802.083 L204.526,750.939 L243.746,750.939 L243.746,802.083" fill="#FFFFFF" id="path670"/>
    <path d="M242.62,754.302 L242.62,798.699 L208.218,798.699 L208.218,754.302 L242.62,754.302" fill="#134960" id="path672"/>
    <path d="M243.765,759.039 L243.765,784.514 L229.557,798.699 L208.218,798.699 L208.218,794.586 L239.271,763.527 L243.765,759.039" fill="#30768C" id="path674"/>
    <path d="M239.271,754.302 L239.271,759.872 L208.218,790.918 L208.218,781.866 L235.84,754.302 L239.271,754.302" fill="#30768C" id="path676"/>
    <path d="M243.765,750.922 L243.765,802.083 L239.271,802.083 L239.271,750.922 L243.765,750.922" fill="#FFFFFF" id="path678"/>
    <path d="M285.112,802.083 L284.049,802.083 L284.049,750.927 L285.112,750.927 L285.112,802.083" fill="#BABABC" id="path680"/>
    <path d="M284.049,802.083 L244.829,802.083 L244.829,750.927 L284.049,750.927 L284.049,802.083" fill="#FFFFFF" id="path682"/>
    <path d="M282.922,754.276 L282.922,798.699 L248.521,798.699 L248.521,754.276 L282.922,754.276" fill="#134960" id="path684"/>
    <path d="M284.056,759.026 L284.056,784.502 L269.859,798.699 L248.521,798.699 L248.521,794.586 L279.58,763.527 L284.056,759.026" fill="#30768C" id="path686"/>
    <path d="M279.58,754.276 L279.58,759.872 L248.521,790.918 L248.521,781.866 L276.136,754.276 L279.58,754.276" fill="#30768C" id="path688"/>
    <path d="M284.056,750.922 L284.056,802.071 L279.58,802.071 L279.58,750.922 L284.056,750.922" fill="#FFFFFF" id="path690"/>
    <path d="M325.421,802.083 L324.351,802.083 L324.351,750.927 L325.421,750.927 L325.421,802.083" fill="#BABABC" id="path692"/>
    <path d="M324.352,802.083 L285.112,802.083 L285.112,750.927 L324.352,750.927 L324.352,802.083" fill="#FFFFFF" id="path694"/>
    <path d="M323.206,754.276 L323.206,798.699 L288.823,798.699 L288.823,754.276 L323.206,754.276" fill="#134960" id="path696"/>
    <path d="M324.358,759.026 L324.358,784.502 L310.156,798.699 L288.823,798.699 L288.823,794.573 L319.864,763.527 L324.358,759.026" fill="#30768C" id="path698"/>
    <path d="M319.864,754.276 L319.864,759.872 L288.823,790.918 L288.823,781.866 L316.426,754.276 L319.864,754.276" fill="#30768C" id="path700"/>
    <path d="M324.358,750.922 L324.358,802.071 L319.864,802.071 L319.864,750.922 L324.358,750.922" fill="#FFFFFF" id="path702"/>
    <path d="M365.705,802.071 L364.642,802.071 L364.642,750.922 L365.705,750.922 L365.705,802.071" fill="#BABABC" id="path704"/>
    <path d="M364.642,802.071 L325.421,802.071 L325.421,750.922 L364.642,750.922 L364.642,802.071" fill="#FFFFFF" id="path706"/>
    <path d="M363.515,754.276 L363.515,798.699 L329.114,798.699 L329.114,754.276 L363.515,754.276" fill="#134960" id="path708"/>
    <path d="M364.648,759.026 L364.648,784.49 L350.452,798.699 L329.114,798.699 L329.114,794.573 L360.167,763.527 L364.648,759.026" fill="#30768C" id="path710"/>
    <path d="M360.167,754.276 L360.167,759.859 L329.114,790.918 L329.114,781.866 L356.735,754.276 L360.167,754.276" fill="#30768C" id="path712"/>
    <path d="M364.648,750.922 L364.648,802.071 L360.167,802.071 L360.167,750.922 L364.648,750.922" fill="#FFFFFF" id="path714"/>
    <path d="M406.008,802.071 L404.957,802.071 L404.957,750.922 L406.008,750.922 L406.008,802.071" fill="#BABABC" id="path716"/>
    <path d="M404.957,802.071 L365.705,802.071 L365.705,750.922 L404.957,750.922 L404.957,802.071" fill="#FFFFFF" id="path718"/>
    <path d="M403.799,754.276 L403.799,798.699 L369.41,798.699 L369.41,754.276 L403.799,754.276" fill="#134960" id="path720"/>
    <path d="M404.957,759.011 L404.957,784.49 L390.755,798.699 L369.41,798.699 L369.41,794.561 L400.457,763.527 L404.957,759.011" fill="#30768C" id="path722"/>
    <path d="M400.457,754.276 L400.457,759.859 L369.41,790.918 L369.41,781.854 L397.025,754.276 L400.457,754.276" fill="#30768C" id="path724"/>
    <path d="M404.957,750.909 L404.957,802.058 L400.457,802.058 L400.457,750.909 L404.957,750.909" fill="#FFFFFF" id="path726"/>
    <path d="M446.304,802.071 L445.241,802.071 L445.241,750.922 L446.304,750.922 L446.304,802.071" fill="#BABABC" id="path728"/>
    <path d="M445.241,802.071 L406.008,802.071 L406.008,750.922 L445.241,750.922 L445.241,802.071" fill="#FFFFFF" id="path730"/>
    <path d="M444.101,754.276 L444.101,798.699 L409.7,798.699 L409.7,754.276 L444.101,754.276" fill="#134960" id="path732"/>
    <path d="M445.241,759.011 L445.241,784.49 L431.045,798.699 L409.7,798.699 L409.7,794.561 L440.747,763.5 L445.241,759.011" fill="#30768C" id="path734"/>
    <path d="M440.747,754.276 L440.747,759.859 L409.7,790.918 L409.7,781.841 L437.322,754.276 L440.747,754.276" fill="#30768C" id="path736"/>
    <path d="M445.241,750.909 L445.241,802.058 L440.747,802.058 L440.747,750.909 L445.241,750.909" fill="#FFFFFF" id="path738"/>
    <path d="M486.594,802.058 L485.536,802.058 L485.536,750.922 L486.594,750.922 L486.594,802.058" fill="#BABABC" id="path740"/>
    <path d="M485.537,802.058 L446.304,802.058 L446.304,750.922 L485.537,750.922 L485.537,802.058" fill="#FFFFFF" id="path742"/>
    <path d="M484.41,754.276 L484.41,798.672 L450.003,798.672 L450.003,754.276 L484.41,754.276" fill="#134960" id="path744"/>
    <path d="M485.537,758.998 L485.537,784.49 L471.354,798.672 L450.003,798.672 L450.003,794.561 L481.056,763.487 L485.537,758.998" fill="#30768C" id="path746"/>
    <path d="M481.056,754.276 L481.056,759.859 L450.003,790.906 L450.003,781.829 L477.618,754.276 L481.056,754.276" fill="#30768C" id="path748"/>
    <path d="M485.537,750.909 L485.537,802.046 L481.056,802.046 L481.056,750.909 L485.537,750.909" fill="#FFFFFF" id="path750"/>
    <path d="M526.89,802.058 L525.833,802.058 L525.833,750.909 L526.89,750.909 L526.89,802.058" fill="#BABABC" id="path752"/>
    <path d="M525.834,802.058 L486.594,802.058 L486.594,750.909 L525.834,750.909 L525.834,802.058" fill="#FFFFFF" id="path754"/>
    <path d="M524.7,754.264 L524.7,798.672 L490.305,798.672 L490.305,754.264 L524.7,754.264" fill="#134960" id="path756"/>
    <path d="M525.846,758.998 L525.846,784.475 L511.65,798.672 L490.305,798.672 L490.305,794.561 L521.352,763.487 L525.846,758.998" fill="#30768C" id="path758"/>
    <path d="M521.352,754.264 L521.352,759.846 L490.305,790.906 L490.305,781.829 L517.914,754.264 L521.352,754.264" fill="#30768C" id="path760"/>
    <path d="M525.846,750.909 L525.846,802.046 L521.352,802.046 L521.352,750.909 L525.846,750.909" fill="#FFFFFF" id="path762"/>
    <path d="M567.187,802.046 L566.136,802.046 L566.136,750.909 L567.187,750.909 L567.187,802.046" fill="#BABABC" id="path764"/>
    <path d="M566.136,802.046 L526.89,802.046 L526.89,750.909 L566.136,750.909 L566.136,802.046" fill="#FFFFFF" id="path766"/>
    <path d="M565.003,754.264 L565.003,798.672 L530.595,798.672 L530.595,754.264 L565.003,754.264" fill="#134960" id="path768"/>
    <path d="M566.136,758.998 L566.136,784.475 L551.927,798.672 L530.595,798.672 L530.595,794.546 L561.648,763.487 L566.136,758.998" fill="#30768C" id="path770"/>
    <path d="M561.648,754.264 L561.648,759.846 L530.595,790.893 L530.595,781.829 L558.204,754.264 L561.648,754.264" fill="#30768C" id="path772"/>
    <path d="M566.136,750.882 L566.136,802.033 L561.648,802.033 L561.648,750.882 L566.136,750.882" fill="#FFFFFF" id="path774"/>
    <path d="M606.439,802.046 L567.187,802.046 L567.187,750.909 L606.439,750.909 L606.439,802.046" fill="#FFFFFF" id="path776"/>
    <path d="M605.287,754.251 L605.287,798.666 L570.885,798.666 L570.885,754.251 L605.287,754.251" fill="#134960" id="path778"/>
    <path d="M605.287,760.17 L605.287,785.634 L592.217,798.666 L570.885,798.666 L570.885,794.534 L601.938,763.475 L605.287,760.17" fill="#30768C" id="path780"/>
    <path d="M601.938,754.264 L601.938,759.834 L570.898,790.88 L570.898,781.829 L598.507,754.264 L601.938,754.264" fill="#30768C" id="path782"/>
    <path d="M606.439,750.882 L606.439,802.033 L601.938,802.033 L601.938,750.882 L606.439,750.882" fill="#FFFFFF" id="path784"/>
    <path d="M1035.42,802.083 L1034.357,802.083 L1034.357,750.954 L1035.42,750.954 L1035.42,802.083" fill="#BABABC" id="path786"/>
    <path d="M1034.357,802.083 L995.117,802.083 L995.117,750.954 L1034.357,750.954 L1034.357,802.083" fill="#FFFFFF" id="path788"/>
    <path d="M1033.224,754.302 L1033.224,798.724 L998.816,798.724 L998.816,754.302 L1033.224,754.302" fill="#134960" id="path790"/>
    <path d="M1034.357,759.039 L1034.357,784.514 L1020.155,798.724 L998.816,798.724 L998.816,794.586 L1029.863,763.527 L1034.357,759.039" fill="#30768C" id="path792"/>
    <path d="M1029.863,754.302 L1029.863,759.872 L998.816,790.931 L998.816,781.866 L1026.431,754.302 L1029.863,754.302" fill="#30768C" id="path794"/>
    <path d="M1034.357,750.927 L1034.357,802.083 L1029.863,802.083 L1029.863,750.927 L1034.357,750.927" fill="#FFFFFF" id="path796"/>
    <path d="M1075.71,802.083 L1074.634,802.083 L1074.634,750.939 L1075.71,750.939 L1075.71,802.083" fill="#BABABC" id="path798"/>
    <path d="M1074.634,802.083 L1035.42,802.083 L1035.42,750.939 L1074.634,750.939 L1074.634,802.083" fill="#FFFFFF" id="path800"/>
    <path d="M1073.52,754.302 L1073.52,798.699 L1039.112,798.699 L1039.112,754.302 L1073.52,754.302" fill="#134960" id="path802"/>
    <path d="M1074.66,759.039 L1074.66,784.514 L1060.457,798.699 L1039.112,798.699 L1039.112,794.586 L1070.159,763.527 L1074.66,759.039" fill="#30768C" id="path804"/>
    <path d="M1070.159,754.302 L1070.159,759.872 L1039.112,790.918 L1039.112,781.866 L1066.728,754.302 L1070.159,754.302" fill="#30768C" id="path806"/>
    <path d="M1074.66,750.922 L1074.66,802.083 L1070.159,802.083 L1070.159,750.922 L1074.66,750.922" fill="#FFFFFF" id="path808"/>
    <path d="M1116,802.083 L1114.943,802.083 L1114.943,750.927 L1116,750.927 L1116,802.083" fill="#BABABC" id="path810"/>
    <path d="M1114.943,802.083 L1075.71,802.083 L1075.71,750.927 L1114.943,750.927 L1114.943,802.083" fill="#FFFFFF" id="path812"/>
    <path d="M1113.817,754.276 L1113.817,798.699 L1079.409,798.699 L1079.409,754.276 L1113.817,754.276" fill="#134960" id="path814"/>
    <path d="M1114.943,759.026 L1114.943,784.502 L1100.76,798.699 L1079.409,798.699 L1079.409,794.586 L1110.468,763.527 L1114.943,759.026" fill="#30768C" id="path816"/>
    <path d="M1110.468,754.276 L1110.468,759.872 L1079.409,790.918 L1079.409,781.866 L1107.024,754.276 L1110.468,754.276" fill="#30768C" id="path818"/>
    <path d="M1114.943,750.922 L1114.943,802.071 L1110.468,802.071 L1110.468,750.922 L1114.943,750.922" fill="#FFFFFF" id="path820"/>
    <path d="M1156.309,802.083 L1155.239,802.083 L1155.239,750.927 L1156.309,750.927 L1156.309,802.083" fill="#BABABC" id="path822"/>
    <path d="M1155.24,802.083 L1116,802.083 L1116,750.927 L1155.24,750.927 L1155.24,802.083" fill="#FFFFFF" id="path824"/>
    <path d="M1154.106,754.276 L1154.106,798.699 L1119.711,798.699 L1119.711,754.276 L1154.106,754.276" fill="#134960" id="path826"/>
    <path d="M1155.246,759.026 L1155.246,784.502 L1141.044,798.699 L1119.711,798.699 L1119.711,794.573 L1150.752,763.527 L1155.246,759.026" fill="#30768C" id="path828"/>
    <path d="M1150.752,754.276 L1150.752,759.872 L1119.711,790.918 L1119.711,781.866 L1147.32,754.276 L1150.752,754.276" fill="#30768C" id="path830"/>
    <path d="M1155.246,750.922 L1155.246,802.071 L1150.752,802.071 L1150.752,750.922 L1155.246,750.922" fill="#FFFFFF" id="path832"/>
    <path d="M1196.599,802.071 L1195.529,802.071 L1195.529,750.922 L1196.599,750.922 L1196.599,802.071" fill="#BABABC" id="path834"/>
    <path d="M1195.53,802.071 L1156.309,802.071 L1156.309,750.922 L1195.53,750.922 L1195.53,802.071" fill="#FFFFFF" id="path836"/>
    <path d="M1194.409,754.276 L1194.409,798.699 L1160.008,798.699 L1160.008,754.276 L1194.409,754.276" fill="#134960" id="path838"/>
    <path d="M1195.542,759.026 L1195.542,784.49 L1181.34,798.699 L1160.008,798.699 L1160.008,794.573 L1191.054,763.527 L1195.542,759.026" fill="#30768C" id="path840"/>
    <path d="M1191.054,754.276 L1191.054,759.859 L1160.008,790.918 L1160.008,781.866 L1187.623,754.276 L1191.054,754.276" fill="#30768C" id="path842"/>
    <path d="M1195.542,750.922 L1195.542,802.071 L1191.054,802.071 L1191.054,750.922 L1195.542,750.922" fill="#FFFFFF" id="path844"/>
    <path d="M1236.902,802.071 L1235.852,802.071 L1235.852,750.922 L1236.902,750.922 L1236.902,802.071" fill="#BABABC" id="path846"/>
    <path d="M1235.851,802.071 L1196.599,802.071 L1196.599,750.922 L1235.851,750.922 L1235.851,802.071" fill="#FFFFFF" id="path848"/>
    <path d="M1234.699,754.276 L1234.699,798.699 L1200.304,798.699 L1200.304,754.276 L1234.699,754.276" fill="#134960" id="path850"/>
    <path d="M1235.851,759.011 L1235.851,784.49 L1221.643,798.699 L1200.304,798.699 L1200.304,794.561 L1231.357,763.527 L1235.851,759.011" fill="#30768C" id="path852"/>
    <path d="M1231.357,754.276 L1231.357,759.859 L1200.304,790.918 L1200.304,781.854 L1227.913,754.276 L1231.357,754.276" fill="#30768C" id="path854"/>
    <path d="M1235.851,750.909 L1235.851,802.058 L1231.357,802.058 L1231.357,750.909 L1235.851,750.909" fill="#FFFFFF" id="path856"/>
    <path d="M1277.198,802.071 L1276.135,802.071 L1276.135,750.922 L1277.198,750.922 L1277.198,802.071" fill="#BABABC" id="path858"/>
    <path d="M1276.135,802.071 L1236.902,802.071 L1236.902,750.922 L1276.135,750.922 L1276.135,802.071" fill="#FFFFFF" id="path860"/>
    <path d="M1274.995,754.276 L1274.995,798.699 L1240.6,798.699 L1240.6,754.276 L1274.995,754.276" fill="#134960" id="path862"/>
    <path d="M1276.135,759.011 L1276.135,784.49 L1261.933,798.699 L1240.6,798.699 L1240.6,794.561 L1271.647,763.5 L1276.135,759.011" fill="#30768C" id="path864"/>
    <path d="M1271.647,754.276 L1271.647,759.859 L1240.6,790.918 L1240.6,781.841 L1268.222,754.276 L1271.647,754.276" fill="#30768C" id="path866"/>
    <path d="M1276.135,750.909 L1276.135,802.058 L1271.647,802.058 L1271.647,750.909 L1276.135,750.909" fill="#FFFFFF" id="path868"/>
    <path d="M1317.494,802.058 L1316.431,802.058 L1316.431,750.922 L1317.494,750.922 L1317.494,802.058" fill="#BABABC" id="path870"/>
    <path d="M1316.431,802.058 L1277.198,802.058 L1277.198,750.922 L1316.431,750.922 L1316.431,802.058" fill="#FFFFFF" id="path872"/>
    <path d="M1315.298,754.276 L1315.298,798.672 L1280.897,798.672 L1280.897,754.276 L1315.298,754.276" fill="#134960" id="path874"/>
    <path d="M1316.431,758.998 L1316.431,784.49 L1302.242,798.672 L1280.897,798.672 L1280.897,794.561 L1311.956,763.487 L1316.431,758.998" fill="#30768C" id="path876"/>
    <path d="M1311.956,754.276 L1311.956,759.859 L1280.897,790.906 L1280.897,781.829 L1308.519,754.276 L1311.956,754.276" fill="#30768C" id="path878"/>
    <path d="M1316.431,750.909 L1316.431,802.046 L1311.956,802.046 L1311.956,750.909 L1316.431,750.909" fill="#FFFFFF" id="path880"/>
    <path d="M1357.778,802.058 L1356.728,802.058 L1356.728,750.909 L1357.778,750.909 L1357.778,802.058" fill="#BABABC" id="path882"/>
    <path d="M1356.728,802.058 L1317.495,802.058 L1317.495,750.909 L1356.728,750.909 L1356.728,802.058" fill="#FFFFFF" id="path884"/>
    <path d="M1355.588,754.264 L1355.588,798.672 L1321.199,798.672 L1321.199,754.264 L1355.588,754.264" fill="#134960" id="path886"/>
    <path d="M1356.734,758.998 L1356.734,784.475 L1342.532,798.672 L1321.199,798.672 L1321.199,794.561 L1352.246,763.487 L1356.734,758.998" fill="#30768C" id="path888"/>
    <path d="M1352.246,754.264 L1352.246,759.846 L1321.199,790.906 L1321.199,781.829 L1348.815,754.264 L1352.246,754.264" fill="#30768C" id="path890"/>
    <path d="M1356.734,750.909 L1356.734,802.046 L1352.246,802.046 L1352.246,750.909 L1356.734,750.909" fill="#FFFFFF" id="path892"/>
    <path d="M1398.087,802.046 L1397.03,802.046 L1397.03,750.909 L1398.087,750.909 L1398.087,802.046" fill="#BABABC" id="path894"/>
    <path d="M1397.031,802.046 L1357.778,802.046 L1357.778,750.909 L1397.031,750.909 L1397.031,802.046" fill="#FFFFFF" id="path896"/>
    <path d="M1395.891,754.264 L1395.891,798.672 L1361.489,798.672 L1361.489,754.264 L1395.891,754.264" fill="#134960" id="path898"/>
    <path d="M1397.03,758.998 L1397.03,784.475 L1382.822,798.672 L1361.489,798.672 L1361.489,794.546 L1392.542,763.487 L1397.03,758.998" fill="#30768C" id="path900"/>
    <path d="M1392.542,754.264 L1392.542,759.846 L1361.489,790.893 L1361.489,781.829 L1389.099,754.264 L1392.542,754.264" fill="#30768C" id="path902"/>
    <path d="M1397.03,750.882 L1397.03,802.033 L1392.542,802.033 L1392.542,750.882 L1397.03,750.882" fill="#FFFFFF" id="path904"/>
    <path d="M1437.327,802.046 L1398.087,802.046 L1398.087,750.909 L1437.327,750.909 L1437.327,802.046" fill="#FFFFFF" id="path906"/>
    <path d="M1436.175,754.251 L1436.175,798.666 L1401.767,798.666 L1401.767,754.251 L1436.175,754.251" fill="#134960" id="path908"/>
    <path d="M1436.175,760.17 L1436.175,785.634 L1423.118,798.666 L1401.767,798.666 L1401.767,794.534 L1432.839,763.475 L1436.175,760.17" fill="#30768C" id="path910"/>
    <path d="M1432.839,754.264 L1432.839,759.834 L1401.792,790.88 L1401.792,781.829 L1429.401,754.264 L1432.839,754.264" fill="#30768C" id="path912"/>
    <path d="M1437.327,750.882 L1437.327,802.033 L1432.839,802.033 L1432.839,750.882 L1437.327,750.882" fill="#FFFFFF" id="path914"/>
    <path d="M1127.28,684.945 L1126.218,684.945 L1126.218,633.82 L1127.28,633.82 L1127.28,684.945" fill="#BABABC" id="path916"/>
    <path d="M1126.217,684.945 L1086.971,684.945 L1086.971,633.82 L1126.217,633.82 L1126.217,684.945" fill="#FFFFFF" id="path918"/>
    <path d="M1125.078,637.149 L1125.078,681.59 L1090.67,681.59 L1090.67,637.149 L1125.078,637.149" fill="#134960" id="path920"/>
    <path d="M1126.217,641.905 L1126.217,667.375 L1112.009,681.59 L1090.67,681.59 L1090.67,677.446 L1121.723,646.393 L1126.217,641.905" fill="#30768C" id="path922"/>
    <path d="M1121.723,637.149 L1121.723,642.732 L1090.67,673.804 L1090.67,664.727 L1118.285,637.149 L1121.723,637.149" fill="#30768C" id="path924"/>
    <path d="M1126.217,633.795 L1126.217,684.945 L1121.723,684.945 L1121.723,633.795 L1126.217,633.795" fill="#FFFFFF" id="path926"/>
    <path d="M1167.564,684.945 L1166.494,684.945 L1166.494,633.814 L1167.564,633.814 L1167.564,684.945" fill="#BABABC" id="path928"/>
    <path d="M1166.495,684.945 L1127.28,684.945 L1127.28,633.814 L1166.495,633.814 L1166.495,684.945" fill="#FFFFFF" id="path930"/>
    <path d="M1165.361,637.149 L1165.361,681.571 L1130.96,681.571 L1130.96,637.149 L1165.361,637.149" fill="#134960" id="path932"/>
    <path d="M1166.507,641.905 L1166.507,667.375 L1152.311,681.571 L1130.96,681.571 L1130.96,677.446 L1162.019,646.393 L1166.507,641.905" fill="#30768C" id="path934"/>
    <path d="M1162.019,637.149 L1162.019,642.732 L1130.96,673.779 L1130.96,664.727 L1158.588,637.149 L1162.019,637.149" fill="#30768C" id="path936"/>
    <path d="M1166.507,633.782 L1166.507,684.945 L1162.019,684.945 L1162.019,633.782 L1166.507,633.782" fill="#FFFFFF" id="path938"/>
    <path d="M1207.86,684.945 L1206.79,684.945 L1206.79,633.795 L1207.86,633.795 L1207.86,684.945" fill="#BABABC" id="path940"/>
    <path d="M1206.791,684.945 L1167.564,684.945 L1167.564,633.795 L1206.791,633.795 L1206.791,684.945" fill="#FFFFFF" id="path942"/>
    <path d="M1205.671,637.137 L1205.671,681.571 L1171.269,681.571 L1171.269,637.137 L1205.671,637.137" fill="#134960" id="path944"/>
    <path d="M1206.791,641.898 L1206.791,667.368 L1192.62,681.571 L1171.269,681.571 L1171.269,677.446 L1202.322,646.393 L1206.791,641.898" fill="#30768C" id="path946"/>
    <path d="M1202.322,637.137 L1202.322,642.732 L1171.269,673.779 L1171.269,664.727 L1198.884,637.137 L1202.322,637.137" fill="#30768C" id="path948"/>
    <path d="M1206.791,633.782 L1206.791,684.932 L1202.322,684.932 L1202.322,633.782 L1206.791,633.782" fill="#FFFFFF" id="path950"/>
    <path d="M1248.169,684.945 L1247.099,684.945 L1247.099,633.795 L1248.169,633.795 L1248.169,684.945" fill="#BABABC" id="path952"/>
    <path d="M1247.1,684.945 L1207.86,684.945 L1207.86,633.795 L1247.1,633.795 L1247.1,684.945" fill="#FFFFFF" id="path954"/>
    <path d="M1245.954,637.137 L1245.954,681.564 L1211.572,681.564 L1211.572,637.137 L1245.954,637.137" fill="#134960" id="path956"/>
    <path d="M1247.106,641.898 L1247.106,667.368 L1232.904,681.564 L1211.572,681.564 L1211.572,677.439 L1242.612,646.393 L1247.106,641.898" fill="#30768C" id="path958"/>
    <path d="M1242.612,637.137 L1242.612,642.732 L1211.572,673.773 L1211.572,664.727 L1239.174,637.137 L1242.612,637.137" fill="#30768C" id="path960"/>
    <path d="M1247.106,633.782 L1247.106,684.932 L1242.612,684.932 L1242.612,633.782 L1247.106,633.782" fill="#FFFFFF" id="path962"/>
    <path d="M1288.453,684.932 L1287.383,684.932 L1287.383,633.782 L1288.453,633.782 L1288.453,684.932" fill="#BABABC" id="path964"/>
    <path d="M1287.383,684.932 L1248.169,684.932 L1248.169,633.782 L1287.383,633.782 L1287.383,684.932" fill="#FFFFFF" id="path966"/>
    <path d="M1286.27,637.137 L1286.27,681.564 L1251.862,681.564 L1251.862,637.137 L1286.27,637.137" fill="#134960" id="path968"/>
    <path d="M1287.396,641.898 L1287.396,667.356 L1273.2,681.564 L1251.862,681.564 L1251.862,677.439 L1282.908,646.393 L1287.396,641.898" fill="#30768C" id="path970"/>
    <path d="M1282.908,637.137 L1282.908,642.72 L1251.862,673.773 L1251.862,664.727 L1279.484,637.137 L1282.908,637.137" fill="#30768C" id="path972"/>
    <path d="M1287.396,633.782 L1287.396,684.919 L1282.908,684.919 L1282.908,633.782 L1287.396,633.782" fill="#FFFFFF" id="path974"/>
    <path d="M1327.699,684.932 L1288.453,684.932 L1288.453,633.782 L1327.699,633.782 L1327.699,684.932" fill="#FFFFFF" id="path976"/>
    <path d="M1326.572,637.13 L1326.572,681.552 L1292.152,681.552 L1292.152,637.13 L1326.572,637.13" fill="#134960" id="path978"/>
    <path d="M1326.572,643.006 L1326.572,668.489 L1313.503,681.552 L1292.152,681.552 L1292.152,677.427 L1326.572,643.006" fill="#30768C" id="path980"/>
    <path d="M1323.198,637.137 L1323.198,642.72 L1292.152,673.773 L1292.152,664.714 L1319.767,637.137 L1323.198,637.137" fill="#30768C" id="path982"/>
    <path d="M1327.699,633.769 L1327.699,684.907 L1323.198,684.907 L1323.198,633.769 L1327.699,633.769" fill="#FFFFFF" id="path984"/>
    <path d="M314.16,684.945 L313.097,684.945 L313.097,633.82 L314.16,633.82 L314.16,684.945" fill="#BABABC" id="path986"/>
    <path d="M313.097,684.945 L273.857,684.945 L273.857,633.82 L313.097,633.82 L313.097,684.945" fill="#FFFFFF" id="path988"/>
    <path d="M311.97,637.149 L311.97,681.59 L277.556,681.59 L277.556,637.149 L311.97,637.149" fill="#134960" id="path990"/>
    <path d="M313.097,641.905 L313.097,667.375 L298.888,681.59 L277.556,681.59 L277.556,677.446 L308.603,646.393 L313.097,641.905" fill="#30768C" id="path992"/>
    <path d="M308.603,637.149 L308.603,642.732 L277.556,673.804 L277.556,664.727 L305.171,637.149 L308.603,637.149" fill="#30768C" id="path994"/>
    <path d="M313.097,633.795 L313.097,684.945 L308.603,684.945 L308.603,633.795 L313.097,633.795" fill="#FFFFFF" id="path996"/>
    <path d="M354.456,684.945 L353.386,684.945 L353.386,633.814 L354.456,633.814 L354.456,684.945" fill="#BABABC" id="path998"/>
    <path d="M353.387,684.945 L314.16,684.945 L314.16,633.814 L353.387,633.814 L353.387,684.945" fill="#FFFFFF" id="path1000"/>
    <path d="M352.254,637.149 L352.254,681.571 L317.852,681.571 L317.852,637.149 L352.254,637.149" fill="#134960" id="path1002"/>
    <path d="M353.399,641.905 L353.399,667.375 L339.197,681.571 L317.852,681.571 L317.852,677.446 L348.905,646.393 L353.399,641.905" fill="#30768C" id="path1004"/>
    <path d="M348.905,637.149 L348.905,642.732 L317.852,673.779 L317.852,664.727 L345.474,637.149 L348.905,637.149" fill="#30768C" id="path1006"/>
    <path d="M353.4,633.782 L353.4,684.945 L348.905,684.945 L348.905,633.782 L353.4,633.782" fill="#FFFFFF" id="path1008"/>
    <path d="M394.753,684.945 L393.683,684.945 L393.683,633.795 L394.753,633.795 L394.753,684.945" fill="#BABABC" id="path1010"/>
    <path d="M393.683,684.945 L354.456,684.945 L354.456,633.795 L393.683,633.795 L393.683,684.945" fill="#FFFFFF" id="path1012"/>
    <path d="M392.55,637.137 L392.55,681.571 L358.148,681.571 L358.148,637.137 L392.55,637.137" fill="#134960" id="path1014"/>
    <path d="M393.683,641.898 L393.683,667.368 L379.5,681.571 L358.148,681.571 L358.148,677.446 L389.208,646.393 L393.683,641.898" fill="#30768C" id="path1016"/>
    <path d="M389.208,637.137 L389.208,642.732 L358.148,673.779 L358.148,664.727 L385.77,637.137 L389.208,637.137" fill="#30768C" id="path1018"/>
    <path d="M393.683,633.782 L393.683,684.932 L389.208,684.932 L389.208,633.782 L393.683,633.782" fill="#FFFFFF" id="path1020"/>
    <path d="M435.049,684.945 L433.986,684.945 L433.986,633.795 L435.049,633.795 L435.049,684.945" fill="#BABABC" id="path1022"/>
    <path d="M433.986,684.945 L394.753,684.945 L394.753,633.795 L433.986,633.795 L433.986,684.945" fill="#FFFFFF" id="path1024"/>
    <path d="M432.846,637.137 L432.846,681.564 L398.458,681.564 L398.458,637.137 L432.846,637.137" fill="#134960" id="path1026"/>
    <path d="M433.999,641.898 L433.999,667.368 L419.783,681.564 L398.458,681.564 L398.458,677.439 L429.504,646.393 L433.999,641.898" fill="#30768C" id="path1028"/>
    <path d="M429.504,637.137 L429.504,642.732 L398.458,673.773 L398.458,664.727 L426.067,637.137 L429.504,637.137" fill="#30768C" id="path1030"/>
    <path d="M433.999,633.782 L433.999,684.932 L429.504,684.932 L429.504,633.782 L433.999,633.782" fill="#FFFFFF" id="path1032"/>
    <path d="M475.339,684.932 L474.276,684.932 L474.276,633.782 L475.339,633.782 L475.339,684.932" fill="#BABABC" id="path1034"/>
    <path d="M474.276,684.932 L435.049,684.932 L435.049,633.782 L474.276,633.782 L474.276,684.932" fill="#FFFFFF" id="path1036"/>
    <path d="M473.155,637.137 L473.155,681.564 L438.748,681.564 L438.748,637.137 L473.155,637.137" fill="#134960" id="path1038"/>
    <path d="M474.289,641.898 L474.289,667.356 L460.086,681.564 L438.748,681.564 L438.748,677.439 L469.801,646.393 L474.289,641.898" fill="#30768C" id="path1040"/>
    <path d="M469.801,637.137 L469.801,642.72 L438.748,673.773 L438.748,664.727 L466.369,637.137 L469.801,637.137" fill="#30768C" id="path1042"/>
    <path d="M474.289,633.782 L474.289,684.919 L469.801,684.919 L469.801,633.782 L474.289,633.782" fill="#FFFFFF" id="path1044"/>
    <path d="M514.585,684.932 L475.339,684.932 L475.339,633.782 L514.585,633.782 L514.585,684.932" fill="#FFFFFF" id="path1046"/>
    <path d="M513.452,637.13 L513.452,681.552 L479.044,681.552 L479.044,637.13 L513.452,637.13" fill="#134960" id="path1048"/>
    <path d="M513.452,643.006 L513.452,668.489 L500.389,681.552 L479.044,681.552 L479.044,677.427 L513.452,643.006" fill="#30768C" id="path1050"/>
    <path d="M510.097,637.137 L510.097,642.72 L479.05,673.773 L479.05,664.714 L506.659,637.137 L510.097,637.137" fill="#30768C" id="path1052"/>
    <path d="M514.585,633.769 L514.585,684.907 L510.097,684.907 L510.097,633.769 L514.585,633.769" fill="#FFFFFF" id="path1054"/>
    <path d="M684.014,490.86 L550.266,624.609 L545.071,570.517 C581.147,534.913 629.006,507.138 684.014,490.86" fill="#30768C" id="path1056"/>
    <path d="M716.079,482.846 L672.823,526.096 L669.054,529.877 L612.34,586.585 L608.654,590.277 L606.827,592.104 L602.855,596.07 L553.958,644.973 L550.304,648.621 L548.962,634.367 L551.024,632.305 L552.603,630.726 L587.259,596.07 L607.573,575.756 L611.265,572.064 L668.298,515.032 L672.066,511.263 L695.767,487.563 C702.432,485.825 709.218,484.233 716.08,482.846" fill="#30768C" id="path1058"/>
    <path d="M858.88,478.759 L796.965,540.667 L745.535,592.104 L741.569,596.07 L738.946,598.693 L735.056,602.589 L679.291,658.342 L675.522,662.117 L643.775,693.863 L555.193,693.863 L615.714,633.343 L652.98,596.07 L656.946,592.104 L671.359,577.698 L675.166,573.891 L732.955,516.101 L736.801,512.25 L773.71,475.334 C781.368,474.869 789.154,474.633 796.965,474.633 L801.135,474.633 C820.856,474.633 840.145,476.059 858.88,478.759" fill="#30768C" id="path1060"/>
    <path d="M877.055,481.77 L865.749,493.088 L861.656,497.163 L801.135,557.69 L800.938,557.894 L797.169,561.656 L796.965,561.866 L739.424,619.408 L735.579,623.259 L680.284,678.541 L676.516,682.322 L664.968,693.864 L655.164,693.864 L679.813,669.221 L735.33,613.697 L739.22,609.808 L756.924,592.104 L796.965,552.056 L801.135,547.893 L861.898,487.13 L865.985,483.037 L868.729,480.306 C871.498,480.739 874.286,481.261 877.055,481.77" fill="#30768C" id="path1062"/>
    <path d="M744.262,478.122 L736.158,486.22 L732.274,490.109 L673.892,548.491 L670.124,552.253 L626.313,596.07 L613.925,608.458 L610.239,612.15 L556.027,666.363 L554.436,667.948 L552.367,670.017 L551.501,661.041 L553.601,658.94 L555.155,657.393 L609.565,602.977 L613.257,599.291 L616.472,596.07 L620.444,592.104 L669.691,542.857 L732.039,480.503 L732.789,479.745 L736.004,479.274 C738.748,478.835 741.479,478.478 744.261,478.122" fill="#30768C" id="path1064"/>
    <path d="M946.399,502.013 L929.605,518.8 L925.436,522.964 L863.451,584.917 L863.451,584.955 L859.402,589.01 L852.329,596.07 L801.135,647.271 L800.938,647.468 L797.169,651.199 L754.498,693.863 L689.852,693.863 L736.158,647.545 L740.016,643.706 L791.612,592.104 L796.966,586.743 L865.113,518.603 L897.42,486.296 C907.465,488.715 917.269,491.579 926.831,494.788 C928.142,495.221 929.453,495.66 930.72,496.137 C936.036,497.958 941.237,499.95 946.399,502.013" fill="#30768C" id="path1066"/>
    <path d="M963.262,509.201 L924.207,548.249 L880.352,592.104 L876.386,596.07 L862.891,609.566 L858.803,613.659 L801.135,671.328 L796.965,675.485 L782.565,689.898 L778.593,693.863 L762.99,693.863 L766.962,689.898 L796.965,659.888 L859.205,597.661 L864.756,592.104 L925.003,531.851 L929.173,527.687 L952.427,504.432 C956.075,505.986 959.691,507.571 963.262,509.201" fill="#30768C" id="path1068"/>
    <path d="M1046.809,564.361 L1019.066,592.104 L1015.094,596.07 L987.033,624.131 L982.748,628.422 L917.307,693.863 L828.718,693.863 L861.617,660.964 L921.629,600.953 L925.799,596.796 L996.085,526.509 C1014.654,537.656 1031.639,550.356 1046.809,564.361" fill="#30768C" id="path1070"/>
    <path d="M1053.276,570.517 L1052.354,579.996 L1050.183,582.186 L1036.287,596.07 L985.366,646.985 L981.075,651.275 L942.466,689.898 L938.5,693.863 L928.696,693.863 L1051.215,571.351 L1052.64,569.919 L1053.277,570.517" fill="#30768C" id="path1072"/>
    <path d="M1039.819,689.898 L982.233,689.898 L985.365,646.985 L986.123,636.436 L987.032,624.131 L989.056,596.07 L1048.826,596.07 z M978.267,689.898 L921.234,689.898 L925.799,596.796 L925.835,596.07 L985.095,596.07 L982.752,628.422 L981.836,640.721 L981.078,651.275 z M917.268,689.898 L860.904,689.898 L861.617,660.964 L862.889,609.566 L863.201,596.07 L921.864,596.07 L921.629,600.953 z M856.938,689.898 L801.135,689.898 L801.135,596.07 L859.236,596.07 L859.2,597.661 L858.8,613.659 L857.533,665.051 z M1053.194,592.104 L1056.09,562.216 C1054.861,561.032 1053.671,559.835 1052.398,558.727 L1051.214,571.351 L1050.182,582.186 L1049.227,592.104 L989.337,592.104 L993.946,528.642 L994.812,516.496 C993.545,515.745 992.272,514.993 991.005,514.274 L989.655,532.933 L985.365,592.104 L926.034,592.104 L928.377,544.079 L929.173,527.687 L929.606,518.8 L930.719,496.138 L931.114,487.811 C929.802,487.327 928.53,486.894 927.225,486.461 L926.829,494.788 L925.435,522.964 L925.001,531.851 L924.206,548.249 L922.067,592.104 L863.29,592.104 L863.452,584.955 L863.452,584.917 L865.114,518.603 L865.751,493.089 L865.986,483.037 L866.266,471.814 C864.961,471.616 863.605,471.413 862.3,471.215 L861.899,487.13 L861.657,497.163 L861.033,522.69 L859.404,589.011 L859.313,592.104 L801.129,592.104 L801.129,466.689 L797.163,466.689 L797.163,693.864 L1043.423,693.864 L1043.823,689.898 L1052.831,596.07 L1058.783,596.07 L1059.141,592.104 L1053.188,592.104" fill="#26C5D2" id="path1074"/>
    <path d="M797.169,651.199 L797.169,586.547 L796.965,586.744 L796.965,592.104 L791.611,592.104 L787.639,596.07 L796.965,596.07 L796.965,659.888 L800.937,655.916 L800.937,647.468 z M796.965,689.898 L741.167,689.898 L740.014,643.706 L739.422,619.408 L739.219,609.808 L738.944,598.693 L738.854,596.07 L796.956,596.07 z M680.844,689.898 L680.284,678.541 L679.813,669.221 L679.292,658.342 L676.236,596.07 L734.898,596.07 L735.061,602.589 L735.335,613.697 L735.584,623.259 L736.163,647.545 L737.208,689.898 z M619.846,689.898 L615.714,633.343 L613.926,608.458 L613.258,599.291 L613.023,596.07 L672.265,596.07 L675.524,662.117 L676.04,672.99 L676.518,682.322 L676.881,689.898 z M558.287,689.898 L556.027,666.363 L555.155,657.393 L553.959,644.973 L552.604,630.726 L551.853,623.017 L549.275,596.07 L609.051,596.07 L609.567,602.977 L610.242,612.15 L612.025,637.028 L615.876,689.898 z M796.965,466.689 L796.965,592.104 L738.787,592.104 L736.8,512.25 L736.158,486.22 L736.014,479.274 L735.822,471.215 C734.51,471.412 733.161,471.616 731.85,471.813 L732.047,480.503 L732.281,490.109 L732.963,516.101 L734.829,592.104 L676.046,592.104 L675.174,573.891 L673.9,548.491 L673.467,539.076 L672.83,526.096 L672.072,511.263 L671.722,503.172 L671.283,494.909 L670.895,486.461 C669.578,486.894 668.305,487.327 667,487.811 L667.4,496.22 L667.947,506.928 L668.304,515.032 L669.062,529.877 L669.699,542.857 L670.132,552.253 L671.366,577.698 L672.074,592.104 L612.743,592.104 L612.348,586.585 L611.273,572.064 L610.713,564.17 L607.747,523.288 L607.11,514.274 C605.843,514.993 604.576,515.745 603.303,516.496 L603.978,525.51 L603.978,525.548 L607.033,567.862 L607.58,575.756 L608.663,590.277 L608.771,592.104 L548.881,592.104 L546.703,568.964 L545.704,558.727 C544.437,559.835 543.246,561.032 542.011,562.216 L544.908,592.104 L538.962,592.104 L539.319,596.07 L551.504,693.863 L554.68,693.863 L800.94,693.863 L800.94,466.689 z M797.169,651.199 L797.169,586.547 L796.965,586.744 L796.965,592.104 L791.611,592.104 L787.639,596.07 L796.965,596.07 L796.965,659.888 L800.937,655.916 L800.937,647.468 z M797.169,651.199 L797.169,586.547 L796.965,586.744 L796.965,592.104 L791.611,592.104 L787.639,596.07 L796.965,596.07 L796.965,659.888 L800.937,655.916 L800.937,647.468 L797.168,651.199" fill="#26C5D2" id="path1076"/>
    <path d="M630.757,736.534 L630.757,758.949 L967.559,758.949 L967.559,736.534 L630.757,736.534" fill="#FFFFFF" id="path1078"/>
    <path d="M699.051,822.034 L797.169,822.034 L797.169,775.187 L699.051,775.187 L699.051,822.034" fill="#134960" id="path1080"/>
    <path d="M797.169,771.285 L797.169,752.869 L699.051,752.869 L699.051,771.285 L797.169,771.285" fill="#134960" id="path1082"/>
    <path d="M662.949,771.285 L662.949,748.968 L662.931,748.968 L662.931,825.955 L662.949,825.955 L662.949,775.187 L662.949,771.285" fill="#134960" id="path1084"/>
    <path d="M801.103,775.187 L801.103,825.955 L801.103,748.968 z" fill="#134960" id="path1086"/>
    <path d="M666.877,775.187 L666.877,822.034 L695.142,822.034 L695.142,775.187 L668.831,775.187 L666.877,775.187" fill="#134960" id="path1088"/>
    <path d="M668.831,752.869 L666.877,752.869 L666.877,771.285 L695.142,771.285 L695.142,752.869 L668.831,752.869" fill="#134960" id="path1090"/>
    <path d="M662.949,825.955 L662.949,825.955 L668.831,825.955 z" fill="#D7DDDD" id="path1092"/>
    <path d="M668.831,825.955 L668.831,825.955 L695.142,825.955 z" fill="#D7DDDD" id="path1094"/>
    <path d="M695.142,825.955 L695.142,825.955 L699.051,825.955 z" fill="#D7DDDD" id="path1096"/>
    <path d="M636.645,775.187 L634.691,775.187 L634.691,822.034 L662.949,822.034 L662.949,775.187 L636.645,775.187" fill="#134960" id="path1098"/>
    <path d="M636.645,752.869 L634.691,752.869 L634.691,771.285 L662.962,771.285 L662.962,752.869 L636.645,752.869" fill="#134960" id="path1100"/>
    <path d="M662.962,771.285 L634.691,771.285 L634.691,752.869 L662.962,752.869 z M662.962,822.034 L634.691,822.034 L634.691,775.187 L662.962,775.187 z M662.962,748.968 L630.77,748.968 L630.77,825.955 L666.871,825.955 L666.871,822.034 L666.871,775.187 L666.871,771.285 L666.871,752.869 L666.871,748.968 L662.962,748.968" fill="#FFFFFF" id="path1102"/>
    <path d="M733.993,825.955 L730.065,825.955 L730.065,748.968 L733.993,748.968 L733.993,825.955" fill="#FFFFFF" id="path1104"/>
    <path d="M768.904,825.955 L765.008,825.955 L765.008,748.968 L768.904,748.968 L768.904,825.955" fill="#FFFFFF" id="path1106"/>
    <path d="M797.169,822.034 L699.051,822.034 L699.051,775.187 L797.169,775.187 z M695.142,771.285 L666.877,771.285 L666.877,752.869 L695.142,752.869 z M695.142,822.034 L666.877,822.034 L666.877,775.187 L695.142,775.187 z M797.022,752.869 L797.022,771.285 L699.051,771.285 L699.051,752.869 z M699.051,748.968 L662.949,748.968 L662.949,825.955 L801.103,825.955 L801.103,775.187 L801.103,771.285 L801.103,748.968 L699.051,748.968" fill="#FFFFFF" id="path1108"/>
    <path d="M865.513,822.034 L963.631,822.034 L963.631,775.187 L865.513,775.187 L865.513,822.034" fill="#134960" id="path1110"/>
    <path d="M963.631,771.285 L963.631,752.869 L865.513,752.869 L865.513,771.285 L963.631,771.285" fill="#134960" id="path1112"/>
    <path d="M829.418,771.285 L829.418,748.968 L829.4,748.968 L829.4,825.955 L829.418,825.955 L829.418,775.187 L829.418,771.285" fill="#134960" id="path1114"/>
    <path d="M967.559,775.187 L967.559,825.955 L967.565,825.955 L967.565,748.968 L967.559,748.968 L967.559,771.285 L967.559,775.187" fill="#134960" id="path1116"/>
    <path d="M833.333,775.187 L833.333,822.034 L861.605,822.034 L861.605,775.187 L835.301,775.187 L833.333,775.187" fill="#134960" id="path1118"/>
    <path d="M835.301,752.869 L833.333,752.869 L833.333,771.285 L861.605,771.285 L861.605,752.869 L835.301,752.869" fill="#134960" id="path1120"/>
    <path d="M797.232,771.285 L797.232,748.968 L797.214,748.968 L797.214,825.955 L797.232,825.955 L797.232,775.187 L797.232,771.285" fill="#134960" id="path1122"/>
    <path d="M803.102,775.187 L801.154,775.187 L801.154,822.034 L829.412,822.034 L829.412,775.187 L803.102,775.187" fill="#134960" id="path1124"/>
    <path d="M803.102,752.869 L801.154,752.869 L801.154,771.285 L829.425,771.285 L829.425,752.869 L803.102,752.869" fill="#134960" id="path1126"/>
    <path d="M829.425,771.285 L801.154,771.285 L801.154,752.869 L829.425,752.869 z M829.425,822.034 L801.154,822.034 L801.154,775.187 L829.425,775.187 z M829.425,748.968 L797.232,748.968 L797.232,825.955 L833.333,825.955 L833.333,822.034 L833.333,775.187 L833.333,771.285 L833.333,752.869 L833.333,748.968 L829.425,748.968" fill="#FFFFFF" id="path1128"/>
    <path d="M900.45,825.955 L896.534,825.955 L896.534,748.968 L900.45,748.968 L900.45,825.955" fill="#FFFFFF" id="path1130"/>
    <path d="M935.367,825.955 L931.464,825.955 L931.464,748.968 L935.367,748.968 L935.367,825.955" fill="#FFFFFF" id="path1132"/>
    <path d="M963.631,822.034 L865.513,822.034 L865.513,775.187 L963.631,775.187 z M861.605,771.285 L833.333,771.285 L833.333,752.869 L861.605,752.869 z M861.605,822.034 L833.333,822.034 L833.333,775.187 L861.605,775.187 z M963.479,752.869 L963.479,771.285 L865.513,771.285 L865.513,752.869 z M865.513,748.968 L829.418,748.968 L829.418,825.955 L967.559,825.955 L967.559,775.187 L967.559,771.285 L967.559,748.968 L865.513,748.968" fill="#FFFFFF" id="path1134"/>
    <path d="M797.213,827.535 L630.725,827.535 L630.725,825.478 L797.213,825.478 L797.213,827.535" fill="#FFFFFF" id="path1136"/>
    <path d="M797.213,827.535 L630.725,827.535 L630.725,833.03 L797.213,833.03 L797.213,827.535" fill="#D7DDDD" id="path1138"/>
    <path d="M797.213,834.124 L625.575,834.124 L625.575,832.075 L797.213,832.075 L797.213,834.124" fill="#FFFFFF" id="path1140"/>
    <path d="M797.213,834.124 L625.575,834.124 L625.575,839.63 L797.213,839.63 L797.213,834.124" fill="#D7DDDD" id="path1142"/>
    <path d="M797.213,840.687 L618.611,840.687 L618.611,838.638 L797.213,838.638 L797.213,840.687" fill="#FFFFFF" id="path1144"/>
    <path d="M797.213,840.687 L618.611,840.687 L618.611,846.182 L797.213,846.182 L797.213,840.687" fill="#D7DDDD" id="path1146"/>
    <path d="M790.605,827.535 L967.565,827.535 L967.565,825.478 L790.605,825.478 L790.605,827.535" fill="#FFFFFF" id="path1148"/>
    <path d="M790.605,827.535 L967.565,827.535 L967.565,833.03 L790.605,833.03 L790.605,827.535" fill="#D7DDDD" id="path1150"/>
    <path d="M790.605,834.124 L973.779,834.124 L973.779,832.075 L790.605,832.075 L790.605,834.124" fill="#FFFFFF" id="path1152"/>
    <path d="M790.605,834.124 L973.779,834.124 L973.779,839.63 L790.605,839.63 L790.605,834.124" fill="#D7DDDD" id="path1154"/>
    <path d="M790.605,840.687 L979.737,840.687 L979.737,838.638 L790.605,838.638 L790.605,840.687" fill="#FFFFFF" id="path1156"/>
    <path d="M790.605,840.687 L979.737,840.687 L979.737,846.182 L790.605,846.182 L790.605,840.687" fill="#D7DDDD" id="path1158"/>
    <path d="M608.406,639.193 L602.639,679.878 L614.174,679.878 z M600.232,695.041 L596.445,718.773 L580.224,718.773 L597.775,615.531 L619.196,615.531 L636.505,718.773 L620.132,718.773 L616.491,695.041 L600.232,695.041" fill="#30768C" id="path1160"/>
    <path d="M673.88,718.773 L658.302,718.773 L658.302,615.531 L673.88,615.531 L673.88,718.773" fill="#30768C" id="path1162"/>
    <path d="M730.365,640.415 C730.365,634.431 727.398,631.439 721.471,631.439 L712.075,631.439 L712.075,664.466 L721.471,664.466 C723.935,664.466 726.042,663.606 727.767,661.843 C729.505,660.092 730.365,657.979 730.365,655.502 z M721.051,615.531 C729.734,615.531 736.107,617.931 740.168,622.705 C743.746,626.875 745.522,632.7 745.522,640.167 L745.522,655.165 C745.522,662.467 742.753,668.654 737.208,673.709 L748.737,718.773 L731.899,718.773 L722.452,679.878 L721.051,679.878 L712.075,679.878 L712.075,718.773 L696.498,718.773 L696.498,615.531 L721.051,615.531" fill="#30768C" id="path1164"/>
    <path d="M804.642,640.415 C804.642,637.735 803.827,635.558 802.217,633.915 C800.6,632.26 798.442,631.439 795.755,631.439 L786.353,631.439 L786.353,664.466 L795.755,664.466 C798.213,664.466 800.326,663.606 802.045,661.843 C803.783,660.092 804.642,657.979 804.642,655.502 z M795.335,615.531 C802.917,615.531 808.958,617.931 813.459,622.705 C817.635,627.269 819.717,633.094 819.717,640.167 L819.717,655.165 C819.717,661.977 817.349,667.801 812.593,672.627 C807.844,677.471 802.096,679.878 795.335,679.878 L786.353,679.878 L786.353,718.773 L770.782,718.773 L770.782,615.531 L795.335,615.531" fill="#30768C" id="path1166"/>
    <path d="M872.255,638.601 C872.255,636.124 871.396,634.03 869.664,632.299 C867.926,630.58 865.832,629.708 863.355,629.708 C860.879,629.708 858.765,630.58 857.015,632.299 C855.252,634.03 854.379,636.124 854.379,638.601 L854.379,695.137 C854.379,697.6 855.251,699.707 857.015,701.433 C858.765,703.164 860.879,704.023 863.355,704.023 C865.832,704.023 867.926,703.164 869.664,701.433 C871.396,699.707 872.255,697.6 872.255,695.137 z M863.769,614.219 C870.632,614.219 876.469,616.638 881.275,621.47 C886.082,626.302 888.488,632.127 888.488,638.945 L888.488,695.283 C888.488,702.158 886.069,707.99 881.237,712.808 C876.405,717.602 870.581,720.008 863.769,720.008 C856.9,720.008 851.082,717.596 846.307,712.758 C841.52,707.932 839.133,702.107 839.133,695.283 L839.133,638.945 C839.133,632.076 841.546,626.238 846.384,621.419 C851.215,616.626 857.015,614.219 863.769,614.219" fill="#30768C" id="path1168"/>
    <path d="M944.801,640.415 C944.801,634.431 941.841,631.439 935.908,631.439 L926.518,631.439 L926.518,664.466 L935.908,664.466 C938.372,664.466 940.478,663.606 942.21,661.843 C943.942,660.092 944.801,657.979 944.801,655.502 z M935.494,615.531 C944.171,615.531 950.543,617.931 954.611,622.705 C958.176,626.875 959.965,632.7 959.965,640.167 L959.965,655.165 C959.965,662.467 957.189,668.654 951.644,673.709 L963.179,718.773 L946.329,718.773 L936.895,679.878 L935.494,679.878 L926.518,679.878 L926.518,718.773 L910.941,718.773 L910.941,615.531 L935.494,615.531" fill="#30768C" id="path1170"/>
    <path d="M996.677,631.191 L980.119,631.191 L980.119,615.531 L1028.729,615.531 L1028.729,631.191 L1012.261,631.191 L1012.261,718.773 L996.677,718.773 L996.677,631.191" fill="#30768C" id="path1172"/>
    <path d="M598.743,629.517 L592.969,670.214 L604.51,670.214 z M590.562,685.378 L586.781,709.104 L570.561,709.104 L588.112,605.861 L609.533,605.861 L626.836,709.104 L610.462,709.104 L606.821,685.378 L590.562,685.378" fill="#FFFFFF" id="path1174"/>
    <path d="M664.216,709.104 L648.632,709.104 L648.632,605.861 L664.216,605.861 L664.216,709.104" fill="#FFFFFF" id="path1176"/>
    <path d="M720.701,630.752 C720.701,624.761 717.735,621.769 711.801,621.769 L702.412,621.769 L702.412,654.802 L711.801,654.802 C714.265,654.802 716.372,653.936 718.104,652.179 C719.836,650.422 720.701,648.309 720.701,645.839 z M711.388,605.861 C720.065,605.861 726.437,608.261 730.505,613.035 C734.07,617.211 735.858,623.036 735.858,630.497 L735.858,645.495 C735.858,652.797 733.083,658.984 727.544,664.039 L739.067,709.104 L722.229,709.104 L712.788,670.214 L711.388,670.214 L702.412,670.214 L702.412,709.104 L686.828,709.104 L686.828,605.861 L711.388,605.861" fill="#FFFFFF" id="path1178"/>
    <path d="M794.979,630.752 C794.979,628.072 794.163,625.894 792.553,624.246 C790.929,622.591 788.772,621.769 786.079,621.769 L776.69,621.769 L776.69,654.802 L786.079,654.802 C788.549,654.802 790.65,653.936 792.375,652.179 C794.12,650.422 794.979,648.309 794.979,645.839 z M785.672,605.861 C793.247,605.861 799.289,608.261 803.789,613.035 C807.972,617.593 810.053,623.418 810.053,630.497 L810.053,645.495 C810.053,652.307 807.685,658.131 802.93,662.957 C798.181,667.801 792.426,670.214 785.672,670.214 L776.69,670.214 L776.69,709.104 L761.112,709.104 L761.112,605.861 L785.672,605.861" fill="#FFFFFF" id="path1180"/>
    <path d="M862.591,628.931 C862.591,626.461 861.725,624.367 860,622.629 C858.255,620.91 856.162,620.044 853.685,620.044 C851.215,620.044 849.102,620.91 847.345,622.629 C845.587,624.367 844.709,626.461 844.709,628.931 L844.709,685.467 C844.709,687.93 845.588,690.038 847.345,691.769 C849.102,693.494 851.215,694.36 853.685,694.36 C856.162,694.36 858.256,693.494 860,691.769 C861.726,690.038 862.591,687.93 862.591,685.467 z M854.105,604.549 C860.968,604.549 866.806,606.969 871.612,611.8 C876.418,616.638 878.824,622.463 878.824,629.275 L878.824,685.62 C878.824,692.495 876.405,698.326 871.574,703.145 C866.736,707.939 860.911,710.339 854.105,710.339 C847.237,710.339 841.418,707.932 836.644,703.094 C831.857,698.256 829.463,692.438 829.463,685.62 L829.463,629.275 C829.463,622.4 831.882,616.568 836.714,611.749 C841.546,606.956 847.345,604.549 854.105,604.549" fill="#FFFFFF" id="path1182"/>
    <path d="M935.131,630.752 C935.131,624.761 932.165,621.769 926.244,621.769 L916.848,621.769 L916.848,654.802 L926.244,654.802 C928.708,654.802 930.815,653.936 932.54,652.179 C934.278,650.422 935.131,648.309 935.131,645.839 z M925.824,605.861 C934.507,605.861 940.88,608.261 944.941,613.035 C948.512,617.211 950.295,623.036 950.295,630.497 L950.295,645.495 C950.295,652.797 947.526,658.984 941.975,664.039 L953.51,709.104 L936.665,709.104 L927.225,670.214 L925.824,670.214 L916.848,670.214 L916.848,709.104 L901.271,709.104 L901.271,605.861 L925.824,605.861" fill="#FFFFFF" id="path1184"/>
    <path d="M987.013,621.521 L970.449,621.521 L970.449,605.861 L1019.066,605.861 L1019.066,621.521 L1002.591,621.521 L1002.591,709.104 L987.013,709.104 L987.013,621.521" fill="#FFFFFF" id="path1186"/>
  </g>
</svg>
