<?xml version="1.0" encoding="UTF-8" standalone="no"?>
<svg
   xmlns:dc="http://purl.org/dc/elements/1.1/"
   xmlns:cc="http://creativecommons.org/ns#"
   xmlns:rdf="http://www.w3.org/1999/02/22-rdf-syntax-ns#"
   xmlns:svg="http://www.w3.org/2000/svg"
   xmlns="http://www.w3.org/2000/svg"
   id="svg7237"
   version="1.1"
   viewBox="0 0 362.32178 155.06053"
   height="155.06053mm"
   width="362.32178mm">
  <defs
     id="defs7231" />
  <metadata
     id="metadata7234">
    <rdf:RDF>
      <cc:Work
         rdf:about="">
        <dc:format>image/svg+xml</dc:format>
        <dc:type
           rdf:resource="http://purl.org/dc/dcmitype/StillImage" />
        <dc:title></dc:title>
      </cc:Work>
    </rdf:RDF>
  </metadata>
  <g
     transform="translate(56.806722,-137.13941)"
     id="layer1">
    <path
       d="m 251.21801,149.88173 h -40.05137 l -0.69115,-12.74232 h 41.34772 l -0.60519,12.74232"
       id="path584"
       style="fill:#56e3e6;stroke-width:1.75417709" />
    <path
       d="M 251.38992,215.34417 H 211.4438 l -4.21003,-65.46244 h 47.91886 l -3.76271,65.46244"
       id="path586"
       style="fill:#56e3e6;stroke-width:1.75417709" />
    <path
       d="m 253.18444,184.11626 h -43.74742 l -2.20325,-34.23453 h 47.91886 l -1.96819,34.23453"
       id="path588"
       style="fill:#edfaff;stroke-width:1.75417709" />
    <path
       d="m 218.36403,169.14966 h -0.23159 l -0.45959,-11.94772 h 0.23855 l 0.45256,11.94772"
       id="path590"
       style="fill:#c6c6c8;stroke-width:1.75417709" />
    <path
       d="m 218.13248,169.14966 h -8.44637 l -0.72973,-11.94772 h 8.7165 l 0.45959,11.94772"
       id="path592"
       style="fill:#ffffff;stroke-width:1.75417709" />
    <path
       d="m 217.45361,157.98434 0.40694,10.3794 h -7.42368 l -0.61221,-10.3794 h 7.62892"
       id="path594"
       style="fill:#145b73;stroke-width:1.75417709" />
    <path
       d="m 217.7448,159.09121 0.2298,5.95364 -2.93299,3.31889 h -4.60472 l -0.0577,-0.96651 6.41679,-7.25703 0.949,-1.04899"
       id="path596"
       style="fill:#3b899e;stroke-width:1.75417709" />
    <path
       d="m 216.70633,157.98434 0.0564,1.30159 -6.43258,7.26054 -0.1263,-2.12079 5.74318,-6.44134 h 0.75956"
       id="path598"
       style="fill:#3b899e;stroke-width:1.75417709" />
    <path
       d="m 217.67288,157.1967 0.45959,11.95296 h -0.96655 l -0.49115,-11.95296 h 0.99813"
       id="path600"
       style="fill:#ffffff;stroke-width:1.75417709" />
    <path
       d="m 227.03668,169.14966 h -0.2298 l -0.18418,-11.95124 h 0.23683 l 0.17715,11.95124"
       id="path602"
       style="fill:#c6c6c8;stroke-width:1.75417709" />
    <path
       d="m 226.80688,169.14966 h -8.44285 l -0.45256,-11.95124 h 8.71123 l 0.18418,11.95124"
       id="path604"
       style="fill:#ffffff;stroke-width:1.75417709" />
    <path
       d="m 226.38588,157.98434 0.16489,10.37768 h -7.42368 l -0.37188,-10.37768 h 7.63068"
       id="path606"
       style="fill:#145b73;stroke-width:1.75417709" />
    <path
       d="m 226.65427,159.09121 0.0912,5.95364 -3.01368,3.31717 h -4.60471 l -0.0331,-0.96479 6.58693,-7.25703 0.97357,-1.04899"
       id="path608"
       style="fill:#3b899e;stroke-width:1.75417709" />
    <path
       d="m 225.64036,157.98434 0.0225,1.30159 -6.60097,7.25523 -0.0754,-2.11548 5.89404,-6.44134 h 0.75956"
       id="path610"
       style="fill:#3b899e;stroke-width:1.75417709" />
    <path
       d="m 226.6262,157.19319 0.18246,11.95647 h -0.9683 l -0.21574,-11.95647 h 1.00163"
       id="path612"
       style="fill:#ffffff;stroke-width:1.75417709" />
    <path
       d="m 235.70758,169.14966 h -0.22807 l 0.093,-11.95296 h 0.23503 l -0.1,11.95296"
       id="path614"
       style="fill:#c6c6c8;stroke-width:1.75417709" />
    <path
       d="m 235.47954,169.14966 h -8.44286 l -0.17715,-11.95296 h 8.713 l -0.093,11.95296"
       id="path616"
       style="fill:#ffffff;stroke-width:1.75417709" />
    <path
       d="m 235.31815,157.97903 -0.0754,10.38299 h -7.42192 l -0.12982,-10.38299 h 7.62716"
       id="path618"
       style="fill:#145b73;stroke-width:1.75417709" />
    <path
       d="m 235.55672,159.0877 -0.0458,5.95363 -3.0856,3.32069 h -4.60471 l -0.0126,-0.96479 6.75534,-7.25703 0.99286,-1.0525"
       id="path620"
       style="fill:#3b899e;stroke-width:1.75417709" />
    <path
       d="m 234.57438,157.97903 -0.007,1.3069 -6.76761,7.25523 -0.0265,-2.11548 6.03963,-6.44665 h 0.76131"
       id="path622"
       style="fill:#3b899e;stroke-width:1.75417709" />
    <path
       d="m 235.57251,157.19319 -0.093,11.95295 h -0.96305 l 0.063,-11.95295 h 0.99287"
       id="path624"
       style="fill:#ffffff;stroke-width:1.75417709" />
    <path
       d="m 244.38374,169.14966 h -0.2298 l 0.37188,-11.95296 h 0.23682 l -0.3789,11.95296"
       id="path626"
       style="fill:#c6c6c8;stroke-width:1.75417709" />
    <path
       d="m 244.15394,169.14966 h -8.44636 l 0.1,-11.95296 h 8.71826 l -0.37188,11.95296"
       id="path628"
       style="fill:#ffffff;stroke-width:1.75417709" />
    <path
       d="m 244.24867,157.97903 -0.31579,10.37947 h -7.41663 l 0.11052,-10.37947 h 7.6219"
       id="path630"
       style="fill:#145b73;stroke-width:1.75417709" />
    <path
       d="m 244.46969,159.0877 -0.18597,5.95363 -3.1698,3.31717 h -4.5977 l 0.0106,-0.96306 6.91496,-7.25524 1.02795,-1.0525"
       id="path632"
       style="fill:#3b899e;stroke-width:1.75417709" />
    <path
       d="m 243.50314,157.97903 -0.0371,1.3069 -6.93251,7.25523 0.0245,-2.11548 6.18699,-6.44665 h 0.7578"
       id="path634"
       style="fill:#3b899e;stroke-width:1.75417709" />
    <path
       d="m 244.52758,157.19319 -0.37015,11.95295 h -0.97181 l 0.34032,-11.95295 h 1.00164"
       id="path636"
       style="fill:#ffffff;stroke-width:1.75417709" />
    <path
       d="m 252.82835,169.14614 h -8.44461 l 0.3789,-11.95295 h 8.713 l -0.64729,11.95295"
       id="path638"
       style="fill:#ffffff;stroke-width:1.75417709" />
    <path
       d="m 253.1862,157.97731 -0.55606,10.38643 h -7.42543 l 0.35259,-10.38643 h 7.62891"
       id="path640"
       style="fill:#145b73;stroke-width:1.75417709" />
    <path
       d="m 253.11252,159.34733 -0.31751,5.95542 -2.98385,3.06099 h -4.60647 l 0.0332,-0.96651 7.09038,-7.26233 0.78411,-0.78757"
       id="path642"
       style="fill:#3b899e;stroke-width:1.75417709" />
    <path
       d="m 252.43892,157.97903 -0.0684,1.30339 -7.10267,7.25874 0.0719,-2.11548 6.34134,-6.44665 h 0.75781"
       id="path644"
       style="fill:#3b899e;stroke-width:1.75417709" />
    <path
       d="m 253.47739,157.19319 -0.64907,11.95116 h -0.96655 l 0.61744,-11.95116 h 0.99813"
       id="path646"
       style="fill:#ffffff;stroke-width:1.75417709" />
    <path
       d="m 218.78503,180.27811 h -0.22277 l -0.46138,-11.94765 h 0.23159 l 0.45256,11.94765"
       id="path648"
       style="fill:#c6c6c8;stroke-width:1.75417709" />
    <path
       d="m 218.56225,180.27811 h -8.19376 l -0.72974,-11.94765 h 8.46215 l 0.46138,11.94765"
       id="path650"
       style="fill:#ffffff;stroke-width:1.75417709" />
    <path
       d="m 217.88865,169.11107 0.40694,10.38119 h -7.20265 l -0.61048,-10.38119 h 7.40613"
       id="path652"
       style="fill:#145b73;stroke-width:1.75417709" />
    <path
       d="m 218.17283,170.21967 0.22979,5.9537 -2.84177,3.31889 h -4.46789 l -0.0564,-0.96479 6.2168,-7.25702 0.91919,-1.05078"
       id="path654"
       style="fill:#3b899e;stroke-width:1.75417709" />
    <path
       d="m 217.16417,169.11107 0.0524,1.30332 -6.23084,7.25881 -0.1263,-2.12079 5.566,-6.44134 h 0.73851"
       id="path656"
       style="fill:#3b899e;stroke-width:1.75417709" />
    <path
       d="m 218.1009,168.32343 0.46138,11.95468 h -0.93848 l -0.49115,-11.95468 h 0.96831"
       id="path658"
       style="fill:#ffffff;stroke-width:1.75417709" />
    <path
       d="m 227.20157,180.27811 h -0.22455 l -0.18418,-11.94944 h 0.22979 l 0.17894,11.94944"
       id="path660"
       style="fill:#c6c6c8;stroke-width:1.75417709" />
    <path
       d="m 226.97704,180.27811 h -8.19201 l -0.45256,-11.94944 h 8.46039 l 0.18418,11.94944"
       id="path662"
       style="fill:#ffffff;stroke-width:1.75417709" />
    <path
       d="m 226.56305,169.11107 0.16489,10.37768 h -7.20089 l -0.37367,-10.37768 h 7.40965"
       id="path664"
       style="fill:#145b73;stroke-width:1.75417709" />
    <path
       d="m 226.82443,170.21967 0.093,5.9537 -2.92245,3.31538 h -4.46789 l -0.0351,-0.96128 6.38696,-7.25702 0.9455,-1.05078"
       id="path666"
       style="fill:#3b899e;stroke-width:1.75417709" />
    <path
       d="m 225.83858,169.11107 0.0245,1.30332 -6.401,7.2553 -0.0772,-2.11728 5.71686,-6.44134 h 0.73676"
       id="path668"
       style="fill:#3b899e;stroke-width:1.75417709" />
    <path
       d="m 226.79636,168.32164 0.18245,11.95647 h -0.93848 l -0.21402,-11.95647 h 0.97006"
       id="path670"
       style="fill:#ffffff;stroke-width:1.75417709" />
    <path
       d="m 235.61285,180.27811 h -0.22104 l 0.093,-11.95468 h 0.2298 l -0.10177,11.95468"
       id="path672"
       style="fill:#c6c6c8;stroke-width:1.75417709" />
    <path
       d="m 235.39183,180.27811 h -8.19026 l -0.17894,-11.95468 h 8.46215 l -0.093,11.95468"
       id="path674"
       style="fill:#ffffff;stroke-width:1.75417709" />
    <path
       d="m 235.23746,169.10756 -0.0737,10.38119 h -7.20265 l -0.12982,-10.38119 h 7.40614"
       id="path676"
       style="fill:#145b73;stroke-width:1.75417709" />
    <path
       d="m 235.47076,170.21615 -0.0471,5.95371 -2.99438,3.31889 h -4.46788 l -0.0106,-0.963 6.55536,-7.2553 0.9648,-1.0543"
       id="path678"
       style="fill:#3b899e;stroke-width:1.75417709" />
    <path
       d="m 234.51649,169.10756 -0.007,1.30683 -6.57115,7.2553 -0.0265,-2.11728 5.86421,-6.44485 h 0.74026"
       id="path680"
       style="fill:#3b899e;stroke-width:1.75417709" />
    <path
       d="m 235.48479,168.32164 -0.093,11.95302 h -0.93322 l 0.0617,-11.95302 h 0.9648"
       id="path682"
       style="fill:#ffffff;stroke-width:1.75417709" />
    <path
       d="m 244.03114,180.27811 h -0.22276 l 0.37187,-11.95468 h 0.2298 l -0.37891,11.95468"
       id="path684"
       style="fill:#c6c6c8;stroke-width:1.75417709" />
    <path
       d="m 243.80836,180.27811 h -8.19551 l 0.10177,-11.95468 h 8.46566 l -0.37188,11.95468"
       id="path686"
       style="fill:#ffffff;stroke-width:1.75417709" />
    <path
       d="m 243.91011,169.10756 -0.31572,10.37947 H 236.397 l 0.11052,-10.37947 h 7.40263"
       id="path688"
       style="fill:#145b73;stroke-width:1.75417709" />
    <path
       d="m 244.12237,170.21615 -0.18418,5.95371 -3.07859,3.31717 h -4.46262 l 0.0106,-0.96307 6.7185,-7.25351 0.99638,-1.0543"
       id="path690"
       style="fill:#3b899e;stroke-width:1.75417709" />
    <path
       d="m 243.18739,169.10756 -0.0371,1.30683 -6.73253,7.25178 0.0212,-2.11376 6.01157,-6.44485 h 0.73675"
       id="path692"
       style="fill:#3b899e;stroke-width:1.75417709" />
    <path
       d="m 244.18025,168.32164 -0.36836,11.95302 h -0.94375 l 0.34032,-11.95302 h 0.97181"
       id="path694"
       style="fill:#ffffff;stroke-width:1.75417709" />
    <path
       d="m 252.22316,180.27466 h -8.19202 l 0.37891,-11.95302 h 8.4639 l -0.65079,11.95302"
       id="path696"
       style="fill:#ffffff;stroke-width:1.75417709" />
    <path
       d="m 252.58802,169.10577 -0.55433,10.38298 h -7.2044 l 0.35085,-10.38298 h 7.40789"
       id="path698"
       style="fill:#145b73;stroke-width:1.75417709" />
    <path
       d="m 252.5161,170.47578 -0.31751,5.95371 -2.89965,3.05926 h -4.46964 l 0.0332,-0.96128 6.8904,-7.26226 0.76307,-0.78943"
       id="path700"
       style="fill:#3b899e;stroke-width:1.75417709" />
    <path
       d="m 251.86179,169.10756 -0.065,1.30331 -6.9062,7.2553 0.0719,-2.11376 6.16243,-6.44485 h 0.73675"
       id="path702"
       style="fill:#3b899e;stroke-width:1.75417709" />
    <path
       d="m 252.87395,168.32164 -0.64907,11.95302 h -0.93848 l 0.61745,-11.95302 h 0.97006"
       id="path704"
       style="fill:#ffffff;stroke-width:1.75417709" />
    <path
       d="m 256.38231,151.12544 h -50.36769 l -0.36133,-5.32564 h 51.05006 l -0.32103,5.32564"
       id="path706"
       style="fill:#24cedb;stroke-width:1.75417709" />
    <path
       d="M 257.79442,148.46265 H 204.5797 l -0.39117,-5.5327 h 53.96025 l -0.35437,5.5327"
       id="path708"
       style="fill:#145b73;stroke-width:1.75417709" />
    <path
       d="m 254.1317,198.63037 h -45.96471 l -1.75417,-14.51411 h 49.47306 l -1.75418,14.51411"
       id="path710"
       style="fill:#24cedb;stroke-width:1.75417709" />
    <path
       d="M -32.702571,214.04079 H 281.42143 v 2.58568 H -32.702571 Z"
       id="path712"
       style="fill:#145b73;stroke-width:1.75417709" />
    <path
       d="m 200.07322,214.1706 -0.24205,2.46111 -7.26054,75.56823 H 56.151759 l -7.264043,-75.56823 -0.238546,-2.46111 1.847146,-1.82609 c 18.045196,-17.79262 44.796398,-27.99845 73.415794,-27.99845 h 0.88587 c 28.6194,0 55.38112,10.20583 73.41406,27.99845 l 1.86118,1.82609"
       id="path714"
       style="fill:#145b73;stroke-width:1.75417709" />
    <path
       d="M -26.582249,216.63171 H 275.29234 v 75.56823 H -26.582249 Z"
       id="path716"
       style="fill:#edfaff;stroke-width:1.75417709" />
    <path
       d="M -30.262514,216.63171 H 278.97085 v 14.51232 H -30.262514 Z"
       id="path718"
       style="fill:#24cedb;stroke-width:1.75417709" />
    <path
       d="m 196.65083,215.41783 -0.12279,1.21388 -0.53504,5.55551 -0.0983,1.09282 -6.62729,68.9199 H 59.454879 l -6.627283,-68.9199 -0.110521,-1.09282 -0.536762,-5.55551 -0.119273,-1.21388 0.743769,-0.73327 C 70.21675,197.50414 96.090862,187.65268 123.80336,187.62815 h 1.09285 c 5.70809,0 11.35128,0.42631 16.85413,1.24723 0.35961,0.053 0.73325,0.11072 1.09285,0.16509 5.77476,0.91745 11.39514,2.27513 16.798,4.03632 0.35961,0.11934 0.71045,0.23868 1.07181,0.37194 5.79405,1.9559 11.3197,4.40475 16.5033,7.29209 0.34906,0.19824 0.69991,0.40509 1.04899,0.61195 5.78528,3.32764 11.12149,7.22016 15.86829,11.63724 0.35086,0.30498 0.67886,0.63515 1.01742,0.96128 0.2526,0.23005 0.51396,0.48266 0.76658,0.7332 l 0.73325,0.73328"
       id="path720"
       style="fill:#24cedb;stroke-width:1.75417709" />
    <path
       d="m 194.37566,216.23875 -0.2544,2.61201 -7.05179,73.28427 H 61.640578 l -3.673244,-38.19898 -0.405223,-4.14691 -0.645559,-6.70269 -0.229795,-2.48213 -0.340316,-3.41191 -0.37015,-3.92758 -0.208778,-2.1208 -1.431408,-14.90528 c 9.940923,-9.81108 23.12883,-17.46457 38.286671,-21.95001 1.071806,-0.3189 2.145362,-0.62454 3.238212,-0.90863 1.836625,-0.47869 3.706579,-0.91746 5.597572,-1.29987 1.52088,-0.31758 3.0628,-0.60333 4.60472,-0.85427 1.05251,-0.16509 2.09975,-0.31559 3.16103,-0.44752 2.6681,-0.36134 5.36953,-0.61195 8.11482,-0.76835 2.16466,-0.12796 4.3644,-0.19293 6.5729,-0.19293 h 0.88587 c 5.46776,0 10.81625,0.39315 16.01037,1.1367 0.90691,0.13128 1.81558,0.27183 2.71371,0.42631 0.76307,0.11934 1.53139,0.26321 2.29446,0.40376 1.89101,0.36134 3.775,0.7771 5.61162,1.24723 4.68014,1.13843 9.18662,2.59093 13.49663,4.33103 0.55433,0.20884 1.11391,0.43824 1.66121,0.66657 1.00514,0.4283 2.00152,0.86481 2.98561,1.31393 3.1505,1.44188 6.15716,3.03818 9.04454,4.76959 5.11693,3.07153 9.79708,6.57115 13.97728,10.43032 0.54558,0.49261 1.08058,1.00689 1.60683,1.53139 l 0.17543,0.16509"
       id="path722"
       style="fill:#145b73;stroke-width:1.75417709" />
    <path
       d="M -56.806722,252.4941 H 305.51506 v 39.70584 H -56.806722 Z"
       id="path724"
       style="fill:#56e3e6;stroke-width:1.75417709" />
    <path
       d="M -56.806722,250.22771 H 305.51506 v 33.22585 H -56.806722 Z"
       id="path726"
       style="fill:#24cedb;stroke-width:1.75417709" />
    <path
       d="m -39.794713,265.95915 h 0.291188 v 14.0896 h -0.291188 z"
       id="path728"
       style="fill:#c6c6c8;stroke-width:1.75417709" />
    <path
       d="m -50.609214,265.95915 h 10.814501 v 14.0896 h -10.814501 z"
       id="path730"
       style="fill:#ffffff;stroke-width:1.75417709" />
    <path
       d="m -49.590036,266.88184 h 9.481328 v 12.2407 h -9.481328 z"
       id="path732"
       style="fill:#145b73;stroke-width:1.75417709" />
    <path
       d="m -39.794713,268.18695 v 7.02027 l -3.915324,3.91532 h -5.879999 v -1.14022 l 8.556873,-8.55862 1.23845,-1.23675"
       id="path734"
       style="fill:#3b899e;stroke-width:1.75417709" />
    <path
       d="m -41.033163,266.88184 v 1.5349 l -8.556873,8.55869 v -2.49797 l 7.611374,-7.59562 h 0.945499"
       id="path736"
       style="fill:#3b899e;stroke-width:1.75417709" />
    <path
       d="m -41.033163,265.95212 h 1.23845 v 14.09663 h -1.23845 z"
       id="path738"
       style="fill:#ffffff;stroke-width:1.75417709" />
    <path
       d="m -28.696033,265.95564 h 0.298216 v 14.09311 h -0.298216 z"
       id="path740"
       style="fill:#c6c6c8;stroke-width:1.75417709" />
    <path
       d="m -39.503519,265.95564 h 10.807486 v 14.09311 h -10.807486 z"
       id="path742"
       style="fill:#ffffff;stroke-width:1.75417709" />
    <path
       d="m -38.486098,266.88184 h 9.479577 v 12.23367 h -9.479577 z"
       id="path744"
       style="fill:#145b73;stroke-width:1.75417709" />
    <path
       d="m -28.690769,268.18695 v 7.02027 l -3.915323,3.90829 h -5.880006 v -1.13319 l 8.556879,-8.55862 1.23845,-1.23675"
       id="path746"
       style="fill:#3b899e;stroke-width:1.75417709" />
    <path
       d="m -29.929219,266.88184 v 1.5349 l -8.556879,8.55517 v -2.49445 l 7.61138,-7.59562 h 0.945499"
       id="path748"
       style="fill:#3b899e;stroke-width:1.75417709" />
    <path
       d="m -29.929219,265.9504 h 1.23845 v 14.09835 h -1.23845 z"
       id="path750"
       style="fill:#ffffff;stroke-width:1.75417709" />
    <path
       d="m -17.590338,265.95212 h 0.292912 v 14.09663 h -0.292912 z"
       id="path752"
       style="fill:#c6c6c8;stroke-width:1.75417709" />
    <path
       d="m -28.397824,265.95212 h 10.807486 v 14.09663 h -10.807486 z"
       id="path754"
       style="fill:#ffffff;stroke-width:1.75417709" />
    <path
       d="m -27.380397,266.87488 h 9.479571 v 12.24063 h -9.479571 z"
       id="path756"
       style="fill:#145b73;stroke-width:1.75417709" />
    <path
       d="m -17.588581,268.18344 v 7.02026 l -3.911816,3.91181 h -5.88 v -1.13319 l 8.55863,-8.55862 1.233186,-1.24026"
       id="path758"
       style="fill:#3b899e;stroke-width:1.75417709" />
    <path
       d="m -18.821767,266.87488 v 1.54186 l -8.55863,8.55517 v -2.49445 l 7.609617,-7.60258 h 0.949013"
       id="path760"
       style="fill:#3b899e;stroke-width:1.75417709" />
    <path
       d="m -18.821767,265.9504 h 1.233186 v 14.09483 h -1.233186 z"
       id="path762"
       style="fill:#ffffff;stroke-width:1.75417709" />
    <path
       d="m -6.4846431,265.95212 h 0.2947018 v 14.09663 h -0.2947018 z"
       id="path764"
       style="fill:#c6c6c8;stroke-width:1.75417709" />
    <path
       d="m -17.297387,265.95212 h 10.8127439 v 14.09663 H -17.297387 Z"
       id="path766"
       style="fill:#ffffff;stroke-width:1.75417709" />
    <path
       d="m -16.274702,266.87488 h 9.474307 v 12.24063 h -9.474307 z"
       id="path768"
       style="fill:#145b73;stroke-width:1.75417709" />
    <path
       d="m -6.4828862,268.18344 v 7.02026 l -3.9135728,3.91181 h -5.878243 v -1.1367 l 8.5533657,-8.55511 1.2384501,-1.24026"
       id="path770"
       style="fill:#3b899e;stroke-width:1.75417709" />
    <path
       d="m -7.7213363,266.87488 v 1.54186 l -8.5533657,8.55517 v -2.49445 l 7.60611,-7.60258 h 0.9472557"
       id="path772"
       style="fill:#3b899e;stroke-width:1.75417709" />
    <path
       d="m -7.7213363,265.9504 h 1.2384501 v 14.09483 h -1.2384501 z"
       id="path774"
       style="fill:#ffffff;stroke-width:1.75417709" />
    <path
       d="m 4.6175445,265.9504 h 0.2929117 v 14.09483 H 4.6175445 Z"
       id="path776"
       style="fill:#c6c6c8;stroke-width:1.75417709" />
    <path
       d="M -6.1899413,265.9504 H 4.6175445 v 14.09483 H -6.1899413 Z"
       id="path778"
       style="fill:#ffffff;stroke-width:1.75417709" />
    <path
       d="m -5.1725142,266.87488 h 9.479571 v 12.24063 h -9.479571 z"
       id="path780"
       style="fill:#145b73;stroke-width:1.75417709" />
    <path
       d="m 4.6193015,268.18344 v 7.01675 l -3.91181615,3.91532 H -5.1725142 v -1.1367 l 8.5568728,-8.55511 1.2349429,-1.24026"
       id="path782"
       style="fill:#3b899e;stroke-width:1.75417709" />
    <path
       d="m 3.3843586,266.87488 v 1.53842 l -8.5568728,8.55861 v -2.49445 l 7.611374,-7.60258 h 0.9454988"
       id="path784"
       style="fill:#3b899e;stroke-width:1.75417709" />
    <path
       d="m 3.3843586,265.9504 h 1.2349429 v 14.09483 H 3.3843586 Z"
       id="path786"
       style="fill:#ffffff;stroke-width:1.75417709" />
    <path
       d="m 15.726747,265.9504 h 0.289464 v 14.09483 h -0.289464 z"
       id="path788"
       style="fill:#c6c6c8;stroke-width:1.75417709" />
    <path
       d="m 4.910496,265.9504 h 10.816251 v 14.09483 H 4.910496 Z"
       id="path790"
       style="fill:#ffffff;stroke-width:1.75417709" />
    <path
       d="m 5.9314238,266.87488 h 9.4760642 v 12.24063 H 5.9314238 Z"
       id="path792"
       style="fill:#145b73;stroke-width:1.75417709" />
    <path
       d="m 15.726747,268.17999 v 7.0202 l -3.913567,3.91532 H 5.9314238 v -1.14022 l 8.5551222,-8.55159 1.240201,-1.24371"
       id="path794"
       style="fill:#3b899e;stroke-width:1.75417709" />
    <path
       d="m 14.486546,266.87488 v 1.53842 l -8.5551222,8.55861 v -2.49797 l 7.6096172,-7.59906 h 0.945505"
       id="path796"
       style="fill:#3b899e;stroke-width:1.75417709" />
    <path
       d="m 14.486546,265.94689 h 1.240201 v 14.09483 h -1.240201 z"
       id="path798"
       style="fill:#ffffff;stroke-width:1.75417709" />
    <path
       d="m 26.827184,265.9504 h 0.292978 v 14.09483 h -0.292978 z"
       id="path800"
       style="fill:#c6c6c8;stroke-width:1.75417709" />
    <path
       d="m 16.016184,265.9504 h 10.811 v 14.09483 H 16.016191 Z"
       id="path802"
       style="fill:#ffffff;stroke-width:1.75417709" />
    <path
       d="m 17.033611,266.87488 h 9.479571 v 12.24063 h -9.479571 z"
       id="path804"
       style="fill:#145b73;stroke-width:1.75417709" />
    <path
       d="m 26.827184,268.17999 v 7.0202 l -3.911816,3.91532 h -5.881757 v -1.14022 l 8.555123,-8.55861 1.23845,-1.23669"
       id="path806"
       style="fill:#3b899e;stroke-width:1.75417709" />
    <path
       d="m 25.588734,266.87488 v 1.53842 l -8.555123,8.55861 v -2.50148 l 7.611374,-7.59555 h 0.943749"
       id="path808"
       style="fill:#3b899e;stroke-width:1.75417709" />
    <path
       d="m 25.588734,265.94689 h 1.23845 v 14.09483 h -1.23845 z"
       id="path810"
       style="fill:#ffffff;stroke-width:1.75417709" />
    <path
       d="m 37.931122,265.9504 h 0.291188 v 14.09132 h -0.291188 z"
       id="path812"
       style="fill:#c6c6c8;stroke-width:1.75417709" />
    <path
       d="m 27.120129,265.9504 h 10.810993 v 14.09132 H 27.120129 Z"
       id="path814"
       style="fill:#ffffff;stroke-width:1.75417709" />
    <path
       d="m 28.139306,266.87488 h 9.481328 v 12.2336 h -9.481328 z"
       id="path816"
       style="fill:#145b73;stroke-width:1.75417709" />
    <path
       d="m 37.931122,268.17648 v 7.02371 l -3.908309,3.90829 h -5.883507 v -1.13319 l 8.556873,-8.56213 1.234943,-1.23668"
       id="path818"
       style="fill:#3b899e;stroke-width:1.75417709" />
    <path
       d="m 36.696179,266.87488 v 1.53842 l -8.556873,8.5551 v -2.50148 l 7.609617,-7.59204 h 0.947256"
       id="path820"
       style="fill:#3b899e;stroke-width:1.75417709" />
    <path
       d="m 36.696179,265.94689 h 1.234943 v 14.09131 h -1.234943 z"
       id="path822"
       style="fill:#ffffff;stroke-width:1.75417709" />
    <path
       d="m 49.035067,265.94689 h 0.291187 v 14.09483 h -0.291187 z"
       id="path824"
       style="fill:#c6c6c8;stroke-width:1.75417709" />
    <path
       d="m 38.222316,265.94689 h 10.812751 v 14.09483 H 38.222316 Z"
       id="path826"
       style="fill:#ffffff;stroke-width:1.75417709" />
    <path
       d="m 39.245001,266.87137 h 9.477821 v 12.23711 h -9.477821 z"
       id="path828"
       style="fill:#145b73;stroke-width:1.75417709" />
    <path
       d="m 49.038574,268.17648 v 7.0202 l -3.911816,3.9118 h -5.881757 v -1.13319 l 8.555123,-8.56213 1.23845,-1.23668"
       id="path830"
       style="fill:#3b899e;stroke-width:1.75417709" />
    <path
       d="m 47.800124,266.87137 v 1.53841 l -8.555123,8.55862 v -2.50148 l 7.607867,-7.59555 h 0.947256"
       id="path832"
       style="fill:#3b899e;stroke-width:1.75417709" />
    <path
       d="m 47.800124,265.94689 h 1.23845 v 14.09131 h -1.23845 z"
       id="path834"
       style="fill:#ffffff;stroke-width:1.75417709" />
    <path
       d="m 60.140761,265.94689 h 0.289464 v 14.09131 h -0.289464 z"
       id="path836"
       style="fill:#c6c6c8;stroke-width:1.75417709" />
    <path
       d="M 49.326254,265.94689 H 60.140761 V 280.0382 H 49.326254 Z"
       id="path838"
       style="fill:#ffffff;stroke-width:1.75417709" />
    <path
       d="m 50.347189,266.87137 h 9.481328 v 12.23711 h -9.481328 z"
       id="path840"
       style="fill:#145b73;stroke-width:1.75417709" />
    <path
       d="m 60.140761,268.17648 v 7.0202 l -3.915323,3.9118 h -5.878249 v -1.1367 l 9.793572,-9.7953"
       id="path842"
       style="fill:#3b899e;stroke-width:1.75417709" />
    <path
       d="m 58.904062,266.87137 v 1.53841 l -8.556873,8.55511 v -2.49797 l 7.607867,-7.59555 h 0.949006"
       id="path844"
       style="fill:#3b899e;stroke-width:1.75417709" />
    <path
       d="m 58.904062,265.93986 h 1.236699 v 14.09483 h -1.236699 z"
       id="path846"
       style="fill:#ffffff;stroke-width:1.75417709" />
    <path
       d="M 60.430199,265.94689 H 71.246456 V 280.0382 H 60.430199 Z"
       id="path848"
       style="fill:#ffffff;stroke-width:1.75417709" />
    <path
       d="m 61.449376,266.86785 h 9.479571 v 12.23891 h -9.479571 z"
       id="path850"
       style="fill:#145b73;stroke-width:1.75417709" />
    <path
       d="m 70.928947,268.49922 v 7.01669 l -3.601321,3.59085 h -5.87825 v -1.1385 l 8.556873,-8.55861 0.922698,-0.91043"
       id="path852"
       style="fill:#3b899e;stroke-width:1.75417709" />
    <path
       d="m 70.006249,266.87137 v 1.5349 l -8.553365,8.5551 v -2.49445 l 7.607866,-7.59555 h 0.945499"
       id="path854"
       style="fill:#3b899e;stroke-width:1.75417709" />
    <path
       d="m 70.006249,265.93986 h 1.240207 v 14.09483 h -1.240207 z"
       id="path856"
       style="fill:#ffffff;stroke-width:1.75417709" />
    <path
       d="m 189.16224,265.95915 h 0.29298 v 14.0896 h -0.29298 z"
       id="path858"
       style="fill:#c6c6c8;stroke-width:1.75417709" />
    <path
       d="m 178.3495,265.95915 h 10.81274 v 14.0896 H 178.3495 Z"
       id="path860"
       style="fill:#ffffff;stroke-width:1.75417709" />
    <path
       d="M 179.36867,266.88184 H 188.85 v 12.2407 h -9.48133 z"
       id="path862"
       style="fill:#145b73;stroke-width:1.75417709" />
    <path
       d="m 189.16224,268.18695 v 7.02027 l -3.91357,3.91532 h -5.88 v -1.14022 l 8.55513,-8.55862 1.23844,-1.23675"
       id="path864"
       style="fill:#3b899e;stroke-width:1.75417709" />
    <path
       d="m 187.9238,266.88184 v 1.5349 l -8.55513,8.55869 v -2.49797 l 7.60962,-7.59562 h 0.94551"
       id="path866"
       style="fill:#3b899e;stroke-width:1.75417709" />
    <path
       d="m 187.9238,265.95212 h 1.23844 v 14.09663 h -1.23844 z"
       id="path868"
       style="fill:#ffffff;stroke-width:1.75417709" />
    <path
       d="m 200.26092,265.95564 h 0.29649 v 14.09311 h -0.29649 z"
       id="path870"
       style="fill:#c6c6c8;stroke-width:1.75417709" />
    <path
       d="m 189.45519,265.95564 h 10.80573 v 14.09311 h -10.80573 z"
       id="path872"
       style="fill:#ffffff;stroke-width:1.75417709" />
    <path
       d="m 190.47261,266.88184 h 9.48133 v 12.23367 h -9.48133 z"
       id="path874"
       style="fill:#145b73;stroke-width:1.75417709" />
    <path
       d="m 200.26793,268.18695 v 7.02027 l -3.91356,3.90829 h -5.88176 v -1.13319 l 8.55512,-8.55862 1.2402,-1.23675"
       id="path876"
       style="fill:#3b899e;stroke-width:1.75417709" />
    <path
       d="m 199.02773,266.88184 v 1.5349 l -8.55512,8.55517 v -2.49445 l 7.60962,-7.59562 h 0.9455"
       id="path878"
       style="fill:#3b899e;stroke-width:1.75417709" />
    <path
       d="m 199.02773,265.9504 h 1.2402 v 14.09835 h -1.2402 z"
       id="path880"
       style="fill:#ffffff;stroke-width:1.75417709" />
    <path
       d="m 211.36837,265.95212 h 0.29119 v 14.09663 h -0.29119 z"
       id="path882"
       style="fill:#c6c6c8;stroke-width:1.75417709" />
    <path
       d="m 200.55738,265.95212 h 10.81099 v 14.09663 h -10.81099 z"
       id="path884"
       style="fill:#ffffff;stroke-width:1.75417709" />
    <path
       d="m 201.57656,266.87488 h 9.48132 v 12.24063 h -9.48132 z"
       id="path886"
       style="fill:#145b73;stroke-width:1.75417709" />
    <path
       d="m 211.36837,268.18344 v 7.02026 l -3.90831,3.91181 h -5.8835 v -1.13319 l 8.55863,-8.55862 1.23318,-1.24026"
       id="path888"
       style="fill:#3b899e;stroke-width:1.75417709" />
    <path
       d="m 210.13519,266.87488 v 1.54186 l -8.55863,8.55517 v -2.49445 l 7.60961,-7.60258 h 0.94902"
       id="path890"
       style="fill:#3b899e;stroke-width:1.75417709" />
    <path
       d="m 210.13519,265.9504 h 1.23318 v 14.09483 h -1.23318 z"
       id="path892"
       style="fill:#ffffff;stroke-width:1.75417709" />
    <path
       d="m 222.47231,265.95212 h 0.2947 v 14.09663 h -0.2947 z"
       id="path894"
       style="fill:#c6c6c8;stroke-width:1.75417709" />
    <path
       d="m 211.65957,265.95212 h 10.81274 v 14.09663 h -10.81274 z"
       id="path896"
       style="fill:#ffffff;stroke-width:1.75417709" />
    <path
       d="m 212.68225,266.87488 h 9.47781 v 12.24063 h -9.47781 z"
       id="path898"
       style="fill:#145b73;stroke-width:1.75417709" />
    <path
       d="m 222.47407,268.18344 v 7.02026 l -3.91358,3.91181 h -5.87824 v -1.1367 l 8.55337,-8.55511 1.23845,-1.24026"
       id="path900"
       style="fill:#3b899e;stroke-width:1.75417709" />
    <path
       d="m 221.23562,266.87488 v 1.54186 l -8.55337,8.55517 v -2.49445 l 7.60787,-7.60258 h 0.9455"
       id="path902"
       style="fill:#3b899e;stroke-width:1.75417709" />
    <path
       d="m 221.23562,265.9504 h 1.23845 v 14.09483 h -1.23845 z"
       id="path904"
       style="fill:#ffffff;stroke-width:1.75417709" />
    <path
       d="m 233.5745,265.9504 h 0.2947 v 14.09483 h -0.2947 z"
       id="path906"
       style="fill:#c6c6c8;stroke-width:1.75417709" />
    <path
       d="m 222.76701,265.9504 h 10.80749 v 14.09483 h -10.80749 z"
       id="path908"
       style="fill:#ffffff;stroke-width:1.75417709" />
    <path
       d="m 223.78619,266.87488 h 9.47958 v 12.24063 h -9.47958 z"
       id="path910"
       style="fill:#145b73;stroke-width:1.75417709" />
    <path
       d="m 233.578,268.18344 v 7.01675 l -3.91356,3.91532 h -5.87825 v -1.1367 l 8.55512,-8.55511 1.23669,-1.24026"
       id="path912"
       style="fill:#3b899e;stroke-width:1.75417709" />
    <path
       d="m 232.34131,266.87488 v 1.53842 l -8.55512,8.55861 v -2.49445 l 7.60962,-7.60258 h 0.9455"
       id="path914"
       style="fill:#3b899e;stroke-width:1.75417709" />
    <path
       d="m 232.34131,265.9504 h 1.23669 v 14.09483 h -1.23669 z"
       id="path916"
       style="fill:#ffffff;stroke-width:1.75417709" />
    <path
       d="m 244.68546,265.9504 h 0.28946 v 14.09483 h -0.28946 z"
       id="path918"
       style="fill:#c6c6c8;stroke-width:1.75417709" />
    <path
       d="m 233.8692,265.9504 h 10.81626 v 14.09483 H 233.8692 Z"
       id="path920"
       style="fill:#ffffff;stroke-width:1.75417709" />
    <path
       d="m 234.89013,266.87488 h 9.47782 v 12.24063 h -9.47782 z"
       id="path922"
       style="fill:#145b73;stroke-width:1.75417709" />
    <path
       d="m 244.68546,268.17999 v 7.0202 l -3.91533,3.91532 h -5.88 v -1.14022 l 8.55688,-8.55159 1.23845,-1.24371"
       id="path924"
       style="fill:#3b899e;stroke-width:1.75417709" />
    <path
       d="m 243.44701,266.87488 v 1.53842 l -8.55688,8.55861 v -2.49797 l 7.60787,-7.59906 h 0.94901"
       id="path926"
       style="fill:#3b899e;stroke-width:1.75417709" />
    <path
       d="m 243.44701,265.94689 h 1.23845 v 14.09483 h -1.23845 z"
       id="path928"
       style="fill:#ffffff;stroke-width:1.75417709" />
    <path
       d="m 255.78589,265.9504 h 0.29297 v 14.09483 h -0.29297 z"
       id="path930"
       style="fill:#c6c6c8;stroke-width:1.75417709" />
    <path
       d="m 244.97489,265.9504 h 10.811 v 14.09483 h -10.811 z"
       id="path932"
       style="fill:#ffffff;stroke-width:1.75417709" />
    <path
       d="m 245.99407,266.87488 h 9.47782 v 12.24063 h -9.47782 z"
       id="path934"
       style="fill:#145b73;stroke-width:1.75417709" />
    <path
       d="m 255.78589,268.17999 v 7.0202 l -3.91357,3.91532 h -5.87825 v -1.14022 l 9.79182,-9.7953"
       id="path936"
       style="fill:#3b899e;stroke-width:1.75417709" />
    <path
       d="m 254.54919,266.87488 v 1.53842 l -8.55512,8.55861 v -2.50148 l 7.61138,-7.59555 h 0.94374"
       id="path938"
       style="fill:#3b899e;stroke-width:1.75417709" />
    <path
       d="m 254.54919,265.94689 h 1.2367 v 14.09483 h -1.2367 z"
       id="path940"
       style="fill:#ffffff;stroke-width:1.75417709" />
    <path
       d="m 266.88983,265.9504 h 0.29291 v 14.09132 h -0.29291 z"
       id="path942"
       style="fill:#c6c6c8;stroke-width:1.75417709" />
    <path
       d="m 256.07884,265.9504 h 10.81099 v 14.09132 h -10.81099 z"
       id="path944"
       style="fill:#ffffff;stroke-width:1.75417709" />
    <path
       d="m 257.09802,266.87488 h 9.47957 v 12.2336 h -9.47957 z"
       id="path946"
       style="fill:#145b73;stroke-width:1.75417709" />
    <path
       d="m 266.88983,268.17648 v 7.02371 l -3.91006,3.90829 h -5.88175 v -1.13319 l 8.55863,-8.56213 1.23318,-1.23668"
       id="path948"
       style="fill:#3b899e;stroke-width:1.75417709" />
    <path
       d="m 265.65665,266.87488 v 1.53842 l -8.55863,8.5551 v -2.50148 l 7.61137,-7.59204 h 0.94726"
       id="path950"
       style="fill:#3b899e;stroke-width:1.75417709" />
    <path
       d="m 265.65665,265.94689 h 1.23318 v 14.09131 h -1.23318 z"
       id="path952"
       style="fill:#ffffff;stroke-width:1.75417709" />
    <path
       d="m 277.99377,265.94689 h 0.28946 v 14.09483 h -0.28946 z"
       id="path954"
       style="fill:#c6c6c8;stroke-width:1.75417709" />
    <path
       d="m 267.18278,265.94689 h 10.81099 v 14.09483 h -10.81099 z"
       id="path956"
       style="fill:#ffffff;stroke-width:1.75417709" />
    <path
       d="m 268.20371,266.87137 h 9.47606 v 12.23711 h -9.47606 z"
       id="path958"
       style="fill:#145b73;stroke-width:1.75417709" />
    <path
       d="m 277.99553,268.17648 v 7.0202 l -3.91357,3.9118 h -5.87825 v -1.13319 l 8.55512,-8.56213 1.2367,-1.23668"
       id="path960"
       style="fill:#3b899e;stroke-width:1.75417709" />
    <path
       d="m 276.75883,266.87137 v 1.53841 l -8.55512,8.55862 v -2.50148 l 7.60962,-7.59555 h 0.9455"
       id="path962"
       style="fill:#3b899e;stroke-width:1.75417709" />
    <path
       d="m 276.75883,265.94689 h 1.2367 v 14.09131 h -1.2367 z"
       id="path964"
       style="fill:#ffffff;stroke-width:1.75417709" />
    <path
       d="m 289.09946,265.94689 h 0.29119 v 14.09131 h -0.29119 z"
       id="path966"
       style="fill:#c6c6c8;stroke-width:1.75417709" />
    <path
       d="m 278.28321,265.94689 h 10.81625 v 14.09131 h -10.81625 z"
       id="path968"
       style="fill:#ffffff;stroke-width:1.75417709" />
    <path
       d="m 279.3059,266.87137 h 9.47957 v 12.23711 h -9.47957 z"
       id="path970"
       style="fill:#145b73;stroke-width:1.75417709" />
    <path
       d="m 289.09946,268.17648 v 7.0202 l -3.91532,3.9118 h -5.87824 v -1.1367 l 9.79356,-9.7953"
       id="path972"
       style="fill:#3b899e;stroke-width:1.75417709" />
    <path
       d="m 287.86277,266.87137 v 1.53841 l -8.55687,8.55511 v -2.49797 l 7.60787,-7.59555 h 0.949"
       id="path974"
       style="fill:#3b899e;stroke-width:1.75417709" />
    <path
       d="m 287.86277,265.93986 h 1.23669 v 14.09483 h -1.23669 z"
       id="path976"
       style="fill:#ffffff;stroke-width:1.75417709" />
    <path
       d="m 289.39066,265.94689 h 10.81275 v 14.09131 h -10.81275 z"
       id="path978"
       style="fill:#ffffff;stroke-width:1.75417709" />
    <path
       d="m 290.40457,266.86785 h 9.48133 v 12.23891 h -9.48133 z"
       id="path980"
       style="fill:#145b73;stroke-width:1.75417709" />
    <path
       d="m 299.8859,268.49922 v 7.01669 l -3.59781,3.59085 h -5.88352 v -1.1385 l 8.56215,-8.55861 0.91918,-0.91043"
       id="path982"
       style="fill:#3b899e;stroke-width:1.75417709" />
    <path
       d="m 298.96672,266.87137 v 1.5349 l -8.55513,8.5551 v -2.49445 l 7.60787,-7.59555 h 0.94726"
       id="path984"
       style="fill:#3b899e;stroke-width:1.75417709" />
    <path
       d="m 298.96672,265.93986 h 1.23669 v 14.09483 h -1.23669 z"
       id="path986"
       style="fill:#ffffff;stroke-width:1.75417709" />
    <path
       d="m 214.47502,233.68231 h 0.29298 v 14.08781 h -0.29298 z"
       id="path988"
       style="fill:#c6c6c8;stroke-width:1.75417709" />
    <path
       d="m 203.66052,233.68231 h 10.8145 v 14.08781 h -10.8145 z"
       id="path990"
       style="fill:#ffffff;stroke-width:1.75417709" />
    <path
       d="m 204.6797,234.59977 h 9.48132 v 12.24587 h -9.48132 z"
       id="path992"
       style="fill:#145b73;stroke-width:1.75417709" />
    <path
       d="m 214.47502,235.91011 v 7.01848 l -3.91533,3.91705 h -5.87999 v -1.14195 l 8.55687,-8.55689 1.23845,-1.23669"
       id="path994"
       style="fill:#3b899e;stroke-width:1.75417709" />
    <path
       d="m 213.23657,234.59977 v 1.53841 l -8.55687,8.56213 v -2.50148 l 7.60961,-7.59906 h 0.94726"
       id="path996"
       style="fill:#3b899e;stroke-width:1.75417709" />
    <path
       d="m 213.23657,233.67529 h 1.23845 v 14.09483 h -1.23845 z"
       id="path998"
       style="fill:#ffffff;stroke-width:1.75417709" />
    <path
       d="m 225.5737,233.68059 h 0.2947 v 14.08953 h -0.2947 z"
       id="path1000"
       style="fill:#c6c6c8;stroke-width:1.75417709" />
    <path
       d="m 214.76796,233.68059 h 10.80574 v 14.08953 h -10.80574 z"
       id="path1002"
       style="fill:#ffffff;stroke-width:1.75417709" />
    <path
       d="m 215.78188,234.59977 h 9.47957 v 12.24063 h -9.47957 z"
       id="path1004"
       style="fill:#145b73;stroke-width:1.75417709" />
    <path
       d="m 225.57721,235.91011 v 7.01848 l -3.91182,3.91181 h -5.88351 v -1.13671 l 9.79533,-9.79358"
       id="path1006"
       style="fill:#3b899e;stroke-width:1.75417709" />
    <path
       d="m 224.34051,234.59977 v 1.53841 l -8.55863,8.55511 v -2.49446 l 7.61313,-7.59906 h 0.9455"
       id="path1008"
       style="fill:#3b899e;stroke-width:1.75417709" />
    <path
       d="m 224.34051,233.67177 h 1.2367 v 14.09835 h -1.2367 z"
       id="path1010"
       style="fill:#ffffff;stroke-width:1.75417709" />
    <path
       d="m 236.67764,233.67529 h 0.2947 v 14.09483 h -0.2947 z"
       id="path1012"
       style="fill:#c6c6c8;stroke-width:1.75417709" />
    <path
       d="m 225.8684,233.67529 h 10.80924 v 14.09483 H 225.8684 Z"
       id="path1014"
       style="fill:#ffffff;stroke-width:1.75417709" />
    <path
       d="m 226.88933,234.59625 h 9.47957 v 12.24415 h -9.47957 z"
       id="path1016"
       style="fill:#145b73;stroke-width:1.75417709" />
    <path
       d="m 236.67764,235.90839 v 7.01841 l -3.9048,3.9136 h -5.88351 v -1.13671 l 8.55688,-8.55689 1.23143,-1.23841"
       id="path1018"
       style="fill:#3b899e;stroke-width:1.75417709" />
    <path
       d="m 235.44621,234.59625 v 1.54193 l -8.55688,8.55511 v -2.49446 l 7.60962,-7.60258 h 0.94726"
       id="path1020"
       style="fill:#3b899e;stroke-width:1.75417709" />
    <path
       d="m 235.44621,233.67177 h 1.23143 v 14.09483 h -1.23143 z"
       id="path1022"
       style="fill:#ffffff;stroke-width:1.75417709" />
    <path
       d="m 247.78509,233.67529 h 0.2947 v 14.09483 h -0.2947 z"
       id="path1024"
       style="fill:#c6c6c8;stroke-width:1.75417709" />
    <path
       d="m 236.97234,233.67529 h 10.81275 v 14.09483 h -10.81275 z"
       id="path1026"
       style="fill:#ffffff;stroke-width:1.75417709" />
    <path
       d="m 237.99502,234.59625 h 9.47432 v 12.24236 h -9.47432 z"
       id="path1028"
       style="fill:#145b73;stroke-width:1.75417709" />
    <path
       d="m 247.78684,235.90839 v 7.01841 l -3.91357,3.91181 h -5.87825 v -1.13671 l 9.79182,-9.79351"
       id="path1030"
       style="fill:#3b899e;stroke-width:1.75417709" />
    <path
       d="m 246.5484,234.59625 v 1.54193 l -8.55338,8.55332 v -2.49267 l 7.60612,-7.60258 h 0.94726"
       id="path1032"
       style="fill:#3b899e;stroke-width:1.75417709" />
    <path
       d="m 246.5484,233.67177 h 1.23844 v 14.09483 h -1.23844 z"
       id="path1034"
       style="fill:#ffffff;stroke-width:1.75417709" />
    <path
       d="m 258.88552,233.67177 h 0.2947 v 14.09483 h -0.2947 z"
       id="path1036"
       style="fill:#c6c6c8;stroke-width:1.75417709" />
    <path
       d="m 248.07979,233.67177 h 10.80573 v 14.09483 h -10.80573 z"
       id="path1038"
       style="fill:#ffffff;stroke-width:1.75417709" />
    <path
       d="m 249.09721,234.59625 h 9.48133 v 12.24236 h -9.48133 z"
       id="path1040"
       style="fill:#145b73;stroke-width:1.75417709" />
    <path
       d="m 258.88903,235.90839 v 7.0149 l -3.91182,3.91532 h -5.88 v -1.13671 l 8.55512,-8.5551 1.2367,-1.23841"
       id="path1042"
       style="fill:#3b899e;stroke-width:1.75417709" />
    <path
       d="m 257.65233,234.59625 v 1.53842 l -8.55512,8.55683 v -2.49267 l 7.61138,-7.60258 h 0.94374"
       id="path1044"
       style="fill:#3b899e;stroke-width:1.75417709" />
    <path
       d="m 257.65233,233.67177 h 1.2367 v 14.09132 h -1.2367 z"
       id="path1046"
       style="fill:#ffffff;stroke-width:1.75417709" />
    <path
       d="m 259.18022,233.67177 h 10.8145 v 14.09483 h -10.8145 z"
       id="path1048"
       style="fill:#ffffff;stroke-width:1.75417709" />
    <path
       d="m 260.1994,234.59446 h 9.48483 v 12.2407 h -9.48483 z"
       id="path1050"
       style="fill:#145b73;stroke-width:1.75417709" />
    <path
       d="m 269.68423,236.21357 v 7.02199 l -3.60132,3.5996 h -5.88351 v -1.13671 l 9.48483,-9.48488"
       id="path1052"
       style="fill:#3b899e;stroke-width:1.75417709" />
    <path
       d="m 268.75452,234.59625 v 1.53842 l -8.55512,8.55683 v -2.49618 l 7.60962,-7.59907 h 0.9455"
       id="path1054"
       style="fill:#3b899e;stroke-width:1.75417709" />
    <path
       d="m 268.75452,233.66826 h 1.2402 v 14.09132 h -1.2402 z"
       id="path1056"
       style="fill:#ffffff;stroke-width:1.75417709" />
    <path
       d="m -9.5860261,233.68231 h 0.292978 v 14.08781 h -0.292978 z"
       id="path1058"
       style="fill:#c6c6c8;stroke-width:1.75417709" />
    <path
       d="m -20.398776,233.68231 h 10.8127499 v 14.08781 H -20.398776 Z"
       id="path1060"
       style="fill:#ffffff;stroke-width:1.75417709" />
    <path
       d="m -19.379599,234.59977 h 9.4830852 v 12.24587 h -9.4830852 z"
       id="path1062"
       style="fill:#145b73;stroke-width:1.75417709" />
    <path
       d="m -9.5860261,235.91011 v 7.01848 l -3.9153229,3.91705 h -5.87825 v -1.14195 l 8.555123,-8.55689 1.2384499,-1.23669"
       id="path1064"
       style="fill:#3b899e;stroke-width:1.75417709" />
    <path
       d="m -10.824476,234.59977 v 1.53841 l -8.555123,8.56213 v -2.50148 l 7.609624,-7.59906 h 0.945499"
       id="path1066"
       style="fill:#3b899e;stroke-width:1.75417709" />
    <path
       d="m -10.824476,233.67529 h 1.2384499 v 14.09483 h -1.2384499 z"
       id="path1068"
       style="fill:#ffffff;stroke-width:1.75417709" />
    <path
       d="m 1.5161616,233.68059 h 0.2947017 v 14.08953 H 1.5161616 Z"
       id="path1070"
       style="fill:#c6c6c8;stroke-width:1.75417709" />
    <path
       d="M -9.2930813,233.68059 H 1.5161616 v 14.08953 H -9.2930813 Z"
       id="path1072"
       style="fill:#ffffff;stroke-width:1.75417709" />
    <path
       d="m -8.2756541,234.59977 h 9.479571 v 12.24063 h -9.479571 z"
       id="path1074"
       style="fill:#145b73;stroke-width:1.75417709" />
    <path
       d="m 1.5196688,235.91011 v 7.01848 l -3.9135664,3.91181 h -5.8817565 v -1.13671 l 8.55687275,-8.55689 1.23845015,-1.23669"
       id="path1076"
       style="fill:#3b899e;stroke-width:1.75417709" />
    <path
       d="m 0.28121865,234.59977 v 1.53841 l -8.55687275,8.55511 v -2.49446 l 7.61137404,-7.59906 h 0.94549871"
       id="path1078"
       style="fill:#3b899e;stroke-width:1.75417709" />
    <path
       d="M 0.28121865,233.67177 H 1.5196688 v 14.09835 H 0.28121865 Z"
       id="path1080"
       style="fill:#ffffff;stroke-width:1.75417709" />
    <path
       d="m 12.6201,233.67529 h 0.294701 v 14.09483 H 12.6201 Z"
       id="path1082"
       style="fill:#c6c6c8;stroke-width:1.75417709" />
    <path
       d="M 1.8108633,233.67529 H 12.6201 v 14.09483 H 1.8108633 Z"
       id="path1084"
       style="fill:#ffffff;stroke-width:1.75417709" />
    <path
       d="M 2.8282839,234.59625 H 12.307855 V 246.8404 H 2.8282839 Z"
       id="path1086"
       style="fill:#145b73;stroke-width:1.75417709" />
    <path
       d="m 12.6201,235.90839 v 7.01841 l -3.9083027,3.9136 H 2.8282839 v -1.13671 l 8.5586301,-8.55689 1.233186,-1.23841"
       id="path1088"
       style="fill:#3b899e;stroke-width:1.75417709" />
    <path
       d="m 11.386914,234.59625 v 1.54193 l -8.5586301,8.55511 v -2.49446 l 7.6113741,-7.60258 h 0.947256"
       id="path1090"
       style="fill:#3b899e;stroke-width:1.75417709" />
    <path
       d="M 11.386914,233.67177 H 12.6201 v 14.09483 h -1.233186 z"
       id="path1092"
       style="fill:#ffffff;stroke-width:1.75417709" />
    <path
       d="m 23.725794,233.67529 h 0.292978 v 14.09483 h -0.292978 z"
       id="path1094"
       style="fill:#c6c6c8;stroke-width:1.75417709" />
    <path
       d="m 12.914801,233.67529 h 10.810993 v 14.09483 H 12.914801 Z"
       id="path1096"
       style="fill:#ffffff;stroke-width:1.75417709" />
    <path
       d="m 13.935736,234.59625 h 9.476063 v 12.24236 h -9.476063 z"
       id="path1098"
       style="fill:#145b73;stroke-width:1.75417709" />
    <path
       d="m 23.729302,235.90839 v 7.01841 l -3.917074,3.91181 h -5.876492 v -1.13671 l 9.793566,-9.79351"
       id="path1100"
       style="fill:#3b899e;stroke-width:1.75417709" />
    <path
       d="m 22.490858,234.59625 v 1.54193 l -8.555122,8.55332 v -2.49267 l 7.607866,-7.60258 h 0.947256"
       id="path1102"
       style="fill:#3b899e;stroke-width:1.75417709" />
    <path
       d="m 22.490858,233.67177 h 1.238444 v 14.09483 h -1.238444 z"
       id="path1104"
       style="fill:#ffffff;stroke-width:1.75417709" />
    <path
       d="M 34.827982,233.67177 H 35.12096 V 247.7666 H 34.827982 Z"
       id="path1106"
       style="fill:#c6c6c8;stroke-width:1.75417709" />
    <path
       d="M 24.018746,233.67177 H 34.827982 V 247.7666 H 24.018746 Z"
       id="path1108"
       style="fill:#ffffff;stroke-width:1.75417709" />
    <path
       d="m 25.037923,234.59625 h 9.481322 v 12.24236 h -9.481322 z"
       id="path1110"
       style="fill:#145b73;stroke-width:1.75417709" />
    <path
       d="m 34.831489,235.90839 v 7.0149 l -3.913566,3.91532 h -5.88 v -1.13671 l 8.556873,-8.5551 1.236693,-1.23841"
       id="path1112"
       style="fill:#3b899e;stroke-width:1.75417709" />
    <path
       d="m 33.594796,234.59625 v 1.53842 l -8.556873,8.55683 v -2.49267 l 7.611374,-7.60258 h 0.945499"
       id="path1114"
       style="fill:#3b899e;stroke-width:1.75417709" />
    <path
       d="m 33.594796,233.67177 h 1.236693 v 14.09132 h -1.236693 z"
       id="path1116"
       style="fill:#ffffff;stroke-width:1.75417709" />
    <path
       d="M 35.120933,233.67177 H 45.935434 V 247.7666 H 35.120933 Z"
       id="path1118"
       style="fill:#ffffff;stroke-width:1.75417709" />
    <path
       d="m 36.141861,234.59446 h 9.481328 v 12.2407 h -9.481328 z"
       id="path1120"
       style="fill:#145b73;stroke-width:1.75417709" />
    <path
       d="m 45.623189,236.21357 v 7.02199 l -3.599571,3.5996 h -5.881757 v -1.13671 l 9.481328,-9.48488"
       id="path1122"
       style="fill:#3b899e;stroke-width:1.75417709" />
    <path
       d="m 44.698741,234.59625 v 1.53842 l -8.555123,8.55683 v -2.49618 l 7.607867,-7.59907 h 0.947256"
       id="path1124"
       style="fill:#3b899e;stroke-width:1.75417709" />
    <path
       d="m 44.698741,233.66826 h 1.236693 v 14.09132 h -1.236693 z"
       id="path1126"
       style="fill:#ffffff;stroke-width:1.75417709" />
    <path
       d="m 92.622856,194.28874 -36.855263,36.85529 -1.431409,-14.90528 c 9.940924,-9.81108 23.128831,-17.46457 38.286672,-21.95001"
       id="path1128"
       style="fill:#3b899e;stroke-width:1.75417709" />
    <path
       d="m 101.45864,192.08024 -11.919625,11.91788 -1.038477,1.04197 -15.627964,15.62622 -1.015664,1.01743 -0.503479,0.50322 -1.094607,1.09281 -13.473831,13.4756 -1.006898,1.00517 -0.370151,-3.92759 40.453077,-40.45311 c 1.836672,-0.47868 3.706626,-0.91745 5.597619,-1.29987"
       id="path1130"
       style="fill:#3b899e;stroke-width:1.75417709" />
    <path
       d="m 140.80835,190.95407 -33.0487,33.0487 -1.0718,1.07352 -15.366595,15.36308 -1.038471,1.04024 -8.74808,8.7481 H 57.125329 l 28.038768,-28.04049 3.971459,-3.96975 16.973414,-16.97343 1.05952,-1.06126 10.17072,-10.17248 c 2.11028,-0.12796 4.25564,-0.19293 6.40801,-0.19293 h 1.14899 c 5.43444,0 10.7496,0.39315 15.91214,1.1367"
       id="path1132"
       style="fill:#3b899e;stroke-width:1.75417709" />
    <path
       d="m 145.81652,191.78381 -3.11542,3.11893 -1.12793,1.12266 -16.67696,16.67872 -0.0544,0.053 -1.03847,1.03673 -0.0564,0.0597 -15.856,15.85601 -1.05953,1.06126 -15.236779,15.23327 -1.038471,1.04196 -3.182076,3.18033 h -2.701225 l 39.074291,-39.07606 1.14899,-1.14719 16.74362,-16.74363 1.12618,-1.12796 0.75605,-0.75256 c 0.76307,0.11934 1.53139,0.26321 2.29446,0.40376"
       id="path1134"
       style="fill:#3b899e;stroke-width:1.75417709" />
    <path
       d="m 109.22439,190.77864 -2.23307,2.23132 -1.07005,1.0718 -16.087553,16.08753 -1.038477,1.03673 -15.485871,15.48765 -1.015671,1.01744 -14.938574,14.93856 -0.438572,0.43691 -0.570111,0.57018 -0.238546,-2.47337 0.578862,-0.5788 0.428031,-0.42631 14.992953,-14.99471 1.017421,-1.01565 0.885862,-0.88762 1.094606,-1.09288 30.75073,-30.75248 0.20698,-0.20884 0.88586,-0.12995 c 0.75605,-0.12133 1.50859,-0.21945 2.27517,-0.31757"
       id="path1136"
       style="fill:#3b899e;stroke-width:1.75417709" />
    <path
       d="m 164.92477,197.36206 -4.62751,4.62579 -1.14899,1.14725 -17.08042,17.07162 v 0.0133 l -1.11566,1.11741 -1.94889,1.94537 -14.10709,14.10888 -0.0544,0.053 -1.03847,1.02791 -11.75825,11.75651 H 94.23145 l 12.75988,-12.7634 1.06304,-1.05774 14.2176,-14.21935 1.47526,-1.47702 27.68092,-27.67916 c 2.76809,0.66658 5.46952,1.45594 8.1043,2.34005 0.36133,0.11934 0.72272,0.24 1.0718,0.37194 1.46474,0.50189 2.8979,1.05078 4.32054,1.6191"
       id="path1138"
       style="fill:#3b899e;stroke-width:1.75417709" />
    <path
       d="m 169.57159,199.34256 -27.65811,27.65636 -1.12618,1.12788 -15.89109,15.89109 -1.14899,1.14553 -3.96795,3.97141 -1.0946,1.09288 h -4.29949 l 1.0946,-1.09288 25.41803,-25.41622 1.52964,-1.53139 16.60154,-16.60334 1.14898,-1.14719 6.40801,-6.40805 c 1.00514,0.42829 2.00151,0.86481 2.98561,1.31392"
       id="path1140"
       style="fill:#3b899e;stroke-width:1.75417709" />
    <path
       d="m 192.59341,214.54248 -7.6447,7.64474 -1.09461,1.09282 -7.73241,7.73239 -1.18056,1.18232 -18.03294,18.03296 h -24.41113 l 25.60221,-25.60219 1.14899,-1.14552 19.36787,-19.36784 c 5.11693,3.07153 9.79708,6.57115 13.97728,10.43032"
       id="path1142"
       style="fill:#3b899e;stroke-width:1.75417709" />
    <path
       d="m 194.37566,216.23875 -0.2544,2.61201 -0.59815,0.60333 -3.82937,3.82582 -26.94591,26.94767 h -2.70144 l 33.76089,-33.7591 0.39296,-0.39448 0.17543,0.16509"
       id="path1144"
       style="fill:#3b899e;stroke-width:1.75417709" />
    <path
       d="m 190.66733,249.13483 h -15.86829 l 0.86305,-11.82487 0.20871,-2.9067 0.25088,-3.39083 0.55785,-7.73239 h 16.46997 z m -16.96114,0 h -15.71567 l 1.25774,-25.65483 0.009,-0.20023 h 16.32978 l -0.64555,8.91478 -0.25261,3.38904 -0.20877,2.90843 z m -16.80853,0 h -15.53149 l 0.54731,-22.13591 0.0859,-3.71888 h 16.16474 l -0.065,1.34548 z m -16.62433,0 h -15.37712 v -25.85479 h 16.01037 l -0.009,0.4389 -0.45959,18.56973 z m 54.07952,-26.94761 0.79815,-8.23587 c -0.33859,-0.32619 -0.66659,-0.65636 -1.01742,-0.96134 l -0.32626,3.47854 -0.28416,2.9856 -0.26314,2.73307 h -16.5033 l 1.27002,-17.48745 0.23855,-3.34694 c -0.34907,-0.20685 -0.69992,-0.4137 -1.049,-0.61194 l -1.5542,21.4466 h -16.34893 l 1.29108,-26.44427 0.10873,-2.29443 c -0.36133,-0.13326 -0.7122,-0.2526 -1.07181,-0.37194 l -0.10873,2.2945 -0.38414,7.76402 -0.92796,19.05212 h -16.19632 l 0.0438,-1.96996 v -0.0133 l 0.63323,-25.30404 0.065,-2.7698 0.0772,-3.09261 c -0.3596,-0.053 -0.73324,-0.11073 -1.09284,-0.16509 l -0.11053,4.38539 -0.68763,28.0739 -0.0225,0.85248 h -16.03339 v -34.55893 h -1.09285 v 62.59956 h 67.85859 l 0.11052,-1.09289 2.48216,-25.85479 h 1.64016 l 0.0983,-1.09281 h -1.64016"
       id="path1146"
       style="fill:#24cedb;stroke-width:1.75417709" />
    <path
       d="m 123.80336,238.4712 v -17.81543 l -0.0564,0.053 v 1.47702 h -1.47526 l -1.0946,1.09288 h 2.56986 v 17.58564 l 1.09461,-1.09461 v -2.32784 z m -0.0564,10.66363 h -15.37514 l -0.31751,-12.72827 -0.16317,-6.69573 -0.0564,-2.64528 -0.0755,-3.06278 -0.0225,-0.72273 h 16.01037 z m -31.99794,0 -0.154346,-3.12941 -0.129814,-2.56811 -0.14387,-2.99794 -0.842005,-17.15933 h 16.164745 l 0.11927,4.85731 0.0684,2.63481 0.15965,6.69215 0.28768,11.67052 z m -16.808529,0 -1.138457,-15.58405 -0.492937,-6.85711 -0.249088,-3.41363 h 16.324369 l 0.898141,18.19957 0.14208,2.99615 0.131538,2.57163 0.09998,2.08744 z m -16.962894,0 -0.622752,-6.48516 -0.240336,-2.47165 -0.329774,-3.42239 -0.373665,-3.92586 -0.206987,-2.12431 -0.710447,-7.42542 h 16.471727 l 0.14208,1.90326 0.18597,2.52781 0.491148,6.85531 1.061277,14.56841 z M 123.747,187.62815 v 34.55907 h -16.03142 l -0.72448,-29.17726 -0.0418,-1.91381 -0.0524,-2.22077 c -0.36134,0.053 -0.73325,0.11072 -1.09461,0.16509 l 0.0544,2.39441 0.065,2.64708 0.18769,7.16228 0.51396,20.94318 H 90.425262 l -0.240336,-5.01875 -0.350857,-6.99918 -0.119273,-2.59437 -0.175429,-3.5768 -0.209109,-4.08724 -0.09647,-2.22952 -0.121063,-2.27693 -0.107008,-2.32784 c -0.363123,0.11934 -0.713947,0.23868 -1.073556,0.37194 l 0.110521,2.31724 0.150832,2.95053 0.09826,2.23303 0.208711,4.09076 0.175429,3.57679 0.119273,2.58914 0.340316,7.01144 0.194722,3.96976 H 72.981298 l -0.108731,-1.52091 -0.296492,-4.00125 -0.154345,-2.17522 -0.817448,-11.2653 -0.175429,-2.48392 c -0.349067,0.19824 -0.698161,0.40509 -1.048992,0.61195 l 0.185904,2.48391 v 0.0133 l 0.842005,11.66005 0.150898,2.17516 0.298215,4.00124 0.03182,0.50322 H 55.385409 l -0.599945,-6.37643 -0.275409,-2.82072 c -0.349067,0.30498 -0.677111,0.63515 -1.017421,0.96128 l 0.798148,8.23587 H 52.65238 l 0.09826,1.09288 3.357498,26.94768 h 68.733672 v -62.5997 z m 0.0564,50.84305 v -17.81543 l -0.0564,0.053 v 1.47702 h -1.47526 l -1.0946,1.09288 h 2.56986 v 17.58564 l 1.09461,-1.09461 v -2.32784 z m 0,0 v -17.81543 l -0.0564,0.053 v 1.47702 h -1.47526 l -1.0946,1.09288 h 2.56986 v 17.58564 l 1.09461,-1.09461 v -2.32777 l -1.03825,1.0279"
       id="path1148"
       style="fill:#24cedb;stroke-width:1.75417709" />
    <path
       d="m 77.947411,261.98595 h 92.808249 v 6.17647 H 77.947411 Z"
       id="path1150"
       style="fill:#ffffff;stroke-width:1.75417709" />
    <path
       d="m 96.766223,272.63731 h 27.037137 v 12.909 H 96.766223 Z"
       id="path1152"
       style="fill:#145b73;stroke-width:1.75417709" />
    <path
       d="M 96.766223,266.48716 H 123.80336 V 271.562 H 96.766223 Z"
       id="path1154"
       style="fill:#145b73;stroke-width:1.75417709" />
    <path
       d="m 86.818285,271.562 v -6.15015 h -0.0053 v 21.21501 h 0.0053 V 271.562"
       id="path1156"
       style="fill:#145b73;stroke-width:1.75417709" />
    <path
       d="m 124.88743,272.63731 v 13.98955 -21.21501 7.22546"
       id="path1158"
       style="fill:#145b73;stroke-width:1.75417709" />
    <path
       d="m 87.900613,285.54631 h 7.788546 v -12.909 h -7.788546 z"
       id="path1160"
       style="fill:#145b73;stroke-width:1.75417709" />
    <path
       d="m 88.439145,266.48716 h -0.538552 v 5.07484 h 7.788546 v -5.07484 h -7.249994"
       id="path1162"
       style="fill:#145b73;stroke-width:1.75417709" />
    <path
       d="m 86.818285,286.62686 h 1.62086 -1.62086"
       id="path1164"
       style="fill:#dfe4e4;stroke-width:1.75417709" />
    <path
       d="m 88.439145,286.62686 h 7.250014 -7.250014"
       id="path1166"
       style="fill:#dfe4e4;stroke-width:1.75417709" />
    <path
       d="m 95.689159,286.62686 h 1.077064 -1.077064"
       id="path1168"
       style="fill:#dfe4e4;stroke-width:1.75417709" />
    <path
       d="m 79.570027,272.63731 h -0.538551 v 12.909 h 7.786789 v -12.909 h -7.248258"
       id="path1170"
       style="fill:#145b73;stroke-width:1.75417709" />
    <path
       d="m 79.570027,266.48716 h -0.538551 v 5.07484 h 7.790296 v -5.07484 h -7.251765"
       id="path1172"
       style="fill:#145b73;stroke-width:1.75417709" />
    <path
       d="m 79.031495,266.48716 h 7.790297 v 5.07484 h -7.790297 z m 0,6.15015 h 7.790297 v 12.909 h -7.790297 z m 7.790297,-7.22546 h -8.870874 v 21.21501 h 9.947938 v -21.21501 h -1.077064"
       id="path1174"
       style="fill:#ffffff;stroke-width:1.75417709" />
    <path
       d="m 105.31257,265.41185 h 1.08233 v 21.21501 h -1.08233 z"
       id="path1176"
       style="fill:#ffffff;stroke-width:1.75417709" />
    <path
       d="m 114.94125,265.41185 h 1.07356 v 21.21501 h -1.07356 z"
       id="path1178"
       style="fill:#ffffff;stroke-width:1.75417709" />
    <path
       d="m 96.766223,272.63731 h 27.037137 v 12.909 H 96.766223 Z m -8.86561,-6.15015 h 7.788546 v 5.07484 h -7.788546 z m 0,6.15015 h 7.788546 v 12.909 h -7.788546 z m 8.86561,-6.15015 H 123.76301 V 271.562 H 96.766223 Z m 0,-1.07531 h -9.947938 v 21.21501 H 124.88743 V 265.41185 H 96.766223"
       id="path1180"
       style="fill:#ffffff;stroke-width:1.75417709" />
    <path
       d="m 142.6362,272.63731 h 27.03714 v 12.909 H 142.6362 Z"
       id="path1182"
       style="fill:#145b73;stroke-width:1.75417709" />
    <path
       d="m 142.6362,266.48716 h 27.03714 V 271.562 H 142.6362 Z"
       id="path1184"
       style="fill:#145b73;stroke-width:1.75417709" />
    <path
       d="m 132.69002,271.562 v -6.15015 h -0.005 v 21.21501 h 0.005 V 271.562"
       id="path1186"
       style="fill:#145b73;stroke-width:1.75417709" />
    <path
       d="m 170.75566,272.63731 v 13.98955 h 0.002 v -21.21501 h -0.002 v 7.22546"
       id="path1188"
       style="fill:#145b73;stroke-width:1.75417709" />
    <path
       d="m 133.76884,285.54631 h 7.79029 v -12.909 h -7.79029 z"
       id="path1190"
       style="fill:#145b73;stroke-width:1.75417709" />
    <path
       d="m 134.31088,266.48716 h -0.54207 v 5.07484 h 7.7903 v -5.07484 h -7.24826"
       id="path1192"
       style="fill:#145b73;stroke-width:1.75417709" />
    <path
       d="m 123.8209,271.562 v -6.15015 h -0.005 v 21.21501 h 0.005 V 271.562"
       id="path1194"
       style="fill:#145b73;stroke-width:1.75417709" />
    <path
       d="m 125.43825,272.63731 h -0.53676 v 12.909 h 7.7868 v -12.909 h -7.25002"
       id="path1196"
       style="fill:#145b73;stroke-width:1.75417709" />
    <path
       d="m 125.43825,266.48716 h -0.53676 v 5.07484 h 7.7903 v -5.07484 h -7.25352"
       id="path1198"
       style="fill:#145b73;stroke-width:1.75417709" />
    <path
       d="m 124.90147,266.48716 h 7.7903 v 5.07484 h -7.7903 z m 0,6.15015 h 7.7903 v 12.909 h -7.7903 z m 7.7903,-7.22546 h -8.87087 v 21.21501 h 9.94794 v -21.21501 h -1.07707"
       id="path1200"
       style="fill:#ffffff;stroke-width:1.75417709" />
    <path
       d="m 151.1843,265.41185 h 1.07883 v 21.21501 h -1.07883 z"
       id="path1202"
       style="fill:#ffffff;stroke-width:1.75417709" />
    <path
       d="m 160.80948,265.41185 h 1.07531 v 21.21501 h -1.07531 z"
       id="path1204"
       style="fill:#ffffff;stroke-width:1.75417709" />
    <path
       d="m 142.6362,272.63731 h 27.03714 v 12.909 H 142.6362 Z m -8.86736,-6.15015 h 7.79029 v 5.07484 h -7.79029 z m 0,6.15015 h 7.79029 v 12.909 h -7.79029 z m 8.86736,-6.15015 h 26.99504 V 271.562 H 142.6362 Z m 0,-1.07531 h -9.94618 v 21.21501 h 38.06564 V 265.41185 H 142.6362"
       id="path1206"
       style="fill:#ffffff;stroke-width:1.75417709" />
    <path
       d="m 77.938639,286.49532 h 45.876991 v 0.56686 H 77.938639 Z"
       id="path1208"
       style="fill:#ffffff;stroke-width:1.75417709" />
    <path
       d="m 77.938639,287.06192 h 45.876991 v 1.51388 H 77.938639 Z"
       id="path1210"
       style="fill:#dfe4e4;stroke-width:1.75417709" />
    <path
       d="m 76.519509,288.31266 h 47.296121 v 0.56487 H 76.519509 Z"
       id="path1212"
       style="fill:#ffffff;stroke-width:1.75417709" />
    <path
       d="m 76.519509,288.87747 h 47.296121 v 1.5174 H 76.519509 Z"
       id="path1214"
       style="fill:#dfe4e4;stroke-width:1.75417709" />
    <path
       d="m 74.600441,290.12118 h 49.215189 v 0.56487 H 74.600441 Z"
       id="path1216"
       style="fill:#ffffff;stroke-width:1.75417709" />
    <path
       d="m 74.600441,290.68605 h 49.215189 v 1.51389 H 74.600441 Z"
       id="path1218"
       style="fill:#dfe4e4;stroke-width:1.75417709" />
    <path
       d="m 121.9948,286.49532 h 48.76261 v 0.56686 H 121.9948 Z"
       id="path1220"
       style="fill:#ffffff;stroke-width:1.75417709" />
    <path
       d="m 121.9948,287.06192 h 48.76261 v 1.51388 H 121.9948 Z"
       id="path1222"
       style="fill:#dfe4e4;stroke-width:1.75417709" />
    <path
       d="m 121.9948,288.31266 h 50.47469 v 0.56487 H 121.9948 Z"
       id="path1224"
       style="fill:#ffffff;stroke-width:1.75417709" />
    <path
       d="m 121.9948,288.87747 h 50.47469 v 1.5174 H 121.9948 Z"
       id="path1226"
       style="fill:#dfe4e4;stroke-width:1.75417709" />
    <path
       d="m 121.9948,290.12118 h 52.1166 v 0.56487 h -52.1166 z"
       id="path1228"
       style="fill:#ffffff;stroke-width:1.75417709" />
    <path
       d="m 121.9948,290.68605 h 52.1166 v 1.51389 h -52.1166 z"
       id="path1230"
       style="fill:#dfe4e4;stroke-width:1.75417709" />
    <path
       d="m 71.788495,235.16285 -1.589287,11.21093 h 3.178569 z m -2.252363,15.3894 -1.043735,6.53953 h -4.469641 l 4.836265,-28.44923 h 5.902806 l 4.769607,28.44923 h -4.511748 l -1.003385,-6.53953 h -4.480169"
       id="path1232"
       style="fill:#3b899e;stroke-width:1.75417709" />
    <path
       d="m 85.537735,228.64255 h 4.292475 v 28.44923 h -4.292475 z"
       id="path1234"
       style="fill:#3b899e;stroke-width:1.75417709" />
    <path
       d="m 105.39502,235.49965 c 0,-1.64894 -0.81744,-2.47337 -2.45058,-2.47337 h -2.58917 v 9.10061 h 2.58917 c 0.67886,0 1.25949,-0.23668 1.73487,-0.72266 0.47889,-0.48266 0.71571,-1.06484 0.71571,-1.74719 z m -2.56636,-6.8571 c 2.3927,0 4.14863,0.66167 5.26779,1.97699 0.98585,1.14897 1.47526,2.75402 1.47526,4.81169 v 4.13285 c 0,2.012 -0.76306,3.71709 -2.29095,5.10991 l 3.17682,12.41779 h -4.6398 l -2.6032,-10.718 h -2.85931 v 10.718 h -4.292473 v -28.44923 h 6.765863"
       id="path1236"
       style="fill:#3b899e;stroke-width:1.75417709" />
    <path
       d="m 125.86276,235.49965 c 0,-0.73851 -0.22456,-1.33845 -0.66834,-1.79102 -0.4456,-0.45614 -1.04023,-0.68235 -1.78049,-0.68235 h -2.59092 v 9.10061 h 2.59092 c 0.67711,0 1.2595,-0.23668 1.73313,-0.72266 0.47888,-0.48266 0.7157,-1.06484 0.7157,-1.74719 z m -2.56461,-6.8571 c 2.08923,0 3.75394,0.66167 4.99415,1.97699 1.15073,1.2577 1.72435,2.86281 1.72435,4.81169 v 4.13285 c 0,1.87695 -0.65259,3.48206 -1.96293,4.8117 -1.30861,1.33494 -2.89263,1.998 -4.75557,1.998 h -2.47514 v 10.718 h -4.29072 v -28.44923 h 6.76586"
       id="path1238"
       style="fill:#3b899e;stroke-width:1.75417709" />
    <path
       d="m 144.49387,234.99969 c 0,-0.68236 -0.23682,-1.2595 -0.71395,-1.73665 -0.47888,-0.47338 -1.05601,-0.71392 -1.73838,-0.71392 -0.68238,0 -1.26477,0.24001 -1.74716,0.71392 -0.48591,0.47735 -0.72624,1.05429 -0.72624,1.73665 v 15.57888 c 0,0.67884 0.24034,1.25949 0.72624,1.73486 0.48239,0.47736 1.06478,0.71392 1.74716,0.71392 0.68237,0 1.2595,-0.23669 1.73838,-0.71392 0.47716,-0.47537 0.71395,-1.05602 0.71395,-1.73486 z m -2.33831,-6.71847 c 1.891,0 3.49958,0.66657 4.82398,1.998 1.3244,1.33143 1.98749,2.93648 1.98749,4.81521 v 15.52445 c 0,1.89451 -0.66659,3.50135 -1.99801,4.82926 -1.33142,1.32089 -2.93649,1.98395 -4.81346,1.98395 -1.89276,0 -3.49608,-0.66478 -4.81171,-1.998 -1.31914,-1.32964 -1.97696,-2.93469 -1.97696,-4.81521 v -15.52445 c 0,-1.89279 0.66483,-3.50135 1.99801,-4.82926 1.33142,-1.32089 2.92948,-1.98395 4.79066,-1.98395"
       id="path1240"
       style="fill:#3b899e;stroke-width:1.75417709" />
    <path
       d="m 164.48448,235.49965 c 0,-1.64894 -0.81569,-2.47337 -2.45059,-2.47337 h -2.58741 v 9.10061 h 2.58741 c 0.67887,0 1.2595,-0.23668 1.73664,-0.72266 0.47716,-0.48266 0.71395,-1.06484 0.71395,-1.74719 z m -2.56461,-6.8571 c 2.39094,0 4.14687,0.66167 5.26779,1.97699 0.98235,1.14897 1.47527,2.75402 1.47527,4.81169 v 4.13285 c 0,2.012 -0.76483,3.71709 -2.29271,5.10991 l 3.17857,12.41779 h -4.64331 l -2.59969,-10.718 h -2.85931 v 10.718 h -4.29247 v -28.44923 h 6.76586"
       id="path1242"
       style="fill:#3b899e;stroke-width:1.75417709" />
    <path
       d="m 178.77927,232.95786 h -4.56262 v -4.31531 h 13.3949 v 4.31531 h -4.53806 v 24.13392 h -4.29422 v -24.13392"
       id="path1244"
       style="fill:#3b899e;stroke-width:1.75417709" />
    <path
       d="m 69.125651,232.49648 -1.591038,11.21445 h 3.180326 z m -2.254114,15.39291 -1.041984,6.53781 h -4.469641 l 4.836264,-28.44923 h 5.902807 l 4.767857,28.44923 h -4.511748 l -1.003385,-6.53781 h -4.48017"
       id="path1246"
       style="fill:#ffffff;stroke-width:1.75417709" />
    <path
       d="m 82.87314,225.97797 h 4.294226 V 254.4272 H 82.87314 Z"
       id="path1248"
       style="fill:#ffffff;stroke-width:1.75417709" />
    <path
       d="m 102.73218,232.83679 c 0,-1.65066 -0.81745,-2.47516 -2.45234,-2.47516 h -2.587411 v 9.10247 h 2.587411 c 0.67887,0 1.2595,-0.23867 1.73664,-0.72273 0.47715,-0.48399 0.7157,-1.06656 0.7157,-1.74719 z m -2.56636,-6.85882 c 2.39094,0 4.14688,0.66167 5.26779,1.97699 0.98234,1.15069 1.47527,2.75581 1.47527,4.81169 v 4.13285 c 0,2.012 -0.76482,3.71709 -2.29096,5.10991 l 3.17506,12.41779 h -4.6398 l -2.60144,-10.71627 h -2.859311 v 10.71627 h -4.294226 v -28.44923 h 6.767617"
       id="path1250"
       style="fill:#ffffff;stroke-width:1.75417709" />
    <path
       d="m 123.19992,232.83679 c 0,-0.73851 -0.22456,-1.33845 -0.66834,-1.79274 -0.44733,-0.45614 -1.04198,-0.68242 -1.784,-0.68242 h -2.58741 v 9.10247 h 2.58741 c 0.68062,0 1.2595,-0.23867 1.73488,-0.72273 0.48067,-0.48399 0.71746,-1.06656 0.71746,-1.74719 z m -2.56461,-6.85882 c 2.08747,0 3.75219,0.66167 4.99239,1.97699 1.15249,1.25598 1.72611,2.86102 1.72611,4.81169 v 4.13285 c 0,1.87694 -0.65258,3.48199 -1.96292,4.8117 -1.30862,1.33494 -2.8944,1.99973 -4.75558,1.99973 h -2.47514 v 10.71627 h -4.29247 v -28.44923 h 6.76761"
       id="path1252"
       style="fill:#ffffff;stroke-width:1.75417709" />
    <path
       d="m 141.83103,232.33511 c 0,-0.68064 -0.23854,-1.25777 -0.71395,-1.73666 -0.48061,-0.47338 -1.05776,-0.71219 -1.74014,-0.71219 -0.68062,0 -1.26301,0.23868 -1.74716,0.71219 -0.48419,0.47869 -0.72623,1.05602 -0.72623,1.73666 v 15.57881 c 0,0.67891 0.24206,1.25956 0.72623,1.73665 0.48419,0.47537 1.06654,0.71398 1.74716,0.71398 0.68238,0 1.2595,-0.23867 1.74014,-0.71398 0.47537,-0.47735 0.71395,-1.05774 0.71395,-1.73665 z m -2.33832,-6.71848 c 1.89101,0 3.49959,0.66658 4.82399,1.99801 1.32441,1.33315 1.98748,2.9382 1.98748,4.81521 v 15.52617 c 0,1.89451 -0.66658,3.50135 -1.998,4.82927 -1.33317,1.32088 -2.93825,1.98222 -4.81347,1.98222 -1.89275,0 -3.49607,-0.66306 -4.8117,-1.99621 -1.31914,-1.33322 -1.97872,-2.93655 -1.97872,-4.81528 v -15.52617 c 0,-1.89451 0.66659,-3.50135 1.99802,-4.82927 1.33141,-1.32088 2.92947,-1.98395 4.7924,-1.98395"
       id="path1254"
       style="fill:#ffffff;stroke-width:1.75417709" />
    <path
       d="m 161.81988,232.83679 c 0,-1.65066 -0.81745,-2.47516 -2.44883,-2.47516 h -2.58916 v 9.10247 h 2.58916 c 0.67887,0 1.2595,-0.23867 1.73489,-0.72273 0.47888,-0.48399 0.71394,-1.06656 0.71394,-1.74719 z m -2.56461,-6.85882 c 2.3927,0 4.14864,0.66167 5.2678,1.97699 0.98409,1.15069 1.47526,2.75581 1.47526,4.81169 v 4.13285 c 0,2.012 -0.76306,3.71709 -2.29271,5.10991 l 3.17857,12.41779 h -4.64155 l -2.60145,-10.71627 h -2.8593 v 10.71627 h -4.29248 v -28.44923 h 6.76586"
       id="path1256"
       style="fill:#ffffff;stroke-width:1.75417709" />
    <path
       d="m 176.11643,230.29321 h -4.56437 v -4.31524 h 13.39665 v 4.31524 h -4.53981 v 24.13399 h -4.29247 v -24.13399"
       id="path1258"
       style="fill:#ffffff;stroke-width:1.75417709" />
    <path
       d="M 69.127408,232.49297 67.53637,243.7092 h 3.180326 z m -2.255871,15.3947 -1.040227,6.5378 h -4.469641 l 4.838015,-28.4475 h 5.901056 l 4.76785,28.4475 h -4.511741 l -1.003392,-6.5378 h -4.48192"
       id="path1260"
       style="fill:#ffffff;stroke-width:1.75417709" />
    <path
       d="m 82.874897,225.97797 h 4.292469 v 28.4475 h -4.292469 z"
       id="path1262"
       style="fill:#ffffff;stroke-width:1.75417709" />
    <path
       d="m 102.73394,232.83507 c 0,-1.65073 -0.81921,-2.47695 -2.4541,-2.47695 h -2.587411 v 9.10598 h 2.587411 c 0.68237,0 1.26125,-0.24199 1.73839,-0.72624 0.47537,-0.48598 0.71571,-1.06829 0.71571,-1.74892 z m -2.56637,-6.8571 c 2.39094,0 4.14688,0.65769 5.2678,1.9752 0.98234,1.15076 1.47526,2.75581 1.47526,4.81348 v 4.13106 c 0,2.01379 -0.76482,3.71709 -2.29271,5.10819 l 3.17681,12.41957 h -4.63979 l -2.60145,-10.71627 h -2.861061 v 10.71627 H 93.39996 v -28.4475 h 6.76761"
       id="path1264"
       style="fill:#ffffff;stroke-width:1.75417709" />
    <path
       d="m 123.20342,232.83507 c 0,-0.74202 -0.22455,-1.34025 -0.67009,-1.79453 -0.44732,-0.45415 -1.04198,-0.68242 -1.784,-0.68242 h -2.58741 v 9.10598 h 2.58741 c 0.68238,0 1.26126,-0.24199 1.73664,-0.72624 0.47716,-0.48598 0.71745,-1.06829 0.71745,-1.74892 z m -2.56635,-6.8571 c 2.08747,0 3.75218,0.65769 4.99414,1.9752 1.15074,1.25598 1.72611,2.86109 1.72611,4.81348 v 4.13106 c 0,1.87701 -0.65431,3.48206 -1.96293,4.81349 -1.31037,1.33315 -2.89614,1.998 -4.75732,1.998 h -2.47515 v 10.71627 h -4.29247 v -28.4475 h 6.76762"
       id="path1266"
       style="fill:#ffffff;stroke-width:1.75417709" />
    <path
       d="m 141.83103,232.33338 c 0,-0.67891 -0.23854,-1.25777 -0.71395,-1.73493 -0.47716,-0.47735 -1.05601,-0.7157 -1.73839,-0.7157 -0.68062,0 -1.26301,0.23868 -1.74891,0.7157 -0.48239,0.47736 -0.72623,1.05602 -0.72623,1.73493 v 15.5753 c 0,0.68236 0.24385,1.26129 0.72623,1.73838 0.48591,0.47537 1.06829,0.7157 1.74891,0.7157 0.68238,0 1.26126,-0.24 1.73839,-0.7157 0.47537,-0.47736 0.71395,-1.05602 0.71395,-1.73838 z m -2.33832,-6.71854 c 1.89276,0 3.49959,0.66486 4.82575,1.99801 1.3244,1.33143 1.98572,2.93648 1.98572,4.81348 v 15.52969 c 0,1.89107 -0.66658,3.49963 -1.998,4.82403 -1.33317,1.3244 -2.9365,1.98746 -4.81347,1.98746 -1.891,0 -3.49607,-0.66657 -4.8117,-1.998 -1.31739,-1.33316 -1.97696,-2.93827 -1.97696,-4.81349 v -15.52969 c 0,-1.89278 0.66658,-3.50134 1.99801,-4.82575 1.33142,-1.3244 2.92772,-1.98574 4.79065,-1.98574"
       id="path1268"
       style="fill:#ffffff;stroke-width:1.75417709" />
    <path
       d="m 161.82515,232.83507 c 0,-1.65073 -0.81921,-2.47695 -2.45235,-2.47695 h -2.58916 v 9.10598 h 2.58916 c 0.68063,0 1.26126,-0.24199 1.73664,-0.72624 0.47716,-0.48598 0.71571,-1.06829 0.71571,-1.74892 z m -2.56637,-6.8571 c 2.3927,0 4.14863,0.65769 5.2678,1.9752 0.98409,1.15076 1.47526,2.75581 1.47526,4.81348 v 4.13106 c 0,2.01379 -0.76307,3.71709 -2.29271,5.10819 l 3.17857,12.41957 h -4.64155 l -2.60144,-10.71627 h -2.86107 v 10.71627 h -4.29072 v -28.4475 h 6.76586"
       id="path1270"
       style="fill:#ffffff;stroke-width:1.75417709" />
    <path
       d="m 176.11818,230.29149 h -4.56437 v -4.31352 h 13.39665 v 4.31352 h -4.54156 v 24.13398 h -4.29072 v -24.13398"
       id="path1272"
       style="fill:#ffffff;stroke-width:1.75417709" />
  </g>
</svg>
