<?xml version="1.0" encoding="UTF-8"?>
<!DOCTYPE svg PUBLIC "-//W3C//DTD SVG 1.1//EN" "http://www.w3.org/Graphics/SVG/1.1/DTD/svg11.dtd">
<svg version="1.1" xmlns="http://www.w3.org/2000/svg" xmlns:xlink="http://www.w3.org/1999/xlink" x="0" y="0" width="1027.054" height="439.542" viewBox="0, 0, 1027.054, 439.542">
  <g id="Background">
    <rect x="0" y="0" width="1027.054" height="439.542" fill="#FFFFFF"/>
  </g>
  <g id="layer1">
    <path d="M873.141,36.12 L759.609,36.12 L757.65,-0 L874.857,-0 L873.141,36.12" fill="#56E3E6" id="path584"/>
    <path d="M873.628,221.683 L760.395,221.683 L748.461,36.12 L884.294,36.12 L873.628,221.683" fill="#56E3E6" id="path586"/>
    <path d="M878.715,133.163 L754.707,133.163 L748.461,36.12 L884.294,36.12 L878.715,133.163" fill="#EDFAFF" id="path588"/>
    <path d="M780.012,90.738 L779.355,90.738 L778.052,56.87 L778.728,56.87 L780.011,90.738" fill="#C6C6C8" id="path590"/>
    <path d="M779.355,90.738 L755.413,90.738 L753.344,56.87 L778.052,56.87 L779.355,90.738" fill="#FFFFFF" id="path592"/>
    <path d="M777.431,59.088 L778.584,88.51 L757.541,88.51 L755.805,59.088 L777.431,59.088" fill="#145B73" id="path594"/>
    <path d="M778.256,62.226 L778.908,79.102 L770.594,88.51 L757.541,88.51 L757.377,85.77 L775.567,65.199 L778.257,62.226" fill="#3B899E" id="path596"/>
    <path d="M775.312,59.088 L775.472,62.778 L757.238,83.359 L756.88,77.347 L773.16,59.088 L775.313,59.088" fill="#3B899E" id="path598"/>
    <path d="M778.052,56.855 L779.355,90.738 L776.615,90.738 L775.223,56.855 L778.052,56.855" fill="#FFFFFF" id="path600"/>
    <path d="M804.595,90.738 L803.944,90.738 L803.422,56.86 L804.093,56.86 L804.595,90.738" fill="#C6C6C8" id="path602"/>
    <path d="M803.944,90.738 L780.012,90.738 L778.729,56.86 L803.422,56.86 L803.944,90.738" fill="#FFFFFF" id="path604"/>
    <path d="M802.751,59.088 L803.218,88.505 L782.175,88.505 L781.12,59.088 L802.751,59.088" fill="#145B73" id="path606"/>
    <path d="M803.511,62.226 L803.77,79.102 L795.227,88.505 L782.175,88.505 L782.081,85.77 L800.752,65.199 L803.512,62.226" fill="#3B899E" id="path608"/>
    <path d="M800.637,59.088 L800.701,62.778 L781.99,83.344 L781.776,77.347 L798.483,59.088 L800.637,59.088" fill="#3B899E" id="path610"/>
    <path d="M803.432,56.845 L803.949,90.738 L801.204,90.738 L800.593,56.845 L803.432,56.845" fill="#FFFFFF" id="path612"/>
    <path d="M829.174,90.738 L828.528,90.738 L828.791,56.855 L829.458,56.855 L829.174,90.738" fill="#C6C6C8" id="path614"/>
    <path d="M828.528,90.738 L804.595,90.738 L804.093,56.855 L828.792,56.855 L828.528,90.738" fill="#FFFFFF" id="path616"/>
    <path d="M828.07,59.073 L827.857,88.505 L806.818,88.505 L806.45,59.073 L828.07,59.073" fill="#145B73" id="path618"/>
    <path d="M828.747,62.216 L828.617,79.092 L819.87,88.505 L806.818,88.505 L806.782,85.77 L825.931,65.199 L828.745,62.216" fill="#3B899E" id="path620"/>
    <path d="M825.962,59.073 L825.942,62.778 L806.759,83.344 L806.683,77.347 L823.804,59.073 L825.962,59.073" fill="#3B899E" id="path622"/>
    <path d="M828.791,56.845 L828.528,90.728 L825.798,90.728 L825.977,56.845 L828.791,56.845" fill="#FFFFFF" id="path624"/>
    <path d="M853.768,90.738 L853.117,90.738 L854.171,56.855 L854.842,56.855 L853.768,90.738" fill="#C6C6C8" id="path626"/>
    <path d="M853.117,90.738 L829.174,90.738 L829.458,56.855 L854.171,56.855 L853.117,90.738" fill="#FFFFFF" id="path628"/>
    <path d="M853.385,59.073 L852.49,88.495 L831.467,88.495 L831.78,59.073 L853.385,59.073" fill="#145B73" id="path630"/>
    <path d="M854.012,62.216 L853.485,79.092 L844.499,88.495 L831.467,88.495 L831.497,85.765 L851.098,65.199 L854.012,62.216" fill="#3B899E" id="path632"/>
    <path d="M851.272,59.073 L851.167,62.778 L831.516,83.344 L831.585,77.347 L849.123,59.073 L851.271,59.073" fill="#3B899E" id="path634"/>
    <path d="M854.176,56.845 L853.127,90.728 L850.372,90.728 L851.337,56.845 L854.176,56.845" fill="#FFFFFF" id="path636"/>
    <path d="M877.706,90.728 L853.768,90.728 L854.842,56.845 L879.54,56.845 L877.706,90.728" fill="#FFFFFF" id="path638"/>
    <path d="M878.72,59.068 L877.144,88.51 L856.095,88.51 L857.095,59.068 L878.72,59.068" fill="#145B73" id="path640"/>
    <path d="M878.511,62.952 L877.611,79.833 L869.153,88.51 L856.095,88.51 L856.189,85.77 L876.288,65.184 L878.511,62.952" fill="#3B899E" id="path642"/>
    <path d="M876.602,59.073 L876.408,62.768 L856.274,83.344 L856.478,77.347 L874.454,59.073 L876.602,59.073" fill="#3B899E" id="path644"/>
    <path d="M879.545,56.845 L877.706,90.723 L874.966,90.723 L876.716,56.845 L879.545,56.845" fill="#FFFFFF" id="path646"/>
    <path d="M781.205,122.283 L780.573,122.283 L779.266,88.416 L779.922,88.416 L781.205,122.283" fill="#C6C6C8" id="path648"/>
    <path d="M780.573,122.283 L757.347,122.283 L755.279,88.416 L779.266,88.416 L780.574,122.283" fill="#FFFFFF" id="path650"/>
    <path d="M778.664,90.628 L779.818,120.055 L759.401,120.055 L757.67,90.628 L778.664,90.628" fill="#145B73" id="path652"/>
    <path d="M779.47,93.771 L780.121,110.647 L772.065,120.055 L759.401,120.055 L759.241,117.32 L776.863,96.749 L779.469,93.771" fill="#3B899E" id="path654"/>
    <path d="M776.61,90.628 L776.759,94.323 L759.097,114.899 L758.739,108.887 L774.516,90.628 L776.61,90.628" fill="#3B899E" id="path656"/>
    <path d="M779.266,88.396 L780.574,122.283 L777.913,122.283 L776.521,88.396 L779.266,88.396" fill="#FFFFFF" id="path658"/>
    <path d="M805.063,122.283 L804.426,122.283 L803.904,88.41 L804.556,88.41 L805.063,122.283" fill="#C6C6C8" id="path660"/>
    <path d="M804.426,122.283 L781.205,122.283 L779.922,88.41 L803.904,88.41 L804.426,122.283" fill="#FFFFFF" id="path662"/>
    <path d="M803.253,90.628 L803.72,120.045 L783.308,120.045 L782.249,90.628 L803.253,90.628" fill="#145B73" id="path664"/>
    <path d="M803.994,93.771 L804.257,110.647 L795.973,120.045 L783.308,120.045 L783.209,117.32 L801.314,96.749 L803.994,93.771" fill="#3B899E" id="path666"/>
    <path d="M801.199,90.628 L801.269,94.323 L783.124,114.889 L782.905,108.887 L799.111,90.628 L801.199,90.628" fill="#3B899E" id="path668"/>
    <path d="M803.914,88.391 L804.431,122.283 L801.771,122.283 L801.164,88.391 L803.914,88.391" fill="#FFFFFF" id="path670"/>
    <path d="M828.906,122.283 L828.279,122.283 L828.543,88.396 L829.194,88.396 L828.906,122.283" fill="#C6C6C8" id="path672"/>
    <path d="M828.279,122.283 L805.063,122.283 L804.556,88.396 L828.543,88.396 L828.279,122.283" fill="#FFFFFF" id="path674"/>
    <path d="M827.842,90.618 L827.633,120.045 L807.216,120.045 L806.848,90.618 L827.842,90.618" fill="#145B73" id="path676"/>
    <path d="M828.503,93.761 L828.37,110.638 L819.882,120.045 L807.217,120.045 L807.187,117.316 L825.769,96.749 L828.504,93.761" fill="#3B899E" id="path678"/>
    <path d="M825.798,90.618 L825.778,94.323 L807.151,114.889 L807.076,108.887 L823.699,90.618 L825.797,90.618" fill="#3B899E" id="path680"/>
    <path d="M828.543,88.391 L828.279,122.273 L825.634,122.273 L825.809,88.391 L828.544,88.391" fill="#FFFFFF" id="path682"/>
    <path d="M852.769,122.283 L852.137,122.283 L853.191,88.396 L853.843,88.396 L852.769,122.283" fill="#C6C6C8" id="path684"/>
    <path d="M852.137,122.283 L828.906,122.283 L829.194,88.396 L853.191,88.396 L852.137,122.283" fill="#FFFFFF" id="path686"/>
    <path d="M852.426,90.618 L851.531,120.041 L831.129,120.041 L831.442,90.618 L852.426,90.618" fill="#145B73" id="path688"/>
    <path d="M853.027,93.761 L852.505,110.637 L843.779,120.04 L831.129,120.04 L831.159,117.311 L850.203,96.749 L853.028,93.761" fill="#3B899E" id="path690"/>
    <path d="M850.377,90.618 L850.272,94.323 L831.187,114.879 L831.248,108.887 L848.288,90.618 L850.377,90.618" fill="#3B899E" id="path692"/>
    <path d="M853.191,88.391 L852.147,122.273 L849.472,122.273 L850.437,88.391 L853.191,88.391" fill="#FFFFFF" id="path694"/>
    <path d="M875.99,122.273 L852.769,122.273 L853.843,88.391 L877.835,88.391 L875.99,122.273" fill="#FFFFFF" id="path696"/>
    <path d="M877.024,90.613 L875.453,120.045 L855.031,120.045 L856.026,90.613 L877.024,90.613" fill="#145B73" id="path698"/>
    <path d="M876.821,94.497 L875.921,111.373 L867.701,120.045 L855.031,120.045 L855.125,117.32 L874.657,96.735 L876.82,94.497" fill="#3B899E" id="path700"/>
    <path d="M874.966,90.618 L874.782,94.313 L855.205,114.879 L855.409,108.887 L872.877,90.618 L874.965,90.618" fill="#3B899E" id="path702"/>
    <path d="M877.835,88.391 L875.995,122.273 L873.335,122.273 L875.085,88.391 L877.835,88.391" fill="#FFFFFF" id="path704"/>
    <path d="M887.78,39.645 L745.005,39.645 L743.981,24.549 L888.69,24.549 L887.78,39.645" fill="#24CEDB" id="path706"/>
    <path d="M891.783,32.097 L740.938,32.097 L739.829,16.414 L892.787,16.414 L891.783,32.097" fill="#145B73" id="path708"/>
    <path d="M881.4,174.305 L751.107,174.305 L746.134,133.163 L886.373,133.163 L881.4,174.305" fill="#24CEDB" id="path710"/>
    <path d="M68.327,217.988 L958.757,217.988 L958.757,225.318 L68.327,225.318 z" fill="#145B73" id="path712"/>
    <path d="M728.164,218.356 L727.477,225.333 L706.896,439.542 L320.197,439.542 L299.606,225.333 L298.93,218.356 L304.166,213.18 C355.318,162.744 431.148,133.814 512.274,133.814 L514.785,133.814 C595.911,133.814 671.771,162.744 722.888,213.18 L728.164,218.356" fill="#145B73" id="path714"/>
    <path d="M85.676,225.333 L941.383,225.333 L941.383,439.542 L85.676,439.542 z" fill="#EDFAFF" id="path716"/>
    <path d="M75.243,225.333 L951.81,225.333 L951.81,266.47 L75.243,266.47 z" fill="#24CEDB" id="path718"/>
    <path d="M718.462,221.892 L718.114,225.333 L716.598,241.08 L716.319,244.178 L697.533,439.542 L329.56,439.542 L310.774,244.178 L310.461,241.08 L308.94,225.333 L308.602,221.892 L310.71,219.813 C360.066,171.113 433.41,143.187 511.966,143.118 L515.063,143.118 C531.244,143.118 547.24,144.326 562.839,146.653 C563.858,146.803 564.917,146.967 565.937,147.121 C582.306,149.722 598.238,153.57 613.553,158.563 C614.572,158.901 615.567,159.239 616.591,159.617 C633.015,165.161 648.679,172.103 663.372,180.287 C664.362,180.849 665.356,181.436 666.346,182.022 C682.745,191.455 697.871,202.489 711.327,215.01 C712.321,215.874 713.251,216.81 714.211,217.734 C714.927,218.387 715.668,219.103 716.384,219.813 L718.462,221.891" fill="#24CEDB" id="path720"/>
    <path d="M712.013,224.219 L711.292,231.623 L691.303,439.358 L335.756,439.358 L325.344,331.077 L324.195,319.322 L322.365,300.322 L321.714,293.286 L320.749,283.615 L319.7,272.482 L319.108,266.47 L315.051,224.219 C343.23,196.408 380.613,174.713 423.58,161.998 C426.618,161.094 429.661,160.228 432.759,159.422 C437.965,158.066 443.266,156.822 448.626,155.738 C452.937,154.838 457.308,154.028 461.679,153.316 C464.662,152.848 467.631,152.422 470.639,152.048 C478.202,151.023 485.86,150.313 493.642,149.87 C499.778,149.507 506.013,149.323 512.274,149.323 L514.785,149.323 C530.284,149.323 545.445,150.437 560.168,152.545 C562.739,152.917 565.315,153.315 567.861,153.753 C570.024,154.092 572.202,154.499 574.365,154.898 C579.725,155.922 585.066,157.101 590.272,158.433 C603.538,161.66 616.313,165.778 628.53,170.71 C630.101,171.302 631.688,171.953 633.239,172.6 C636.088,173.814 638.913,175.051 641.702,176.324 C650.633,180.411 659.155,184.936 667.34,189.844 C681.845,198.551 695.111,208.471 706.961,219.411 C708.507,220.807 710.024,222.265 711.516,223.752 L712.013,224.22" fill="#145B73" id="path722"/>
    <path d="M-0,326.99 L1027.054,326.99 L1027.054,439.542 L-0,439.542 z" fill="#56E3E6" id="path724"/>
    <path d="M-0,320.565 L1027.054,320.565 L1027.054,414.749 L-0,414.749 z" fill="#24CEDB" id="path726"/>
    <path d="M48.223,365.158 L49.048,365.158 L49.048,405.097 L48.223,405.097 z" fill="#C6C6C8" id="path728"/>
    <path d="M17.568,365.158 L48.223,365.158 L48.223,405.097 L17.568,405.097 z" fill="#FFFFFF" id="path730"/>
    <path d="M20.457,367.774 L47.333,367.774 L47.333,402.472 L20.457,402.472 z" fill="#145B73" id="path732"/>
    <path d="M48.223,371.473 L48.223,391.373 L37.124,402.472 L20.457,402.472 L20.457,399.24 L44.712,374.979 L48.223,371.473" fill="#3B899E" id="path734"/>
    <path d="M44.712,367.774 L44.712,372.125 L20.457,396.386 L20.457,389.305 L42.032,367.774 L44.712,367.774" fill="#3B899E" id="path736"/>
    <path d="M44.712,365.138 L48.223,365.138 L48.223,405.097 L44.712,405.097 z" fill="#FFFFFF" id="path738"/>
    <path d="M79.684,365.148 L80.529,365.148 L80.529,405.097 L79.684,405.097 z" fill="#C6C6C8" id="path740"/>
    <path d="M49.048,365.148 L79.684,365.148 L79.684,405.097 L49.048,405.097 z" fill="#FFFFFF" id="path742"/>
    <path d="M51.932,367.774 L78.804,367.774 L78.804,402.452 L51.932,402.452 z" fill="#145B73" id="path744"/>
    <path d="M79.699,371.473 L79.699,391.373 L68.6,402.452 L51.932,402.452 L51.932,399.24 L76.188,374.979 L79.699,371.473" fill="#3B899E" id="path746"/>
    <path d="M76.188,367.774 L76.188,372.125 L51.932,396.376 L51.932,389.305 L73.508,367.774 L76.188,367.774" fill="#3B899E" id="path748"/>
    <path d="M76.188,365.134 L79.699,365.134 L79.699,405.097 L76.188,405.097 z" fill="#FFFFFF" id="path750"/>
    <path d="M111.165,365.138 L111.995,365.138 L111.995,405.097 L111.165,405.097 z" fill="#C6C6C8" id="path752"/>
    <path d="M80.529,365.138 L111.165,365.138 L111.165,405.097 L80.529,405.097 z" fill="#FFFFFF" id="path754"/>
    <path d="M83.413,367.754 L110.284,367.754 L110.284,402.452 L83.413,402.452 z" fill="#145B73" id="path756"/>
    <path d="M111.17,371.463 L111.17,391.363 L100.081,402.452 L83.413,402.452 L83.413,399.24 L107.674,374.979 L111.17,371.463" fill="#3B899E" id="path758"/>
    <path d="M107.674,367.754 L107.674,372.125 L83.413,396.376 L83.413,389.305 L104.984,367.754 L107.674,367.754" fill="#3B899E" id="path760"/>
    <path d="M107.674,365.134 L111.17,365.134 L111.17,405.087 L107.674,405.087 z" fill="#FFFFFF" id="path762"/>
    <path d="M142.645,365.138 L143.481,365.138 L143.481,405.097 L142.645,405.097 z" fill="#C6C6C8" id="path764"/>
    <path d="M111.995,365.138 L142.645,365.138 L142.645,405.097 L111.995,405.097 z" fill="#FFFFFF" id="path766"/>
    <path d="M114.894,367.754 L141.75,367.754 L141.75,402.452 L114.894,402.452 z" fill="#145B73" id="path768"/>
    <path d="M142.65,371.463 L142.65,391.363 L131.557,402.452 L114.894,402.452 L114.894,399.23 L139.14,374.979 L142.65,371.463" fill="#3B899E" id="path770"/>
    <path d="M139.14,367.754 L139.14,372.125 L114.894,396.376 L114.894,389.305 L136.455,367.754 L139.14,367.754" fill="#3B899E" id="path772"/>
    <path d="M139.14,365.134 L142.65,365.134 L142.65,405.087 L139.14,405.087 z" fill="#FFFFFF" id="path774"/>
    <path d="M174.116,365.134 L174.946,365.134 L174.946,405.087 L174.116,405.087 z" fill="#C6C6C8" id="path776"/>
    <path d="M143.481,365.134 L174.116,365.134 L174.116,405.087 L143.481,405.087 z" fill="#FFFFFF" id="path778"/>
    <path d="M146.365,367.754 L173.236,367.754 L173.236,402.452 L146.365,402.452 z" fill="#145B73" id="path780"/>
    <path d="M174.121,371.463 L174.121,391.353 L163.032,402.452 L146.365,402.452 L146.365,399.23 L170.62,374.979 L174.121,371.463" fill="#3B899E" id="path782"/>
    <path d="M170.62,367.754 L170.62,372.115 L146.365,396.376 L146.365,389.305 L167.94,367.754 L170.62,367.754" fill="#3B899E" id="path784"/>
    <path d="M170.62,365.134 L174.121,365.134 L174.121,405.087 L170.62,405.087 z" fill="#FFFFFF" id="path786"/>
    <path d="M205.607,365.134 L206.427,365.134 L206.427,405.087 L205.607,405.087 z" fill="#C6C6C8" id="path788"/>
    <path d="M174.946,365.134 L205.607,365.134 L205.607,405.087 L174.946,405.087 z" fill="#FFFFFF" id="path790"/>
    <path d="M177.84,367.754 L204.702,367.754 L204.702,402.452 L177.84,402.452 z" fill="#145B73" id="path792"/>
    <path d="M205.607,371.454 L205.607,391.353 L194.513,402.452 L177.84,402.452 L177.84,399.22 L202.091,374.979 L205.607,371.454" fill="#3B899E" id="path794"/>
    <path d="M202.091,367.754 L202.091,372.115 L177.84,396.376 L177.84,389.295 L199.411,367.754 L202.091,367.754" fill="#3B899E" id="path796"/>
    <path d="M202.091,365.124 L205.607,365.124 L205.607,405.077 L202.091,405.077 z" fill="#FFFFFF" id="path798"/>
    <path d="M237.072,365.134 L237.903,365.134 L237.903,405.087 L237.072,405.087 z" fill="#C6C6C8" id="path800"/>
    <path d="M206.427,365.134 L237.072,365.134 L237.072,405.087 L206.427,405.087 z" fill="#FFFFFF" id="path802"/>
    <path d="M209.311,367.754 L236.182,367.754 L236.182,402.452 L209.311,402.452 z" fill="#145B73" id="path804"/>
    <path d="M237.072,371.454 L237.072,391.353 L225.984,402.452 L209.311,402.452 L209.311,399.22 L233.562,374.959 L237.072,371.454" fill="#3B899E" id="path806"/>
    <path d="M233.562,367.754 L233.562,372.115 L209.311,396.376 L209.311,389.285 L230.887,367.754 L233.562,367.754" fill="#3B899E" id="path808"/>
    <path d="M233.562,365.124 L237.072,365.124 L237.072,405.077 L233.562,405.077 z" fill="#FFFFFF" id="path810"/>
    <path d="M268.548,365.134 L269.374,365.134 L269.374,405.077 L268.548,405.077 z" fill="#C6C6C8" id="path812"/>
    <path d="M237.903,365.134 L268.548,365.134 L268.548,405.077 L237.903,405.077 z" fill="#FFFFFF" id="path814"/>
    <path d="M240.792,367.754 L267.668,367.754 L267.668,402.432 L240.792,402.432 z" fill="#145B73" id="path816"/>
    <path d="M268.548,371.444 L268.548,391.353 L257.47,402.432 L240.792,402.432 L240.792,399.22 L265.048,374.949 L268.548,371.444" fill="#3B899E" id="path818"/>
    <path d="M265.048,367.754 L265.048,372.115 L240.792,396.366 L240.792,389.275 L262.362,367.754 L265.048,367.754" fill="#3B899E" id="path820"/>
    <path d="M265.048,365.124 L268.548,365.124 L268.548,405.067 L265.048,405.067 z" fill="#FFFFFF" id="path822"/>
    <path d="M300.024,365.124 L300.849,365.124 L300.849,405.077 L300.024,405.077 z" fill="#C6C6C8" id="path824"/>
    <path d="M269.374,365.124 L300.024,365.124 L300.024,405.077 L269.374,405.077 z" fill="#FFFFFF" id="path826"/>
    <path d="M272.273,367.744 L299.139,367.744 L299.139,402.432 L272.273,402.432 z" fill="#145B73" id="path828"/>
    <path d="M300.034,371.444 L300.034,391.343 L288.945,402.432 L272.273,402.432 L272.273,399.22 L296.523,374.949 L300.034,371.444" fill="#3B899E" id="path830"/>
    <path d="M296.523,367.744 L296.523,372.105 L272.273,396.366 L272.273,389.275 L293.838,367.744 L296.523,367.744" fill="#3B899E" id="path832"/>
    <path d="M296.523,365.124 L300.034,365.124 L300.034,405.067 L296.523,405.067 z" fill="#FFFFFF" id="path834"/>
    <path d="M331.505,365.124 L332.325,365.124 L332.325,405.067 L331.505,405.067 z" fill="#C6C6C8" id="path836"/>
    <path d="M300.849,365.124 L331.505,365.124 L331.505,405.067 L300.849,405.067 z" fill="#FFFFFF" id="path838"/>
    <path d="M303.743,367.744 L330.62,367.744 L330.62,402.432 L303.743,402.432 z" fill="#145B73" id="path840"/>
    <path d="M331.505,371.444 L331.505,391.343 L320.406,402.432 L303.743,402.432 L303.743,399.21 L331.505,371.444" fill="#3B899E" id="path842"/>
    <path d="M327.999,367.744 L327.999,372.105 L303.743,396.356 L303.743,389.275 L325.309,367.744 L327.999,367.744" fill="#3B899E" id="path844"/>
    <path d="M327.999,365.104 L331.505,365.104 L331.505,405.057 L327.999,405.057 z" fill="#FFFFFF" id="path846"/>
    <path d="M332.325,365.124 L362.985,365.124 L362.985,405.067 L332.325,405.067 z" fill="#FFFFFF" id="path848"/>
    <path d="M335.214,367.734 L362.085,367.734 L362.085,402.427 L335.214,402.427 z" fill="#145B73" id="path850"/>
    <path d="M362.085,372.359 L362.085,392.248 L351.877,402.427 L335.214,402.427 L335.214,399.2 L359.47,374.939 L362.085,372.359" fill="#3B899E" id="path852"/>
    <path d="M359.47,367.744 L359.47,372.095 L335.224,396.346 L335.224,389.275 L356.79,367.744 L359.47,367.744" fill="#3B899E" id="path854"/>
    <path d="M359.47,365.104 L362.985,365.104 L362.985,405.057 L359.47,405.057 z" fill="#FFFFFF" id="path856"/>
    <path d="M697.235,365.158 L698.065,365.158 L698.065,405.097 L697.235,405.097 z" fill="#C6C6C8" id="path858"/>
    <path d="M666.585,365.158 L697.235,365.158 L697.235,405.097 L666.585,405.097 z" fill="#FFFFFF" id="path860"/>
    <path d="M669.474,367.774 L696.35,367.774 L696.35,402.472 L669.474,402.472 z" fill="#145B73" id="path862"/>
    <path d="M697.235,371.473 L697.235,391.373 L686.141,402.472 L669.474,402.472 L669.474,399.24 L693.724,374.979 L697.235,371.473" fill="#3B899E" id="path864"/>
    <path d="M693.724,367.774 L693.724,372.125 L669.474,396.386 L669.474,389.305 L691.044,367.774 L693.724,367.774" fill="#3B899E" id="path866"/>
    <path d="M693.724,365.138 L697.235,365.138 L697.235,405.097 L693.724,405.097 z" fill="#FFFFFF" id="path868"/>
    <path d="M728.696,365.148 L729.536,365.148 L729.536,405.097 L728.696,405.097 z" fill="#C6C6C8" id="path870"/>
    <path d="M698.065,365.148 L728.696,365.148 L728.696,405.097 L698.065,405.097 z" fill="#FFFFFF" id="path872"/>
    <path d="M700.949,367.774 L727.826,367.774 L727.826,402.452 L700.949,402.452 z" fill="#145B73" id="path874"/>
    <path d="M728.716,371.473 L728.716,391.373 L717.622,402.452 L700.949,402.452 L700.949,399.24 L725.2,374.979 L728.716,371.473" fill="#3B899E" id="path876"/>
    <path d="M725.2,367.774 L725.2,372.125 L700.949,396.376 L700.949,389.305 L722.52,367.774 L725.2,367.774" fill="#3B899E" id="path878"/>
    <path d="M725.2,365.134 L728.716,365.134 L728.716,405.097 L725.2,405.097 z" fill="#FFFFFF" id="path880"/>
    <path d="M760.181,365.138 L761.007,365.138 L761.007,405.097 L760.181,405.097 z" fill="#C6C6C8" id="path882"/>
    <path d="M729.536,365.138 L760.181,365.138 L760.181,405.097 L729.536,405.097 z" fill="#FFFFFF" id="path884"/>
    <path d="M732.425,367.754 L759.301,367.754 L759.301,402.452 L732.425,402.452 z" fill="#145B73" id="path886"/>
    <path d="M760.181,371.463 L760.181,391.363 L749.103,402.452 L732.425,402.452 L732.425,399.24 L756.686,374.979 L760.181,371.463" fill="#3B899E" id="path888"/>
    <path d="M756.686,367.754 L756.686,372.125 L732.425,396.376 L732.425,389.305 L753.996,367.754 L756.686,367.754" fill="#3B899E" id="path890"/>
    <path d="M756.686,365.134 L760.181,365.134 L760.181,405.087 L756.686,405.087 z" fill="#FFFFFF" id="path892"/>
    <path d="M791.657,365.138 L792.492,365.138 L792.492,405.097 L791.657,405.097 z" fill="#C6C6C8" id="path894"/>
    <path d="M761.007,365.138 L791.657,365.138 L791.657,405.097 L761.007,405.097 z" fill="#FFFFFF" id="path896"/>
    <path d="M763.906,367.754 L790.772,367.754 L790.772,402.452 L763.906,402.452 z" fill="#145B73" id="path898"/>
    <path d="M791.662,371.463 L791.662,391.363 L780.568,402.452 L763.906,402.452 L763.906,399.23 L788.151,374.979 L791.662,371.463" fill="#3B899E" id="path900"/>
    <path d="M788.151,367.754 L788.151,372.125 L763.906,396.376 L763.906,389.305 L785.471,367.754 L788.151,367.754" fill="#3B899E" id="path902"/>
    <path d="M788.151,365.134 L791.662,365.134 L791.662,405.087 L788.151,405.087 z" fill="#FFFFFF" id="path904"/>
    <path d="M823.128,365.134 L823.963,365.134 L823.963,405.087 L823.128,405.087 z" fill="#C6C6C8" id="path906"/>
    <path d="M792.492,365.134 L823.128,365.134 L823.128,405.087 L792.492,405.087 z" fill="#FFFFFF" id="path908"/>
    <path d="M795.381,367.754 L822.253,367.754 L822.253,402.452 L795.381,402.452 z" fill="#145B73" id="path910"/>
    <path d="M823.138,371.463 L823.138,391.353 L812.044,402.452 L795.381,402.452 L795.381,399.23 L819.632,374.979 L823.138,371.463" fill="#3B899E" id="path912"/>
    <path d="M819.632,367.754 L819.632,372.115 L795.381,396.376 L795.381,389.305 L816.952,367.754 L819.632,367.754" fill="#3B899E" id="path914"/>
    <path d="M819.632,365.134 L823.138,365.134 L823.138,405.087 L819.632,405.087 z" fill="#FFFFFF" id="path916"/>
    <path d="M854.623,365.134 L855.444,365.134 L855.444,405.087 L854.623,405.087 z" fill="#C6C6C8" id="path918"/>
    <path d="M823.963,365.134 L854.623,365.134 L854.623,405.087 L823.963,405.087 z" fill="#FFFFFF" id="path920"/>
    <path d="M826.857,367.754 L853.723,367.754 L853.723,402.452 L826.857,402.452 z" fill="#145B73" id="path922"/>
    <path d="M854.623,371.454 L854.623,391.353 L843.525,402.452 L826.857,402.452 L826.857,399.22 L851.113,374.979 L854.623,371.454" fill="#3B899E" id="path924"/>
    <path d="M851.113,367.754 L851.113,372.115 L826.857,396.376 L826.857,389.295 L848.423,367.754 L851.113,367.754" fill="#3B899E" id="path926"/>
    <path d="M851.113,365.124 L854.623,365.124 L854.623,405.077 L851.113,405.077 z" fill="#FFFFFF" id="path928"/>
    <path d="M886.089,365.134 L886.92,365.134 L886.92,405.087 L886.089,405.087 z" fill="#C6C6C8" id="path930"/>
    <path d="M855.444,365.134 L886.089,365.134 L886.089,405.087 L855.444,405.087 z" fill="#FFFFFF" id="path932"/>
    <path d="M858.333,367.754 L885.199,367.754 L885.199,402.452 L858.333,402.452 z" fill="#145B73" id="path934"/>
    <path d="M886.089,371.454 L886.089,391.353 L874.996,402.452 L858.333,402.452 L858.333,399.22 L886.089,371.454" fill="#3B899E" id="path936"/>
    <path d="M882.584,367.754 L882.584,372.115 L858.333,396.376 L858.333,389.285 L879.909,367.754 L882.584,367.754" fill="#3B899E" id="path938"/>
    <path d="M882.584,365.124 L886.089,365.124 L886.089,405.077 L882.584,405.077 z" fill="#FFFFFF" id="path940"/>
    <path d="M917.565,365.134 L918.395,365.134 L918.395,405.077 L917.565,405.077 z" fill="#C6C6C8" id="path942"/>
    <path d="M886.92,365.134 L917.565,365.134 L917.565,405.077 L886.92,405.077 z" fill="#FFFFFF" id="path944"/>
    <path d="M889.809,367.754 L916.68,367.754 L916.68,402.432 L889.809,402.432 z" fill="#145B73" id="path946"/>
    <path d="M917.565,371.444 L917.565,391.353 L906.481,402.432 L889.809,402.432 L889.809,399.22 L914.069,374.949 L917.565,371.444" fill="#3B899E" id="path948"/>
    <path d="M914.069,367.754 L914.069,372.115 L889.809,396.366 L889.809,389.275 L911.384,367.754 L914.069,367.754" fill="#3B899E" id="path950"/>
    <path d="M914.069,365.124 L917.565,365.124 L917.565,405.067 L914.069,405.067 z" fill="#FFFFFF" id="path952"/>
    <path d="M949.041,365.124 L949.861,365.124 L949.861,405.077 L949.041,405.077 z" fill="#C6C6C8" id="path954"/>
    <path d="M918.395,365.124 L949.041,365.124 L949.041,405.077 L918.395,405.077 z" fill="#FFFFFF" id="path956"/>
    <path d="M921.289,367.744 L948.151,367.744 L948.151,402.432 L921.289,402.432 z" fill="#145B73" id="path958"/>
    <path d="M949.046,371.444 L949.046,391.343 L937.952,402.432 L921.289,402.432 L921.289,399.22 L945.54,374.949 L949.046,371.444" fill="#3B899E" id="path960"/>
    <path d="M945.54,367.744 L945.54,372.105 L921.289,396.366 L921.289,389.275 L942.86,367.744 L945.54,367.744" fill="#3B899E" id="path962"/>
    <path d="M945.54,365.124 L949.046,365.124 L949.046,405.067 L945.54,405.067 z" fill="#FFFFFF" id="path964"/>
    <path d="M980.521,365.124 L981.347,365.124 L981.347,405.067 L980.521,405.067 z" fill="#C6C6C8" id="path966"/>
    <path d="M949.861,365.124 L980.521,365.124 L980.521,405.067 L949.861,405.067 z" fill="#FFFFFF" id="path968"/>
    <path d="M952.76,367.744 L979.631,367.744 L979.631,402.432 L952.76,402.432 z" fill="#145B73" id="path970"/>
    <path d="M980.521,371.444 L980.521,391.343 L969.423,402.432 L952.76,402.432 L952.76,399.21 L980.521,371.444" fill="#3B899E" id="path972"/>
    <path d="M977.016,367.744 L977.016,372.105 L952.76,396.356 L952.76,389.275 L974.326,367.744 L977.016,367.744" fill="#3B899E" id="path974"/>
    <path d="M977.016,365.104 L980.521,365.104 L980.521,405.057 L977.016,405.057 z" fill="#FFFFFF" id="path976"/>
    <path d="M981.347,365.124 L1011.997,365.124 L1011.997,405.067 L981.347,405.067 z" fill="#FFFFFF" id="path978"/>
    <path d="M984.221,367.734 L1011.097,367.734 L1011.097,402.427 L984.221,402.427 z" fill="#145B73" id="path980"/>
    <path d="M1011.097,372.359 L1011.097,392.248 L1000.899,402.427 L984.221,402.427 L984.221,399.2 L1008.492,374.939 L1011.097,372.359" fill="#3B899E" id="path982"/>
    <path d="M1008.492,367.744 L1008.492,372.095 L984.241,396.346 L984.241,389.275 L1005.806,367.744 L1008.492,367.744" fill="#3B899E" id="path984"/>
    <path d="M1008.492,365.104 L1011.997,365.104 L1011.997,405.057 L1008.492,405.057 z" fill="#FFFFFF" id="path986"/>
    <path d="M768.988,273.665 L769.818,273.665 L769.818,313.599 L768.988,313.599 z" fill="#C6C6C8" id="path988"/>
    <path d="M738.332,273.665 L768.988,273.665 L768.988,313.599 L738.332,313.599 z" fill="#FFFFFF" id="path990"/>
    <path d="M741.221,276.266 L768.097,276.266 L768.097,310.978 L741.221,310.978 z" fill="#145B73" id="path992"/>
    <path d="M768.988,279.98 L768.988,299.875 L757.889,310.978 L741.221,310.978 L741.221,307.741 L765.477,283.486 L768.988,279.98" fill="#3B899E" id="path994"/>
    <path d="M765.477,276.266 L765.477,280.626 L741.221,304.897 L741.221,297.806 L762.792,276.266 L765.477,276.266" fill="#3B899E" id="path996"/>
    <path d="M765.477,273.645 L768.988,273.645 L768.988,313.599 L765.477,313.599 z" fill="#FFFFFF" id="path998"/>
    <path d="M800.448,273.66 L801.284,273.66 L801.284,313.599 L800.448,313.599 z" fill="#C6C6C8" id="path1000"/>
    <path d="M769.818,273.66 L800.448,273.66 L800.448,313.599 L769.818,313.599 z" fill="#FFFFFF" id="path1002"/>
    <path d="M772.692,276.266 L799.563,276.266 L799.563,310.963 L772.692,310.963 z" fill="#145B73" id="path1004"/>
    <path d="M800.458,279.98 L800.458,299.875 L789.37,310.963 L772.692,310.963 L772.692,307.741 L800.458,279.98" fill="#3B899E" id="path1006"/>
    <path d="M796.953,276.266 L796.953,280.626 L772.692,304.877 L772.692,297.806 L794.273,276.266 L796.953,276.266" fill="#3B899E" id="path1008"/>
    <path d="M796.953,273.635 L800.458,273.635 L800.458,313.599 L796.953,313.599 z" fill="#FFFFFF" id="path1010"/>
    <path d="M831.924,273.645 L832.76,273.645 L832.76,313.599 L831.924,313.599 z" fill="#C6C6C8" id="path1012"/>
    <path d="M801.284,273.645 L831.924,273.645 L831.924,313.599 L801.284,313.599 z" fill="#FFFFFF" id="path1014"/>
    <path d="M804.178,276.256 L831.049,276.256 L831.049,310.963 L804.178,310.963 z" fill="#145B73" id="path1016"/>
    <path d="M831.924,279.975 L831.924,299.87 L820.855,310.963 L804.178,310.963 L804.178,307.741 L828.433,283.486 L831.924,279.975" fill="#3B899E" id="path1018"/>
    <path d="M828.433,276.256 L828.433,280.626 L804.178,304.877 L804.178,297.806 L825.748,276.256 L828.433,276.256" fill="#3B899E" id="path1020"/>
    <path d="M828.433,273.635 L831.924,273.635 L831.924,313.589 L828.433,313.589 z" fill="#FFFFFF" id="path1022"/>
    <path d="M863.41,273.645 L864.245,273.645 L864.245,313.599 L863.41,313.599 z" fill="#C6C6C8" id="path1024"/>
    <path d="M832.76,273.645 L863.41,273.645 L863.41,313.599 L832.76,313.599 z" fill="#FFFFFF" id="path1026"/>
    <path d="M835.658,276.256 L862.515,276.256 L862.515,310.958 L835.658,310.958 z" fill="#145B73" id="path1028"/>
    <path d="M863.415,279.975 L863.415,299.87 L852.321,310.958 L835.658,310.958 L835.658,307.736 L863.415,279.975" fill="#3B899E" id="path1030"/>
    <path d="M859.904,276.256 L859.904,280.626 L835.658,304.872 L835.658,297.806 L857.219,276.256 L859.904,276.256" fill="#3B899E" id="path1032"/>
    <path d="M859.904,273.635 L863.415,273.635 L863.415,313.589 L859.904,313.589 z" fill="#FFFFFF" id="path1034"/>
    <path d="M894.876,273.635 L895.711,273.635 L895.711,313.589 L894.876,313.589 z" fill="#C6C6C8" id="path1036"/>
    <path d="M864.245,273.635 L894.876,273.635 L894.876,313.589 L864.245,313.589 z" fill="#FFFFFF" id="path1038"/>
    <path d="M867.129,276.256 L894.005,276.256 L894.005,310.958 L867.129,310.958 z" fill="#145B73" id="path1040"/>
    <path d="M894.886,279.975 L894.886,299.86 L883.797,310.958 L867.129,310.958 L867.129,307.736 L891.38,283.486 L894.886,279.975" fill="#3B899E" id="path1042"/>
    <path d="M891.38,276.256 L891.38,280.616 L867.129,304.872 L867.129,297.806 L888.705,276.256 L891.38,276.256" fill="#3B899E" id="path1044"/>
    <path d="M891.38,273.635 L894.886,273.635 L894.886,313.579 L891.38,313.579 z" fill="#FFFFFF" id="path1046"/>
    <path d="M895.711,273.635 L926.366,273.635 L926.366,313.589 L895.711,313.589 z" fill="#FFFFFF" id="path1048"/>
    <path d="M898.6,276.251 L925.486,276.251 L925.486,310.949 L898.6,310.949 z" fill="#145B73" id="path1050"/>
    <path d="M925.486,280.84 L925.486,300.745 L915.278,310.949 L898.6,310.949 L898.6,307.726 L925.486,280.84" fill="#3B899E" id="path1052"/>
    <path d="M922.851,276.256 L922.851,280.616 L898.6,304.872 L898.6,297.796 L920.171,276.256 L922.851,276.256" fill="#3B899E" id="path1054"/>
    <path d="M922.851,273.625 L926.366,273.625 L926.366,313.569 L922.851,313.569 z" fill="#FFFFFF" id="path1056"/>
    <path d="M133.854,273.665 L134.684,273.665 L134.684,313.599 L133.854,313.599 z" fill="#C6C6C8" id="path1058"/>
    <path d="M103.204,273.665 L133.854,273.665 L133.854,313.599 L103.204,313.599 z" fill="#FFFFFF" id="path1060"/>
    <path d="M106.093,276.266 L132.974,276.266 L132.974,310.978 L106.093,310.978 z" fill="#145B73" id="path1062"/>
    <path d="M133.854,279.98 L133.854,299.875 L122.755,310.978 L106.093,310.978 L106.093,307.741 L130.343,283.486 L133.854,279.98" fill="#3B899E" id="path1064"/>
    <path d="M130.343,276.266 L130.343,280.626 L106.093,304.897 L106.093,297.806 L127.663,276.266 L130.343,276.266" fill="#3B899E" id="path1066"/>
    <path d="M130.343,273.645 L133.854,273.645 L133.854,313.599 L130.343,313.599 z" fill="#FFFFFF" id="path1068"/>
    <path d="M165.325,273.66 L166.16,273.66 L166.16,313.599 L165.325,313.599 z" fill="#C6C6C8" id="path1070"/>
    <path d="M134.684,273.66 L165.325,273.66 L165.325,313.599 L134.684,313.599 z" fill="#FFFFFF" id="path1072"/>
    <path d="M137.568,276.266 L164.44,276.266 L164.44,310.963 L137.568,310.963 z" fill="#145B73" id="path1074"/>
    <path d="M165.335,279.98 L165.335,299.875 L154.241,310.963 L137.568,310.963 L137.568,307.741 L161.824,283.486 L165.335,279.98" fill="#3B899E" id="path1076"/>
    <path d="M161.824,276.266 L161.824,280.626 L137.568,304.877 L137.568,297.806 L159.144,276.266 L161.824,276.266" fill="#3B899E" id="path1078"/>
    <path d="M161.824,273.635 L165.335,273.635 L165.335,313.599 L161.824,313.599 z" fill="#FFFFFF" id="path1080"/>
    <path d="M196.8,273.645 L197.636,273.645 L197.636,313.599 L196.8,313.599 z" fill="#C6C6C8" id="path1082"/>
    <path d="M166.16,273.645 L196.8,273.645 L196.8,313.599 L166.16,313.599 z" fill="#FFFFFF" id="path1084"/>
    <path d="M169.044,276.256 L195.915,276.256 L195.915,310.963 L169.044,310.963 z" fill="#145B73" id="path1086"/>
    <path d="M196.8,279.975 L196.8,299.87 L185.722,310.963 L169.044,310.963 L169.044,307.741 L193.305,283.486 L196.8,279.975" fill="#3B899E" id="path1088"/>
    <path d="M193.305,276.256 L193.305,280.626 L169.044,304.877 L169.044,297.806 L190.62,276.256 L193.305,276.256" fill="#3B899E" id="path1090"/>
    <path d="M193.305,273.635 L196.8,273.635 L196.8,313.589 L193.305,313.589 z" fill="#FFFFFF" id="path1092"/>
    <path d="M228.281,273.645 L229.112,273.645 L229.112,313.599 L228.281,313.599 z" fill="#C6C6C8" id="path1094"/>
    <path d="M197.636,273.645 L228.281,273.645 L228.281,313.599 L197.636,313.599 z" fill="#FFFFFF" id="path1096"/>
    <path d="M200.53,276.256 L227.391,276.256 L227.391,310.958 L200.53,310.958 z" fill="#145B73" id="path1098"/>
    <path d="M228.291,279.975 L228.291,299.87 L217.188,310.958 L200.53,310.958 L200.53,307.736 L228.291,279.975" fill="#3B899E" id="path1100"/>
    <path d="M224.781,276.256 L224.781,280.626 L200.53,304.872 L200.53,297.806 L222.095,276.256 L224.781,276.256" fill="#3B899E" id="path1102"/>
    <path d="M224.781,273.635 L228.291,273.635 L228.291,313.589 L224.781,313.589 z" fill="#FFFFFF" id="path1104"/>
    <path d="M259.752,273.635 L260.582,273.635 L260.582,313.589 L259.752,313.589 z" fill="#C6C6C8" id="path1106"/>
    <path d="M229.112,273.635 L259.752,273.635 L259.752,313.589 L229.112,313.589 z" fill="#FFFFFF" id="path1108"/>
    <path d="M232.001,276.256 L258.877,276.256 L258.877,310.958 L232.001,310.958 z" fill="#145B73" id="path1110"/>
    <path d="M259.762,279.975 L259.762,299.86 L248.668,310.958 L232.001,310.958 L232.001,307.736 L256.256,283.486 L259.762,279.975" fill="#3B899E" id="path1112"/>
    <path d="M256.256,276.256 L256.256,280.616 L232.001,304.872 L232.001,297.806 L253.576,276.256 L256.256,276.256" fill="#3B899E" id="path1114"/>
    <path d="M256.256,273.635 L259.762,273.635 L259.762,313.579 L256.256,313.579 z" fill="#FFFFFF" id="path1116"/>
    <path d="M260.582,273.635 L291.238,273.635 L291.238,313.589 L260.582,313.589 z" fill="#FFFFFF" id="path1118"/>
    <path d="M263.476,276.251 L290.352,276.251 L290.352,310.949 L263.476,310.949 z" fill="#145B73" id="path1120"/>
    <path d="M290.352,280.84 L290.352,300.745 L280.149,310.949 L263.476,310.949 L263.476,307.726 L290.352,280.84" fill="#3B899E" id="path1122"/>
    <path d="M287.732,276.256 L287.732,280.616 L263.481,304.872 L263.481,297.796 L285.047,276.256 L287.732,276.256" fill="#3B899E" id="path1124"/>
    <path d="M287.732,273.625 L291.238,273.625 L291.238,313.569 L287.732,313.569 z" fill="#FFFFFF" id="path1126"/>
    <path d="M423.58,161.998 L319.108,266.47 L315.051,224.219 C343.23,196.408 380.613,174.713 423.58,161.998" fill="#3B899E" id="path1128"/>
    <path d="M448.626,155.738 L414.838,189.521 L411.895,192.474 L367.595,236.769 L364.716,239.653 L363.289,241.08 L360.186,244.177 L321.992,282.376 L319.138,285.225 L318.089,274.092 L432.759,159.422 C437.965,158.065 443.266,156.821 448.626,155.737" fill="#3B899E" id="path1130"/>
    <path d="M560.169,152.546 L466.487,246.227 L463.449,249.27 L419.89,292.819 L416.947,295.768 L392.149,320.565 L322.957,320.565 L402.437,241.08 L413.695,229.828 L461.808,181.714 L464.812,178.706 L493.642,149.87 C499.624,149.508 505.705,149.323 511.806,149.323 L515.063,149.323 C530.468,149.323 545.535,150.438 560.169,152.546" fill="#3B899E" id="path1132"/>
    <path d="M574.365,154.898 L565.534,163.739 L562.337,166.921 L515.063,214.199 L514.909,214.349 L511.965,217.288 L511.806,217.457 L466.859,262.404 L463.856,265.412 L420.665,308.593 L417.722,311.546 L408.701,320.561 L401.044,320.561 L511.806,209.795 L515.063,206.543 L562.525,159.081 L565.718,155.883 L567.861,153.75 C570.024,154.088 572.202,154.496 574.365,154.894" fill="#3B899E" id="path1134"/>
    <path d="M470.639,152.048 L464.309,158.373 L461.276,161.411 L415.674,207.014 L412.73,209.953 L368.833,253.855 L365.954,256.739 L323.608,299.084 L322.365,300.323 L320.749,301.939 L320.073,294.928 L321.714,293.287 L322.927,292.079 L365.427,249.574 L368.311,246.695 L370.822,244.179 L373.925,241.081 L461.092,153.909 L461.679,153.317 L464.19,152.948 C466.333,152.604 468.466,152.326 470.639,152.048" fill="#3B899E" id="path1136"/>
    <path d="M628.53,170.71 L615.413,183.822 L612.156,187.074 L563.739,235.466 L563.739,235.504 L560.576,238.672 L555.052,244.186 L515.063,284.18 L514.909,284.33 L511.966,287.244 L478.635,320.569 L428.14,320.569 L464.309,284.389 L467.323,281.391 L507.625,241.084 L511.806,236.898 L590.272,158.437 C598.119,160.326 605.776,162.564 613.245,165.07 C614.269,165.408 615.294,165.75 616.283,166.124 C620.435,167.547 624.498,169.103 628.53,170.714" fill="#3B899E" id="path1138"/>
    <path d="M641.702,176.324 L563.301,254.72 L560.109,257.917 L515.063,302.963 L511.806,306.21 L500.559,317.467 L497.456,320.565 L485.268,320.565 L488.371,317.467 L560.422,245.421 L564.758,241.08 L611.818,194.016 L615.075,190.764 L633.239,172.599 C636.088,173.813 638.913,175.051 641.702,176.324" fill="#3B899E" id="path1140"/>
    <path d="M706.961,219.41 L685.291,241.08 L682.188,244.178 L660.269,266.097 L656.923,269.448 L605.806,320.565 L536.609,320.565 L609.182,247.992 L612.439,244.745 L667.34,189.844 C681.845,198.551 695.112,208.471 706.961,219.41" fill="#3B899E" id="path1142"/>
    <path d="M712.013,224.219 L711.292,231.623 L709.596,233.333 L698.741,244.178 L622.359,320.565 L614.702,320.565 L710.402,224.87 L711.516,223.752 L712.013,224.22" fill="#3B899E" id="path1144"/>
    <path d="M701.501,317.467 L656.52,317.467 L658.967,283.948 L659.558,275.709 L660.269,266.097 L661.851,244.178 L708.537,244.178 z M653.422,317.467 L608.874,317.467 L612.439,244.745 L612.465,244.177 L658.754,244.177 L656.924,269.448 L656.208,279.054 L655.616,287.299 z M605.776,317.467 L561.75,317.467 L563.301,254.72 L563.545,244.178 L609.366,244.178 L609.182,247.992 z M558.652,317.467 L515.063,317.467 L515.063,244.178 L560.447,244.178 L560.422,245.422 L559.119,298.061 z M711.948,241.08 L714.211,217.735 C713.251,216.81 712.321,215.874 711.327,215.01 L710.402,224.87 L709.596,233.333 L708.851,241.08 L662.07,241.08 L665.67,191.51 L666.346,182.022 C665.356,181.436 664.362,180.85 663.372,180.288 L658.967,241.081 L612.623,241.081 L616.283,166.121 L616.591,159.617 C615.567,159.239 614.572,158.901 613.553,158.563 L613.245,165.067 L612.156,187.075 L609.525,241.081 L563.615,241.081 L563.739,235.497 L563.739,235.459 L565.534,163.731 L565.718,155.88 L565.937,147.113 C564.918,146.963 563.858,146.8 562.839,146.646 L562.526,159.077 L560.577,238.656 L560.513,241.073 L515.064,241.073 L515.064,143.11 L511.966,143.11 L511.966,320.558 L704.321,320.558 L704.634,317.46 L711.67,244.171 L716.32,244.171 L716.598,241.073 L711.949,241.073" fill="#24CEDB" id="path1146"/>
    <path d="M511.966,287.24 L511.966,236.739 L511.806,236.89 L511.806,241.076 L507.624,241.076 L504.521,244.174 L511.806,244.174 L511.806,294.023 L514.909,290.921 L514.909,284.322 z M511.806,317.467 L468.223,317.467 L467.323,281.387 L466.86,262.407 L466.7,254.909 L466.486,246.227 L466.422,244.178 L511.806,244.178 z M421.103,317.467 L420.665,308.597 L420.297,301.317 L419.89,292.819 L417.503,244.178 L463.324,244.178 L463.662,257.947 L463.856,265.416 L464.309,284.386 L465.124,317.467 z M373.457,317.467 L370.23,273.292 L368.832,253.855 L368.126,244.178 L414.4,244.178 L416.946,295.768 L417.349,304.261 L417.721,311.55 L418.005,317.467 z M325.373,317.467 L323.608,299.084 L322.926,292.078 L321.992,282.377 L320.932,271.248 L320.346,265.227 L318.332,244.178 L365.023,244.178 L365.426,249.573 L365.953,256.739 L367.345,276.171 L370.354,317.467 z M511.806,143.118 L511.806,241.08 L466.362,241.08 L464.309,158.373 L464.19,152.948 L464.042,146.653 C463.017,146.803 461.963,146.967 460.939,147.121 L461.093,153.908 L461.277,161.412 L461.809,181.714 L463.266,241.081 L417.35,241.081 L416.669,226.855 L415.675,207.014 L415.337,199.66 L414.839,189.521 L414.247,177.935 L413.973,171.616 L413.63,165.161 L413.327,158.563 C412.297,158.901 411.303,159.239 410.283,159.617 L410.597,166.186 L411.024,174.549 L411.303,180.879 L411.894,192.475 L412.392,202.614 L412.73,209.953 L413.694,229.828 L414.246,241.081 L367.903,241.081 L367.595,236.77 L366.754,225.428 L366.317,219.262 L364,187.329 L363.502,180.287 C362.513,180.849 361.523,181.436 360.529,182.022 L361.056,189.063 L361.056,189.101 L363.443,222.153 L363.87,228.319 L364.716,239.661 L364.806,241.087 L318.025,241.087 L316.324,223.012 L315.544,215.017 C314.554,215.881 313.624,216.817 312.66,217.742 L314.922,241.087 L310.278,241.087 L310.556,244.185 L320.074,320.572 L514.909,320.572 L514.909,143.124 z M511.966,287.24 L511.966,236.739 L511.806,236.89 L511.806,241.076 L507.624,241.076 L504.521,244.174 L511.806,244.174 L511.806,294.023 L514.909,290.921 L514.909,284.322 z M511.966,287.24 L511.966,236.739 L511.806,236.89 L511.806,241.076 L507.624,241.076 L504.521,244.174 L511.806,244.174 L511.806,294.023 L514.909,290.921 L514.909,284.322 L511.966,287.236" fill="#24CEDB" id="path1148"/>
    <path d="M381.98,353.896 L645.059,353.896 L645.059,371.404 L381.98,371.404 z" fill="#FFFFFF" id="path1150"/>
    <path d="M435.325,384.089 L511.966,384.089 L511.966,420.681 L435.325,420.681 z" fill="#145B73" id="path1152"/>
    <path d="M435.325,366.655 L511.966,366.655 L511.966,381.04 L435.325,381.04 z" fill="#145B73" id="path1154"/>
    <path d="M407.126,381.04 L407.126,363.607 L407.111,363.607 L407.111,423.744 L407.126,423.744 L407.126,381.04" fill="#145B73" id="path1156"/>
    <path d="M515.039,384.089 L515.039,423.744 L515.039,363.607 L515.039,384.089" fill="#145B73" id="path1158"/>
    <path d="M410.194,420.681 L432.272,420.681 L432.272,384.089 L410.194,384.089 z" fill="#145B73" id="path1160"/>
    <path d="M411.721,366.655 L410.194,366.655 L410.194,381.04 L432.272,381.04 L432.272,366.655 L411.721,366.655" fill="#145B73" id="path1162"/>
    <path d="M407.126,423.744 L411.721,423.744 L407.126,423.744" fill="#DFE4E4" id="path1164"/>
    <path d="M411.721,423.744 L432.272,423.744 L411.721,423.744" fill="#DFE4E4" id="path1166"/>
    <path d="M432.272,423.744 L435.325,423.744 L432.272,423.744" fill="#DFE4E4" id="path1168"/>
    <path d="M386.58,384.089 L385.053,384.089 L385.053,420.681 L407.126,420.681 L407.126,384.089 L386.58,384.089" fill="#145B73" id="path1170"/>
    <path d="M386.58,366.655 L385.053,366.655 L385.053,381.04 L407.136,381.04 L407.136,366.655 L386.58,366.655" fill="#145B73" id="path1172"/>
    <path d="M385.053,366.655 L407.136,366.655 L407.136,381.04 L385.053,381.04 z M385.053,384.089 L407.136,384.089 L407.136,420.681 L385.053,420.681 z M407.136,363.607 L381.99,363.607 L381.99,423.744 L410.189,423.744 L410.189,363.607 L407.136,363.607" fill="#FFFFFF" id="path1174"/>
    <path d="M459.551,363.607 L462.619,363.607 L462.619,423.744 L459.551,423.744 z" fill="#FFFFFF" id="path1176"/>
    <path d="M486.845,363.607 L489.888,363.607 L489.888,423.744 L486.845,423.744 z" fill="#FFFFFF" id="path1178"/>
    <path d="M435.325,384.089 L511.966,384.089 L511.966,420.681 L435.325,420.681 z M410.194,366.655 L432.272,366.655 L432.272,381.04 L410.194,381.04 z M410.194,384.089 L432.272,384.089 L432.272,420.681 L410.194,420.681 z M435.325,366.655 L511.851,366.655 L511.851,381.04 L435.325,381.04 z M435.325,363.607 L407.126,363.607 L407.126,423.744 L515.039,423.744 L515.039,363.607 L435.325,363.607" fill="#FFFFFF" id="path1180"/>
    <path d="M565.35,384.089 L641.991,384.089 L641.991,420.681 L565.35,420.681 z" fill="#145B73" id="path1182"/>
    <path d="M565.35,366.655 L641.991,366.655 L641.991,381.04 L565.35,381.04 z" fill="#145B73" id="path1184"/>
    <path d="M537.156,381.04 L537.156,363.607 L537.142,363.607 L537.142,423.744 L537.156,423.744 L537.156,381.04" fill="#145B73" id="path1186"/>
    <path d="M645.059,384.089 L645.059,423.744 L645.064,423.744 L645.064,363.607 L645.059,363.607 L645.059,384.089" fill="#145B73" id="path1188"/>
    <path d="M540.214,420.681 L562.297,420.681 L562.297,384.089 L540.214,384.089 z" fill="#145B73" id="path1190"/>
    <path d="M541.751,366.655 L540.214,366.655 L540.214,381.04 L562.297,381.04 L562.297,366.655 L541.751,366.655" fill="#145B73" id="path1192"/>
    <path d="M512.015,381.04 L512.015,363.607 L512.001,363.607 L512.001,423.744 L512.015,423.744 L512.015,381.04" fill="#145B73" id="path1194"/>
    <path d="M516.6,384.089 L515.078,384.089 L515.078,420.681 L537.151,420.681 L537.151,384.089 L516.6,384.089" fill="#145B73" id="path1196"/>
    <path d="M516.6,366.655 L515.078,366.655 L515.078,381.04 L537.161,381.04 L537.161,366.655 L516.6,366.655" fill="#145B73" id="path1198"/>
    <path d="M515.078,366.655 L537.161,366.655 L537.161,381.04 L515.078,381.04 z M515.078,384.089 L537.161,384.089 L537.161,420.681 L515.078,420.681 z M537.161,363.607 L512.015,363.607 L512.015,423.744 L540.214,423.744 L540.214,363.607 L537.161,363.607" fill="#FFFFFF" id="path1200"/>
    <path d="M589.581,363.607 L592.639,363.607 L592.639,423.744 L589.581,423.744 z" fill="#FFFFFF" id="path1202"/>
    <path d="M616.865,363.607 L619.913,363.607 L619.913,423.744 L616.865,423.744 z" fill="#FFFFFF" id="path1204"/>
    <path d="M565.35,384.089 L641.991,384.089 L641.991,420.681 L565.35,420.681 z M540.214,366.655 L562.297,366.655 L562.297,381.04 L540.214,381.04 z M540.214,384.089 L562.297,384.089 L562.297,420.681 L540.214,420.681 z M565.35,366.655 L641.871,366.655 L641.871,381.04 L565.35,381.04 z M565.35,363.607 L537.156,363.607 L537.156,423.744 L645.059,423.744 L645.059,363.607 L565.35,363.607" fill="#FFFFFF" id="path1206"/>
    <path d="M381.955,423.371 L512,423.371 L512,424.978 L381.955,424.978 z" fill="#FFFFFF" id="path1208"/>
    <path d="M381.955,424.977 L512,424.977 L512,429.269 L381.955,429.269 z" fill="#DFE4E4" id="path1210"/>
    <path d="M377.933,428.523 L512,428.523 L512,430.124 L377.933,430.124 z" fill="#FFFFFF" id="path1212"/>
    <path d="M377.933,430.124 L512,430.124 L512,434.425 L377.933,434.425 z" fill="#DFE4E4" id="path1214"/>
    <path d="M372.493,433.649 L512,433.649 L512,435.25 L372.493,435.25 z" fill="#FFFFFF" id="path1216"/>
    <path d="M372.493,435.25 L512,435.25 L512,439.542 L372.493,439.542 z" fill="#DFE4E4" id="path1218"/>
    <path d="M506.839,423.371 L645.064,423.371 L645.064,424.978 L506.839,424.978 z" fill="#FFFFFF" id="path1220"/>
    <path d="M506.839,424.977 L645.064,424.977 L645.064,429.269 L506.839,429.269 z" fill="#DFE4E4" id="path1222"/>
    <path d="M506.839,428.523 L649.917,428.523 L649.917,430.124 L506.839,430.124 z" fill="#FFFFFF" id="path1224"/>
    <path d="M506.839,430.124 L649.917,430.124 L649.917,434.425 L506.839,434.425 z" fill="#DFE4E4" id="path1226"/>
    <path d="M506.839,433.649 L654.571,433.649 L654.571,435.25 L506.839,435.25 z" fill="#FFFFFF" id="path1228"/>
    <path d="M506.839,435.25 L654.571,435.25 L654.571,439.542 L506.839,439.542 z" fill="#DFE4E4" id="path1230"/>
    <path d="M364.522,277.862 L360.017,309.641 L369.027,309.641 z M358.137,321.485 L355.179,340.022 L342.509,340.022 L356.218,259.379 L372.95,259.379 L386.47,340.022 L373.681,340.022 L370.837,321.485 L358.137,321.485" fill="#3B899E" id="path1232"/>
    <path d="M403.496,259.379 L415.664,259.379 L415.664,340.022 L403.496,340.022 z" fill="#3B899E" id="path1234"/>
    <path d="M459.784,278.816 C459.784,274.142 457.467,271.805 452.838,271.805 L445.499,271.805 L445.499,297.602 L452.838,297.602 C454.762,297.602 456.408,296.931 457.756,295.554 C459.113,294.186 459.784,292.535 459.784,290.601 z M452.51,259.379 C459.292,259.379 464.27,261.255 467.442,264.983 C470.237,268.24 471.624,272.79 471.624,278.622 L471.624,290.338 C471.624,296.041 469.461,300.874 465.13,304.822 L474.135,340.022 L460.983,340.022 L453.604,309.641 L445.499,309.641 L445.499,340.022 L433.331,340.022 L433.331,259.379 L452.51,259.379" fill="#3B899E" id="path1236"/>
    <path d="M517.803,278.816 C517.803,276.723 517.167,275.022 515.909,273.74 C514.646,272.447 512.96,271.805 510.862,271.805 L503.517,271.805 L503.517,297.602 L510.862,297.602 C512.781,297.602 514.432,296.931 515.774,295.554 C517.132,294.186 517.803,292.535 517.803,290.601 z M510.533,259.379 C516.456,259.379 521.175,261.255 524.69,264.983 C527.952,268.548 529.578,273.098 529.578,278.622 L529.578,290.338 C529.578,295.658 527.728,300.208 524.014,303.977 C520.304,307.761 515.814,309.641 510.533,309.641 L503.517,309.641 L503.517,340.022 L491.355,340.022 L491.355,259.379 L510.533,259.379" fill="#3B899E" id="path1238"/>
    <path d="M570.616,277.399 C570.616,275.465 569.945,273.829 568.592,272.476 C567.235,271.135 565.599,270.453 563.664,270.453 C561.73,270.453 560.079,271.133 558.712,272.476 C557.334,273.83 556.653,275.465 556.653,277.399 L556.653,321.56 C556.653,323.484 557.334,325.13 558.712,326.478 C560.079,327.831 561.73,328.501 563.664,328.501 C565.599,328.501 567.235,327.83 568.592,326.478 C569.945,325.13 570.616,323.484 570.616,321.56 z M563.988,258.355 C569.348,258.355 573.908,260.244 577.662,264.018 C581.416,267.793 583.296,272.342 583.296,277.668 L583.296,321.674 C583.296,327.044 581.406,331.599 577.632,335.363 C573.858,339.108 569.308,340.987 563.988,340.987 C558.622,340.987 554.077,339.103 550.348,335.324 C546.609,331.554 544.744,327.005 544.744,321.674 L544.744,277.668 C544.744,272.302 546.629,267.743 550.408,263.979 C554.182,260.234 558.712,258.355 563.988,258.355" fill="#3B899E" id="path1240"/>
    <path d="M627.282,278.816 C627.282,274.142 624.97,271.805 620.336,271.805 L613.001,271.805 L613.001,297.602 L620.336,297.602 C622.26,297.602 623.906,296.931 625.258,295.554 C626.611,294.186 627.282,292.535 627.282,290.601 z M620.012,259.379 C626.79,259.379 631.767,261.255 634.945,264.983 C637.729,268.24 639.127,272.79 639.127,278.622 L639.127,290.338 C639.127,296.041 636.958,300.874 632.628,304.822 L641.638,340.022 L628.475,340.022 L621.106,309.641 L613.001,309.641 L613.001,340.022 L600.834,340.022 L600.834,259.379 L620.012,259.379" fill="#3B899E" id="path1242"/>
    <path d="M667.803,271.611 L654.869,271.611 L654.869,259.379 L692.839,259.379 L692.839,271.611 L679.975,271.611 L679.975,340.022 L667.803,340.022 L667.803,271.611" fill="#3B899E" id="path1244"/>
    <path d="M356.974,270.304 L352.464,302.092 L361.479,302.092 z M350.584,313.937 L347.63,332.469 L334.961,332.469 L348.67,251.826 L365.402,251.826 L378.917,332.469 L366.128,332.469 L363.284,313.937 L350.584,313.937" fill="#FFFFFF" id="path1246"/>
    <path d="M395.943,251.826 L408.116,251.826 L408.116,332.469 L395.943,332.469 z" fill="#FFFFFF" id="path1248"/>
    <path d="M452.236,271.268 C452.236,266.589 449.919,264.252 445.285,264.252 L437.95,264.252 L437.95,290.054 L445.285,290.054 C447.209,290.054 448.855,289.378 450.207,288.006 C451.56,286.634 452.236,284.982 452.236,283.053 z M444.962,251.826 C451.739,251.826 456.716,253.701 459.894,257.43 C462.678,260.692 464.076,265.242 464.076,271.069 L464.076,282.785 C464.076,288.488 461.908,293.321 457.582,297.269 L466.582,332.469 L453.43,332.469 L446.055,302.092 L437.95,302.092 L437.95,332.469 L425.778,332.469 L425.778,251.826 L444.962,251.826" fill="#FFFFFF" id="path1250"/>
    <path d="M510.255,271.268 C510.255,269.175 509.618,267.474 508.361,266.186 C507.092,264.893 505.407,264.252 503.303,264.252 L495.969,264.252 L495.969,290.054 L503.303,290.054 C505.233,290.054 506.874,289.378 508.221,288.006 C509.584,286.634 510.255,284.982 510.255,283.053 z M502.985,251.826 C508.902,251.826 513.621,253.701 517.137,257.43 C520.404,260.99 522.03,265.54 522.03,271.069 L522.03,282.785 C522.03,288.105 520.18,292.655 516.466,296.424 C512.756,300.208 508.261,302.092 502.985,302.092 L495.969,302.092 L495.969,332.469 L483.801,332.469 L483.801,251.826 L502.985,251.826" fill="#FFFFFF" id="path1252"/>
    <path d="M563.068,269.846 C563.068,267.917 562.391,266.281 561.044,264.923 C559.681,263.581 558.045,262.904 556.111,262.904 C554.182,262.904 552.531,263.581 551.159,264.923 C549.786,266.28 549.1,267.917 549.1,269.846 L549.1,314.006 C549.1,315.931 549.786,317.577 551.159,318.929 C552.531,320.277 554.182,320.953 556.111,320.953 C558.045,320.953 559.681,320.277 561.044,318.929 C562.391,317.576 563.068,315.931 563.068,314.006 z M556.439,250.802 C561.8,250.802 566.359,252.691 570.114,256.465 C573.868,260.244 575.747,264.794 575.747,270.115 L575.747,314.126 C575.747,319.496 573.858,324.051 570.084,327.815 C566.305,331.559 561.755,333.434 556.439,333.434 C551.074,333.434 546.529,331.554 542.8,327.775 C539.061,323.996 537.191,319.451 537.191,314.126 L537.191,270.115 C537.191,264.744 539.08,260.19 542.855,256.425 C546.629,252.681 551.159,250.802 556.439,250.802" fill="#FFFFFF" id="path1254"/>
    <path d="M619.729,271.268 C619.729,266.589 617.412,264.252 612.787,264.252 L605.448,264.252 L605.448,290.054 L612.787,290.054 C614.712,290.054 616.358,289.378 617.705,288.006 C619.063,286.634 619.729,284.982 619.729,283.053 z M612.459,251.826 C619.242,251.826 624.219,253.701 627.392,257.43 C630.181,260.692 631.573,265.242 631.573,271.069 L631.573,282.785 C631.573,288.488 629.41,293.321 625.074,297.269 L634.084,332.469 L620.927,332.469 L613.553,302.092 L605.448,302.092 L605.448,332.469 L593.28,332.469 L593.28,251.826 L612.459,251.826" fill="#FFFFFF" id="path1256"/>
    <path d="M660.255,264.058 L647.316,264.058 L647.316,251.826 L685.291,251.826 L685.291,264.058 L672.422,264.058 L672.422,332.469 L660.255,332.469 L660.255,264.058" fill="#FFFFFF" id="path1258"/>
    <path d="M356.979,270.294 L352.469,302.088 L361.484,302.088 z M350.584,313.932 L347.635,332.464 L334.965,332.464 L348.68,251.826 L365.407,251.826 L378.922,332.464 L366.133,332.464 L363.289,313.932 L350.584,313.932" fill="#FFFFFF" id="path1260"/>
    <path d="M395.948,251.826 L408.116,251.826 L408.116,332.464 L395.948,332.464 z" fill="#FFFFFF" id="path1262"/>
    <path d="M452.241,271.263 C452.241,266.584 449.919,264.242 445.285,264.242 L437.95,264.242 L437.95,290.054 L445.285,290.054 C447.219,290.054 448.86,289.368 450.212,287.996 C451.56,286.618 452.241,284.967 452.241,283.038 z M444.966,251.826 C451.744,251.826 456.721,253.69 459.899,257.425 C462.683,260.687 464.081,265.237 464.081,271.069 L464.081,282.779 C464.081,288.488 461.913,293.316 457.582,297.259 L466.587,332.464 L453.435,332.464 L446.06,302.088 L437.95,302.088 L437.95,332.464 L425.783,332.464 L425.783,251.826 L444.966,251.826" fill="#FFFFFF" id="path1264"/>
    <path d="M510.265,271.263 C510.265,269.16 509.628,267.464 508.365,266.176 C507.098,264.889 505.412,264.242 503.308,264.242 L495.974,264.242 L495.974,290.054 L503.308,290.054 C505.243,290.054 506.884,289.368 508.231,287.996 C509.584,286.618 510.265,284.967 510.265,283.038 z M502.99,251.826 C508.908,251.826 513.626,253.69 517.147,257.425 C520.409,260.985 522.04,265.535 522.04,271.069 L522.04,282.779 C522.04,288.1 520.185,292.65 516.476,296.424 C512.761,300.203 508.266,302.088 502.99,302.088 L495.974,302.088 L495.974,332.464 L483.806,332.464 L483.806,251.826 L502.99,251.826" fill="#FFFFFF" id="path1266"/>
    <path d="M563.068,269.841 C563.068,267.917 562.391,266.276 561.044,264.923 C559.691,263.57 558.05,262.895 556.116,262.895 C554.187,262.895 552.536,263.571 551.159,264.923 C549.791,266.276 549.1,267.917 549.1,269.841 L549.1,313.992 C549.1,315.926 549.791,317.567 551.159,318.919 C552.536,320.267 554.187,320.948 556.116,320.948 C558.05,320.948 559.691,320.268 561.044,318.919 C562.391,317.566 563.068,315.926 563.068,313.992 z M556.439,250.797 C561.805,250.797 566.359,252.681 570.119,256.46 C573.873,260.234 575.747,264.784 575.747,270.105 L575.747,314.126 C575.747,319.486 573.858,324.046 570.084,327.8 C566.305,331.554 561.76,333.434 556.439,333.434 C551.079,333.434 546.529,331.545 542.8,327.77 C539.065,323.991 537.196,319.441 537.196,314.126 L537.196,270.105 C537.196,264.739 539.085,260.18 542.859,256.425 C546.634,252.671 551.159,250.797 556.439,250.797" fill="#FFFFFF" id="path1268"/>
    <path d="M619.744,271.263 C619.744,266.584 617.422,264.242 612.792,264.242 L605.453,264.242 L605.453,290.054 L612.792,290.054 C614.722,290.054 616.368,289.368 617.715,287.996 C619.068,286.618 619.744,284.967 619.744,283.038 z M612.469,251.826 C619.252,251.826 624.229,253.69 627.401,257.425 C630.191,260.687 631.583,265.237 631.583,271.069 L631.583,282.779 C631.583,288.488 629.42,293.316 625.084,297.259 L634.094,332.464 L620.937,332.464 L613.563,302.088 L605.453,302.088 L605.453,332.464 L593.29,332.464 L593.29,251.826 L612.469,251.826" fill="#FFFFFF" id="path1270"/>
    <path d="M660.26,264.053 L647.321,264.053 L647.321,251.826 L685.296,251.826 L685.296,264.053 L672.422,264.053 L672.422,332.464 L660.26,332.464 L660.26,264.053" fill="#FFFFFF" id="path1272"/>
  </g>
</svg>
