<?xml version="1.0" encoding="UTF-8" standalone="no"?>
<svg
   xmlns:dc="http://purl.org/dc/elements/1.1/"
   xmlns:cc="http://creativecommons.org/ns#"
   xmlns:rdf="http://www.w3.org/1999/02/22-rdf-syntax-ns#"
   xmlns:svg="http://www.w3.org/2000/svg"
   xmlns="http://www.w3.org/2000/svg"
   xmlns:sodipodi="http://sodipodi.sourceforge.net/DTD/sodipodi-0.dtd"
   xmlns:inkscape="http://www.inkscape.org/namespaces/inkscape"
   version="1.1"
   x="0"
   y="0"
   width="1057.547"
   height="799.76898"
   viewBox="0 0 1057.547 799.76898"
   id="svg316"
   sodipodi:docname="airport-signs.svg"
   inkscape:version="0.92.4 (5da689c313, 2019-01-14)">
  <metadata
     id="metadata322">
    <rdf:RDF>
      <cc:Work
         rdf:about="">
        <dc:format>image/svg+xml</dc:format>
        <dc:type
           rdf:resource="http://purl.org/dc/dcmitype/StillImage" />
        <dc:title></dc:title>
      </cc:Work>
    </rdf:RDF>
  </metadata>
  <defs
     id="defs320" />
  <sodipodi:namedview
     pagecolor="#ffffff"
     bordercolor="#666666"
     borderopacity="1"
     objecttolerance="10"
     gridtolerance="10"
     guidetolerance="10"
     inkscape:pageopacity="0"
     inkscape:pageshadow="2"
     inkscape:window-width="3440"
     inkscape:window-height="1377"
     id="namedview318"
     showgrid="false"
     fit-margin-top="5"
     fit-margin-left="5"
     fit-margin-bottom="5"
     fit-margin-right="5"
     inkscape:zoom="0.78666667"
     inkscape:cx="524.377"
     inkscape:cy="505.4"
     inkscape:window-x="-8"
     inkscape:window-y="-8"
     inkscape:window-maximized="1"
     inkscape:current-layer="svg316" />
  <path
     style="fill:#ffd047"
     inkscape:connector-curvature="0"
     id="path7"
     d="M 163.648,194.414 H 35.766 C 18.801,194.414 5,180.612 5,163.648 V 35.766 C 5,18.802 18.801,5 35.766,5 h 151.179 c 4.119,0 7.469,3.351 7.469,7.469 v 151.179 c 0,16.964 -13.802,30.766 -30.766,30.766" />
  <path
     style="fill:#ffd047"
     inkscape:connector-curvature="0"
     id="path9"
     d="M 397.169,345.085 H 35.766 C 18.801,345.085 5,331.284 5,314.319 V 245.615 C 5,228.65 18.801,214.848 35.766,214.848 h 338.109 c 16.963,0 30.763,13.8 30.763,30.763 v 92.006 c 0,4.118 -3.351,7.468 -7.469,7.468" />
  <path
     style="fill:#ffd047"
     inkscape:connector-curvature="0"
     id="path11"
     d="M 373.871,794.769 H 12.468 C 8.35,794.769 5,791.419 5,787.299 v -92.01 c 0,-16.96 13.799,-30.76 30.762,-30.76 h 338.109 c 16.965,0 30.767,13.801 30.767,30.77 v 68.7 c 0,16.97 -13.802,30.77 -30.767,30.77" />
  <path
     style="fill:#ffd047"
     inkscape:connector-curvature="0"
     id="path13"
     d="M 373.871,495.134 H 12.468 C 8.35,495.134 5,491.784 5,487.665 V 372.366 c 0,-4.118 3.35,-7.469 7.468,-7.469 h 361.403 c 16.965,0 30.767,13.802 30.767,30.767 v 68.703 c 0,16.966 -13.802,30.767 -30.767,30.767" />
  <path
     style="fill:#ffd047"
     inkscape:connector-curvature="0"
     id="path15"
     d="M 397.169,645.182 H 35.766 C 18.801,645.182 5,631.381 5,614.416 v -68.704 c 0,-16.964 13.801,-30.766 30.766,-30.766 h 361.403 c 4.118,0 7.469,3.351 7.469,7.469 v 115.298 c 0,4.119 -3.351,7.469 -7.469,7.469" />
  <path
     style="fill:#3f4962"
     inkscape:connector-curvature="0"
     id="path17"
     d="M 1024.647,498.42 H 799.294 c -15.386,0 -27.902,-12.517 -27.902,-27.903 V 394.31 c 0,-15.386 12.516,-27.903 27.902,-27.903 h 245.783 c 4.12,0 7.47,3.35 7.47,7.469 v 96.641 c 0,15.386 -12.52,27.903 -27.9,27.903" />
  <path
     style="fill:#3f4962"
     inkscape:connector-curvature="0"
     id="path19"
     d="M 1024.647,348.902 H 799.294 c -15.386,0 -27.902,-12.517 -27.902,-27.902 v -76.208 c 0,-15.385 12.516,-27.902 27.902,-27.902 h 245.783 c 4.12,0 7.47,3.35 7.47,7.468 V 321 c 0,15.385 -12.52,27.902 -27.9,27.902" />
  <path
     style="fill:#ffd047"
     inkscape:connector-curvature="0"
     id="path21"
     d="M 1021.787,187.617 H 461.995 c -16.962,0 -30.762,-13.8 -30.762,-30.762 V 5 h 621.314 v 151.855 c 0,16.962 -13.8,30.762 -30.76,30.762" />
  <path
     style="fill:#3f4962"
     inkscape:connector-curvature="0"
     id="path23"
     d="M 1024.647,794.129 H 799.294 c -15.386,0 -27.902,-12.52 -27.902,-27.9 V 543.827 c 0,-15.385 12.516,-27.902 27.902,-27.902 h 225.353 c 15.38,0 27.9,12.517 27.9,27.902 v 222.402 c 0,15.38 -12.52,27.9 -27.9,27.9" />
  <path
     style="fill:#ffd047"
     inkscape:connector-curvature="0"
     id="path25"
     d="M 714.556,214.848 H 461.473 c -16.962,0 -30.762,13.8 -30.762,30.763 v 541.098 c 0,4.12 3.351,7.47 7.469,7.47 h 299.67 c 4.118,0 7.469,-3.35 7.469,-7.47 V 245.611 c 0,-16.963 -13.8,-30.763 -30.763,-30.763" />
  <path
     style="fill:#ffd047"
     inkscape:connector-curvature="0"
     id="path27"
     d="M 376.769,194.414 H 248.883 c -16.964,0 -30.767,-13.802 -30.767,-30.766 V 35.766 C 218.116,18.802 231.919,5 248.883,5 h 151.18 c 4.118,0 7.468,3.351 7.468,7.469 v 151.184 c 0,16.961 -13.8,30.761 -30.762,30.761" />
  <path
     style="fill:#ffffff"
     inkscape:connector-curvature="0"
     id="path55"
     d="m 878.123,663.216 72.374,-60.571 c 4.45,-3.903 7.84,-8.866 9.86,-14.428 l 5.67,-12.43 c 2.29,-6.305 -3.82,-12.417 -10.13,-10.127 l -12.43,5.666 c -5.56,2.02 -10.52,5.412 -14.43,9.86 l -59.347,70.921 h -23.782 c -1.63,0 -3.193,0.648 -4.345,1.8 l -1.057,1.057 c -0.914,0.914 -0.573,2.466 0.64,2.913 l 18.902,6.966 c -0.171,1.419 0.289,2.892 1.368,3.971 l 0.729,0.728 0.728,0.728 c 0.848,0.848 1.941,1.312 3.058,1.391 l 6.422,17.423 c 0.446,1.212 1.999,1.553 2.913,0.64 l 1.057,-1.057 c 1.152,-1.153 1.8,-2.716 1.8,-4.345 v -21.106" />
  <path
     style="fill:#ffffff"
     inkscape:connector-curvature="0"
     id="path57"
     d="m 912.541,592.297 -55.165,-8.629 c -2.119,-0.332 -4.27,0.369 -5.787,1.886 l -2.338,2.339 c -0.874,0.873 -0.62,2.347 0.494,2.879 l 45.795,21.841 17.001,-20.316" />
  <path
     style="fill:#ffffff"
     inkscape:connector-curvature="0"
     id="path59"
     d="m 947.617,673.911 -8.55,-54.689 -20.209,16.91 21.659,45.41 c 0.53,1.115 2,1.368 2.88,0.495 l 2.34,-2.339 c 1.51,-1.517 2.21,-3.667 1.88,-5.787" />
  <path
     style="fill:#3f4962"
     inkscape:connector-curvature="0"
     id="path61"
     d="M 135.265,67.328 124.043,56.104 63.291,116.856 V 81.788 H 47.419 v 62.162 h 62.163 V 128.079 H 74.513 l 60.752,-60.751" />
  <path
     style="fill:#818181"
     inkscape:connector-curvature="0"
     id="path63"
     d="m 152.996,106.87 v -9.771 h -29.004 v 46.742 h 29.004 v -9.834 h -17.427 v -9.025 h 15.559 v -9.523 h -15.559 v -8.589 h 17.427" />
  <path
     style="fill:#818181"
     inkscape:connector-curvature="0"
     id="path65"
     d="m 54.873,57.947 h 5.751 c -0.098,0.997 -0.385,1.865 -0.862,2.606 -0.478,0.74 -1.091,1.304 -1.837,1.692 -0.748,0.387 -1.572,0.581 -2.471,0.581 -1.052,0 -1.983,-0.232 -2.792,-0.696 -0.81,-0.463 -1.443,-1.128 -1.899,-1.993 -0.457,-0.864 -0.686,-1.892 -0.686,-3.083 0,-1.162 0.225,-2.172 0.675,-3.031 0.449,-0.858 1.069,-1.518 1.857,-1.982 0.79,-0.464 1.683,-0.696 2.679,-0.696 1.107,0 2.066,0.27 2.875,0.81 0.81,0.54 1.387,1.253 1.734,2.138 H 61.89 C 61.488,52.84 60.71,51.692 59.554,50.847 58.398,50.003 56.969,49.58 55.267,49.58 c -1.398,0 -2.637,0.319 -3.716,0.956 -1.079,0.636 -1.92,1.519 -2.523,2.646 -0.601,1.129 -0.902,2.419 -0.902,3.872 0,1.454 0.301,2.745 0.902,3.873 0.603,1.127 1.444,2.006 2.523,2.636 1.079,0.63 2.325,0.945 3.737,0.945 1.287,0 2.436,-0.277 3.446,-0.831 1.011,-0.553 1.813,-1.301 2.409,-2.242 0.595,-0.942 0.954,-1.993 1.079,-3.156 v -1.743 h -7.349 v 1.411" />
  <path
     style="fill:#818181"
     inkscape:connector-curvature="0"
     id="path67"
     d="m 67.454,59.504 2.678,-7.39 2.679,7.39 z m 1.619,-9.508 -5.418,14.366 h 2.034 l 1.226,-3.384 h 6.435 l 1.225,3.384 H 76.61 L 71.211,49.996 h -2.138" />
  <path
     style="fill:#818181"
     inkscape:connector-curvature="0"
     id="path69"
     d="m 77.335,51.262 h 4.132 v 13.1 h 1.889 v -13.1 h 4.131 V 49.726 H 77.335 v 1.536" />
  <path
     style="fill:#818181"
     inkscape:connector-curvature="0"
     id="path71"
     d="m 99.507,51.262 v -1.536 h -8.075 v 14.636 h 8.075 V 62.826 H 93.32 v -5.107 h 5.565 V 56.266 H 93.32 v -5.004 h 6.187" />
  <path
     style="fill:#3f4962"
     inkscape:connector-curvature="0"
     id="path73"
     d="m 303.689,695.209 v 15.87 h 35.068 l -49.918,49.92 11.222,11.22 49.919,-49.92 v 35.07 h 15.871 v -62.16 h -62.162" />
  <path
     style="fill:#818181"
     inkscape:connector-curvature="0"
     id="path75"
     d="m 95.95,755.399 c -1.165,1.02 -2.784,1.54 -4.816,1.54 -2.029,0 -3.637,-0.52 -4.78,-1.53 h -0.001 c -1.127,-1 -1.676,-2.33 -1.676,-4.08 0,-1.76 0.562,-3.05 1.716,-3.95 1.209,-0.95 2.804,-1.42 4.741,-1.42 1.975,0 3.589,0.47 4.797,1.42 1.155,0.9 1.717,2.19 1.717,3.95 0,1.74 -0.556,3.08 -1.698,4.07 z m -8.78,-25.11 c 0.991,-0.86 2.287,-1.28 3.964,-1.28 1.714,0 3.03,0.42 4.021,1.28 0.951,0.83 1.413,1.98 1.413,3.53 0,1.55 -0.453,2.7 -1.384,3.51 -0.955,0.82 -2.318,1.24 -4.05,1.24 -1.717,0 -3.023,-0.4 -3.992,-1.24 v -0.01 c -0.932,-0.8 -1.384,-1.95 -1.384,-3.5 0,-1.55 0.462,-2.7 1.412,-3.53 z m 14.067,11.27 c 1.37,-0.76 2.471,-1.73 3.286,-2.91 1.166,-1.69 1.757,-3.75 1.757,-6.13 0,-2.11 -0.595,-4.1 -1.77,-5.91 -1.17,-1.81 -2.924,-3.28 -5.214,-4.37 -2.257,-1.08 -5.003,-1.63 -8.162,-1.63 -3.159,0 -5.905,0.55 -8.162,1.63 -2.288,1.09 -4.041,2.56 -5.213,4.37 -1.175,1.81 -1.77,3.8 -1.77,5.91 0,2.34 0.601,4.39 1.787,6.1 0.828,1.19 1.938,2.18 3.313,2.94 -1.643,0.89 -2.977,2.03 -3.98,3.39 -1.384,1.88 -2.086,4.18 -2.086,6.84 0,2.83 0.714,5.31 2.123,7.37 1.403,2.06 3.356,3.63 5.803,4.68 2.398,1.04 5.152,1.56 8.185,1.56 3.032,0 5.786,-0.52 8.186,-1.56 2.445,-1.05 4.406,-2.62 5.827,-4.67 1.431,-2.07 2.157,-4.55 2.157,-7.38 0,-2.66 -0.702,-4.96 -2.087,-6.84 -1.004,-1.36 -2.338,-2.5 -3.98,-3.39" />
  <path
     style="fill:#818181"
     inkscape:connector-curvature="0"
     id="path77"
     d="m 132.931,752.229 c -0.847,1.87 -2.493,2.77 -5.033,2.77 -2.579,0 -4.244,-0.9 -5.091,-2.77 -0.944,-2.09 -1.422,-5.16 -1.422,-9.14 0,-3.94 0.478,-7 1.423,-9.08 0.846,-1.87 2.511,-2.78 5.09,-2.78 2.54,0 4.186,0.91 5.033,2.78 0.945,2.09 1.424,5.14 1.424,9.08 0,3.98 -0.479,7.05 -1.424,9.14 z m -5.033,-30.43 c -10.804,0 -16.282,7.17 -16.282,21.29 0,14.16 5.478,21.34 16.282,21.34 5.729,0 9.931,-1.98 12.49,-5.88 2.479,-3.77 3.736,-8.98 3.736,-15.46 0,-6.45 -1.257,-11.63 -3.736,-15.41 -2.558,-3.9 -6.761,-5.88 -12.49,-5.88" />
  <path
     style="fill:#818181"
     inkscape:connector-curvature="0"
     id="path79"
     d="m 150.377,738.969 h 26.027 v 8.52 h -26.027 z" />
  <path
     style="fill:#818181"
     inkscape:connector-curvature="0"
     id="path81"
     d="m 207.395,736.149 c 0,1.85 -0.585,3.22 -1.787,4.2 -1.262,1.02 -2.715,1.52 -4.442,1.52 -1.845,0 -3.255,-0.51 -4.314,-1.57 -1.06,-1.06 -1.575,-2.57 -1.575,-4.6 0,-1.92 0.506,-3.36 1.546,-4.4 1.04,-1.04 2.424,-1.55 4.229,-1.55 2.127,0 3.675,0.58 4.732,1.77 1.084,1.21 1.611,2.73 1.611,4.63 z m -6.57,-15.14 c -3.14,0 -5.866,0.63 -8.102,1.88 -2.258,1.26 -3.981,3.03 -5.121,5.25 -1.125,2.19 -1.696,4.69 -1.696,7.45 0,4.5 1.206,8.06 3.583,10.56 2.389,2.51 5.687,3.78 9.801,3.78 2.513,0 4.753,-0.59 6.655,-1.75 0.817,-0.5 1.526,-1.08 2.122,-1.73 -0.127,3.09 -0.605,5.48 -1.425,7.11 -1.012,2 -2.618,2.98 -4.908,2.98 -3.022,0 -4.68,-1.63 -5.217,-5.12 l -0.122,-0.79 h -9.318 l 0.084,1.01 c 0.199,2.4 0.88,4.62 2.025,6.61 1.161,2.02 2.831,3.64 4.962,4.81 2.119,1.18 4.671,1.77 7.586,1.77 5.519,0 9.529,-2.03 11.915,-6.03 2.295,-3.84 3.458,-9.49 3.458,-16.79 0,-6.44 -1.156,-11.57 -3.438,-15.25 -2.37,-3.82 -6.691,-5.75 -12.844,-5.75" />
  <path
     style="fill:#818181"
     inkscape:connector-curvature="0"
     id="path83"
     d="m 255.085,742.509 c -0.961,-2.15 -2.454,-3.89 -4.437,-5.18 -1.982,-1.29 -4.477,-1.94 -7.416,-1.94 -1.971,0 -3.801,0.34 -5.439,1.01 -0.866,0.35 -1.643,0.77 -2.324,1.25 v -7.1 h 19.044 v -8.92 h -28.188 v 25.58 h 9.327 l 0.247,-0.56 c 0.417,-0.93 1.063,-1.66 1.974,-2.23 0.905,-0.57 2.04,-0.85 3.37,-0.85 1.837,0 3.198,0.48 4.162,1.48 0.971,1 1.443,2.4 1.443,4.29 0,2.01 -0.476,3.62 -1.415,4.79 -0.902,1.12 -2.272,1.67 -4.19,1.67 -1.593,0 -2.819,-0.41 -3.747,-1.26 -0.952,-0.87 -1.546,-2.03 -1.814,-3.54 l -0.137,-0.77 h -9.547 l 0.044,0.97 c 0.121,2.66 0.84,5.03 2.138,7.03 1.302,2.02 3.132,3.6 5.438,4.72 2.277,1.09 4.976,1.65 8.024,1.65 4.718,0 8.42,-1.4 11,-4.16 2.562,-2.74 3.86,-6.42 3.86,-10.93 0,-2.54 -0.476,-4.9 -1.417,-7" />
  <path
     style="fill:#818181"
     inkscape:connector-curvature="0"
     id="path85"
     d="m 87.917,692.741 c 1.154,0.844 1.933,1.988 2.335,3.448 h -1.993 c -0.346,-0.89 -0.924,-1.6 -1.734,-2.14 -0.81,-0.54 -1.768,-0.81 -2.875,-0.81 -0.996,0 -1.889,0.232 -2.678,0.695 -0.789,0.465 -1.409,1.125 -1.858,1.985 -0.45,0.86 -0.675,1.87 -0.675,3.03 0,1.19 0.229,2.22 0.686,3.08 0.457,0.87 1.089,1.53 1.899,1.99 0.81,0.47 1.74,0.7 2.792,0.7 0.899,0 1.724,-0.19 2.471,-0.58 0.747,-0.39 1.36,-0.95 1.837,-1.69 0.477,-0.74 0.764,-1.61 0.862,-2.61 h -5.751 v -1.41 h 7.349 v 1.74 c -0.125,1.17 -0.484,2.22 -1.08,3.16 -0.595,0.94 -1.397,1.69 -2.407,2.24 -1.012,0.56 -2.16,0.83 -3.447,0.83 -1.412,0 -2.657,-0.31 -3.737,-0.94 -1.079,-0.63 -1.92,-1.51 -2.522,-2.64 -0.602,-1.13 -0.903,-2.42 -0.903,-3.87 0,-1.45 0.301,-2.74 0.903,-3.87 0.602,-1.131 1.443,-2.013 2.522,-2.65 1.08,-0.636 2.318,-0.955 3.716,-0.955 1.703,0 3.131,0.423 4.288,1.267" />
  <path
     style="fill:#818181"
     inkscape:connector-curvature="0"
     id="path87"
     d="m 101.173,701.399 -2.679,-7.392 -2.678,7.392 z m 0.539,1.47 h -6.435 l -1.226,3.39 h -2.034 l 5.419,-14.369 h 2.138 l 5.398,14.369 h -2.035 l -1.225,-3.39" />
  <path
     style="fill:#818181"
     inkscape:connector-curvature="0"
     id="path89"
     d="m 115.85,691.62 v 1.536 h -4.131 v 13.103 h -1.889 v -13.103 h -4.132 v -1.536 h 10.152" />
  <path
     style="fill:#818181"
     inkscape:connector-curvature="0"
     id="path91"
     d="m 121.683,693.156 v 5.003 h 5.564 v 1.45 h -5.564 v 5.11 h 6.187 v 1.54 h -8.076 V 691.62 h 8.076 v 1.536 h -6.187" />
  <path
     style="fill:#818181"
     inkscape:connector-curvature="0"
     id="path93"
     d="m 140.72,704.389 c -0.332,0.59 -0.838,1.08 -1.516,1.45 -0.678,0.38 -1.515,0.56 -2.512,0.56 -0.969,0 -1.83,-0.17 -2.585,-0.53 -0.754,-0.35 -1.356,-0.83 -1.806,-1.45 -0.45,-0.62 -0.709,-1.32 -0.778,-2.11 h 2.014 c 0.041,0.42 0.183,0.82 0.425,1.22 0.242,0.39 0.589,0.72 1.038,0.97 0.45,0.26 0.993,0.39 1.63,0.39 0.831,0 1.467,-0.22 1.911,-0.67 0.441,-0.44 0.663,-1.01 0.663,-1.7 0,-0.6 -0.156,-1.08 -0.467,-1.45 -0.312,-0.38 -0.695,-0.67 -1.152,-0.89 -0.457,-0.21 -1.08,-0.44 -1.868,-0.69 -0.927,-0.31 -1.672,-0.59 -2.232,-0.86 -0.561,-0.27 -1.039,-0.68 -1.432,-1.22 -0.395,-0.54 -0.592,-1.25 -0.592,-2.14 0,-0.76 0.183,-1.428 0.55,-2.009 0.366,-0.582 0.892,-1.031 1.578,-1.349 0.684,-0.319 1.491,-0.478 2.419,-0.478 1.438,0 2.581,0.349 3.425,1.048 0.844,0.7 1.336,1.589 1.473,2.668 h -2.034 c -0.111,-0.58 -0.408,-1.093 -0.892,-1.536 -0.485,-0.443 -1.143,-0.665 -1.972,-0.665 -0.762,0 -1.371,0.198 -1.827,0.592 -0.457,0.394 -0.686,0.949 -0.686,1.669 0,0.57 0.149,1.03 0.447,1.38 0.297,0.36 0.667,0.63 1.11,0.83 0.443,0.2 1.053,0.43 1.827,0.68 0.941,0.3 1.699,0.59 2.273,0.87 0.575,0.28 1.062,0.7 1.464,1.26 0.402,0.56 0.602,1.3 0.602,2.23 0,0.69 -0.166,1.33 -0.498,1.93" />
  <path
     style="fill:#818181"
     inkscape:connector-curvature="0"
     id="path95"
     d="m 339.336,71.788 h 5.751 c -0.097,0.996 -0.384,1.865 -0.861,2.606 -0.478,0.74 -1.09,1.304 -1.837,1.692 -0.748,0.387 -1.572,0.58 -2.471,0.58 -1.052,0 -1.983,-0.231 -2.792,-0.695 -0.81,-0.463 -1.443,-1.128 -1.899,-1.993 -0.457,-0.865 -0.686,-1.892 -0.686,-3.083 0,-1.162 0.225,-2.172 0.674,-3.031 0.45,-0.858 1.07,-1.518 1.859,-1.982 0.789,-0.464 1.682,-0.696 2.678,-0.696 1.107,0 2.065,0.27 2.875,0.81 0.81,0.539 1.388,1.252 1.734,2.138 h 1.993 c -0.402,-1.454 -1.181,-2.601 -2.336,-3.446 -1.156,-0.844 -2.584,-1.267 -4.287,-1.267 -1.398,0 -2.636,0.319 -3.716,0.955 -1.079,0.637 -1.92,1.519 -2.523,2.647 -0.601,1.129 -0.902,2.419 -0.902,3.872 0,1.454 0.301,2.745 0.902,3.872 0.603,1.128 1.444,2.007 2.523,2.637 1.08,0.63 2.325,0.945 3.737,0.945 1.287,0 2.436,-0.278 3.446,-0.831 1.011,-0.553 1.813,-1.301 2.408,-2.242 0.596,-0.942 0.955,-1.993 1.08,-3.156 v -1.744 h -7.35 v 1.412" />
  <path
     style="fill:#818181"
     inkscape:connector-curvature="0"
     id="path97"
     d="m 351.918,73.345 2.678,-7.39 2.678,7.39 z m 1.619,-9.508 -5.418,14.366 h 2.034 l 1.225,-3.384 h 6.436 l 1.225,3.384 h 2.035 l -5.399,-14.366 h -2.138" />
  <path
     style="fill:#818181"
     inkscape:connector-curvature="0"
     id="path99"
     d="m 361.799,65.103 h 4.132 v 13.1 h 1.889 v -13.1 h 4.131 v -1.536 h -10.152 v 1.536" />
  <path
     style="fill:#818181"
     inkscape:connector-curvature="0"
     id="path101"
     d="m 383.971,65.103 v -1.536 h -8.075 v 14.636 h 8.075 v -1.537 h -6.186 V 71.56 h 5.564 v -1.453 h -5.564 v -5.004 h 6.186" />
  <path
     style="fill:#818181"
     inkscape:connector-curvature="0"
     id="path103"
     d="m 364.36,125.293 h -9.002 l 4.501,-12.897 z m 1.514,-27.945 h -11.968 l -17.225,46.244 h 12.281 l 3.112,-8.838 h 15.625 l 3.05,8.838 h 12.285 l -17.16,-46.244" />
  <path
     style="fill:#3f4962"
     inkscape:connector-curvature="0"
     id="path105"
     d="m 330.974,100.965 h -64.321 l 24.797,-24.796 -11.222,-11.224 -43.955,43.956 43.955,43.957 11.222,-11.223 -24.797,-24.798 h 64.321 v -15.872" />
  <path
     style="fill:#818181"
     inkscape:connector-curvature="0"
     id="path107"
     d="m 180.527,547.618 h 5.751 c -0.098,0.997 -0.385,1.866 -0.861,2.606 -0.478,0.74 -1.091,1.305 -1.838,1.692 -0.747,0.388 -1.572,0.581 -2.471,0.581 -1.052,0 -1.982,-0.232 -2.792,-0.696 -0.81,-0.463 -1.442,-1.128 -1.899,-1.993 -0.457,-0.864 -0.686,-1.892 -0.686,-3.082 0,-1.163 0.226,-2.173 0.675,-3.032 0.45,-0.858 1.069,-1.518 1.858,-1.982 0.789,-0.464 1.682,-0.695 2.678,-0.695 1.107,0 2.066,0.269 2.875,0.809 0.81,0.54 1.388,1.253 1.734,2.138 h 1.993 c -0.402,-1.453 -1.18,-2.601 -2.335,-3.445 -1.157,-0.845 -2.585,-1.268 -4.288,-1.268 -1.398,0 -2.636,0.32 -3.715,0.956 -1.08,0.636 -1.921,1.519 -2.523,2.647 -0.602,1.128 -0.903,2.418 -0.903,3.872 0,1.453 0.301,2.744 0.903,3.872 0.602,1.128 1.443,2.006 2.523,2.636 1.079,0.63 2.324,0.945 3.736,0.945 1.287,0 2.436,-0.277 3.447,-0.831 1.01,-0.553 1.812,-1.301 2.408,-2.242 0.595,-0.941 0.955,-1.992 1.079,-3.156 v -1.743 h -7.349 v 1.411" />
  <path
     style="fill:#818181"
     inkscape:connector-curvature="0"
     id="path109"
     d="m 193.108,549.176 2.678,-7.391 2.679,7.391 z m 1.62,-9.509 -5.418,14.366 h 2.033 l 1.226,-3.383 h 6.435 l 1.225,3.383 h 2.035 l -5.398,-14.366 h -2.138" />
  <path
     style="fill:#818181"
     inkscape:connector-curvature="0"
     id="path111"
     d="m 202.99,540.934 h 4.132 v 13.099 h 1.889 v -13.099 h 4.131 v -1.537 H 202.99 v 1.537" />
  <path
     style="fill:#818181"
     inkscape:connector-curvature="0"
     id="path113"
     d="m 217.086,554.033 h 8.076 v -1.536 h -6.187 v -5.107 h 5.564 v -1.453 h -5.564 v -5.003 h 6.187 v -1.537 h -8.076 v 14.636" />
  <path
     style="fill:#818181"
     inkscape:connector-curvature="0"
     id="path115"
     d="m 237.909,548.002 c -0.403,-0.56 -0.89,-0.978 -1.465,-1.255 -0.574,-0.277 -1.332,-0.568 -2.273,-0.873 -0.774,-0.249 -1.383,-0.473 -1.827,-0.674 -0.443,-0.201 -0.813,-0.477 -1.11,-0.831 -0.298,-0.353 -0.447,-0.812 -0.447,-1.38 0,-0.72 0.229,-1.277 0.686,-1.672 0.456,-0.393 1.066,-0.591 1.827,-0.591 0.829,0 1.487,0.221 1.972,0.664 0.484,0.443 0.781,0.955 0.893,1.537 h 2.033 c -0.137,-1.08 -0.629,-1.969 -1.473,-2.668 -0.844,-0.699 -1.987,-1.049 -3.425,-1.049 -0.928,0 -1.735,0.16 -2.419,0.478 -0.686,0.318 -1.212,0.768 -1.578,1.35 -0.367,0.58 -0.55,1.252 -0.55,2.013 0,0.886 0.197,1.599 0.592,2.138 0.394,0.54 0.871,0.945 1.432,1.215 0.561,0.27 1.305,0.557 2.232,0.861 0.788,0.249 1.411,0.482 1.868,0.696 0.457,0.214 0.841,0.509 1.152,0.883 0.311,0.373 0.467,0.858 0.467,1.453 0,0.692 -0.221,1.259 -0.663,1.702 -0.443,0.443 -1.08,0.664 -1.911,0.664 -0.637,0 -1.18,-0.128 -1.629,-0.384 -0.45,-0.256 -0.796,-0.581 -1.038,-0.976 -0.243,-0.394 -0.385,-0.799 -0.426,-1.214 h -2.014 c 0.069,0.789 0.328,1.492 0.779,2.107 0.449,0.616 1.051,1.1 1.806,1.453 0.754,0.353 1.615,0.53 2.584,0.53 0.997,0 1.834,-0.187 2.512,-0.561 0.678,-0.374 1.184,-0.858 1.516,-1.453 0.332,-0.595 0.498,-1.239 0.498,-1.931 0,-0.927 -0.2,-1.671 -0.601,-2.232" />
  <path
     style="fill:#3f4962"
     inkscape:connector-curvature="0"
     id="path117"
     d="M 142.82,573.996 H 78.5 L 103.296,549.199 92.074,537.976 48.119,581.932 92.074,625.887 103.296,614.664 78.5,589.867 h 64.32 v -15.871" />
  <path
     style="fill:#818181"
     inkscape:connector-curvature="0"
     id="path119"
     d="m 198.099,588.664 c -1.984,-1.288 -4.479,-1.941 -7.416,-1.941 -1.97,0 -3.8,0.339 -5.439,1.007 -0.867,0.353 -1.643,0.77 -2.324,1.248 v -7.096 h 19.044 v -8.916 h -28.189 v 25.572 h 9.328 l 0.247,-0.553 c 0.418,-0.933 1.064,-1.663 1.974,-2.232 0.904,-0.566 2.038,-0.853 3.37,-0.853 1.837,0 3.198,0.483 4.161,1.478 0.971,1.004 1.443,2.41 1.443,4.297 0,2.007 -0.476,3.617 -1.414,4.787 -0.902,1.123 -2.273,1.67 -4.19,1.67 -1.592,0 -2.818,-0.413 -3.748,-1.263 -0.952,-0.87 -1.545,-2.027 -1.814,-3.539 l -0.136,-0.77 h -9.547 l 0.044,0.976 c 0.12,2.658 0.84,5.023 2.138,7.03 1.301,2.014 3.131,3.599 5.437,4.712 2.276,1.098 4.976,1.655 8.024,1.655 4.721,0 8.422,-1.4 11.001,-4.162 2.562,-2.743 3.861,-6.419 3.861,-10.926 0,-2.544 -0.477,-4.901 -1.418,-7.004 -0.961,-2.148 -2.454,-3.89 -4.437,-5.177" />
  <path
     style="fill:#818181"
     inkscape:connector-curvature="0"
     id="path121"
     d="m 236.357,588.664 c -1.983,-1.288 -4.479,-1.941 -7.415,-1.941 -1.97,0 -3.8,0.339 -5.44,1.007 -0.866,0.353 -1.643,0.77 -2.324,1.248 v -7.096 h 19.045 v -8.916 h -28.189 v 25.572 h 9.327 l 0.247,-0.553 c 0.418,-0.933 1.064,-1.663 1.974,-2.232 0.905,-0.566 2.038,-0.853 3.37,-0.853 1.838,0 3.199,0.483 4.161,1.478 0.972,1.004 1.444,2.41 1.444,4.297 0,2.007 -0.476,3.617 -1.415,4.787 -0.901,1.123 -2.272,1.67 -4.19,1.67 -1.592,0 -2.818,-0.413 -3.747,-1.263 -0.953,-0.87 -1.546,-2.027 -1.814,-3.539 l -0.137,-0.77 h -9.547 l 0.045,0.976 c 0.12,2.658 0.839,5.023 2.137,7.03 1.302,2.014 3.131,3.599 5.438,4.712 2.276,1.098 4.975,1.655 8.024,1.655 4.72,0 8.421,-1.4 11,-4.162 2.562,-2.743 3.861,-6.419 3.861,-10.926 0,-2.544 -0.477,-4.901 -1.418,-7.004 -0.961,-2.148 -2.454,-3.89 -4.437,-5.177" />
  <path
     style="fill:#818181"
     inkscape:connector-curvature="0"
     id="path123"
     d="m 247.393,590.304 h 26.028 v 8.518 h -26.028 z" />
  <path
     style="fill:#818181"
     inkscape:connector-curvature="0"
     id="path125"
     d="m 277.011,582.166 h 18.09 l -14.837,33.598 h 10.349 l 14.983,-35.25 v -7.094 h -28.585 v 8.746" />
  <path
     style="fill:#818181"
     inkscape:connector-curvature="0"
     id="path127"
     d="m 333.404,587.486 c 0,1.843 -0.585,3.216 -1.787,4.194 -1.261,1.025 -2.714,1.523 -4.442,1.523 -1.845,0 -3.256,-0.515 -4.315,-1.574 -1.059,-1.059 -1.574,-2.563 -1.574,-4.598 0,-1.92 0.506,-3.359 1.546,-4.399 1.041,-1.04 2.424,-1.546 4.229,-1.546 2.127,0 3.674,0.576 4.733,1.763 1.083,1.218 1.61,2.735 1.61,4.637 z m 6.274,-9.389 c -2.37,-3.82 -6.692,-5.757 -12.844,-5.757 -3.142,0 -5.868,0.633 -8.103,1.88 -2.258,1.263 -3.981,3.03 -5.12,5.25 -1.125,2.188 -1.695,4.694 -1.695,7.447 0,4.509 1.205,8.063 3.582,10.564 2.389,2.513 5.687,3.786 9.8,3.786 2.513,0 4.753,-0.591 6.656,-1.758 0.817,-0.501 1.526,-1.079 2.123,-1.731 -0.129,3.097 -0.605,5.482 -1.426,7.11 -1.012,2.007 -2.617,2.982 -4.908,2.982 -3.022,0 -4.679,-1.626 -5.217,-5.12 l -0.122,-0.792 h -9.319 l 0.084,1.012 c 0.2,2.399 0.881,4.624 2.025,6.612 1.162,2.017 2.832,3.636 4.963,4.814 2.119,1.172 4.671,1.765 7.586,1.765 5.519,0 9.529,-2.027 11.915,-6.025 2.295,-3.844 3.458,-9.495 3.458,-16.795 0,-6.438 -1.156,-11.566 -3.438,-15.244" />
  <path
     style="fill:#818181"
     inkscape:connector-curvature="0"
     id="path129"
     d="m 83.025,399.035 h 5.751 c -0.097,0.996 -0.385,1.864 -0.861,2.604 -0.478,0.742 -1.091,1.305 -1.837,1.693 -0.748,0.387 -1.573,0.581 -2.472,0.581 -1.051,0 -1.982,-0.231 -2.792,-0.695 -0.81,-0.465 -1.442,-1.128 -1.899,-1.993 -0.457,-0.866 -0.685,-1.893 -0.685,-3.084 0,-1.162 0.225,-2.173 0.674,-3.03 0.45,-0.858 1.07,-1.519 1.858,-1.983 0.79,-0.464 1.682,-0.696 2.679,-0.696 1.106,0 2.065,0.271 2.874,0.81 0.81,0.54 1.388,1.253 1.734,2.138 h 1.994 c -0.402,-1.453 -1.181,-2.602 -2.336,-3.446 -1.156,-0.844 -2.585,-1.266 -4.287,-1.266 -1.399,0 -2.637,0.318 -3.716,0.954 -1.08,0.638 -1.92,1.52 -2.523,2.648 -0.602,1.128 -0.903,2.419 -0.903,3.871 0,1.453 0.301,2.744 0.903,3.872 0.603,1.129 1.443,2.007 2.523,2.637 1.079,0.63 2.324,0.944 3.737,0.944 1.286,0 2.435,-0.276 3.446,-0.83 1.01,-0.554 1.813,-1.3 2.408,-2.242 0.595,-0.941 0.955,-1.993 1.08,-3.156 v -1.744 h -7.35 v 1.413" />
  <path
     style="fill:#818181"
     inkscape:connector-curvature="0"
     id="path131"
     d="m 95.606,400.591 2.678,-7.391 2.679,7.391 z m 1.62,-9.508 -5.418,14.366 h 2.034 l 1.225,-3.384 h 6.436 l 1.224,3.384 h 2.035 l -5.398,-14.366 h -2.138" />
  <path
     style="fill:#818181"
     inkscape:connector-curvature="0"
     id="path133"
     d="m 105.488,392.349 h 4.132 v 13.1 h 1.889 v -13.1 h 4.131 v -1.536 h -10.152 v 1.536" />
  <path
     style="fill:#818181"
     inkscape:connector-curvature="0"
     id="path135"
     d="m 119.584,405.449 h 8.076 v -1.536 h -6.187 v -5.107 h 5.564 v -1.454 h -5.564 v -5.003 h 6.187 v -1.536 h -8.076 v 14.636" />
  <path
     style="fill:#818181"
     inkscape:connector-curvature="0"
     id="path137"
     d="m 140.407,399.418 c -0.403,-0.56 -0.89,-0.979 -1.465,-1.256 -0.574,-0.276 -1.332,-0.567 -2.273,-0.872 -0.774,-0.248 -1.383,-0.474 -1.827,-0.674 -0.443,-0.201 -0.813,-0.478 -1.11,-0.831 -0.298,-0.353 -0.447,-0.813 -0.447,-1.38 0,-0.719 0.229,-1.277 0.686,-1.671 0.457,-0.395 1.066,-0.592 1.827,-0.592 0.829,0 1.487,0.222 1.972,0.664 0.484,0.443 0.781,0.955 0.893,1.536 h 2.034 c -0.138,-1.08 -0.63,-1.968 -1.474,-2.668 -0.844,-0.698 -1.986,-1.048 -3.425,-1.048 -0.928,0 -1.734,0.159 -2.419,0.478 -0.686,0.319 -1.211,0.768 -1.578,1.349 -0.366,0.582 -0.55,1.253 -0.55,2.014 0,0.886 0.197,1.598 0.592,2.138 0.394,0.54 0.871,0.944 1.432,1.215 0.561,0.27 1.305,0.557 2.232,0.861 0.789,0.25 1.412,0.481 1.868,0.696 0.457,0.215 0.841,0.508 1.153,0.882 0.31,0.374 0.467,0.858 0.467,1.453 0,0.692 -0.222,1.26 -0.664,1.702 -0.443,0.444 -1.08,0.665 -1.911,0.665 -0.637,0 -1.18,-0.128 -1.629,-0.384 -0.45,-0.256 -0.796,-0.581 -1.038,-0.976 -0.243,-0.394 -0.385,-0.799 -0.426,-1.215 h -2.014 c 0.069,0.79 0.329,1.492 0.779,2.108 0.45,0.616 1.051,1.1 1.806,1.453 0.754,0.353 1.616,0.529 2.584,0.529 0.997,0 1.834,-0.186 2.513,-0.56 0.678,-0.374 1.183,-0.858 1.516,-1.454 0.331,-0.594 0.497,-1.238 0.497,-1.93 0,-0.927 -0.2,-1.671 -0.601,-2.232" />
  <path
     style="fill:#3f4962"
     inkscape:connector-curvature="0"
     id="path139"
     d="m 319.127,388.458 -11.222,11.223 24.797,24.797 h -64.321 v 15.871 h 64.321 l -24.797,24.797 11.222,11.223 43.957,-43.956 -43.957,-43.955" />
  <path
     style="fill:#818181"
     inkscape:connector-curvature="0"
     id="path141"
     d="m 95.497,454.502 c 2.595,-2.421 4.765,-5.112 6.452,-8.001 1.724,-2.954 2.599,-5.952 2.599,-8.912 0,-3.808 -1.214,-6.913 -3.61,-9.228 -2.387,-2.304 -5.809,-3.473 -10.17,-3.473 -4.28,0 -7.878,1.317 -10.696,3.913 -2.826,2.604 -4.381,6.445 -4.62,11.415 l -0.047,0.978 h 9.661 l 0.04,-0.892 c 0.27,-6.08 3.003,-6.783 5.036,-6.783 1.541,0 2.618,0.392 3.291,1.2 0.705,0.846 1.063,2.061 1.063,3.609 0,5.523 -6.349,12.725 -18.87,21.403 l -0.402,0.279 v 7.392 h 30.12 v -8.406 H 89.973 c 1.908,-1.342 3.758,-2.846 5.524,-4.494" />
  <path
     style="fill:#818181"
     inkscape:connector-curvature="0"
     id="path143"
     d="m 110.525,435.111 h 6.027 v 32.632 h 10.281 v -42.002 h -16.308 v 9.37" />
  <path
     style="fill:#818181"
     inkscape:connector-curvature="0"
     id="path145"
     d="m 133.037,442.283 h 26.028 v 8.519 h -26.028 z" />
  <path
     style="fill:#818181"
     inkscape:connector-curvature="0"
     id="path147"
     d="m 191.127,440.643 c -1.983,-1.289 -4.479,-1.941 -7.415,-1.941 -1.97,0 -3.8,0.339 -5.44,1.007 -0.866,0.353 -1.642,0.77 -2.323,1.248 v -7.096 h 19.044 v -8.916 h -28.189 v 25.572 h 9.327 l 0.247,-0.552 c 0.418,-0.934 1.064,-1.664 1.974,-2.233 0.906,-0.566 2.04,-0.853 3.371,-0.853 1.837,0 3.198,0.483 4.161,1.478 0.971,1.004 1.443,2.409 1.443,4.297 0,2.007 -0.476,3.617 -1.415,4.787 -0.901,1.123 -2.272,1.669 -4.189,1.669 -1.593,0 -2.819,-0.413 -3.748,-1.263 -0.952,-0.868 -1.545,-2.025 -1.814,-3.538 l -0.136,-0.77 h -9.548 l 0.045,0.975 c 0.12,2.658 0.839,5.024 2.137,7.032 1.301,2.013 3.131,3.597 5.438,4.71 2.277,1.1 4.977,1.657 8.024,1.657 4.719,0 8.42,-1.4 11,-4.162 2.562,-2.743 3.861,-6.419 3.861,-10.927 0,-2.545 -0.477,-4.901 -1.417,-7.004 -0.961,-2.147 -2.454,-3.888 -4.438,-5.177" />
  <path
     style="fill:#818181"
     inkscape:connector-curvature="0"
     id="path149"
     d="m 213.209,450.868 9.363,-12.471 v 12.471 z m 18.677,0 v -25.582 h -9.987 l -19.678,26.49 v 7.894 h 19.726 v 8.073 h 9.939 v -8.073 h 5.231 v -8.802 h -5.231" />
  <path
     style="fill:#3f4962"
     inkscape:connector-curvature="0"
     id="path151"
     d="M 124.781,312.753 74.863,262.835 h 35.069 V 246.964 H 47.77 v 62.162 h 15.871 v -35.068 l 49.918,49.918 11.222,-11.223" />
  <path
     style="fill:#818181"
     inkscape:connector-curvature="0"
     id="path153"
     d="m 152.484,283.555 h 6.027 v 32.631 h 10.281 v -42.002 h -16.308 v 9.371" />
  <path
     style="fill:#818181"
     inkscape:connector-curvature="0"
     id="path155"
     d="m 178.292,290.727 h 26.027 v 8.518 h -26.027 z" />
  <path
     style="fill:#818181"
     inkscape:connector-curvature="0"
     id="path157"
     d="m 233.81,302.946 c 2.597,-2.424 4.767,-5.115 6.451,-8.001 1.725,-2.954 2.6,-5.953 2.6,-8.912 0,-3.809 -1.214,-6.913 -3.61,-9.228 -2.388,-2.305 -5.809,-3.474 -10.17,-3.474 -4.279,0 -7.878,1.317 -10.696,3.914 -2.826,2.604 -4.381,6.445 -4.62,11.415 l -0.047,0.978 h 9.661 l 0.04,-0.892 c 0.27,-6.08 3.003,-6.783 5.036,-6.783 1.542,0 2.618,0.393 3.291,1.198 0.705,0.847 1.063,2.063 1.063,3.611 0,5.522 -6.349,12.724 -18.87,21.402 l -0.402,0.279 v 7.392 h 30.12 v -8.404 h -15.372 c 1.908,-1.343 3.758,-2.847 5.525,-4.495" />
  <path
     style="fill:#818181"
     inkscape:connector-curvature="0"
     id="path159"
     d="m 260.884,285.764 c 0.846,-1.869 2.511,-2.778 5.09,-2.778 2.54,0 4.186,0.909 5.033,2.778 0.945,2.087 1.424,5.142 1.424,9.08 0,3.976 -0.479,7.05 -1.424,9.137 -0.847,1.869 -2.493,2.777 -5.033,2.777 -2.579,0 -4.244,-0.908 -5.09,-2.777 -0.944,-2.084 -1.423,-5.158 -1.423,-9.137 0,-3.941 0.479,-6.996 1.423,-9.08 z m 17.581,-6.327 c -2.56,-3.901 -6.762,-5.879 -12.491,-5.879 -10.804,0 -16.282,7.162 -16.282,21.286 0,14.161 5.478,21.342 16.282,21.342 5.729,0 9.932,-1.979 12.491,-5.879 2.478,-3.776 3.735,-8.979 3.735,-15.463 0,-6.446 -1.257,-11.63 -3.735,-15.407" />
  <path
     style="fill:#818181"
     inkscape:connector-curvature="0"
     id="path161"
     d="m 162.914,251.596 h 5.751 c -0.098,0.997 -0.385,1.865 -0.861,2.606 -0.478,0.74 -1.091,1.304 -1.838,1.692 -0.747,0.387 -1.571,0.582 -2.47,0.582 -1.053,0 -1.983,-0.232 -2.793,-0.697 -0.809,-0.463 -1.442,-1.127 -1.899,-1.993 -0.457,-0.864 -0.686,-1.892 -0.686,-3.083 0,-1.162 0.226,-2.172 0.675,-3.031 0.45,-0.857 1.069,-1.518 1.858,-1.982 0.789,-0.463 1.682,-0.696 2.679,-0.696 1.107,0 2.065,0.271 2.875,0.811 0.809,0.54 1.387,1.252 1.734,2.137 h 1.993 c -0.403,-1.453 -1.181,-2.601 -2.336,-3.446 -1.156,-0.844 -2.585,-1.266 -4.287,-1.266 -1.399,0 -2.637,0.318 -3.716,0.955 -1.08,0.637 -1.921,1.52 -2.523,2.646 -0.602,1.129 -0.902,2.42 -0.902,3.872 0,1.454 0.3,2.745 0.902,3.872 0.602,1.129 1.443,2.007 2.523,2.637 1.079,0.63 2.325,0.945 3.737,0.945 1.286,0 2.435,-0.277 3.446,-0.831 1.01,-0.553 1.812,-1.301 2.408,-2.242 0.595,-0.941 0.955,-1.993 1.079,-3.156 v -1.743 h -7.349 v 1.411" />
  <path
     style="fill:#818181"
     inkscape:connector-curvature="0"
     id="path163"
     d="m 175.496,253.153 2.677,-7.39 2.679,7.39 z m 1.619,-9.508 -5.418,14.366 h 2.034 l 1.225,-3.384 h 6.436 l 1.224,3.384 h 2.035 l -5.398,-14.366 h -2.138" />
  <path
     style="fill:#818181"
     inkscape:connector-curvature="0"
     id="path165"
     d="m 185.377,244.911 h 4.132 v 13.1 h 1.889 v -13.1 h 4.131 v -1.536 h -10.152 v 1.536" />
  <path
     style="fill:#818181"
     inkscape:connector-curvature="0"
     id="path167"
     d="m 199.473,258.011 h 8.076 v -1.535 h -6.187 v -5.108 h 5.564 v -1.453 h -5.564 v -5.004 h 6.187 v -1.536 h -8.076 v 14.636" />
  <path
     style="fill:#818181"
     inkscape:connector-curvature="0"
     id="path169"
     d="m 220.296,251.981 c -0.402,-0.561 -0.89,-0.979 -1.464,-1.257 -0.575,-0.277 -1.332,-0.567 -2.273,-0.871 -0.775,-0.25 -1.384,-0.474 -1.828,-0.675 -0.442,-0.2 -0.812,-0.478 -1.11,-0.831 -0.298,-0.352 -0.447,-0.813 -0.447,-1.381 0,-0.718 0.229,-1.276 0.686,-1.67 0.457,-0.395 1.066,-0.593 1.827,-0.593 0.83,0 1.487,0.223 1.972,0.665 0.484,0.443 0.781,0.955 0.893,1.536 h 2.033 c -0.137,-1.079 -0.628,-1.968 -1.473,-2.667 -0.844,-0.699 -1.986,-1.049 -3.425,-1.049 -0.928,0 -1.734,0.16 -2.419,0.478 -0.685,0.319 -1.211,0.768 -1.578,1.349 -0.367,0.582 -0.55,1.253 -0.55,2.014 0,0.885 0.197,1.598 0.592,2.138 0.394,0.54 0.872,0.945 1.432,1.215 0.561,0.269 1.305,0.558 2.232,0.861 0.789,0.249 1.412,0.482 1.868,0.696 0.457,0.215 0.841,0.509 1.153,0.882 0.311,0.374 0.466,0.858 0.466,1.454 0,0.692 -0.221,1.26 -0.663,1.702 -0.443,0.443 -1.08,0.664 -1.91,0.664 -0.638,0 -1.181,-0.127 -1.63,-0.384 -0.45,-0.256 -0.796,-0.581 -1.038,-0.976 -0.243,-0.394 -0.385,-0.798 -0.426,-1.214 h -2.014 c 0.07,0.789 0.328,1.491 0.779,2.108 0.449,0.615 1.051,1.099 1.806,1.452 0.754,0.353 1.615,0.53 2.585,0.53 0.996,0 1.833,-0.187 2.511,-0.561 0.679,-0.374 1.184,-0.858 1.516,-1.453 0.332,-0.596 0.499,-1.239 0.499,-1.93 0,-0.928 -0.201,-1.672 -0.602,-2.232" />
  <path
     style="fill:#ffd047"
     inkscape:connector-curvature="0"
     id="path171"
     d="m 821.489,457.266 h 51.152 v 9.336 h -51.152 z" />
  <path
     style="fill:#ffffff"
     inkscape:connector-curvature="0"
     id="path173"
     d="m 888.046,400.705 c -0.413,0.195 -0.744,0.531 -0.987,0.917 l -4.806,7.62 c -1.985,3.148 -5.08,5.418 -8.653,6.38 -0.097,0.025 -0.192,0.049 -0.288,0.073 0,0 -8.858,2.262 -19.199,4.902 l -0.139,-0.151 6.006,-17.225 c 0.348,-1 -0.627,-1.952 -1.618,-1.579 l -4.06,1.526 c -0.378,0.142 -0.705,0.394 -0.938,0.724 l -14.547,20.581 -0.066,0.046 c -2.894,0.739 -5.61,1.433 -7.975,2.036 -6.435,1.643 -11.957,3.377 -16.804,8.225 -3.183,3.182 -6.856,10.92 -6.858,10.926 -0.144,0.728 -0.19,1.463 -0.053,2.2 0.577,3.113 3.923,4.316 7.806,2.675 l 67.617,-27.551 4.877,-2.061 c 1.932,-0.816 3.221,-2.672 3.311,-4.768 l 0.577,-13.376 c 0.072,-1.677 -1.664,-2.848 -3.203,-2.12" />
  <path
     style="fill:#ffffff"
     inkscape:connector-curvature="0"
     id="path175"
     d="m 869.002,442.702 0.804,-0.819 c 0.407,-0.414 0.326,-1.098 -0.165,-1.406 l -8.404,-5.275 -11.726,4.809 15.253,3.947 c 1.535,0.341 3.137,-0.134 4.238,-1.256" />
  <path
     style="fill:#818181"
     inkscape:connector-curvature="0"
     id="path177"
     d="m 507.496,123.517 h 62.877 v 9.336 h -62.877 z" />
  <path
     style="fill:#3f4962"
     inkscape:connector-curvature="0"
     id="path179"
     d="m 580.981,64.794 c -0.522,-0.76 -1.201,-1.359 -1.959,-1.865 -0.006,-0.005 -9.925,-3.537 -15.458,-3.537 -8.427,0 -14.733,3.292 -21.755,7.457 -2.58,1.531 -5.544,3.289 -8.701,5.162 l -0.098,0.018 -30.533,-5.245 c -0.49,-0.085 -0.994,-0.02 -1.446,0.185 l -4.855,2.203 c -1.185,0.537 -1.205,2.213 -0.033,2.779 l 20.192,9.752 c 0.103,0.049 0.108,0.194 0.01,0.252 -11.283,6.693 -20.947,12.426 -20.947,12.426 -0.105,0.063 -0.209,0.126 -0.315,0.187 -3.942,2.27 -8.605,2.987 -13.067,1.977 l -10.801,-2.447 c -0.547,-0.124 -1.127,-0.127 -1.654,0.062 -1.972,0.705 -2.463,3.231 -0.942,4.626 l 12.129,11.125 c 1.899,1.743 4.633,2.236 7.022,1.266 l 6.03,-2.447 82.722,-34.826 c 4.8,-1.948 6.663,-5.902 4.459,-9.11" />
  <path
     style="fill:#3f4962"
     inkscape:connector-curvature="0"
     id="path181"
     d="m 537.221,94.829 -14.373,6.012 -2.72,11.89 c -0.159,0.696 0.365,1.36 1.079,1.367 l 1.411,0.013 c 1.932,0.017 3.737,-0.963 4.775,-2.593 l 9.828,-16.689" />
  <path
     style="fill:#3f4962"
     inkscape:connector-curvature="0"
     id="path183"
     d="m 925.527,40.953 v 17.738 h 64.02 l -84.85,84.854 12.543,12.544 84.857,-84.855 v 64.028 h 17.74 V 40.953 h -94.31" />
  <path
     style="fill:#3f4962"
     inkscape:connector-curvature="0"
     id="path185"
     d="m 631.057,120.045 c 0,3.118 -2.528,5.646 -5.646,5.646 -3.118,0 -5.646,-2.528 -5.646,-5.646 0,-3.118 2.528,-5.645 5.646,-5.645 3.118,0 5.646,2.527 5.646,5.645" />
  <path
     style="fill:#3f4962"
     inkscape:connector-curvature="0"
     id="path187"
     d="m 619.056,128.072 h 12.71 c 2.818,0 4.651,3.828 3.39,7.081 l -7.169,18.507 c -0.973,2.511 -4.179,2.511 -5.152,0 l -7.17,-18.507 c -1.26,-3.253 0.573,-7.081 3.391,-7.081" />
  <path
     style="fill:#3f4962"
     inkscape:connector-curvature="0"
     id="path189"
     d="m 658.396,120.045 c 0,3.118 -2.528,5.646 -5.646,5.646 -3.118,0 -5.645,-2.528 -5.645,-5.646 0,-3.118 2.527,-5.645 5.645,-5.645 3.118,0 5.646,2.527 5.646,5.645" />
  <path
     style="fill:#3f4962"
     inkscape:connector-curvature="0"
     id="path191"
     d="m 660.73,155.543 h -15.959 c -2.818,0 -4.651,-3.498 -3.391,-6.471 l 8.553,-19.57 c 0.392,-1.108 1.426,-1.846 2.586,-1.846 h 0.59 c 1.165,0 2.204,0.746 2.592,1.861 l 8.42,19.555 c 1.26,2.973 -0.573,6.471 -3.391,6.471" />
  <path
     style="fill:#3f4962"
     inkscape:connector-curvature="0"
     id="path193"
     d="m 706.001,157.688 c -2.568,1.1 -5.41,1.132 -8.002,0.095 -2.593,-1.039 -4.626,-3.024 -5.726,-5.592 -1.1,-2.567 -1.133,-5.409 -0.095,-8.002 0.884,-2.206 2.436,-3.996 4.491,-5.176 l -1.396,-2.428 c -2.605,1.497 -4.574,3.766 -5.695,6.563 -1.316,3.287 -1.274,6.89 0.12,10.146 1.394,3.255 3.972,5.773 7.26,7.089 1.594,0.638 3.263,0.957 4.929,0.957 1.771,0 3.539,-0.359 5.216,-1.077 3.256,-1.394 5.773,-3.972 7.089,-7.259 l -2.6,-1.042 c -1.038,2.593 -3.024,4.626 -5.591,5.726" />
  <path
     style="fill:#3f4962"
     inkscape:connector-curvature="0"
     id="path195"
     d="m 724.034,153.03 -5.049,-11.695 c -0.447,-1.038 -1.194,-1.883 -2.111,-2.463 h 5.448 v -2.801 h -10.695 l -3.003,-6.973 c -0.388,-1.116 -1.426,-1.862 -2.591,-1.862 h -0.591 c -1.159,0 -2.193,0.738 -2.586,1.846 l -3.4,7.781 c -2.311,5.287 1.563,11.208 7.333,11.208 h 8.263 l 3.913,7.491 c 0.639,1.198 2.067,1.812 3.446,1.34 1.558,-0.533 2.26,-2.353 1.623,-3.872" />
  <path
     style="fill:#3f4962"
     inkscape:connector-curvature="0"
     id="path197"
     d="m 705.674,125.894 c 3.118,0 5.645,-2.528 5.645,-5.646 0,-3.118 -2.527,-5.646 -5.645,-5.646 -3.118,0 -5.646,2.528 -5.646,5.646 0,3.118 2.528,5.646 5.646,5.646" />
  <path
     style="fill:#818181"
     inkscape:connector-curvature="0"
     id="path199"
     d="m 630.609,80.95 c -1.97,1.948 -4.948,2.936 -8.849,2.936 h -5.172 V 61.449 h 5.172 c 3.877,0 6.847,0.987 8.831,2.936 1.982,1.946 2.987,4.732 2.987,8.282 0,3.551 -0.999,6.337 -2.969,8.283 z m -8.775,-22.004 h -7.937 v 27.48 h 7.937 c 4.62,0 8.225,-1.223 10.715,-3.634 2.493,-2.418 3.758,-5.824 3.758,-10.125 0,-4.276 -1.265,-7.669 -3.758,-10.087 -2.489,-2.411 -6.094,-3.634 -10.715,-3.634" />
  <path
     style="fill:#818181"
     inkscape:connector-curvature="0"
     id="path201"
     d="m 644.029,70.707 c 0.708,-1.188 1.645,-2.084 2.783,-2.665 2.255,-1.153 5.24,-1.189 7.587,-0.017 1.13,0.565 2.044,1.457 2.718,2.653 0.614,1.091 0.911,2.437 0.89,4.005 h -15.074 c 0.081,-1.56 0.449,-2.895 1.096,-3.976 z m 13.781,8.15 c -0.282,1.687 -1.053,2.977 -2.36,3.943 v 0.001 c -1.306,0.968 -2.949,1.46 -4.884,1.46 -1.37,0 -2.639,-0.291 -3.774,-0.867 -1.125,-0.567 -2.054,-1.463 -2.763,-2.663 -0.648,-1.092 -1.016,-2.447 -1.097,-4.033 h 17.442 l 0.073,-0.412 c 0.13,-0.727 0.196,-1.427 0.196,-2.079 0,-1.629 -0.393,-3.181 -1.168,-4.614 -0.779,-1.439 -1.942,-2.617 -3.455,-3.498 -1.51,-0.88 -3.32,-1.327 -5.379,-1.327 -2.006,0 -3.814,0.445 -5.372,1.323 -1.567,0.881 -2.814,2.167 -3.707,3.822 -0.887,1.644 -1.337,3.595 -1.337,5.797 0,2.227 0.45,4.189 1.337,5.833 0.894,1.656 2.141,2.942 3.707,3.823 1.558,0.878 3.366,1.322 5.372,1.322 2.683,0 4.929,-0.706 6.678,-2.099 1.757,-1.401 2.848,-3.273 3.243,-5.565 l 0.1,-0.585 h -2.783 l -0.069,0.418" />
  <path
     style="fill:#818181"
     inkscape:connector-curvature="0"
     id="path203"
     d="m 680.307,81.938 c -1.431,1.513 -3.309,2.248 -5.741,2.248 -1.507,0 -2.876,-0.35 -4.068,-1.041 -1.188,-0.687 -2.136,-1.682 -2.814,-2.958 -0.683,-1.282 -1.03,-2.789 -1.03,-4.477 0,-1.689 0.346,-3.189 1.029,-4.459 0.678,-1.263 1.626,-2.251 2.815,-2.94 h 10e-4 c 1.193,-0.69 2.562,-1.041 4.067,-1.041 2.432,0 4.31,0.736 5.741,2.247 1.416,1.498 2.134,3.582 2.134,6.193 0,2.636 -0.717,4.731 -2.134,6.228 z m -0.102,-15.845 c -1.533,-0.879 -3.317,-1.325 -5.301,-1.325 -2.303,0 -4.294,0.622 -5.917,1.848 -0.956,0.723 -1.735,1.588 -2.333,2.585 v -4.17 H 664 v 31.01 h 2.654 V 82.255 c 0.598,0.997 1.377,1.862 2.333,2.587 1.623,1.225 3.614,1.846 5.917,1.846 1.984,0 3.768,-0.445 5.301,-1.324 1.542,-0.883 2.764,-2.177 3.631,-3.847 0.86,-1.655 1.297,-3.609 1.297,-5.807 0,-2.198 -0.437,-4.148 -1.297,-5.792 -0.868,-1.655 -2.089,-2.944 -3.631,-3.825" />
  <path
     style="fill:#818181"
     inkscape:connector-curvature="0"
     id="path205"
     d="m 704.979,80.19 c -0.667,1.276 -1.608,2.27 -2.793,2.955 -1.195,0.691 -2.564,1.041 -4.071,1.041 -2.423,0 -4.359,-0.755 -5.757,-2.246 -1.405,-1.499 -2.118,-3.595 -2.118,-6.23 0,-2.609 0.718,-4.692 2.135,-6.193 1.411,-1.491 3.342,-2.247 5.74,-2.247 1.505,0 2.875,0.351 4.071,1.041 1.186,0.687 2.127,1.675 2.794,2.937 0.671,1.274 1.012,2.775 1.012,4.462 0,1.686 -0.341,3.194 -1.013,4.48 z m 1.013,-10.991 c -0.594,-0.996 -1.367,-1.859 -2.313,-2.582 h -10e-4 c -1.612,-1.227 -3.609,-1.849 -5.938,-1.849 -1.982,0 -3.765,0.446 -5.299,1.325 -1.543,0.883 -2.765,2.171 -3.632,3.826 -0.861,1.643 -1.297,3.593 -1.297,5.791 0,2.198 0.436,4.152 1.297,5.807 0.867,1.669 2.089,2.963 3.632,3.847 1.534,0.879 3.317,1.324 5.299,1.324 2.329,0 4.326,-0.622 5.939,-1.848 0.946,-0.723 1.719,-1.587 2.313,-2.582 v 4.168 h 2.69 V 65.031 h -2.69 v 4.168" />
  <path
     style="fill:#818181"
     inkscape:connector-curvature="0"
     id="path207"
     d="m 719.182,65.953 c -0.806,0.51 -1.479,1.155 -2.012,1.931 v -2.853 h -2.691 v 21.395 h 2.691 V 74.282 c 0,-2.41 0.646,-4.163 1.921,-5.211 1.303,-1.07 2.939,-1.613 4.864,-1.613 h 1.065 v -2.84 h -0.5 c -2.141,0 -3.937,0.449 -5.338,1.335" />
  <path
     style="fill:#818181"
     inkscape:connector-curvature="0"
     id="path209"
     d="m 734.371,59.848 h -2.689 v 5.183 h -3.231 v 2.54 h 3.231 v 12.608 c 0,2.235 0.47,3.799 1.439,4.784 0.959,0.97 2.462,1.463 4.469,1.463 h 2.828 v -2.54 h -2.641 c -1.306,0 -2.21,-0.246 -2.683,-0.733 -0.473,-0.482 -0.723,-1.511 -0.723,-2.974 V 67.571 h 6.047 v -2.54 h -6.047 v -5.183" />
  <path
     style="fill:#818181"
     inkscape:connector-curvature="0"
     id="path211"
     d="m 760.602,76.348 c 0,2.661 -0.625,4.689 -1.858,6.027 -1.24,1.345 -2.865,1.999 -4.967,1.999 -2.004,0 -3.532,-0.582 -4.671,-1.779 -1.129,-1.187 -1.702,-2.948 -1.702,-5.233 V 65.031 h -2.652 v 12.368 c 0,3.08 0.808,5.449 2.4,7.039 1.592,1.593 3.669,2.401 6.174,2.401 1.947,0 3.692,-0.523 5.187,-1.554 0.847,-0.585 1.546,-1.327 2.089,-2.219 v 3.36 h 2.726 V 65.031 h -2.726 v 11.317" />
  <path
     style="fill:#818181"
     inkscape:connector-curvature="0"
     id="path213"
     d="m 773.078,65.953 c -0.805,0.51 -1.478,1.155 -2.012,1.931 v -2.853 h -2.691 v 21.395 h 2.691 V 74.282 c 0,-2.41 0.647,-4.163 1.921,-5.211 1.303,-1.07 2.94,-1.613 4.865,-1.613 h 1.064 v -2.84 h -0.5 c -2.141,0 -3.936,0.449 -5.338,1.335" />
  <path
     style="fill:#818181"
     inkscape:connector-curvature="0"
     id="path215"
     d="m 785.247,70.708 c 0.711,-1.189 1.648,-2.086 2.785,-2.666 2.256,-1.153 5.242,-1.189 7.586,-0.017 1.13,0.565 2.044,1.457 2.718,2.653 0.614,1.09 0.913,2.436 0.892,4.005 h -15.077 c 0.083,-1.56 0.451,-2.896 1.096,-3.975 z m 13.783,8.149 c -0.281,1.687 -1.052,2.977 -2.359,3.943 v 0.001 c -1.307,0.968 -2.95,1.46 -4.886,1.46 -1.368,0 -2.637,-0.291 -3.774,-0.867 -1.122,-0.566 -2.052,-1.462 -2.762,-2.663 -0.647,-1.092 -1.016,-2.447 -1.098,-4.033 h 17.444 l 0.073,-0.412 c 0.13,-0.727 0.195,-1.427 0.195,-2.079 0,-1.629 -0.392,-3.181 -1.168,-4.614 -0.781,-1.441 -1.944,-2.619 -3.455,-3.499 -1.511,-0.879 -3.321,-1.326 -5.379,-1.326 -2.008,0 -3.815,0.446 -5.372,1.323 -1.569,0.882 -2.816,2.169 -3.707,3.822 -0.886,1.644 -1.337,3.595 -1.337,5.797 0,2.227 0.451,4.189 1.337,5.833 0.892,1.654 2.139,2.94 3.707,3.823 1.557,0.877 3.364,1.322 5.372,1.322 2.682,0 4.928,-0.706 6.677,-2.099 1.756,-1.399 2.847,-3.271 3.242,-5.565 l 0.101,-0.585 H 799.1 l -0.07,0.418" />
  <path
     style="fill:#818181"
     inkscape:connector-curvature="0"
     id="path217"
     d="m 820.866,77.38 c -0.678,-0.814 -1.517,-1.418 -2.494,-1.798 -0.92,-0.358 -2.144,-0.706 -3.63,-1.034 -1.308,-0.321 -2.335,-0.613 -3.051,-0.868 -0.661,-0.236 -1.225,-0.603 -1.679,-1.092 -0.429,-0.458 -0.637,-1.072 -0.637,-1.874 0,-1.109 0.368,-1.969 1.125,-2.628 0.766,-0.665 1.861,-1.003 3.258,-1.003 1.587,0 2.855,0.44 3.768,1.307 0.934,0.888 1.455,1.973 1.594,3.315 l 0.046,0.448 h 2.634 l -0.071,-0.562 c -0.265,-2.092 -1.104,-3.771 -2.495,-4.991 l -0.001,-10e-4 c -1.39,-1.214 -3.232,-1.831 -5.475,-1.831 -2.089,0 -3.79,0.539 -5.055,1.601 -1.288,1.084 -1.941,2.546 -1.941,4.345 0,1.346 0.35,2.435 1.041,3.237 0.663,0.772 1.474,1.35 2.412,1.717 0.886,0.346 2.09,0.7 3.581,1.055 1.277,0.294 2.314,0.58 3.084,0.848 0.713,0.249 1.29,0.628 1.765,1.156 0.444,0.498 0.66,1.158 0.66,2.015 0,1.094 -0.348,1.951 -1.064,2.622 -0.713,0.67 -1.741,1.01 -3.055,1.01 -1.795,0 -3.221,-0.445 -4.236,-1.324 -1.025,-0.887 -1.59,-1.965 -1.726,-3.297 l -0.046,-0.449 h -2.717 l 0.079,0.569 c 0.293,2.1 1.22,3.783 2.757,4.998 1.523,1.206 3.491,1.817 5.851,1.817 1.993,0 3.632,-0.547 4.874,-1.625 1.259,-1.096 1.898,-2.538 1.898,-4.283 0,-1.416 -0.355,-2.56 -1.054,-3.4" />
  <path
     style="fill:#ffffff"
     inkscape:connector-curvature="0"
     id="path219"
     d="m 851.666,255.27 h -4.668 v -4.454 h -17.113 v 4.454 h -4.668 v -9.122 h 26.449 v 9.122" />
  <path
     style="fill:#ffd047"
     inkscape:connector-curvature="0"
     id="path221"
     d="m 807.002,312.642 h 62.878 v 9.336 h -62.878 z" />
  <path
     style="fill:#ffffff"
     inkscape:connector-curvature="0"
     id="path223"
     d="m 851.895,259.966 h 4.668 v 45.142 h -4.668 z m -30.549,0 h 4.668 v 45.142 h -4.668 z m 41.607,0 H 813.93 c -4.223,0 -7.646,3.423 -7.646,7.645 v 29.852 c 0,4.223 3.423,7.646 7.646,7.646 h 49.023 c 4.222,0 7.645,-3.423 7.645,-7.646 v -29.852 c 0,-4.222 -3.423,-7.645 -7.645,-7.645" />
  <path
     style="fill:#ffffff"
     inkscape:connector-curvature="0"
     id="path225"
     d="m 901.338,288.34 c -0.647,0.542 -1.561,0.812 -2.742,0.812 h -3.79 v -6.2 h 3.741 c 1.181,0 2.103,0.274 2.768,0.824 0.664,0.55 0.996,1.308 0.996,2.276 0,0.984 -0.324,1.747 -0.973,2.288 z m -6.532,-12.82 h 3.642 c 1.181,0 2.059,0.255 2.634,0.763 0.573,0.509 0.86,1.206 0.86,2.092 0,0.919 -0.292,1.632 -0.873,2.141 -0.583,0.508 -1.424,0.762 -2.522,0.762 h -3.741 z m 6.226,6.521 c 0.935,-0.197 1.701,-0.64 2.301,-1.328 0.599,-0.69 0.898,-1.591 0.898,-2.707 0,-1.345 -0.452,-2.404 -1.354,-3.175 -0.902,-0.77 -2.223,-1.156 -3.962,-1.156 h -6.348 v 17.347 h 6.447 c 1.821,0 3.211,-0.426 4.171,-1.279 0.96,-0.853 1.44,-1.985 1.44,-3.396 0,-1.066 -0.332,-1.993 -0.998,-2.781 -0.664,-0.786 -1.53,-1.295 -2.595,-1.525" />
  <path
     style="fill:#ffffff"
     inkscape:connector-curvature="0"
     id="path227"
     d="m 918.6,286.876 c -0.394,0.747 -0.939,1.325 -1.637,1.735 -0.696,0.41 -1.487,0.615 -2.374,0.615 -1.378,0 -2.481,-0.438 -3.309,-1.316 -0.829,-0.877 -1.243,-2.087 -1.243,-3.63 0,-1.542 0.414,-2.751 1.243,-3.629 0.828,-0.877 1.931,-1.317 3.309,-1.317 0.887,0 1.678,0.202 2.374,0.604 0.698,0.402 1.243,0.98 1.637,1.734 0.394,0.755 0.591,1.624 0.591,2.608 0,0.985 -0.197,1.85 -0.591,2.596 z m 0.591,-5.917 c -0.361,-1.1 -0.997,-1.977 -1.907,-2.633 -0.911,-0.657 -2.022,-0.985 -3.335,-0.985 -1.197,0 -2.263,0.279 -3.198,0.837 -0.935,0.558 -1.67,1.362 -2.203,2.412 -0.533,1.049 -0.799,2.28 -0.799,3.69 0,1.412 0.266,2.638 0.799,3.679 0.533,1.042 1.268,1.842 2.203,2.399 0.935,0.558 2.001,0.837 3.198,0.837 1.313,0 2.424,-0.329 3.335,-0.985 0.91,-0.656 1.546,-1.534 1.907,-2.632 v 3.444 h 2.239 v -13.509 h -2.239 v 3.446" />
  <path
     style="fill:#ffffff"
     inkscape:connector-curvature="0"
     id="path229"
     d="m 936.657,286.876 c -0.39,0.747 -0.94,1.325 -1.63,1.735 -0.7,0.41 -1.49,0.615 -2.38,0.615 -1.37,0 -2.48,-0.438 -3.31,-1.316 -0.83,-0.877 -1.24,-2.087 -1.24,-3.63 0,-1.542 0.41,-2.751 1.24,-3.629 0.83,-0.877 1.94,-1.317 3.31,-1.317 0.89,0 1.68,0.202 2.38,0.604 0.69,0.402 1.24,0.98 1.63,1.734 0.4,0.755 0.59,1.624 0.59,2.608 0,0.985 -0.19,1.85 -0.59,2.596 z m 0.59,-5.917 c -0.36,-1.1 -0.99,-1.977 -1.9,-2.633 -0.91,-0.657 -2.02,-0.985 -3.34,-0.985 -1.19,0 -2.26,0.279 -3.2,0.837 -0.93,0.558 -1.66,1.362 -2.2,2.412 -0.53,1.049 -0.8,2.28 -0.8,3.69 0,1.412 0.27,2.638 0.8,3.679 0.54,1.042 1.27,1.842 2.2,2.399 0.94,0.558 2.01,0.837 3.2,0.837 1.32,0 2.43,-0.329 3.34,-0.985 0.91,-0.656 1.54,-1.534 1.9,-2.632 v 3.666 c 0,1.394 -0.39,2.481 -1.19,3.26 -0.8,0.779 -1.8,1.169 -3.01,1.169 -1.15,0 -2.09,-0.259 -2.82,-0.775 -0.73,-0.517 -1.23,-1.226 -1.49,-2.129 h -2.21 c 0.31,1.493 1.04,2.678 2.19,3.556 1.14,0.877 2.63,1.316 4.45,1.316 1.26,0 2.37,-0.27 3.32,-0.812 0.95,-0.541 1.69,-1.296 2.22,-2.264 0.52,-0.967 0.78,-2.075 0.78,-3.321 v -13.731 h -2.24 v 3.446" />
  <path
     style="fill:#ffffff"
     inkscape:connector-curvature="0"
     id="path231"
     d="m 955.867,279.851 c 0.65,-0.36 1.36,-0.542 2.15,-0.542 1.08,0 1.99,0.276 2.72,0.825 0.73,0.549 1.18,1.309 1.34,2.276 h 2.36 c -0.26,-1.541 -0.96,-2.772 -2.09,-3.69 -1.13,-0.919 -2.56,-1.379 -4.28,-1.379 -1.29,0 -2.44,0.279 -3.44,0.837 -1,0.558 -1.79,1.362 -2.35,2.412 -0.57,1.049 -0.85,2.28 -0.85,3.69 0,1.412 0.28,2.638 0.85,3.679 0.56,1.042 1.35,1.842 2.35,2.399 1,0.558 2.15,0.837 3.44,0.837 1.72,0 3.15,-0.455 4.28,-1.366 1.13,-0.911 1.83,-2.144 2.09,-3.704 h -2.36 c -0.16,0.969 -0.61,1.732 -1.34,2.289 -0.73,0.558 -1.64,0.837 -2.72,0.837 -0.79,0 -1.5,-0.181 -2.15,-0.542 -0.65,-0.361 -1.17,-0.914 -1.56,-1.661 -0.4,-0.746 -0.59,-1.668 -0.59,-2.768 0,-1.098 0.19,-2.021 0.59,-2.768 0.39,-0.747 0.91,-1.3 1.56,-1.661" />
  <path
     style="fill:#ffffff"
     inkscape:connector-curvature="0"
     id="path233"
     d="m 966.877,272.814 h 2.24 v 18.208 h -2.24 z" />
  <path
     style="fill:#ffffff"
     inkscape:connector-curvature="0"
     id="path235"
     d="m 983.877,286.876 c -0.39,0.747 -0.94,1.325 -1.63,1.735 -0.7,0.41 -1.49,0.615 -2.38,0.615 -1.38,0 -2.48,-0.438 -3.31,-1.316 -0.83,-0.877 -1.24,-2.087 -1.24,-3.63 0,-1.542 0.41,-2.751 1.24,-3.629 0.83,-0.877 1.93,-1.317 3.31,-1.317 0.89,0 1.68,0.202 2.38,0.604 0.69,0.402 1.24,0.98 1.63,1.734 0.4,0.755 0.59,1.624 0.59,2.608 0,0.985 -0.19,1.85 -0.59,2.596 z m 0.59,-5.917 c -0.36,-1.1 -0.99,-1.977 -1.9,-2.633 -0.91,-0.657 -2.03,-0.985 -3.34,-0.985 -1.2,0 -2.26,0.279 -3.2,0.837 -0.93,0.558 -1.67,1.362 -2.2,2.412 -0.53,1.049 -0.8,2.28 -0.8,3.69 0,1.412 0.27,2.638 0.8,3.679 0.53,1.042 1.27,1.842 2.2,2.399 0.94,0.558 2,0.837 3.2,0.837 1.31,0 2.43,-0.329 3.34,-0.985 0.91,-0.656 1.54,-1.534 1.9,-2.632 v 3.444 h 2.24 v -13.509 h -2.24 v 3.446" />
  <path
     style="fill:#ffffff"
     inkscape:connector-curvature="0"
     id="path237"
     d="m 992.397,272.174 c -0.46,0 -0.83,0.127 -1.11,0.382 -0.28,0.254 -0.42,0.586 -0.42,0.996 0,0.41 0.14,0.742 0.42,0.997 0.28,0.254 0.65,0.381 1.11,0.381 0.46,0 0.82,-0.127 1.1,-0.381 0.28,-0.255 0.42,-0.587 0.42,-0.997 0,-0.41 -0.14,-0.742 -0.42,-0.996 -0.28,-0.255 -0.64,-0.382 -1.1,-0.382" />
  <path
     style="fill:#ffffff"
     inkscape:connector-curvature="0"
     id="path239"
     d="m 991.257,277.513 h 2.24 v 13.509 h -2.24 z" />
  <path
     style="fill:#ffffff"
     inkscape:connector-curvature="0"
     id="path241"
     d="m 1017.997,278.805 c -0.96,-1.008 -2.23,-1.513 -3.8,-1.513 -1.12,0 -2.12,0.3 -3,0.898 -0.89,0.599 -1.52,1.448 -1.9,2.547 -0.36,-1.132 -0.96,-1.989 -1.81,-2.572 -0.84,-0.581 -1.84,-0.873 -2.99,-0.873 -1.1,0 -2.07,0.283 -2.91,0.849 -0.85,0.566 -1.43,1.382 -1.76,2.449 v -3.077 h -2.24 v 13.509 h 2.24 v -7.16 c 0,-1.509 0.35,-2.653 1.07,-3.433 0.71,-0.779 1.67,-1.169 2.86,-1.169 1.12,0 2.01,0.353 2.66,1.059 0.66,0.705 0.99,1.722 0.99,3.05 v 7.653 h 2.24 v -7.16 c 0,-1.509 0.35,-2.653 1.07,-3.433 0.71,-0.779 1.66,-1.169 2.84,-1.169 1.13,0 2.02,0.353 2.67,1.059 0.65,0.705 0.97,1.722 0.97,3.05 v 7.653 h 2.24 v -7.849 c 0,-1.902 -0.48,-3.358 -1.44,-4.368" />
  <path
     style="fill:#ffffff"
     inkscape:connector-curvature="0"
     id="path243"
     d="m 924.092,434.3 -3.4,-9.383 -3.4,9.383 z m 0.685,1.871 h -8.17 l -1.555,4.296 h -2.583 l 6.879,-18.239 h 2.715 l 6.854,18.239 h -2.58 l -1.56,-4.296" />
  <path
     style="fill:#ffffff"
     inkscape:connector-curvature="0"
     id="path245"
     d="m 936.347,426.59 c 0.91,-0.553 2,-0.83 3.27,-0.83 v 2.609 h -0.74 c -1.35,0 -2.46,0.348 -3.32,1.041 -0.86,0.694 -1.29,1.841 -1.29,3.439 v 7.618 h -2.4 v -14.47 h 2.4 v 2.926 c 0.47,-1.002 1.17,-1.78 2.08,-2.333" />
  <path
     style="fill:#ffffff"
     inkscape:connector-curvature="0"
     id="path247"
     d="m 946.997,426.59 c 0.91,-0.553 2,-0.83 3.27,-0.83 v 2.609 h -0.74 c -1.36,0 -2.46,0.348 -3.32,1.041 -0.86,0.694 -1.29,1.841 -1.29,3.439 v 7.618 h -2.4 v -14.47 h 2.4 v 2.926 c 0.47,-1.002 1.16,-1.78 2.08,-2.333" />
  <path
     style="fill:#ffffff"
     inkscape:connector-curvature="0"
     id="path249"
     d="m 953.167,425.997 h 2.39 v 14.47 h -2.39 z m 0.02,-5.311 c 0.3,-0.272 0.69,-0.408 1.19,-0.408 0.49,0 0.88,0.136 1.18,0.408 0.3,0.273 0.45,0.628 0.45,1.068 0,0.439 -0.15,0.795 -0.45,1.067 -0.3,0.273 -0.69,0.408 -1.18,0.408 -0.5,0 -0.89,-0.135 -1.19,-0.408 -0.3,-0.272 -0.45,-0.628 -0.45,-1.067 0,-0.44 0.15,-0.795 0.45,-1.068" />
  <path
     style="fill:#ffffff"
     inkscape:connector-curvature="0"
     id="path251"
     d="m 965.017,437.91 4.49,-11.913 h 2.58 l -5.67,14.47 h -2.84 l -5.67,-14.47 h 2.58 l 4.53,11.913" />
  <path
     style="fill:#ffffff"
     inkscape:connector-curvature="0"
     id="path253"
     d="m 976.447,429.357 c -0.89,0.941 -1.33,2.237 -1.33,3.888 0,1.652 0.44,2.948 1.33,3.888 0.89,0.94 2.07,1.41 3.55,1.41 0.94,0 1.79,-0.22 2.54,-0.659 0.74,-0.439 1.33,-1.059 1.75,-1.859 0.42,-0.799 0.63,-1.725 0.63,-2.78 0,-1.054 -0.21,-1.985 -0.63,-2.794 -0.42,-0.808 -1.01,-1.427 -1.75,-1.857 -0.75,-0.431 -1.6,-0.647 -2.54,-0.647 -1.48,0 -2.66,0.471 -3.55,1.41 z m 6.43,-2.49 c 0.98,0.703 1.66,1.643 2.04,2.82 v -3.69 h 2.4 v 14.47 h -2.4 v -3.69 c -0.38,1.177 -1.06,2.117 -2.04,2.82 -0.97,0.703 -2.16,1.054 -3.57,1.054 -1.28,0 -2.42,-0.299 -3.43,-0.896 -1,-0.597 -1.79,-1.453 -2.36,-2.57 -0.57,-1.115 -0.85,-2.428 -0.85,-3.94 0,-1.511 0.28,-2.829 0.85,-3.953 0.57,-1.124 1.36,-1.985 2.36,-2.583 1.01,-0.598 2.15,-0.897 3.43,-0.897 1.41,0 2.6,0.352 3.57,1.055" />
  <path
     style="fill:#ffffff"
     inkscape:connector-curvature="0"
     id="path255"
     d="m 991.137,420.963 h 2.4 v 19.504 h -2.4 z" />
  <path
     style="fill:#ffffff"
     inkscape:connector-curvature="0"
     id="path257"
     d="m 1006.387,427.091 c 0.99,0.852 1.6,1.999 1.81,3.439 h -2.3 c -0.1,-0.86 -0.46,-1.568 -1.06,-2.121 -0.61,-0.554 -1.42,-0.831 -2.44,-0.831 -0.86,0 -1.54,0.207 -2.02,0.62 -0.48,0.413 -0.72,0.971 -0.72,1.674 0,0.526 0.16,0.953 0.49,1.277 0.32,0.326 0.72,0.572 1.21,0.739 0.48,0.167 1.14,0.347 1.99,0.54 1.07,0.247 1.93,0.497 2.59,0.752 0.66,0.254 1.23,0.663 1.69,1.225 0.46,0.563 0.7,1.318 0.7,2.267 0,1.176 -0.45,2.135 -1.33,2.872 -0.89,0.738 -2.07,1.107 -3.55,1.107 -1.72,0 -3.12,-0.413 -4.21,-1.239 -1.09,-0.825 -1.73,-1.977 -1.93,-3.452 h 2.32 c 0.09,0.879 0.47,1.591 1.15,2.135 0.67,0.545 1.56,0.817 2.67,0.817 0.83,0 1.47,-0.211 1.94,-0.633 0.46,-0.422 0.7,-0.975 0.7,-1.66 0,-0.562 -0.17,-1.011 -0.5,-1.345 -0.34,-0.333 -0.75,-0.588 -1.24,-0.763 -0.49,-0.176 -1.17,-0.361 -2.03,-0.554 -1.07,-0.246 -1.93,-0.492 -2.57,-0.738 -0.64,-0.246 -1.19,-0.637 -1.63,-1.173 -0.45,-0.536 -0.68,-1.261 -0.68,-2.174 0,-1.213 0.45,-2.192 1.35,-2.94 0.89,-0.746 2.12,-1.12 3.66,-1.12 1.64,0 2.95,0.427 3.94,1.279" />
  <path
     style="fill:#3f4962"
     inkscape:connector-curvature="0"
     id="path259"
     d="m 658.979,489.884 6.601,6.601 26.943,-26.943 -6.601,-6.601 -26.943,26.943" />
  <path
     style="fill:#818181"
     inkscape:connector-curvature="0"
     id="path261"
     d="m 472.647,325.272 h 5.751 c -0.097,0.996 -0.384,1.865 -0.861,2.605 -0.478,0.741 -1.091,1.305 -1.837,1.693 -0.748,0.387 -1.572,0.58 -2.471,0.58 -1.052,0 -1.983,-0.231 -2.793,-0.695 -0.809,-0.463 -1.442,-1.128 -1.899,-1.993 -0.457,-0.865 -0.685,-1.892 -0.685,-3.083 0,-1.162 0.225,-2.172 0.674,-3.031 0.45,-0.858 1.07,-1.518 1.858,-1.982 0.79,-0.464 1.682,-0.696 2.679,-0.696 1.106,0 2.065,0.27 2.875,0.81 0.809,0.539 1.387,1.252 1.733,2.138 h 1.994 c -0.402,-1.454 -1.181,-2.602 -2.336,-3.446 -1.156,-0.844 -2.585,-1.267 -4.287,-1.267 -1.399,0 -2.637,0.319 -3.716,0.955 -1.08,0.637 -1.92,1.519 -2.523,2.647 -0.602,1.129 -0.903,2.419 -0.903,3.872 0,1.453 0.301,2.744 0.903,3.872 0.603,1.128 1.443,2.007 2.523,2.637 1.079,0.63 2.324,0.944 3.737,0.944 1.286,0 2.435,-0.277 3.446,-0.83 1.011,-0.554 1.813,-1.301 2.408,-2.242 0.595,-0.942 0.955,-1.993 1.08,-3.156 v -1.744 h -7.35 v 1.412" />
  <path
     style="fill:#818181"
     inkscape:connector-curvature="0"
     id="path263"
     d="m 485.229,326.829 2.678,-7.39 2.678,7.39 z m 1.619,-9.508 -5.418,14.366 h 2.034 l 1.225,-3.384 h 6.436 l 1.224,3.384 h 2.035 l -5.398,-14.366 h -2.138" />
  <path
     style="fill:#818181"
     inkscape:connector-curvature="0"
     id="path265"
     d="m 495.11,318.587 h 4.132 v 13.1 h 1.889 v -13.1 h 4.131 v -1.536 H 495.11 v 1.536" />
  <path
     style="fill:#818181"
     inkscape:connector-curvature="0"
     id="path267"
     d="m 509.206,331.687 h 8.076 v -1.537 h -6.187 v -5.106 h 5.564 v -1.453 h -5.564 v -5.004 h 6.187 v -1.536 h -8.076 v 14.636" />
  <path
     style="fill:#818181"
     inkscape:connector-curvature="0"
     id="path269"
     d="m 530.029,325.656 c -0.402,-0.56 -0.89,-0.979 -1.464,-1.256 -0.574,-0.277 -1.332,-0.568 -2.273,-0.872 -0.775,-0.249 -1.384,-0.474 -1.828,-0.675 -0.442,-0.201 -0.813,-0.477 -1.11,-0.831 -0.298,-0.352 -0.447,-0.812 -0.447,-1.38 0,-0.719 0.229,-1.276 0.686,-1.671 0.457,-0.394 1.066,-0.592 1.827,-0.592 0.83,0 1.488,0.222 1.973,0.665 0.484,0.443 0.781,0.954 0.892,1.536 h 2.034 c -0.137,-1.079 -0.629,-1.968 -1.473,-2.668 -0.844,-0.699 -1.987,-1.048 -3.426,-1.048 -0.928,0 -1.734,0.159 -2.418,0.478 -0.687,0.318 -1.212,0.767 -1.579,1.349 -0.366,0.581 -0.549,1.253 -0.549,2.014 0,0.885 0.196,1.598 0.591,2.138 0.394,0.54 0.871,0.944 1.433,1.214 0.56,0.27 1.304,0.557 2.231,0.862 0.789,0.249 1.412,0.481 1.869,0.696 0.457,0.214 0.84,0.508 1.152,0.882 0.311,0.373 0.467,0.858 0.467,1.453 0,0.692 -0.221,1.259 -0.664,1.703 -0.443,0.443 -1.079,0.663 -1.91,0.663 -0.638,0 -1.181,-0.127 -1.63,-0.384 -0.45,-0.256 -0.796,-0.58 -1.038,-0.975 -0.243,-0.395 -0.385,-0.8 -0.426,-1.215 h -2.014 c 0.069,0.789 0.329,1.492 0.779,2.107 0.45,0.617 1.051,1.101 1.806,1.454 0.754,0.353 1.616,0.529 2.585,0.529 0.997,0 1.834,-0.186 2.512,-0.56 0.678,-0.374 1.183,-0.858 1.516,-1.454 0.332,-0.595 0.498,-1.239 0.498,-1.931 0,-0.927 -0.201,-1.671 -0.602,-2.231" />
  <path
     style="fill:#3f4962"
     inkscape:connector-curvature="0"
     id="path271"
     d="m 481.407,363.193 h 13.033 c 10.385,0 18.437,2.703 23.931,8.034 5.482,5.321 8.26,12.933 8.26,22.624 0,9.692 -2.778,17.304 -8.259,22.625 -5.495,5.331 -13.547,8.034 -23.932,8.034 h -13.033 z m 57.111,6.226 c -3.823,-6.942 -9.475,-12.397 -16.8,-16.213 -7.278,-3.792 -16.07,-5.715 -26.129,-5.715 h -31.544 v 92.976 h 31.544 c 10.064,0 18.857,-1.944 26.135,-5.781 7.324,-3.86 12.975,-9.358 16.796,-16.342 3.801,-6.945 5.729,-15.186 5.729,-24.493 0,-9.308 -1.928,-17.528 -5.731,-24.432" />
  <path
     style="fill:#818181"
     inkscape:connector-curvature="0"
     id="path273"
     d="m 581.649,406.901 h 6.026 v 32.631 h 10.281 v -42.001 h -16.307 v 9.37" />
  <path
     style="fill:#818181"
     inkscape:connector-curvature="0"
     id="path275"
     d="m 607.456,414.073 h 26.028 v 8.519 h -26.028 z" />
  <path
     style="fill:#818181"
     inkscape:connector-curvature="0"
     id="path277"
     d="m 662.974,426.292 c 2.596,-2.422 4.767,-5.113 6.451,-8.001 1.726,-2.954 2.6,-5.952 2.6,-8.912 0,-3.808 -1.214,-6.913 -3.61,-9.228 -2.388,-2.305 -5.809,-3.474 -10.17,-3.474 -4.279,0 -7.877,1.317 -10.695,3.914 -2.827,2.604 -4.382,6.445 -4.621,11.415 l -0.047,0.978 h 9.662 l 0.039,-0.892 c 0.27,-6.08 3.003,-6.783 5.037,-6.783 1.54,0 2.617,0.393 3.29,1.2 0.706,0.846 1.063,2.061 1.063,3.609 0,5.523 -6.349,12.725 -18.87,21.403 l -0.402,0.279 v 7.391 h 30.121 v -8.404 H 657.45 c 1.908,-1.342 3.758,-2.847 5.524,-4.495" />
  <path
     style="fill:#818181"
     inkscape:connector-curvature="0"
     id="path279"
     d="m 700.171,427.327 c -0.847,1.869 -2.492,2.778 -5.032,2.778 -2.58,0 -4.244,-0.908 -5.091,-2.778 -0.944,-2.084 -1.422,-5.158 -1.422,-9.137 0,-3.941 0.478,-6.996 1.422,-9.08 0.847,-1.869 2.511,-2.778 5.091,-2.778 2.54,0 4.185,0.909 5.032,2.778 0.946,2.087 1.424,5.142 1.424,9.08 0,3.976 -0.478,7.05 -1.424,9.137 z m 7.458,-24.543 c -2.559,-3.9 -6.761,-5.879 -12.49,-5.879 -10.804,0 -16.283,7.162 -16.283,21.285 0,14.161 5.479,21.342 16.283,21.342 5.729,0 9.931,-1.979 12.49,-5.879 2.479,-3.776 3.735,-8.979 3.735,-15.463 0,-6.447 -1.256,-11.63 -3.735,-15.406" />
  <path
     style="fill:#818181"
     inkscape:connector-curvature="0"
     id="path281"
     d="m 661.227,557.385 c 2.596,-2.423 4.767,-5.115 6.451,-8.001 1.725,-2.954 2.6,-5.953 2.6,-8.912 0,-3.809 -1.214,-6.913 -3.61,-9.228 -2.388,-2.305 -5.81,-3.474 -10.171,-3.474 -4.278,0 -7.877,1.317 -10.695,3.914 -2.826,2.604 -4.382,6.445 -4.621,11.415 l -0.046,0.978 h 9.661 l 0.039,-0.892 c 0.271,-6.079 3.004,-6.782 5.037,-6.782 1.542,0 2.618,0.392 3.29,1.198 0.706,0.847 1.063,2.062 1.063,3.61 0,5.522 -6.349,12.724 -18.869,21.403 l -0.403,0.279 v 7.391 h 30.121 v -8.404 h -15.373 c 1.908,-1.342 3.759,-2.847 5.526,-4.495" />
  <path
     style="fill:#818181"
     inkscape:connector-curvature="0"
     id="path283"
     d="m 707.12,548.703 c -0.962,-2.147 -2.455,-3.89 -4.438,-5.177 -1.982,-1.288 -4.477,-1.941 -7.416,-1.941 -1.97,0 -3.8,0.339 -5.439,1.006 -0.866,0.353 -1.642,0.771 -2.324,1.249 v -7.096 h 19.044 v -8.917 H 678.358 V 553.4 h 9.328 l 0.247,-0.553 c 0.417,-0.932 1.063,-1.663 1.973,-2.233 0.906,-0.565 2.04,-0.852 3.371,-0.852 1.837,0 3.198,0.483 4.161,1.478 0.971,1.004 1.443,2.409 1.443,4.296 0,2.008 -0.476,3.619 -1.415,4.788 -0.901,1.123 -2.271,1.669 -4.189,1.669 -1.593,0 -2.819,-0.413 -3.748,-1.262 -0.952,-0.869 -1.545,-2.027 -1.814,-3.538 l -0.136,-0.771 h -9.547 l 0.044,0.976 c 0.12,2.658 0.84,5.023 2.138,7.03 1.301,2.014 3.131,3.599 5.437,4.712 2.278,1.098 4.977,1.655 8.024,1.655 4.72,0 8.422,-1.4 11,-4.162 2.562,-2.743 3.861,-6.419 3.861,-10.926 0,-2.544 -0.476,-4.901 -1.416,-7.004" />
  <path
     style="fill:#3f4962"
     inkscape:connector-curvature="0"
     id="path285"
     d="m 710.712,302.751 -57.489,-57.488 -57.489,57.488 12.543,12.544 36.077,-36.078 v 90.095 h 17.738 v -90.095 l 36.077,36.078 12.543,-12.544" />
  <path
     style="fill:#3f4962"
     inkscape:connector-curvature="0"
     id="path287"
     d="m 477.877,539.839 c 3.118,0 5.646,-2.528 5.646,-5.646 0,-3.118 -2.528,-5.645 -5.646,-5.645 -3.118,0 -5.646,2.527 -5.646,5.645 0,3.118 2.528,5.646 5.646,5.646" />
  <path
     style="fill:#3f4962"
     inkscape:connector-curvature="0"
     id="path289"
     d="m 484.232,542.221 h -12.71 c -2.818,0 -4.651,3.827 -3.391,7.08 l 7.17,18.507 c 0.972,2.511 4.179,2.511 5.152,0 l 7.17,-18.507 c 1.259,-3.253 -0.573,-7.08 -3.391,-7.08" />
  <path
     style="fill:#3f4962"
     inkscape:connector-curvature="0"
     id="path291"
     d="m 505.216,539.839 c 3.118,0 5.646,-2.528 5.646,-5.646 0,-3.118 -2.528,-5.645 -5.646,-5.645 -3.118,0 -5.646,2.527 -5.646,5.645 0,3.118 2.528,5.646 5.646,5.646" />
  <path
     style="fill:#3f4962"
     inkscape:connector-curvature="0"
     id="path293"
     d="m 497.236,569.692 h 15.96 c 2.818,0 4.651,-3.499 3.39,-6.472 l -8.419,-19.555 c -0.388,-1.115 -1.427,-1.861 -2.592,-1.861 h -0.59 c -1.16,0 -2.194,0.738 -2.586,1.846 l -8.553,19.57 c -1.26,2.973 0.573,6.472 3.39,6.472" />
  <path
     style="fill:#3f4962"
     inkscape:connector-curvature="0"
     id="path295"
     d="m 496.067,635.752 c -5.352,-2.143 -7.962,-8.24 -5.819,-13.593 0.882,-2.206 2.435,-3.995 4.489,-5.176 l -1.395,-2.429 c -2.606,1.498 -4.575,3.767 -5.695,6.564 -2.717,6.786 0.593,14.517 7.379,17.235 1.611,0.644 3.274,0.95 4.912,0.95 5.262,0 10.252,-3.155 12.323,-8.33 l -2.6,-1.041 c -2.142,5.352 -8.24,7.964 -13.594,5.82" />
  <path
     style="fill:#3f4962"
     inkscape:connector-curvature="0"
     id="path297"
     d="m 522.104,631 -5.05,-11.695 c -0.447,-1.039 -1.194,-1.883 -2.111,-2.463 h 5.449 v -2.801 h -10.696 l -3.003,-6.974 c -0.387,-1.116 -1.426,-1.862 -2.591,-1.862 h -0.591 c -1.159,0 -2.194,0.739 -2.586,1.847 l -3.4,7.78 c -2.311,5.288 1.563,11.208 7.333,11.208 h 8.263 l 3.913,7.492 c 0.639,1.197 2.068,1.811 3.447,1.339 1.557,-0.533 2.259,-2.353 1.623,-3.871" />
  <path
     style="fill:#3f4962"
     inkscape:connector-curvature="0"
     id="path299"
     d="m 498.097,598.217 c 0,3.118 2.528,5.646 5.646,5.646 3.118,0 5.645,-2.528 5.645,-5.646 0,-3.118 -2.527,-5.645 -5.645,-5.645 -3.118,0 -5.646,2.527 -5.646,5.645" />
  <path
     style="fill:#ffd047"
     inkscape:connector-curvature="0"
     id="path301"
     d="m 848.094,733.369 h -6.973 l 3.486,-9.62 z m -6.037,-17.1 -10.454,27.71 h 5.666 l 2.203,-6.09 h 10.27 l 2.204,6.09 h 5.663 l -10.413,-27.71 h -5.139" />
  <path
     style="fill:#ffd047"
     inkscape:connector-curvature="0"
     id="path303"
     d="m 862.499,715.779 h 5.266 v 28.2 h -5.266 z" />
  <path
     style="fill:#ffd047"
     inkscape:connector-curvature="0"
     id="path305"
     d="m 880.352,720.599 h 4.034 c 3.358,0 4.856,1.28 4.856,4.15 0,2.86 -1.498,4.14 -4.856,4.14 h -4.034 z m 12.193,9.76 c 1.352,-1.48 2.038,-3.43 2.038,-5.8 0,-2.62 -0.851,-4.76 -2.529,-6.37 -1.667,-1.6 -4.147,-2.41 -7.37,-2.41 h -9.599 v 28.2 h 5.267 v -10.76 h 2.253 l 6.872,10.76 h 6.092 l -7.36,-11.16 c 1.808,-0.46 3.262,-1.28 4.336,-2.46" />
  <path
     style="fill:#ffd047"
     inkscape:connector-curvature="0"
     id="path307"
     d="m 905.862,720.489 h 3.736 c 1.811,0 3.096,0.34 3.821,1.03 0.721,0.68 1.072,1.69 1.072,3.08 0,1.34 -0.352,2.33 -1.077,3.02 -0.724,0.69 -2.008,1.05 -3.816,1.05 h -3.736 z m 4.035,-4.71 h -9.301 v 28.2 h 5.266 v -10.61 h 4.035 c 3.135,0 5.594,-0.77 7.308,-2.31 1.743,-1.56 2.627,-3.73 2.627,-6.46 0,-2.7 -0.852,-4.87 -2.535,-6.46 -1.667,-1.56 -4.156,-2.36 -7.4,-2.36" />
  <path
     style="fill:#ffd047"
     inkscape:connector-curvature="0"
     id="path309"
     d="m 936.417,739.239 c -1.64,0 -3.13,-0.38 -4.41,-1.13 -1.26,-0.74 -2.28,-1.82 -3,-3.22 -0.73,-1.43 -1.11,-3.12 -1.11,-5.03 0,-1.93 0.38,-3.62 1.11,-5.04 0.72,-1.39 1.73,-2.47 3,-3.21 h 0.01 c 1.28,-0.75 2.76,-1.12 4.4,-1.12 1.62,0 3.09,0.37 4.37,1.12 1.27,0.74 2.28,1.82 3,3.21 0.74,1.42 1.11,3.11 1.11,5.04 0,1.91 -0.37,3.59 -1.11,5.01 -0.72,1.39 -1.74,2.48 -3.01,3.23 -1.28,0.75 -2.75,1.14 -4.36,1.14 z m 7.06,-21.95 v 0 c -2.09,-1.22 -4.46,-1.85 -7.06,-1.85 -2.6,0 -4.98,0.62 -7.1,1.85 -2.12,1.23 -3.8,2.96 -5.001,5.16 -1.191,2.18 -1.794,4.68 -1.794,7.41 0,2.74 0.603,5.23 1.794,7.42 1.201,2.19 2.881,3.93 5.001,5.16 2.12,1.22 4.5,1.84 7.1,1.84 2.6,0 4.97,-0.62 7.06,-1.85 2.1,-1.22 3.77,-2.96 4.96,-5.15 1.2,-2.19 1.8,-4.68 1.8,-7.42 0,-2.73 -0.6,-5.23 -1.8,-7.41 -1.19,-2.19 -2.86,-3.93 -4.96,-5.16" />
  <path
     style="fill:#ffd047"
     inkscape:connector-curvature="0"
     id="path311"
     d="m 960.467,720.599 h 4.04 c 3.35,0 4.85,1.28 4.85,4.15 0,2.86 -1.5,4.14 -4.85,4.14 h -4.04 z m 12.2,9.76 c 1.35,-1.48 2.03,-3.43 2.03,-5.8 0,-2.62 -0.85,-4.76 -2.53,-6.37 -1.66,-1.6 -4.14,-2.41 -7.36,-2.41 h -9.6 v 28.2 h 5.26 v -10.76 h 2.26 l 6.87,10.76 h 6.09 l -7.36,-11.16 c 1.81,-0.46 3.26,-1.28 4.34,-2.46" />
  <path
     style="fill:#ffd047"
     inkscape:connector-curvature="0"
     id="path313"
     d="m 978.587,715.779 v 4.63 h 7.43 v 23.57 h 5.27 v -23.57 h 7.43 v -4.63 h -20.13" />
</svg>
