<?xml version="1.0" encoding="UTF-8"?>
<!DOCTYPE svg PUBLIC "-//W3C//DTD SVG 1.1//EN" "http://www.w3.org/Graphics/SVG/1.1/DTD/svg11.dtd">
<svg version="1.1" xmlns="http://www.w3.org/2000/svg" xmlns:xlink="http://www.w3.org/1999/xlink" x="0" y="0" width="1200" height="1200" viewBox="0, 0, 1200, 1200">
  <g id="Background">
    <rect x="0" y="0" width="1200" height="1200" fill="#FFFFFF"/>
  </g>
  <g id="Layer_1">
    <path d="M0,0 L1200,0 L1200,1199.94 L0,1199.94 z" fill="#FFFFFF"/>
    <path d="M239.271,500.045 L111.389,500.045 C94.424,500.045 80.623,486.243 80.623,469.279 L80.623,341.397 C80.623,324.433 94.424,310.631 111.389,310.631 L262.568,310.631 C266.687,310.631 270.037,313.982 270.037,318.1 L270.037,469.279 C270.037,486.243 256.235,500.045 239.271,500.045" fill="#FFD047"/>
    <path d="M472.792,650.716 L111.389,650.716 C94.424,650.716 80.623,636.915 80.623,619.95 L80.623,551.246 C80.623,534.281 94.424,520.479 111.389,520.479 L449.498,520.479 C466.461,520.479 480.261,534.279 480.261,551.242 L480.261,643.248 C480.261,647.366 476.91,650.716 472.792,650.716" fill="#FFD047"/>
    <path d="M449.494,1100.4 L88.091,1100.4 C83.973,1100.4 80.623,1097.05 80.623,1092.93 L80.623,1000.92 C80.623,983.96 94.422,970.16 111.385,970.16 L449.494,970.16 C466.459,970.16 480.261,983.961 480.261,1000.93 L480.261,1069.63 C480.261,1086.6 466.459,1100.4 449.494,1100.4" fill="#FFD047"/>
    <path d="M449.494,800.765 L88.091,800.765 C83.973,800.765 80.623,797.415 80.623,793.296 L80.623,677.997 C80.623,673.879 83.973,670.528 88.091,670.528 L449.494,670.528 C466.459,670.528 480.261,684.33 480.261,701.295 L480.261,769.998 C480.261,786.964 466.459,800.765 449.494,800.765" fill="#FFD047"/>
    <path d="M472.792,950.813 L111.389,950.813 C94.424,950.813 80.623,937.012 80.623,920.047 L80.623,851.343 C80.623,834.379 94.424,820.577 111.389,820.577 L472.792,820.577 C476.91,820.577 480.261,823.928 480.261,828.046 L480.261,943.344 C480.261,947.463 476.91,950.813 472.792,950.813" fill="#FFD047"/>
    <path d="M1100.27,804.051 L874.917,804.051 C859.531,804.051 847.015,791.534 847.015,776.148 L847.015,699.941 C847.015,684.555 859.531,672.038 874.917,672.038 L1120.7,672.038 C1124.82,672.038 1128.17,675.388 1128.17,679.507 L1128.17,776.148 C1128.17,791.534 1115.65,804.051 1100.27,804.051" fill="#3F4962"/>
    <path d="M1100.27,654.533 L874.917,654.533 C859.531,654.533 847.015,642.016 847.015,626.631 L847.015,550.423 C847.015,535.038 859.531,522.521 874.917,522.521 L1120.7,522.521 C1124.82,522.521 1128.17,525.871 1128.17,529.989 L1128.17,626.631 C1128.17,642.016 1115.65,654.533 1100.27,654.533" fill="#3F4962"/>
    <path d="M1097.41,493.248 L537.618,493.248 C520.656,493.248 506.856,479.448 506.856,462.486 L506.856,310.631 L1128.17,310.631 L1128.17,462.486 C1128.17,479.448 1114.37,493.248 1097.41,493.248" fill="#FFD047"/>
    <path d="M1100.27,1099.76 L874.917,1099.76 C859.531,1099.76 847.015,1087.24 847.015,1071.86 L847.015,849.458 C847.015,834.073 859.531,821.556 874.917,821.556 L1100.27,821.556 C1115.65,821.556 1128.17,834.073 1128.17,849.458 L1128.17,1071.86 C1128.17,1087.24 1115.65,1099.76 1100.27,1099.76" fill="#3F4962"/>
    <path d="M790.179,520.479 L537.096,520.479 C520.134,520.479 506.334,534.279 506.334,551.242 L506.334,1092.34 C506.334,1096.46 509.685,1099.81 513.803,1099.81 L813.473,1099.81 C817.591,1099.81 820.942,1096.46 820.942,1092.34 L820.942,551.242 C820.942,534.279 807.142,520.479 790.179,520.479" fill="#FFD047"/>
    <path d="M452.392,500.045 L324.506,500.045 C307.542,500.045 293.739,486.243 293.739,469.279 L293.739,341.397 C293.739,324.433 307.542,310.631 324.506,310.631 L475.686,310.631 C479.804,310.631 483.154,313.982 483.154,318.1 L483.154,469.284 C483.154,486.245 469.354,500.045 452.392,500.045" fill="#FFD047"/>
    <path d="M130.099,145.428 L120.944,119.196 L111.789,145.428 L130.099,145.428 z M133.443,154.846 L108.532,154.846 L104.131,167.346 L91.015,167.346 L113.902,105.904 L128.074,105.904 L150.873,167.346 L137.757,167.346 L133.443,154.846" fill="#3F4962"/>
    <path d="M164.604,105.2 L177.015,105.2 L177.015,167.346 L164.604,167.346 z" fill="#3F4962"/>
    <path d="M209.496,134.601 L219.707,134.601 C226.807,134.601 230.358,131.462 230.358,125.182 C230.358,122.188 229.492,119.856 227.762,118.184 C226.03,116.511 223.345,115.675 219.707,115.675 L209.496,115.675 L209.496,134.601 z M229.478,167.346 L214.954,143.139 L209.496,143.139 L209.496,167.346 L197.085,167.346 L197.085,105.2 L220.764,105.2 C227.981,105.2 233.483,106.96 237.268,110.481 C241.053,114.002 242.946,118.639 242.946,124.39 C242.946,129.085 241.639,133.016 239.029,136.185 C236.417,139.354 232.647,141.466 227.718,142.522 L243.21,167.346 L229.478,167.346" fill="#3F4962"/>
    <path d="M290.567,124.829 C290.567,121.72 289.716,119.343 288.015,117.699 C286.312,116.058 283.525,115.234 279.652,115.234 L270.762,115.234 L270.762,134.336 L279.652,134.336 C286.928,134.336 290.567,131.167 290.567,124.829 z M270.762,144.283 L270.762,167.346 L258.351,167.346 L258.351,105.2 L280.973,105.2 C288.308,105.2 293.838,106.96 297.565,110.481 C301.292,114.002 303.155,118.786 303.155,124.829 C303.155,130.758 301.232,135.48 297.39,139.002 C293.545,142.522 288.073,144.283 280.973,144.283 L270.762,144.283" fill="#3F4962"/>
    <path d="M336.076,118.228 C333.317,119.871 331.161,122.232 329.606,125.313 C328.051,128.395 327.273,131.99 327.273,136.097 C327.273,140.205 328.051,143.799 329.606,146.88 C331.161,149.961 333.317,152.323 336.076,153.966 C338.834,155.609 342.032,156.431 345.671,156.431 C349.309,156.431 352.506,155.609 355.266,153.966 C358.023,152.323 360.18,149.961 361.735,146.88 C363.29,143.799 364.068,140.205 364.068,136.097 C364.068,131.99 363.29,128.395 361.735,125.313 C360.18,122.232 358.023,119.871 355.266,118.228 C352.506,116.585 349.309,115.763 345.671,115.763 C342.032,115.763 338.834,116.585 336.076,118.228 z M361.471,108.369 C366.194,111.068 369.922,114.839 372.65,119.68 C375.379,124.521 376.744,129.994 376.744,136.097 C376.744,142.201 375.379,147.688 372.65,152.558 C369.922,157.429 366.194,161.214 361.471,163.913 C356.747,166.612 351.48,167.962 345.671,167.962 C339.861,167.962 334.593,166.612 329.87,163.913 C325.146,161.214 321.42,157.429 318.691,152.558 C315.962,147.688 314.598,142.201 314.598,136.097 C314.598,129.994 315.962,124.521 318.691,119.68 C321.42,114.839 325.146,111.068 329.87,108.369 C334.593,105.67 339.861,104.319 345.671,104.319 C351.48,104.319 356.747,105.67 361.471,108.369" fill="#3F4962"/>
    <path d="M403.767,134.601 L413.978,134.601 C421.078,134.601 424.629,131.462 424.629,125.182 C424.629,122.188 423.762,119.856 422.032,118.184 C420.3,116.511 417.616,115.675 413.978,115.675 L403.767,115.675 L403.767,134.601 z M423.749,167.346 L409.225,143.139 L403.767,143.139 L403.767,167.346 L391.355,167.346 L391.355,105.2 L415.034,105.2 C422.252,105.2 427.754,106.96 431.539,110.481 C435.324,114.002 437.216,118.639 437.216,124.39 C437.216,129.085 435.91,133.016 433.299,136.185 C430.688,139.354 426.917,141.466 421.988,142.522 L437.48,167.346 L423.749,167.346" fill="#3F4962"/>
    <path d="M494.873,105.2 L494.873,115.059 L477.708,115.059 L477.708,167.346 L465.296,167.346 L465.296,115.059 L448.22,115.059 L448.22,105.2 L494.873,105.2" fill="#3F4962"/>
    <path d="M986.972,164.216 C986.108,165.673 984.828,166.841 983.131,167.72 C981.435,168.601 979.372,169.04 976.94,169.04 C974.54,169.04 972.396,168.632 970.507,167.816 C968.62,167 967.107,165.824 965.972,164.288 C964.835,162.752 964.188,160.96 964.028,158.912 L971.228,158.912 C971.387,160.288 971.94,161.432 972.883,162.344 C973.828,163.256 975.083,163.712 976.652,163.712 C978.059,163.712 979.139,163.336 979.892,162.584 C980.643,161.833 981.02,160.864 981.02,159.68 C981.02,158.624 980.715,157.753 980.108,157.064 C979.5,156.376 978.732,155.824 977.804,155.408 C976.875,154.992 975.596,154.513 973.963,153.968 C971.852,153.265 970.124,152.568 968.78,151.88 C967.436,151.192 966.292,150.192 965.348,148.88 C964.404,147.568 963.932,145.856 963.932,143.744 C963.932,140.833 964.98,138.536 967.076,136.856 C969.171,135.176 971.948,134.336 975.404,134.336 C978.987,134.336 981.843,135.2 983.972,136.928 C986.099,138.656 987.308,140.96 987.596,143.84 L980.299,143.84 C980.108,142.624 979.595,141.625 978.764,140.84 C977.931,140.057 976.795,139.664 975.356,139.664 C974.108,139.664 973.1,139.992 972.332,140.648 C971.564,141.305 971.18,142.256 971.18,143.504 C971.18,144.496 971.475,145.32 972.068,145.977 C972.66,146.633 973.412,147.169 974.324,147.584 C975.236,148 976.475,148.465 978.043,148.977 C980.219,149.744 981.987,150.464 983.348,151.136 C984.708,151.808 985.868,152.816 986.828,154.16 C987.788,155.504 988.268,157.265 988.268,159.44 C988.268,161.168 987.835,162.761 986.972,164.216" fill="#818181"/>
    <path d="M1000.45,134.816 L1007.22,134.816 L1007.22,168.704 L1000.45,168.704 z" fill="#818181"/>
    <path d="M1049.56,137.528 C1052.28,139.561 1054.03,142.304 1054.79,145.76 L1047.69,145.76 C1047.02,144.224 1045.95,143 1044.5,142.088 C1043.04,141.176 1041.32,140.72 1039.34,140.72 C1037.39,140.72 1035.66,141.169 1034.15,142.064 C1032.65,142.96 1031.48,144.24 1030.65,145.904 C1029.82,147.568 1029.4,149.521 1029.4,151.76 C1029.4,155.313 1030.35,158.08 1032.26,160.064 C1034.16,162.049 1036.76,163.04 1040.06,163.04 C1042.49,163.04 1044.58,162.32 1046.32,160.88 C1048.07,159.44 1049.19,157.44 1049.71,154.88 L1038.23,154.88 L1038.23,150.032 L1055.37,150.032 L1055.37,156.561 C1054.89,158.801 1053.95,160.864 1052.56,162.752 C1051.17,164.641 1049.35,166.152 1047.09,167.288 C1044.83,168.425 1042.25,168.992 1039.34,168.992 C1036.01,168.992 1033.07,168.265 1030.53,166.808 C1027.99,165.353 1026.02,163.32 1024.63,160.712 C1023.23,158.104 1022.54,155.12 1022.54,151.76 C1022.54,148.4 1023.23,145.417 1024.63,142.808 C1026.02,140.2 1027.98,138.16 1030.51,136.688 C1033.03,135.217 1035.96,134.48 1039.29,134.48 C1043.42,134.48 1046.84,135.496 1049.56,137.528" fill="#818181"/>
    <path d="M1096.84,168.704 L1090.07,168.704 L1074.91,145.664 L1074.91,168.704 L1068.14,168.704 L1068.14,134.816 L1074.91,134.816 L1090.07,158.048 L1090.07,134.816 L1096.84,134.816 L1096.84,168.704" fill="#818181"/>
    <path d="M1132.65,164.216 C1131.79,165.673 1130.51,166.841 1128.81,167.72 C1127.11,168.601 1125.05,169.04 1122.62,169.04 C1120.22,169.04 1118.07,168.632 1116.19,167.816 C1114.3,167 1112.79,165.824 1111.65,164.288 C1110.51,162.752 1109.87,160.96 1109.71,158.912 L1116.91,158.912 C1117.07,160.288 1117.62,161.432 1118.56,162.344 C1119.51,163.256 1120.76,163.712 1122.33,163.712 C1123.74,163.712 1124.82,163.336 1125.57,162.584 C1126.32,161.833 1126.7,160.864 1126.7,159.68 C1126.7,158.624 1126.39,157.753 1125.79,157.064 C1125.18,156.376 1124.41,155.824 1123.48,155.408 C1122.55,154.992 1121.27,154.513 1119.64,153.968 C1117.53,153.265 1115.8,152.568 1114.46,151.88 C1113.11,151.192 1111.97,150.192 1111.03,148.88 C1110.08,147.568 1109.61,145.856 1109.61,143.744 C1109.61,140.833 1110.66,138.536 1112.75,136.856 C1114.85,135.176 1117.63,134.336 1121.08,134.336 C1124.67,134.336 1127.52,135.2 1129.65,136.928 C1131.78,138.656 1132.99,140.96 1133.27,143.84 L1125.98,143.84 C1125.79,142.624 1125.27,141.625 1124.44,140.84 C1123.61,140.057 1122.47,139.664 1121.03,139.664 C1119.79,139.664 1118.78,139.992 1118.01,140.648 C1117.24,141.305 1116.86,142.256 1116.86,143.504 C1116.86,144.496 1117.15,145.32 1117.75,145.977 C1118.34,146.633 1119.09,147.169 1120,147.584 C1120.91,148 1122.15,148.465 1123.72,148.977 C1125.9,149.744 1127.67,150.464 1129.03,151.136 C1130.39,151.808 1131.55,152.816 1132.51,154.16 C1133.47,155.504 1133.95,157.265 1133.95,159.44 C1133.95,161.168 1133.51,162.761 1132.65,164.216" fill="#818181"/>
    <path d="M89.959,234.296 L166.965,234.296 L166.965,244.296 L89.959,244.296 z" fill="#818181"/>
    <path d="M953.746,968.847 L1026.12,908.276 C1030.57,904.373 1033.96,899.41 1035.98,893.848 L1041.65,881.418 C1043.94,875.113 1037.83,869.001 1031.52,871.291 L1019.09,876.957 C1013.53,878.977 1008.57,882.369 1004.66,886.817 L945.313,957.738 L921.531,957.738 C919.901,957.738 918.338,958.386 917.186,959.538 L916.129,960.595 C915.215,961.509 915.556,963.061 916.769,963.508 L935.671,970.474 C935.5,971.893 935.96,973.366 937.039,974.445 L937.768,975.173 L938.496,975.901 C939.344,976.749 940.437,977.213 941.554,977.292 L947.976,994.715 C948.422,995.927 949.975,996.268 950.889,995.355 L951.946,994.298 C953.098,993.145 953.746,991.582 953.746,989.953 L953.746,968.847" fill="#FFFFFF"/>
    <path d="M988.164,897.928 L932.999,889.299 C930.88,888.967 928.729,889.668 927.212,891.185 L924.874,893.524 C924,894.397 924.254,895.871 925.368,896.403 L971.163,918.244 L988.164,897.928" fill="#FFFFFF"/>
    <path d="M1023.24,979.542 L1014.69,924.853 L994.481,941.763 L1016.14,987.173 C1016.67,988.288 1018.14,988.541 1019.02,987.668 L1021.36,985.329 C1022.87,983.812 1023.57,981.662 1023.24,979.542" fill="#FFFFFF"/>
    <path d="M210.888,372.959 L199.666,361.735 L138.914,422.487 L138.914,387.419 L123.042,387.419 L123.042,449.581 L185.205,449.581 L185.205,433.71 L150.136,433.71 L210.888,372.959" fill="#3F4962"/>
    <path d="M228.619,412.501 L228.619,402.73 L199.615,402.73 L199.615,449.472 L228.619,449.472 L228.619,439.638 L211.192,439.638 L211.192,430.613 L226.751,430.613 L226.751,421.09 L211.192,421.09 L211.192,412.501 L228.619,412.501" fill="#818181"/>
    <path d="M130.496,363.578 L136.247,363.578 C136.149,364.575 135.862,365.443 135.385,366.184 C134.907,366.924 134.294,367.488 133.548,367.876 C132.8,368.263 131.976,368.457 131.077,368.457 C130.025,368.457 129.094,368.225 128.285,367.761 C127.475,367.298 126.842,366.633 126.386,365.768 C125.929,364.904 125.7,363.876 125.7,362.685 C125.7,361.523 125.925,360.513 126.375,359.654 C126.824,358.796 127.444,358.136 128.232,357.672 C129.022,357.208 129.915,356.976 130.911,356.976 C132.018,356.976 132.977,357.246 133.786,357.786 C134.596,358.326 135.173,359.039 135.52,359.924 L137.513,359.924 C137.111,358.471 136.333,357.323 135.177,356.478 C134.021,355.634 132.592,355.211 130.89,355.211 C129.492,355.211 128.253,355.53 127.174,356.167 C126.095,356.803 125.254,357.686 124.651,358.813 C124.05,359.942 123.749,361.232 123.749,362.685 C123.749,364.139 124.05,365.43 124.651,366.558 C125.254,367.685 126.095,368.564 127.174,369.194 C128.253,369.824 129.499,370.139 130.911,370.139 C132.198,370.139 133.347,369.862 134.357,369.308 C135.368,368.755 136.17,368.007 136.766,367.066 C137.361,366.124 137.72,365.073 137.845,363.91 L137.845,362.167 L130.496,362.167 L130.496,363.578" fill="#818181"/>
    <path d="M143.077,365.135 L145.755,357.745 L148.434,365.135 L143.077,365.135 z M144.696,355.627 L139.278,369.993 L141.312,369.993 L142.538,366.609 L148.973,366.609 L150.198,369.993 L152.233,369.993 L146.834,355.627 L144.696,355.627" fill="#818181"/>
    <path d="M152.958,356.893 L157.09,356.893 L157.09,369.993 L158.979,369.993 L158.979,356.893 L163.11,356.893 L163.11,355.357 L152.958,355.357 L152.958,356.893" fill="#818181"/>
    <path d="M175.13,356.893 L175.13,355.357 L167.055,355.357 L167.055,369.993 L175.13,369.993 L175.13,368.457 L168.943,368.457 L168.943,363.35 L174.508,363.35 L174.508,361.897 L168.943,361.897 L168.943,356.893 L175.13,356.893" fill="#818181"/>
    <path d="M379.312,1000.84 L379.312,1016.71 L414.38,1016.71 L364.462,1066.63 L375.684,1077.85 L425.603,1027.93 L425.603,1063 L441.474,1063 L441.474,1000.84 L379.312,1000.84" fill="#3F4962"/>
    <path d="M171.573,1061.03 C170.408,1062.05 168.789,1062.57 166.757,1062.57 C164.728,1062.57 163.12,1062.05 161.977,1061.04 L161.976,1061.04 C160.849,1060.04 160.3,1058.71 160.3,1056.96 C160.3,1055.2 160.862,1053.91 162.016,1053.01 C163.225,1052.06 164.82,1051.59 166.757,1051.59 C168.732,1051.59 170.346,1052.06 171.554,1053.01 C172.709,1053.91 173.271,1055.2 173.271,1056.96 C173.271,1058.7 172.715,1060.04 171.573,1061.03 z M162.793,1035.92 C163.784,1035.06 165.08,1034.64 166.757,1034.64 C168.471,1034.64 169.787,1035.06 170.778,1035.92 C171.729,1036.75 172.191,1037.9 172.191,1039.45 C172.191,1041 171.738,1042.15 170.807,1042.96 C169.852,1043.78 168.489,1044.2 166.757,1044.2 C165.04,1044.2 163.734,1043.8 162.765,1042.96 L162.765,1042.95 C161.833,1042.15 161.381,1041 161.381,1039.45 C161.381,1037.9 161.843,1036.75 162.793,1035.92 z M176.86,1047.19 C178.23,1046.43 179.331,1045.46 180.146,1044.28 C181.312,1042.59 181.903,1040.53 181.903,1038.15 C181.903,1036.04 181.308,1034.05 180.133,1032.24 C178.963,1030.43 177.209,1028.96 174.919,1027.87 C172.662,1026.79 169.916,1026.24 166.757,1026.24 C163.598,1026.24 160.852,1026.79 158.595,1027.87 C156.307,1028.96 154.554,1030.43 153.382,1032.24 C152.207,1034.05 151.612,1036.04 151.612,1038.15 C151.612,1040.49 152.213,1042.54 153.399,1044.25 C154.227,1045.44 155.337,1046.43 156.712,1047.19 C155.069,1048.08 153.735,1049.22 152.732,1050.58 C151.348,1052.46 150.646,1054.76 150.646,1057.42 C150.646,1060.25 151.36,1062.73 152.769,1064.79 C154.172,1066.85 156.125,1068.42 158.572,1069.47 C160.97,1070.51 163.724,1071.03 166.757,1071.03 C169.789,1071.03 172.543,1070.51 174.943,1069.47 C177.388,1068.42 179.349,1066.85 180.77,1064.8 C182.201,1062.73 182.927,1060.25 182.927,1057.42 C182.927,1054.76 182.225,1052.46 180.84,1050.58 C179.836,1049.22 178.502,1048.08 176.86,1047.19" fill="#818181"/>
    <path d="M208.554,1057.86 C207.707,1059.73 206.061,1060.63 203.521,1060.63 C200.942,1060.63 199.277,1059.73 198.43,1057.86 C197.486,1055.77 197.008,1052.7 197.008,1048.72 C197.008,1044.78 197.486,1041.72 198.431,1039.64 C199.277,1037.77 200.942,1036.86 203.521,1036.86 C206.061,1036.86 207.707,1037.77 208.554,1039.64 C209.499,1041.73 209.978,1044.78 209.978,1048.72 C209.978,1052.7 209.499,1055.77 208.554,1057.86 z M203.521,1027.43 C192.717,1027.43 187.239,1034.6 187.239,1048.72 C187.239,1062.88 192.717,1070.06 203.521,1070.06 C209.25,1070.06 213.452,1068.08 216.011,1064.18 C218.49,1060.41 219.747,1055.2 219.747,1048.72 C219.747,1042.27 218.49,1037.09 216.011,1033.31 C213.453,1029.41 209.25,1027.43 203.521,1027.43" fill="#818181"/>
    <path d="M226,1044.6 L252.027,1044.6 L252.027,1053.12 L226,1053.12 z" fill="#818181"/>
    <path d="M283.018,1041.78 C283.018,1043.63 282.433,1045 281.231,1045.98 C279.969,1047 278.516,1047.5 276.789,1047.5 C274.944,1047.5 273.534,1046.99 272.475,1045.93 C271.415,1044.87 270.9,1043.36 270.9,1041.33 C270.9,1039.41 271.406,1037.97 272.446,1036.93 C273.486,1035.89 274.87,1035.38 276.675,1035.38 C278.802,1035.38 280.35,1035.96 281.407,1037.15 C282.491,1038.36 283.018,1039.88 283.018,1041.78 z M276.448,1026.64 C273.308,1026.64 270.582,1027.27 268.346,1028.52 C266.088,1029.78 264.365,1031.55 263.225,1033.77 C262.1,1035.96 261.529,1038.46 261.529,1041.22 C261.529,1045.72 262.735,1049.28 265.112,1051.78 C267.501,1054.29 270.799,1055.56 274.913,1055.56 C277.426,1055.56 279.666,1054.97 281.568,1053.81 C282.385,1053.31 283.094,1052.73 283.69,1052.08 C283.563,1055.17 283.085,1057.56 282.265,1059.19 C281.253,1061.19 279.647,1062.17 277.357,1062.17 C274.335,1062.17 272.677,1060.54 272.14,1057.05 L272.018,1056.26 L262.7,1056.26 L262.784,1057.27 C262.983,1059.67 263.664,1061.89 264.809,1063.88 C265.97,1065.9 267.64,1067.52 269.771,1068.69 C271.89,1069.87 274.442,1070.46 277.357,1070.46 C282.876,1070.46 286.886,1068.43 289.272,1064.43 C291.567,1060.59 292.73,1054.94 292.73,1047.64 C292.73,1041.2 291.574,1036.07 289.292,1032.39 C286.922,1028.57 282.601,1026.64 276.448,1026.64" fill="#818181"/>
    <path d="M330.708,1048.14 C329.747,1045.99 328.254,1044.25 326.271,1042.96 C324.289,1041.67 321.794,1041.02 318.855,1041.02 C316.884,1041.02 315.054,1041.36 313.416,1042.03 C312.55,1042.38 311.773,1042.8 311.092,1043.28 L311.092,1036.18 L330.136,1036.18 L330.136,1027.26 L301.948,1027.26 L301.948,1052.84 L311.275,1052.84 L311.522,1052.28 C311.939,1051.35 312.585,1050.62 313.496,1050.05 C314.401,1049.48 315.536,1049.2 316.866,1049.2 C318.703,1049.2 320.064,1049.68 321.028,1050.68 C321.999,1051.68 322.471,1053.08 322.471,1054.97 C322.471,1056.98 321.995,1058.59 321.056,1059.76 C320.154,1060.88 318.784,1061.43 316.866,1061.43 C315.273,1061.43 314.047,1061.02 313.119,1060.17 C312.167,1059.3 311.573,1058.14 311.305,1056.63 L311.168,1055.86 L301.621,1055.86 L301.665,1056.83 C301.786,1059.49 302.505,1061.86 303.803,1063.86 C305.105,1065.88 306.935,1067.46 309.241,1068.58 C311.518,1069.67 314.217,1070.23 317.265,1070.23 C321.983,1070.23 325.685,1068.83 328.265,1066.07 C330.827,1063.33 332.125,1059.65 332.125,1055.14 C332.125,1052.6 331.649,1050.24 330.708,1048.14" fill="#818181"/>
    <path d="M163.54,998.372 C164.694,999.216 165.473,1000.36 165.875,1001.82 L163.882,1001.82 C163.536,1000.93 162.958,1000.22 162.148,999.68 C161.338,999.14 160.38,998.87 159.273,998.87 C158.277,998.87 157.384,999.102 156.595,999.565 C155.806,1000.03 155.186,1000.69 154.737,1001.55 C154.287,1002.41 154.062,1003.42 154.062,1004.58 C154.062,1005.77 154.291,1006.8 154.748,1007.66 C155.205,1008.53 155.837,1009.19 156.647,1009.65 C157.457,1010.12 158.387,1010.35 159.439,1010.35 C160.338,1010.35 161.163,1010.16 161.91,1009.77 C162.657,1009.38 163.27,1008.82 163.747,1008.08 C164.224,1007.34 164.511,1006.47 164.609,1005.47 L158.858,1005.47 L158.858,1004.06 L166.207,1004.06 L166.207,1005.8 C166.082,1006.97 165.723,1008.02 165.127,1008.96 C164.532,1009.9 163.73,1010.65 162.72,1011.2 C161.708,1011.76 160.56,1012.03 159.273,1012.03 C157.861,1012.03 156.616,1011.72 155.536,1011.09 C154.457,1010.46 153.616,1009.58 153.014,1008.45 C152.412,1007.32 152.111,1006.03 152.111,1004.58 C152.111,1003.13 152.412,1001.84 153.014,1000.71 C153.616,999.579 154.457,998.697 155.536,998.06 C156.616,997.424 157.854,997.105 159.252,997.105 C160.955,997.105 162.383,997.528 163.54,998.372" fill="#818181"/>
    <path d="M176.796,1007.03 L174.117,999.638 L171.439,1007.03 L176.796,1007.03 z M177.335,1008.5 L170.9,1008.5 L169.674,1011.89 L167.64,1011.89 L173.059,997.521 L175.197,997.521 L180.595,1011.89 L178.56,1011.89 L177.335,1008.5" fill="#818181"/>
    <path d="M191.473,997.251 L191.473,998.787 L187.342,998.787 L187.342,1011.89 L185.453,1011.89 L185.453,998.787 L181.321,998.787 L181.321,997.251 L191.473,997.251" fill="#818181"/>
    <path d="M197.306,998.787 L197.306,1003.79 L202.87,1003.79 L202.87,1005.24 L197.306,1005.24 L197.306,1010.35 L203.493,1010.35 L203.493,1011.89 L195.417,1011.89 L195.417,997.251 L203.493,997.251 L203.493,998.787 L197.306,998.787" fill="#818181"/>
    <path d="M216.343,1010.02 C216.011,1010.61 215.505,1011.1 214.827,1011.47 C214.149,1011.85 213.312,1012.03 212.315,1012.03 C211.346,1012.03 210.485,1011.86 209.73,1011.5 C208.976,1011.15 208.374,1010.67 207.924,1010.05 C207.474,1009.43 207.215,1008.73 207.146,1007.94 L209.16,1007.94 C209.201,1008.36 209.343,1008.76 209.585,1009.16 C209.827,1009.55 210.174,1009.88 210.623,1010.13 C211.073,1010.39 211.616,1010.52 212.253,1010.52 C213.084,1010.52 213.72,1010.3 214.164,1009.85 C214.605,1009.41 214.827,1008.84 214.827,1008.15 C214.827,1007.55 214.671,1007.07 214.36,1006.7 C214.048,1006.32 213.665,1006.03 213.208,1005.81 C212.751,1005.6 212.128,1005.37 211.34,1005.12 C210.413,1004.81 209.668,1004.53 209.108,1004.26 C208.547,1003.99 208.069,1003.58 207.676,1003.04 C207.281,1002.5 207.084,1001.79 207.084,1000.9 C207.084,1000.14 207.267,999.472 207.634,998.891 C208,998.309 208.526,997.86 209.212,997.542 C209.896,997.223 210.703,997.064 211.631,997.064 C213.069,997.064 214.212,997.413 215.056,998.112 C215.9,998.812 216.392,999.701 216.529,1000.78 L214.495,1000.78 C214.384,1000.2 214.087,999.687 213.603,999.244 C213.118,998.801 212.46,998.579 211.631,998.579 C210.869,998.579 210.26,998.777 209.804,999.171 C209.347,999.565 209.118,1000.12 209.118,1000.84 C209.118,1001.41 209.267,1001.87 209.565,1002.22 C209.862,1002.58 210.232,1002.85 210.675,1003.05 C211.118,1003.25 211.728,1003.48 212.502,1003.73 C213.443,1004.03 214.201,1004.32 214.775,1004.6 C215.35,1004.88 215.837,1005.3 216.239,1005.86 C216.641,1006.42 216.841,1007.16 216.841,1008.09 C216.841,1008.78 216.675,1009.42 216.343,1010.02" fill="#818181"/>
    <path d="M414.959,377.419 L420.71,377.419 C420.613,378.415 420.326,379.284 419.849,380.025 C419.371,380.765 418.759,381.329 418.012,381.717 C417.264,382.104 416.44,382.297 415.541,382.297 C414.489,382.297 413.558,382.066 412.749,381.602 C411.939,381.139 411.306,380.474 410.85,379.609 C410.393,378.744 410.164,377.717 410.164,376.526 C410.164,375.364 410.389,374.354 410.838,373.495 C411.288,372.637 411.908,371.977 412.697,371.513 C413.486,371.049 414.379,370.817 415.375,370.817 C416.482,370.817 417.44,371.087 418.25,371.627 C419.06,372.166 419.638,372.879 419.984,373.765 L421.977,373.765 C421.575,372.311 420.796,371.164 419.641,370.319 C418.485,369.475 417.057,369.052 415.354,369.052 C413.956,369.052 412.718,369.371 411.638,370.007 C410.559,370.644 409.718,371.526 409.115,372.654 C408.514,373.783 408.213,375.073 408.213,376.526 C408.213,377.98 408.514,379.271 409.115,380.398 C409.718,381.526 410.559,382.405 411.638,383.035 C412.718,383.665 413.963,383.98 415.375,383.98 C416.662,383.98 417.811,383.702 418.821,383.149 C419.832,382.596 420.634,381.848 421.229,380.907 C421.825,379.965 422.184,378.914 422.309,377.751 L422.309,376.007 L414.959,376.007 L414.959,377.419" fill="#818181"/>
    <path d="M427.541,378.976 L430.219,371.586 L432.897,378.976 L427.541,378.976 z M429.16,369.468 L423.742,383.834 L425.776,383.834 L427.001,380.45 L433.437,380.45 L434.662,383.834 L436.697,383.834 L431.298,369.468 L429.16,369.468" fill="#818181"/>
    <path d="M437.422,370.734 L441.554,370.734 L441.554,383.834 L443.443,383.834 L443.443,370.734 L447.574,370.734 L447.574,369.198 L437.422,369.198 L437.422,370.734" fill="#818181"/>
    <path d="M459.594,370.734 L459.594,369.198 L451.519,369.198 L451.519,383.834 L459.594,383.834 L459.594,382.297 L453.408,382.297 L453.408,377.191 L458.972,377.191 L458.972,375.738 L453.408,375.738 L453.408,370.734 L459.594,370.734" fill="#818181"/>
    <path d="M439.983,430.924 L430.981,430.924 L435.482,418.027 L439.983,430.924 z M441.497,402.979 L429.529,402.979 L412.304,449.223 L424.585,449.223 L427.697,440.385 L443.322,440.385 L446.372,449.223 L458.657,449.223 L441.497,402.979" fill="#818181"/>
    <path d="M406.597,406.596 L342.276,406.596 L367.073,381.8 L355.851,370.576 L311.896,414.532 L355.851,458.489 L367.073,447.266 L342.276,422.468 L406.597,422.468 L406.597,406.596" fill="#3F4962"/>
    <path d="M256.15,853.249 L261.901,853.249 C261.803,854.246 261.516,855.115 261.04,855.855 C260.562,856.595 259.949,857.16 259.202,857.547 C258.455,857.935 257.63,858.128 256.731,858.128 C255.679,858.128 254.749,857.896 253.939,857.432 C253.129,856.969 252.497,856.304 252.04,855.439 C251.583,854.575 251.354,853.547 251.354,852.357 C251.354,851.194 251.58,850.184 252.029,849.325 C252.479,848.467 253.098,847.807 253.887,847.343 C254.676,846.879 255.569,846.648 256.565,846.648 C257.672,846.648 258.631,846.917 259.44,847.457 C260.25,847.997 260.828,848.71 261.174,849.595 L263.167,849.595 C262.765,848.142 261.987,846.994 260.832,846.15 C259.675,845.305 258.247,844.882 256.544,844.882 C255.146,844.882 253.908,845.202 252.829,845.838 C251.749,846.474 250.908,847.357 250.306,848.485 C249.704,849.613 249.403,850.903 249.403,852.357 C249.403,853.81 249.704,855.101 250.306,856.229 C250.908,857.357 251.749,858.235 252.829,858.865 C253.908,859.495 255.153,859.81 256.565,859.81 C257.852,859.81 259.001,859.533 260.012,858.979 C261.022,858.426 261.824,857.678 262.42,856.737 C263.015,855.796 263.375,854.745 263.499,853.581 L263.499,851.838 L256.15,851.838 L256.15,853.249" fill="#818181"/>
    <path d="M268.731,854.807 L271.409,847.416 L274.088,854.807 L268.731,854.807 z M270.351,845.298 L264.933,859.664 L266.966,859.664 L268.192,856.281 L274.627,856.281 L275.852,859.664 L277.887,859.664 L272.489,845.298 L270.351,845.298" fill="#818181"/>
    <path d="M278.613,846.565 L282.745,846.565 L282.745,859.664 L284.634,859.664 L284.634,846.565 L288.765,846.565 L288.765,845.028 L278.613,845.028 L278.613,846.565" fill="#818181"/>
    <path d="M292.709,859.664 L300.785,859.664 L300.785,858.128 L294.598,858.128 L294.598,853.021 L300.162,853.021 L300.162,851.568 L294.598,851.568 L294.598,846.565 L300.785,846.565 L300.785,845.028 L292.709,845.028 L292.709,859.664" fill="#818181"/>
    <path d="M313.532,853.633 C313.129,853.073 312.642,852.655 312.067,852.378 C311.493,852.101 310.735,851.81 309.794,851.505 C309.02,851.256 308.411,851.032 307.967,850.831 C307.524,850.63 307.154,850.354 306.857,850 C306.559,849.647 306.41,849.188 306.41,848.62 C306.41,847.9 306.639,847.343 307.096,846.948 C307.552,846.555 308.162,846.357 308.923,846.357 C309.752,846.357 310.41,846.578 310.895,847.021 C311.379,847.464 311.676,847.976 311.788,848.558 L313.821,848.558 C313.684,847.478 313.192,846.589 312.348,845.89 C311.504,845.191 310.361,844.841 308.923,844.841 C307.995,844.841 307.188,845.001 306.504,845.319 C305.818,845.637 305.292,846.087 304.926,846.669 C304.559,847.249 304.376,847.921 304.376,848.682 C304.376,849.568 304.573,850.281 304.968,850.82 C305.362,851.36 305.839,851.765 306.4,852.035 C306.961,852.305 307.705,852.592 308.632,852.896 C309.42,853.145 310.043,853.378 310.5,853.592 C310.957,853.806 311.341,854.101 311.652,854.475 C311.963,854.848 312.119,855.333 312.119,855.928 C312.119,856.62 311.898,857.187 311.456,857.63 C311.013,858.073 310.376,858.294 309.545,858.294 C308.908,858.294 308.365,858.166 307.916,857.91 C307.466,857.654 307.12,857.329 306.878,856.934 C306.635,856.54 306.493,856.135 306.452,855.72 L304.438,855.72 C304.507,856.509 304.766,857.212 305.217,857.827 C305.666,858.443 306.268,858.927 307.023,859.28 C307.777,859.633 308.638,859.81 309.607,859.81 C310.604,859.81 311.441,859.623 312.119,859.249 C312.797,858.875 313.303,858.391 313.635,857.796 C313.967,857.201 314.133,856.557 314.133,855.865 C314.133,854.938 313.933,854.194 313.532,853.633" fill="#818181"/>
    <path d="M218.443,879.627 L154.123,879.627 L178.919,854.83 L167.697,843.607 L123.742,887.563 L167.697,931.518 L178.919,920.295 L154.123,895.498 L218.443,895.498 L218.443,879.627" fill="#3F4962"/>
    <path d="M273.722,894.295 C271.738,893.007 269.243,892.354 266.306,892.354 C264.336,892.354 262.506,892.693 260.867,893.361 C260,893.714 259.224,894.131 258.543,894.609 L258.543,887.513 L277.587,887.513 L277.587,878.597 L249.398,878.597 L249.398,904.169 L258.726,904.169 L258.973,903.616 C259.391,902.683 260.037,901.953 260.947,901.384 C261.851,900.818 262.985,900.531 264.317,900.531 C266.154,900.531 267.515,901.014 268.478,902.009 C269.449,903.013 269.921,904.419 269.921,906.306 C269.921,908.313 269.445,909.923 268.507,911.093 C267.605,912.216 266.234,912.763 264.317,912.763 C262.725,912.763 261.499,912.35 260.569,911.5 C259.617,910.63 259.024,909.473 258.755,907.961 L258.619,907.191 L249.072,907.191 L249.116,908.167 C249.236,910.825 249.956,913.19 251.254,915.197 C252.555,917.211 254.385,918.796 256.691,919.909 C258.967,921.007 261.667,921.564 264.715,921.564 C269.436,921.564 273.137,920.164 275.716,917.402 C278.278,914.659 279.577,910.983 279.577,906.476 C279.577,903.932 279.1,901.575 278.159,899.472 C277.198,897.324 275.705,895.582 273.722,894.295" fill="#818181"/>
    <path d="M311.98,894.295 C309.997,893.007 307.501,892.354 304.565,892.354 C302.595,892.354 300.765,892.693 299.125,893.361 C298.259,893.714 297.482,894.131 296.801,894.609 L296.801,887.513 L315.846,887.513 L315.846,878.597 L287.657,878.597 L287.657,904.169 L296.984,904.169 L297.231,903.616 C297.649,902.683 298.295,901.953 299.205,901.384 C300.11,900.818 301.243,900.531 302.575,900.531 C304.413,900.531 305.774,901.014 306.736,902.009 C307.708,903.013 308.18,904.419 308.18,906.306 C308.18,908.313 307.704,909.923 306.765,911.093 C305.864,912.216 304.493,912.763 302.575,912.763 C300.983,912.763 299.757,912.35 298.828,911.5 C297.875,910.63 297.282,909.473 297.014,907.961 L296.877,907.191 L287.33,907.191 L287.375,908.167 C287.495,910.825 288.214,913.19 289.512,915.197 C290.814,917.211 292.643,918.796 294.95,919.909 C297.226,921.007 299.925,921.564 302.974,921.564 C307.694,921.564 311.395,920.164 313.974,917.402 C316.536,914.659 317.835,910.983 317.835,906.476 C317.835,903.932 317.358,901.575 316.417,899.472 C315.456,897.324 313.963,895.582 311.98,894.295" fill="#818181"/>
    <path d="M323.016,895.935 L349.044,895.935 L349.044,904.453 L323.016,904.453 z" fill="#818181"/>
    <path d="M352.634,887.797 L370.724,887.797 L355.887,921.395 L366.236,921.395 L381.219,886.145 L381.219,879.051 L352.634,879.051 L352.634,887.797" fill="#818181"/>
    <path d="M409.027,893.117 C409.027,894.96 408.442,896.333 407.24,897.311 C405.979,898.336 404.526,898.834 402.798,898.834 C400.953,898.834 399.542,898.319 398.483,897.26 C397.424,896.201 396.909,894.697 396.909,892.662 C396.909,890.742 397.415,889.303 398.455,888.263 C399.496,887.223 400.879,886.717 402.684,886.717 C404.811,886.717 406.358,887.293 407.417,888.48 C408.5,889.698 409.027,891.215 409.027,893.117 z M415.301,883.728 C412.931,879.908 408.609,877.971 402.457,877.971 C399.315,877.971 396.589,878.604 394.354,879.851 C392.096,881.114 390.373,882.881 389.234,885.101 C388.109,887.289 387.539,889.795 387.539,892.548 C387.539,897.057 388.744,900.611 391.121,903.112 C393.51,905.625 396.808,906.898 400.921,906.898 C403.434,906.898 405.674,906.307 407.577,905.14 C408.394,904.639 409.103,904.061 409.7,903.409 C409.571,906.506 409.095,908.891 408.274,910.519 C407.262,912.526 405.657,913.501 403.366,913.501 C400.344,913.501 398.687,911.875 398.149,908.381 L398.027,907.589 L388.708,907.589 L388.792,908.601 C388.992,911 389.673,913.225 390.817,915.213 C391.979,917.23 393.649,918.849 395.78,920.027 C397.899,921.199 400.451,921.792 403.366,921.792 C408.885,921.792 412.895,919.765 415.281,915.767 C417.576,911.923 418.739,906.272 418.739,898.972 C418.739,892.534 417.583,887.406 415.301,883.728" fill="#818181"/>
    <path d="M158.648,704.666 L164.399,704.666 C164.302,705.662 164.014,706.53 163.538,707.27 C163.06,708.012 162.447,708.575 161.701,708.963 C160.953,709.35 160.128,709.544 159.229,709.544 C158.178,709.544 157.247,709.313 156.437,708.849 C155.627,708.384 154.995,707.721 154.538,706.856 C154.081,705.99 153.853,704.963 153.853,703.772 C153.853,702.61 154.078,701.599 154.527,700.742 C154.977,699.884 155.597,699.223 156.385,698.759 C157.175,698.295 158.067,698.063 159.064,698.063 C160.17,698.063 161.129,698.334 161.938,698.873 C162.748,699.413 163.326,700.126 163.672,701.011 L165.666,701.011 C165.264,699.558 164.485,698.409 163.33,697.565 C162.174,696.721 160.745,696.299 159.043,696.299 C157.644,696.299 156.406,696.617 155.327,697.253 C154.247,697.891 153.407,698.773 152.804,699.901 C152.202,701.029 151.901,702.32 151.901,703.772 C151.901,705.225 152.202,706.516 152.804,707.644 C153.407,708.773 154.247,709.651 155.327,710.281 C156.406,710.911 157.651,711.225 159.064,711.225 C160.35,711.225 161.499,710.949 162.51,710.395 C163.52,709.841 164.323,709.095 164.918,708.153 C165.513,707.212 165.873,706.16 165.998,704.997 L165.998,703.253 L158.648,703.253 L158.648,704.666" fill="#818181"/>
    <path d="M171.229,706.222 L173.907,698.831 L176.586,706.222 L171.229,706.222 z M172.849,696.714 L167.431,711.08 L169.465,711.08 L170.69,707.696 L177.126,707.696 L178.35,711.08 L180.385,711.08 L174.987,696.714 L172.849,696.714" fill="#818181"/>
    <path d="M181.111,697.98 L185.243,697.98 L185.243,711.08 L187.132,711.08 L187.132,697.98 L191.263,697.98 L191.263,696.444 L181.111,696.444 L181.111,697.98" fill="#818181"/>
    <path d="M195.207,711.08 L203.283,711.08 L203.283,709.544 L197.096,709.544 L197.096,704.437 L202.66,704.437 L202.66,702.983 L197.096,702.983 L197.096,697.98 L203.283,697.98 L203.283,696.444 L195.207,696.444 L195.207,711.08" fill="#818181"/>
    <path d="M216.03,705.049 C215.627,704.489 215.14,704.07 214.565,703.793 C213.991,703.517 213.233,703.226 212.292,702.921 C211.518,702.673 210.909,702.447 210.465,702.247 C210.022,702.046 209.652,701.769 209.355,701.416 C209.057,701.063 208.908,700.603 208.908,700.036 C208.908,699.317 209.137,698.759 209.594,698.365 C210.051,697.97 210.66,697.773 211.421,697.773 C212.25,697.773 212.908,697.995 213.393,698.437 C213.877,698.88 214.174,699.392 214.286,699.973 L216.32,699.973 C216.182,698.893 215.69,698.005 214.846,697.305 C214.002,696.607 212.86,696.257 211.421,696.257 C210.493,696.257 209.687,696.416 209.002,696.735 C208.316,697.054 207.791,697.503 207.424,698.084 C207.058,698.666 206.874,699.337 206.874,700.098 C206.874,700.984 207.071,701.696 207.466,702.236 C207.86,702.776 208.337,703.18 208.898,703.451 C209.459,703.721 210.203,704.008 211.13,704.312 C211.919,704.562 212.542,704.793 212.998,705.008 C213.455,705.223 213.839,705.516 214.151,705.89 C214.461,706.264 214.618,706.748 214.618,707.343 C214.618,708.035 214.396,708.603 213.954,709.045 C213.511,709.489 212.874,709.71 212.043,709.71 C211.406,709.71 210.863,709.582 210.414,709.326 C209.964,709.07 209.618,708.745 209.376,708.35 C209.133,707.956 208.991,707.551 208.95,707.135 L206.936,707.135 C207.005,707.925 207.265,708.627 207.715,709.243 C208.165,709.859 208.766,710.343 209.521,710.696 C210.275,711.049 211.137,711.225 212.105,711.225 C213.102,711.225 213.939,711.039 214.618,710.665 C215.296,710.291 215.801,709.807 216.134,709.211 C216.465,708.617 216.631,707.973 216.631,707.281 C216.631,706.354 216.431,705.61 216.03,705.049" fill="#818181"/>
    <path d="M394.75,694.089 L383.528,705.312 L408.325,730.109 L344.004,730.109 L344.004,745.98 L408.325,745.98 L383.528,770.777 L394.75,782 L438.707,738.044 L394.75,694.089" fill="#3F4962"/>
    <path d="M171.12,760.133 C173.715,757.712 175.885,755.021 177.572,752.132 C179.296,749.178 180.171,746.18 180.171,743.22 C180.171,739.412 178.957,736.307 176.561,733.992 C174.174,731.688 170.752,730.519 166.391,730.519 C162.111,730.519 158.513,731.836 155.695,734.432 C152.869,737.036 151.314,740.877 151.075,745.847 L151.028,746.825 L160.689,746.825 L160.729,745.933 C160.999,739.853 163.732,739.15 165.765,739.15 C167.306,739.15 168.383,739.542 169.056,740.35 C169.761,741.196 170.119,742.411 170.119,743.959 C170.119,749.482 163.77,756.684 151.249,765.362 L150.847,765.641 L150.847,773.033 L180.967,773.033 L180.967,764.627 L165.596,764.627 C167.504,763.285 169.354,761.781 171.12,760.133" fill="#818181"/>
    <path d="M186.148,740.742 L192.175,740.742 L192.175,773.374 L202.456,773.374 L202.456,731.372 L186.148,731.372 L186.148,740.742" fill="#818181"/>
    <path d="M208.66,747.914 L234.688,747.914 L234.688,756.433 L208.66,756.433 z" fill="#818181"/>
    <path d="M266.75,746.274 C264.767,744.985 262.271,744.333 259.335,744.333 C257.365,744.333 255.535,744.672 253.895,745.34 C253.029,745.693 252.253,746.11 251.572,746.588 L251.572,739.492 L270.616,739.492 L270.616,730.576 L242.427,730.576 L242.427,756.148 L251.754,756.148 L252.001,755.596 C252.419,754.662 253.065,753.932 253.975,753.363 C254.881,752.797 256.015,752.51 257.346,752.51 C259.183,752.51 260.544,752.993 261.507,753.988 C262.478,754.992 262.95,756.397 262.95,758.285 C262.95,760.292 262.474,761.902 261.535,763.072 C260.634,764.195 259.263,764.741 257.346,764.741 C255.753,764.741 254.527,764.328 253.598,763.478 C252.646,762.61 252.053,761.453 251.784,759.94 L251.648,759.17 L242.1,759.17 L242.145,760.145 C242.265,762.803 242.984,765.169 244.282,767.177 C245.583,769.19 247.413,770.774 249.72,771.887 C251.997,772.987 254.697,773.544 257.744,773.544 C262.463,773.544 266.164,772.144 268.744,769.382 C271.306,766.639 272.605,762.963 272.605,758.455 C272.605,755.91 272.128,753.554 271.188,751.451 C270.227,749.304 268.734,747.563 266.75,746.274" fill="#818181"/>
    <path d="M288.832,756.499 L298.195,744.028 L298.195,756.499 L288.832,756.499 z M307.509,756.499 L307.509,730.917 L297.522,730.917 L277.844,757.407 L277.844,765.301 L297.57,765.301 L297.57,773.374 L307.509,773.374 L307.509,765.301 L312.74,765.301 L312.74,756.499 L307.509,756.499" fill="#818181"/>
    <path d="M200.404,618.384 L150.486,568.466 L185.555,568.466 L185.555,552.595 L123.393,552.595 L123.393,614.757 L139.264,614.757 L139.264,579.689 L189.182,629.607 L200.404,618.384" fill="#3F4962"/>
    <path d="M228.107,589.186 L234.134,589.186 L234.134,621.817 L244.415,621.817 L244.415,579.815 L228.107,579.815 L228.107,589.186" fill="#818181"/>
    <path d="M253.915,596.358 L279.942,596.358 L279.942,604.876 L253.915,604.876 z" fill="#818181"/>
    <path d="M309.433,608.577 C312.03,606.153 314.2,603.462 315.884,600.576 C317.609,597.622 318.484,594.623 318.484,591.664 C318.484,587.855 317.27,584.751 314.874,582.436 C312.486,580.131 309.065,578.962 304.704,578.962 C300.425,578.962 296.826,580.279 294.008,582.876 C291.182,585.48 289.627,589.321 289.388,594.291 L289.341,595.269 L299.002,595.269 L299.042,594.377 C299.312,588.297 302.045,587.594 304.078,587.594 C305.62,587.594 306.696,587.987 307.369,588.792 C308.074,589.639 308.432,590.855 308.432,592.403 C308.432,597.925 302.083,605.127 289.562,613.805 L289.16,614.084 L289.16,621.476 L319.28,621.476 L319.28,613.072 L303.908,613.072 C305.816,611.729 307.666,610.225 309.433,608.577" fill="#818181"/>
    <path d="M336.507,591.395 C337.353,589.526 339.018,588.617 341.597,588.617 C344.137,588.617 345.783,589.526 346.63,591.395 C347.575,593.482 348.054,596.537 348.054,600.475 C348.054,604.451 347.575,607.525 346.63,609.612 C345.783,611.481 344.137,612.389 341.597,612.389 C339.018,612.389 337.353,611.481 336.507,609.612 C335.563,607.528 335.084,604.454 335.084,600.475 C335.084,596.534 335.563,593.479 336.507,591.395 z M354.088,585.068 C351.528,581.167 347.326,579.189 341.597,579.189 C330.793,579.189 325.315,586.351 325.315,600.475 C325.315,614.636 330.793,621.817 341.597,621.817 C347.326,621.817 351.529,619.838 354.088,615.938 C356.566,612.162 357.823,606.959 357.823,600.475 C357.823,594.029 356.566,588.845 354.088,585.068" fill="#818181"/>
    <path d="M238.537,557.227 L244.288,557.227 C244.19,558.224 243.903,559.092 243.427,559.833 C242.949,560.573 242.336,561.137 241.589,561.525 C240.842,561.912 240.018,562.107 239.119,562.107 C238.066,562.107 237.136,561.875 236.326,561.41 C235.517,560.947 234.884,560.283 234.427,559.417 C233.97,558.553 233.741,557.525 233.741,556.334 C233.741,555.172 233.967,554.162 234.416,553.303 C234.866,552.446 235.485,551.785 236.274,551.321 C237.063,550.858 237.956,550.625 238.953,550.625 C240.06,550.625 241.018,550.896 241.828,551.436 C242.637,551.976 243.215,552.688 243.562,553.573 L245.555,553.573 C245.152,552.12 244.374,550.972 243.219,550.127 C242.063,549.283 240.634,548.861 238.932,548.861 C237.533,548.861 236.295,549.179 235.216,549.816 C234.136,550.453 233.295,551.336 232.693,552.462 C232.091,553.591 231.791,554.882 231.791,556.334 C231.791,557.788 232.091,559.079 232.693,560.206 C233.295,561.335 234.136,562.213 235.216,562.843 C236.295,563.473 237.541,563.788 238.953,563.788 C240.239,563.788 241.388,563.511 242.399,562.957 C243.409,562.404 244.211,561.656 244.807,560.715 C245.402,559.774 245.762,558.722 245.886,557.559 L245.886,555.816 L238.537,555.816 L238.537,557.227" fill="#818181"/>
    <path d="M251.119,558.784 L253.796,551.394 L256.475,558.784 L251.119,558.784 z M252.738,549.276 L247.32,563.642 L249.354,563.642 L250.579,560.258 L257.015,560.258 L258.239,563.642 L260.274,563.642 L254.876,549.276 L252.738,549.276" fill="#818181"/>
    <path d="M261,550.542 L265.132,550.542 L265.132,563.642 L267.021,563.642 L267.021,550.542 L271.152,550.542 L271.152,549.006 L261,549.006 L261,550.542" fill="#818181"/>
    <path d="M275.096,563.642 L283.172,563.642 L283.172,562.107 L276.985,562.107 L276.985,556.999 L282.549,556.999 L282.549,555.546 L276.985,555.546 L276.985,550.542 L283.172,550.542 L283.172,549.006 L275.096,549.006 L275.096,563.642" fill="#818181"/>
    <path d="M295.919,557.612 C295.517,557.051 295.029,556.633 294.455,556.355 C293.88,556.078 293.123,555.788 292.182,555.484 C291.407,555.234 290.798,555.01 290.354,554.809 C289.912,554.609 289.542,554.331 289.244,553.978 C288.946,553.626 288.797,553.165 288.797,552.597 C288.797,551.879 289.026,551.321 289.483,550.927 C289.94,550.532 290.549,550.334 291.31,550.334 C292.14,550.334 292.797,550.557 293.282,550.999 C293.766,551.442 294.063,551.954 294.175,552.535 L296.208,552.535 C296.071,551.456 295.58,550.567 294.735,549.868 C293.891,549.169 292.749,548.819 291.31,548.819 C290.382,548.819 289.576,548.979 288.891,549.297 C288.206,549.616 287.68,550.065 287.313,550.646 C286.946,551.228 286.763,551.899 286.763,552.66 C286.763,553.545 286.96,554.258 287.355,554.798 C287.749,555.338 288.227,555.743 288.787,556.013 C289.348,556.282 290.092,556.571 291.019,556.874 C291.808,557.123 292.431,557.356 292.887,557.57 C293.344,557.785 293.728,558.079 294.04,558.452 C294.351,558.826 294.506,559.31 294.506,559.906 C294.506,560.598 294.285,561.166 293.843,561.608 C293.4,562.051 292.763,562.272 291.933,562.272 C291.295,562.272 290.752,562.145 290.303,561.888 C289.853,561.632 289.507,561.307 289.265,560.912 C289.022,560.518 288.88,560.114 288.839,559.698 L286.825,559.698 C286.895,560.487 287.153,561.189 287.604,561.806 C288.053,562.421 288.655,562.905 289.41,563.258 C290.164,563.611 291.025,563.788 291.995,563.788 C292.991,563.788 293.828,563.601 294.506,563.227 C295.185,562.853 295.69,562.369 296.022,561.774 C296.354,561.178 296.521,560.535 296.521,559.844 C296.521,558.916 296.32,558.172 295.919,557.612" fill="#818181"/>
    <path d="M897.112,762.897 L948.264,762.897 L948.264,772.233 L897.112,772.233 z" fill="#FFD047"/>
    <path d="M963.669,706.336 C963.256,706.531 962.925,706.867 962.682,707.253 L957.876,714.873 C955.891,718.021 952.796,720.291 949.223,721.253 C949.126,721.278 949.031,721.302 948.935,721.326 C948.935,721.326 940.077,723.588 929.736,726.228 L929.597,726.077 L935.603,708.852 C935.951,707.852 934.976,706.9 933.985,707.273 L929.925,708.799 C929.547,708.941 929.22,709.193 928.987,709.523 L914.44,730.104 L914.374,730.15 C911.48,730.889 908.764,731.583 906.399,732.186 C899.964,733.829 894.442,735.563 889.595,740.411 C886.412,743.593 882.739,751.331 882.737,751.337 C882.593,752.065 882.547,752.8 882.684,753.537 C883.261,756.65 886.607,757.853 890.49,756.212 L958.107,728.661 L962.984,726.6 C964.916,725.784 966.205,723.928 966.295,721.832 L966.872,708.456 C966.944,706.779 965.208,705.608 963.669,706.336" fill="#FFFFFF"/>
    <path d="M944.625,748.333 L945.429,747.514 C945.836,747.1 945.755,746.416 945.264,746.108 L936.86,740.833 L925.134,745.642 L940.387,749.589 C941.922,749.93 943.524,749.455 944.625,748.333" fill="#FFFFFF"/>
    <path d="M583.119,429.148 L645.996,429.148 L645.996,438.484 L583.119,438.484 z" fill="#818181"/>
    <path d="M656.604,370.425 C656.082,369.665 655.403,369.066 654.645,368.56 C654.639,368.555 644.72,365.023 639.187,365.023 C630.76,365.023 624.454,368.315 617.432,372.48 C614.852,374.011 611.888,375.769 608.731,377.642 L608.633,377.66 L578.1,372.415 C577.61,372.33 577.106,372.395 576.654,372.6 L571.799,374.803 C570.614,375.34 570.594,377.016 571.766,377.582 L591.958,387.334 C592.061,387.383 592.066,387.528 591.968,387.586 C580.685,394.279 571.021,400.012 571.021,400.012 C570.916,400.075 570.812,400.138 570.706,400.199 C566.764,402.469 562.101,403.186 557.639,402.176 L546.838,399.729 C546.291,399.605 545.711,399.602 545.184,399.791 C543.212,400.496 542.721,403.022 544.242,404.417 L556.371,415.542 C558.27,417.285 561.004,417.778 563.393,416.808 L569.423,414.361 L652.145,379.535 C656.945,377.587 658.808,373.633 656.604,370.425" fill="#3F4962"/>
    <path d="M612.844,400.46 L598.471,406.472 L595.751,418.362 C595.592,419.058 596.116,419.722 596.83,419.729 L598.241,419.742 C600.173,419.759 601.978,418.779 603.016,417.149 L612.844,400.46" fill="#3F4962"/>
    <path d="M1001.15,346.584 L1001.15,364.322 L1065.17,364.322 L980.32,449.176 L992.863,461.72 L1077.72,376.865 L1077.72,440.893 L1095.46,440.893 L1095.46,346.584 L1001.15,346.584" fill="#3F4962"/>
    <path d="M706.68,425.676 C706.68,428.794 704.152,431.322 701.034,431.322 C697.916,431.322 695.388,428.794 695.388,425.676 C695.388,422.558 697.916,420.031 701.034,420.031 C704.152,420.031 706.68,422.558 706.68,425.676" fill="#3F4962"/>
    <path d="M694.679,433.703 L707.389,433.703 C710.207,433.703 712.04,437.531 710.779,440.784 L703.61,459.291 C702.637,461.802 699.431,461.802 698.458,459.291 L691.288,440.784 C690.028,437.531 691.861,433.703 694.679,433.703" fill="#3F4962"/>
    <path d="M734.019,425.676 C734.019,428.794 731.491,431.322 728.373,431.322 C725.255,431.322 722.728,428.794 722.728,425.676 C722.728,422.558 725.255,420.031 728.373,420.031 C731.491,420.031 734.019,422.558 734.019,425.676" fill="#3F4962"/>
    <path d="M736.353,461.174 L720.394,461.174 C717.576,461.174 715.743,457.676 717.003,454.703 L725.556,435.133 C725.948,434.025 726.982,433.287 728.142,433.287 L728.732,433.287 C729.897,433.287 730.936,434.033 731.324,435.148 L739.744,454.703 C741.004,457.676 739.171,461.174 736.353,461.174" fill="#3F4962"/>
    <path d="M781.624,463.319 C779.056,464.419 776.214,464.451 773.622,463.414 C771.029,462.375 768.996,460.39 767.896,457.822 C766.796,455.255 766.763,452.413 767.801,449.82 C768.685,447.614 770.237,445.824 772.292,444.644 L770.896,442.216 C768.291,443.713 766.322,445.982 765.201,448.779 C763.885,452.066 763.927,455.669 765.321,458.925 C766.715,462.18 769.293,464.698 772.581,466.014 C774.175,466.652 775.844,466.971 777.51,466.971 C779.281,466.971 781.049,466.612 782.726,465.894 C785.982,464.5 788.499,461.922 789.815,458.635 L787.215,457.593 C786.177,460.186 784.191,462.219 781.624,463.319" fill="#3F4962"/>
    <path d="M799.657,458.661 L794.608,446.966 C794.161,445.928 793.414,445.083 792.497,444.503 L797.945,444.503 L797.945,441.702 L787.25,441.702 L784.247,434.729 C783.859,433.613 782.821,432.867 781.656,432.867 L781.065,432.867 C779.906,432.867 778.872,433.605 778.479,434.713 L775.079,442.494 C772.768,447.781 776.642,453.702 782.412,453.702 L790.675,453.702 L794.588,461.193 C795.227,462.391 796.655,463.005 798.034,462.533 C799.592,462 800.294,460.18 799.657,458.661" fill="#3F4962"/>
    <path d="M781.297,431.525 C784.415,431.525 786.942,428.997 786.942,425.879 C786.942,422.761 784.415,420.233 781.297,420.233 C778.179,420.233 775.651,422.761 775.651,425.879 C775.651,428.997 778.179,431.525 781.297,431.525" fill="#3F4962"/>
    <path d="M706.232,386.581 C704.262,388.529 701.284,389.517 697.383,389.517 L692.211,389.517 L692.211,367.08 L697.383,367.08 C701.26,367.08 704.23,368.067 706.214,370.016 C708.196,371.962 709.201,374.748 709.201,378.298 C709.201,381.849 708.202,384.635 706.232,386.581 z M697.457,364.577 L689.52,364.577 L689.52,392.057 L697.457,392.057 C702.077,392.057 705.682,390.834 708.172,388.423 C710.665,386.005 711.93,382.599 711.93,378.298 C711.93,374.022 710.665,370.629 708.172,368.211 C705.683,365.8 702.078,364.577 697.457,364.577" fill="#818181"/>
    <path d="M719.652,376.338 C720.36,375.15 721.297,374.254 722.435,373.673 C724.69,372.52 727.675,372.484 730.022,373.656 C731.152,374.221 732.066,375.113 732.74,376.309 C733.354,377.4 733.651,378.746 733.63,380.314 L718.556,380.314 C718.637,378.754 719.005,377.419 719.652,376.338 z M733.433,384.488 C733.151,386.175 732.38,387.465 731.073,388.431 L731.073,388.432 C729.767,389.4 728.124,389.892 726.189,389.892 C724.819,389.892 723.55,389.601 722.415,389.025 C721.29,388.458 720.361,387.562 719.652,386.362 C719.004,385.27 718.636,383.915 718.555,382.329 L735.997,382.329 L736.07,381.917 C736.2,381.19 736.266,380.49 736.266,379.838 C736.266,378.209 735.873,376.657 735.098,375.224 C734.319,373.785 733.156,372.607 731.643,371.726 C730.133,370.846 728.323,370.399 726.264,370.399 C724.258,370.399 722.45,370.844 720.892,371.722 C719.325,372.603 718.078,373.889 717.185,375.544 C716.298,377.188 715.848,379.139 715.848,381.341 C715.848,383.568 716.298,385.53 717.185,387.174 C718.079,388.83 719.326,390.116 720.892,390.997 C722.45,391.875 724.258,392.319 726.264,392.319 C728.947,392.319 731.193,391.613 732.942,390.22 C734.699,388.819 735.79,386.947 736.185,384.655 L736.285,384.07 L733.502,384.07 L733.433,384.488" fill="#818181"/>
    <path d="M755.93,387.569 C754.499,389.082 752.621,389.817 750.189,389.817 C748.682,389.817 747.313,389.467 746.121,388.776 C744.933,388.089 743.985,387.094 743.307,385.818 C742.624,384.536 742.277,383.029 742.277,381.341 C742.277,379.652 742.623,378.152 743.306,376.882 C743.984,375.619 744.932,374.631 746.121,373.942 L746.122,373.942 C747.315,373.252 748.684,372.901 750.189,372.901 C752.621,372.901 754.499,373.637 755.93,375.148 C757.346,376.646 758.064,378.73 758.064,381.341 C758.064,383.977 757.347,386.072 755.93,387.569 z M755.828,371.724 C754.295,370.845 752.511,370.399 750.527,370.399 C748.224,370.399 746.233,371.021 744.61,372.247 C743.654,372.97 742.875,373.835 742.277,374.832 L742.277,370.662 L739.623,370.662 L739.623,401.672 L742.277,401.672 L742.277,387.886 C742.875,388.883 743.654,389.748 744.61,390.473 C746.233,391.698 748.224,392.319 750.527,392.319 C752.511,392.319 754.295,391.874 755.828,390.995 C757.37,390.112 758.592,388.818 759.459,387.148 C760.319,385.493 760.756,383.539 760.756,381.341 C760.756,379.143 760.319,377.193 759.459,375.549 C758.591,373.894 757.37,372.605 755.828,371.724" fill="#818181"/>
    <path d="M780.602,385.821 C779.935,387.097 778.994,388.091 777.809,388.776 C776.614,389.467 775.245,389.817 773.738,389.817 C771.315,389.817 769.379,389.062 767.981,387.571 C766.576,386.072 765.863,383.976 765.863,381.341 C765.863,378.732 766.581,376.649 767.998,375.148 C769.409,373.657 771.34,372.901 773.738,372.901 C775.243,372.901 776.613,373.252 777.809,373.942 C778.995,374.629 779.936,375.617 780.603,376.879 C781.274,378.153 781.615,379.654 781.615,381.341 C781.615,383.027 781.274,384.535 780.602,385.821 z M781.615,374.83 C781.021,373.834 780.248,372.971 779.302,372.248 L779.301,372.248 C777.689,371.021 775.692,370.399 773.363,370.399 C771.381,370.399 769.598,370.845 768.064,371.724 C766.521,372.607 765.299,373.895 764.432,375.55 C763.571,377.193 763.135,379.143 763.135,381.341 C763.135,383.539 763.571,385.493 764.432,387.148 C765.299,388.817 766.521,390.111 768.064,390.995 C769.598,391.874 771.381,392.319 773.363,392.319 C775.692,392.319 777.689,391.697 779.302,390.471 C780.248,389.748 781.021,388.884 781.615,387.889 L781.615,392.057 L784.305,392.057 L784.305,370.662 L781.615,370.662 L781.615,374.83" fill="#818181"/>
    <path d="M794.805,371.584 C793.999,372.094 793.326,372.739 792.793,373.515 L792.793,370.662 L790.102,370.662 L790.102,392.057 L792.793,392.057 L792.793,379.913 C792.793,377.503 793.439,375.75 794.714,374.702 C796.017,373.632 797.653,373.089 799.578,373.089 L800.643,373.089 L800.643,370.249 L800.143,370.249 C798.002,370.249 796.206,370.698 794.805,371.584" fill="#818181"/>
    <path d="M809.994,365.479 L807.305,365.479 L807.305,370.662 L804.074,370.662 L804.074,373.202 L807.305,373.202 L807.305,385.81 C807.305,388.045 807.775,389.609 808.744,390.594 C809.703,391.564 811.206,392.057 813.213,392.057 L816.041,392.057 L816.041,389.517 L813.4,389.517 C812.094,389.517 811.19,389.271 810.717,388.784 C810.244,388.302 809.994,387.273 809.994,385.81 L809.994,373.202 L816.041,373.202 L816.041,370.662 L809.994,370.662 L809.994,365.479" fill="#818181"/>
    <path d="M836.225,381.979 C836.225,384.64 835.6,386.668 834.367,388.006 C833.127,389.351 831.502,390.005 829.4,390.005 C827.396,390.005 825.868,389.423 824.729,388.226 C823.6,387.039 823.027,385.278 823.027,382.993 L823.027,370.662 L820.375,370.662 L820.375,383.03 C820.375,386.11 821.183,388.479 822.775,390.069 C824.367,391.662 826.444,392.47 828.949,392.47 C830.896,392.47 832.641,391.947 834.136,390.916 C834.983,390.331 835.682,389.589 836.225,388.697 L836.225,392.057 L838.951,392.057 L838.951,370.662 L836.225,370.662 L836.225,381.979" fill="#818181"/>
    <path d="M848.701,371.584 C847.896,372.094 847.223,372.739 846.689,373.515 L846.689,370.662 L843.998,370.662 L843.998,392.057 L846.689,392.057 L846.689,379.913 C846.689,377.503 847.336,375.75 848.61,374.702 C849.913,373.632 851.55,373.089 853.475,373.089 L854.539,373.089 L854.539,370.249 L854.039,370.249 C851.898,370.249 850.103,370.698 848.701,371.584" fill="#818181"/>
    <path d="M860.87,376.339 C861.581,375.15 862.518,374.253 863.655,373.673 C865.911,372.52 868.897,372.484 871.241,373.656 C872.371,374.221 873.285,375.113 873.959,376.309 C874.573,377.399 874.872,378.745 874.851,380.314 L859.774,380.314 C859.857,378.754 860.225,377.418 860.87,376.339 z M874.653,384.488 C874.372,386.175 873.601,387.465 872.294,388.431 L872.294,388.432 C870.987,389.4 869.344,389.892 867.408,389.892 C866.04,389.892 864.771,389.601 863.634,389.025 C862.512,388.459 861.582,387.563 860.872,386.362 C860.225,385.27 859.856,383.915 859.774,382.329 L877.218,382.329 L877.291,381.917 C877.421,381.19 877.486,380.49 877.486,379.838 C877.486,378.209 877.094,376.657 876.318,375.224 C875.537,373.783 874.374,372.605 872.863,371.725 C871.352,370.846 869.542,370.399 867.484,370.399 C865.476,370.399 863.669,370.845 862.112,371.722 C860.543,372.604 859.296,373.891 858.405,375.544 C857.519,377.188 857.068,379.139 857.068,381.341 C857.068,383.568 857.519,385.53 858.405,387.174 C859.297,388.828 860.544,390.114 862.112,390.997 C863.669,391.874 865.476,392.319 867.484,392.319 C870.166,392.319 872.412,391.613 874.161,390.22 C875.917,388.821 877.008,386.949 877.403,384.655 L877.504,384.07 L874.723,384.07 L874.653,384.488" fill="#818181"/>
    <path d="M896.489,383.011 C895.811,382.197 894.972,381.593 893.995,381.213 C893.075,380.855 891.851,380.507 890.365,380.179 C889.057,379.858 888.03,379.566 887.314,379.311 C886.653,379.075 886.089,378.708 885.635,378.219 C885.206,377.761 884.998,377.147 884.998,376.345 C884.998,375.236 885.366,374.376 886.123,373.717 C886.889,373.052 887.984,372.714 889.381,372.714 C890.968,372.714 892.236,373.154 893.149,374.021 C894.083,374.909 894.604,375.994 894.743,377.336 L894.789,377.784 L897.423,377.784 L897.352,377.222 C897.087,375.13 896.248,373.451 894.857,372.231 L894.856,372.23 C893.466,371.016 891.624,370.399 889.381,370.399 C887.292,370.399 885.591,370.938 884.326,372 C883.038,373.084 882.385,374.546 882.385,376.345 C882.385,377.691 882.735,378.78 883.426,379.582 C884.089,380.354 884.9,380.932 885.838,381.299 C886.724,381.645 887.928,381.999 889.419,382.354 C890.696,382.648 891.733,382.934 892.503,383.202 C893.216,383.451 893.793,383.83 894.268,384.358 C894.712,384.856 894.928,385.516 894.928,386.373 C894.928,387.467 894.58,388.324 893.864,388.995 C893.151,389.665 892.123,390.005 890.809,390.005 C889.014,390.005 887.588,389.56 886.573,388.681 C885.548,387.794 884.983,386.716 884.847,385.384 L884.801,384.935 L882.084,384.935 L882.163,385.504 C882.456,387.604 883.383,389.287 884.92,390.502 C886.443,391.708 888.411,392.319 890.771,392.319 C892.764,392.319 894.403,391.772 895.645,390.694 C896.904,389.598 897.543,388.156 897.543,386.411 C897.543,384.995 897.188,383.851 896.489,383.011" fill="#818181"/>
    <path d="M927.289,560.901 L922.621,560.901 L922.621,556.447 L905.508,556.447 L905.508,560.901 L900.84,560.901 L900.84,551.779 L927.289,551.779 L927.289,560.901" fill="#FFFFFF"/>
    <path d="M882.625,618.273 L945.503,618.273 L945.503,627.609 L882.625,627.609 z" fill="#FFD047"/>
    <path d="M927.518,565.597 L932.186,565.597 L932.186,610.739 L927.518,610.739 z M896.969,565.597 L901.637,565.597 L901.637,610.739 L896.969,610.739 z M938.576,565.597 L889.553,565.597 C885.33,565.597 881.907,569.02 881.907,573.242 L881.907,603.094 C881.907,607.317 885.33,610.74 889.553,610.74 L938.576,610.74 C942.798,610.74 946.221,607.317 946.221,603.094 L946.221,573.242 C946.221,569.02 942.798,565.597 938.576,565.597" fill="#FFFFFF"/>
    <path d="M976.961,593.971 C976.314,594.513 975.4,594.783 974.219,594.783 L970.429,594.783 L970.429,588.583 L974.17,588.583 C975.351,588.583 976.273,588.857 976.938,589.407 C977.602,589.957 977.934,590.715 977.934,591.683 C977.934,592.667 977.61,593.43 976.961,593.971 z M970.429,581.151 L974.071,581.151 C975.252,581.151 976.13,581.406 976.705,581.914 C977.278,582.423 977.565,583.12 977.565,584.006 C977.565,584.925 977.273,585.638 976.692,586.147 C976.109,586.655 975.268,586.909 974.17,586.909 L970.429,586.909 L970.429,581.151 z M976.655,587.672 C977.59,587.475 978.356,587.032 978.956,586.344 C979.555,585.654 979.854,584.753 979.854,583.637 C979.854,582.292 979.402,581.233 978.5,580.462 C977.598,579.692 976.277,579.306 974.538,579.306 L968.19,579.306 L968.19,596.653 L974.637,596.653 C976.458,596.653 977.848,596.227 978.808,595.374 C979.768,594.521 980.248,593.389 980.248,591.978 C980.248,590.912 979.916,589.985 979.25,589.197 C978.586,588.411 977.72,587.902 976.655,587.672" fill="#FFFFFF"/>
    <path d="M994.223,592.507 C993.829,593.254 993.284,593.832 992.586,594.242 C991.89,594.652 991.099,594.857 990.212,594.857 C988.834,594.857 987.731,594.419 986.903,593.541 C986.074,592.664 985.66,591.454 985.66,589.911 C985.66,588.369 986.074,587.16 986.903,586.282 C987.731,585.405 988.834,584.965 990.212,584.965 C991.099,584.965 991.89,585.167 992.586,585.569 C993.284,585.971 993.829,586.549 994.223,587.303 C994.617,588.058 994.814,588.927 994.814,589.911 C994.814,590.896 994.617,591.761 994.223,592.507 z M994.814,586.59 C994.453,585.49 993.817,584.613 992.907,583.957 C991.996,583.3 990.885,582.972 989.572,582.972 C988.375,582.972 987.309,583.251 986.374,583.809 C985.439,584.367 984.704,585.171 984.171,586.221 C983.638,587.27 983.372,588.501 983.372,589.911 C983.372,591.323 983.638,592.549 984.171,593.59 C984.704,594.632 985.439,595.432 986.374,595.989 C987.309,596.547 988.375,596.826 989.572,596.826 C990.885,596.826 991.996,596.497 992.907,595.841 C993.817,595.185 994.453,594.307 994.814,593.209 L994.814,596.653 L997.053,596.653 L997.053,583.144 L994.814,583.144 L994.814,586.59" fill="#FFFFFF"/>
    <path d="M1012.28,592.507 C1011.89,593.254 1011.34,593.832 1010.65,594.242 C1009.95,594.652 1009.16,594.857 1008.27,594.857 C1006.9,594.857 1005.79,594.419 1004.96,593.541 C1004.13,592.664 1003.72,591.454 1003.72,589.911 C1003.72,588.369 1004.13,587.16 1004.96,586.282 C1005.79,585.405 1006.9,584.965 1008.27,584.965 C1009.16,584.965 1009.95,585.167 1010.65,585.569 C1011.34,585.971 1011.89,586.549 1012.28,587.303 C1012.68,588.058 1012.87,588.927 1012.87,589.911 C1012.87,590.896 1012.68,591.761 1012.28,592.507 z M1012.87,586.59 C1012.51,585.49 1011.88,584.613 1010.97,583.957 C1010.06,583.3 1008.95,582.972 1007.63,582.972 C1006.44,582.972 1005.37,583.251 1004.43,583.809 C1003.5,584.367 1002.77,585.171 1002.23,586.221 C1001.7,587.27 1001.43,588.501 1001.43,589.911 C1001.43,591.323 1001.7,592.549 1002.23,593.59 C1002.77,594.632 1003.5,595.432 1004.43,595.989 C1005.37,596.547 1006.44,596.826 1007.63,596.826 C1008.95,596.826 1010.06,596.497 1010.97,595.841 C1011.88,595.185 1012.51,594.307 1012.87,593.209 L1012.87,596.875 C1012.87,598.269 1012.48,599.356 1011.68,600.135 C1010.88,600.914 1009.88,601.304 1008.67,601.304 C1007.52,601.304 1006.58,601.045 1005.85,600.529 C1005.12,600.012 1004.62,599.303 1004.36,598.4 L1002.15,598.4 C1002.46,599.893 1003.19,601.078 1004.34,601.956 C1005.48,602.833 1006.97,603.272 1008.79,603.272 C1010.05,603.272 1011.16,603.002 1012.11,602.46 C1013.06,601.919 1013.8,601.164 1014.33,600.196 C1014.85,599.229 1015.11,598.121 1015.11,596.875 L1015.11,583.144 L1012.87,583.144 L1012.87,586.59" fill="#FFFFFF"/>
    <path d="M1031.49,585.482 C1032.14,585.122 1032.85,584.94 1033.64,584.94 C1034.72,584.94 1035.63,585.216 1036.36,585.765 C1037.09,586.314 1037.54,587.074 1037.7,588.041 L1040.06,588.041 C1039.8,586.5 1039.1,585.269 1037.97,584.351 C1036.84,583.432 1035.41,582.972 1033.69,582.972 C1032.4,582.972 1031.25,583.251 1030.25,583.809 C1029.25,584.367 1028.46,585.171 1027.9,586.221 C1027.33,587.27 1027.05,588.501 1027.05,589.911 C1027.05,591.323 1027.33,592.549 1027.9,593.59 C1028.46,594.632 1029.25,595.432 1030.25,595.989 C1031.25,596.547 1032.4,596.826 1033.69,596.826 C1035.41,596.826 1036.84,596.371 1037.97,595.46 C1039.1,594.549 1039.8,593.316 1040.06,591.756 L1037.7,591.756 C1037.54,592.725 1037.09,593.488 1036.36,594.045 C1035.63,594.603 1034.72,594.882 1033.64,594.882 C1032.85,594.882 1032.14,594.701 1031.49,594.34 C1030.84,593.979 1030.32,593.426 1029.93,592.679 C1029.53,591.933 1029.34,591.011 1029.34,589.911 C1029.34,588.813 1029.53,587.89 1029.93,587.143 C1030.32,586.396 1030.84,585.843 1031.49,585.482" fill="#FFFFFF"/>
    <path d="M1042.5,578.445 L1044.74,578.445 L1044.74,596.653 L1042.5,596.653 z" fill="#FFFFFF"/>
    <path d="M1059.5,592.507 C1059.11,593.254 1058.56,593.832 1057.87,594.242 C1057.17,594.652 1056.38,594.857 1055.49,594.857 C1054.11,594.857 1053.01,594.419 1052.18,593.541 C1051.35,592.664 1050.94,591.454 1050.94,589.911 C1050.94,588.369 1051.35,587.16 1052.18,586.282 C1053.01,585.405 1054.11,584.965 1055.49,584.965 C1056.38,584.965 1057.17,585.167 1057.87,585.569 C1058.56,585.971 1059.11,586.549 1059.5,587.303 C1059.9,588.058 1060.09,588.927 1060.09,589.911 C1060.09,590.896 1059.9,591.761 1059.5,592.507 z M1060.09,586.59 C1059.73,585.49 1059.1,584.613 1058.19,583.957 C1057.28,583.3 1056.16,582.972 1054.85,582.972 C1053.65,582.972 1052.59,583.251 1051.65,583.809 C1050.72,584.367 1049.98,585.171 1049.45,586.221 C1048.92,587.27 1048.65,588.501 1048.65,589.911 C1048.65,591.323 1048.92,592.549 1049.45,593.59 C1049.98,594.632 1050.72,595.432 1051.65,595.989 C1052.59,596.547 1053.65,596.826 1054.85,596.826 C1056.16,596.826 1057.28,596.497 1058.19,595.841 C1059.1,595.185 1059.73,594.307 1060.09,593.209 L1060.09,596.653 L1062.33,596.653 L1062.33,583.144 L1060.09,583.144 L1060.09,586.59" fill="#FFFFFF"/>
    <path d="M1068.02,577.805 C1067.56,577.805 1067.19,577.932 1066.91,578.187 C1066.63,578.441 1066.49,578.773 1066.49,579.183 C1066.49,579.593 1066.63,579.925 1066.91,580.18 C1067.19,580.434 1067.56,580.561 1068.02,580.561 C1068.48,580.561 1068.84,580.434 1069.12,580.18 C1069.4,579.925 1069.54,579.593 1069.54,579.183 C1069.54,578.773 1069.4,578.441 1069.12,578.187 C1068.84,577.932 1068.48,577.805 1068.02,577.805" fill="#FFFFFF"/>
    <path d="M1066.88,583.144 L1069.12,583.144 L1069.12,596.653 L1066.88,596.653 z" fill="#FFFFFF"/>
    <path d="M1093.62,584.436 C1092.66,583.428 1091.39,582.923 1089.82,582.923 C1088.7,582.923 1087.7,583.223 1086.82,583.821 C1085.93,584.42 1085.3,585.269 1084.92,586.368 C1084.56,585.236 1083.96,584.379 1083.11,583.796 C1082.27,583.215 1081.27,582.923 1080.12,582.923 C1079.02,582.923 1078.05,583.206 1077.21,583.772 C1076.36,584.338 1075.78,585.154 1075.45,586.221 L1075.45,583.144 L1073.21,583.144 L1073.21,596.653 L1075.45,596.653 L1075.45,589.493 C1075.45,587.984 1075.8,586.84 1076.52,586.06 C1077.23,585.281 1078.19,584.891 1079.38,584.891 C1080.5,584.891 1081.39,585.244 1082.04,585.95 C1082.7,586.655 1083.03,587.672 1083.03,589 L1083.03,596.653 L1085.27,596.653 L1085.27,589.493 C1085.27,587.984 1085.62,586.84 1086.34,586.06 C1087.05,585.281 1088,584.891 1089.18,584.891 C1090.31,584.891 1091.2,585.244 1091.85,585.95 C1092.5,586.655 1092.82,587.672 1092.82,589 L1092.82,596.653 L1095.06,596.653 L1095.06,588.804 C1095.06,586.902 1094.58,585.446 1093.62,584.436" fill="#FFFFFF"/>
    <path d="M999.715,739.931 L996.315,730.548 L992.915,739.931 L999.715,739.931 z M1000.4,741.802 L992.23,741.802 L990.675,746.098 L988.092,746.098 L994.971,727.859 L997.686,727.859 L1004.54,746.098 L1001.96,746.098 L1000.4,741.802" fill="#FFFFFF"/>
    <path d="M1011.97,732.221 C1012.88,731.668 1013.97,731.391 1015.24,731.391 L1015.24,734 L1014.5,734 C1013.15,734 1012.04,734.348 1011.18,735.041 C1010.32,735.735 1009.89,736.882 1009.89,738.48 L1009.89,746.098 L1007.49,746.098 L1007.49,731.628 L1009.89,731.628 L1009.89,734.554 C1010.36,733.552 1011.06,732.774 1011.97,732.221" fill="#FFFFFF"/>
    <path d="M1022.62,732.221 C1023.53,731.668 1024.62,731.391 1025.89,731.391 L1025.89,734 L1025.15,734 C1023.79,734 1022.69,734.348 1021.83,735.041 C1020.97,735.735 1020.54,736.882 1020.54,738.48 L1020.54,746.098 L1018.14,746.098 L1018.14,731.628 L1020.54,731.628 L1020.54,734.554 C1021.01,733.552 1021.7,732.774 1022.62,732.221" fill="#FFFFFF"/>
    <path d="M1028.79,731.628 L1031.18,731.628 L1031.18,746.098 L1028.79,746.098 z M1028.81,726.317 C1029.11,726.045 1029.5,725.909 1030,725.909 C1030.49,725.909 1030.88,726.045 1031.18,726.317 C1031.48,726.59 1031.63,726.945 1031.63,727.385 C1031.63,727.824 1031.48,728.18 1031.18,728.452 C1030.88,728.725 1030.49,728.86 1030,728.86 C1029.5,728.86 1029.11,728.725 1028.81,728.452 C1028.51,728.18 1028.36,727.824 1028.36,727.385 C1028.36,726.945 1028.51,726.59 1028.81,726.317" fill="#FFFFFF"/>
    <path d="M1040.64,743.541 L1045.13,731.628 L1047.71,731.628 L1042.04,746.098 L1039.2,746.098 L1033.53,731.628 L1036.11,731.628 L1040.64,743.541" fill="#FFFFFF"/>
    <path d="M1052.07,734.988 C1051.18,735.929 1050.74,737.225 1050.74,738.876 C1050.74,740.528 1051.18,741.824 1052.07,742.764 C1052.96,743.704 1054.14,744.174 1055.62,744.174 C1056.56,744.174 1057.41,743.954 1058.16,743.515 C1058.9,743.076 1059.49,742.456 1059.91,741.656 C1060.33,740.857 1060.54,739.931 1060.54,738.876 C1060.54,737.822 1060.33,736.891 1059.91,736.082 C1059.49,735.274 1058.9,734.655 1058.16,734.225 C1057.41,733.794 1056.56,733.578 1055.62,733.578 C1054.14,733.578 1052.96,734.049 1052.07,734.988 z M1058.5,732.498 C1059.48,733.201 1060.16,734.141 1060.54,735.318 L1060.54,731.628 L1062.94,731.628 L1062.94,746.098 L1060.54,746.098 L1060.54,742.408 C1060.16,743.585 1059.48,744.525 1058.5,745.228 C1057.53,745.931 1056.34,746.282 1054.93,746.282 C1053.65,746.282 1052.51,745.983 1051.5,745.386 C1050.5,744.789 1049.71,743.933 1049.14,742.816 C1048.57,741.701 1048.29,740.388 1048.29,738.876 C1048.29,737.365 1048.57,736.047 1049.14,734.923 C1049.71,733.799 1050.5,732.938 1051.5,732.34 C1052.51,731.742 1053.65,731.443 1054.93,731.443 C1056.34,731.443 1057.53,731.795 1058.5,732.498" fill="#FFFFFF"/>
    <path d="M1066.76,726.594 L1069.16,726.594 L1069.16,746.098 L1066.76,746.098 z" fill="#FFFFFF"/>
    <path d="M1082.01,732.722 C1083,733.574 1083.61,734.721 1083.82,736.161 L1081.52,736.161 C1081.42,735.301 1081.06,734.593 1080.46,734.04 C1079.85,733.486 1079.04,733.209 1078.02,733.209 C1077.16,733.209 1076.48,733.416 1076,733.829 C1075.52,734.242 1075.28,734.8 1075.28,735.503 C1075.28,736.029 1075.44,736.456 1075.77,736.78 C1076.09,737.106 1076.49,737.352 1076.98,737.519 C1077.46,737.686 1078.12,737.866 1078.97,738.059 C1080.04,738.306 1080.9,738.556 1081.56,738.811 C1082.22,739.065 1082.79,739.474 1083.25,740.036 C1083.71,740.599 1083.95,741.354 1083.95,742.303 C1083.95,743.479 1083.5,744.438 1082.62,745.175 C1081.73,745.913 1080.55,746.282 1079.07,746.282 C1077.35,746.282 1075.95,745.869 1074.86,745.043 C1073.77,744.218 1073.13,743.066 1072.93,741.591 L1075.25,741.591 C1075.34,742.47 1075.72,743.182 1076.4,743.726 C1077.07,744.271 1077.96,744.543 1079.07,744.543 C1079.9,744.543 1080.54,744.332 1081.01,743.91 C1081.47,743.488 1081.71,742.935 1081.71,742.25 C1081.71,741.688 1081.54,741.239 1081.21,740.905 C1080.87,740.572 1080.46,740.317 1079.97,740.142 C1079.48,739.966 1078.8,739.781 1077.94,739.588 C1076.87,739.342 1076.01,739.096 1075.37,738.85 C1074.73,738.604 1074.18,738.213 1073.74,737.677 C1073.29,737.141 1073.06,736.416 1073.06,735.503 C1073.06,734.29 1073.51,733.311 1074.41,732.563 C1075.3,731.817 1076.53,731.443 1078.07,731.443 C1079.71,731.443 1081.02,731.87 1082.01,732.722" fill="#FFFFFF"/>
    <path d="M734.602,795.515 L741.203,802.116 L768.146,775.173 L761.545,768.572 L734.602,795.515" fill="#3F4962"/>
    <path d="M548.27,630.903 L554.021,630.903 C553.924,631.899 553.637,632.768 553.16,633.508 C552.682,634.249 552.069,634.813 551.323,635.201 C550.575,635.588 549.751,635.781 548.852,635.781 C547.8,635.781 546.869,635.55 546.059,635.086 C545.25,634.623 544.617,633.958 544.16,633.093 C543.703,632.228 543.475,631.201 543.475,630.01 C543.475,628.848 543.7,627.838 544.149,626.979 C544.599,626.121 545.219,625.461 546.007,624.997 C546.797,624.533 547.689,624.301 548.686,624.301 C549.792,624.301 550.751,624.571 551.561,625.111 C552.37,625.65 552.948,626.363 553.294,627.249 L555.288,627.249 C554.886,625.795 554.107,624.647 552.952,623.803 C551.796,622.959 550.367,622.536 548.665,622.536 C547.266,622.536 546.028,622.855 544.949,623.491 C543.869,624.128 543.029,625.01 542.426,626.138 C541.824,627.267 541.523,628.557 541.523,630.01 C541.523,631.463 541.824,632.754 542.426,633.882 C543.029,635.01 543.869,635.889 544.949,636.519 C546.028,637.149 547.273,637.463 548.686,637.463 C549.972,637.463 551.121,637.186 552.132,636.633 C553.143,636.079 553.945,635.332 554.54,634.391 C555.135,633.449 555.495,632.398 555.62,631.235 L555.62,629.491 L548.27,629.491 L548.27,630.903" fill="#818181"/>
    <path d="M560.852,632.46 L563.53,625.07 L566.208,632.46 L560.852,632.46 z M562.471,622.952 L557.053,637.318 L559.087,637.318 L560.312,633.934 L566.748,633.934 L567.972,637.318 L570.007,637.318 L564.609,622.952 L562.471,622.952" fill="#818181"/>
    <path d="M570.733,624.218 L574.865,624.218 L574.865,637.318 L576.754,637.318 L576.754,624.218 L580.885,624.218 L580.885,622.682 L570.733,622.682 L570.733,624.218" fill="#818181"/>
    <path d="M584.829,637.318 L592.905,637.318 L592.905,635.781 L586.718,635.781 L586.718,630.675 L592.282,630.675 L592.282,629.222 L586.718,629.222 L586.718,624.218 L592.905,624.218 L592.905,622.682 L584.829,622.682 L584.829,637.318" fill="#818181"/>
    <path d="M605.652,631.287 C605.25,630.727 604.762,630.308 604.188,630.031 C603.614,629.754 602.856,629.463 601.915,629.159 C601.14,628.91 600.531,628.685 600.087,628.484 C599.645,628.283 599.274,628.007 598.977,627.653 C598.679,627.301 598.53,626.841 598.53,626.273 C598.53,625.554 598.759,624.997 599.216,624.602 C599.673,624.208 600.282,624.01 601.043,624.01 C601.873,624.01 602.531,624.232 603.016,624.675 C603.5,625.118 603.797,625.629 603.908,626.211 L605.942,626.211 C605.805,625.132 605.313,624.243 604.469,623.543 C603.625,622.844 602.482,622.495 601.043,622.495 C600.115,622.495 599.309,622.654 598.625,622.973 C597.938,623.291 597.413,623.74 597.046,624.322 C596.68,624.903 596.497,625.575 596.497,626.336 C596.497,627.221 596.693,627.934 597.088,628.474 C597.482,629.014 597.959,629.418 598.521,629.688 C599.081,629.958 599.825,630.245 600.752,630.55 C601.541,630.799 602.164,631.031 602.621,631.246 C603.078,631.46 603.461,631.754 603.773,632.128 C604.084,632.501 604.24,632.986 604.24,633.581 C604.24,634.273 604.019,634.84 603.576,635.284 C603.133,635.727 602.497,635.947 601.666,635.947 C601.028,635.947 600.485,635.82 600.036,635.563 C599.586,635.307 599.24,634.983 598.998,634.588 C598.755,634.193 598.613,633.788 598.572,633.373 L596.558,633.373 C596.627,634.162 596.887,634.865 597.337,635.48 C597.787,636.097 598.388,636.581 599.143,636.934 C599.897,637.287 600.759,637.463 601.728,637.463 C602.725,637.463 603.562,637.277 604.24,636.903 C604.918,636.529 605.423,636.045 605.756,635.449 C606.088,634.854 606.254,634.21 606.254,633.518 C606.254,632.591 606.053,631.847 605.652,631.287" fill="#818181"/>
    <path d="M557.03,668.824 L570.063,668.824 C580.448,668.824 588.5,671.527 593.994,676.858 C599.476,682.179 602.254,689.791 602.254,699.482 C602.254,709.174 599.476,716.786 593.995,722.107 C588.5,727.438 580.448,730.141 570.063,730.141 L557.03,730.141 L557.03,668.824 z M614.141,675.05 C610.318,668.108 604.666,662.653 597.341,658.837 C590.063,655.045 581.271,653.122 571.212,653.122 L539.668,653.122 L539.668,746.098 L571.212,746.098 C581.276,746.098 590.069,744.154 597.347,740.317 C604.671,736.457 610.322,730.959 614.143,723.975 C617.944,717.03 619.872,708.789 619.872,699.482 C619.872,690.174 617.944,681.954 614.141,675.05" fill="#3F4962"/>
    <path d="M657.272,712.532 L663.298,712.532 L663.298,745.163 L673.579,745.163 L673.579,703.162 L657.272,703.162 L657.272,712.532" fill="#818181"/>
    <path d="M683.079,719.704 L709.107,719.704 L709.107,728.223 L683.079,728.223 z" fill="#818181"/>
    <path d="M738.597,731.923 C741.193,729.501 743.364,726.81 745.048,723.922 C746.774,720.968 747.648,717.97 747.648,715.01 C747.648,711.202 746.434,708.097 744.038,705.782 C741.65,703.477 738.229,702.308 733.868,702.308 C729.589,702.308 725.991,703.625 723.173,706.222 C720.346,708.826 718.791,712.667 718.552,717.637 L718.505,718.615 L728.167,718.615 L728.206,717.723 C728.476,711.643 731.209,710.94 733.243,710.94 C734.783,710.94 735.86,711.333 736.533,712.14 C737.239,712.986 737.596,714.201 737.596,715.749 C737.596,721.272 731.247,728.474 718.726,737.152 L718.324,737.431 L718.324,744.822 L748.445,744.822 L748.445,736.418 L733.073,736.418 C734.981,735.076 736.831,733.571 738.597,731.923" fill="#818181"/>
    <path d="M775.794,732.958 C774.947,734.827 773.302,735.736 770.762,735.736 C768.182,735.736 766.518,734.828 765.671,732.958 C764.727,730.874 764.249,727.8 764.249,723.821 C764.249,719.88 764.727,716.825 765.671,714.741 C766.518,712.872 768.182,711.963 770.762,711.963 C773.302,711.963 774.947,712.872 775.794,714.741 C776.74,716.828 777.218,719.883 777.218,723.821 C777.218,727.797 776.74,730.871 775.794,732.958 z M783.252,708.415 C780.693,704.515 776.491,702.536 770.762,702.536 C759.958,702.536 754.479,709.698 754.479,723.821 C754.479,737.982 759.958,745.163 770.762,745.163 C776.491,745.163 780.693,743.184 783.252,739.284 C785.731,735.508 786.987,730.305 786.987,723.821 C786.987,717.374 785.731,712.191 783.252,708.415" fill="#818181"/>
    <path d="M736.85,863.016 C739.446,860.593 741.617,857.901 743.301,855.015 C745.026,852.061 745.901,849.062 745.901,846.103 C745.901,842.294 744.687,839.19 742.291,836.875 C739.903,834.57 736.481,833.401 732.12,833.401 C727.842,833.401 724.243,834.718 721.425,837.315 C718.599,839.919 717.043,843.76 716.804,848.73 L716.758,849.708 L726.419,849.708 L726.458,848.816 C726.729,842.737 729.462,842.034 731.495,842.034 C733.037,842.034 734.113,842.426 734.785,843.232 C735.491,844.079 735.848,845.294 735.848,846.842 C735.848,852.364 729.499,859.566 716.979,868.245 L716.576,868.524 L716.576,875.915 L746.697,875.915 L746.697,867.511 L731.324,867.511 C733.232,866.169 735.083,864.664 736.85,863.016" fill="#818181"/>
    <path d="M782.743,854.334 C781.781,852.187 780.288,850.444 778.305,849.157 C776.323,847.869 773.828,847.216 770.889,847.216 C768.919,847.216 767.089,847.555 765.45,848.222 C764.584,848.575 763.808,848.993 763.126,849.471 L763.126,842.375 L782.17,842.375 L782.17,833.458 L753.981,833.458 L753.981,859.031 L763.309,859.031 L763.556,858.478 C763.973,857.546 764.619,856.815 765.529,856.245 C766.435,855.68 767.569,855.393 768.9,855.393 C770.737,855.393 772.098,855.876 773.061,856.871 C774.032,857.875 774.504,859.28 774.504,861.167 C774.504,863.175 774.028,864.786 773.089,865.955 C772.188,867.078 770.818,867.624 768.9,867.624 C767.307,867.624 766.081,867.211 765.152,866.362 C764.2,865.493 763.607,864.335 763.338,862.824 L763.202,862.053 L753.655,862.053 L753.699,863.029 C753.819,865.687 754.539,868.052 755.837,870.059 C757.138,872.073 758.968,873.658 761.274,874.771 C763.552,875.869 766.251,876.426 769.298,876.426 C774.018,876.426 777.72,875.026 780.298,872.264 C782.86,869.521 784.159,865.845 784.159,861.338 C784.159,858.794 783.683,856.437 782.743,854.334" fill="#818181"/>
    <path d="M786.335,608.382 L728.846,550.894 L671.357,608.382 L683.9,620.926 L719.977,584.848 L719.977,674.943 L737.715,674.943 L737.715,584.848 L773.792,620.926 L786.335,608.382" fill="#3F4962"/>
    <path d="M553.5,845.47 C556.618,845.47 559.146,842.942 559.146,839.824 C559.146,836.706 556.618,834.179 553.5,834.179 C550.382,834.179 547.854,836.706 547.854,839.824 C547.854,842.942 550.382,845.47 553.5,845.47" fill="#3F4962"/>
    <path d="M559.855,847.852 L547.145,847.852 C544.327,847.852 542.494,851.679 543.754,854.932 L550.924,873.439 C551.896,875.95 555.103,875.95 556.076,873.439 L563.246,854.932 C564.505,851.679 562.673,847.852 559.855,847.852" fill="#3F4962"/>
    <path d="M580.839,845.47 C583.957,845.47 586.485,842.942 586.485,839.824 C586.485,836.706 583.957,834.179 580.839,834.179 C577.721,834.179 575.193,836.706 575.193,839.824 C575.193,842.942 577.721,845.47 580.839,845.47" fill="#3F4962"/>
    <path d="M572.859,875.323 L588.819,875.323 C591.637,875.323 593.47,871.824 592.209,868.851 L583.79,849.296 C583.402,848.181 582.363,847.435 581.198,847.435 L580.608,847.435 C579.448,847.435 578.414,848.173 578.022,849.281 L569.469,868.851 C568.209,871.824 570.042,875.323 572.859,875.323" fill="#3F4962"/>
    <path d="M571.69,941.383 C566.338,939.24 563.728,933.143 565.871,927.79 C566.753,925.584 568.306,923.795 570.36,922.614 L568.965,920.185 C566.359,921.683 564.39,923.952 563.27,926.749 C560.553,933.535 563.863,941.266 570.649,943.984 C572.26,944.628 573.923,944.934 575.561,944.934 C580.823,944.934 585.813,941.779 587.884,936.604 L585.284,935.563 C583.142,940.915 577.044,943.527 571.69,941.383" fill="#3F4962"/>
    <path d="M597.727,936.631 L592.677,924.936 C592.23,923.897 591.483,923.053 590.566,922.473 L596.015,922.473 L596.015,919.672 L585.319,919.672 L582.316,912.698 C581.929,911.582 580.89,910.836 579.725,910.836 L579.134,910.836 C577.975,910.836 576.94,911.575 576.548,912.683 L573.148,920.463 C570.837,925.751 574.711,931.671 580.481,931.671 L588.744,931.671 L592.657,939.163 C593.296,940.36 594.725,940.974 596.104,940.502 C597.661,939.969 598.363,938.149 597.727,936.631" fill="#3F4962"/>
    <path d="M573.72,903.848 C573.72,906.966 576.248,909.494 579.366,909.494 C582.484,909.494 585.011,906.966 585.011,903.848 C585.011,900.73 582.484,898.203 579.366,898.203 C576.248,898.203 573.72,900.73 573.72,903.848" fill="#3F4962"/>
    <path d="M923.717,1039 L916.744,1039 L920.23,1029.38 L923.717,1039 z M917.68,1021.9 L907.226,1049.61 L912.892,1049.61 L915.095,1043.52 L925.365,1043.52 L927.569,1049.61 L933.232,1049.61 L922.819,1021.9 L917.68,1021.9" fill="#FFD047"/>
    <path d="M938.122,1021.41 L943.388,1021.41 L943.388,1049.61 L938.122,1049.61 z" fill="#FFD047"/>
    <path d="M955.975,1026.23 L960.009,1026.23 C963.367,1026.23 964.865,1027.51 964.865,1030.38 C964.865,1033.24 963.367,1034.52 960.009,1034.52 L955.975,1034.52 L955.975,1026.23 z M968.168,1035.99 C969.52,1034.51 970.206,1032.56 970.206,1030.19 C970.206,1027.57 969.355,1025.43 967.677,1023.82 C966.01,1022.22 963.53,1021.41 960.307,1021.41 L950.708,1021.41 L950.708,1049.61 L955.975,1049.61 L955.975,1038.85 L958.228,1038.85 L965.1,1049.61 L971.192,1049.61 L963.832,1038.45 C965.64,1037.99 967.094,1037.17 968.168,1035.99" fill="#FFD047"/>
    <path d="M981.485,1026.12 L985.221,1026.12 C987.032,1026.12 988.317,1026.46 989.042,1027.15 C989.763,1027.83 990.114,1028.84 990.114,1030.23 C990.114,1031.57 989.762,1032.56 989.037,1033.25 C988.313,1033.94 987.029,1034.3 985.221,1034.3 L981.485,1034.3 L981.485,1026.12 z M985.52,1021.41 L976.219,1021.41 L976.219,1049.61 L981.485,1049.61 L981.485,1039 L985.52,1039 C988.655,1039 991.114,1038.23 992.828,1036.69 C994.571,1035.13 995.455,1032.96 995.455,1030.23 C995.455,1027.53 994.603,1025.36 992.92,1023.77 C991.253,1022.21 988.764,1021.41 985.52,1021.41" fill="#FFD047"/>
    <path d="M1012.04,1044.87 C1010.4,1044.87 1008.91,1044.49 1007.63,1043.74 C1006.37,1043 1005.35,1041.92 1004.63,1040.52 C1003.9,1039.09 1003.52,1037.4 1003.52,1035.49 C1003.52,1033.56 1003.9,1031.87 1004.63,1030.45 C1005.35,1029.06 1006.36,1027.98 1007.63,1027.24 L1007.64,1027.24 C1008.92,1026.49 1010.4,1026.12 1012.04,1026.12 C1013.66,1026.12 1015.13,1026.49 1016.41,1027.24 C1017.68,1027.98 1018.69,1029.06 1019.41,1030.45 C1020.15,1031.87 1020.52,1033.56 1020.52,1035.49 C1020.52,1037.4 1020.15,1039.08 1019.41,1040.5 C1018.69,1041.89 1017.67,1042.98 1016.4,1043.73 C1015.12,1044.48 1013.65,1044.87 1012.04,1044.87 z M1019.1,1022.92 L1019.1,1022.92 C1017.01,1021.7 1014.64,1021.07 1012.04,1021.07 C1009.44,1021.07 1007.06,1021.69 1004.94,1022.92 C1002.82,1024.15 1001.14,1025.88 999.939,1028.08 C998.748,1030.26 998.145,1032.76 998.145,1035.49 C998.145,1038.23 998.748,1040.72 999.939,1042.91 C1001.14,1045.1 1002.82,1046.84 1004.94,1048.07 C1007.06,1049.29 1009.44,1049.91 1012.04,1049.91 C1014.64,1049.91 1017.01,1049.29 1019.1,1048.06 C1021.2,1046.84 1022.87,1045.1 1024.06,1042.91 C1025.26,1040.72 1025.86,1038.23 1025.86,1035.49 C1025.86,1032.76 1025.26,1030.26 1024.06,1028.08 C1022.87,1025.89 1021.2,1024.15 1019.1,1022.92" fill="#FFD047"/>
    <path d="M1036.09,1026.23 L1040.13,1026.23 C1043.48,1026.23 1044.98,1027.51 1044.98,1030.38 C1044.98,1033.24 1043.48,1034.52 1040.13,1034.52 L1036.09,1034.52 L1036.09,1026.23 z M1048.29,1035.99 C1049.64,1034.51 1050.32,1032.56 1050.32,1030.19 C1050.32,1027.57 1049.47,1025.43 1047.79,1023.82 C1046.13,1022.22 1043.65,1021.41 1040.43,1021.41 L1030.83,1021.41 L1030.83,1049.61 L1036.09,1049.61 L1036.09,1038.85 L1038.35,1038.85 L1045.22,1049.61 L1051.31,1049.61 L1043.95,1038.45 C1045.76,1037.99 1047.21,1037.17 1048.29,1035.99" fill="#FFD047"/>
    <path d="M1054.21,1021.41 L1054.21,1026.04 L1061.64,1026.04 L1061.64,1049.61 L1066.91,1049.61 L1066.91,1026.04 L1074.34,1026.04 L1074.34,1021.41 L1054.21,1021.41" fill="#FFD047"/>
  </g>
</svg>
