<?xml version="1.0" encoding="UTF-8"?>
<!DOCTYPE svg PUBLIC "-//W3C//DTD SVG 1.1//EN" "http://www.w3.org/Graphics/SVG/1.1/DTD/svg11.dtd">
<svg version="1.1" xmlns="http://www.w3.org/2000/svg" xmlns:xlink="http://www.w3.org/1999/xlink" x="0" y="0" width="61.367" height="197.284" viewBox="0, 0, 61.367, 197.284">
  <g id="Background">
    <rect x="0" y="0" width="61.367" height="197.284" fill="#FFFFFF"/>
    <g stroke-width="1px">
      <line x1="12" y1="0" x2="12" y2="197.284" stroke="#AAAAAA" stroke-opacity="0.25"/>
      <line x1="24" y1="0" x2="24" y2="197.284" stroke="#AAAAAA" stroke-opacity="0.25"/>
      <line x1="36" y1="0" x2="36" y2="197.284" stroke="#AAAAAA" stroke-opacity="0.25"/>
      <line x1="48" y1="0" x2="48" y2="197.284" stroke="#AAAAAA" stroke-opacity="0.25"/>
      <line x1="60" y1="0" x2="60" y2="197.284" stroke="#AAAAAA" stroke-opacity="0.25"/>
      <line x1="0" y1="12" x2="61.367" y2="12" stroke="#AAAAAA" stroke-opacity="0.25"/>
      <line x1="0" y1="24" x2="61.367" y2="24" stroke="#AAAAAA" stroke-opacity="0.25"/>
      <line x1="0" y1="36" x2="61.367" y2="36" stroke="#AAAAAA" stroke-opacity="0.25"/>
      <line x1="0" y1="48" x2="61.367" y2="48" stroke="#AAAAAA" stroke-opacity="0.25"/>
      <line x1="0" y1="60" x2="61.367" y2="60" stroke="#AAAAAA" stroke-opacity="0.25"/>
      <line x1="0" y1="72" x2="61.367" y2="72" stroke="#AAAAAA" stroke-opacity="0.5"/>
      <line x1="0" y1="84" x2="61.367" y2="84" stroke="#AAAAAA" stroke-opacity="0.25"/>
      <line x1="0" y1="96" x2="61.367" y2="96" stroke="#AAAAAA" stroke-opacity="0.25"/>
      <line x1="0" y1="108" x2="61.367" y2="108" stroke="#AAAAAA" stroke-opacity="0.25"/>
      <line x1="0" y1="120" x2="61.367" y2="120" stroke="#AAAAAA" stroke-opacity="0.25"/>
      <line x1="0" y1="132" x2="61.367" y2="132" stroke="#AAAAAA" stroke-opacity="0.25"/>
      <line x1="0" y1="144" x2="61.367" y2="144" stroke="#AAAAAA" stroke-opacity="0.5"/>
      <line x1="0" y1="156" x2="61.367" y2="156" stroke="#AAAAAA" stroke-opacity="0.25"/>
      <line x1="0" y1="168" x2="61.367" y2="168" stroke="#AAAAAA" stroke-opacity="0.25"/>
      <line x1="0" y1="180" x2="61.367" y2="180" stroke="#AAAAAA" stroke-opacity="0.25"/>
      <line x1="0" y1="192" x2="61.367" y2="192" stroke="#AAAAAA" stroke-opacity="0.25"/>
    </g>
  </g>
  <g id="Layer_1">
    <g>
      <path d="M8.194,89.979 L8.139,90.421 C8.139,90.421 9.293,90.548 9.985,90.239 L10.106,90.167 L10.236,90.09 C10.844,89.591 10.677,88.764 11.009,88.102 C11.08,87.962 11.141,87.707 11.197,87.41 C11.379,87.512 11.75,87.688 12.267,87.813 C12.223,87.92 12.188,88.044 12.168,88.214 C12.132,88.517 12.091,88.747 12.048,88.953 C11.774,90.082 11.245,91.885 10.403,93.291 C9.931,94.075 9.029,94.96 8.095,96.023 C7.946,95.799 7.668,95.288 7.586,94.449 C7.476,93.291 8.194,89.979 8.194,89.979 z M11.616,82.472 C11.837,81.423 12.5,76.841 12.61,75.794 C12.72,74.746 12.279,74.579 12.664,73.309 C13.051,72.041 13.547,72.427 13.547,70.992 C13.547,69.556 14.266,69.336 13.934,68.453 L13.902,68.37 C13.885,68.254 13.869,68.127 13.851,67.98 C14.087,68.562 14.293,68.801 14.376,69.501 C14.486,70.44 14.21,70.882 14.156,71.71 C14.1,72.537 14.321,73.089 14.044,73.752 C13.768,74.414 13.327,74.746 13.051,75.96 C12.775,77.174 11.835,82.968 11.781,84.128 C11.752,84.765 11.538,85.663 11.351,86.348 C11.462,85.382 11.53,84.352 11.56,84.073 C11.616,83.576 11.395,83.521 11.616,82.472 z M25.002,26.745 L24.996,26.93 C24.99,26.831 25,26.754 25.002,26.745 z M49.204,83.632 C48.873,81.479 48.816,77.394 48.542,74.359 C48.265,71.323 48.486,70.661 48.265,69.612 C48.044,68.564 47.934,68.453 48.321,67.295 C48.708,66.135 49.149,65.362 49.093,63.32 C49.084,62.981 49.069,62.558 49.05,62.086 C49.101,62.206 49.139,62.335 49.18,62.462 C49.316,63.369 49.416,63.57 49.479,64.203 C49.529,64.697 49.555,65.333 49.571,65.907 C49.576,66.262 49.582,66.626 49.588,66.993 C49.59,67.168 49.59,67.301 49.59,67.348 L49.597,67.353 C49.607,67.699 49.62,68.048 49.644,68.398 C49.81,70.771 49.866,72.041 50.307,73.035 C50.749,74.027 50.638,75.739 50.584,76.401 C50.527,77.063 50.803,78.057 50.527,78.443 C50.3,78.761 49.926,78.556 49.801,78.474 L49.755,78.443 C49.755,78.443 49.755,78.885 49.976,80.21 C50.197,81.534 50.252,81.866 50.418,82.858 C50.584,83.852 50.527,84.845 50.638,85.343 L50.744,85.586 C50.871,85.909 51.589,86.372 51.589,86.372 C51.589,86.372 51.564,86.151 51.521,85.785 L51.528,85.784 C51.743,87.601 51.958,90.907 51.797,91.744 C51.577,92.904 51.082,94.009 50.418,94.671 C49.935,95.149 49.687,95.407 49.687,95.407 C49.687,95.407 49.723,95.465 49.787,95.567 C49.595,95.298 49.417,95.051 49.258,94.837 C48.044,93.18 48.265,91.414 48.265,90.642 C48.265,90.392 48.193,90.086 48.1,89.784 L48.105,89.783 L48.085,89.732 C47.952,89.319 47.785,88.931 47.685,88.717 C48.453,88.643 49.199,88.573 49.479,88.214 C49.866,87.715 49.534,85.785 49.204,83.632 z M1.902,89.041 C2.675,90.033 2.729,90.696 3.17,90.475 L3.262,90.447 C3.184,91.54 3.213,92.776 3.061,93.787 C2.895,94.89 2.785,95.664 2.675,96.492 C2.564,97.319 2.84,98.258 3.17,98.975 C3.491,99.666 3.868,100.975 5.025,102.989 C5.029,103.351 5.051,103.722 5.104,104.108 C5.545,105.544 6.317,106.427 6.649,107.531 C6.979,108.634 7.641,111.284 7.752,113.05 C7.863,114.816 8.194,120.225 8.194,126.96 C8.194,133.693 7.863,147.602 8.083,150.472 C8.304,153.342 9.077,155.881 8.857,157.867 C8.635,159.854 7.421,162.615 7.641,165.153 C7.863,167.693 8.967,170.231 9.077,172.217 C9.187,174.205 8.525,176.744 7.863,178.4 C7.2,180.056 6.87,180.056 7.09,182.927 C7.311,185.796 7.974,187.894 8.083,188.998 C8.143,189.601 8.112,189.962 8.263,190.013 C7.935,190.519 7.097,191.689 6.152,192.033 C4.937,192.475 3.227,192.695 3.17,195.013 C2.951,195.343 2.564,195.841 3.282,196.338 C5.158,196.45 8.966,197.166 12.002,197.166 C15.039,197.166 15.976,197.001 15.976,196.505 C16.638,196.781 16.86,196.781 16.86,196.781 C16.86,196.781 18.515,196.67 19.122,196.505 C19.729,196.339 19.785,195.952 19.673,195.4 C19.568,194.866 19.714,193.153 19.375,192.592 C19.455,192.516 19.513,192.187 19.785,191.425 C20.336,189.881 21.883,187.452 22.325,186.017 C22.766,184.583 22.766,183.589 21.993,182.374 C21.22,181.16 21.22,180.497 21.22,178.732 C21.22,176.965 21.109,173.433 21.22,171.005 C21.331,168.576 21.442,163.498 21.55,160.186 C21.661,156.874 21.993,152.9 22.325,150.031 C22.655,147.161 22.655,141.531 23.318,139.433 C23.979,137.336 24.421,134.796 24.863,132.7 C25.304,130.601 24.973,128.947 25.636,126.407 C26.214,124.184 26.034,123.061 26.276,121.26 C26.418,120.604 26.644,119.598 26.849,118.846 C26.902,118.652 26.954,118.432 27.005,118.218 C27.297,117.331 27.557,116.563 27.623,115.257 C27.71,113.492 28.223,111.45 28.82,111.717 L28.867,111.742 L28.892,111.764 C29.64,112.48 30.216,117.08 30.216,117.08 C30.216,117.08 30.224,117.009 30.237,116.902 C30.614,119.406 30.957,122.433 31.265,125.083 C31.817,129.83 31.154,140.425 32.038,144.401 C32.92,148.374 32.972,154.076 33.305,157.278 C33.635,160.479 33.583,169.238 33.694,172.77 C33.804,176.303 32.7,180.607 32.92,183.147 C33.141,185.686 34.024,187.894 34.135,189.329 C34.246,190.764 34.135,192.089 34.135,192.089 C34.135,192.089 34.232,192.086 34.375,192.076 L34.367,192.087 L34.356,192.089 L34.363,192.093 C34.043,192.54 33.58,193.391 33.804,194.407 C33.859,194.847 33.804,195.51 34.081,195.787 C34.356,196.063 38.716,196.724 38.716,196.724 L41.863,196.173 C41.863,196.173 42.028,196.559 42.414,197.111 C42.801,197.664 43.739,197.829 47.327,197.774 C50.915,197.717 55.55,197.166 56.985,196.89 C58.421,196.614 58.863,195.841 58.531,195.289 C58.201,194.738 58.254,194.019 57.593,193.413 C56.93,192.806 56.047,192.64 54.613,192.64 C53.323,192.64 50.607,193.207 48.226,189.796 C48.226,189.752 48.175,189.634 47.908,189.325 C47.839,189.215 47.773,189.087 47.705,188.969 C47.451,186.694 48.747,186.672 48.423,185.159 C48.091,183.614 47.994,181.465 47.442,180.251 C46.889,179.037 47.528,175.415 47.637,172.986 C47.748,170.556 47.244,162.986 47.465,158.903 C47.686,154.819 46.914,148.305 47.245,145.105 C47.577,141.903 48.375,131.264 49.038,124.09 C49.701,116.914 49.209,113.689 51.356,108.634 C52.025,107.059 53.326,105.276 53.258,103.011 C53.275,103.114 53.286,103.184 53.286,103.184 C53.286,103.184 53.73,102.176 54.613,99.748 C55.496,97.319 55.882,96.326 55.937,95.002 C55.993,93.677 56.269,91.634 56.82,89.758 C57.186,88.514 57.524,87.281 57.729,86.47 L57.768,86.481 L57.813,86.502 L57.856,86.505 C57.981,86.533 58.122,86.539 58.262,86.524 C58.674,86.532 58.707,86.448 59.137,86.061 C59.69,85.563 60.242,85.453 60.739,83.852 C61.236,82.252 62.229,79.492 61.731,79.768 C61.236,80.045 60.462,79.05 60.462,79.05 C60.462,79.05 60.353,79.712 60.408,77.671 C60.462,75.629 60.462,71.654 60.518,69.115 C60.573,66.577 60.462,61.609 59.635,55.04 C58.807,48.472 58.035,42.843 57.096,40.469 C56.234,38.286 54.56,36.757 51.638,35.281 L51.631,35.171 C50.362,34.342 42.304,30.81 41.145,30.259 C40.704,30.092 40.758,30.423 40.758,30.423 L40.764,30.46 L40.759,30.458 L40.758,30.423 L39.986,29.983 C39.379,29.32 38.881,26.671 38.495,26.064 C38.113,25.462 37.368,25.089 37.356,25.083 C37.289,23.978 37.325,21.7 37.612,21.316 C38.053,20.379 38.606,19.33 38.993,17.894 C39.489,18.281 40.427,17.674 40.924,16.957 C41.421,16.239 42.138,15.135 41.863,13.535 C41.586,11.934 40.647,11.824 40.647,11.824 C40.869,11.106 40.647,9.34 40.207,7.96 C39.765,6.58 39.379,5.476 38.219,4.096 C37.061,2.716 36.288,2.331 35.349,1.889 C34.412,1.448 33.418,1.006 32.478,0.84 C31.542,0.674 30.712,0.454 28.671,0.508 C26.628,0.563 25.414,1.889 24.918,2.551 C24.42,3.214 23.373,3.821 21.55,6.69 C19.729,9.561 21.496,13.204 21.607,14.749 C20.833,15.411 21.661,17.342 21.827,18.667 C21.993,19.992 22.82,19.662 23.152,19.33 C23.814,21.648 24.697,22.475 24.918,23.25 C25.073,23.793 25.037,25.67 25.002,26.738 C24.505,26.794 24.531,27.609 24.42,28.493 C24.312,29.376 24.145,30.203 23.649,31.528 L23.671,31.552 L23.661,31.559 L23.652,31.551 L23.649,31.528 C23.649,31.528 20.502,33.239 18.405,34.066 C16.308,34.895 12.444,36.936 12.113,37.324 C12.113,37.324 12.127,37.458 12.149,37.677 L12.071,37.725 C11.909,37.786 11.281,38.037 10.898,38.372 C10.795,38.462 10.757,38.533 10.755,38.597 C9.902,39.258 9.13,40.114 8.304,41.573 C6.649,44.499 7.035,46.651 6.649,50.129 C6.262,53.605 4.221,64.479 3.282,69.943 C2.343,75.407 2.342,81.921 2.399,82.748 C2.454,83.576 2.785,82.968 2.123,83.356 C1.46,83.742 1.35,84.239 0.853,84.128 C0.356,84.018 0.466,84.569 0.688,86.059 C0.909,87.55 1.129,88.047 1.902,89.041" fill="#006F0F"/>
      <path d="M8.194,89.979 L8.139,90.421 C8.139,90.421 9.293,90.548 9.985,90.239 L10.106,90.167 L10.236,90.09 C10.844,89.591 10.677,88.764 11.009,88.102 C11.08,87.962 11.141,87.707 11.197,87.41 C11.379,87.512 11.75,87.688 12.267,87.813 C12.223,87.92 12.188,88.044 12.168,88.214 C12.132,88.517 12.091,88.747 12.048,88.953 C11.774,90.082 11.245,91.885 10.403,93.291 C9.931,94.075 9.029,94.96 8.095,96.023 C7.946,95.799 7.668,95.288 7.586,94.449 C7.476,93.291 8.194,89.979 8.194,89.979 z M11.616,82.472 C11.837,81.423 12.5,76.841 12.61,75.794 C12.72,74.746 12.279,74.579 12.664,73.309 C13.051,72.041 13.547,72.427 13.547,70.992 C13.547,69.556 14.266,69.336 13.934,68.453 L13.902,68.37 C13.885,68.254 13.869,68.127 13.851,67.98 C14.087,68.562 14.293,68.801 14.376,69.501 C14.486,70.44 14.21,70.882 14.156,71.71 C14.1,72.537 14.321,73.089 14.044,73.752 C13.768,74.414 13.327,74.746 13.051,75.96 C12.775,77.174 11.835,82.968 11.781,84.128 C11.752,84.765 11.538,85.663 11.351,86.348 C11.462,85.382 11.53,84.352 11.56,84.073 C11.616,83.576 11.395,83.521 11.616,82.472 z M25.002,26.745 L24.996,26.93 C24.99,26.831 25,26.754 25.002,26.745 z M49.204,83.632 C48.873,81.479 48.816,77.394 48.542,74.359 C48.265,71.323 48.486,70.661 48.265,69.612 C48.044,68.564 47.934,68.453 48.321,67.295 C48.708,66.135 49.149,65.362 49.093,63.32 C49.084,62.981 49.069,62.558 49.05,62.086 C49.101,62.206 49.139,62.335 49.18,62.462 C49.316,63.369 49.416,63.57 49.479,64.203 C49.529,64.697 49.555,65.333 49.571,65.907 C49.576,66.262 49.582,66.626 49.588,66.993 C49.59,67.168 49.59,67.301 49.59,67.348 L49.597,67.353 C49.607,67.699 49.62,68.048 49.644,68.398 C49.81,70.771 49.866,72.041 50.307,73.035 C50.749,74.027 50.638,75.739 50.584,76.401 C50.527,77.063 50.803,78.057 50.527,78.443 C50.3,78.761 49.926,78.556 49.801,78.474 L49.755,78.443 C49.755,78.443 49.755,78.885 49.976,80.21 C50.197,81.534 50.252,81.866 50.418,82.858 C50.584,83.852 50.527,84.845 50.638,85.343 L50.744,85.586 C50.871,85.909 51.589,86.372 51.589,86.372 C51.589,86.372 51.564,86.151 51.521,85.785 L51.528,85.784 C51.743,87.601 51.958,90.907 51.797,91.744 C51.577,92.904 51.082,94.009 50.418,94.671 C49.935,95.149 49.687,95.407 49.687,95.407 C49.687,95.407 49.723,95.465 49.787,95.567 C49.595,95.298 49.417,95.051 49.258,94.837 C48.044,93.18 48.265,91.414 48.265,90.642 C48.265,90.392 48.193,90.086 48.1,89.784 L48.105,89.783 L48.085,89.732 C47.952,89.319 47.785,88.931 47.685,88.717 C48.453,88.643 49.199,88.573 49.479,88.214 C49.866,87.715 49.534,85.785 49.204,83.632 z M1.902,89.041 C2.675,90.033 2.729,90.696 3.17,90.475 L3.262,90.447 C3.184,91.54 3.213,92.776 3.061,93.787 C2.895,94.89 2.785,95.664 2.675,96.492 C2.564,97.319 2.84,98.258 3.17,98.975 C3.491,99.666 3.868,100.975 5.025,102.989 C5.029,103.351 5.051,103.722 5.104,104.108 C5.545,105.544 6.317,106.427 6.649,107.531 C6.979,108.634 7.641,111.284 7.752,113.05 C7.863,114.816 8.194,120.225 8.194,126.96 C8.194,133.693 7.863,147.602 8.083,150.472 C8.304,153.342 9.077,155.881 8.857,157.867 C8.635,159.854 7.421,162.615 7.641,165.153 C7.863,167.693 8.967,170.231 9.077,172.217 C9.187,174.205 8.525,176.744 7.863,178.4 C7.2,180.056 6.87,180.056 7.09,182.927 C7.311,185.796 7.974,187.894 8.083,188.998 C8.143,189.601 8.112,189.962 8.263,190.013 C7.935,190.519 7.097,191.689 6.152,192.033 C4.937,192.475 3.227,192.695 3.17,195.013 C2.951,195.343 2.564,195.841 3.282,196.338 C5.158,196.45 8.966,197.166 12.002,197.166 C15.039,197.166 15.976,197.001 15.976,196.505 C16.638,196.781 16.86,196.781 16.86,196.781 C16.86,196.781 18.515,196.67 19.122,196.505 C19.729,196.339 19.785,195.952 19.673,195.4 C19.568,194.866 19.714,193.153 19.375,192.592 C19.455,192.516 19.513,192.187 19.785,191.425 C20.336,189.881 21.883,187.452 22.325,186.017 C22.766,184.583 22.766,183.589 21.993,182.374 C21.22,181.16 21.22,180.497 21.22,178.732 C21.22,176.965 21.109,173.433 21.22,171.005 C21.331,168.576 21.442,163.498 21.55,160.186 C21.661,156.874 21.993,152.9 22.325,150.031 C22.655,147.161 22.655,141.531 23.318,139.433 C23.979,137.336 24.421,134.796 24.863,132.7 C25.304,130.601 24.973,128.947 25.636,126.407 C26.214,124.184 26.034,123.061 26.276,121.26 C26.418,120.604 26.644,119.598 26.849,118.846 C26.902,118.652 26.954,118.432 27.005,118.218 C27.297,117.331 27.557,116.563 27.623,115.257 C27.71,113.492 28.223,111.45 28.82,111.717 L28.867,111.742 L28.892,111.764 C29.64,112.48 30.216,117.08 30.216,117.08 C30.216,117.08 30.224,117.009 30.237,116.902 C30.614,119.406 30.957,122.433 31.265,125.083 C31.817,129.83 31.154,140.425 32.038,144.401 C32.92,148.374 32.972,154.076 33.305,157.278 C33.635,160.479 33.583,169.238 33.694,172.77 C33.804,176.303 32.7,180.607 32.92,183.147 C33.141,185.686 34.024,187.894 34.135,189.329 C34.246,190.764 34.135,192.089 34.135,192.089 C34.135,192.089 34.232,192.086 34.375,192.076 L34.367,192.087 L34.356,192.089 L34.363,192.093 C34.043,192.54 33.58,193.391 33.804,194.407 C33.859,194.847 33.804,195.51 34.081,195.787 C34.356,196.063 38.716,196.724 38.716,196.724 L41.863,196.173 C41.863,196.173 42.028,196.559 42.414,197.111 C42.801,197.664 43.739,197.829 47.327,197.774 C50.915,197.717 55.55,197.166 56.985,196.89 C58.421,196.614 58.863,195.841 58.531,195.289 C58.201,194.738 58.254,194.019 57.593,193.413 C56.93,192.806 56.047,192.64 54.613,192.64 C53.323,192.64 50.607,193.207 48.226,189.796 C48.226,189.752 48.175,189.634 47.908,189.325 C47.839,189.215 47.773,189.087 47.705,188.969 C47.451,186.694 48.747,186.672 48.423,185.159 C48.091,183.614 47.994,181.465 47.442,180.251 C46.889,179.037 47.528,175.415 47.637,172.986 C47.748,170.556 47.244,162.986 47.465,158.903 C47.686,154.819 46.914,148.305 47.245,145.105 C47.577,141.903 48.375,131.264 49.038,124.09 C49.701,116.914 49.209,113.689 51.356,108.634 C52.025,107.059 53.326,105.276 53.258,103.011 C53.275,103.114 53.286,103.184 53.286,103.184 C53.286,103.184 53.73,102.176 54.613,99.748 C55.496,97.319 55.882,96.326 55.937,95.002 C55.993,93.677 56.269,91.634 56.82,89.758 C57.186,88.514 57.524,87.281 57.729,86.47 L57.768,86.481 L57.813,86.502 L57.856,86.505 C57.981,86.533 58.122,86.539 58.262,86.524 C58.674,86.532 58.707,86.448 59.137,86.061 C59.69,85.563 60.242,85.453 60.739,83.852 C61.236,82.252 62.229,79.492 61.731,79.768 C61.236,80.045 60.462,79.05 60.462,79.05 C60.462,79.05 60.353,79.712 60.408,77.671 C60.462,75.629 60.462,71.654 60.518,69.115 C60.573,66.577 60.462,61.609 59.635,55.04 C58.807,48.472 58.035,42.843 57.096,40.469 C56.234,38.286 54.56,36.757 51.638,35.281 L51.631,35.171 C50.362,34.342 42.304,30.81 41.145,30.259 C40.704,30.092 40.758,30.423 40.758,30.423 L40.764,30.46 L40.759,30.458 L40.758,30.423 L39.986,29.983 C39.379,29.32 38.881,26.671 38.495,26.064 C38.113,25.462 37.368,25.089 37.356,25.083 C37.289,23.978 37.325,21.7 37.612,21.316 C38.053,20.379 38.606,19.33 38.993,17.894 C39.489,18.281 40.427,17.674 40.924,16.957 C41.421,16.239 42.138,15.135 41.863,13.535 C41.586,11.934 40.647,11.824 40.647,11.824 C40.869,11.106 40.647,9.34 40.207,7.96 C39.765,6.58 39.379,5.476 38.219,4.096 C37.061,2.716 36.288,2.331 35.349,1.889 C34.412,1.448 33.418,1.006 32.478,0.84 C31.542,0.674 30.712,0.454 28.671,0.508 C26.628,0.563 25.414,1.889 24.918,2.551 C24.42,3.214 23.373,3.821 21.55,6.69 C19.729,9.561 21.496,13.204 21.607,14.749 C20.833,15.411 21.661,17.342 21.827,18.667 C21.993,19.992 22.82,19.662 23.152,19.33 C23.814,21.648 24.697,22.475 24.918,23.25 C25.073,23.793 25.037,25.67 25.002,26.738 C24.505,26.794 24.531,27.609 24.42,28.493 C24.312,29.376 24.145,30.203 23.649,31.528 L23.671,31.552 L23.661,31.559 L23.652,31.551 L23.649,31.528 C23.649,31.528 20.502,33.239 18.405,34.066 C16.308,34.895 12.444,36.936 12.113,37.324 C12.113,37.324 12.127,37.458 12.149,37.677 L12.071,37.725 C11.909,37.786 11.281,38.037 10.898,38.372 C10.795,38.462 10.757,38.533 10.755,38.597 C9.902,39.258 9.13,40.114 8.304,41.573 C6.649,44.499 7.035,46.651 6.649,50.129 C6.262,53.605 4.221,64.479 3.282,69.943 C2.343,75.407 2.342,81.921 2.399,82.748 C2.454,83.576 2.785,82.968 2.123,83.356 C1.46,83.742 1.35,84.239 0.853,84.128 C0.356,84.018 0.466,84.569 0.688,86.059 C0.909,87.55 1.129,88.047 1.902,89.041" fill-opacity="0" stroke="#006F0F" stroke-width="1"/>
    </g>
  </g>
</svg>
