<?xml version="1.0" encoding="UTF-8"?>
<!DOCTYPE svg PUBLIC "-//W3C//DTD SVG 1.1//EN" "http://www.w3.org/Graphics/SVG/1.1/DTD/svg11.dtd">
<svg version="1.1" xmlns="http://www.w3.org/2000/svg" xmlns:xlink="http://www.w3.org/1999/xlink" x="0" y="0" width="63.68" height="171.595" viewBox="0, 0, 63.68, 171.595">
  <g id="Background">
    <rect x="0" y="0" width="63.68" height="171.595" fill="#FFFFFF"/>
  </g>
  <g id="Layer_1">
    <g>
      <path d="M28.551,0.008 C33.338,-0.2 38.1,3.887 37.299,9.036 C38.656,9.119 38.399,11.551 38.344,12.426 C38.288,13.311 38.066,15.693 36.855,15.6 C36.876,16.408 36.914,17.323 36.762,18.095 C36.605,18.892 36.049,19.36 35.926,20.175 C35.802,21.003 36.001,21.847 35.658,22.596 C35.366,23.233 34.692,23.851 34.154,24.245 C32.804,25.232 30.663,26.532 29.997,26.871 C29.331,27.209 28.6,27.488 27.9,27.054 C27.201,26.621 26.071,25.556 25.488,24.962 C24.905,24.369 24.447,23.8 24.142,23.195 C23.616,22.148 23.744,21.1 23.292,20.077 C23.059,19.547 22.847,18.993 22.646,18.452 C22.456,17.934 22.373,17.139 22.128,16.687 C21.561,16.497 21.283,16.202 20.987,15.7 C20.819,15.412 20.551,14.308 20.521,13.976 C20.456,13.273 20.281,10.463 21.094,10.405 C21.282,9.874 21.286,9.163 21.312,8.617 C21.343,7.935 21.486,6.995 21.617,6.406 C21.877,5.249 21.899,4.877 22.373,3.835 C23.304,1.783 25.771,0.129 28.551,0.008" fill="#006F0F"/>
      <path d="M49.167,55.655 C48.897,56.719 48.841,57.817 48.58,58.899 C48.322,59.961 48.22,60.925 48.269,62.052 C48.325,63.342 48.195,64.605 48.251,65.91 C48.297,66.951 48.022,68.021 48.135,68.986 C48.832,68.154 49.331,67.218 50.084,66.397 C50.76,65.663 51.469,64.83 52.021,64.026 C52.291,63.633 52.518,63.235 52.807,62.851 C53.214,62.309 53.047,62.159 53.014,61.553 C52.989,61.105 53.263,60.524 53.2,60.185 C53.142,59.875 52.624,59.435 52.429,59.151 C51.819,58.26 51.486,57.256 51.177,56.262 C50.866,55.259 50.171,54.339 49.871,53.334 C49.764,53.624 49.279,55.216 49.167,55.655 z M10.888,58.588 C10.815,59.033 10.607,59.609 10.563,60.057 C10.461,61.082 10.549,61.849 10.173,62.793 C9.823,63.673 9.891,64.863 9.934,65.84 C9.981,66.904 9.9,67.933 9.882,68.934 C9.872,69.554 9.988,70.138 10.071,70.724 C10.137,71.191 10.058,71.529 10.056,72.21 C10.322,71.208 10.472,70.099 10.637,69.156 C11.008,67.032 11.016,64.883 11.346,62.746 C11.51,61.69 11.569,60.682 11.519,59.581 C11.494,59.048 11.444,58.672 11.394,58.133 C11.344,57.598 11.256,56.489 11.298,55.94 C11.116,56.721 11.034,57.684 10.888,58.588 z M48.306,96.081 C48.306,98.041 48.376,100.421 48.376,103.71 C48.376,107.001 48.096,114.63 47.886,117.432 C47.676,120.231 47.956,124.642 48.376,127.303 C48.796,129.964 49.619,139.22 49.986,142.528 C50.354,145.835 50.301,150.247 50.144,152.293 C49.986,154.341 49.776,156.493 49.409,157.647 C49.042,158.804 49.094,159.696 49.094,160.379 C49.094,161.061 49.042,161.691 48.832,161.849 C48.621,162.007 48.201,162.164 47.834,162.164 C48.569,163.057 49.356,164.054 50.249,164.893 C51.141,165.734 52.611,167.257 53.662,167.729 C54.711,168.203 55.657,168.779 55.761,169.462 C55.867,170.144 55.499,170.985 54.659,171.352 C53.819,171.72 50.563,171.561 49.094,171.561 C47.624,171.561 44.998,171.036 43.528,170.249 C43.528,170.249 40.483,170.249 39.905,170.249 C39.328,170.249 38.803,169.62 38.803,169.2 C38.803,168.779 38.803,168.464 38.751,167.625 C38.54,167.047 38.173,165.472 38.015,164.369 C37.858,163.267 37.963,160.432 38.226,159.959 C37.385,159.643 37.596,158.384 37.315,157.754 C37.035,157.124 36.895,156.284 36.405,154.183 C35.916,152.083 36.055,148.373 36.545,145.783 C37.036,143.192 36.825,140.882 36.266,138.993 C35.705,137.102 35.005,135.003 34.725,132.622 C34.445,130.241 34.165,125.692 33.395,121.282 C32.626,116.872 31.995,112.251 31.085,107.21 C30.175,102.17 29.325,99.175 28.49,95.869 C27.93,98.109 26.734,105.112 26.635,107.28 C26.449,111.327 25.484,114.77 24.995,117.642 C24.505,120.513 24.34,125.342 24.13,128.702 C23.92,132.063 23.594,139.482 23.875,141.793 C24.154,144.102 23.875,149.983 23.664,151.524 C23.455,153.063 22.475,156.284 22.475,157.474 C22.475,158.663 22.965,159.714 23.385,160.833 C23.804,161.954 23.244,163.143 22.895,164.194 C23.314,165.385 22.895,167.415 22.754,168.184 C22.614,168.954 22.265,169.304 21.915,169.304 C21.564,169.304 19.535,169.304 18.414,169.444 C17.154,170.144 13.813,170.915 12.133,170.985 C10.453,171.056 8.003,170.915 6.393,170.915 C4.783,170.915 4.573,170.215 4.713,169.165 C4.853,168.114 6.113,167.625 6.883,167.345 C7.653,167.065 8.914,166.085 9.613,165.313 C10.313,164.544 10.943,163.353 11.644,162.304 C11.293,162.164 10.874,161.604 10.803,161.045 C10.733,160.483 10.733,157.614 10.803,155.864 C10.874,154.114 10.909,146.308 11.013,144.208 C11.118,142.108 11.644,140.218 11.644,138.433 C11.644,136.647 11.434,134.337 11.328,132.132 C11.224,129.927 11.328,125.411 11.328,122.472 C11.328,119.531 11.869,113.021 11.659,109.556 C11.449,106.089 10.566,100.095 10.355,95.79 C8.871,95.79 6.77,96.013 6.645,94.398 C6.553,93.192 6.857,92.59 6.767,90.519 C6.23,90.296 5.733,90.225 5.135,90.003 C4.698,89.842 4.45,89.554 4.152,89.102 C2.665,86.851 3.017,81.863 2.587,80.52 C2.158,79.177 2.327,77.374 2.216,76.266 C2.106,75.156 1.631,72.762 1.355,70.701 C1.24,69.832 1.043,68.916 0.799,68.054 C0.542,67.142 -0.01,66.146 0,65.186 C0.007,64.551 0.527,64.007 0.598,63.422 C0.665,62.866 0.268,62.073 0.297,61.368 C0.33,60.61 0.589,59.94 0.76,59.209 C0.921,58.524 0.903,57.767 1.043,57.066 C1.65,54.059 2.645,51.114 3.346,48.074 C4.112,44.747 4.74,41.325 5.229,37.944 C5.446,36.44 5.731,34.973 5.981,33.475 C6.207,32.123 6.373,30.625 7.663,29.926 C10.097,28.606 13.055,27.583 15.788,26.435 C17.113,25.879 18.504,25.358 19.682,24.591 C20.672,23.946 21.894,22.288 23.121,21.939 C22.959,22.503 22.896,23.179 22.848,23.669 C22.694,23.861 21.767,24.969 21.332,26.706 C21.006,28.004 20.644,32.77 20.94,36.379 C21.236,39.987 23.196,45.565 24.715,49.538 C24.701,46.01 25.634,39.703 25.928,37.926 C26.223,36.149 26.978,34.306 28.063,31.519 C27.385,30.876 26.828,30.343 26.212,29.511 C26.565,29.078 26.947,28.644 27.655,28.009 C28.281,27.448 29.927,27.4 30.409,27.796 C30.816,28.133 31.568,28.837 32.301,29.687 C31.774,30.383 31.085,31.086 30.553,31.666 C31.085,33.222 31.897,36.413 32.022,38.218 C32.147,40.023 32.061,44.46 31.756,48.118 C32.657,46.408 34.006,43.285 34.715,40.376 C35.425,37.466 36.374,31.53 36.533,29.852 C36.692,28.173 36.893,24.265 36.784,22.83 C37.87,22.9 39.065,24.043 40.061,24.522 C41.446,25.188 42.948,25.579 44.289,26.2 C45.508,26.765 46.796,27.366 48.066,27.705 C49.206,28.009 50.615,28.283 51.519,29.174 C52.434,30.077 52.376,31.584 52.998,32.71 C53.638,33.87 54.261,35.079 55.008,36.248 C55.799,37.486 56.655,38.672 57.242,40.046 C57.798,41.349 58.11,42.727 58.601,44.075 C59.572,46.741 60.849,49.295 62.007,51.981 C63.17,54.683 63.7,57.54 63.679,60.566 C63.661,63.17 63.433,65.2 61.733,67.055 C60.227,68.699 58.022,71.394 56.862,72.466 C55.701,73.538 53.493,76.14 52.885,77.096 C52.277,78.05 51.068,80.145 50.801,80.435 C50.536,80.726 50.123,80.837 49.772,80.248 C49.599,80.534 49.341,81.01 49.027,81.256 C49.7,84.987 49.367,86.899 49.933,89.293 C50.18,90.335 50.041,94.382 50.103,94.878 C50.164,95.373 49.725,95.985 48.306,96.081" fill="#006F0F"/>
      <g>
        <path d="M36.426,20.675 C36.302,21.503 36.501,22.347 36.158,23.096 C35.866,23.733 35.192,24.351 34.654,24.745 C33.304,25.732 31.163,27.032 30.497,27.371 C29.831,27.709 29.1,27.988 28.4,27.554 C27.701,27.121 26.571,26.056 25.988,25.462 C25.405,24.869 24.947,24.3 24.642,23.695 C24.116,22.648 24.244,21.6 23.792,20.577" fill="#006F0F"/>
        <path d="M36.426,20.675 C36.302,21.503 36.501,22.347 36.158,23.096 C35.866,23.733 35.192,24.351 34.654,24.745 C33.304,25.732 31.163,27.032 30.497,27.371 C29.831,27.709 29.1,27.988 28.4,27.554 C27.701,27.121 26.571,26.056 25.988,25.462 C25.405,24.869 24.947,24.3 24.642,23.695 C24.116,22.648 24.244,21.6 23.792,20.577" fill-opacity="0" stroke="#DA267D" stroke-width="0.093"/>
      </g>
      <path d="M49.027,81.256 C48.321,80.327 44.727,74.541 44.394,72.575 C44.988,73.415 49.222,79.7 49.772,80.248 C49.599,80.534 49.341,81.01 49.027,81.256" fill="#FFFFFF"/>
    </g>
  </g>
</svg>
