<?xml version="1.0" encoding="UTF-8"?>
<!DOCTYPE svg PUBLIC "-//W3C//DTD SVG 1.1//EN" "http://www.w3.org/Graphics/SVG/1.1/DTD/svg11.dtd">
<svg version="1.1" xmlns="http://www.w3.org/2000/svg" xmlns:xlink="http://www.w3.org/1999/xlink" x="0" y="0" width="63.998" height="195.214" viewBox="0, 0, 63.998, 195.214">
  <g id="Background">
    <rect x="0" y="0" width="63.998" height="195.214" fill="#FFFFFF"/>
    <g stroke-width="1px">
      <line x1="12" y1="0" x2="12" y2="195.214" stroke="#AAAAAA" stroke-opacity="0.25"/>
      <line x1="24" y1="0" x2="24" y2="195.214" stroke="#AAAAAA" stroke-opacity="0.25"/>
      <line x1="36" y1="0" x2="36" y2="195.214" stroke="#AAAAAA" stroke-opacity="0.25"/>
      <line x1="48" y1="0" x2="48" y2="195.214" stroke="#AAAAAA" stroke-opacity="0.25"/>
      <line x1="60" y1="0" x2="60" y2="195.214" stroke="#AAAAAA" stroke-opacity="0.25"/>
      <line x1="0" y1="12" x2="63.998" y2="12" stroke="#AAAAAA" stroke-opacity="0.25"/>
      <line x1="0" y1="24" x2="63.998" y2="24" stroke="#AAAAAA" stroke-opacity="0.25"/>
      <line x1="0" y1="36" x2="63.998" y2="36" stroke="#AAAAAA" stroke-opacity="0.25"/>
      <line x1="0" y1="48" x2="63.998" y2="48" stroke="#AAAAAA" stroke-opacity="0.25"/>
      <line x1="0" y1="60" x2="63.998" y2="60" stroke="#AAAAAA" stroke-opacity="0.25"/>
      <line x1="0" y1="72" x2="63.998" y2="72" stroke="#AAAAAA" stroke-opacity="0.5"/>
      <line x1="0" y1="84" x2="63.998" y2="84" stroke="#AAAAAA" stroke-opacity="0.25"/>
      <line x1="0" y1="96" x2="63.998" y2="96" stroke="#AAAAAA" stroke-opacity="0.25"/>
      <line x1="0" y1="108" x2="63.998" y2="108" stroke="#AAAAAA" stroke-opacity="0.25"/>
      <line x1="0" y1="120" x2="63.998" y2="120" stroke="#AAAAAA" stroke-opacity="0.25"/>
      <line x1="0" y1="132" x2="63.998" y2="132" stroke="#AAAAAA" stroke-opacity="0.25"/>
      <line x1="0" y1="144" x2="63.998" y2="144" stroke="#AAAAAA" stroke-opacity="0.5"/>
      <line x1="0" y1="156" x2="63.998" y2="156" stroke="#AAAAAA" stroke-opacity="0.25"/>
      <line x1="0" y1="168" x2="63.998" y2="168" stroke="#AAAAAA" stroke-opacity="0.25"/>
      <line x1="0" y1="180" x2="63.998" y2="180" stroke="#AAAAAA" stroke-opacity="0.25"/>
      <line x1="0" y1="192" x2="63.998" y2="192" stroke="#AAAAAA" stroke-opacity="0.25"/>
    </g>
  </g>
  <g id="Layer_1">
    <g>
      <path d="M10.899,71.507 C11.599,70.884 10.899,69.765 10.899,69.765 C10.988,66.425 12.161,64.494 12.709,63.766 L12.715,63.861 C12.209,65.271 13.114,68.761 13.114,69.64 C13.114,70.636 12.297,74.868 12.182,76.363 C12.065,77.856 10.783,80.223 10.783,80.223 C10.783,80.223 9.733,78.603 9.85,77.981 C9.965,77.358 10.316,75.118 10.316,74.245 C10.316,73.374 10.199,72.13 10.899,71.507 z M49.564,71.001 C49.79,68.802 50.3,64.132 50.537,64.037 C50.674,64.138 50.808,64.251 50.942,64.364 C51.492,65.034 52.383,66.486 52.792,66.486 C52.872,66.486 52.869,66.414 52.821,66.297 C53.228,66.789 53.492,67.149 53.492,67.149 C53.492,67.452 53.826,69.925 54.424,73.042 C55,76.047 54.385,75.27 54.502,76.114 C54.656,77.228 55.127,76.606 55.084,79.849 C55.076,80.573 52.637,84.704 52.637,84.704 L51.314,88.272 C51.314,88.272 50.421,84.331 49.721,77.607 C49.486,75.344 49.471,73.05 49.564,71.001 z M0.639,84.413 C1.028,85.575 0.406,87.484 0.717,88.314 C1.028,89.145 2.117,91.717 2.427,92.879 C2.739,94.04 2.816,96.282 3.593,97.112 C4.322,97.891 5.435,97.915 5.572,97.915 C6.055,98.634 6.826,99.777 6.882,99.825 L9.313,101.798 L9.286,101.702 C9.379,101.832 9.467,101.948 9.541,102.032 C9.541,102.032 9.635,104.378 9.635,104.709 C9.635,104.709 9.733,106.823 9.423,109.23 C9.111,111.638 9.034,120.185 9.19,122.842 C9.343,125.498 10.2,130.892 10.2,134.461 C10.2,138.03 10.044,144.753 10.822,145.998 C11.599,147.243 9.656,148.819 9.734,150.895 C9.811,152.97 10.044,166.167 10.044,168.49 C10.044,170.814 11.599,177.454 11.287,178.201 C10.977,178.948 10.509,181.271 10.899,182.185 C10.899,182.185 7.168,183.098 7.245,184.261 C7.325,185.421 7.868,188.743 8.256,189.571 C8.256,189.571 7.557,191.48 6.857,191.896 C6.158,192.312 5.07,192.312 5.07,193.555 C5.07,194.801 4.06,194.884 4.68,194.967 C4.68,194.967 3.436,195.631 15.251,195.631 C15.251,195.631 16.417,195.051 16.883,195.299 C17.35,195.549 17.582,195.714 18.594,195.714 C19.604,195.714 20.226,195.714 20.226,195.714 C20.226,195.714 20.298,193.789 19.783,192.227 C19.844,192.213 19.999,192.103 20.397,191.702 C21.357,190.915 23.027,188.996 22.635,185.34 C22.48,183.763 21.391,183.181 21.391,182.683 C21.391,182.556 21.384,182.429 21.384,182.27 C21.459,181.734 21.652,181.003 22.014,179.944 C22.014,179.944 22.051,179.49 22.115,178.709 C22.373,177.351 22.494,175.118 22.595,172.77 C23.437,162.285 24.925,143.339 25.223,136.913 C25.418,135.306 25.695,133.942 25.986,132.75 C26.232,132.059 26.479,131.3 26.637,130.224 C26.676,130.073 26.717,129.92 26.753,129.772 C27.174,128.068 27.412,123.794 27.513,121.528 C27.583,120.86 27.657,120.186 27.731,119.518 C28.059,118.27 28.142,116.895 28.192,115.65 C28.445,113.702 28.681,112.229 28.853,111.886 C29.283,112.225 29.819,113.658 30.373,115.577 C30.504,116.109 30.642,116.686 30.795,117.364 C31.208,119.186 31.588,120.603 31.931,121.839 C32.755,125.531 33.423,129.031 33.591,129.923 C33.605,130.072 33.62,130.213 33.633,130.368 C33.605,131.768 33.678,132.972 33.808,134.017 C33.815,134.276 33.824,134.52 33.827,134.794 C33.827,134.794 34.293,137.201 34.838,138.528 C34.898,138.727 34.953,138.945 35.004,139.178 C35.303,140.97 35.102,144.708 35.849,147.243 C35.895,147.399 35.934,147.528 35.977,147.674 C36.214,148.778 36.555,149.749 36.84,150.559 C37.036,151.231 37.182,151.784 37.325,152.472 C37.297,153.298 37.036,153.878 36.971,154.725 C36.89,154.923 36.819,155.133 36.781,155.377 C36.625,156.373 37.092,157.037 37.092,158.862 C37.092,160.688 36.936,162.183 37.247,162.929 C37.557,163.677 37.169,164.424 37.092,165.586 C37.014,166.746 35.615,177.123 36.004,178.533 C36.392,179.944 36.781,180.608 39.501,183.264 C39.501,183.264 39.113,184.344 38.723,185.34 C38.335,186.336 38.102,187.663 38.025,188.576 C37.948,189.489 37.402,190.651 38.335,191.647 C39.267,192.644 38.88,193.224 38.88,193.474 C38.88,193.722 37.557,194.884 38.181,195.299 C38.802,195.714 49.606,195.299 49.606,195.299 C49.606,195.299 49.684,193.889 49.606,193.39 C49.528,192.893 48.517,189.737 48.363,188.743 C48.363,188.743 49.294,187.913 49.294,186.834 C49.294,185.755 48.595,185.588 48.828,184.925 C49.061,184.261 50.537,184.675 52.17,174.134 C53.802,163.594 51.083,152.306 50.537,144.421 C49.994,136.536 49.605,109.812 49.528,102.424 C49.528,102.424 51.549,99.187 52.792,97.942 C52.898,97.837 52.98,97.704 53.051,97.56 C53.504,97.312 55.839,95.896 56.004,95.688 L56.017,95.753 L57.62,94.943 L57.619,94.938 L57.738,95.036 L57.97,95.41 C57.97,95.41 61.613,91.427 62.079,90.181 C62.546,88.937 63.479,86.321 64.178,85.45 C64.878,84.579 64.178,79.226 64.411,76.237 C64.645,73.251 64.06,71.88 63.595,70.263 C63.129,68.644 61.147,61.548 61.031,59.431 C60.914,57.313 56.368,44.491 56.249,42.997 C56.133,41.502 54.735,40.508 54.851,39.636 C54.968,38.764 54.268,37.52 54.268,37.52 C54.268,37.52 40.627,33.286 39.696,32.166 C39.012,31.347 38.458,30.73 38.208,30.457 C37.879,29.368 37.533,28.728 37.247,28.307 L37.198,28.305 C37.111,28.093 37.014,27.975 37.014,27.975 C37.325,26.979 37.557,24.405 38.025,23.907 C38.491,23.41 39.734,22.082 40.279,21.086 C40.823,20.09 41.056,17.766 40.9,17.102 C40.745,16.438 40.201,16.77 40.433,16.354 C40.667,15.94 40.823,14.944 40.744,14.113 C40.667,13.283 40.823,13.533 41.289,11.789 C41.755,10.047 41.211,9.716 40.9,7.972 C40.588,6.229 39.346,4.9 38.802,4.486 C38.257,4.071 38.802,3.407 38.802,3.407 C38.802,3.407 38.025,3.407 37.557,2.826 C37.092,2.244 37.636,1.664 37.636,1.664 C37.636,1.664 37.014,2.162 36.625,2.245 C36.236,2.328 34.838,0.917 34.372,0.585 C33.904,0.253 34.216,1.001 33.749,1.001 C33.284,1.001 32.194,0.751 30.952,0.917 C29.707,1.082 27.765,2.576 27.22,2.909 C26.676,3.241 26.676,2.659 26.444,2.659 C26.21,2.659 26.444,3.241 25.977,3.49 C25.51,3.739 23.568,6.063 22.946,6.893 C22.324,7.724 22.403,11.873 22.556,13.699 C22.713,15.524 23.101,15.192 22.635,15.691 C22.168,16.188 22.619,20.416 22.869,20.837 C23.227,21.445 23.879,21.334 23.956,22.414 C24.035,23.492 24.578,26.979 25.278,28.307 C25.278,28.307 24.853,28.565 24.478,29.084 L24.5,28.972 C24.5,28.972 24.446,29.091 24.362,29.267 C24.255,29.437 24.155,29.623 24.078,29.839 C23.77,30.44 23.364,31.154 23.101,31.295 C22.635,31.543 12.375,34.448 9.111,35.859 C9.111,35.859 7.79,35.941 7.79,36.44 C7.79,36.938 7.557,38.764 7.168,39.594 C6.779,40.425 4.992,45.57 5.303,46.814 C5.614,48.061 5.692,48.89 5.07,50.633 C4.447,52.376 3.593,59.764 3.126,61.838 C2.66,63.913 1.884,68.312 1.339,69.89 C0.795,71.466 1.338,75.948 0.795,77.524 C0.25,79.102 0.951,79.599 0.872,80.264 C0.795,80.927 0.25,83.252 0.639,84.413" fill="#006F0F"/>
      <path d="M10.899,71.507 C11.599,70.884 10.899,69.765 10.899,69.765 C10.988,66.425 12.161,64.494 12.709,63.766 L12.715,63.861 C12.209,65.271 13.114,68.761 13.114,69.64 C13.114,70.636 12.297,74.868 12.182,76.363 C12.065,77.856 10.783,80.223 10.783,80.223 C10.783,80.223 9.733,78.603 9.85,77.981 C9.965,77.358 10.316,75.118 10.316,74.245 C10.316,73.374 10.199,72.13 10.899,71.507 z M49.564,71.001 C49.79,68.802 50.3,64.132 50.537,64.037 C50.674,64.138 50.808,64.251 50.942,64.364 C51.492,65.034 52.383,66.486 52.792,66.486 C52.872,66.486 52.869,66.414 52.821,66.297 C53.228,66.789 53.492,67.149 53.492,67.149 C53.492,67.452 53.826,69.925 54.424,73.042 C55,76.047 54.385,75.27 54.502,76.114 C54.656,77.228 55.127,76.606 55.084,79.849 C55.076,80.573 52.637,84.704 52.637,84.704 L51.314,88.272 C51.314,88.272 50.421,84.331 49.721,77.607 C49.486,75.344 49.471,73.05 49.564,71.001 z M0.639,84.413 C1.028,85.575 0.406,87.484 0.717,88.314 C1.028,89.145 2.117,91.717 2.427,92.879 C2.739,94.04 2.816,96.282 3.593,97.112 C4.322,97.891 5.435,97.915 5.572,97.915 C6.055,98.634 6.826,99.777 6.882,99.825 L9.313,101.798 L9.286,101.702 C9.379,101.832 9.467,101.948 9.541,102.032 C9.541,102.032 9.635,104.378 9.635,104.709 C9.635,104.709 9.733,106.823 9.423,109.23 C9.111,111.638 9.034,120.185 9.19,122.842 C9.343,125.498 10.2,130.892 10.2,134.461 C10.2,138.03 10.044,144.753 10.822,145.998 C11.599,147.243 9.656,148.819 9.734,150.895 C9.811,152.97 10.044,166.167 10.044,168.49 C10.044,170.814 11.599,177.454 11.287,178.201 C10.977,178.948 10.509,181.271 10.899,182.185 C10.899,182.185 7.168,183.098 7.245,184.261 C7.325,185.421 7.868,188.743 8.256,189.571 C8.256,189.571 7.557,191.48 6.857,191.896 C6.158,192.312 5.07,192.312 5.07,193.555 C5.07,194.801 4.06,194.884 4.68,194.967 C4.68,194.967 3.436,195.631 15.251,195.631 C15.251,195.631 16.417,195.051 16.883,195.299 C17.35,195.549 17.582,195.714 18.594,195.714 C19.604,195.714 20.226,195.714 20.226,195.714 C20.226,195.714 20.298,193.789 19.783,192.227 C19.844,192.213 19.999,192.103 20.397,191.702 C21.357,190.915 23.027,188.996 22.635,185.34 C22.48,183.763 21.391,183.181 21.391,182.683 C21.391,182.556 21.384,182.429 21.384,182.27 C21.459,181.734 21.652,181.003 22.014,179.944 C22.014,179.944 22.051,179.49 22.115,178.709 C22.373,177.351 22.494,175.118 22.595,172.77 C23.437,162.285 24.925,143.339 25.223,136.913 C25.418,135.306 25.695,133.942 25.986,132.75 C26.232,132.059 26.479,131.3 26.637,130.224 C26.676,130.073 26.717,129.92 26.753,129.772 C27.174,128.068 27.412,123.794 27.513,121.528 C27.583,120.86 27.657,120.186 27.731,119.518 C28.059,118.27 28.142,116.895 28.192,115.65 C28.445,113.702 28.681,112.229 28.853,111.886 C29.283,112.225 29.819,113.658 30.373,115.577 C30.504,116.109 30.642,116.686 30.795,117.364 C31.208,119.186 31.588,120.603 31.931,121.839 C32.755,125.531 33.423,129.031 33.591,129.923 C33.605,130.072 33.62,130.213 33.633,130.368 C33.605,131.768 33.678,132.972 33.808,134.017 C33.815,134.276 33.824,134.52 33.827,134.794 C33.827,134.794 34.293,137.201 34.838,138.528 C34.898,138.727 34.953,138.945 35.004,139.178 C35.303,140.97 35.102,144.708 35.849,147.243 C35.895,147.399 35.934,147.528 35.977,147.674 C36.214,148.778 36.555,149.749 36.84,150.559 C37.036,151.231 37.182,151.784 37.325,152.472 C37.297,153.298 37.036,153.878 36.971,154.725 C36.89,154.923 36.819,155.133 36.781,155.377 C36.625,156.373 37.092,157.037 37.092,158.862 C37.092,160.688 36.936,162.183 37.247,162.929 C37.557,163.677 37.169,164.424 37.092,165.586 C37.014,166.746 35.615,177.123 36.004,178.533 C36.392,179.944 36.781,180.608 39.501,183.264 C39.501,183.264 39.113,184.344 38.723,185.34 C38.335,186.336 38.102,187.663 38.025,188.576 C37.948,189.489 37.402,190.651 38.335,191.647 C39.267,192.644 38.88,193.224 38.88,193.474 C38.88,193.722 37.557,194.884 38.181,195.299 C38.802,195.714 49.606,195.299 49.606,195.299 C49.606,195.299 49.684,193.889 49.606,193.39 C49.528,192.893 48.517,189.737 48.363,188.743 C48.363,188.743 49.294,187.913 49.294,186.834 C49.294,185.755 48.595,185.588 48.828,184.925 C49.061,184.261 50.537,184.675 52.17,174.134 C53.802,163.594 51.083,152.306 50.537,144.421 C49.994,136.536 49.605,109.812 49.528,102.424 C49.528,102.424 51.549,99.187 52.792,97.942 C52.898,97.837 52.98,97.704 53.051,97.56 C53.504,97.312 55.839,95.896 56.004,95.688 L56.017,95.753 L57.62,94.943 L57.619,94.938 L57.738,95.036 L57.97,95.41 C57.97,95.41 61.613,91.427 62.079,90.181 C62.546,88.937 63.479,86.321 64.178,85.45 C64.878,84.579 64.178,79.226 64.411,76.237 C64.645,73.251 64.06,71.88 63.595,70.263 C63.129,68.644 61.147,61.548 61.031,59.431 C60.914,57.313 56.368,44.491 56.249,42.997 C56.133,41.502 54.735,40.508 54.851,39.636 C54.968,38.764 54.268,37.52 54.268,37.52 C54.268,37.52 40.627,33.286 39.696,32.166 C39.012,31.347 38.458,30.73 38.208,30.457 C37.879,29.368 37.533,28.728 37.247,28.307 L37.198,28.305 C37.111,28.093 37.014,27.975 37.014,27.975 C37.325,26.979 37.557,24.405 38.025,23.907 C38.491,23.41 39.734,22.082 40.279,21.086 C40.823,20.09 41.056,17.766 40.9,17.102 C40.745,16.438 40.201,16.77 40.433,16.354 C40.667,15.94 40.823,14.944 40.744,14.113 C40.667,13.283 40.823,13.533 41.289,11.789 C41.755,10.047 41.211,9.716 40.9,7.972 C40.588,6.229 39.346,4.9 38.802,4.486 C38.257,4.071 38.802,3.407 38.802,3.407 C38.802,3.407 38.025,3.407 37.557,2.826 C37.092,2.244 37.636,1.664 37.636,1.664 C37.636,1.664 37.014,2.162 36.625,2.245 C36.236,2.328 34.838,0.917 34.372,0.585 C33.904,0.253 34.216,1.001 33.749,1.001 C33.284,1.001 32.194,0.751 30.952,0.917 C29.707,1.082 27.765,2.576 27.22,2.909 C26.676,3.241 26.676,2.659 26.444,2.659 C26.21,2.659 26.444,3.241 25.977,3.49 C25.51,3.739 23.568,6.063 22.946,6.893 C22.324,7.724 22.403,11.873 22.556,13.699 C22.713,15.524 23.101,15.192 22.635,15.691 C22.168,16.188 22.619,20.416 22.869,20.837 C23.227,21.445 23.879,21.334 23.956,22.414 C24.035,23.492 24.578,26.979 25.278,28.307 C25.278,28.307 24.853,28.565 24.478,29.084 L24.5,28.972 C24.5,28.972 24.446,29.091 24.362,29.267 C24.255,29.437 24.155,29.623 24.078,29.839 C23.77,30.44 23.364,31.154 23.101,31.295 C22.635,31.543 12.375,34.448 9.111,35.859 C9.111,35.859 7.79,35.941 7.79,36.44 C7.79,36.938 7.557,38.764 7.168,39.594 C6.779,40.425 4.992,45.57 5.303,46.814 C5.614,48.061 5.692,48.89 5.07,50.633 C4.447,52.376 3.593,59.764 3.126,61.838 C2.66,63.913 1.884,68.312 1.339,69.89 C0.795,71.466 1.338,75.948 0.795,77.524 C0.25,79.102 0.951,79.599 0.872,80.264 C0.795,80.927 0.25,83.252 0.639,84.413" fill-opacity="0" stroke="#006F0F" stroke-width="1"/>
    </g>
  </g>
</svg>
