<?xml version="1.0" encoding="UTF-8"?>
<!DOCTYPE svg PUBLIC "-//W3C//DTD SVG 1.1//EN" "http://www.w3.org/Graphics/SVG/1.1/DTD/svg11.dtd">
<svg version="1.1" xmlns="http://www.w3.org/2000/svg" xmlns:xlink="http://www.w3.org/1999/xlink" x="0" y="0" width="512" height="512" viewBox="0, 0, 512, 512">
  <g id="Background">
    <rect x="0" y="0" width="512" height="512" fill="#006F0F"/>
  </g>
  <g id="Background">
    <path d="M0,0 L512,0 L512,512 L0,512 z" fill="#FFFFFF"/>
  </g>
  <g id="Layer_1">
    <g>
      <path d="M256.5,459.5 C144.386,459.5 53.5,368.614 53.5,256.5 C53.5,144.386 144.386,53.5 256.5,53.5 C368.614,53.5 459.5,144.386 459.5,256.5 C459.5,368.614 368.614,459.5 256.5,459.5 z" fill="#FFFFFF"/>
      <path d="M256.5,459.5 C144.386,459.5 53.5,368.614 53.5,256.5 C53.5,144.386 144.386,53.5 256.5,53.5 C368.614,53.5 459.5,144.386 459.5,256.5 C459.5,368.614 368.614,459.5 256.5,459.5 z" fill-opacity="0" stroke="#006F10" stroke-width="15"/>
    </g>
    <g>
      <path d="M303.499,245.946 C300.906,243.801 299.295,242.967 299.244,242.94 C299.668,243.053 300.082,243.215 300.444,243.45 C301.15,243.909 303.021,245.497 304.627,246.879 C304.325,246.629 303.957,246.325 303.499,245.946 z M213.41,247.227 C213.662,247.033 213.936,246.826 214.232,246.61 C213.947,246.833 213.7,247.049 213.502,247.258 L213.41,247.227 z M222.115,243.516 C220.93,243.618 219.286,243.942 218.11,244.443 C216.952,244.937 215.959,245.456 215.152,245.966 C216.994,244.735 219.41,243.503 222.115,243.516 z M228.205,198.014 C228.351,199.23 228.497,200.453 228.461,201.678 C228.426,202.937 228.2,204.183 227.959,205.42 C227.657,206.972 228.017,208.519 227.624,210.05 C227.164,211.838 226.614,213.601 226.064,215.363 C225.924,215.811 225.705,216.333 225.243,216.418 C224.532,212.726 224.632,208.882 225.531,205.232 C225.883,203.804 226.36,202.36 226.212,200.897 C226.119,199.979 225.783,199.105 225.574,198.206 C224.967,195.591 225.452,192.862 225.939,190.222 C226.272,188.414 226.605,186.605 226.939,184.797 C227.495,186.352 227.695,188.007 227.891,189.646 C228.225,192.436 227.871,195.225 228.205,198.014 z M245.825,126.457 C245.805,126.225 245.809,126.03 245.818,125.887 C245.834,126.175 245.837,126.378 245.825,126.457 z M292.038,181.866 C292.101,181.511 292.244,181.078 292.601,181.034 C292.8,181.01 293.62,183.585 293.669,183.779 C294.218,185.934 294.415,186.598 294.349,187.735 C294.183,190.644 294.092,192.237 293.926,195.145 C293.842,196.623 293.799,198.244 294.704,199.415 C295.051,199.865 295.549,200.29 295.531,200.858 C295.514,201.375 295.053,201.808 295.07,202.325 C295.082,202.685 295.32,202.99 295.493,203.306 C295.883,204.02 295.947,204.86 296.004,205.672 C296.09,206.906 296.176,208.14 296.262,209.375 C296.307,210.014 296.351,210.66 296.25,211.293 C296.156,211.878 295.94,212.435 295.763,213 C295.353,214.302 294.545,220.866 294.537,222.23 C294.536,222.513 294.32,222.92 294.101,222.741 C294.032,222.685 294.013,222.59 293.998,222.504 C293.125,217.59 293.865,207.502 292.364,202.742 C292.184,202.174 292,201.603 291.919,201.014 C291.82,200.303 291.874,199.581 291.932,198.865 C292.345,193.812 291.149,186.857 292.038,181.866 z M298.667,242.818 C298.51,242.791 298.356,242.77 298.207,242.755 C298.357,242.77 298.511,242.792 298.667,242.818 z M299.223,242.934 C299.057,242.892 298.893,242.857 298.73,242.828 C298.895,242.857 299.059,242.892 299.223,242.934 z M297.731,242.722 C297.879,242.728 298.031,242.737 298.188,242.753 C298.03,242.737 297.877,242.728 297.731,242.722 z M295.404,246.425 L295.454,246.543 C295.534,246.523 295.616,246.521 295.698,246.52 C295.524,246.591 295.281,246.749 294.999,246.964 C295.172,246.774 295.302,246.594 295.404,246.425 z M297.691,242.72 C296.934,242.694 296.362,242.78 296.232,242.803 C296.339,242.768 296.934,242.692 297.691,242.72 z M313.292,201.759 C313.074,193.139 311.481,184.41 310.264,175.892 C309.177,168.281 308.016,160.68 306.793,153.09 C306.114,148.881 304.664,133.037 300.928,133.571 C300.928,133.571 276.895,128.789 274.223,127.652 C271.573,126.525 271.21,125.127 270.434,125.649 L270.433,125.65 C269.723,125.008 268.738,124.495 268.436,124.344 C267.988,124.12 267.147,123.5 267.563,124.023 C267.326,123.798 267.127,123.544 266.978,123.229 C266.464,122.142 266.406,116.372 266.406,116.372 C267.594,113.855 267.265,108.365 267.265,108.365 C268.694,108.765 269.609,105.791 270.239,103.847 C270.868,101.902 271.783,101.216 270.811,99.328 C269.839,97.441 267.551,99.042 267.551,99.042 C267.779,96.411 267.093,89.49 265.835,85.315 C264.576,81.14 254.166,77.537 249.819,77.48 C245.473,77.422 240.21,80.568 238.037,83.314 C235.864,86.059 235.807,86.745 236.148,91.778 C236.467,96.476 238.733,101.871 239.034,102.569 L239.04,102.616 L239.04,102.62 C238.646,102.271 237.05,101.651 236.436,103.103 C234.606,107.793 242.098,113.57 242.098,113.57 C242.67,117.631 245.015,118.546 245.187,119.632 C245.318,120.464 245.688,123.92 245.8,125.586 C245.58,125.342 245.034,125.773 244.291,126.485 C244.022,126.422 243.575,126.558 242.994,127.118 C242.108,127.974 240.859,128.415 237.389,129.901 C233.919,131.389 218.949,136.581 217.001,137.256 C214.98,137.956 215.505,136.351 214.396,140.021 C212.725,145.549 212.034,151.503 211.09,157.182 C209.543,166.483 208.153,175.813 206.955,185.165 C206.398,189.505 205.883,193.851 205.471,198.207 C205.301,200.007 205.147,201.809 205.031,203.614 C204.982,204.386 204.951,205.158 204.906,205.929 C204.837,207.118 204.286,208.113 204.754,209.313 C204.926,209.755 205.191,210.159 205.338,210.61 C205.661,211.597 205.492,212.927 205.645,213.996 C205.788,215.003 205.937,216.009 206.087,217.014 C206.431,219.308 206.788,221.601 207.154,223.892 C207.911,228.642 208.697,233.388 209.526,238.125 C209.948,240.531 210.373,242.938 210.846,245.334 C210.97,245.963 211.032,247.893 211.561,248.355 C211.75,248.521 212.371,248.022 213.326,247.29 L213.354,247.424 L213.251,247.541 C213.251,247.541 214.312,251.402 214.824,251.194 C214.954,251.141 215.264,250.89 215.75,250.525 C216.085,251.726 218.273,259.002 222.608,260.994 C222.574,261.597 222.54,262.199 222.51,262.802 C221.933,274.178 222.793,279.464 223.66,294.742 C224.926,317.049 223.096,333.281 222.269,336.383 C221.442,339.485 220.059,372.241 220.028,378.655 C220.008,382.873 220.213,401.375 219.799,403.03 C219.385,404.684 220.627,408.477 221.247,409.718 C221.867,410.959 221.177,413.027 221.384,415.095 C221.591,417.163 221.798,421.299 222.418,420.886 C222.527,420.813 223.031,420.644 223.805,420.431 C223.837,421.535 223.771,423.019 223.328,424.309 C222.501,426.722 219.192,429.686 218.778,432.168 C218.365,434.649 218.778,435.132 218.778,435.132 C218.778,435.132 218.548,436.235 218.594,437.062 C218.64,437.889 219.418,438.027 221.201,438.441 C222.983,438.855 231.807,439.751 236.495,437.407 C236.495,437.407 237.529,436.649 237.736,436.166 C237.943,435.683 237.736,434.58 237.736,434.58 C237.736,434.58 236.955,433.822 237.828,433.34 C238.701,432.857 239.735,432.65 239.804,432.099 C239.873,431.547 239.459,427.687 239.459,427.687 C239.459,427.687 239.682,426.515 239.812,425.55 C239.942,424.585 240.49,421.433 239.183,418.943 C239.959,419.103 240.657,419.33 241.239,419.645 C241.239,419.645 241.652,419.852 242.273,415.715 C242.893,411.579 244.134,399.928 243.306,395.171 C242.48,390.415 244.754,375.938 244.961,364.565 C245.168,353.19 247.997,325.374 249.923,313.963 C250.287,311.81 250.971,307.909 251.809,303.291 C252.012,302.173 252.478,299.636 252.668,298.603 C252.906,297.316 253.15,296.004 253.399,294.683 C253.483,294.27 253.56,293.852 253.635,293.431 C254.278,290.032 254.939,286.622 255.571,283.498 L255.572,283.492 C257.228,275.297 258.674,269.088 259.023,270.328 C259.877,273.371 270.058,329.191 270.81,336.233 C271.605,343.681 271.085,349.054 271.705,353.604 C272.326,358.154 271.705,377.386 271.705,377.386 C272.119,383.384 272.257,390.001 271.981,393.93 C271.705,397.86 271.498,405.168 271.291,407.236 C271.085,409.304 270.671,409.511 271.291,410.959 C271.912,412.407 270.683,417.99 272.125,419.645 C272.519,420.097 273.467,420.011 274.789,419.755 C274.841,420.009 274.867,420.258 274.824,420.448 C274.686,421.069 273.352,425.55 274.846,427.549 C274.846,427.549 274.442,427.963 274.495,428.79 C274.549,429.617 274.495,432.788 274.495,432.788 C274.495,432.788 275.928,433.409 277.03,434.098 C278.133,434.787 277.168,435.959 277.513,437.2 C277.857,438.441 278.823,438.511 280.409,438.959 C281.994,439.406 289.026,440.578 293.024,439.544 C293.024,439.544 295.506,438.786 296.264,437.889 C296.264,437.889 296.471,435.89 296.264,435.615 C296.057,435.339 296.609,434.167 296.057,432.65 C295.506,431.134 291.714,426.79 291.162,424.929 C290.676,423.288 289.816,423.037 289.903,420.827 L290.043,420.914 C290.043,420.914 290.456,420.886 291.697,416.956 C292.938,413.027 294.385,411.166 294.179,408.891 C293.972,406.616 293.598,399.1 294.199,397.032 C294.799,394.964 295.833,380.695 296.453,375.732 C297.073,370.769 295.474,335.718 294.65,325.131 C294.362,321.432 295.064,279.506 295.891,270.2 C296.082,268.05 296.061,264.959 295.914,261.475 C297.6,260.216 300.315,258.167 300.632,257.789 C301.061,257.278 303.017,251.823 303.301,251.028 C303.507,251.178 303.713,251.327 303.919,251.475 C304.029,251.554 304.148,251.637 304.284,251.642 C304.571,251.654 304.746,251.337 304.849,251.068 C304.964,250.767 305.067,250.462 305.174,250.158 C305.539,249.249 305.869,248.211 305.933,248.006 C306.341,248.358 306.686,248.656 306.925,248.858 C307.352,249.22 307.393,248.016 307.592,247.492 C308.023,246.364 308.095,245.006 308.279,243.824 C308.673,241.296 309.023,238.761 309.368,236.226 C310.072,231.057 310.734,225.884 311.381,220.708 C311.686,218.259 311.987,215.809 312.282,213.359 C312.419,212.225 312.618,211.082 312.69,209.942 C312.731,209.275 312.592,208.571 312.684,207.914 C312.786,207.18 313.241,206.636 313.479,205.953 C313.714,205.279 313.655,204.509 313.543,203.735 C313.446,203.057 313.309,202.377 313.292,201.759" fill="#006F0F"/>
      <path d="M303.499,245.946 C300.906,243.801 299.295,242.967 299.244,242.94 C299.668,243.053 300.082,243.215 300.444,243.45 C301.15,243.909 303.021,245.497 304.627,246.879 C304.325,246.629 303.957,246.325 303.499,245.946 z M213.41,247.227 C213.662,247.033 213.936,246.826 214.232,246.61 C213.947,246.833 213.7,247.049 213.502,247.258 L213.41,247.227 z M222.115,243.516 C220.93,243.618 219.286,243.942 218.11,244.443 C216.952,244.937 215.959,245.456 215.152,245.966 C216.994,244.735 219.41,243.503 222.115,243.516 z M228.205,198.014 C228.351,199.23 228.497,200.453 228.461,201.678 C228.426,202.937 228.2,204.183 227.959,205.42 C227.657,206.972 228.017,208.519 227.624,210.05 C227.164,211.838 226.614,213.601 226.064,215.363 C225.924,215.811 225.705,216.333 225.243,216.418 C224.532,212.726 224.632,208.882 225.531,205.232 C225.883,203.804 226.36,202.36 226.212,200.897 C226.119,199.979 225.783,199.105 225.574,198.206 C224.967,195.591 225.452,192.862 225.939,190.222 C226.272,188.414 226.605,186.605 226.939,184.797 C227.495,186.352 227.695,188.007 227.891,189.646 C228.225,192.436 227.871,195.225 228.205,198.014 z M245.825,126.457 C245.805,126.225 245.809,126.03 245.818,125.887 C245.834,126.175 245.837,126.378 245.825,126.457 z M292.038,181.866 C292.101,181.511 292.244,181.078 292.601,181.034 C292.8,181.01 293.62,183.585 293.669,183.779 C294.218,185.934 294.415,186.598 294.349,187.735 C294.183,190.644 294.092,192.237 293.926,195.145 C293.842,196.623 293.799,198.244 294.704,199.415 C295.051,199.865 295.549,200.29 295.531,200.858 C295.514,201.375 295.053,201.808 295.07,202.325 C295.082,202.685 295.32,202.99 295.493,203.306 C295.883,204.02 295.947,204.86 296.004,205.672 C296.09,206.906 296.176,208.14 296.262,209.375 C296.307,210.014 296.351,210.66 296.25,211.293 C296.156,211.878 295.94,212.435 295.763,213 C295.353,214.302 294.545,220.866 294.537,222.23 C294.536,222.513 294.32,222.92 294.101,222.741 C294.032,222.685 294.013,222.59 293.998,222.504 C293.125,217.59 293.865,207.502 292.364,202.742 C292.184,202.174 292,201.603 291.919,201.014 C291.82,200.303 291.874,199.581 291.932,198.865 C292.345,193.812 291.149,186.857 292.038,181.866 z M298.667,242.818 C298.51,242.791 298.356,242.77 298.207,242.755 C298.357,242.77 298.511,242.792 298.667,242.818 z M299.223,242.934 C299.057,242.892 298.893,242.857 298.73,242.828 C298.895,242.857 299.059,242.892 299.223,242.934 z M297.731,242.722 C297.879,242.728 298.031,242.737 298.188,242.753 C298.03,242.737 297.877,242.728 297.731,242.722 z M295.404,246.425 L295.454,246.543 C295.534,246.523 295.616,246.521 295.698,246.52 C295.524,246.591 295.281,246.749 294.999,246.964 C295.172,246.774 295.302,246.594 295.404,246.425 z M297.691,242.72 C296.934,242.694 296.362,242.78 296.232,242.803 C296.339,242.768 296.934,242.692 297.691,242.72 z M313.292,201.759 C313.074,193.139 311.481,184.41 310.264,175.892 C309.177,168.281 308.016,160.68 306.793,153.09 C306.114,148.881 304.664,133.037 300.928,133.571 C300.928,133.571 276.895,128.789 274.223,127.652 C271.573,126.525 271.21,125.127 270.434,125.649 L270.433,125.65 C269.723,125.008 268.738,124.495 268.436,124.344 C267.988,124.12 267.147,123.5 267.563,124.023 C267.326,123.798 267.127,123.544 266.978,123.229 C266.464,122.142 266.406,116.372 266.406,116.372 C267.594,113.855 267.265,108.365 267.265,108.365 C268.694,108.765 269.609,105.791 270.239,103.847 C270.868,101.902 271.783,101.216 270.811,99.328 C269.839,97.441 267.551,99.042 267.551,99.042 C267.779,96.411 267.093,89.49 265.835,85.315 C264.576,81.14 254.166,77.537 249.819,77.48 C245.473,77.422 240.21,80.568 238.037,83.314 C235.864,86.059 235.807,86.745 236.148,91.778 C236.467,96.476 238.733,101.871 239.034,102.569 L239.04,102.616 L239.04,102.62 C238.646,102.271 237.05,101.651 236.436,103.103 C234.606,107.793 242.098,113.57 242.098,113.57 C242.67,117.631 245.015,118.546 245.187,119.632 C245.318,120.464 245.688,123.92 245.8,125.586 C245.58,125.342 245.034,125.773 244.291,126.485 C244.022,126.422 243.575,126.558 242.994,127.118 C242.108,127.974 240.859,128.415 237.389,129.901 C233.919,131.389 218.949,136.581 217.001,137.256 C214.98,137.956 215.505,136.351 214.396,140.021 C212.725,145.549 212.034,151.503 211.09,157.182 C209.543,166.483 208.153,175.813 206.955,185.165 C206.398,189.505 205.883,193.851 205.471,198.207 C205.301,200.007 205.147,201.809 205.031,203.614 C204.982,204.386 204.951,205.158 204.906,205.929 C204.837,207.118 204.286,208.113 204.754,209.313 C204.926,209.755 205.191,210.159 205.338,210.61 C205.661,211.597 205.492,212.927 205.645,213.996 C205.788,215.003 205.937,216.009 206.087,217.014 C206.431,219.308 206.788,221.601 207.154,223.892 C207.911,228.642 208.697,233.388 209.526,238.125 C209.948,240.531 210.373,242.938 210.846,245.334 C210.97,245.963 211.032,247.893 211.561,248.355 C211.75,248.521 212.371,248.022 213.326,247.29 L213.354,247.424 L213.251,247.541 C213.251,247.541 214.312,251.402 214.824,251.194 C214.954,251.141 215.264,250.89 215.75,250.525 C216.085,251.726 218.273,259.002 222.608,260.994 C222.574,261.597 222.54,262.199 222.51,262.802 C221.933,274.178 222.793,279.464 223.66,294.742 C224.926,317.049 223.096,333.281 222.269,336.383 C221.442,339.485 220.059,372.241 220.028,378.655 C220.008,382.873 220.213,401.375 219.799,403.03 C219.385,404.684 220.627,408.477 221.247,409.718 C221.867,410.959 221.177,413.027 221.384,415.095 C221.591,417.163 221.798,421.299 222.418,420.886 C222.527,420.813 223.031,420.644 223.805,420.431 C223.837,421.535 223.771,423.019 223.328,424.309 C222.501,426.722 219.192,429.686 218.778,432.168 C218.365,434.649 218.778,435.132 218.778,435.132 C218.778,435.132 218.548,436.235 218.594,437.062 C218.64,437.889 219.418,438.027 221.201,438.441 C222.983,438.855 231.807,439.751 236.495,437.407 C236.495,437.407 237.529,436.649 237.736,436.166 C237.943,435.683 237.736,434.58 237.736,434.58 C237.736,434.58 236.955,433.822 237.828,433.34 C238.701,432.857 239.735,432.65 239.804,432.099 C239.873,431.547 239.459,427.687 239.459,427.687 C239.459,427.687 239.682,426.515 239.812,425.55 C239.942,424.585 240.49,421.433 239.183,418.943 C239.959,419.103 240.657,419.33 241.239,419.645 C241.239,419.645 241.652,419.852 242.273,415.715 C242.893,411.579 244.134,399.928 243.306,395.171 C242.48,390.415 244.754,375.938 244.961,364.565 C245.168,353.19 247.997,325.374 249.923,313.963 C250.287,311.81 250.971,307.909 251.809,303.291 C252.012,302.173 252.478,299.636 252.668,298.603 C252.906,297.316 253.15,296.004 253.399,294.683 C253.483,294.27 253.56,293.852 253.635,293.431 C254.278,290.032 254.939,286.622 255.571,283.498 L255.572,283.492 C257.228,275.297 258.674,269.088 259.023,270.328 C259.877,273.371 270.058,329.191 270.81,336.233 C271.605,343.681 271.085,349.054 271.705,353.604 C272.326,358.154 271.705,377.386 271.705,377.386 C272.119,383.384 272.257,390.001 271.981,393.93 C271.705,397.86 271.498,405.168 271.291,407.236 C271.085,409.304 270.671,409.511 271.291,410.959 C271.912,412.407 270.683,417.99 272.125,419.645 C272.519,420.097 273.467,420.011 274.789,419.755 C274.841,420.009 274.867,420.258 274.824,420.448 C274.686,421.069 273.352,425.55 274.846,427.549 C274.846,427.549 274.442,427.963 274.495,428.79 C274.549,429.617 274.495,432.788 274.495,432.788 C274.495,432.788 275.928,433.409 277.03,434.098 C278.133,434.787 277.168,435.959 277.513,437.2 C277.857,438.441 278.823,438.511 280.409,438.959 C281.994,439.406 289.026,440.578 293.024,439.544 C293.024,439.544 295.506,438.786 296.264,437.889 C296.264,437.889 296.471,435.89 296.264,435.615 C296.057,435.339 296.609,434.167 296.057,432.65 C295.506,431.134 291.714,426.79 291.162,424.929 C290.676,423.288 289.816,423.037 289.903,420.827 L290.043,420.914 C290.043,420.914 290.456,420.886 291.697,416.956 C292.938,413.027 294.385,411.166 294.179,408.891 C293.972,406.616 293.598,399.1 294.199,397.032 C294.799,394.964 295.833,380.695 296.453,375.732 C297.073,370.769 295.474,335.718 294.65,325.131 C294.362,321.432 295.064,279.506 295.891,270.2 C296.082,268.05 296.061,264.959 295.914,261.475 C297.6,260.216 300.315,258.167 300.632,257.789 C301.061,257.278 303.017,251.823 303.301,251.028 C303.507,251.178 303.713,251.327 303.919,251.475 C304.029,251.554 304.148,251.637 304.284,251.642 C304.571,251.654 304.746,251.337 304.849,251.068 C304.964,250.767 305.067,250.462 305.174,250.158 C305.539,249.249 305.869,248.211 305.933,248.006 C306.341,248.358 306.686,248.656 306.925,248.858 C307.352,249.22 307.393,248.016 307.592,247.492 C308.023,246.364 308.095,245.006 308.279,243.824 C308.673,241.296 309.023,238.761 309.368,236.226 C310.072,231.057 310.734,225.884 311.381,220.708 C311.686,218.259 311.987,215.809 312.282,213.359 C312.419,212.225 312.618,211.082 312.69,209.942 C312.731,209.275 312.592,208.571 312.684,207.914 C312.786,207.18 313.241,206.636 313.479,205.953 C313.714,205.279 313.655,204.509 313.543,203.735 C313.446,203.057 313.309,202.377 313.292,201.759" fill-opacity="0" stroke="#006F0F" stroke-width="1"/>
    </g>
  </g>
</svg>
