<?xml version="1.0" encoding="UTF-8"?>
<!DOCTYPE svg PUBLIC "-//W3C//DTD SVG 1.1//EN" "http://www.w3.org/Graphics/SVG/1.1/DTD/svg11.dtd">
<svg version="1.1" xmlns="http://www.w3.org/2000/svg" xmlns:xlink="http://www.w3.org/1999/xlink" x="0" y="0" width="512" height="512" viewBox="0, 0, 512, 512">
  <g id="Background">
    <rect x="0" y="0" width="512" height="512" fill="#FFFFFF"/>
  </g>
  <g id="Layer_1">
    <g>
      <path d="M256.5,459.5 C144.386,459.5 53.5,368.614 53.5,256.5 C53.5,144.386 144.386,53.5 256.5,53.5 C368.614,53.5 459.5,144.386 459.5,256.5 C459.5,368.614 368.614,459.5 256.5,459.5 z" fill="#FFFFFF"/>
      <path d="M256.5,459.5 C144.386,459.5 53.5,368.614 53.5,256.5 C53.5,144.386 144.386,53.5 256.5,53.5 C368.614,53.5 459.5,144.386 459.5,256.5 C459.5,368.614 368.614,459.5 256.5,459.5 z" fill-opacity="0" stroke="#006F10" stroke-width="8"/>
    </g>
    <g>
      <path d="M210.5,408.5 L210.5,303.5" fill-opacity="0" stroke="#006F10" stroke-width="15" stroke-linecap="square"/>
      <path d="M210.5,303.5 L358.5,303.5" fill-opacity="0" stroke="#006F10" stroke-width="15" stroke-linecap="square"/>
      <g>
        <path d="M358.5,303.5 L358.5,248.7" fill-opacity="0" stroke="#006F10" stroke-width="15"/>
        <path d="M369.9,248.7 L358.5,218.3 L347.1,248.7 z" fill="#006F10" fill-opacity="1" stroke="#006F10" stroke-width="15" stroke-opacity="1"/>
      </g>
    </g>
    <path d="M211.319,245 C170.965,245 123.879,229.429 138.253,190.5 C147.835,167.143 180.176,136 211.319,136 C241.264,137.198 266.417,162.352 284.384,190.5 C302.352,218.648 251.672,245 211.319,245 z" fill="#006F10"/>
  </g>
</svg>
