<?xml version="1.0" encoding="UTF-8"?>
<!DOCTYPE svg PUBLIC "-//W3C//DTD SVG 1.1//EN" "http://www.w3.org/Graphics/SVG/1.1/DTD/svg11.dtd">
<svg version="1.1" xmlns="http://www.w3.org/2000/svg" xmlns:xlink="http://www.w3.org/1999/xlink" x="0" y="0" width="596" height="596" viewBox="0, 0, 596, 596">
  <g id="Background">
    <rect x="0" y="0" width="596" height="596" fill="#63ACB9"/>
  </g>
  <defs>
    <clipPath id="Clip_1">
      <path d="M0.06,0.72 L595.28,0.72 L595.28,596 L0.06,596 z"/>
    </clipPath>
  </defs>
  <g id="Background">
    <path d="M0,0 L596,0 L596,596 L0,596 z" fill="#FFFFFF"/>
  </g>
  <g id="Layer_1">
    <path d="M0.39,0.36 L595.61,0.36 L595.61,595.64 L0.39,595.64 z" fill="#63ACB9"/>
    <path d="M241.347,213.623 C224.8,218.539 189.875,232.169 178.824,235.843 C164.176,240.716 164.256,249.274 164.256,249.274 L152.107,288.38 C136.474,312.528 186.948,347.636 191.781,351.028 C191.781,351.028 190.819,309.718 193.826,285.641 C195.245,274.298 226.646,260.171 226.646,260.171 C226.646,260.171 249.695,242.69 255.343,246.829 C262.004,251.702 273.183,258.466 287.583,266.139 C308.683,277.378 319.702,260.356 319.702,260.356 C319.702,260.356 279.819,229.444 263.113,218.601 C249.844,209.991 249.538,211.187 241.347,213.623" fill="#F5C59B"/>
    <path d="M250.831,227.104 C233.029,227.755 194.616,232.374 182.632,233.198 C166.733,234.292 164.609,242.866 164.609,242.866 L142.395,278.811 C120.545,298.917 161.938,347.009 165.895,351.639 L220.975,330.311 C220.975,330.311 201.135,307.68 210.346,284.395 C214.684,273.427 224.148,269.831 224.148,269.831 C224.148,269.831 251.686,258.303 256.265,263.895 C261.658,270.479 271.089,280.118 283.502,291.499 C301.692,308.167 317.093,293.997 317.093,293.997 C317.093,293.997 285.2,252.829 271.302,237.692 C260.26,225.665 259.643,226.784 250.831,227.104" fill="#FCD0A9"/>
    <path d="M457.194,92.623 L325.851,65.676 C315.487,63.551 309.131,67.742 307.006,78.105 L255.613,328.589 C255.613,328.589 254.925,331.949 257.78,335.572 C258.824,336.897 262.325,340.555 262.325,340.555 C262.325,340.555 257.679,342.732 256.092,343.368 C251.922,345.048 251.444,348.915 251.444,348.915 L231.999,443.693 C229.872,454.054 234.066,460.411 244.426,462.539 L347.628,483.711 L375.771,489.484 C386.136,491.612 396.258,484.934 398.385,474.572 L417.229,382.725 L407.392,370.116 L421.399,362.397 L472.108,115.238 C474.234,104.873 467.558,94.749 457.194,92.623" fill="#F0F0F0"/>
    <path d="M279.481,425.645 C279.481,425.645 282.849,426.335 283.015,426.369 C283.452,426.46 283.623,426.213 283.623,426.213 L294.426,413.71 L286.817,408.241 L279.481,425.645" fill="#ED4B37"/>
    <path d="M289.797,393.32 C289.629,393.286 286.265,392.595 286.265,392.595 L286.153,411.477 L295.3,409.447 L290.295,393.703 C290.295,393.703 290.211,393.404 289.797,393.32" fill="#ED4B37"/>
    <path d="M348.545,415.131 C340.048,413.389 288.832,407.347 288.832,407.347 L281.046,408.746 L287.653,413.095 C287.653,413.095 337.11,427.705 345.606,429.449 C354.104,431.192 363.249,429.53 364.02,425.767 C364.792,422.006 357.041,416.875 348.545,415.131" fill="#ED4B37"/>
    <path d="M324.053,369.148 C323.63,369.064 320.269,368.375 320.269,368.375 L321.271,421.295 L341.163,415.419 L324.885,370.037 C324.885,370.037 324.473,369.237 324.053,369.148" fill="#ED4B37"/>
    <path d="M333.978,400.308 C333.474,402.773 341.249,404.142 341.249,404.142 L342.172,399.645 C342.172,399.645 334.486,397.841 333.978,400.308" fill="#ED4B37"/>
    <path d="M329.612,388.201 C329.104,390.667 336.881,392.034 336.881,392.034 L337.804,387.537 C337.804,387.537 330.118,385.732 329.612,388.201" fill="#ED4B37"/>
    <path d="M301.202,461.296 C301.202,461.296 304.565,461.988 304.986,462.073 C305.407,462.158 306.103,461.587 306.103,461.587 L338.936,426.278 L322.965,413.044 L301.202,461.296" fill="#ED4B37"/>
    <path d="M326.382,437.343 C325.876,439.809 333.65,441.175 333.65,441.175 L334.572,436.681 C334.572,436.681 326.888,434.873 326.382,437.343" fill="#ED4B37"/>
    <path d="M317.599,446.752 C317.093,449.219 324.866,450.587 324.866,450.587 L325.79,446.091 C325.79,446.091 318.104,444.285 317.599,446.752" fill="#ED4B37"/>
    <path d="M460.361,93.07 L444.729,89.863 L363.306,486.725 L378.939,489.933 C389.302,492.061 395.658,487.865 397.783,477.504 L417.229,382.725 C417.229,382.725 417.942,379.246 415.472,376.041 C413.94,374.058 410.519,370.755 410.519,370.755 C410.519,370.755 415.003,369.002 417.244,367.83 C420.648,366.054 421.399,362.397 421.399,362.397 L472.79,111.914 C474.916,101.551 470.726,95.196 460.361,93.07" fill="#ED4B37"/>
    <path d="M462.556,115.292 C462.5,115.555 462.382,115.764 462.193,115.918 C462.006,116.073 461.807,116.128 461.593,116.085 L457.321,115.208 C457.109,115.166 456.948,115.035 456.837,114.819 C456.724,114.604 456.696,114.365 456.75,114.1 L456.919,113.278 L462.722,114.47 L462.556,115.292 z M456.403,114.031 C456.351,114.293 456.229,114.502 456.042,114.656 C455.854,114.81 455.653,114.866 455.444,114.823 L450.413,113.791 C450.202,113.747 450.04,113.617 449.929,113.402 C449.818,113.187 449.787,112.947 449.842,112.683 L450.012,111.861 L456.574,113.207 L456.403,114.031 z M463.113,112.57 L450.4,109.961 L450.522,109.369 L450.178,109.299 L449.497,112.613 C449.334,113.402 449.39,114.114 449.656,114.748 C449.928,115.383 450.328,115.755 450.864,115.865 L454.211,116.552 C455.027,116.72 455.738,116.288 456.337,115.259 C456.459,116.437 456.938,117.111 457.773,117.282 L460.363,117.814 C460.898,117.923 461.415,117.74 461.914,117.262 C462.41,116.786 462.739,116.152 462.9,115.363 L463.582,112.05 L463.233,111.978 L463.113,112.57" fill="#F7F7F7"/>
    <path d="M461.188,122.436 C461.132,122.699 461.011,122.908 460.824,123.064 C460.638,123.219 460.438,123.274 460.226,123.23 L448.858,120.898 C448.646,120.855 448.484,120.725 448.37,120.509 C448.262,120.293 448.233,120.053 448.285,119.79 C448.339,119.528 448.461,119.319 448.647,119.166 C448.836,119.011 449.035,118.955 449.248,118.999 L460.614,121.332 C460.826,121.374 460.99,121.504 461.101,121.72 C461.211,121.934 461.24,122.174 461.188,122.436 z M460.163,119.256 L450.479,117.268 C449.945,117.159 449.426,117.346 448.929,117.826 C448.43,118.308 448.1,118.939 447.939,119.72 C447.777,120.508 447.832,121.219 448.102,121.854 C448.37,122.489 448.774,122.861 449.31,122.97 L458.993,124.958 C459.53,125.068 460.046,124.885 460.543,124.407 C461.042,123.93 461.372,123.297 461.532,122.509 C461.692,121.727 461.64,121.02 461.37,120.378 C461.103,119.741 460.7,119.365 460.163,119.256" fill="#F7F7F7"/>
    <path d="M458.571,128.396 L451.165,127.698 L451.506,126.041 L458.571,128.396 z M447.626,123.482 L447.281,123.41 L446.917,125.195 L447.261,125.264 L447.382,124.676 L451.174,125.949 L450.823,127.651 L446.847,127.283 L446.968,126.692 L446.624,126.62 L445.989,129.702 L446.335,129.773 L446.457,129.181 L459.833,130.321 L460.224,128.421 L447.504,124.074 L447.626,123.482" fill="#F7F7F7"/>
    <path d="M458.271,136.172 C458.218,136.433 458.098,136.642 457.909,136.798 C457.722,136.951 457.522,137.008 457.309,136.964 L453.038,136.088 C452.827,136.044 452.665,135.914 452.553,135.699 C452.442,135.481 452.412,135.243 452.465,134.98 L452.636,134.158 L458.439,135.348 L458.271,136.172 z M458.83,133.447 L446.116,130.839 L446.237,130.25 L445.893,130.179 L445.261,133.261 L445.604,133.331 L445.727,132.74 L452.289,134.087 L452.121,134.909 C452.067,135.172 451.946,135.38 451.76,135.535 C451.571,135.689 451.369,135.746 451.159,135.703 L446.42,134.73 C445.485,134.538 444.903,134.998 444.677,136.11 L444.507,136.933 L444.852,137.003 L444.861,136.956 C444.937,136.595 445.144,136.447 445.486,136.518 L449.927,137.429 C450.744,137.596 451.455,137.167 452.054,136.139 C452.175,137.315 452.654,137.989 453.49,138.16 L456.08,138.691 C456.616,138.801 457.131,138.617 457.63,138.14 C458.125,137.663 458.456,137.031 458.618,136.242 L459.297,132.929 L458.951,132.858 L458.83,133.447" fill="#F7F7F7"/>
    <path d="M456.763,143.528 C456.707,143.79 456.588,143.999 456.4,144.153 C456.213,144.308 456.013,144.365 455.8,144.322 L444.62,142.028 C444.408,141.984 444.247,141.854 444.137,141.637 C444.023,141.422 443.996,141.182 444.049,140.918 L444.218,140.096 L456.932,142.704 L456.763,143.528 z M457.32,140.805 L444.607,138.197 L444.729,137.606 L444.384,137.534 L443.702,140.848 C443.542,141.637 443.597,142.349 443.864,142.984 C444.135,143.618 444.536,143.99 445.071,144.1 L454.57,146.049 C455.105,146.158 455.622,145.975 456.12,145.498 C456.616,145.02 456.946,144.388 457.11,143.598 L457.788,140.284 L457.442,140.214 L457.32,140.805" fill="#F7F7F7"/>
    <path d="M455.825,148.092 L443.111,145.484 L443.233,144.894 L442.888,144.823 L442.257,147.905 L442.601,147.975 L442.723,147.385 L455.436,149.992 L455.313,150.584 L455.661,150.655 L456.292,147.574 L455.946,147.502 L455.825,148.092" fill="#F7F7F7"/>
    <path d="M455.035,151.939 L442.321,149.331 L442.444,148.741 L442.098,148.67 L441.733,150.443 L442.079,150.513 L442.202,149.921 L452.288,151.991 L441.269,152.724 L440.956,154.242 L454.015,156.92 L453.892,157.513 L454.24,157.585 L454.603,155.81 L454.258,155.74 L454.135,156.332 L445.17,154.492 L455.012,153.819 L455.504,151.42 L455.158,151.349 L455.035,151.939" fill="#F7F7F7"/>
    <path d="M452.161,158.269 L442.475,156.282 C441.939,156.172 441.423,156.356 440.924,156.839 C440.427,157.319 440.096,157.95 439.937,158.73 C439.775,159.518 439.831,160.229 440.098,160.863 C440.367,161.499 440.77,161.871 441.307,161.981 L446.699,163.088 L447.283,160.238 L446.938,160.167 L446.743,161.117 L440.854,159.908 C440.644,159.865 440.481,159.737 440.368,159.519 C440.259,159.303 440.229,159.064 440.283,158.802 C440.336,158.539 440.456,158.329 440.646,158.175 C440.833,158.02 441.032,157.965 441.243,158.01 L452.612,160.341 C452.823,160.385 452.983,160.513 453.096,160.731 C453.208,160.946 453.237,161.185 453.183,161.449 C453.129,161.711 453.009,161.918 452.821,162.073 C452.633,162.229 452.434,162.284 452.222,162.241 L449.222,161.625 L448.832,163.525 L450.99,163.968 C451.525,164.078 452.043,163.893 452.541,163.416 C453.036,162.939 453.366,162.307 453.529,161.519 C453.689,160.739 453.635,160.029 453.365,159.391 C453.098,158.752 452.695,158.379 452.161,158.269" fill="#F7F7F7"/>
    <path d="M450.875,172.216 C450.821,172.478 450.702,172.687 450.515,172.842 C450.325,172.996 450.126,173.052 449.915,173.008 L444.475,171.893 C444.263,171.849 444.1,171.719 443.989,171.503 C443.879,171.286 443.85,171.048 443.903,170.785 L444.071,169.963 L451.045,171.393 L450.875,172.216 z M451.435,169.491 L438.723,166.884 L438.842,166.294 L438.498,166.223 L437.864,169.305 L438.209,169.376 L438.331,168.784 L443.725,169.891 L443.557,170.714 C443.395,171.502 443.449,172.213 443.718,172.848 C443.988,173.483 444.391,173.855 444.926,173.964 L448.686,174.735 C449.22,174.845 449.737,174.662 450.233,174.184 C450.731,173.707 451.06,173.074 451.222,172.286 L451.902,168.973 L451.556,168.902 L451.435,169.491" fill="#F7F7F7"/>
    <path d="M448.401,177.963 L440.997,177.264 L441.339,175.606 L448.401,177.963 z M437.456,173.05 L437.11,172.978 L436.745,174.763 L437.09,174.833 L437.212,174.241 L441.004,175.514 L440.654,177.218 L436.677,176.848 L436.798,176.257 L436.454,176.185 L435.82,179.268 L436.165,179.339 L436.288,178.749 L449.664,179.887 L450.055,177.986 L437.335,173.639 L437.456,173.05" fill="#F7F7F7"/>
    <path d="M447.216,182.369 L445.393,181.994 C444.763,181.866 444.148,181.95 443.546,182.254 L440.08,184.018 C439.521,184.297 438.924,184.372 438.289,184.241 L435.96,183.764 C435.447,183.658 435.25,183.331 435.363,182.785 C435.477,182.23 435.788,182.003 436.3,182.109 L439.3,182.724 L439.689,180.825 L437.531,180.382 C436.989,180.27 436.475,180.435 435.987,180.88 C435.5,181.322 435.176,181.932 435.015,182.714 C434.856,183.486 434.916,184.172 435.188,184.77 C435.462,185.37 435.87,185.724 436.412,185.836 L438.32,186.227 C438.954,186.358 439.571,186.271 440.173,185.969 L443.645,184.207 C444.198,183.926 444.793,183.851 445.423,183.98 L447.666,184.44 C448.178,184.546 448.376,184.876 448.262,185.432 C448.15,185.979 447.838,186.201 447.326,186.096 L444.328,185.481 L443.938,187.381 L446.096,187.823 C446.639,187.934 447.152,187.769 447.641,187.325 C448.126,186.882 448.45,186.275 448.608,185.503 C448.769,184.721 448.713,184.033 448.438,183.434 C448.165,182.834 447.758,182.48 447.216,182.369" fill="#F7F7F7"/>
    <path d="M445.842,189.064 L444.02,188.689 C443.391,188.559 442.774,188.647 442.173,188.95 L438.703,190.715 C438.145,190.995 437.55,191.07 436.915,190.939 L434.586,190.462 C434.075,190.356 433.876,190.03 433.987,189.482 C434.103,188.925 434.415,188.7 434.927,188.804 L437.927,189.42 L438.315,187.519 L436.157,187.076 C435.615,186.965 435.101,187.133 434.613,187.575 C434.126,188.018 433.802,188.63 433.642,189.412 C433.483,190.181 433.542,190.867 433.814,191.468 C434.087,192.068 434.495,192.422 435.038,192.534 L436.946,192.925 C437.58,193.055 438.198,192.969 438.8,192.666 L442.27,190.902 C442.826,190.623 443.419,190.547 444.05,190.676 L446.294,191.137 C446.804,191.241 447.002,191.572 446.888,192.129 C446.776,192.677 446.464,192.899 445.954,192.794 L442.955,192.178 L442.563,194.078 L444.722,194.521 C445.265,194.632 445.779,194.467 446.267,194.023 C446.752,193.579 447.077,192.97 447.235,192.2 C447.394,191.419 447.338,190.73 447.065,190.131 C446.791,189.532 446.386,189.175 445.842,189.064" fill="#F7F7F7"/>
    <path d="M405.855,393.149 C405.803,393.412 405.684,393.618 405.495,393.775 C405.307,393.928 405.108,393.984 404.895,393.943 L400.624,393.066 C400.412,393.022 400.25,392.891 400.141,392.676 C400.027,392.459 399.998,392.219 400.052,391.957 L400.222,391.137 L406.025,392.324 L405.855,393.149 z M399.708,391.887 C399.652,392.149 399.534,392.357 399.346,392.512 C399.157,392.665 398.955,392.723 398.746,392.678 L393.717,391.649 C393.504,391.603 393.341,391.474 393.23,391.257 C393.121,391.041 393.091,390.803 393.144,390.54 L393.313,389.718 L399.875,391.063 L399.708,391.887 z M406.417,390.428 L393.704,387.817 L393.823,387.227 L393.479,387.156 L392.8,390.47 C392.638,391.257 392.69,391.969 392.959,392.602 C393.23,393.237 393.63,393.61 394.167,393.72 L397.512,394.405 C398.331,394.572 399.041,394.142 399.641,393.116 C399.763,394.292 400.239,394.965 401.076,395.137 L403.665,395.67 C404.2,395.777 404.718,395.594 405.215,395.117 C405.714,394.641 406.042,394.01 406.204,393.22 L406.884,389.908 L406.536,389.836 L406.417,390.428" fill="#F7F7F7"/>
    <path d="M404.49,400.296 C404.437,400.557 404.314,400.763 404.128,400.921 C403.938,401.073 403.738,401.129 403.527,401.087 L392.161,398.754 C391.947,398.711 391.786,398.579 391.676,398.364 C391.563,398.148 391.534,397.909 391.589,397.647 C391.644,397.384 391.763,397.175 391.952,397.02 C392.14,396.863 392.339,396.81 392.551,396.853 L403.916,399.186 C404.13,399.23 404.293,399.357 404.401,399.575 C404.514,399.79 404.543,400.03 404.49,400.296 z M403.466,397.113 L393.782,395.125 C393.246,395.013 392.729,395.199 392.231,395.682 C391.733,396.161 391.403,396.794 391.243,397.575 C391.08,398.362 391.136,399.074 391.403,399.71 C391.674,400.342 392.075,400.715 392.613,400.826 L402.297,402.812 C402.834,402.923 403.35,402.737 403.847,402.262 C404.344,401.783 404.673,401.153 404.834,400.364 C404.995,399.582 404.941,398.873 404.675,398.237 C404.404,397.596 404.002,397.223 403.466,397.113" fill="#F7F7F7"/>
    <path d="M401.872,406.251 L394.468,405.553 L394.81,403.897 L401.872,406.251 z M390.928,401.339 L390.583,401.267 L390.218,403.051 L390.562,403.121 L390.684,402.532 L394.476,403.804 L394.125,405.507 L390.147,405.139 L390.271,404.545 L389.926,404.476 L389.293,407.555 L389.637,407.628 L389.759,407.038 L403.136,408.175 L403.525,406.276 L390.808,401.928 L390.928,401.339" fill="#F7F7F7"/>
    <path d="M401.573,414.027 C401.519,414.289 401.401,414.497 401.212,414.652 C401.024,414.808 400.825,414.864 400.612,414.818 L396.341,413.943 C396.13,413.899 395.966,413.772 395.857,413.553 C395.743,413.338 395.715,413.097 395.77,412.836 L395.939,412.013 L401.743,413.207 L401.573,414.027 z M402.133,411.304 L389.42,408.696 L389.54,408.104 L389.196,408.033 L388.562,411.116 L388.909,411.186 L389.028,410.596 L395.593,411.942 L395.424,412.764 C395.37,413.028 395.249,413.236 395.063,413.391 C394.874,413.546 394.673,413.6 394.462,413.559 L389.723,412.584 C388.787,412.391 388.206,412.853 387.978,413.967 L387.809,414.791 L388.155,414.859 L388.164,414.812 C388.237,414.45 388.447,414.302 388.79,414.372 L393.229,415.282 C394.048,415.451 394.757,415.023 395.355,413.995 C395.479,415.171 395.956,415.842 396.792,416.014 L399.381,416.546 C399.917,416.654 400.435,416.472 400.931,415.994 C401.429,415.516 401.76,414.885 401.92,414.096 L402.6,410.783 L402.254,410.713 L402.133,411.304" fill="#F7F7F7"/>
    <path d="M400.063,421.384 C400.011,421.645 399.891,421.854 399.701,422.009 C399.516,422.166 399.315,422.22 399.102,422.178 L387.922,419.883 C387.711,419.84 387.549,419.71 387.438,419.493 C387.328,419.279 387.297,419.038 387.351,418.774 L387.52,417.954 L400.232,420.561 L400.063,421.384 z M400.624,418.661 L387.909,416.052 L388.03,415.462 L387.686,415.389 L387.007,418.706 C386.844,419.493 386.898,420.203 387.165,420.837 C387.438,421.474 387.837,421.844 388.375,421.955 L397.873,423.904 C398.408,424.012 398.927,423.828 399.423,423.352 C399.919,422.876 400.249,422.243 400.411,421.454 L401.09,418.142 L400.743,418.072 L400.624,418.661" fill="#F7F7F7"/>
    <path d="M399.128,425.949 L386.415,423.339 L386.535,422.749 L386.19,422.679 L385.558,425.761 L385.902,425.831 L386.024,425.241 L398.738,427.849 L398.616,428.438 L398.963,428.511 L399.596,425.428 L399.249,425.357 L399.128,425.949" fill="#F7F7F7"/>
    <path d="M398.338,429.794 L385.625,427.186 L385.745,426.596 L385.401,426.526 L385.038,428.297 L385.383,428.369 L385.504,427.775 L395.589,429.847 L384.569,430.579 L384.258,432.097 L397.317,434.778 L397.195,435.369 L397.541,435.437 L397.906,433.667 L397.56,433.593 L397.437,434.186 L388.472,432.347 L398.314,431.674 L398.806,429.274 L398.459,429.205 L398.338,429.794" fill="#F7F7F7"/>
    <path d="M395.462,436.125 L385.776,434.138 C385.242,434.026 384.726,434.213 384.227,434.694 C383.729,435.176 383.397,435.805 383.239,436.585 C383.077,437.372 383.132,438.084 383.401,438.721 C383.672,439.352 384.072,439.725 384.609,439.836 L390.003,440.942 L390.587,438.094 L390.242,438.019 L390.047,438.971 L384.158,437.764 C383.945,437.72 383.783,437.592 383.672,437.374 C383.561,437.161 383.532,436.919 383.587,436.657 C383.64,436.391 383.761,436.185 383.948,436.03 C384.135,435.875 384.333,435.82 384.547,435.866 L395.913,438.197 C396.126,438.24 396.288,438.37 396.399,438.585 C396.51,438.803 396.539,439.04 396.485,439.303 C396.431,439.565 396.31,439.776 396.122,439.928 C395.937,440.084 395.736,440.14 395.524,440.095 L392.522,439.48 L392.134,441.381 L394.294,441.822 C394.829,441.932 395.347,441.75 395.842,441.272 C396.341,440.794 396.671,440.161 396.831,439.374 C396.99,438.595 396.938,437.885 396.669,437.247 C396.4,436.609 395.999,436.233 395.462,436.125" fill="#F7F7F7"/>
    <path d="M394.178,450.072 C394.126,450.334 394.005,450.542 393.817,450.697 C393.63,450.85 393.43,450.909 393.217,450.863 L387.777,449.748 C387.565,449.704 387.404,449.575 387.292,449.357 C387.18,449.141 387.15,448.904 387.205,448.642 L387.376,447.818 L394.348,449.25 L394.178,450.072 z M394.737,447.349 L382.023,444.739 L382.146,444.148 L381.8,444.076 L381.167,447.159 L381.513,447.231 L381.634,446.641 L387.028,447.748 L386.857,448.568 C386.695,449.355 386.751,450.067 387.021,450.703 C387.289,451.337 387.692,451.709 388.227,451.819 L391.987,452.591 C392.522,452.699 393.04,452.514 393.537,452.039 C394.034,451.561 394.364,450.929 394.524,450.14 L395.207,446.828 L394.857,446.758 L394.737,447.349" fill="#F7F7F7"/>
    <path d="M391.704,455.816 L384.3,455.121 L384.64,453.463 L391.704,455.816 z M380.759,450.902 L380.415,450.832 L380.048,452.618 L380.393,452.688 L380.513,452.096 L384.308,453.37 L383.957,455.074 L379.979,454.703 L380.1,454.113 L379.755,454.041 L379.124,457.125 L379.468,457.196 L379.59,456.605 L392.965,457.744 L393.355,455.844 L380.638,451.496 L380.759,450.902" fill="#F7F7F7"/>
    <path d="M390.519,460.222 L388.694,459.851 C388.065,459.72 387.449,459.806 386.85,460.11 L383.382,461.873 C382.822,462.154 382.226,462.227 381.591,462.097 L379.261,461.622 C378.751,461.515 378.552,461.189 378.664,460.64 C378.778,460.084 379.09,459.86 379.603,459.964 L382.603,460.579 L382.992,458.68 L380.833,458.236 C380.292,458.126 379.777,458.29 379.289,458.736 C378.803,459.178 378.479,459.789 378.318,460.568 C378.16,461.343 378.218,462.029 378.49,462.626 C378.765,463.224 379.172,463.581 379.714,463.693 L381.622,464.084 C382.256,464.215 382.874,464.129 383.475,463.826 L386.946,462.062 C387.503,461.781 388.098,461.706 388.727,461.835 L390.97,462.295 C391.48,462.402 391.68,462.73 391.566,463.287 C391.452,463.834 391.142,464.058 390.631,463.953 L387.63,463.338 L387.239,465.236 L389.398,465.679 C389.94,465.791 390.454,465.627 390.941,465.182 C391.43,464.738 391.751,464.131 391.911,463.357 C392.069,462.578 392.015,461.889 391.741,461.289 C391.468,460.687 391.062,460.336 390.519,460.222" fill="#F7F7F7"/>
    <path d="M389.145,466.921 L387.321,466.545 C386.691,466.415 386.076,466.503 385.476,466.805 L382.008,468.569 C381.448,468.85 380.853,468.925 380.218,468.793 L377.889,468.315 C377.378,468.212 377.178,467.886 377.29,467.337 C377.404,466.782 377.716,466.555 378.229,466.662 L381.229,467.276 L381.617,465.376 L379.459,464.932 C378.918,464.82 378.402,464.989 377.916,465.431 C377.429,465.874 377.104,466.485 376.944,467.266 C376.785,468.038 376.845,468.724 377.116,469.321 C377.391,469.923 377.798,470.278 378.34,470.389 L380.247,470.782 C380.882,470.91 381.5,470.825 382.101,470.523 L385.572,468.759 C386.129,468.479 386.724,468.402 387.353,468.534 L389.595,468.992 C390.105,469.098 390.304,469.428 390.19,469.983 C390.078,470.532 389.767,470.753 389.257,470.648 L386.256,470.032 L385.865,471.934 L388.024,472.376 C388.567,472.486 389.081,472.323 389.567,471.879 C390.056,471.434 390.378,470.825 390.536,470.057 C390.696,469.275 390.641,468.586 390.366,467.986 C390.094,467.387 389.688,467.03 389.145,466.921" fill="#F7F7F7"/>
    <path d="M407.712,368.552 L404.333,367.859 L403.692,370.986 L407.071,371.68" fill="#E0E0E0"/>
    <path d="M397.899,366.539 L391.464,365.218 L390.822,368.346 L397.257,369.666 z M385.028,363.898 L378.593,362.578 L377.951,365.705 L384.386,367.025 z M372.157,361.257 L365.722,359.937 L365.08,363.064 L371.516,364.385 z M359.287,358.617 L352.851,357.296 L352.21,360.424 L358.645,361.744 z M346.416,355.976 L339.981,354.656 L339.339,357.783 L345.774,359.104 z M333.545,353.336 L327.11,352.015 L326.468,355.143 L332.904,356.463 z M320.675,350.695 L314.239,349.375 L313.597,352.502 L320.033,353.822 z M307.804,348.054 L301.368,346.734 L300.727,349.861 L307.162,351.182 z M294.933,345.414 L288.498,344.093 L287.856,347.221 L294.291,348.541 z M282.062,342.773 L275.627,341.453 L274.985,344.58 L281.421,345.901" fill="#E0E0E0"/>
    <path d="M269.191,340.132 L265.813,339.439 L265.171,342.566 L268.549,343.26" fill="#E0E0E0"/>
    <path d="M391.294,191.518 L405.059,194.343 L423.757,103.211 L409.991,100.387 L391.294,191.518" fill="#EED4D3"/>
    <path d="M328.769,178.69 L342.532,181.514 L361.229,90.382 L347.466,87.558 L328.769,178.69" fill="#EED4D3"/>
    <path d="M306.164,288.864 L319.928,291.69 L339.434,196.618 L325.669,193.794 L306.164,288.864" fill="#EED4D3"/>
    <path d="M283.007,284.115 L296.771,286.939 L316.276,191.867 L302.511,189.044 L283.007,284.115" fill="#EED4D3"/>
    <path d="M305.478,174.594 L319.241,177.418 L337.939,86.286 L324.173,83.463 L305.478,174.594" fill="#EED4D3"/>
    <path d="M345.896,296.028 L359.663,298.851 L400.966,97.545 L387.198,94.72 L345.896,296.028" fill="#EED4D3"/>
    <path d="M376.679,347.111 L381.465,348.095 L386.929,321.46 L382.143,320.476 L376.679,347.111" fill="#838282"/>
    <path d="M370.786,345.903 L373.364,346.431 L378.829,319.797 L376.25,319.269 L370.786,345.903" fill="#838282"/>
    <path d="M367.337,345.195 L368.854,345.506 L374.317,318.874 L372.802,318.56 L367.337,345.195" fill="#838282"/>
    <path d="M358.363,343.353 L365.539,344.826 L371.005,318.192 L363.826,316.721 L358.363,343.353" fill="#838282"/>
    <path d="M356.015,342.872 L357.533,343.184 L362.997,316.551 L361.479,316.235 L356.015,342.872" fill="#838282"/>
    <path d="M352.839,342.22 L354.082,342.474 L359.546,315.842 L358.304,315.587 L352.839,342.22" fill="#838282"/>
    <path d="M350.768,341.797 L351.735,341.996 L357.199,315.362 L356.231,315.162 L350.768,341.797" fill="#838282"/>
    <path d="M347.181,341.059 L349.111,341.457 L354.576,314.822 L352.645,314.425 L347.181,341.059" fill="#838282"/>
    <path d="M342.623,340.124 L345.936,340.805 L351.399,314.171 L348.087,313.49 L342.623,340.124" fill="#838282"/>
    <path d="M339.447,339.473 L340.968,339.784 L346.431,313.149 L344.911,312.839 L339.447,339.473" fill="#838282"/>
    <path d="M336.273,338.822 L337.514,339.078 L342.977,312.441 L341.736,312.185 L336.273,338.822" fill="#838282"/>
    <path d="M330.336,337.603 L334.34,338.425 L339.806,311.79 L335.801,310.969 L330.336,337.603" fill="#838282"/>
    <path d="M326.606,336.837 L328.955,337.323 L334.418,310.686 L332.072,310.202 L326.606,336.837" fill="#838282"/>
    <path d="M321.222,335.734 L324.397,336.386 L329.862,309.751 L326.686,309.1 L321.222,335.734" fill="#838282"/>
    <path d="M317.772,335.024 L319.014,335.281 L324.479,308.645 L323.236,308.391 L317.772,335.024" fill="#838282"/>
    <path d="M315.701,334.601 L316.667,334.8 L322.132,308.165 L321.166,307.968 L315.701,334.601" fill="#838282"/>
    <path d="M312.11,333.864 L314.043,334.262 L319.508,307.628 L317.573,307.23 L312.11,333.864" fill="#838282"/>
    <path d="M283.254,327.945 L284.497,328.2 L289.961,301.565 L288.719,301.31 L283.254,327.945" fill="#838282"/>
    <path d="M277.316,326.727 L281.32,327.548 L286.784,300.913 L282.78,300.091 L277.316,326.727" fill="#838282"/>
    <path d="M273.59,325.964 L275.936,326.443 L281.4,299.806 L279.056,299.327 L273.59,325.964" fill="#838282"/>
    <path d="M268.206,324.857 L271.382,325.509 L276.848,298.872 L273.671,298.222 L268.206,324.857" fill="#838282"/>
    <path d="M307.555,332.929 L310.869,333.611 L316.333,306.974 L313.021,306.295 L307.555,332.929" fill="#838282"/>
    <path d="M304.379,332.278 L305.898,332.592 L311.362,305.955 L309.845,305.644 L304.379,332.278" fill="#838282"/>
    <path d="M301.203,331.628 L302.445,331.883 L307.911,305.247 L306.669,304.991 L301.203,331.628" fill="#838282"/>
    <path d="M295.265,330.408 L299.271,331.23 L304.734,304.595 L300.73,303.774 L295.265,330.408" fill="#838282"/>
    <path d="M291.54,329.644 L293.884,330.126 L299.349,303.491 L297.004,303.01 L291.54,329.644" fill="#838282"/>
    <path d="M286.155,328.54 L289.328,329.191 L294.794,302.554 L291.621,301.906 L286.155,328.54" fill="#838282"/>
    <path d="M258.27,367.474 L274.462,370.799 L275.142,367.482 L258.949,364.159 L258.27,367.474" fill="#838282"/>
    <path d="M257.432,371.554 L273.625,374.875 L273.991,373.093 L257.797,369.77 L257.432,371.554" fill="#838282"/>
    <path d="M256.942,373.944 L273.135,377.265 L273.351,376.217 L257.156,372.89 L256.942,373.944" fill="#838282"/>
    <path d="M255.668,380.155 L271.859,383.48 L272.88,378.509 L256.688,375.187 L255.668,380.155" fill="#838282"/>
    <path d="M255.334,381.782 L271.527,385.103 L271.742,384.053 L255.55,380.731 L255.334,381.782" fill="#838282"/>
    <path d="M254.882,383.983 L271.075,387.303 L271.253,386.443 L255.059,383.122 L254.882,383.983" fill="#838282"/>
    <path d="M254.589,385.414 L270.781,388.735 L270.918,388.066 L254.726,384.745 L254.589,385.414" fill="#838282"/>
    <path d="M254.078,387.9 L270.271,391.221 L270.547,389.882 L254.353,386.56 L254.078,387.9" fill="#838282"/>
    <path d="M253.432,391.055 L269.624,394.377 L270.094,392.081 L253.902,388.759 L253.432,391.055" fill="#838282"/>
    <path d="M252.98,393.254 L269.173,396.574 L269.39,395.522 L253.196,392.201 L252.98,393.254" fill="#838282"/>
    <path d="M252.53,395.449 L268.724,398.772 L268.899,397.914 L252.705,394.592 L252.53,395.449" fill="#838282"/>
    <path d="M251.685,399.56 L267.88,402.884 L268.448,400.11 L252.255,396.787 L251.685,399.56" fill="#838282"/>
    <path d="M251.157,402.141 L267.35,405.465 L267.684,403.84 L251.488,400.516 L251.157,402.141" fill="#838282"/>
    <path d="M250.393,405.87 L266.583,409.193 L267.035,406.993 L250.843,403.671 L250.393,405.87" fill="#838282"/>
    <path d="M249.901,408.26 L266.093,411.583 L266.271,410.721 L250.077,407.4 L249.901,408.26" fill="#838282"/>
    <path d="M249.608,409.694 L265.8,413.015 L265.937,412.345 L249.745,409.025 L249.608,409.694" fill="#838282"/>
    <path d="M249.099,412.18 L265.29,415.502 L265.565,414.162 L249.372,410.841 L249.099,412.18" fill="#838282"/>
    <path d="M244.999,432.155 L261.191,435.477 L261.368,434.618 L245.175,431.297 L244.999,432.155" fill="#838282"/>
    <path d="M244.156,436.268 L260.347,439.59 L260.916,436.817 L244.724,433.494 L244.156,436.268" fill="#838282"/>
    <path d="M243.625,438.847 L259.819,442.169 L260.151,440.546 L243.96,437.224 L243.625,438.847" fill="#838282"/>
    <path d="M242.861,442.577 L259.054,445.898 L259.506,443.699 L243.312,440.376 L242.861,442.577" fill="#838282"/>
    <path d="M248.451,415.332 L264.645,418.653 L265.113,416.361 L248.922,413.038 L248.451,415.332" fill="#838282"/>
    <path d="M247.999,417.53 L264.192,420.854 L264.408,419.803 L248.215,416.479 L247.999,417.53" fill="#838282"/>
    <path d="M247.548,419.731 L263.74,423.051 L263.918,422.19 L247.725,418.87 L247.548,419.731" fill="#838282"/>
    <path d="M246.706,423.843 L262.897,427.162 L263.466,424.39 L247.274,421.065 L246.706,423.843" fill="#838282"/>
    <path d="M246.176,426.42 L262.369,429.743 L262.702,428.118 L246.51,424.797 L246.176,426.42" fill="#838282"/>
    <path d="M245.412,430.148 L261.604,433.472 L262.055,431.273 L245.861,427.952 L245.412,430.148" fill="#838282"/>
    <path d="M412.09,328.958 C405.973,327.701 399.997,331.642 398.743,337.761 C397.489,343.876 401.427,349.853 407.545,351.107 C413.661,352.365 419.637,348.42 420.891,342.303 C422.148,336.187 418.206,330.212 412.09,328.958" fill="#EED4D3"/>
    <path d="M407.886,332.116 L407.918,332.24 L410.5,334.471 L411.629,332.9 L408.035,331.387 L407.886,332.116" fill="#ED4B37"/>
    <path d="M411.379,334.652 L414.63,333.619 L414.71,333.514 L414.858,332.787 L410.962,332.765 L411.379,334.652" fill="#ED4B37"/>
    <path d="M410.627,333.073 C410.627,333.073 407.61,343.284 407.251,345.039 C406.891,346.792 407.234,348.679 408.011,348.839 C408.787,348.998 409.847,347.399 410.206,345.646 C410.567,343.889 411.814,333.316 411.814,333.316 L411.524,331.71 L410.627,333.073" fill="#ED4B37"/>
    <path d="M410.147,344.121 L419.516,340.761 L419.698,340.586 L419.859,339.808 L408.934,340.012 L410.147,344.121" fill="#ED4B37"/>
    <path d="M413.268,342.637 C412.757,342.533 412.476,344.137 412.476,344.137 L413.404,344.327 C413.404,344.327 413.775,342.743 413.268,342.637" fill="#ED4B37"/>
    <path d="M415.769,341.735 C415.256,341.63 414.974,343.235 414.974,343.235 L415.903,343.428 C415.903,343.428 416.276,341.84 415.769,341.735" fill="#ED4B37"/>
    <path d="M400.515,336.652 L400.616,336.883 L407.904,343.661 L410.638,340.364 L400.677,335.871 L400.515,336.652" fill="#ED4B37"/>
    <path d="M405.62,341.068 C405.112,340.963 404.829,342.57 404.829,342.57 L405.757,342.759 C405.757,342.759 406.132,341.172 405.62,341.068" fill="#ED4B37"/>
    <path d="M403.679,339.256 C403.169,339.151 402.888,340.757 402.888,340.757 L403.814,340.945 C403.814,340.945 404.188,339.359 403.679,339.256" fill="#ED4B37"/>
    <path d="M373.639,93.625 L332.473,294.265 C332.382,294.706 332.667,295.137 333.108,295.227 C333.549,295.318 333.979,295.033 334.07,294.592 L375.236,93.953 C375.327,93.512 375.042,93.081 374.601,92.99 C374.16,92.9 373.729,93.184 373.639,93.625" fill="#ED4B37"/>
    <path d="M368.645,300.695 L382.41,303.519 L401.915,208.448 L388.149,205.623 L368.645,300.695" fill="#EED4D3"/>
    <g clip-path="url(#Clip_1)">
      <path d="M263.606,331.386 C250.932,324.848 194.367,331.387 194.367,331.387 L167.227,238.839 C167.227,238.839 119.789,297.118 110.212,308.005 C102.11,317.216 87.288,346.311 87.288,346.311 L66.212,365.706 L114.567,418.261 L138.284,396.436 C138.284,396.436 178.01,381.171 189.081,376.837 C208.844,369.096 279.394,354.526 283.075,352.764 C286.762,350.997 276.28,337.925 263.606,331.386" fill="#FCD0A9"/>
      <path d="M72.256,341.959 L-0,407.541 L-0,550.235 L142.506,420.887 L72.256,341.959" fill="#A47347"/>
      <path d="M71.701,341.124 L-0,406.203 L-0,477.546 L106.814,380.593 L71.701,341.124" fill="#BF915C"/>
    </g>
    <path d="M32.528,376.708 L103.244,456.131 L112.379,448.221 L42.49,367.666 L32.528,376.708" fill="#A47347"/>
    <path d="M67.658,416.162 L103.244,456.131 L112.379,448.221 L77.117,407.578 L67.658,416.162" fill="#905C33"/>
    <path d="M70.021,337.47 C68.998,336.313 67.231,336.206 66.074,337.226 L37.983,362.072 C36.824,363.095 36.718,364.862 37.742,366.02 L113.784,452 C114.808,453.154 116.575,453.263 117.732,452.241 L145.821,427.396 C146.979,426.373 147.086,424.605 146.063,423.448 L70.021,337.47" fill="#BF915C"/>
    <path d="M107.521,379.872 L75.616,408.845 L113.784,452 C114.808,453.154 116.575,453.263 117.732,452.241 L145.821,427.396 C146.979,426.373 147.086,424.605 146.063,423.448 L107.521,379.872" fill="#A47347"/>
    <path d="M121.979,421.441 C119.154,420.396 116.018,421.841 114.973,424.664 C113.928,427.491 115.37,430.627 118.197,431.672 C121.022,432.717 124.159,431.273 125.203,428.447 C126.247,425.623 124.805,422.485 121.979,421.441" fill="#F0F0F0"/>
  </g>
</svg>
