<?xml version="1.0" encoding="UTF-8"?>
<!DOCTYPE svg PUBLIC "-//W3C//DTD SVG 1.1//EN" "http://www.w3.org/Graphics/SVG/1.1/DTD/svg11.dtd">
<svg version="1.1" xmlns="http://www.w3.org/2000/svg" xmlns:xlink="http://www.w3.org/1999/xlink" x="0" y="0" width="596" height="596" viewBox="0, 0, 596, 596">
  <g id="Background">
    <rect x="0" y="0" width="596" height="596" fill="#FFFFFF"/>
  </g>
  <defs>
    <radialGradient id="Gradient_1" gradientUnits="userSpaceOnUse" cx="297.64" cy="298.36" r="297.64">
      <stop offset="0" stop-color="#81CEE0"/>
      <stop offset="0.415" stop-color="#81CEE0"/>
      <stop offset="1" stop-color="#63ACB9"/>
    </radialGradient>
    <clipPath id="Clip_1">
      <path d="M0.06,0.72 L595.28,0.72 L595.28,596 L0.06,596 z"/>
    </clipPath>
  </defs>
  <g id="Layer_1">
    <path d="M0.06,0.72 L595.28,0.72 L595.28,596 L0.06,596 z" fill="url(#Gradient_1)"/>
    <path d="M480.194,117.623 L348.851,90.676 C338.487,88.551 332.131,92.742 330.006,103.105 L278.613,353.589 C278.613,353.589 277.925,356.949 280.78,360.572 C281.824,361.897 285.325,365.555 285.325,365.555 C285.325,365.555 280.679,367.732 279.092,368.368 C274.922,370.048 274.444,373.915 274.444,373.915 L254.999,468.693 C252.872,479.054 257.066,485.411 267.426,487.539 L370.628,508.711 L398.771,514.484 C409.136,516.612 419.258,509.934 421.385,499.572 L440.229,407.725 L430.392,395.116 L444.399,387.397 L495.108,140.238 C497.234,129.873 490.558,119.749 480.194,117.623" fill="#F0F0F0"/>
    <path d="M302.481,450.645 C302.481,450.645 305.849,451.335 306.015,451.369 C306.452,451.46 306.623,451.213 306.623,451.213 L317.426,438.71 L309.817,433.241 L302.481,450.645" fill="#ED4B37"/>
    <path d="M312.797,418.32 C312.629,418.286 309.265,417.595 309.265,417.595 L309.153,436.477 L318.3,434.447 L313.295,418.703 C313.295,418.703 313.211,418.404 312.797,418.32" fill="#ED4B37"/>
    <path d="M371.545,440.131 C363.048,438.389 311.832,432.347 311.832,432.347 L304.046,433.746 L310.653,438.095 C310.653,438.095 360.11,452.705 368.606,454.449 C377.104,456.192 386.249,454.53 387.02,450.767 C387.792,447.006 380.041,441.875 371.545,440.131" fill="#ED4B37"/>
    <path d="M347.053,394.148 C346.63,394.064 343.269,393.375 343.269,393.375 L344.271,446.295 L364.163,440.419 L347.885,395.037 C347.885,395.037 347.473,394.237 347.053,394.148" fill="#ED4B37"/>
    <path d="M356.978,425.308 C356.474,427.773 364.249,429.142 364.249,429.142 L365.172,424.645 C365.172,424.645 357.486,422.841 356.978,425.308" fill="#ED4B37"/>
    <path d="M352.612,413.201 C352.104,415.667 359.881,417.034 359.881,417.034 L360.804,412.537 C360.804,412.537 353.118,410.732 352.612,413.201" fill="#ED4B37"/>
    <path d="M324.202,486.296 C324.202,486.296 327.565,486.988 327.986,487.073 C328.407,487.158 329.103,486.587 329.103,486.587 L361.936,451.278 L345.965,438.044 L324.202,486.296" fill="#ED4B37"/>
    <path d="M349.382,462.343 C348.876,464.809 356.65,466.175 356.65,466.175 L357.572,461.681 C357.572,461.681 349.888,459.873 349.382,462.343" fill="#ED4B37"/>
    <path d="M340.599,471.752 C340.093,474.219 347.866,475.587 347.866,475.587 L348.79,471.091 C348.79,471.091 341.104,469.285 340.599,471.752" fill="#ED4B37"/>
    <path d="M483.361,118.07 L467.729,114.863 L386.306,511.725 L401.939,514.933 C412.302,517.061 418.658,512.865 420.783,502.504 L440.229,407.725 C440.229,407.725 440.942,404.246 438.472,401.041 C436.94,399.058 433.519,395.755 433.519,395.755 C433.519,395.755 438.003,394.002 440.244,392.83 C443.648,391.054 444.399,387.397 444.399,387.397 L495.79,136.914 C497.916,126.551 493.726,120.196 483.361,118.07" fill="#ED4B37"/>
    <path d="M485.556,140.292 C485.5,140.555 485.382,140.764 485.193,140.918 C485.006,141.073 484.807,141.128 484.593,141.085 L480.321,140.208 C480.109,140.166 479.948,140.035 479.837,139.819 C479.724,139.604 479.696,139.365 479.75,139.1 L479.919,138.278 L485.722,139.47 L485.556,140.292 z M479.403,139.031 C479.351,139.293 479.229,139.502 479.042,139.656 C478.854,139.81 478.653,139.866 478.444,139.823 L473.413,138.791 C473.202,138.747 473.04,138.617 472.929,138.402 C472.818,138.187 472.787,137.947 472.842,137.683 L473.012,136.861 L479.574,138.207 L479.403,139.031 z M486.113,137.57 L473.4,134.961 L473.522,134.369 L473.178,134.299 L472.497,137.613 C472.334,138.402 472.39,139.114 472.656,139.748 C472.928,140.383 473.328,140.755 473.864,140.865 L477.211,141.552 C478.027,141.72 478.738,141.288 479.337,140.259 C479.459,141.437 479.938,142.111 480.773,142.282 L483.363,142.814 C483.898,142.923 484.415,142.74 484.914,142.262 C485.41,141.786 485.739,141.152 485.9,140.363 L486.582,137.05 L486.233,136.978 L486.113,137.57" fill="#F7F7F7"/>
    <path d="M484.188,147.436 C484.132,147.699 484.011,147.908 483.824,148.064 C483.638,148.219 483.438,148.274 483.226,148.23 L471.858,145.898 C471.646,145.855 471.484,145.725 471.37,145.509 C471.262,145.293 471.233,145.053 471.285,144.79 C471.339,144.528 471.461,144.319 471.647,144.166 C471.836,144.011 472.035,143.955 472.248,143.999 L483.614,146.332 C483.826,146.374 483.99,146.504 484.101,146.72 C484.211,146.934 484.24,147.174 484.188,147.436 z M483.163,144.256 L473.479,142.268 C472.945,142.159 472.426,142.346 471.929,142.826 C471.43,143.308 471.1,143.939 470.939,144.72 C470.777,145.508 470.832,146.219 471.102,146.854 C471.37,147.489 471.774,147.861 472.31,147.97 L481.993,149.958 C482.53,150.068 483.046,149.885 483.543,149.407 C484.042,148.93 484.372,148.297 484.532,147.509 C484.692,146.727 484.64,146.02 484.37,145.378 C484.103,144.741 483.7,144.365 483.163,144.256" fill="#F7F7F7"/>
    <path d="M481.571,153.396 L474.165,152.698 L474.506,151.041 L481.571,153.396 z M470.626,148.482 L470.281,148.41 L469.917,150.195 L470.261,150.264 L470.382,149.676 L474.174,150.949 L473.823,152.651 L469.847,152.283 L469.968,151.692 L469.624,151.62 L468.989,154.702 L469.335,154.773 L469.457,154.181 L482.833,155.321 L483.224,153.421 L470.504,149.074 L470.626,148.482" fill="#F7F7F7"/>
    <path d="M481.271,161.172 C481.218,161.433 481.098,161.642 480.909,161.798 C480.722,161.951 480.522,162.008 480.309,161.964 L476.038,161.088 C475.827,161.044 475.665,160.914 475.553,160.699 C475.442,160.481 475.412,160.243 475.465,159.98 L475.636,159.158 L481.439,160.348 L481.271,161.172 z M481.83,158.447 L469.116,155.839 L469.237,155.25 L468.893,155.179 L468.261,158.261 L468.604,158.331 L468.727,157.74 L475.289,159.087 L475.121,159.909 C475.067,160.172 474.946,160.38 474.76,160.535 C474.571,160.689 474.369,160.746 474.159,160.703 L469.42,159.73 C468.485,159.538 467.903,159.998 467.677,161.11 L467.507,161.933 L467.852,162.003 L467.861,161.956 C467.937,161.595 468.144,161.447 468.486,161.518 L472.927,162.429 C473.744,162.596 474.455,162.167 475.054,161.139 C475.175,162.315 475.654,162.989 476.49,163.16 L479.08,163.691 C479.616,163.801 480.131,163.617 480.63,163.14 C481.125,162.663 481.456,162.031 481.618,161.242 L482.297,157.929 L481.951,157.858 L481.83,158.447" fill="#F7F7F7"/>
    <path d="M479.763,168.528 C479.707,168.79 479.588,168.999 479.4,169.153 C479.213,169.308 479.013,169.365 478.8,169.322 L467.62,167.028 C467.408,166.984 467.247,166.854 467.137,166.637 C467.023,166.422 466.996,166.182 467.049,165.918 L467.218,165.096 L479.932,167.704 L479.763,168.528 z M480.32,165.805 L467.607,163.197 L467.729,162.606 L467.384,162.534 L466.702,165.848 C466.542,166.637 466.597,167.349 466.864,167.984 C467.135,168.618 467.536,168.99 468.071,169.1 L477.57,171.049 C478.105,171.158 478.622,170.975 479.12,170.498 C479.616,170.02 479.946,169.388 480.11,168.598 L480.788,165.284 L480.442,165.214 L480.32,165.805" fill="#F7F7F7"/>
    <path d="M478.825,173.092 L466.111,170.484 L466.233,169.894 L465.888,169.823 L465.257,172.905 L465.601,172.975 L465.723,172.385 L478.436,174.992 L478.313,175.584 L478.661,175.655 L479.292,172.574 L478.946,172.502 L478.825,173.092" fill="#F7F7F7"/>
    <path d="M478.035,176.939 L465.321,174.331 L465.444,173.741 L465.098,173.67 L464.733,175.443 L465.079,175.513 L465.202,174.921 L475.288,176.991 L464.269,177.724 L463.956,179.242 L477.015,181.92 L476.892,182.513 L477.24,182.585 L477.603,180.81 L477.258,180.74 L477.135,181.332 L468.17,179.492 L478.012,178.819 L478.504,176.42 L478.158,176.349 L478.035,176.939" fill="#F7F7F7"/>
    <path d="M475.161,183.269 L465.475,181.282 C464.939,181.172 464.423,181.356 463.924,181.839 C463.427,182.319 463.096,182.95 462.937,183.73 C462.775,184.518 462.831,185.229 463.098,185.863 C463.367,186.499 463.77,186.871 464.307,186.981 L469.699,188.088 L470.283,185.238 L469.938,185.167 L469.743,186.117 L463.854,184.908 C463.644,184.865 463.481,184.737 463.368,184.519 C463.259,184.303 463.229,184.064 463.283,183.802 C463.336,183.539 463.456,183.329 463.646,183.175 C463.833,183.02 464.032,182.965 464.243,183.01 L475.612,185.341 C475.823,185.385 475.983,185.513 476.096,185.731 C476.208,185.946 476.237,186.185 476.183,186.449 C476.129,186.711 476.009,186.918 475.821,187.073 C475.633,187.229 475.434,187.284 475.222,187.241 L472.222,186.625 L471.832,188.525 L473.99,188.968 C474.525,189.078 475.043,188.893 475.541,188.416 C476.036,187.939 476.366,187.307 476.529,186.519 C476.689,185.739 476.635,185.029 476.365,184.391 C476.098,183.752 475.695,183.379 475.161,183.269" fill="#F7F7F7"/>
    <path d="M473.875,197.216 C473.821,197.478 473.702,197.687 473.515,197.842 C473.325,197.996 473.126,198.052 472.915,198.008 L467.475,196.893 C467.263,196.849 467.1,196.719 466.989,196.503 C466.879,196.286 466.85,196.048 466.903,195.785 L467.071,194.963 L474.045,196.393 L473.875,197.216 z M474.435,194.491 L461.723,191.884 L461.842,191.294 L461.498,191.223 L460.864,194.305 L461.209,194.376 L461.331,193.784 L466.725,194.891 L466.557,195.714 C466.395,196.502 466.449,197.213 466.718,197.848 C466.988,198.483 467.391,198.855 467.926,198.964 L471.686,199.735 C472.22,199.845 472.737,199.662 473.233,199.184 C473.731,198.707 474.06,198.074 474.222,197.286 L474.902,193.973 L474.556,193.902 L474.435,194.491" fill="#F7F7F7"/>
    <path d="M471.401,202.963 L463.997,202.264 L464.339,200.606 L471.401,202.963 z M460.456,198.05 L460.11,197.978 L459.745,199.763 L460.09,199.833 L460.212,199.241 L464.004,200.514 L463.654,202.218 L459.677,201.848 L459.798,201.257 L459.454,201.185 L458.82,204.268 L459.165,204.339 L459.288,203.749 L472.664,204.887 L473.055,202.986 L460.335,198.639 L460.456,198.05" fill="#F7F7F7"/>
    <path d="M470.216,207.369 L468.393,206.994 C467.763,206.866 467.148,206.95 466.546,207.254 L463.08,209.018 C462.521,209.297 461.924,209.372 461.289,209.241 L458.96,208.764 C458.447,208.658 458.25,208.331 458.363,207.785 C458.477,207.23 458.788,207.003 459.3,207.109 L462.3,207.724 L462.689,205.825 L460.531,205.382 C459.989,205.27 459.475,205.435 458.987,205.88 C458.5,206.322 458.176,206.932 458.015,207.714 C457.856,208.486 457.916,209.172 458.188,209.77 C458.462,210.37 458.87,210.724 459.412,210.836 L461.32,211.227 C461.954,211.358 462.571,211.271 463.173,210.969 L466.645,209.207 C467.198,208.926 467.793,208.851 468.423,208.98 L470.666,209.44 C471.178,209.546 471.376,209.876 471.262,210.432 C471.15,210.979 470.838,211.201 470.326,211.096 L467.328,210.481 L466.938,212.381 L469.096,212.823 C469.639,212.934 470.152,212.769 470.641,212.325 C471.126,211.882 471.45,211.275 471.608,210.503 C471.769,209.721 471.713,209.033 471.438,208.434 C471.165,207.834 470.758,207.48 470.216,207.369" fill="#F7F7F7"/>
    <path d="M468.842,214.064 L467.02,213.689 C466.391,213.559 465.774,213.647 465.173,213.95 L461.703,215.715 C461.145,215.995 460.55,216.07 459.915,215.939 L457.586,215.462 C457.075,215.356 456.876,215.03 456.987,214.482 C457.103,213.925 457.415,213.7 457.927,213.804 L460.927,214.42 L461.315,212.519 L459.157,212.076 C458.615,211.965 458.101,212.133 457.613,212.575 C457.126,213.018 456.802,213.63 456.642,214.412 C456.483,215.181 456.542,215.867 456.814,216.468 C457.087,217.068 457.495,217.422 458.038,217.534 L459.946,217.925 C460.58,218.055 461.198,217.969 461.8,217.666 L465.27,215.902 C465.826,215.623 466.419,215.547 467.05,215.676 L469.294,216.137 C469.804,216.241 470.002,216.572 469.888,217.129 C469.776,217.677 469.464,217.899 468.954,217.794 L465.955,217.178 L465.563,219.078 L467.722,219.521 C468.265,219.632 468.779,219.467 469.267,219.023 C469.752,218.579 470.077,217.97 470.235,217.2 C470.394,216.419 470.338,215.73 470.065,215.131 C469.791,214.532 469.386,214.175 468.842,214.064" fill="#F7F7F7"/>
    <path d="M428.855,418.149 C428.803,418.412 428.684,418.618 428.495,418.775 C428.307,418.928 428.108,418.984 427.895,418.943 L423.624,418.066 C423.412,418.022 423.25,417.891 423.141,417.676 C423.027,417.459 422.998,417.219 423.052,416.957 L423.222,416.137 L429.025,417.324 L428.855,418.149 z M422.708,416.887 C422.652,417.149 422.534,417.357 422.346,417.512 C422.157,417.665 421.955,417.723 421.746,417.678 L416.717,416.649 C416.504,416.603 416.341,416.474 416.23,416.257 C416.121,416.041 416.091,415.803 416.144,415.54 L416.313,414.718 L422.875,416.063 L422.708,416.887 z M429.417,415.428 L416.704,412.817 L416.823,412.227 L416.479,412.156 L415.8,415.47 C415.638,416.257 415.69,416.969 415.959,417.602 C416.23,418.237 416.63,418.61 417.167,418.72 L420.512,419.405 C421.331,419.572 422.041,419.142 422.641,418.116 C422.763,419.292 423.239,419.965 424.076,420.137 L426.665,420.67 C427.2,420.777 427.718,420.594 428.215,420.117 C428.714,419.641 429.042,419.01 429.204,418.22 L429.884,414.908 L429.536,414.836 L429.417,415.428" fill="#F7F7F7"/>
    <path d="M427.49,425.296 C427.437,425.557 427.314,425.763 427.128,425.921 C426.938,426.073 426.738,426.129 426.527,426.087 L415.161,423.754 C414.947,423.711 414.786,423.579 414.676,423.364 C414.563,423.148 414.534,422.909 414.589,422.647 C414.644,422.384 414.763,422.175 414.952,422.02 C415.14,421.863 415.339,421.81 415.551,421.853 L426.916,424.186 C427.13,424.23 427.293,424.357 427.401,424.575 C427.514,424.79 427.543,425.03 427.49,425.296 z M426.466,422.113 L416.782,420.125 C416.246,420.013 415.729,420.199 415.231,420.682 C414.733,421.161 414.403,421.794 414.243,422.575 C414.08,423.362 414.136,424.074 414.403,424.71 C414.674,425.342 415.075,425.715 415.613,425.826 L425.297,427.812 C425.834,427.923 426.35,427.737 426.847,427.262 C427.344,426.783 427.673,426.153 427.834,425.364 C427.995,424.582 427.941,423.873 427.675,423.237 C427.404,422.596 427.002,422.223 426.466,422.113" fill="#F7F7F7"/>
    <path d="M424.872,431.251 L417.468,430.553 L417.81,428.897 L424.872,431.251 z M413.928,426.339 L413.583,426.267 L413.218,428.051 L413.562,428.121 L413.684,427.532 L417.476,428.804 L417.125,430.507 L413.147,430.139 L413.271,429.545 L412.926,429.476 L412.293,432.555 L412.637,432.628 L412.759,432.038 L426.136,433.175 L426.525,431.276 L413.808,426.928 L413.928,426.339" fill="#F7F7F7"/>
    <path d="M424.573,439.027 C424.519,439.289 424.401,439.497 424.212,439.652 C424.024,439.808 423.825,439.864 423.612,439.818 L419.341,438.943 C419.13,438.899 418.966,438.772 418.857,438.553 C418.743,438.338 418.715,438.097 418.77,437.836 L418.939,437.013 L424.743,438.207 L424.573,439.027 z M425.133,436.304 L412.42,433.696 L412.54,433.104 L412.196,433.033 L411.562,436.116 L411.909,436.186 L412.028,435.596 L418.593,436.942 L418.424,437.764 C418.37,438.028 418.249,438.236 418.063,438.391 C417.874,438.546 417.673,438.6 417.462,438.559 L412.723,437.584 C411.787,437.391 411.206,437.853 410.978,438.967 L410.809,439.791 L411.155,439.859 L411.164,439.812 C411.237,439.45 411.447,439.302 411.79,439.372 L416.229,440.282 C417.048,440.451 417.757,440.023 418.355,438.995 C418.479,440.171 418.956,440.842 419.792,441.014 L422.381,441.546 C422.917,441.654 423.435,441.472 423.931,440.994 C424.429,440.516 424.76,439.885 424.92,439.096 L425.6,435.783 L425.254,435.713 L425.133,436.304" fill="#F7F7F7"/>
    <path d="M423.063,446.384 C423.011,446.645 422.891,446.854 422.701,447.009 C422.516,447.166 422.315,447.22 422.102,447.178 L410.922,444.883 C410.711,444.84 410.549,444.71 410.438,444.493 C410.328,444.279 410.297,444.038 410.351,443.774 L410.52,442.954 L423.232,445.561 L423.063,446.384 z M423.624,443.661 L410.909,441.052 L411.03,440.462 L410.686,440.389 L410.007,443.706 C409.844,444.493 409.898,445.203 410.165,445.837 C410.438,446.474 410.837,446.844 411.375,446.955 L420.873,448.904 C421.408,449.012 421.927,448.828 422.423,448.352 C422.919,447.876 423.249,447.243 423.411,446.454 L424.09,443.142 L423.743,443.072 L423.624,443.661" fill="#F7F7F7"/>
    <path d="M422.128,450.949 L409.415,448.339 L409.535,447.749 L409.19,447.679 L408.558,450.761 L408.902,450.831 L409.024,450.241 L421.738,452.849 L421.616,453.438 L421.963,453.511 L422.596,450.428 L422.249,450.357 L422.128,450.949" fill="#F7F7F7"/>
    <path d="M421.338,454.794 L408.625,452.186 L408.745,451.596 L408.401,451.526 L408.038,453.297 L408.383,453.369 L408.504,452.775 L418.589,454.847 L407.569,455.579 L407.258,457.097 L420.317,459.778 L420.195,460.369 L420.541,460.437 L420.906,458.667 L420.56,458.593 L420.437,459.186 L411.472,457.347 L421.314,456.674 L421.806,454.274 L421.459,454.205 L421.338,454.794" fill="#F7F7F7"/>
    <path d="M418.462,461.125 L408.776,459.138 C408.242,459.026 407.726,459.213 407.227,459.694 C406.729,460.176 406.397,460.805 406.239,461.585 C406.077,462.372 406.132,463.084 406.401,463.721 C406.672,464.352 407.072,464.725 407.609,464.836 L413.003,465.942 L413.587,463.094 L413.242,463.019 L413.047,463.971 L407.158,462.764 C406.945,462.72 406.783,462.592 406.672,462.374 C406.561,462.161 406.532,461.919 406.587,461.657 C406.64,461.391 406.761,461.185 406.948,461.03 C407.135,460.875 407.333,460.82 407.547,460.866 L418.913,463.197 C419.126,463.24 419.288,463.37 419.399,463.585 C419.51,463.803 419.539,464.04 419.485,464.303 C419.431,464.565 419.31,464.776 419.122,464.928 C418.937,465.084 418.736,465.14 418.524,465.095 L415.522,464.48 L415.134,466.381 L417.294,466.822 C417.829,466.932 418.347,466.75 418.842,466.272 C419.341,465.794 419.671,465.161 419.831,464.374 C419.99,463.595 419.938,462.885 419.669,462.247 C419.4,461.609 418.999,461.233 418.462,461.125" fill="#F7F7F7"/>
    <path d="M417.178,475.072 C417.126,475.334 417.005,475.542 416.817,475.697 C416.63,475.85 416.43,475.909 416.217,475.863 L410.777,474.748 C410.565,474.704 410.404,474.575 410.292,474.357 C410.18,474.141 410.15,473.904 410.205,473.642 L410.376,472.818 L417.348,474.25 L417.178,475.072 z M417.737,472.349 L405.023,469.739 L405.146,469.148 L404.8,469.076 L404.167,472.159 L404.513,472.231 L404.634,471.641 L410.028,472.748 L409.857,473.568 C409.695,474.355 409.751,475.067 410.021,475.703 C410.289,476.337 410.692,476.709 411.227,476.819 L414.987,477.591 C415.522,477.699 416.04,477.514 416.537,477.039 C417.034,476.561 417.364,475.929 417.524,475.14 L418.207,471.828 L417.857,471.758 L417.737,472.349" fill="#F7F7F7"/>
    <path d="M414.704,480.816 L407.3,480.121 L407.64,478.463 L414.704,480.816 z M403.759,475.902 L403.415,475.832 L403.048,477.618 L403.393,477.688 L403.513,477.096 L407.308,478.37 L406.957,480.074 L402.979,479.703 L403.1,479.113 L402.755,479.041 L402.124,482.125 L402.468,482.196 L402.59,481.605 L415.965,482.744 L416.355,480.844 L403.638,476.496 L403.759,475.902" fill="#F7F7F7"/>
    <path d="M413.519,485.222 L411.694,484.851 C411.065,484.72 410.449,484.806 409.85,485.11 L406.382,486.873 C405.822,487.154 405.226,487.227 404.591,487.097 L402.261,486.622 C401.751,486.515 401.552,486.189 401.664,485.64 C401.778,485.084 402.09,484.86 402.603,484.964 L405.603,485.579 L405.992,483.68 L403.833,483.236 C403.292,483.126 402.777,483.29 402.289,483.736 C401.803,484.178 401.479,484.789 401.318,485.568 C401.16,486.343 401.218,487.029 401.49,487.626 C401.765,488.224 402.172,488.581 402.714,488.693 L404.622,489.084 C405.256,489.215 405.874,489.129 406.475,488.826 L409.946,487.062 C410.503,486.781 411.098,486.706 411.727,486.835 L413.97,487.295 C414.48,487.402 414.68,487.73 414.566,488.287 C414.452,488.834 414.142,489.058 413.631,488.953 L410.63,488.338 L410.239,490.236 L412.398,490.679 C412.94,490.791 413.454,490.627 413.941,490.182 C414.43,489.738 414.751,489.131 414.911,488.357 C415.069,487.578 415.015,486.889 414.741,486.289 C414.468,485.687 414.062,485.336 413.519,485.222" fill="#F7F7F7"/>
    <path d="M412.145,491.921 L410.321,491.545 C409.691,491.415 409.076,491.503 408.476,491.805 L405.008,493.569 C404.448,493.85 403.853,493.925 403.218,493.793 L400.889,493.315 C400.378,493.212 400.178,492.886 400.29,492.337 C400.404,491.782 400.716,491.555 401.229,491.662 L404.229,492.276 L404.617,490.376 L402.459,489.932 C401.918,489.82 401.402,489.989 400.916,490.431 C400.429,490.874 400.104,491.485 399.944,492.266 C399.785,493.038 399.845,493.724 400.116,494.321 C400.391,494.923 400.798,495.278 401.34,495.389 L403.247,495.782 C403.882,495.91 404.5,495.825 405.101,495.523 L408.572,493.759 C409.129,493.479 409.724,493.402 410.353,493.534 L412.595,493.992 C413.105,494.098 413.304,494.428 413.19,494.983 C413.078,495.532 412.767,495.753 412.257,495.648 L409.256,495.032 L408.865,496.934 L411.024,497.376 C411.567,497.486 412.081,497.323 412.567,496.879 C413.056,496.434 413.378,495.825 413.536,495.057 C413.696,494.275 413.641,493.586 413.366,492.986 C413.094,492.387 412.688,492.03 412.145,491.921" fill="#F7F7F7"/>
    <path d="M430.712,393.552 L427.333,392.859 L426.692,395.986 L430.071,396.68" fill="#E0E0E0"/>
    <path d="M420.899,391.539 L414.464,390.218 L413.822,393.346 L420.257,394.666 z M408.028,388.898 L401.593,387.578 L400.951,390.705 L407.386,392.025 z M395.157,386.257 L388.722,384.937 L388.08,388.064 L394.516,389.385 z M382.287,383.617 L375.851,382.296 L375.21,385.424 L381.645,386.744 z M369.416,380.976 L362.981,379.656 L362.339,382.783 L368.774,384.104 z M356.545,378.336 L350.11,377.015 L349.468,380.143 L355.904,381.463 z M343.675,375.695 L337.239,374.375 L336.597,377.502 L343.033,378.822 z M330.804,373.054 L324.368,371.734 L323.727,374.861 L330.162,376.182 z M317.933,370.414 L311.498,369.093 L310.856,372.221 L317.291,373.541 z M305.062,367.773 L298.627,366.453 L297.985,369.58 L304.421,370.901" fill="#E0E0E0"/>
    <path d="M292.191,365.132 L288.813,364.439 L288.171,367.566 L291.549,368.26" fill="#E0E0E0"/>
    <path d="M414.294,216.518 L428.059,219.343 L446.757,128.211 L432.991,125.387 L414.294,216.518" fill="#EED4D3"/>
    <path d="M351.769,203.69 L365.532,206.514 L384.229,115.382 L370.466,112.558 L351.769,203.69" fill="#EED4D3"/>
    <path d="M329.164,313.864 L342.928,316.69 L362.434,221.618 L348.669,218.794 L329.164,313.864" fill="#EED4D3"/>
    <path d="M306.007,309.115 L319.771,311.939 L339.276,216.867 L325.511,214.044 L306.007,309.115" fill="#EED4D3"/>
    <path d="M328.478,199.594 L342.241,202.418 L360.939,111.286 L347.173,108.463 L328.478,199.594" fill="#EED4D3"/>
    <path d="M368.896,321.028 L382.663,323.851 L423.966,122.545 L410.198,119.72 L368.896,321.028" fill="#EED4D3"/>
    <path d="M399.679,372.111 L404.465,373.095 L409.929,346.46 L405.143,345.476 L399.679,372.111" fill="#838282"/>
    <path d="M393.786,370.903 L396.364,371.431 L401.829,344.797 L399.25,344.269 L393.786,370.903" fill="#838282"/>
    <path d="M390.337,370.195 L391.854,370.506 L397.317,343.874 L395.802,343.56 L390.337,370.195" fill="#838282"/>
    <path d="M381.363,368.353 L388.539,369.826 L394.005,343.192 L386.826,341.721 L381.363,368.353" fill="#838282"/>
    <path d="M379.015,367.872 L380.533,368.184 L385.997,341.551 L384.479,341.235 L379.015,367.872" fill="#838282"/>
    <path d="M375.839,367.22 L377.082,367.474 L382.546,340.842 L381.304,340.587 L375.839,367.22" fill="#838282"/>
    <path d="M373.768,366.797 L374.735,366.996 L380.199,340.362 L379.231,340.162 L373.768,366.797" fill="#838282"/>
    <path d="M370.181,366.059 L372.111,366.457 L377.576,339.822 L375.645,339.425 L370.181,366.059" fill="#838282"/>
    <path d="M365.623,365.124 L368.936,365.805 L374.399,339.171 L371.087,338.49 L365.623,365.124" fill="#838282"/>
    <path d="M362.447,364.473 L363.968,364.784 L369.431,338.149 L367.911,337.839 L362.447,364.473" fill="#838282"/>
    <path d="M359.273,363.822 L360.514,364.078 L365.977,337.441 L364.736,337.185 L359.273,363.822" fill="#838282"/>
    <path d="M353.336,362.603 L357.34,363.425 L362.806,336.79 L358.801,335.969 L353.336,362.603" fill="#838282"/>
    <path d="M349.606,361.837 L351.955,362.323 L357.418,335.686 L355.072,335.202 L349.606,361.837" fill="#838282"/>
    <path d="M344.222,360.734 L347.397,361.386 L352.862,334.751 L349.686,334.1 L344.222,360.734" fill="#838282"/>
    <path d="M340.772,360.024 L342.014,360.281 L347.479,333.645 L346.236,333.391 L340.772,360.024" fill="#838282"/>
    <path d="M338.701,359.601 L339.667,359.8 L345.132,333.165 L344.166,332.968 L338.701,359.601" fill="#838282"/>
    <path d="M335.11,358.864 L337.043,359.262 L342.508,332.628 L340.573,332.23 L335.11,358.864" fill="#838282"/>
    <path d="M306.254,352.945 L307.497,353.2 L312.961,326.565 L311.719,326.31 L306.254,352.945" fill="#838282"/>
    <path d="M300.316,351.727 L304.32,352.548 L309.784,325.913 L305.78,325.091 L300.316,351.727" fill="#838282"/>
    <path d="M296.59,350.964 L298.936,351.443 L304.4,324.806 L302.056,324.327 L296.59,350.964" fill="#838282"/>
    <path d="M291.206,349.857 L294.382,350.509 L299.848,323.872 L296.671,323.222 L291.206,349.857" fill="#838282"/>
    <path d="M330.555,357.929 L333.869,358.611 L339.333,331.974 L336.021,331.295 L330.555,357.929" fill="#838282"/>
    <path d="M327.379,357.278 L328.898,357.592 L334.362,330.955 L332.845,330.644 L327.379,357.278" fill="#838282"/>
    <path d="M324.203,356.628 L325.445,356.883 L330.911,330.247 L329.669,329.991 L324.203,356.628" fill="#838282"/>
    <path d="M318.265,355.408 L322.271,356.23 L327.734,329.595 L323.73,328.774 L318.265,355.408" fill="#838282"/>
    <path d="M314.54,354.644 L316.884,355.126 L322.349,328.491 L320.004,328.01 L314.54,354.644" fill="#838282"/>
    <path d="M309.155,353.54 L312.328,354.191 L317.794,327.554 L314.621,326.906 L309.155,353.54" fill="#838282"/>
    <path d="M281.27,392.474 L297.462,395.799 L298.142,392.482 L281.949,389.159 L281.27,392.474" fill="#838282"/>
    <path d="M280.432,396.554 L296.625,399.875 L296.991,398.093 L280.797,394.77 L280.432,396.554" fill="#838282"/>
    <path d="M279.942,398.944 L296.135,402.265 L296.351,401.217 L280.156,397.89 L279.942,398.944" fill="#838282"/>
    <path d="M278.668,405.155 L294.859,408.48 L295.88,403.509 L279.688,400.187 L278.668,405.155" fill="#838282"/>
    <path d="M278.334,406.782 L294.527,410.103 L294.742,409.053 L278.55,405.731 L278.334,406.782" fill="#838282"/>
    <path d="M277.882,408.983 L294.075,412.303 L294.253,411.443 L278.059,408.122 L277.882,408.983" fill="#838282"/>
    <path d="M277.589,410.414 L293.781,413.735 L293.918,413.066 L277.726,409.745 L277.589,410.414" fill="#838282"/>
    <path d="M277.078,412.9 L293.271,416.221 L293.547,414.882 L277.353,411.56 L277.078,412.9" fill="#838282"/>
    <path d="M276.432,416.055 L292.624,419.377 L293.094,417.081 L276.902,413.759 L276.432,416.055" fill="#838282"/>
    <path d="M275.98,418.254 L292.173,421.574 L292.39,420.522 L276.196,417.201 L275.98,418.254" fill="#838282"/>
    <path d="M275.53,420.449 L291.724,423.772 L291.899,422.914 L275.705,419.592 L275.53,420.449" fill="#838282"/>
    <path d="M274.685,424.56 L290.88,427.884 L291.448,425.11 L275.255,421.787 L274.685,424.56" fill="#838282"/>
    <path d="M274.157,427.141 L290.35,430.465 L290.684,428.84 L274.488,425.516 L274.157,427.141" fill="#838282"/>
    <path d="M273.393,430.87 L289.583,434.193 L290.035,431.993 L273.843,428.671 L273.393,430.87" fill="#838282"/>
    <path d="M272.901,433.26 L289.093,436.583 L289.271,435.721 L273.077,432.4 L272.901,433.26" fill="#838282"/>
    <path d="M272.608,434.694 L288.8,438.015 L288.937,437.345 L272.745,434.025 L272.608,434.694" fill="#838282"/>
    <path d="M272.099,437.18 L288.29,440.502 L288.565,439.162 L272.372,435.841 L272.099,437.18" fill="#838282"/>
    <path d="M267.999,457.155 L284.191,460.477 L284.368,459.618 L268.175,456.297 L267.999,457.155" fill="#838282"/>
    <path d="M267.156,461.268 L283.347,464.59 L283.916,461.817 L267.724,458.494 L267.156,461.268" fill="#838282"/>
    <path d="M266.625,463.847 L282.819,467.169 L283.151,465.546 L266.96,462.224 L266.625,463.847" fill="#838282"/>
    <path d="M265.861,467.577 L282.054,470.898 L282.506,468.699 L266.312,465.376 L265.861,467.577" fill="#838282"/>
    <path d="M271.451,440.332 L287.645,443.653 L288.113,441.361 L271.922,438.038 L271.451,440.332" fill="#838282"/>
    <path d="M270.999,442.53 L287.192,445.854 L287.408,444.803 L271.215,441.479 L270.999,442.53" fill="#838282"/>
    <path d="M270.548,444.731 L286.74,448.051 L286.918,447.19 L270.725,443.87 L270.548,444.731" fill="#838282"/>
    <path d="M269.706,448.843 L285.897,452.162 L286.466,449.39 L270.274,446.065 L269.706,448.843" fill="#838282"/>
    <path d="M269.176,451.42 L285.369,454.743 L285.702,453.118 L269.51,449.797 L269.176,451.42" fill="#838282"/>
    <path d="M268.412,455.148 L284.604,458.472 L285.055,456.273 L268.861,452.952 L268.412,455.148" fill="#838282"/>
    <path d="M435.09,353.958 C428.973,352.701 422.997,356.642 421.743,362.761 C420.489,368.876 424.427,374.853 430.545,376.107 C436.661,377.365 442.637,373.42 443.891,367.303 C445.148,361.187 441.206,355.212 435.09,353.958" fill="#EED4D3"/>
    <path d="M430.886,357.116 L430.918,357.24 L433.5,359.471 L434.629,357.9 L431.035,356.387 L430.886,357.116" fill="#ED4B37"/>
    <path d="M434.379,359.652 L437.63,358.619 L437.71,358.514 L437.858,357.787 L433.962,357.765 L434.379,359.652" fill="#ED4B37"/>
    <path d="M433.627,358.073 C433.627,358.073 430.61,368.284 430.251,370.039 C429.891,371.792 430.234,373.679 431.011,373.839 C431.787,373.998 432.847,372.399 433.206,370.646 C433.567,368.889 434.814,358.316 434.814,358.316 L434.524,356.71 L433.627,358.073" fill="#ED4B37"/>
    <path d="M433.147,369.121 L442.516,365.761 L442.698,365.586 L442.859,364.808 L431.934,365.012 L433.147,369.121" fill="#ED4B37"/>
    <path d="M436.268,367.637 C435.757,367.533 435.476,369.137 435.476,369.137 L436.404,369.327 C436.404,369.327 436.775,367.743 436.268,367.637" fill="#ED4B37"/>
    <path d="M438.769,366.735 C438.256,366.63 437.974,368.235 437.974,368.235 L438.903,368.428 C438.903,368.428 439.276,366.84 438.769,366.735" fill="#ED4B37"/>
    <path d="M423.515,361.652 L423.616,361.883 L430.904,368.661 L433.638,365.364 L423.677,360.871 L423.515,361.652" fill="#ED4B37"/>
    <path d="M428.62,366.068 C428.112,365.963 427.829,367.57 427.829,367.57 L428.757,367.759 C428.757,367.759 429.132,366.172 428.62,366.068" fill="#ED4B37"/>
    <path d="M426.679,364.256 C426.169,364.151 425.888,365.757 425.888,365.757 L426.814,365.945 C426.814,365.945 427.188,364.359 426.679,364.256" fill="#ED4B37"/>
    <path d="M396.639,118.625 L355.473,319.265 C355.382,319.706 355.667,320.137 356.108,320.227 C356.549,320.318 356.979,320.033 357.07,319.592 L398.236,118.953 C398.327,118.512 398.042,118.081 397.601,117.99 C397.16,117.9 396.729,118.184 396.639,118.625" fill="#ED4B37"/>
    <path d="M391.645,325.695 L405.41,328.519 L424.915,233.448 L411.149,230.623 L391.645,325.695" fill="#EED4D3"/>
    <path d="M463.19,125.218 L333.163,92.502 C322.904,89.921 316.369,93.827 313.788,104.087 L251.395,352.059 C251.395,352.059 250.559,355.387 253.251,359.132 C254.235,360.501 257.572,364.311 257.572,364.311 C257.572,364.311 252.834,366.28 251.221,366.846 C246.98,368.341 246.333,372.182 246.333,372.182 L222.725,466.011 C220.143,476.268 224.052,482.803 234.309,485.386 L364.337,518.1 C374.597,520.682 385.004,514.458 387.586,504.2 L410.464,413.274 L401.192,400.243 L415.527,393.149 L477.092,148.469 C479.674,138.208 473.449,127.8 463.19,125.218" fill="#F7F7F7"/>
    <path d="M270.957,450.075 C270.957,450.075 274.29,450.913 274.455,450.954 C274.889,451.063 275.07,450.825 275.07,450.825 L286.413,438.809 L279.054,433.011 L270.957,450.075" fill="#5D5F83"/>
    <path d="M282.689,418.235 C282.522,418.194 279.191,417.354 279.191,417.354 L278.248,436.216 L287.475,434.591 L283.169,418.639 C283.169,418.639 283.099,418.339 282.689,418.235" fill="#5D5F83"/>
    <path d="M340.417,442.618 C332.005,440.503 281.105,432.208 281.105,432.208 L273.267,433.261 L279.675,437.897 C279.675,437.897 328.439,454.675 336.851,456.792 C345.262,458.909 354.472,457.651 355.407,453.927 C356.345,450.202 348.828,444.735 340.417,442.618" fill="#5D5F83"/>
    <path d="M317.978,395.6 C317.559,395.497 314.231,394.659 314.231,394.659 L312.897,447.573 L333.029,442.579 L318.771,396.524 C318.771,396.524 318.394,395.706 317.978,395.6" fill="#5D5F83"/>
    <path d="M326.519,427.167 C325.905,429.608 333.612,431.317 333.612,431.317 L334.733,426.866 C334.733,426.866 327.136,424.723 326.519,427.167" fill="#5D5F83"/>
    <path d="M322.691,414.878 C322.074,417.321 329.783,419.028 329.783,419.028 L330.903,414.577 C330.903,414.577 323.306,412.434 322.691,414.878" fill="#5D5F83"/>
    <path d="M291.084,486.649 C291.084,486.649 294.413,487.489 294.83,487.593 C295.247,487.696 295.966,487.155 295.966,487.155 L330.325,453.331 L314.954,439.405 L291.084,486.649" fill="#5D5F83"/>
    <path d="M317.296,463.831 C316.682,466.272 324.388,467.979 324.388,467.979 L325.508,463.53 C325.508,463.53 317.91,461.386 317.296,463.831" fill="#5D5F83"/>
    <path d="M308.106,472.843 C307.492,475.284 315.197,476.995 315.197,476.995 L316.318,472.544 C316.318,472.544 308.721,470.401 308.106,472.843" fill="#5D5F83"/>
    <path d="M466.335,125.803 L450.858,121.91 L352.005,514.794 L367.481,518.688 C377.74,521.27 384.275,517.36 386.856,507.102 L410.464,413.274 C410.464,413.274 411.33,409.831 409.003,406.518 C407.562,404.47 404.288,401.02 404.288,401.02 C404.288,401.02 408.846,399.466 411.137,398.393 C414.616,396.77 415.527,393.149 415.527,393.149 L477.92,145.178 C480.502,134.919 476.596,128.385 466.335,125.803" fill="#5D5F83"/>
    <path d="M467.546,148.101 C467.479,148.362 467.352,148.565 467.157,148.711 C466.963,148.857 466.761,148.904 466.55,148.851 L462.32,147.786 C462.111,147.735 461.956,147.597 461.854,147.376 C461.751,147.157 461.733,146.916 461.799,146.655 L462.004,145.841 L467.749,147.287 L467.546,148.101 z M461.456,146.57 C461.392,146.829 461.262,147.033 461.067,147.178 C460.873,147.324 460.67,147.371 460.463,147.319 L455.481,146.066 C455.273,146.013 455.117,145.876 455.015,145.656 C454.915,145.436 454.894,145.195 454.96,144.934 L455.166,144.12 L461.662,145.755 L461.456,146.57 z M468.224,145.406 L455.638,142.239 L455.786,141.654 L455.444,141.568 L454.618,144.849 C454.422,145.629 454.445,146.344 454.684,146.989 C454.927,147.635 455.311,148.024 455.841,148.158 L459.154,148.991 C459.963,149.195 460.691,148.796 461.335,147.794 C461.405,148.976 461.854,149.67 462.681,149.879 L465.245,150.524 C465.774,150.657 466.299,150.496 466.818,150.041 C467.335,149.587 467.692,148.968 467.888,148.188 L468.715,144.908 L468.37,144.821 L468.224,145.406" fill="#F7F7F7"/>
    <path d="M465.864,155.178 C465.798,155.439 465.667,155.642 465.474,155.79 C465.28,155.936 465.078,155.982 464.868,155.929 L453.614,153.098 C453.405,153.045 453.249,152.908 453.146,152.687 C453.046,152.467 453.028,152.225 453.092,151.965 C453.157,151.705 453.288,151.502 453.481,151.358 C453.677,151.211 453.877,151.164 454.088,151.218 L465.341,154.05 C465.55,154.101 465.708,154.238 465.81,154.459 C465.91,154.678 465.929,154.918 465.864,155.178 z M464.981,151.956 L455.395,149.543 C454.865,149.41 454.339,149.574 453.82,150.032 C453.301,150.491 452.943,151.107 452.749,151.879 C452.553,152.66 452.575,153.373 452.817,154.019 C453.058,154.665 453.444,155.054 453.975,155.188 L463.562,157.6 C464.093,157.734 464.616,157.574 465.134,157.118 C465.652,156.664 466.011,156.046 466.206,155.265 C466.4,154.492 466.379,153.783 466.138,153.13 C465.898,152.482 465.514,152.089 464.981,151.956" fill="#F7F7F7"/>
    <path d="M462.988,161.016 L455.62,159.992 L456.033,158.352 L462.988,161.016 z M452.271,155.624 L451.929,155.538 L451.485,157.304 L451.826,157.389 L451.973,156.806 L455.705,158.246 L455.28,159.93 L451.323,159.387 L451.471,158.802 L451.13,158.715 L450.36,161.766 L450.703,161.853 L450.851,161.267 L464.163,162.995 L464.637,161.115 L452.122,156.21 L452.271,155.624" fill="#F7F7F7"/>
    <path d="M462.345,168.772 C462.28,169.031 462.15,169.234 461.956,169.381 C461.762,169.526 461.56,169.574 461.349,169.521 L457.12,168.457 C456.911,168.404 456.755,168.266 456.653,168.047 C456.552,167.824 456.532,167.586 456.598,167.325 L456.804,166.511 L462.55,167.956 L462.345,168.772 z M463.023,166.074 L450.437,162.908 L450.584,162.324 L450.242,162.239 L449.476,165.289 L449.816,165.375 L449.964,164.79 L456.46,166.425 L456.257,167.239 C456.19,167.499 456.062,167.701 455.867,167.849 C455.673,167.994 455.469,168.041 455.261,167.99 L450.568,166.808 C449.644,166.575 449.042,167.01 448.767,168.11 L448.561,168.925 L448.901,169.01 L448.914,168.963 C449.004,168.606 449.219,168.468 449.558,168.553 L453.953,169.66 C454.763,169.863 455.491,169.465 456.135,168.465 C456.204,169.644 456.653,170.339 457.48,170.547 L460.045,171.192 C460.575,171.325 461.098,171.165 461.617,170.71 C462.134,170.255 462.491,169.638 462.688,168.858 L463.513,165.577 L463.17,165.491 L463.023,166.074" fill="#F7F7F7"/>
    <path d="M460.513,176.053 C460.446,176.314 460.317,176.517 460.124,176.662 C459.93,176.81 459.727,176.857 459.517,176.804 L448.448,174.02 C448.239,173.967 448.084,173.829 447.982,173.608 C447.88,173.388 447.862,173.147 447.928,172.886 L448.132,172.072 L460.719,175.239 L460.513,176.053 z M461.19,173.358 L448.604,170.191 L448.753,169.607 L448.411,169.52 L447.584,172.801 C447.389,173.582 447.412,174.296 447.651,174.941 C447.894,175.587 448.278,175.976 448.808,176.11 L458.212,178.476 C458.741,178.609 459.267,178.449 459.784,177.994 C460.302,177.539 460.658,176.922 460.857,176.139 L461.681,172.859 L461.339,172.773 L461.19,173.358" fill="#F7F7F7"/>
    <path d="M459.375,180.573 L446.789,177.406 L446.937,176.822 L446.595,176.736 L445.828,179.786 L446.169,179.872 L446.316,179.288 L458.902,182.454 L458.755,183.039 L459.099,183.125 L459.864,180.075 L459.522,179.988 L459.375,180.573" fill="#F7F7F7"/>
    <path d="M458.417,184.381 L445.83,181.214 L445.979,180.63 L445.636,180.544 L445.194,182.299 L445.536,182.385 L445.685,181.799 L455.67,184.311 L444.628,184.557 L444.249,186.06 L457.177,189.312 L457.028,189.9 L457.373,189.986 L457.813,188.229 L457.472,188.143 L457.323,188.729 L448.448,186.497 L458.31,186.258 L458.908,183.883 L458.565,183.797 L458.417,184.381" fill="#F7F7F7"/>
    <path d="M455.266,190.578 L445.677,188.165 C445.146,188.032 444.622,188.193 444.103,188.653 C443.584,189.111 443.227,189.727 443.033,190.499 C442.837,191.279 442.86,191.992 443.1,192.637 C443.341,193.284 443.727,193.674 444.259,193.807 L449.597,195.151 L450.306,192.33 L449.965,192.243 L449.728,193.184 L443.897,191.716 C443.688,191.664 443.532,191.529 443.43,191.306 C443.329,191.085 443.31,190.846 443.376,190.586 C443.44,190.325 443.57,190.122 443.766,189.976 C443.96,189.829 444.161,189.783 444.37,189.837 L455.625,192.667 C455.834,192.72 455.989,192.856 456.091,193.078 C456.193,193.298 456.212,193.539 456.146,193.799 C456.081,194.059 455.951,194.261 455.758,194.408 C455.563,194.555 455.36,194.601 455.151,194.548 L452.182,193.801 L451.708,195.681 L453.845,196.219 C454.374,196.353 454.899,196.192 455.418,195.737 C455.935,195.282 456.292,194.665 456.489,193.885 C456.684,193.113 456.66,192.401 456.42,191.752 C456.181,191.102 455.795,190.711 455.266,190.578" fill="#F7F7F7"/>
    <path d="M453.366,204.455 C453.301,204.714 453.173,204.917 452.979,205.064 C452.782,205.209 452.58,205.257 452.372,205.204 L446.986,203.849 C446.775,203.796 446.619,203.659 446.519,203.438 C446.417,203.217 446.398,202.978 446.464,202.718 L446.668,201.903 L453.571,203.639 L453.366,204.455 z M454.045,201.757 L441.46,198.591 L441.605,198.008 L441.265,197.921 L440.496,200.972 L440.838,201.058 L440.985,200.472 L446.325,201.816 L446.121,202.631 C445.924,203.411 445.947,204.124 446.188,204.77 C446.43,205.416 446.815,205.805 447.346,205.938 L451.066,206.875 C451.596,207.008 452.121,206.848 452.638,206.393 C453.156,205.938 453.513,205.321 453.709,204.54 L454.535,201.261 L454.192,201.174 L454.045,201.757" fill="#F7F7F7"/>
    <path d="M450.642,210.086 L443.274,209.062 L443.688,207.421 L450.642,210.086 z M439.923,204.696 L439.581,204.609 L439.138,206.375 L439.479,206.461 L439.627,205.874 L443.358,207.314 L442.935,209 L438.977,208.456 L439.124,207.87 L438.783,207.783 L438.015,210.836 L438.356,210.921 L438.505,210.337 L451.817,212.065 L452.291,210.183 L439.775,205.279 L439.923,204.696" fill="#F7F7F7"/>
    <path d="M449.262,214.436 L447.457,213.982 C446.833,213.825 446.216,213.883 445.602,214.159 L442.061,215.768 C441.489,216.023 440.89,216.072 440.262,215.913 L437.955,215.333 C437.448,215.205 437.266,214.87 437.402,214.329 C437.54,213.779 437.862,213.567 438.369,213.695 L441.339,214.442 L441.812,212.562 L439.675,212.024 C439.138,211.888 438.616,212.031 438.11,212.453 C437.604,212.873 437.253,213.469 437.058,214.242 C436.865,215.007 436.895,215.695 437.141,216.304 C437.387,216.916 437.779,217.288 438.315,217.424 L440.204,217.898 C440.832,218.056 441.453,217.997 442.067,217.721 L445.613,216.115 C446.18,215.858 446.776,215.81 447.4,215.967 L449.62,216.526 C450.127,216.653 450.311,216.991 450.172,217.542 C450.036,218.084 449.714,218.292 449.208,218.165 L446.239,217.417 L445.766,219.298 L447.902,219.836 C448.44,219.971 448.961,219.828 449.468,219.407 C449.973,218.985 450.322,218.393 450.516,217.628 C450.71,216.855 450.684,216.164 450.436,215.554 C450.189,214.942 449.798,214.571 449.262,214.436" fill="#F7F7F7"/>
    <path d="M447.594,221.064 L445.79,220.609 C445.167,220.452 444.548,220.512 443.934,220.788 L440.39,222.398 C439.819,222.654 439.222,222.701 438.594,222.544 L436.287,221.964 C435.781,221.836 435.598,221.501 435.732,220.959 C435.872,220.407 436.194,220.196 436.701,220.323 L439.671,221.071 L440.144,219.189 L438.007,218.651 C437.471,218.516 436.948,218.661 436.442,219.081 C435.936,219.502 435.585,220.099 435.39,220.873 C435.198,221.635 435.227,222.323 435.473,222.935 C435.719,223.547 436.11,223.918 436.647,224.054 L438.536,224.529 C439.164,224.687 439.785,224.628 440.399,224.352 L443.944,222.742 C444.512,222.488 445.108,222.439 445.733,222.595 L447.954,223.155 C448.459,223.282 448.643,223.62 448.504,224.172 C448.368,224.714 448.046,224.923 447.541,224.795 L444.572,224.048 L444.098,225.928 L446.234,226.466 C446.772,226.601 447.293,226.459 447.8,226.037 C448.305,225.615 448.655,225.021 448.848,224.259 C449.04,223.485 449.015,222.794 448.769,222.183 C448.521,221.573 448.132,221.199 447.594,221.064" fill="#F7F7F7"/>
    <path d="M398.643,423.186 C398.578,423.446 398.449,423.647 398.255,423.796 C398.06,423.94 397.858,423.987 397.647,423.936 L393.419,422.872 C393.21,422.819 393.054,422.68 392.953,422.462 C392.851,422.239 392.831,421.999 392.896,421.739 L393.103,420.927 L398.849,422.37 L398.643,423.186 z M392.556,421.653 C392.489,421.913 392.361,422.116 392.166,422.262 C391.972,422.407 391.768,422.456 391.56,422.403 L386.581,421.151 C386.371,421.096 386.214,420.96 386.112,420.739 C386.013,420.518 385.993,420.28 386.058,420.018 L386.263,419.204 L392.759,420.839 L392.556,421.653 z M399.323,420.491 L386.737,417.323 L386.883,416.739 L386.541,416.653 L385.717,419.932 C385.521,420.714 385.542,421.427 385.782,422.071 C386.025,422.716 386.408,423.106 386.939,423.241 L390.251,424.073 C391.063,424.276 391.79,423.878 392.435,422.878 C392.505,424.059 392.951,424.753 393.779,424.962 L396.342,425.608 C396.872,425.739 397.397,425.579 397.915,425.124 C398.435,424.671 398.791,424.053 398.987,423.272 L399.813,419.993 L399.469,419.905 L399.323,420.491" fill="#F7F7F7"/>
    <path d="M396.963,430.264 C396.897,430.524 396.767,430.725 396.573,430.874 C396.378,431.018 396.175,431.063 395.966,431.012 L384.713,428.18 C384.502,428.128 384.347,427.991 384.245,427.77 C384.144,427.55 384.125,427.309 384.19,427.05 C384.257,426.79 384.385,426.587 384.581,426.44 C384.775,426.292 384.977,426.247 385.187,426.3 L396.438,429.132 C396.649,429.184 396.807,429.319 396.906,429.542 C397.008,429.761 397.027,430.003 396.963,430.264 z M396.08,427.04 L386.493,424.628 C385.962,424.493 385.438,424.655 384.919,425.116 C384.4,425.573 384.043,426.19 383.848,426.964 C383.651,427.743 383.675,428.456 383.914,429.102 C384.156,429.747 384.541,430.137 385.073,430.27 L394.66,432.682 C395.192,432.817 395.716,432.655 396.233,432.202 C396.75,431.745 397.107,431.13 397.304,430.348 C397.499,429.575 397.476,428.864 397.237,428.216 C396.996,427.565 396.61,427.175 396.08,427.04" fill="#F7F7F7"/>
    <path d="M394.085,436.1 L386.718,435.077 L387.133,433.436 L394.085,436.1 z M383.367,430.71 L383.026,430.622 L382.582,432.387 L382.923,432.473 L383.071,431.889 L386.803,433.329 L386.378,435.014 L382.421,434.471 L382.569,433.884 L382.228,433.8 L381.46,436.848 L381.801,436.934 L381.948,436.352 L395.262,438.077 L395.734,436.198 L383.222,431.294 L383.367,430.71" fill="#F7F7F7"/>
    <path d="M393.442,443.854 C393.377,444.114 393.25,444.317 393.054,444.464 C392.86,444.612 392.658,444.657 392.448,444.602 L388.219,443.54 C388.01,443.487 387.853,443.352 387.753,443.13 C387.649,442.909 387.631,442.669 387.697,442.409 L387.903,441.595 L393.648,443.042 L393.442,443.854 z M394.122,441.159 L381.536,437.993 L381.683,437.407 L381.342,437.321 L380.572,440.372 L380.916,440.458 L381.062,439.874 L387.56,441.509 L387.354,442.321 C387.29,442.583 387.159,442.786 386.966,442.932 C386.771,443.079 386.568,443.124 386.358,443.073 L381.667,441.889 C380.741,441.657 380.141,442.093 379.863,443.194 L379.657,444.011 L380.001,444.095 L380.012,444.048 C380.102,443.688 380.316,443.55 380.657,443.636 L385.052,444.741 C385.862,444.946 386.589,444.55 387.232,443.548 C387.304,444.727 387.751,445.421 388.578,445.63 L391.142,446.274 C391.672,446.407 392.197,446.249 392.714,445.792 C393.233,445.337 393.591,444.72 393.786,443.94 L394.611,440.659 L394.269,440.573 L394.122,441.159" fill="#F7F7F7"/>
    <path d="M391.61,451.137 C391.546,451.397 391.416,451.6 391.221,451.747 C391.027,451.895 390.825,451.94 390.614,451.887 L379.546,449.102 C379.338,449.05 379.182,448.913 379.079,448.692 C378.979,448.473 378.959,448.231 379.024,447.97 L379.229,447.157 L391.815,450.323 L391.61,451.137 z M392.29,448.442 L379.702,445.274 L379.85,444.69 L379.508,444.604 L378.684,447.886 C378.486,448.665 378.51,449.378 378.748,450.022 C378.992,450.671 379.375,451.057 379.907,451.192 L389.31,453.559 C389.84,453.69 390.366,453.53 390.883,453.077 C391.399,452.622 391.758,452.005 391.954,451.223 L392.778,447.944 L392.436,447.858 L392.29,448.442" fill="#F7F7F7"/>
    <path d="M390.475,455.657 L377.889,452.489 L378.034,451.905 L377.693,451.819 L376.925,454.87 L377.267,454.956 L377.414,454.372 L390,457.538 L389.853,458.122 L390.195,458.21 L390.964,455.157 L390.621,455.071 L390.475,455.657" fill="#F7F7F7"/>
    <path d="M389.516,459.464 L376.93,456.298 L377.076,455.714 L376.735,455.628 L376.294,457.382 L376.635,457.468 L376.782,456.882 L386.767,459.395 L375.725,459.641 L375.347,461.143 L388.275,464.397 L388.128,464.983 L388.47,465.067 L388.913,463.313 L388.569,463.225 L388.421,463.811 L379.546,461.579 L389.408,461.341 L390.005,458.966 L389.662,458.88 L389.516,459.464" fill="#F7F7F7"/>
    <path d="M386.362,465.661 L376.774,463.249 C376.245,463.114 375.72,463.278 375.201,463.737 C374.683,464.194 374.324,464.809 374.132,465.583 C373.935,466.362 373.957,467.075 374.198,467.723 C374.44,468.366 374.825,468.757 375.356,468.889 L380.696,470.233 L381.405,467.413 L381.063,467.325 L380.827,468.266 L374.997,466.8 C374.786,466.747 374.63,466.61 374.529,466.389 C374.427,466.171 374.409,465.928 374.475,465.669 C374.54,465.407 374.669,465.206 374.863,465.059 C375.058,464.913 375.258,464.866 375.469,464.921 L386.722,467.751 C386.933,467.803 387.089,467.94 387.19,468.161 C387.291,468.382 387.31,468.622 387.245,468.882 C387.179,469.141 387.048,469.346 386.854,469.491 C386.662,469.637 386.459,469.684 386.25,469.63 L383.278,468.884 L382.806,470.764 L384.944,471.302 C385.474,471.436 385.998,471.276 386.515,470.821 C387.034,470.364 387.392,469.747 387.587,468.968 C387.78,468.196 387.76,467.485 387.519,466.835 C387.278,466.186 386.895,465.794 386.362,465.661" fill="#F7F7F7"/>
    <path d="M384.465,479.538 C384.4,479.798 384.271,480.001 384.076,480.147 C383.882,480.292 383.68,480.341 383.469,480.286 L378.084,478.932 C377.874,478.88 377.719,478.743 377.617,478.52 C377.514,478.3 377.495,478.061 377.562,477.802 L377.768,476.987 L384.67,478.723 L384.465,479.538 z M385.143,476.843 L372.557,473.675 L372.705,473.089 L372.362,473.003 L371.595,476.053 L371.937,476.141 L372.083,475.557 L377.424,476.901 L377.218,477.714 C377.021,478.493 377.045,479.206 377.286,479.852 C377.526,480.499 377.913,480.887 378.442,481.02 L382.164,481.958 C382.694,482.091 383.219,481.928 383.737,481.475 C384.255,481.02 384.612,480.403 384.808,479.622 L385.635,476.343 L385.29,476.257 L385.143,476.843" fill="#F7F7F7"/>
    <path d="M381.739,485.169 L374.373,484.145 L374.785,482.505 L381.739,485.169 z M371.021,479.776 L370.681,479.69 L370.236,481.458 L370.577,481.544 L370.724,480.958 L374.458,482.397 L374.032,484.085 L370.075,483.538 L370.222,482.954 L369.88,482.868 L369.113,485.921 L369.454,486.007 L369.602,485.421 L382.914,487.149 L383.388,485.268 L370.875,480.362 L371.021,479.776" fill="#F7F7F7"/>
    <path d="M380.36,489.518 L378.555,489.065 C377.932,488.907 377.313,488.968 376.7,489.243 L373.157,490.852 C372.587,491.108 371.987,491.155 371.359,490.997 L369.053,490.419 C368.548,490.29 368.363,489.956 368.499,489.413 C368.638,488.862 368.959,488.651 369.466,488.778 L372.437,489.524 L372.909,487.645 L370.772,487.106 C370.236,486.971 369.715,487.112 369.208,487.536 C368.702,487.958 368.351,488.553 368.156,489.325 C367.965,490.091 367.991,490.78 368.238,491.387 C368.485,491.999 368.876,492.372 369.413,492.509 L371.302,492.983 C371.93,493.141 372.551,493.083 373.165,492.805 L376.71,491.198 C377.279,490.942 377.876,490.893 378.499,491.05 L380.72,491.608 C381.226,491.737 381.41,492.075 381.271,492.626 C381.134,493.167 380.813,493.378 380.308,493.249 L377.337,492.503 L376.863,494.382 L379.001,494.921 C379.537,495.055 380.058,494.913 380.564,494.491 C381.071,494.069 381.42,493.477 381.613,492.71 C381.807,491.938 381.781,491.249 381.535,490.637 C381.288,490.024 380.897,489.655 380.36,489.518" fill="#F7F7F7"/>
    <path d="M378.692,496.149 L376.888,495.692 C376.264,495.536 375.646,495.596 375.032,495.872 L371.489,497.481 C370.919,497.737 370.319,497.786 369.691,497.626 L367.386,497.046 C366.88,496.919 366.695,496.585 366.831,496.042 C366.97,495.491 367.291,495.28 367.798,495.407 L370.769,496.155 L371.241,494.272 L369.104,493.735 C368.568,493.598 368.046,493.745 367.541,494.165 C367.034,494.587 366.683,495.182 366.488,495.956 C366.296,496.72 366.324,497.407 366.57,498.016 C366.817,498.63 367.208,499.003 367.745,499.137 L369.633,499.614 C370.262,499.77 370.883,499.712 371.497,499.436 L375.042,497.827 C375.61,497.573 376.208,497.522 376.831,497.68 L379.051,498.239 C379.557,498.366 379.74,498.706 379.603,499.255 C379.466,499.798 379.145,500.005 378.64,499.878 L375.669,499.13 L375.195,501.012 L377.333,501.55 C377.869,501.684 378.391,501.542 378.896,501.12 C379.403,500.698 379.752,500.104 379.944,499.343 C380.14,498.569 380.113,497.878 379.866,497.266 C379.62,496.657 379.229,496.282 378.692,496.149" fill="#F7F7F7"/>
    <path d="M401.582,398.695 L398.237,397.853 L397.458,400.949 L400.803,401.791" fill="#E0E0E0"/>
    <path d="M391.867,396.251 L385.496,394.648 L384.717,397.744 L391.088,399.347 z M379.125,393.045 L372.754,391.442 L371.975,394.538 L378.346,396.141 z M366.384,389.839 L360.013,388.236 L359.234,391.332 L365.605,392.935 z M353.642,386.633 L347.271,385.03 L346.492,388.126 L352.863,389.729 z M340.9,383.426 L334.53,381.823 L333.751,384.92 L340.121,386.523 z M328.159,380.22 L321.788,378.617 L321.009,381.713 L327.38,383.316 z M315.417,377.014 L309.046,375.411 L308.267,378.507 L314.638,380.111 z M302.675,373.808 L296.305,372.205 L295.526,375.301 L301.896,376.904 z M289.934,370.602 L283.563,368.999 L282.784,372.095 L289.155,373.698 z M277.192,367.396 L270.821,365.793 L270.042,368.889 L276.413,370.492" fill="#E0E0E0"/>
    <path d="M264.45,364.191 L261.105,363.349 L260.326,366.445 L263.671,367.287" fill="#E0E0E0"/>
    <path d="M392.99,221.109 L406.617,224.538 L429.318,134.32 L415.69,130.891 L392.99,221.109" fill="#DDDEF0"/>
    <path d="M331.092,205.535 L344.718,208.964 L367.417,118.745 L353.792,115.317 L331.092,205.535" fill="#DDDEF0"/>
    <path d="M303.648,314.604 L317.274,318.034 L340.956,223.916 L327.329,220.488 L303.648,314.604" fill="#DDDEF0"/>
    <path d="M280.724,308.839 L294.351,312.266 L318.031,218.148 L304.403,214.72 L280.724,308.839" fill="#DDDEF0"/>
    <path d="M308.005,200.414 L321.63,203.843 L344.331,113.626 L330.703,110.197 L308.005,200.414" fill="#DDDEF0"/>
    <path d="M343.026,324.514 L356.655,327.942 L406.799,128.654 L393.17,125.224 L343.026,324.514" fill="#DDDEF0"/>
    <path d="M371.525,375.905 L376.263,377.098 L382.896,350.731 L378.159,349.538 L371.525,375.905" fill="#838282"/>
    <path d="M365.691,374.438 L368.243,375.081 L374.878,348.714 L372.325,348.071 L365.691,374.438" fill="#838282"/>
    <path d="M362.276,373.579 L363.779,373.958 L370.412,347.591 L368.911,347.212 L362.276,373.579" fill="#838282"/>
    <path d="M353.393,371.345 L360.497,373.132 L367.132,346.764 L360.026,344.977 L353.393,371.345" fill="#838282"/>
    <path d="M351.068,370.759 L352.571,371.137 L359.205,344.77 L357.702,344.389 L351.068,370.759" fill="#838282"/>
    <path d="M347.924,369.968 L349.154,370.276 L355.788,343.911 L354.559,343.6 L347.924,369.968" fill="#838282"/>
    <path d="M345.874,369.452 L346.831,369.694 L353.466,343.327 L352.508,343.085 L345.874,369.452" fill="#838282"/>
    <path d="M342.322,368.557 L344.234,369.04 L350.868,342.673 L348.956,342.19 L342.322,368.557" fill="#838282"/>
    <path d="M337.811,367.423 L341.09,368.249 L347.724,341.882 L344.444,341.055 L337.811,367.423" fill="#838282"/>
    <path d="M334.666,366.632 L336.171,367.011 L342.805,340.643 L341.301,340.264 L334.666,366.632" fill="#838282"/>
    <path d="M331.524,365.843 L332.752,366.151 L339.386,339.782 L338.157,339.473 L331.524,365.843" fill="#838282"/>
    <path d="M325.646,364.362 L329.61,365.36 L336.245,338.993 L332.281,337.995 L325.646,364.362" fill="#838282"/>
    <path d="M321.955,363.432 L324.279,364.02 L330.913,337.651 L328.59,337.065 L321.955,363.432" fill="#838282"/>
    <path d="M316.624,362.093 L319.768,362.884 L326.402,336.516 L323.258,335.725 L316.624,362.093" fill="#838282"/>
    <path d="M313.209,361.231 L314.438,361.544 L321.073,335.175 L319.843,334.866 L313.209,361.231" fill="#838282"/>
    <path d="M311.158,360.718 L312.114,360.958 L318.749,334.591 L317.793,334.35 L311.158,360.718" fill="#838282"/>
    <path d="M307.604,359.823 L309.517,360.305 L316.151,333.938 L314.237,333.456 L307.604,359.823" fill="#838282"/>
    <path d="M279.037,352.636 L280.267,352.946 L286.901,326.579 L285.672,326.268 L279.037,352.636" fill="#838282"/>
    <path d="M273.158,351.157 L277.123,352.153 L283.757,325.786 L279.793,324.788 L273.158,351.157" fill="#838282"/>
    <path d="M269.47,350.229 L271.792,350.813 L278.427,324.444 L276.104,323.86 L269.47,350.229" fill="#838282"/>
    <path d="M264.14,348.887 L267.284,349.678 L273.919,323.309 L270.774,322.52 L264.14,348.887" fill="#838282"/>
    <path d="M303.094,358.688 L306.375,359.514 L313.009,333.145 L309.729,332.321 L303.094,358.688" fill="#838282"/>
    <path d="M299.95,357.897 L301.454,358.276 L308.088,331.907 L306.585,331.53 L299.95,357.897" fill="#838282"/>
    <path d="M296.806,357.106 L298.036,357.417 L304.671,331.048 L303.441,330.737 L296.806,357.106" fill="#838282"/>
    <path d="M290.928,355.628 L294.893,356.624 L301.526,330.257 L297.563,329.259 L290.928,355.628" fill="#838282"/>
    <path d="M287.239,354.7 L289.561,355.284 L296.194,328.917 L293.874,328.331 L287.239,354.7" fill="#838282"/>
    <path d="M281.909,353.358 L285.05,354.149 L291.686,327.78 L288.544,326.991 L281.909,353.358" fill="#838282"/>
    <path d="M252.332,391.024 L268.363,395.059 L269.188,391.776 L253.157,387.743 L252.332,391.024" fill="#838282"/>
    <path d="M251.315,395.063 L267.347,399.095 L267.791,397.331 L251.76,393.298 L251.315,395.063" fill="#838282"/>
    <path d="M250.722,397.428 L266.751,401.462 L267.014,400.423 L250.981,396.387 L250.722,397.428" fill="#838282"/>
    <path d="M249.174,403.579 L265.203,407.614 L266.442,402.692 L250.411,398.659 L249.174,403.579" fill="#838282"/>
    <path d="M248.769,405.188 L264.8,409.221 L265.061,408.18 L249.03,404.147 L248.769,405.188" fill="#838282"/>
    <path d="M248.22,407.368 L264.251,411.399 L264.467,410.548 L248.435,406.514 L248.22,407.368" fill="#838282"/>
    <path d="M247.864,408.784 L263.894,412.817 L264.061,412.155 L248.029,408.122 L247.864,408.784" fill="#838282"/>
    <path d="M247.244,411.245 L263.274,415.278 L263.609,413.952 L247.577,409.919 L247.244,411.245" fill="#838282"/>
    <path d="M246.459,414.368 L262.489,418.401 L263.06,416.128 L247.03,412.096 L246.459,414.368" fill="#838282"/>
    <path d="M245.911,416.546 L261.941,420.577 L262.204,419.536 L246.173,415.503 L245.911,416.546" fill="#838282"/>
    <path d="M245.364,418.72 L261.396,422.753 L261.609,421.903 L245.577,417.87 L245.364,418.72" fill="#838282"/>
    <path d="M244.339,422.788 L260.371,426.823 L261.062,424.079 L245.03,420.044 L244.339,422.788" fill="#838282"/>
    <path d="M243.697,425.345 L259.728,429.378 L260.133,427.77 L244.101,423.735 L243.697,425.345" fill="#838282"/>
    <path d="M242.769,429.036 L258.798,433.069 L259.347,430.891 L243.315,426.858 L242.769,429.036" fill="#838282"/>
    <path d="M242.173,431.401 L258.202,435.434 L258.417,434.583 L242.387,430.55 L242.173,431.401" fill="#838282"/>
    <path d="M241.816,432.821 L257.847,436.854 L258.013,436.19 L241.983,432.159 L241.816,432.821" fill="#838282"/>
    <path d="M241.197,435.282 L257.228,439.315 L257.561,437.989 L241.53,433.956 L241.197,435.282" fill="#838282"/>
    <path d="M236.221,455.057 L252.251,459.091 L252.466,458.239 L236.435,454.206 L236.221,455.057" fill="#838282"/>
    <path d="M235.197,459.13 L251.227,463.161 L251.917,460.417 L235.888,456.382 L235.197,459.13" fill="#838282"/>
    <path d="M234.553,461.682 L250.585,465.716 L250.988,464.108 L234.959,460.075 L234.553,461.682" fill="#838282"/>
    <path d="M233.626,465.374 L249.655,469.407 L250.204,467.229 L234.173,463.194 L233.626,465.374" fill="#838282"/>
    <path d="M240.412,438.401 L256.442,442.434 L257.013,440.165 L240.983,436.132 L240.412,438.401" fill="#838282"/>
    <path d="M239.864,440.579 L255.895,444.614 L256.156,443.573 L240.126,439.538 L239.864,440.579" fill="#838282"/>
    <path d="M239.315,442.757 L255.347,446.788 L255.561,445.936 L239.53,441.905 L239.315,442.757" fill="#838282"/>
    <path d="M238.293,446.827 L254.322,450.858 L255.013,448.114 L238.983,444.079 L238.293,446.827" fill="#838282"/>
    <path d="M237.649,449.38 L253.681,453.413 L254.084,451.805 L238.055,447.772 L237.649,449.38" fill="#838282"/>
    <path d="M236.722,453.071 L252.752,457.104 L253.299,454.928 L237.269,450.895 L236.722,453.071" fill="#838282"/>
    <path d="M407.702,359.333 C401.646,357.807 395.503,361.481 393.98,367.538 C392.457,373.593 396.128,379.737 402.185,381.261 C408.239,382.786 414.384,379.108 415.906,373.053 C417.432,366.999 413.757,360.854 407.702,359.333" fill="#DDDEF0"/>
    <path d="M403.363,362.302 L403.39,362.428 L405.871,364.77 L407.068,363.251 L403.545,361.581 L403.363,362.302" fill="#5D5F83"/>
    <path d="M406.741,364.989 L410.034,364.1 L410.119,364.001 L410.3,363.28 L406.407,363.087 L406.741,364.989" fill="#5D5F83"/>
    <path d="M406.06,363.38 C406.06,363.38 402.595,373.446 402.158,375.184 C401.722,376.919 401.982,378.821 402.75,379.014 C403.519,379.208 404.647,377.657 405.084,375.921 C405.522,374.182 407.234,363.675 407.234,363.675 L407.017,362.057 L406.06,363.38" fill="#5D5F83"/>
    <path d="M405.093,374.395 L414.601,371.452 L414.791,371.286 L414.985,370.514 L404.062,370.237 L405.093,374.395" fill="#5D5F83"/>
    <path d="M408.275,373.05 C407.77,372.925 407.418,374.514 407.418,374.514 L408.338,374.745 C408.338,374.745 408.778,373.178 408.275,373.05" fill="#5D5F83"/>
    <path d="M410.813,372.261 C410.307,372.132 409.954,373.723 409.954,373.723 L410.873,373.956 C410.873,373.956 411.316,372.386 410.813,372.261" fill="#5D5F83"/>
    <path d="M395.799,366.509 L395.89,366.743 L402.872,373.837 L405.748,370.663 L395.995,365.735 L395.799,366.509" fill="#5D5F83"/>
    <path d="M400.705,371.145 C400.202,371.018 399.849,372.61 399.849,372.61 L400.767,372.841 C400.767,372.841 401.211,371.272 400.705,371.145" fill="#5D5F83"/>
    <path d="M398.845,369.249 C398.341,369.122 397.988,370.714 397.988,370.714 L398.906,370.944 C398.906,370.944 399.35,369.376 398.845,369.249" fill="#5D5F83"/>
    <path d="M379.672,122.532 L329.694,321.159 C329.584,321.596 329.849,322.039 330.285,322.149 C330.722,322.259 331.165,321.994 331.275,321.557 L381.253,122.93 C381.363,122.494 381.098,122.051 380.662,121.941 C380.225,121.831 379.782,122.096 379.672,122.532" fill="#5D5F83"/>
    <path d="M365.547,330.18 L379.174,333.608 L402.854,239.491 L389.228,236.062 L365.547,330.18" fill="#DDDEF0"/>
    <path d="M241.347,213.623 C224.8,218.539 189.875,232.169 178.824,235.843 C164.176,240.716 164.256,249.274 164.256,249.274 L152.107,288.38 C136.474,312.528 186.948,347.636 191.781,351.028 C191.781,351.028 190.819,309.718 193.826,285.641 C195.245,274.298 226.646,260.171 226.646,260.171 C226.646,260.171 249.695,242.69 255.343,246.829 C262.004,251.702 273.183,258.466 287.583,266.139 C308.683,277.378 319.702,260.356 319.702,260.356 C319.702,260.356 279.819,229.444 263.113,218.601 C249.844,209.991 249.538,211.187 241.347,213.623" fill="#F5C59B"/>
    <path d="M250.831,227.104 C233.029,227.755 194.616,232.374 182.632,233.198 C166.733,234.292 164.609,242.866 164.609,242.866 L142.395,278.811 C120.545,298.917 161.938,347.009 165.895,351.639 L220.975,330.311 C220.975,330.311 201.135,307.68 210.346,284.395 C214.684,273.427 224.148,269.831 224.148,269.831 C224.148,269.831 251.686,258.303 256.265,263.895 C261.658,270.479 271.089,280.118 283.502,291.499 C301.692,308.167 317.093,293.997 317.093,293.997 C317.093,293.997 285.2,252.829 271.302,237.692 C260.26,225.665 259.643,226.784 250.831,227.104" fill="#FCD0A9"/>
    <path d="M427.396,185.613 L267.652,158.695 C261.118,157.594 254.927,161.998 253.825,168.534 L215.641,395.136 C214.539,401.671 218.944,407.862 225.479,408.964 L385.224,435.882 C391.759,436.983 397.949,432.577 399.051,426.044 L437.235,199.44 C438.337,192.905 433.932,186.714 427.396,185.613" fill="#84312D"/>
    <path d="M426.41,185.447 L266.667,158.529 C260.132,157.427 253.94,161.832 252.839,168.367 L214.654,394.97 C213.554,401.505 217.959,407.696 224.493,408.798 L384.237,435.716 C390.772,436.817 396.964,432.411 398.064,425.878 L436.25,199.274 C437.351,192.739 432.945,186.548 426.41,185.447" fill="#E0E0E0"/>
    <path d="M424.438,185.115 L264.694,158.196 C258.159,157.095 251.969,161.5 250.867,168.035 L212.683,394.637 C211.581,401.173 215.986,407.364 222.521,408.466 L382.266,435.384 C388.8,436.485 394.991,432.079 396.093,425.544 L434.277,198.942 C435.379,192.407 430.974,186.216 424.438,185.115" fill="#84312D"/>
    <path d="M371.035,330.292 L349.109,326.598 C350.095,318.999 349.856,311.409 348.449,304.061 C354.04,303.098 359.508,301.499 364.761,299.272 C369.907,308.43 372.306,319.198 371.035,330.292 z M353.993,363.014 C349.762,359.196 345.123,355.895 340.159,353.159 C343.909,346.667 346.629,339.561 348.192,332.044 L370.117,335.737 C367.678,346.649 361.871,356.048 353.993,363.014 z M319.058,375.997 C319.302,375.827 319.548,375.663 319.79,375.489 C326.677,370.589 332.529,364.624 337.186,357.864 C341.65,360.307 345.794,363.22 349.563,366.526 C340.841,372.69 330.219,376.171 319.058,375.997 z M314.041,372.678 L317.733,350.766 C322.788,351.792 327.61,353.343 332.151,355.366 C327.257,362.274 321.086,368.139 314.041,372.678 z M296.134,344.233 C294.763,337.446 294.455,330.345 295.362,323.141 L316.2,326.651 L313.203,344.434 C307.478,343.716 301.756,343.651 296.134,344.233 z M308.64,371.516 C303.617,365.034 299.807,357.63 297.475,349.678 C302.32,349.223 307.279,349.276 312.285,349.884 L308.64,371.516 z M277.956,354.46 C282.419,352.643 287.092,351.288 291.905,350.434 C294.096,358.27 297.651,365.753 302.509,372.577 C302.646,372.77 302.786,372.958 302.926,373.147 C292.651,369.589 284.029,362.938 277.956,354.46 z M268.626,318.636 L289.914,322.221 C288.918,329.911 289.171,337.587 290.624,345.014 C285.244,345.985 279.982,347.55 274.921,349.69 C269.763,340.526 267.354,329.745 268.626,318.636 z M285.638,285.94 C289.721,289.626 294.179,292.833 298.948,295.514 C295.154,302.046 292.405,309.202 290.831,316.778 L269.544,313.19 C271.98,302.292 277.776,292.905 285.638,285.94 z M319.813,272.927 C319.62,273.063 319.426,273.193 319.233,273.33 C312.394,278.198 306.574,284.114 301.933,290.813 C297.661,288.427 293.688,285.608 290.065,282.427 C298.587,276.391 308.927,272.926 319.813,272.927 z M324.678,276.343 L321.024,298.022 C316.088,296.956 311.38,295.378 306.946,293.354 C311.757,286.589 317.795,280.829 324.678,276.343 z M317.117,321.208 L296.28,317.696 C297.78,310.61 300.391,304.012 303.897,298.059 C309.025,300.454 314.453,302.272 320.106,303.471 L317.117,321.208 z M321.643,327.569 L342.741,331.124 C341.251,338.171 338.662,344.731 335.186,350.657 C329.956,348.266 324.417,346.47 318.651,345.319 L321.643,327.569 z M342.932,304.796 C344.267,311.518 344.559,318.55 343.659,325.68 L322.56,322.124 L325.543,304.421 C331.373,305.225 337.2,305.343 342.932,304.796 z M330.161,277.014 C335.339,283.622 339.252,291.204 341.61,299.352 C336.652,299.776 331.579,299.665 326.461,298.973 L330.161,277.014 z M361.729,294.503 C357.083,296.395 352.209,297.792 347.187,298.639 C345.002,290.712 341.425,283.143 336.515,276.243 C336.342,276.001 336.164,275.764 335.988,275.522 C346.605,279.02 355.511,285.803 361.729,294.503 z M366.837,292.178 C359.788,281.919 349.419,273.956 336.979,270.045 C334.713,269.333 332.379,268.756 329.984,268.323 C329.76,268.283 329.537,268.24 329.312,268.201 C328.87,268.127 328.428,268.059 327.985,267.995 C325.621,267.653 323.267,267.463 320.935,267.417 C308.093,267.159 295.887,271.274 286.001,278.557 C284.501,279.661 283.057,280.837 281.671,282.081 C272.411,290.401 265.793,301.782 263.568,314.983 C261.342,328.198 263.873,341.132 269.909,352.034 C270.811,353.665 271.791,355.249 272.847,356.78 C279.801,366.887 289.975,374.761 302.179,378.723 C304.397,379.442 306.683,380.036 309.029,380.485 C309.468,380.571 309.909,380.651 310.35,380.727 C310.575,380.764 310.801,380.796 311.025,380.833 C313.43,381.208 315.824,381.427 318.198,381.497 C331.22,381.878 343.612,377.762 353.629,370.393 C355.13,369.292 356.575,368.118 357.962,366.872 C367.236,358.548 373.866,347.159 376.093,333.944 C378.317,320.743 375.793,307.821 369.773,296.928 C368.871,295.298 367.892,293.714 366.837,292.178" fill="#FFEF9D"/>
    <path d="M290.583,212.129 L288.316,225.579 C288.228,226.103 287.968,226.519 287.535,226.826 C287.104,227.134 286.625,227.243 286.102,227.156 L284.461,226.879 L287.366,209.637 L289.007,209.914 C289.53,210.002 289.946,210.262 290.254,210.695 C290.562,211.127 290.671,211.605 290.583,212.129 z M289.151,209.059 L282.541,207.945 L282.397,208.8 L283.575,208.999 L278.279,240.431 L277.101,240.232 L276.956,241.087 L283.104,242.123 L283.248,241.268 L282.069,241.07 L284.316,227.734 L285.957,228.011 C287.529,228.275 288.949,228.028 290.219,227.267 C291.487,226.506 292.233,225.463 292.457,224.138 L294.022,214.847 C294.246,213.522 293.883,212.292 292.933,211.158 C291.983,210.023 290.723,209.324 289.151,209.059" fill="#FFEF9D"/>
    <path d="M299.014,233.182 L295.709,232.625 L300.461,215.005 L299.014,233.182 z M300.521,210.975 L291.753,242.701 L290.574,242.503 L290.431,243.358 L293.989,243.957 L294.134,243.102 L292.955,242.904 L295.522,233.449 L298.92,234.021 L298.155,243.78 L296.977,243.581 L296.832,244.436 L302.979,245.472 L303.124,244.617 L301.945,244.419 L304.313,211.614 L300.521,210.975" fill="#FFEF9D"/>
    <path d="M315.514,213.264 C313.958,213.001 312.581,213.253 311.382,214.017 C310.184,214.782 309.472,215.834 309.246,217.175 L308.486,221.682 C308.224,223.238 308.394,224.724 308.995,226.141 L312.49,234.312 C313.045,235.625 313.19,237.068 312.926,238.639 L311.956,244.394 C311.743,245.658 311.09,246.198 309.995,246.013 C308.886,245.826 308.438,245.101 308.65,243.837 L309.901,236.419 L306.11,235.78 L305.211,241.118 C304.985,242.459 305.313,243.687 306.194,244.802 C307.076,245.917 308.295,246.606 309.852,246.868 C311.393,247.128 312.762,246.875 313.96,246.111 C315.158,245.346 315.871,244.293 316.097,242.953 L316.892,238.238 C317.156,236.667 316.987,235.173 316.387,233.756 L312.892,225.585 C312.336,224.271 312.189,222.837 312.452,221.281 L313.387,215.734 C313.6,214.47 314.261,213.932 315.37,214.119 C316.464,214.303 316.904,215.027 316.691,216.29 L315.441,223.709 L319.231,224.348 L320.132,219.009 C320.357,217.669 320.029,216.441 319.147,215.326 C318.267,214.211 317.055,213.523 315.514,213.264" fill="#FFEF9D"/>
    <path d="M328.872,215.515 C327.316,215.253 325.939,215.504 324.741,216.268 C323.542,217.033 322.83,218.086 322.604,219.426 L321.845,223.933 C321.583,225.489 321.752,226.975 322.354,228.392 L325.849,236.563 C326.403,237.876 326.549,239.319 326.284,240.89 L325.314,246.645 C325.102,247.909 324.448,248.449 323.354,248.264 C322.245,248.077 321.796,247.352 322.009,246.089 L323.26,238.67 L319.469,238.031 L318.569,243.369 C318.344,244.71 318.672,245.938 319.554,247.053 C320.435,248.168 321.653,248.857 323.21,249.119 C324.751,249.379 326.12,249.126 327.318,248.362 C328.517,247.597 329.229,246.545 329.455,245.204 L330.25,240.489 C330.515,238.918 330.347,237.424 329.745,236.007 L326.25,227.836 C325.694,226.523 325.548,225.088 325.811,223.532 L326.745,217.985 C326.958,216.721 327.619,216.183 328.729,216.37 C329.822,216.554 330.263,217.278 330.05,218.542 L328.8,225.96 L332.59,226.599 L333.49,221.261 C333.716,219.92 333.388,218.692 332.506,217.577 C331.625,216.462 330.413,215.774 328.872,215.515" fill="#FFEF9D"/>
    <path d="M344.271,221.176 L342.005,234.627 C341.916,235.151 341.656,235.566 341.224,235.874 C340.792,236.181 340.313,236.291 339.79,236.202 L338.149,235.926 L341.055,218.685 L342.695,218.961 C343.219,219.05 343.635,219.31 343.942,219.741 C344.25,220.174 344.359,220.652 344.271,221.176 z M342.839,218.106 L336.229,216.992 L336.085,217.847 L337.264,218.046 L331.968,249.478 L330.789,249.279 L330.645,250.134 L336.792,251.17 L336.937,250.315 L335.758,250.116 L338.005,236.781 L339.646,237.057 C341.218,237.323 342.638,237.074 343.907,236.314 C345.176,235.553 345.922,234.511 346.146,233.185 L347.711,223.894 C347.935,222.569 347.571,221.34 346.621,220.205 C345.672,219.071 344.411,218.371 342.839,218.106" fill="#FFEF9D"/>
    <path d="M358.038,223.258 L353.303,251.362 C353.214,251.886 352.954,252.301 352.522,252.609 C352.09,252.916 351.612,253.026 351.088,252.937 C350.564,252.849 350.148,252.589 349.841,252.157 C349.533,251.725 349.424,251.247 349.513,250.723 L354.248,222.619 C354.336,222.095 354.597,221.679 355.028,221.372 C355.461,221.065 355.938,220.955 356.463,221.043 C356.986,221.132 357.402,221.392 357.71,221.824 C358.017,222.256 358.127,222.734 358.038,223.258 z M356.606,220.188 C355.051,219.926 353.634,220.175 352.357,220.934 C351.08,221.693 350.33,222.736 350.107,224.06 L346.072,248.004 C345.849,249.329 346.216,250.56 347.174,251.696 C348.131,252.831 349.388,253.531 350.944,253.793 C352.516,254.057 353.936,253.809 355.205,253.049 C356.474,252.288 357.22,251.245 357.443,249.92 L361.479,225.977 C361.701,224.652 361.338,223.422 360.389,222.287 C359.438,221.153 358.179,220.453 356.606,220.188" fill="#FFEF9D"/>
    <path d="M372.421,225.919 L370.642,236.481 C370.553,237.005 370.293,237.421 369.86,237.728 C369.429,238.036 368.95,238.145 368.427,238.057 L366.786,237.781 L369.204,223.428 L370.845,223.705 C371.369,223.793 371.785,224.053 372.093,224.485 C372.399,224.917 372.509,225.395 372.421,225.919 z M370.989,222.849 L364.38,221.736 L364.235,222.591 L365.414,222.789 L360.117,254.221 L358.938,254.023 L358.795,254.878 L364.942,255.914 L365.087,255.059 L363.907,254.86 L366.642,238.636 L368.282,238.912 C368.807,239 369.222,239.261 369.529,239.693 C369.837,240.125 369.946,240.603 369.858,241.127 L367.884,252.845 C367.494,255.156 368.409,256.498 370.628,256.872 L372.269,257.148 L372.413,256.293 L372.32,256.278 C371.597,256.156 371.306,255.671 371.448,254.824 L373.298,243.845 C373.639,241.827 372.784,240.17 370.737,238.874 C373.086,238.383 374.435,237.105 374.782,235.04 L375.86,228.638 C376.084,227.313 375.721,226.083 374.771,224.949 C373.821,223.814 372.561,223.115 370.989,222.849" fill="#FFEF9D"/>
    <path d="M377.381,234.147 L380.87,234.735 L382.401,225.652 L384.111,225.94 L378.814,257.372 L377.636,257.174 L377.492,258.029 L383.64,259.065 L383.784,258.209 L382.604,258.011 L387.901,226.579 L389.612,226.867 L388.081,235.95 L391.571,236.538 L393.246,226.6 L379.056,224.209 L377.381,234.147" fill="#FFEF9D"/>
    <g clip-path="url(#Clip_1)">
      <path d="M263.606,331.386 C250.932,324.848 194.367,331.387 194.367,331.387 L167.227,238.839 C167.227,238.839 119.789,297.118 110.212,308.005 C102.11,317.216 87.288,346.311 87.288,346.311 L66.212,365.706 L114.567,418.261 L138.284,396.436 C138.284,396.436 178.01,381.171 189.081,376.837 C208.844,369.096 279.394,354.526 283.075,352.764 C286.762,350.997 276.28,337.925 263.606,331.386" fill="#FCD0A9"/>
      <path d="M72.256,341.959 L0,407.541 L0,550.235 L142.506,420.887 L72.256,341.959" fill="#A47347"/>
      <path d="M71.701,341.124 L-0,406.203 L-0,477.546 L106.814,380.593 L71.701,341.124" fill="#BF915C"/>
    </g>
    <path d="M32.528,376.708 L103.244,456.131 L112.379,448.221 L42.49,367.666 L32.528,376.708" fill="#A47347"/>
    <path d="M67.658,416.162 L103.244,456.131 L112.379,448.221 L77.117,407.578 L67.658,416.162" fill="#905C33"/>
    <path d="M70.021,337.47 C68.998,336.313 67.231,336.206 66.074,337.226 L37.983,362.072 C36.824,363.095 36.718,364.862 37.742,366.02 L113.784,452 C114.808,453.154 116.575,453.263 117.732,452.241 L145.821,427.396 C146.979,426.373 147.086,424.605 146.063,423.448 L70.021,337.47" fill="#BF915C"/>
    <path d="M107.521,379.872 L75.616,408.845 L113.784,452 C114.808,453.154 116.575,453.263 117.732,452.241 L145.821,427.396 C146.979,426.373 147.086,424.605 146.063,423.448 L107.521,379.872" fill="#A47347"/>
    <path d="M121.979,421.441 C119.154,420.396 116.018,421.841 114.973,424.664 C113.928,427.491 115.37,430.627 118.197,431.672 C121.022,432.717 124.159,431.273 125.203,428.447 C126.247,425.623 124.805,422.485 121.979,421.441" fill="#F0F0F0"/>
  </g>
</svg>
