<?xml version="1.0" encoding="UTF-8" standalone="no"?>
<svg
   xmlns:dc="http://purl.org/dc/elements/1.1/"
   xmlns:cc="http://creativecommons.org/ns#"
   xmlns:rdf="http://www.w3.org/1999/02/22-rdf-syntax-ns#"
   xmlns:svg="http://www.w3.org/2000/svg"
   xmlns="http://www.w3.org/2000/svg"
   height="490"
   width="1007.0079"
   xml:space="preserve"
   viewBox="0 0 1007.0079 490"
   y="0px"
   x="0px"
   id="Layer_1"
   version="1.1"><metadata
   id="metadata42"><rdf:RDF><cc:Work
       rdf:about=""><dc:format>image/svg+xml</dc:format><dc:type
         rdf:resource="http://purl.org/dc/dcmitype/StillImage" /><dc:title></dc:title></cc:Work></rdf:RDF></metadata><defs
   id="defs40" />
<g
   transform="translate(-4.0090487)"
   id="XMLID_511_">
	<g
   id="g4">
		<path
   id="path2"
   d="m 470.025,244.991 c 12.987,-16.198 18.582,-37.435 14.796,-58.317 -3.962,-21.851 -17.372,-40.168 -36.264,-50.546 6.181,-21.546 2.122,-45.188 -11.654,-63.562 -13.628,-18.171 -35.332,-29.02 -58.059,-29.02 -3.224,0 -6.431,0.215 -9.607,0.642 C 358.08,17.889 332.001,0 302.501,0 279.105,0 258.264,11.137 244.999,28.389 231.734,11.137 210.893,0 187.497,0 c -29.513,0 -55.602,17.905 -66.751,44.224 -3.184,-0.426 -6.401,-0.64 -9.641,-0.64 -23.068,0 -44.221,10.571 -58.034,29.006 -13.766,18.374 -17.82,42.014 -11.641,63.557 -18.893,10.377 -32.301,28.698 -36.263,50.562 -3.777,20.877 1.822,42.106 14.806,58.3 -12.987,16.198 -18.583,37.434 -14.796,58.318 3.962,21.851 17.372,40.167 36.263,50.544 -6.181,21.547 -2.122,45.189 11.654,63.563 13.629,18.171 35.333,29.02 58.059,29.02 3.223,0 6.43,-0.215 9.606,-0.642 11.158,26.3 37.236,44.188 66.738,44.188 23.395,0 44.236,-11.137 57.502,-28.389 13.265,17.252 34.106,28.389 57.502,28.389 29.514,0 55.603,-17.905 66.751,-44.224 3.184,0.426 6.401,0.64 9.641,0.64 23.068,0 44.223,-10.572 58.035,-29.006 13.765,-18.374 17.819,-42.014 11.64,-63.556 18.894,-10.378 32.301,-28.699 36.265,-50.563 3.775,-20.877 -1.824,-42.106 -14.808,-58.3 z M 229.999,417.5 c 0,23.435 -19.067,42.5 -42.502,42.5 -20.303,0 -37.839,-14.45 -41.697,-34.359 l -0.204,-1.052 c -0.39,-2.328 -0.597,-4.707 -0.597,-7.089 0,-6.921 1.652,-13.585 4.753,-19.555 11.278,6.928 24.273,10.643 37.843,10.642 l -0.002,-30 c -11.353,0.001 -22.026,-4.42 -30.054,-12.448 -8.026,-8.026 -12.447,-18.697 -12.448,-30.049 l -30,0.004 c 0.001,14.705 4.361,28.736 12.45,40.635 -7.921,11.596 -12.275,25.229 -12.512,39.542 -1.286,0.119 -2.578,0.183 -3.875,0.183 -13.533,0 -25.947,-6.203 -34.058,-17.018 -9.982,-13.313 -11.259,-31.352 -3.253,-45.955 l 3.562,-6.497 -6.065,-13.821 -6.733,-1.972 C 49.046,326.634 37.586,313.907 34.697,297.975 32.168,284.026 36.798,269.819 46.827,260 h 69.731 c 2.855,13.641 9.588,26.178 19.671,36.263 13.153,13.105 31.28,21.237 51.27,21.237 h 42.5 z m 0,-130 h -42.5 c -22.631,0 -41.183,-17.782 -42.429,-40.108 -0.004,-0.074 -0.012,-0.147 -0.016,-0.222 -0.036,-0.719 -0.055,-1.442 -0.055,-2.169 0,-11.353 4.422,-22.025 12.449,-30.051 L 136.236,193.735 C 126.15,203.82 119.416,216.358 116.559,230 h -69.75 c -10.017,-9.816 -14.643,-24.012 -12.123,-37.946 2.889,-15.94 14.35,-28.672 29.91,-33.227 l 6.735,-1.971 6.063,-13.821 -3.562,-6.496 c -8.005,-14.603 -6.731,-32.644 3.246,-45.96 8.093,-10.801 20.495,-16.995 34.025,-16.995 1.316,0 2.625,0.065 3.925,0.185 0.244,14.299 4.597,27.917 12.511,39.503 -8.089,11.899 -12.449,25.929 -12.45,40.635 l 30,0.004 c 0.001,-11.352 4.422,-22.022 12.448,-30.049 8.028,-8.027 18.7,-12.448 30.051,-12.448 0.003,0 0.005,-30 0.005,-30 -13.573,0 -26.565,3.715 -37.843,10.642 -3.1,-5.971 -4.751,-12.635 -4.751,-19.556 0,-2.373 0.206,-4.744 0.593,-7.063 l 0.209,-1.077 C 149.658,44.45 167.195,30 187.497,30 c 23.435,0 42.502,19.065 42.502,42.5 z m 30,-214.998 C 259.999,49.065 279.065,30 302.501,30 c 20.303,0 37.839,14.45 41.698,34.36 l 0.201,1.039 c 0.391,2.332 0.599,4.715 0.599,7.101 0,6.921 -1.651,13.585 -4.753,19.555 -11.278,-6.927 -24.273,-10.643 -37.843,-10.642 l 0.002,30 c 11.353,-10e-4 22.025,4.42 30.054,12.449 8.026,8.024 12.446,18.696 12.448,30.048 l 30,-0.004 c -0.002,-14.706 -4.362,-28.737 -12.45,-40.635 7.921,-11.596 12.275,-25.229 12.512,-39.541 1.286,-0.119 2.578,-0.183 3.876,-0.183 13.533,0 25.946,6.203 34.058,17.018 9.981,13.313 11.259,31.352 3.253,45.955 l -3.57,6.513 3.015,6.787 3.06,7.019 6.733,1.972 c 15.561,4.557 27.021,17.284 29.909,33.217 2.53,13.948 -2.1,28.156 -12.131,37.974 h -69.731 c -2.855,-13.641 -9.588,-26.178 -19.672,-36.264 -13.154,-13.104 -31.28,-21.236 -51.27,-21.236 h -42.5 z m 195.312,225.443 c -2.89,15.941 -14.35,28.673 -29.909,33.228 l -6.719,1.967 -6.072,13.841 3.553,6.48 c 8.006,14.603 6.731,32.644 -3.245,45.96 -8.094,10.802 -20.495,16.996 -34.026,16.995 -1.316,0 -2.624,-0.065 -3.924,-0.185 -0.244,-14.298 -4.598,-27.917 -12.511,-39.502 8.089,-11.899 12.448,-25.929 12.451,-40.635 l -30,-0.004 c -0.002,11.352 -4.422,22.023 -12.449,30.049 -8.026,8.027 -18.698,12.448 -30.05,12.448 -0.003,0 -0.005,30 -0.005,30 13.573,0 26.566,-3.715 37.843,-10.642 3.101,5.97 4.753,12.634 4.753,19.555 0,2.385 -0.208,4.768 -0.599,7.101 l -0.202,1.041 C 340.34,445.55 322.803,460 302.501,460 c -23.436,0 -42.502,-19.065 -42.502,-42.5 v -215 h 42.5 c 22.631,0 41.183,17.782 42.429,40.108 0.004,0.074 0.012,0.147 0.016,0.222 0.036,0.719 0.055,1.442 0.055,2.169 0,11.353 -4.421,22.025 -12.449,30.051 l 21.211,21.215 C 363.847,286.18 370.583,273.642 373.439,260 h 69.75 c 10.016,9.816 14.643,24.012 12.122,37.945 z" />
	</g>
</g>
<g
   transform="translate(735.14349,446.39831)"
   id="g7">
</g>
<g
   transform="translate(735.14349,446.39831)"
   id="g9">
</g>
<g
   transform="translate(735.14349,446.39831)"
   id="g11">
</g>
<g
   transform="translate(735.14349,446.39831)"
   id="g13">
</g>
<g
   transform="translate(735.14349,446.39831)"
   id="g15">
</g>
<g
   transform="translate(735.14349,446.39831)"
   id="g17">
</g>
<g
   transform="translate(735.14349,446.39831)"
   id="g19">
</g>
<g
   transform="translate(735.14349,446.39831)"
   id="g21">
</g>
<g
   transform="translate(735.14349,446.39831)"
   id="g23">
</g>
<g
   transform="translate(735.14349,446.39831)"
   id="g25">
</g>
<g
   transform="translate(735.14349,446.39831)"
   id="g27">
</g>
<g
   transform="translate(735.14349,446.39831)"
   id="g29">
</g>
<g
   transform="translate(735.14349,446.39831)"
   id="g31">
</g>
<g
   transform="translate(735.14349,446.39831)"
   id="g33">
</g>
<g
   transform="translate(735.14349,446.39831)"
   id="g35">
</g>
<g
   id="g12"
   transform="translate(568.0079,15.57628)"><path
     id="path2-8"
     d="M 151.245,222.446 C 148.054,237.039 135.036,248 119.5,248 c -4.142,0 -7.5,3.357 -7.5,7.5 0,4.143 3.358,7.5 7.5,7.5 23.774,0 43.522,-17.557 46.966,-40.386 14.556,-1.574 27.993,-8.06 38.395,-18.677 2.899,-2.959 2.85,-7.708 -0.109,-10.606 -2.958,-2.897 -7.707,-2.851 -10.606,0.108 C 184.947,202.829 172.643,208 159.5,208 132.757,208 111,186.243 111,159.5 c 0,-4.143 -3.358,-7.5 -7.5,-7.5 -4.142,0 -7.5,3.357 -7.5,7.5 0,32.215 24.119,58.884 55.245,62.946 z" /><path
     id="path4"
     d="m 183,287.5 c 0,-4.143 -3.358,-7.5 -7.5,-7.5 -35.014,0 -63.5,28.486 -63.5,63.5 0,0.362 0.013,0.725 0.019,1.088 C 109.23,344.212 106.39,344 103.5,344 c -4.142,0 -7.5,3.357 -7.5,7.5 0,4.143 3.358,7.5 7.5,7.5 26.743,0 48.5,21.757 48.5,48.5 0,4.143 3.358,7.5 7.5,7.5 4.142,0 7.5,-3.357 7.5,-7.5 0,-26.611 -16.462,-49.437 -39.731,-58.867 -0.178,-1.699 -0.269,-3.418 -0.269,-5.133 0,-26.743 21.757,-48.5 48.5,-48.5 4.142,0 7.5,-3.357 7.5,-7.5 z" /><path
     id="path6"
     d="m 439,223.5 c 0,-17.075 -6.82,-33.256 -18.875,-45.156 C 422.034,172.236 423,165.918 423,159.5 423,128.626 400.848,102.841 371.606,97.171 373.841,91.6 375,85.628 375,79.5 375,59.943 363.117,43.113 346.194,35.839 317.999,13.383 287.162,0 263.5,0 250.347,0 238.683,6.468 231.5,16.384 224.317,6.468 212.653,0 199.5,0 175.838,0 145.001,13.383 116.806,35.839 99.883,43.113 88,59.943 88,79.5 88,85.628 89.159,91.6 91.394,97.171 62.152,102.841 40,128.626 40,159.5 c 0,6.418 0.965,12.735 2.875,18.844 C 30.82,190.244 24,206.425 24,223.5 c 0,13.348 4.149,25.741 11.213,35.975 C 27.872,270.087 24,282.466 24,295.5 c 0,23.088 12.587,44.242 32.516,55.396 -0.343,2.852 -0.516,5.73 -0.516,8.604 0,31.144 20.315,58.679 49.79,68.063 12.821,21.942 36.175,35.437 61.71,35.437 27.995,0 52.269,-16.181 64,-39.674 11.731,23.493 36.005,39.674 64,39.674 25.535,0 48.889,-13.495 61.71,-35.437 29.475,-9.385 49.79,-36.92 49.79,-68.063 0,-2.874 -0.173,-5.752 -0.516,-8.604 C 426.413,339.742 439,318.588 439,295.5 439,282.466 435.128,270.087 427.787,259.475 434.851,249.241 439,236.848 439,223.5 Z M 167.5,448 c -21.029,0 -40.191,-11.594 -50.009,-30.256 -0.973,-1.849 -2.671,-3.208 -4.688,-3.751 C 88.19,407.369 71,384.961 71,359.5 c 0,-3.81 0.384,-7.626 1.141,-11.344 0.702,-3.447 -1.087,-6.92 -4.302,-8.35 C 50.32,332.018 39,314.626 39,295.5 39,286.801 41.256,278.486 45.561,271.121 56.757,280.992 71.436,287 87.5,287 91.642,287 95,283.643 95,279.5 95,275.357 91.642,272 87.5,272 60.757,272 39,250.243 39,223.5 c 0,-14.396 6.352,-27.964 17.428,-37.221 2.5,-2.09 3.365,-5.555 2.14,-8.574 C 56.2,171.869 55,165.744 55,159.5 55,132.757 76.757,111 103.5,111 c 26.743,0 48.5,21.757 48.5,48.5 0,4.143 3.358,7.5 7.5,7.5 4.142,0 7.5,-3.357 7.5,-7.5 C 167,125.858 140.698,98.257 107.579,96.145 104.577,91.127 103,85.421 103,79.5 c 0,-13.369 8.116,-24.875 19.678,-29.859 0.447,-0.133 0.885,-0.307 1.308,-0.527 C 127.568,47.752 131.447,47 135.5,47 c 12.557,0 23.767,7.021 29.256,18.325 1.81,3.727 6.298,5.281 10.023,3.47 3.726,-1.809 5.28,-6.296 3.47,-10.022 C 171.983,45.87 160.124,36.596 146.467,33.311 165.609,21.631 184.454,15 199.5,15 213.009,15 224,25.99 224,39.5 v 97.051 C 217.261,131.205 208.75,128 199.5,128 c -4.142,0 -7.5,3.357 -7.5,7.5 0,4.143 3.358,7.5 7.5,7.5 13.509,0 24.5,10.99 24.5,24.5 v 180.279 c -9.325,-12.031 -22.471,-21.111 -37.935,-25.266 -3.999,-1.071 -8.114,1.297 -9.189,5.297 -1.075,4.001 1.297,8.115 5.297,9.189 C 206.8,343.616 224,366.027 224,391.5 224,422.654 198.654,448 167.5,448 Z M 395.161,339.807 c -3.215,1.43 -5.004,4.902 -4.302,8.35 0.757,3.718 1.141,7.534 1.141,11.344 0,25.461 -17.19,47.869 -41.803,54.493 -2.017,0.543 -3.716,1.902 -4.688,3.751 C 335.691,436.406 316.529,448 295.5,448 264.346,448 239,422.654 239,391.5 c 0,-2.109 -0.098,-4.2 -0.281,-6.271 0.178,-0.641 0.281,-1.314 0.281,-2.012 V 135.5 c 0,-13.51 10.991,-24.5 24.5,-24.5 4.142,0 7.5,-3.357 7.5,-7.5 0,-4.143 -3.358,-7.5 -7.5,-7.5 -9.25,0 -17.761,3.205 -24.5,8.551 V 39.5 C 239,25.99 249.991,15 263.5,15 c 15.046,0 33.891,6.631 53.033,18.311 -13.657,3.284 -25.516,12.559 -31.782,25.462 -1.81,3.727 -0.256,8.214 3.47,10.022 3.726,1.81 8.213,0.257 10.023,-3.47 C 303.733,54.021 314.943,47 327.5,47 c 4.053,0 7.933,0.752 11.514,2.114 0.422,0.22 0.86,0.393 1.305,0.526 C 351.883,54.624 360,66.13 360,79.5 c 0,5.921 -1.577,11.627 -4.579,16.645 C 322.302,98.257 296,125.858 296,159.5 c 0,4.143 3.358,7.5 7.5,7.5 4.142,0 7.5,-3.357 7.5,-7.5 0,-26.743 21.757,-48.5 48.5,-48.5 26.743,0 48.5,21.757 48.5,48.5 0,6.244 -1.2,12.369 -3.567,18.205 -1.225,3.02 -0.36,6.484 2.14,8.574 11.075,9.257 17.427,22.825 17.427,37.221 0,26.743 -21.757,48.5 -48.5,48.5 -4.142,0 -7.5,3.357 -7.5,7.5 0,4.143 3.358,7.5 7.5,7.5 16.064,0 30.743,-6.008 41.939,-15.879 4.306,7.365 6.561,15.68 6.561,24.379 0,19.126 -11.32,36.518 -28.839,44.307 z" /><path
     id="path8"
     d="M 359.5,240 C 343.964,240 330.946,229.039 327.755,214.446 358.881,210.384 383,183.715 383,151.5 c 0,-4.143 -3.358,-7.5 -7.5,-7.5 -4.142,0 -7.5,3.357 -7.5,7.5 0,26.743 -21.757,48.5 -48.5,48.5 -13.143,0 -25.447,-5.171 -34.646,-14.561 -2.898,-2.958 -7.647,-3.007 -10.606,-0.108 -2.959,2.899 -3.008,7.647 -0.109,10.606 10.402,10.617 23.839,17.103 38.395,18.677 3.444,22.829 23.192,40.386 46.966,40.386 4.142,0 7.5,-3.357 7.5,-7.5 0,-4.143 -3.358,-7.5 -7.5,-7.5 z" /><path
     id="path10"
     d="m 335.5,328 c -2.89,0 -5.73,0.212 -8.519,0.588 0.006,-0.363 0.019,-0.726 0.019,-1.088 0,-35.014 -28.486,-63.5 -63.5,-63.5 -4.142,0 -7.5,3.357 -7.5,7.5 0,4.143 3.358,7.5 7.5,7.5 26.743,0 48.5,21.757 48.5,48.5 0,1.714 -0.091,3.434 -0.269,5.133 C 288.462,342.063 272,364.889 272,391.5 c 0,4.143 3.358,7.5 7.5,7.5 4.142,0 7.5,-3.357 7.5,-7.5 0,-26.743 21.757,-48.5 48.5,-48.5 4.142,0 7.5,-3.357 7.5,-7.5 0,-4.143 -3.358,-7.5 -7.5,-7.5 z" /></g><g
   id="g14"
   transform="translate(1058.0079,-248.11016)" /><g
   id="g16"
   transform="translate(1058.0079,-248.11016)" /><g
   id="g18"
   transform="translate(1058.0079,-248.11016)" /><g
   id="g20"
   transform="translate(1058.0079,-248.11016)" /><g
   id="g22"
   transform="translate(1058.0079,-248.11016)" /><g
   id="g24"
   transform="translate(1058.0079,-248.11016)" /><g
   id="g26"
   transform="translate(1058.0079,-248.11016)" /><g
   id="g28"
   transform="translate(1058.0079,-248.11016)" /><g
   id="g30"
   transform="translate(1058.0079,-248.11016)" /><g
   id="g32"
   transform="translate(1058.0079,-248.11016)" /><g
   id="g34"
   transform="translate(1058.0079,-248.11016)" /><g
   id="g36"
   transform="translate(1058.0079,-248.11016)" /><g
   id="g38"
   transform="translate(1058.0079,-248.11016)" /><g
   id="g40"
   transform="translate(1058.0079,-248.11016)" /><g
   id="g42"
   transform="translate(1058.0079,-248.11016)" /></svg>