<?xml version="1.0" encoding="UTF-8" standalone="no"?>
<svg
   xmlns:dc="http://purl.org/dc/elements/1.1/"
   xmlns:cc="http://creativecommons.org/ns#"
   xmlns:rdf="http://www.w3.org/1999/02/22-rdf-syntax-ns#"
   xmlns:svg="http://www.w3.org/2000/svg"
   xmlns="http://www.w3.org/2000/svg"
   version="1.1"
   id="svg2"
   xml:space="preserve"
   width="4046.9431"
   height="2318.0781"
   viewBox="0 0 4046.9431 2318.0781"><metadata
     id="metadata8"><rdf:RDF><cc:Work
         rdf:about=""><dc:format>image/svg+xml</dc:format><dc:type
           rdf:resource="http://purl.org/dc/dcmitype/StillImage" /><dc:title></dc:title></cc:Work></rdf:RDF></metadata><defs
     id="defs6" /><g
     id="g44"
     transform="matrix(0.14673466,0,0,-0.14673466,-619.83379,3919.7002)"><path
       d="M 9716.86,15500.2 8917.13,16300 7421.25,14804.1 5925.37,16300 l -799.75,-799.8 1495.87,-1495.9 -1495.88,-1495.8 799.76,-799.7 1495.88,1495.8 1495.88,-1495.9 799.73,799.8 -1495.86,1495.8 1495.86,1495.9"
       style="fill:#45be83;fill-opacity:1;fill-rule:nonzero;stroke:none"
       id="path46" /></g><g
     id="g66"
     transform="matrix(0.1486,0,0,-0.1486,-619.83379,3919.7002)"><path
       d="m 15510.2,16096.8 -2698.8,-2698.8 -1477,1477.1 -789.8,-789.7 1477.1,-1477.2 -0.2,-0.3 789.7,-789.7 3488.8,3488.9 -789.8,789.7"
       style="fill:#ef304b;fill-opacity:1;fill-rule:nonzero;stroke:none"
       id="path68" /></g><g
     id="g70"
     transform="matrix(0.24065733,0,0,-0.24065733,-619.83379,3919.7002)"><path
       d="m 5832.26,15819.1 c 0,34 -13.52,66.6 -37.56,90.6 l -340.18,340.2 c -50.05,50.1 -131.21,50.1 -181.26,0 l -1141.74,-1141.7 -545.69,545.7 c -24.04,24 -56.64,37.5 -90.63,37.5 -34,0 -66.59,-13.5 -90.63,-37.5 l -340.2,-340.2 c -50.05,-50.1 -50.05,-131.2 0,-181.3 l 545.69,-545.7 -545.7,-545.6 c -24.03,-24.1 -37.53,-56.7 -37.53,-90.7 0,-34 13.5,-66.6 37.53,-90.6 l 340.21,-340.2 c 25.03,-25 57.83,-37.6 90.63,-37.6 32.8,0 65.6,12.6 90.63,37.6 l 545.69,545.7 545.69,-545.7 c 24.04,-24 56.64,-37.6 90.63,-37.6 33.99,0 66.6,13.6 90.63,37.6 l 340.2,340.2 c 50.06,50 50.06,131.2 0,181.3 l -545.69,545.6 1141.72,1141.8 c 24.04,24 37.56,56.6 37.56,90.6"
       style="fill:#45be83;fill-opacity:1;fill-rule:nonzero;stroke:none"
       id="path72" /></g><g
     id="g74"
     transform="matrix(0.23825466,0,0,-0.23825466,-619.83379,3919.7002)"><path
       d="M 5384.17,15227.8 V 13517.4 H 2946.79 v 2437.4 h 1730.32 l 345.23,345.2 H 2774.18 c -95.33,0 -172.62,-77.3 -172.62,-172.6 v -2782.6 c 0,-95.4 77.29,-172.7 172.62,-172.7 h 2782.61 c 95.32,0 172.6,77.3 172.6,172.7 V 15573 l -345.22,-345.2"
       style="fill:#444142;fill-opacity:1;fill-rule:nonzero;stroke:none"
       id="path76" /></g><g
     id="g78"
     transform="matrix(0.24065733,0,0,-0.24065733,-619.83379,3919.7002)"><path
       d="m 10018.9,15909.7 -340.22,340.2 c -50.09,50.1 -131.25,50.1 -181.28,0 l -1436.3,-1436.3 -332.09,332.1 c -24.04,24.1 -56.62,37.5 -90.64,37.5 -33.96,0 -66.59,-13.4 -90.64,-37.5 l -340.18,-340.2 c -50.03,-50.1 -50.03,-131.2 0,-181.2 l 418.14,-418.2 c 1.44,-1.6 2.93,-3.1 4.43,-4.7 l 340.23,-340.2 c 24.05,-24 56.63,-37.5 90.64,-37.5 33.97,0 66.6,13.5 90.59,37.5 l 1867.32,1867.3 c 24,24 37.5,56.6 37.5,90.6 0,34 -13.5,66.6 -37.5,90.6"
       style="fill:#ef304b;fill-opacity:1;fill-rule:nonzero;stroke:none"
       id="path80" /></g><g
     id="g82"
     transform="matrix(0.23825466,0,0,-0.23825466,-619.83379,3919.7002)"><path
       d="m 9609.34,15186.2 v -1668.8 h -2437.4 v 2437.4 h 1771.89 l 345.23,345.2 H 6999.35 c -95.36,0 -172.64,-77.3 -172.64,-172.6 v -2782.6 c 0,-95.4 77.28,-172.7 172.64,-172.7 h 2782.57 c 95.37,0 172.65,77.3 172.65,172.7 v 2186.7 l -345.23,-345.3"
       style="fill:#444142;fill-opacity:1;fill-rule:nonzero;stroke:none"
       id="path84" /></g><g
     id="g86"
     transform="matrix(0.22304133,0,0,-0.22304133,-619.83379,3919.7002)"><path
       d="m 16300,10417.6 c 0,36.7 -14.6,71.9 -40.5,97.8 l -367.1,367.1 c -54,54 -141.5,54 -195.6,0 l -1231.9,-1231.91 -588.7,588.81 c -26,25.9 -61.2,40.5 -97.8,40.5 -36.7,0 -71.9,-14.6 -97.8,-40.5 l -367.1,-367.09 c -54,-54.04 -54,-141.62 0,-195.6 l 588.8,-588.77 -588.8,-588.83 c -25.9,-25.88 -40.5,-61.09 -40.5,-97.74 0,-36.7 14.6,-71.85 40.5,-97.8 l 367.1,-367.1 c 27,-26.96 62.4,-40.47 97.8,-40.47 35.4,0 70.8,13.51 97.8,40.47 l 588.7,588.83 588.8,-588.83 c 26,-25.89 61.1,-40.47 97.8,-40.47 36.7,0 71.9,14.58 97.8,40.47 l 367.1,367.1 c 54,53.99 54,141.56 0,195.54 l -588.8,588.83 1231.9,1231.86 c 25.9,26 40.5,61.1 40.5,97.8"
       style="fill:#45be83;fill-opacity:1;fill-rule:nonzero;stroke:none"
       id="path88" /></g><g
     id="g90"
     transform="matrix(0.22416799,0,0,-0.22416799,-619.83379,3919.7002)"><path
       d="m 16070.2,9958.16 -273.3,-273.3 c 89.1,-196.82 136.2,-412.13 136.2,-634.64 0,-410.94 -160.1,-797.32 -450.7,-1087.94 -290.6,-290.55 -676.9,-450.61 -1087.9,-450.61 -411,0 -797.3,160.06 -1087.9,450.61 -290.6,290.62 -450.6,677 -450.6,1087.94 0,410.94 160,797.31 450.6,1087.88 290.6,290.7 676.9,450.7 1087.9,450.7 225.5,0 443.5,-48.3 642.4,-139.8 l 272.9,272.9 c -56.2,30.7 -114,58.8 -173.5,84 -235.1,99.4 -484.6,149.8 -741.8,149.8 -257.2,0 -506.7,-50.4 -741.7,-149.8 -226.9,-96 -430.7,-233.4 -605.6,-408.3 -175,-174.9 -312.4,-378.7 -408.4,-605.62 -99.4,-235.06 -149.7,-484.58 -149.7,-741.76 0,-257.13 50.3,-506.71 149.7,-741.77 96,-226.91 233.4,-430.69 408.4,-605.61 174.9,-174.93 378.7,-312.27 605.6,-408.27 235,-99.39 484.5,-149.83 741.7,-149.83 257.2,0 506.7,50.44 741.7,149.83 227,96 430.7,233.34 605.7,408.27 174.9,174.92 312.3,378.7 408.3,605.61 99.4,235.06 149.8,484.64 149.8,741.77 0,257.18 -50.4,506.7 -149.8,741.76 -24.1,56.86 -50.8,112.29 -80,166.18"
       style="fill:#444142;fill-opacity:1;fill-rule:nonzero;stroke:none"
       id="path92" /></g><g
     id="g94"
     transform="matrix(0.28540799,0,0,-0.28540799,-619.83379,3919.7002)"><path
       d="m 16268.3,8217.62 -286.8,286.84 c -42.2,42.23 -110.7,42.23 -152.9,0 l -1211.1,-1211.08 -280,279.97 c -20.3,20.28 -47.7,31.67 -76.4,31.67 -28.6,0 -56.2,-11.39 -76.4,-31.67 l -286.9,-286.84 c -42.2,-42.19 -42.2,-110.62 0,-152.86 l 352.6,-352.57 c 1.2,-1.31 2.5,-2.66 3.7,-3.92 l 286.9,-286.89 c 20.3,-20.23 47.8,-31.63 76.4,-31.63 28.7,0 56.2,11.4 76.4,31.63 l 1574.5,1574.5 c 20.3,20.27 31.7,47.74 31.7,76.42 0,28.69 -11.4,56.16 -31.7,76.43"
       style="fill:#ef304b;fill-opacity:1;fill-rule:nonzero;stroke:none"
       id="path96" /></g><g
     id="g98"
     transform="matrix(0.28630533,0,0,-0.28630533,-619.83379,3919.7002)"><path
       d="m 16124.6,7788.43 -214.4,-214.46 c 67.2,-151.63 102.5,-317.05 102.5,-487.92 0,-321.75 -125.3,-624.27 -352.8,-851.82 -227.6,-227.49 -530.1,-352.81 -851.8,-352.81 -321.8,0 -624.3,125.32 -851.8,352.81 -227.5,227.55 -352.9,530.07 -352.9,851.82 0,321.81 125.4,624.28 352.9,851.82 227.5,227.54 530,352.82 851.8,352.82 179.9,0 353.8,-39.21 511.9,-113.54 l 213.1,213.11 c -46.6,25.89 -94.7,49.45 -144.2,70.41 -184.1,77.87 -379.5,117.31 -580.8,117.31 -201.4,0 -396.8,-39.44 -580.8,-117.31 -177.7,-75.12 -337.2,-182.69 -474.2,-319.66 -136.9,-136.96 -244.5,-296.51 -319.6,-474.18 -77.9,-184.04 -117.4,-379.4 -117.4,-580.78 0,-201.32 39.5,-396.73 117.4,-580.77 75.1,-177.67 182.7,-337.22 319.6,-474.18 137,-136.97 296.5,-244.5 474.2,-319.66 184,-77.82 379.4,-117.32 580.8,-117.32 201.3,0 396.7,39.5 580.8,117.32 177.6,75.16 337.2,182.69 474.1,319.66 137,136.96 244.6,296.51 319.7,474.18 77.9,184.04 117.3,379.45 117.3,580.77 0,201.38 -39.4,396.74 -117.3,580.78 -17.6,41.54 -37,82.06 -58.1,121.6"
       style="fill:#444142;fill-opacity:1;fill-rule:nonzero;stroke:none"
       id="path100" /></g><g
     id="g102"
     transform="matrix(0.23148399,0,0,-0.23148399,-619.83379,3919.7002)"><path
       d="m 15123.9,15946.3 -353.7,353.7 -661.5,-661.5 -661.5,661.5 -353.7,-353.7 661.5,-661.5 -661.6,-661.6 353.8,-353.6 661.5,661.5 661.5,-661.5 353.7,353.6 -661.6,661.6 661.6,661.5"
       style="fill:#45be83;fill-opacity:1;fill-rule:nonzero;stroke:none"
       id="path104" /></g><g
     id="g106"
     transform="matrix(0.23847999,0,0,-0.23847999,-619.83379,3919.7002)"><path
       d="m 12492.2,15555.3 h -264.1 v 744.7 h 744.7 v -264.1 h -480.6 v -480.6"
       style="fill:#444142;fill-opacity:1;fill-rule:nonzero;stroke:none"
       id="path108" /></g><g
     id="g110"
     transform="matrix(0.23847999,0,0,-0.23847999,-619.83379,3919.7002)"><path
       d="m 14369.2,16035.9 v 264.1 h 744.6 v -744.7 h -264.1 v 480.6 h -480.5"
       style="fill:#444142;fill-opacity:1;fill-rule:nonzero;stroke:none"
       id="path112" /></g><g
     id="g114"
     transform="matrix(0.22112533,0,0,-0.22112533,-619.83379,3919.7002)"><path
       d="m 16015.2,15258 h 284.8 v -803.1 h -803.1 v 284.9 h 518.3 v 518.2"
       style="fill:#444142;fill-opacity:1;fill-rule:nonzero;stroke:none"
       id="path116" /></g><g
     id="g118"
     transform="matrix(0.20698933,0,0,-0.20698933,-619.83379,3919.7002)"><path
       d="m 14946.4,15746.4 v -304.3 h -858 v 857.9 h 304.3 v -553.6 h 553.7"
       style="fill:#444142;fill-opacity:1;fill-rule:nonzero;stroke:none"
       id="path120" /></g><g
     id="g122"
     transform="matrix(0.27128933,0,0,-0.27128933,-619.83379,3919.7002)"><path
       d="m 15998.2,13908.8 -1031.3,-1031.3 -564.5,564.5 -301.8,-301.8 564.5,-564.5 -0.1,-0.1 301.8,-301.8 1333.2,1333.3 -301.8,301.7"
       style="fill:#ef304b;fill-opacity:1;fill-rule:nonzero;stroke:none"
       id="path124" /></g><g
     id="g126"
     transform="matrix(0.24401066,0,0,-0.24401066,-619.83379,3919.7002)"><path
       d="m 15830.4,15202.8 h -258.2 v 727.8 h 727.8 v -258.2 h -469.6 v -469.6"
       style="fill:#444142;fill-opacity:1;fill-rule:nonzero;stroke:none"
       id="path128" /></g><g
     id="g130"
     transform="matrix(0.27533599,0,0,-0.27533599,-619.83379,3919.7002)"><path
       d="m 15655,13889.3 v 228.8 h 645 v -645 h -228.8 v 416.2 H 15655"
       style="fill:#444142;fill-opacity:1;fill-rule:nonzero;stroke:none"
       id="path132" /></g><g
     id="g134"
     transform="matrix(0.27533599,0,0,-0.27533599,-619.83379,3919.7002)"><path
       d="m 16071.2,12253.9 h 228.8 v -645 h -645 v 228.8 h 416.2 v 416.2"
       style="fill:#444142;fill-opacity:1;fill-rule:nonzero;stroke:none"
       id="path136" /></g><g
     id="g138"
     transform="matrix(0.24401066,0,0,-0.24401066,-619.83379,3919.7002)"><path
       d="m 16300,13357.4 v -258.2 h -727.8 v 727.8 h 258.2 v -469.6 h 469.6"
       style="fill:#444142;fill-opacity:1;fill-rule:nonzero;stroke:none"
       id="path140" /></g></svg>