<?xml version="1.0" encoding="UTF-8"?>
<!DOCTYPE svg PUBLIC "-//W3C//DTD SVG 1.1//EN" "http://www.w3.org/Graphics/SVG/1.1/DTD/svg11.dtd">
<svg version="1.1" xmlns="http://www.w3.org/2000/svg" xmlns:xlink="http://www.w3.org/1999/xlink" x="0" y="0" width="399.638" height="130.237" viewBox="0, 0, 399.638, 130.237">
  <g id="Background">
    <rect x="0" y="0" width="399.638" height="130.237" fill="#FFFFFF"/>
    <g stroke-width="1px">
      <line x1="12" y1="0" x2="12" y2="130.237" stroke="#AAAAAA" stroke-opacity="0.25"/>
      <line x1="24" y1="0" x2="24" y2="130.237" stroke="#AAAAAA" stroke-opacity="0.25"/>
      <line x1="36" y1="0" x2="36" y2="130.237" stroke="#AAAAAA" stroke-opacity="0.25"/>
      <line x1="48" y1="0" x2="48" y2="130.237" stroke="#AAAAAA" stroke-opacity="0.25"/>
      <line x1="60" y1="0" x2="60" y2="130.237" stroke="#AAAAAA" stroke-opacity="0.25"/>
      <line x1="72" y1="0" x2="72" y2="130.237" stroke="#AAAAAA" stroke-opacity="0.5"/>
      <line x1="84" y1="0" x2="84" y2="130.237" stroke="#AAAAAA" stroke-opacity="0.25"/>
      <line x1="96" y1="0" x2="96" y2="130.237" stroke="#AAAAAA" stroke-opacity="0.25"/>
      <line x1="108" y1="0" x2="108" y2="130.237" stroke="#AAAAAA" stroke-opacity="0.25"/>
      <line x1="120" y1="0" x2="120" y2="130.237" stroke="#AAAAAA" stroke-opacity="0.25"/>
      <line x1="132" y1="0" x2="132" y2="130.237" stroke="#AAAAAA" stroke-opacity="0.25"/>
      <line x1="144" y1="0" x2="144" y2="130.237" stroke="#AAAAAA" stroke-opacity="0.5"/>
      <line x1="156" y1="0" x2="156" y2="130.237" stroke="#AAAAAA" stroke-opacity="0.25"/>
      <line x1="168" y1="0" x2="168" y2="130.237" stroke="#AAAAAA" stroke-opacity="0.25"/>
      <line x1="180" y1="0" x2="180" y2="130.237" stroke="#AAAAAA" stroke-opacity="0.25"/>
      <line x1="192" y1="0" x2="192" y2="130.237" stroke="#AAAAAA" stroke-opacity="0.25"/>
      <line x1="204" y1="0" x2="204" y2="130.237" stroke="#AAAAAA" stroke-opacity="0.25"/>
      <line x1="216" y1="0" x2="216" y2="130.237" stroke="#AAAAAA" stroke-opacity="0.5"/>
      <line x1="228" y1="0" x2="228" y2="130.237" stroke="#AAAAAA" stroke-opacity="0.25"/>
      <line x1="240" y1="0" x2="240" y2="130.237" stroke="#AAAAAA" stroke-opacity="0.25"/>
      <line x1="252" y1="0" x2="252" y2="130.237" stroke="#AAAAAA" stroke-opacity="0.25"/>
      <line x1="264" y1="0" x2="264" y2="130.237" stroke="#AAAAAA" stroke-opacity="0.25"/>
      <line x1="276" y1="0" x2="276" y2="130.237" stroke="#AAAAAA" stroke-opacity="0.25"/>
      <line x1="288" y1="0" x2="288" y2="130.237" stroke="#AAAAAA" stroke-opacity="0.5"/>
      <line x1="300" y1="0" x2="300" y2="130.237" stroke="#AAAAAA" stroke-opacity="0.25"/>
      <line x1="312" y1="0" x2="312" y2="130.237" stroke="#AAAAAA" stroke-opacity="0.25"/>
      <line x1="324" y1="0" x2="324" y2="130.237" stroke="#AAAAAA" stroke-opacity="0.25"/>
      <line x1="336" y1="0" x2="336" y2="130.237" stroke="#AAAAAA" stroke-opacity="0.25"/>
      <line x1="348" y1="0" x2="348" y2="130.237" stroke="#AAAAAA" stroke-opacity="0.25"/>
      <line x1="360" y1="0" x2="360" y2="130.237" stroke="#AAAAAA" stroke-opacity="0.5"/>
      <line x1="372" y1="0" x2="372" y2="130.237" stroke="#AAAAAA" stroke-opacity="0.25"/>
      <line x1="384" y1="0" x2="384" y2="130.237" stroke="#AAAAAA" stroke-opacity="0.25"/>
      <line x1="396" y1="0" x2="396" y2="130.237" stroke="#AAAAAA" stroke-opacity="0.25"/>
      <line x1="0" y1="12" x2="399.638" y2="12" stroke="#AAAAAA" stroke-opacity="0.25"/>
      <line x1="0" y1="24" x2="399.638" y2="24" stroke="#AAAAAA" stroke-opacity="0.25"/>
      <line x1="0" y1="36" x2="399.638" y2="36" stroke="#AAAAAA" stroke-opacity="0.25"/>
      <line x1="0" y1="48" x2="399.638" y2="48" stroke="#AAAAAA" stroke-opacity="0.25"/>
      <line x1="0" y1="60" x2="399.638" y2="60" stroke="#AAAAAA" stroke-opacity="0.25"/>
      <line x1="0" y1="72" x2="399.638" y2="72" stroke="#AAAAAA" stroke-opacity="0.5"/>
      <line x1="0" y1="84" x2="399.638" y2="84" stroke="#AAAAAA" stroke-opacity="0.25"/>
      <line x1="0" y1="96" x2="399.638" y2="96" stroke="#AAAAAA" stroke-opacity="0.25"/>
      <line x1="0" y1="108" x2="399.638" y2="108" stroke="#AAAAAA" stroke-opacity="0.25"/>
      <line x1="0" y1="120" x2="399.638" y2="120" stroke="#AAAAAA" stroke-opacity="0.25"/>
    </g>
  </g>
  <g id="Layer_1">
    <path d="M368.871,130.237 L7.468,130.237 C3.35,130.237 0,126.887 0,122.768 L0,7.469 C0,3.351 3.35,0 7.468,0 L368.871,0 C385.836,0 399.638,13.802 399.638,30.767 L399.638,99.47 C399.638,116.436 385.836,130.237 368.871,130.237" fill="#FFD047"/>
    <path d="M78.025,34.138 L83.776,34.138 C83.679,35.134 83.391,36.002 82.915,36.742 C82.437,37.484 81.824,38.047 81.078,38.435 C80.33,38.822 79.505,39.016 78.606,39.016 C77.555,39.016 76.624,38.785 75.814,38.321 C75.004,37.856 74.372,37.193 73.915,36.328 C73.458,35.462 73.23,34.435 73.23,33.244 C73.23,32.082 73.455,31.071 73.904,30.214 C74.354,29.356 74.974,28.695 75.762,28.231 C76.552,27.767 77.444,27.535 78.441,27.535 C79.547,27.535 80.506,27.806 81.315,28.345 C82.125,28.885 82.703,29.598 83.049,30.483 L85.043,30.483 C84.641,29.03 83.862,27.881 82.707,27.037 C81.551,26.193 80.122,25.771 78.42,25.771 C77.021,25.771 75.783,26.089 74.704,26.725 C73.624,27.363 72.784,28.245 72.181,29.373 C71.579,30.501 71.278,31.792 71.278,33.244 C71.278,34.697 71.579,35.988 72.181,37.116 C72.784,38.245 73.624,39.123 74.704,39.753 C75.783,40.383 77.028,40.697 78.441,40.697 C79.727,40.697 80.876,40.421 81.887,39.867 C82.897,39.313 83.7,38.567 84.295,37.625 C84.89,36.684 85.25,35.632 85.375,34.469 L85.375,32.725 L78.025,32.725 L78.025,34.138" fill="#818181"/>
    <path d="M90.606,35.694 L93.284,28.303 L95.963,35.694 L90.606,35.694 z M92.226,26.186 L86.808,40.552 L88.842,40.552 L90.067,37.168 L96.503,37.168 L97.727,40.552 L99.762,40.552 L94.364,26.186 L92.226,26.186" fill="#818181"/>
    <path d="M100.488,27.452 L104.62,27.452 L104.62,40.552 L106.509,40.552 L106.509,27.452 L110.64,27.452 L110.64,25.916 L100.488,25.916 L100.488,27.452" fill="#818181"/>
    <path d="M114.584,40.552 L122.66,40.552 L122.66,39.016 L116.473,39.016 L116.473,33.909 L122.037,33.909 L122.037,32.455 L116.473,32.455 L116.473,27.452 L122.66,27.452 L122.66,25.916 L114.584,25.916 L114.584,40.552" fill="#818181"/>
    <path d="M135.407,34.521 C135.004,33.961 134.517,33.542 133.942,33.265 C133.368,32.989 132.61,32.698 131.669,32.393 C130.895,32.145 130.286,31.919 129.842,31.719 C129.399,31.518 129.029,31.241 128.732,30.888 C128.434,30.535 128.285,30.075 128.285,29.508 C128.285,28.789 128.514,28.231 128.971,27.837 C129.428,27.442 130.037,27.245 130.798,27.245 C131.627,27.245 132.285,27.467 132.77,27.909 C133.254,28.352 133.551,28.864 133.663,29.445 L135.697,29.445 C135.559,28.365 135.067,27.477 134.223,26.777 C133.379,26.079 132.237,25.729 130.798,25.729 C129.87,25.729 129.064,25.888 128.379,26.207 C127.693,26.526 127.168,26.975 126.801,27.556 C126.435,28.138 126.251,28.809 126.251,29.57 C126.251,30.456 126.448,31.168 126.843,31.708 C127.237,32.248 127.714,32.652 128.275,32.923 C128.836,33.193 129.58,33.48 130.507,33.784 C131.296,34.034 131.919,34.265 132.375,34.48 C132.832,34.695 133.216,34.988 133.528,35.362 C133.838,35.736 133.995,36.22 133.995,36.815 C133.995,37.507 133.773,38.075 133.331,38.517 C132.888,38.961 132.251,39.182 131.42,39.182 C130.783,39.182 130.24,39.054 129.791,38.798 C129.341,38.542 128.995,38.217 128.753,37.822 C128.51,37.428 128.368,37.023 128.327,36.607 L126.313,36.607 C126.382,37.397 126.642,38.099 127.092,38.715 C127.542,39.331 128.143,39.815 128.898,40.168 C129.652,40.521 130.514,40.697 131.482,40.697 C132.479,40.697 133.316,40.511 133.995,40.137 C134.673,39.763 135.178,39.279 135.511,38.683 C135.842,38.089 136.008,37.445 136.008,36.753 C136.008,35.826 135.808,35.082 135.407,34.521" fill="#818181"/>
    <path d="M314.127,23.561 L302.905,34.784 L327.702,59.581 L263.381,59.581 L263.381,75.452 L327.702,75.452 L302.905,100.249 L314.127,111.472 L358.084,67.516 L314.127,23.561" fill="#3F4962"/>
    <path d="M90.497,89.605 C93.092,87.184 95.262,84.493 96.949,81.604 C98.673,78.65 99.548,75.652 99.548,72.692 C99.548,68.884 98.334,65.779 95.938,63.464 C93.551,61.16 90.129,59.991 85.768,59.991 C81.488,59.991 77.89,61.308 75.072,63.904 C72.246,66.508 70.691,70.349 70.452,75.319 L70.405,76.297 L80.066,76.297 L80.106,75.405 C80.376,69.325 83.109,68.622 85.142,68.622 C86.683,68.622 87.76,69.014 88.433,69.822 C89.138,70.668 89.496,71.883 89.496,73.431 C89.496,78.954 83.147,86.156 70.626,94.834 L70.224,95.113 L70.224,102.505 L100.344,102.505 L100.344,94.099 L84.973,94.099 C86.881,92.757 88.731,91.253 90.497,89.605" fill="#818181"/>
    <path d="M105.525,70.214 L111.552,70.214 L111.552,102.846 L121.833,102.846 L121.833,60.844 L105.525,60.844 L105.525,70.214" fill="#818181"/>
    <path d="M128.037,77.386 L154.065,77.386 L154.065,85.905 L128.037,85.905 z" fill="#818181"/>
    <path d="M186.127,75.746 C184.144,74.457 181.648,73.805 178.712,73.805 C176.742,73.805 174.912,74.144 173.272,74.812 C172.406,75.165 171.63,75.582 170.949,76.06 L170.949,68.964 L189.993,68.964 L189.993,60.048 L161.804,60.048 L161.804,85.62 L171.131,85.62 L171.378,85.068 C171.796,84.134 172.442,83.404 173.352,82.835 C174.258,82.269 175.392,81.982 176.723,81.982 C178.56,81.982 179.921,82.465 180.884,83.46 C181.855,84.464 182.327,85.869 182.327,87.757 C182.327,89.764 181.851,91.374 180.912,92.544 C180.011,93.667 178.64,94.213 176.723,94.213 C175.13,94.213 173.904,93.8 172.975,92.95 C172.023,92.082 171.43,90.925 171.161,89.412 L171.025,88.642 L161.477,88.642 L161.522,89.617 C161.642,92.275 162.361,94.641 163.659,96.649 C164.96,98.662 166.79,100.246 169.097,101.359 C171.374,102.459 174.074,103.016 177.121,103.016 C181.84,103.016 185.541,101.616 188.121,98.854 C190.683,96.111 191.982,92.435 191.982,87.927 C191.982,85.382 191.505,83.026 190.565,80.923 C189.604,78.776 188.111,77.035 186.127,75.746" fill="#818181"/>
    <path d="M208.209,85.971 L217.572,73.5 L217.572,85.971 L208.209,85.971 z M226.886,85.971 L226.886,60.389 L216.899,60.389 L197.221,86.879 L197.221,94.773 L216.947,94.773 L216.947,102.846 L226.886,102.846 L226.886,94.773 L232.117,94.773 L232.117,85.971 L226.886,85.971" fill="#818181"/>
  </g>
</svg>
