<?xml version="1.0" encoding="UTF-8" standalone="no"?>
<svg
   xmlns:dc="http://purl.org/dc/elements/1.1/"
   xmlns:cc="http://creativecommons.org/ns#"
   xmlns:rdf="http://www.w3.org/1999/02/22-rdf-syntax-ns#"
   xmlns:svg="http://www.w3.org/2000/svg"
   xmlns="http://www.w3.org/2000/svg"
   width="112.22699mm"
   height="232.13165mm"
   viewBox="0 0 112.22699 232.13165"
   version="1.1"
   id="svg1462">
  <defs
     id="defs1456" />
  <metadata
     id="metadata1459">
    <rdf:RDF>
      <cc:Work
         rdf:about="">
        <dc:format>image/svg+xml</dc:format>
        <dc:type
           rdf:resource="http://purl.org/dc/dcmitype/StillImage" />
        <dc:title></dc:title>
      </cc:Work>
    </rdf:RDF>
  </metadata>
  <g
     id="layer1"
     transform="translate(-48.207937,-28.231788)">
    <g
       id="g7298"
       transform="matrix(0.26458333,0,0,0.26458333,-94.116199,-104.91845)"><path
   d="m 646.973,553.407 h 15.613 c 1.6,0 2.953,1.354 2.953,3.076 v 200.4 c 0,1.601 -1.353,2.952 -2.953,2.952 h -15.613 c -1.723,0 -3.075,-1.352 -3.075,-2.952 v -200.4 c -10e-4,-1.722 1.352,-3.076 3.075,-3.076 z"
   id="path220"
   style="clip-rule:evenodd;fill:#a4393a;fill-rule:evenodd" />
<path
   d="m 656.194,553.407 h 6.392 v 0 c 1.6,0 2.953,1.354 2.953,2.953 v 0.123 200.4 0 c 0,1.601 -1.353,2.952 -2.953,2.952 v 0 h -6.392 c -0.738,0 -1.479,-0.738 -1.479,-1.475 V 554.884 c 0,-0.737 0.741,-1.477 1.479,-1.477 z"
   id="path222"
   style="clip-rule:evenodd;fill:#771f20;fill-rule:evenodd" />
<path
   d="m 640.576,750.245 h 28.278 c 3.075,0 5.536,2.461 5.536,5.533 v 34.673 c 0,3.069 -2.461,5.53 -5.536,5.53 h -28.278 c -3.069,0 -5.531,-2.461 -5.531,-5.53 v -34.673 c 0,-3.072 2.462,-5.533 5.531,-5.533 z"
   id="path224"
   style="clip-rule:evenodd;fill:#4a1313;fill-rule:evenodd" />
<path
   d="m 640.576,525.5 h 28.278 c 3.075,0 5.536,2.458 5.536,5.534 v 34.671 c 0,3.073 -2.461,5.532 -5.536,5.532 h -28.278 c -3.069,0 -5.531,-2.459 -5.531,-5.532 v -34.671 c 0,-3.076 2.462,-5.534 5.531,-5.534 z"
   id="path226"
   style="clip-rule:evenodd;fill:#4a1313;fill-rule:evenodd" />
<path
   d="m 837.416,553.407 h 15.617 c 1.597,0 3.069,1.354 3.069,3.076 v 200.4 c 0,1.601 -1.473,2.952 -3.069,2.952 h -15.617 c -1.721,0 -3.075,-1.352 -3.075,-2.952 v -200.4 c 0,-1.722 1.354,-3.076 3.075,-3.076 z"
   id="path228"
   style="clip-rule:evenodd;fill:#a4393a;fill-rule:evenodd" />


path
     d=&quot;m 846.635,553.407 h 6.398 0.122 c 1.597,0 2.825,1.354 2.947,2.953 v 0.123 200.4 0 c -0.122,1.601 -1.351,2.952 -2.947,2.952 h -0.122 -6.398 c -0.734,0 -1.472,-0.738 -1.472,-1.475 V 554.884 c 0,-0.737 0.737,-1.477 1.472,-1.477 z&quot;
     id=&quot;path230&quot;
     style=&quot;clip-rule:evenodd;fill:#771f20;fill-rule:evenodd&quot; /&gt;<path
   d="m 831.024,750.245 h 28.399 c 2.952,0 5.408,2.461 5.408,5.533 v 34.673 c 0,3.069 -2.456,5.53 -5.408,5.53 h -28.399 c -2.953,0 -5.409,-2.461 -5.409,-5.53 v -34.673 c 0,-3.072 2.456,-5.533 5.409,-5.533 z"
   id="path232"
   style="clip-rule:evenodd;fill:#4a1313;fill-rule:evenodd" />
<path
   d="m 831.024,525.5 h 28.399 c 2.952,0 5.408,2.458 5.408,5.534 v 34.671 c 0,3.073 -2.456,5.532 -5.408,5.532 h -28.399 c -2.953,0 -5.409,-2.459 -5.409,-5.532 v -34.671 c 0,-3.076 2.456,-5.534 5.409,-5.534 z"
   id="path234"
   style="clip-rule:evenodd;fill:#4a1313;fill-rule:evenodd" />
<path
   d="M 634.432,503.246 H 865.57 c 7.5,0 13.646,6.148 13.646,13.77 v 25.697 c 0,7.622 -6.146,13.771 -13.646,13.771 h -15.368 v 0 c -0.49,0 -13.523,-1.354 -27.171,-11.68 -11.683,-8.73 -24.833,-8.73 -36.392,0 -13.771,10.327 -26.805,11.68 -27.173,11.68 h -0.121 -18.811 v 0 c -0.37,0 -13.403,-1.354 -27.172,-11.68 -11.556,-8.73 -24.833,-8.73 -36.392,0 -13.771,10.327 -26.802,11.68 -27.172,11.68 v 0 h -15.366 c -7.502,0 -13.771,-6.148 -13.771,-13.771 v -25.697 c 0,-7.622 6.268,-13.77 13.771,-13.77 z"
   id="path236"
   style="clip-rule:evenodd;fill:#5bbda6;fill-rule:evenodd" />
<path
   d="m 836.433,542.099 z m -90.735,0 z m -18.811,0 z m -90.858,0 z m 104.506,14.384 z m 109.667,0 z m 15.368,-28.154 c 0,2.705 -0.859,5.163 -2.089,7.377 -2.461,3.81 -6.766,6.393 -11.683,6.393 h -15.366 c -0.245,0 -4.55,-0.493 -10.817,-2.829 -4.672,-1.72 -10.454,-4.427 -16.354,-8.853 -11.56,-8.727 -24.709,-8.727 -36.393,0 -13.646,10.328 -26.802,11.559 -27.17,11.682 h -18.811 c -0.491,-0.123 -13.525,-1.354 -27.172,-11.682 -11.678,-8.727 -24.833,-8.727 -36.516,0 -1.597,1.23 -3.315,2.461 -5.039,3.443 -11.678,7.253 -21.758,8.238 -22.131,8.238 h -0.983 -14.261 -0.124 v 0.614 c 0,7.622 6.268,13.771 13.771,13.771 h 0.614 14.752 c 0.37,0 11.805,-1.231 24.592,-9.836 0.86,-0.615 1.719,-1.229 2.58,-1.844 11.559,-8.73 24.836,-8.73 36.392,0 13.77,10.327 26.803,11.68 27.172,11.68 h 18.932 c 0.368,0 13.401,-1.354 27.173,-11.68 11.559,-8.73 24.709,-8.73 36.392,0 0.859,0.615 1.72,1.229 2.584,1.844 12.66,8.605 24.219,9.836 24.587,9.836 h 14.63 0.738 c 7.5,0 13.646,-6.148 13.646,-13.771 v -25.697 c 0,-7.622 -6.146,-13.77 -13.646,-13.77 z"
   id="path238"
   style="clip-rule:evenodd;fill:#2e937d;fill-rule:evenodd" />
<path
   d="m 579.598,1319.12 h 28.275 c 3.077,0 5.537,2.585 5.537,5.532 v 50.532 c 0,2.95 -2.46,5.409 -5.537,5.409 h -28.275 c -3.071,0 -5.533,-2.459 -5.533,-5.409 v -50.532 c 0,-2.947 2.461,-5.532 5.533,-5.532 z"
   id="path240"
   style="clip-rule:evenodd;fill:#4a1313;fill-rule:evenodd" />
<path
   d="m 892.005,1319.12 h 28.4 c 2.95,0 5.408,2.585 5.408,5.532 v 50.532 c 0,2.95 -2.458,5.409 -5.408,5.409 h -28.4 c -2.95,0 -5.409,-2.459 -5.409,-5.409 v -50.532 c 0,-2.947 2.459,-5.532 5.409,-5.532 z"
   id="path242"
   style="clip-rule:evenodd;fill:#4a1313;fill-rule:evenodd" />
<path
   d="m 962.083,824.26 v 471.379 c 0,28.645 -23.483,52.127 -52.129,52.127 h -320.03 c -28.645,0 -52.005,-23.482 -52.005,-52.127 V 824.26 c 0,-28.646 23.36,-52.006 52.005,-52.006 h 320.03 c 28.646,0 52.129,23.36 52.129,52.006 z"
   id="path244"
   style="clip-rule:evenodd;fill:#5bbda6;fill-rule:evenodd" />
<path
   d="m 906.634,947.207 v 205.69 c 0,60.611 -49.666,110.282 -110.283,110.282 H 703.65 c -60.733,0 -110.283,-49.671 -110.283,-110.282 v -205.69 z"
   id="path246"
   style="clip-rule:evenodd;fill:#2e937d;fill-rule:evenodd" />
<path
   d="m 586.853,772.254 h 326.176 c -5.162,58.647 -54.71,104.998 -114.584,104.998 h -96.883 c -59.875,0 -109.546,-46.351 -114.709,-104.998 z"
   id="path248"
   style="clip-rule:evenodd;fill:#2e937d;fill-rule:evenodd" />
<path
   d="m 582.794,947.207 h 334.417 c 4.053,0 7.374,3.32 7.374,7.377 v 0 c 0,3.932 -3.321,7.253 -7.374,7.253 H 582.794 c -4.058,0 -7.378,-3.321 -7.378,-7.253 v 0 c 0,-4.057 3.32,-7.377 7.378,-7.377 z"
   id="path250"
   style="clip-rule:evenodd;fill:#2e937d;fill-rule:evenodd" />
<path
   d="m 962.083,824.26 v 471.379 c 0,28.645 -23.483,52.127 -52.129,52.127 h -320.03 c -21.636,0 -40.328,-13.524 -48.193,-32.458 6.76,3.198 14.384,5.042 22.377,5.042 h 320.027 c 28.648,0 52.133,-23.36 52.133,-52.007 V 796.842 c 0,-6.882 -1.479,-13.524 -3.937,-19.546 17.583,8.36 29.752,26.311 29.752,46.964 z"
   id="path252"
   style="clip-rule:evenodd;fill:#2e937d;fill-rule:evenodd" />
<path
   d="m 962.083,1216.212 v 0 79.427 c 0,28.645 -23.483,52.127 -52.129,52.127 h -82.129 c 0,-36.146 29.507,-65.775 65.78,-65.775 h 5.409 c 34.914,-1.473 63.069,-30.494 63.069,-65.779 z m -134.258,131.554 z"
   id="path254"
   style="clip-rule:evenodd;fill:#2e937d;fill-rule:evenodd" />
<path
   d="m 537.918,1216.212 v 0 79.427 c 0,28.645 23.36,52.127 52.005,52.127 h 82.251 c 0,-36.146 -29.628,-65.775 -65.775,-65.775 h -5.409 c -35.04,-1.473 -63.072,-30.494 -63.072,-65.779 z m 134.257,131.554 z"
   id="path256"
   style="clip-rule:evenodd;fill:#2e937d;fill-rule:evenodd" />
<path
   d="m 962.083,1216.212 v 0 79.427 c 0,28.645 -23.483,52.127 -52.129,52.127 h -82.129 v 0 c 0,-9.836 2.094,-19.057 5.901,-27.416 h 50.408 c 28.648,0 52.009,-23.36 52.133,-51.884 15.612,-12.049 25.816,-30.984 25.816,-52.254 z"
   id="path258"
   style="clip-rule:evenodd;fill:#336c56;fill-rule:evenodd" />
<path
   d="m 556.115,1335.227 v 0 c 0.736,0.493 1.473,1.106 2.214,1.721 v 0 c 0.737,0.615 1.475,1.107 2.088,1.597 l 0.246,0.124 0.616,0.367 0.246,0.246 0.613,0.369 0.246,0.123 c 0.495,0.246 0.859,0.497 1.354,0.864 l 0.124,0.122 0.614,0.247 0.369,0.244 0.614,0.247 0.368,0.244 c 0.615,0.369 1.352,0.738 1.966,0.983 l 0.495,0.247 0.492,0.244 0.492,0.247 0.737,0.244 0.859,0.369 0.122,0.123 0.987,0.368 h 0.246 l 0.738,0.373 0.492,0.123 0.983,0.244 0.368,0.125 0.738,0.244 0.368,0.123 0.983,0.246 0.127,0.122 c 0.737,0.123 1.597,0.369 2.334,0.492 h 0.246 l 0.859,0.244 h 0.492 l 1.109,0.247 h 0.124 l 1.105,0.122 0.246,0.122 h 0.859 l 0.37,0.125 c 0.859,0 1.6,0.122 2.459,0.122 h 0.246 l 0.861,0.122 h 0.492 1.105 82.251 v 0 c 0,-9.836 -2.088,-19.057 -6.022,-27.416 H 564.108 c -7.993,0 -15.617,-1.844 -22.377,-5.042 1.473,3.567 3.315,6.888 5.531,10.082 2.461,3.567 5.532,6.888 8.853,9.84 z"
   id="path260"
   style="clip-rule:evenodd;fill:#336c56;fill-rule:evenodd" />
</g>
  </g>
</svg>
