<?xml version="1.0" encoding="UTF-8" standalone="no"?>
<svg
   xmlns:dc="http://purl.org/dc/elements/1.1/"
   xmlns:cc="http://creativecommons.org/ns#"
   xmlns:rdf="http://www.w3.org/1999/02/22-rdf-syntax-ns#"
   xmlns:svg="http://www.w3.org/2000/svg"
   xmlns="http://www.w3.org/2000/svg"
   xmlns:xlink="http://www.w3.org/1999/xlink"
   id="svg3640"
   version="1.1"
   viewBox="0 0 90.148094 91.676224"
   height="91.676224mm"
   width="90.148094mm">
  <defs
     id="defs3634">
    <clipPath
       id="SVGID_2_">
      <use
         id="use223"
         overflow="visible"
         xlink:href="#SVGID_1_"
         style="overflow:visible"
         x="0"
         y="0"
         width="100%"
         height="100%" />
    </clipPath>
    <path
       d="m 1230.6,289.1 c -13.3,0 -120.2,0 -120.2,0 0,0 -107,0 -120.2,0 -13.2,0 -22.4,4.2 -22.4,17.5 0,13.3 0,45.9 0,45.9 l 142.6,70.1 142.6,-70.1 c 0,0 0,-32.6 0,-45.9 0,-13.3 -9.1,-17.5 -22.4,-17.5 z"
       id="path5491" />
  </defs>
  <metadata
     id="metadata3637">
    <rdf:RDF>
      <cc:Work
         rdf:about="">
        <dc:format>image/svg+xml</dc:format>
        <dc:type
           rdf:resource="http://purl.org/dc/dcmitype/StillImage" />
        <dc:title></dc:title>
      </cc:Work>
    </rdf:RDF>
  </metadata>
  <g
     transform="translate(-59.24738,-63.885698)"
     id="layer1">
    <g
       transform="matrix(0.31608728,0,0,0.31608728,-246.66189,-2.0708043)"
       id="g250">
      <g
         id="g206">
        <rect
           id="rect202"
           height="31.4"
           width="14.9"
           y="254.10001"
           x="1063"
           style="fill:#d1d3d4" />
        <rect
           id="rect204"
           height="31.4"
           width="14.9"
           y="254.10001"
           x="1142.8"
           style="fill:#d1d3d4" />
      </g>
      <g
         id="g238">
        <path
           id="path208-1"
           d="m 1235.3,295.7 c -11.1,0 -125,0 -125,0 0,0 -113.9,0 -125,0 -11.1,0 -11.6,7.3 -11.6,15.1 0,7.9 0,86.4 0,86.4 0,0 0,78.6 0,86.4 0,7.8 0.4,15.1 11.6,15.1 11.2,0 125,0 125,0 0,0 113.9,0 125,0 11.1,0 11.6,-7.3 11.6,-15.1 0,-7.8 0,-86.4 0,-86.4 0,0 0,-78.6 0,-86.4 0,-7.8 -0.4,-15.1 -11.6,-15.1 z"
           style="fill:#4d3f38" />
        <path
           id="path210-2"
           d="m 973.8,310.8 c 0,4.3 0,29.3 0,51.3 l 136.6,67.1 136.6,-67.1 c 0,-22 0,-47.1 0,-51.3 0,-5.5 -0.2,-10.8 -4.3,-13.4 -3.4,-1.2 -7.4,-1.7 -12,-1.7 -24.4,0 -120.2,0 -120.2,0 0,0 -95.8,0 -120.2,0 -4.6,0 -8.7,0.5 -12,1.7 -4.3,2.6 -4.5,7.9 -4.5,13.4 z"
           style="fill:#41352e" />
        <g
           id="g216">
          <g
             id="g214">
            <path
               id="path212-9"
               d="m 1222.1,491.9 h -1 c -0.3,0 -0.6,-0.3 -0.6,-0.6 0,-0.3 0.3,-0.6 0.6,-0.6 h 1 c 0.9,0 1.7,0 2.5,-0.1 0.3,0 0.6,0.2 0.7,0.5 0,0.3 -0.2,0.6 -0.5,0.7 -0.9,0.1 -1.8,0.1 -2.7,0.1 z m -4.7,0 h -3.6 c -0.3,0 -0.6,-0.3 -0.6,-0.6 0,-0.3 0.3,-0.6 0.6,-0.6 h 3.6 c 0.3,0 0.6,0.3 0.6,0.6 0.1,0.3 -0.2,0.6 -0.6,0.6 z m -7.2,0 h -3.6 c -0.3,0 -0.6,-0.3 -0.6,-0.6 0,-0.3 0.3,-0.6 0.6,-0.6 h 3.6 c 0.3,0 0.6,0.3 0.6,0.6 0,0.3 -0.3,0.6 -0.6,0.6 z m -7.3,0 h -3.6 c -0.3,0 -0.6,-0.3 -0.6,-0.6 0,-0.3 0.3,-0.6 0.6,-0.6 h 3.6 c 0.3,0 0.6,0.3 0.6,0.6 0,0.3 -0.3,0.6 -0.6,0.6 z m -7.3,0 h -3.6 c -0.3,0 -0.6,-0.3 -0.6,-0.6 0,-0.3 0.3,-0.6 0.6,-0.6 h 3.6 c 0.3,0 0.6,0.3 0.6,0.6 0,0.3 -0.2,0.6 -0.6,0.6 z m -7.2,0 h -3.6 c -0.3,0 -0.6,-0.3 -0.6,-0.6 0,-0.3 0.3,-0.6 0.6,-0.6 h 3.6 c 0.3,0 0.6,0.3 0.6,0.6 0,0.3 -0.3,0.6 -0.6,0.6 z m -7.3,0 h -3.6 c -0.3,0 -0.6,-0.3 -0.6,-0.6 0,-0.3 0.3,-0.6 0.6,-0.6 h 3.6 c 0.3,0 0.6,0.3 0.6,0.6 0,0.3 -0.3,0.6 -0.6,0.6 z m -7.3,0 h -3.6 c -0.3,0 -0.6,-0.3 -0.6,-0.6 0,-0.3 0.3,-0.6 0.6,-0.6 h 3.6 c 0.3,0 0.6,0.3 0.6,0.6 0,0.3 -0.2,0.6 -0.6,0.6 z m -7.2,0 h -3.6 c -0.3,0 -0.6,-0.3 -0.6,-0.6 0,-0.3 0.3,-0.6 0.6,-0.6 h 3.6 c 0.3,0 0.6,0.3 0.6,0.6 0,0.3 -0.3,0.6 -0.6,0.6 z m -7.3,0 h -3.6 c -0.3,0 -0.6,-0.3 -0.6,-0.6 0,-0.3 0.3,-0.6 0.6,-0.6 h 3.6 c 0.3,0 0.6,0.3 0.6,0.6 0,0.3 -0.3,0.6 -0.6,0.6 z m -7.3,0 h -3.6 c -0.3,0 -0.6,-0.3 -0.6,-0.6 0,-0.3 0.3,-0.6 0.6,-0.6 h 3.6 c 0.3,0 0.6,0.3 0.6,0.6 0,0.3 -0.2,0.6 -0.6,0.6 z m -7.2,0 h -3.6 c -0.3,0 -0.6,-0.3 -0.6,-0.6 0,-0.3 0.3,-0.6 0.6,-0.6 h 3.6 c 0.3,0 0.6,0.3 0.6,0.6 0,0.3 -0.3,0.6 -0.6,0.6 z m -7.3,0 h -3.6 c -0.3,0 -0.6,-0.3 -0.6,-0.6 0,-0.3 0.3,-0.6 0.6,-0.6 h 3.6 c 0.3,0 0.6,0.3 0.6,0.6 0,0.3 -0.3,0.6 -0.6,0.6 z m -7.3,0 h -3.6 c -0.3,0 -0.6,-0.3 -0.6,-0.6 0,-0.3 0.3,-0.6 0.6,-0.6 h 3.6 c 0.3,0 0.6,0.3 0.6,0.6 0,0.3 -0.2,0.6 -0.6,0.6 z m -7.2,0 h -3.6 c -0.3,0 -0.6,-0.3 -0.6,-0.6 0,-0.3 0.3,-0.6 0.6,-0.6 h 3.6 c 0.3,0 0.6,0.3 0.6,0.6 0,0.3 -0.3,0.6 -0.6,0.6 z m -7.3,0 h -3.6 c -0.3,0 -0.6,-0.3 -0.6,-0.6 0,-0.3 0.3,-0.6 0.6,-0.6 h 3.6 c 0.3,0 0.6,0.3 0.6,0.6 0,0.3 -0.3,0.6 -0.6,0.6 z m -7.4,0 h -3.6 c -0.3,0 -0.6,-0.3 -0.6,-0.6 0,-0.3 0.3,-0.6 0.6,-0.6 h 3.6 c 0.3,0 0.6,0.3 0.6,0.6 0,0.3 -0.2,0.6 -0.6,0.6 z m -7.3,0 h -3.6 c -0.3,0 -0.6,-0.3 -0.6,-0.6 0,-0.3 0.3,-0.6 0.6,-0.6 h 3.6 c 0.3,0 0.6,0.3 0.6,0.6 0.1,0.3 -0.2,0.6 -0.6,0.6 z m -7.2,0 h -3.6 c -0.3,0 -0.6,-0.3 -0.6,-0.6 0,-0.3 0.3,-0.6 0.6,-0.6 h 3.6 c 0.3,0 0.6,0.3 0.6,0.6 0,0.3 -0.3,0.6 -0.6,0.6 z m -7.3,0 h -3.6 c -0.3,0 -0.6,-0.3 -0.6,-0.6 0,-0.3 0.3,-0.6 0.6,-0.6 h 3.6 c 0.3,0 0.6,0.3 0.6,0.6 0,0.3 -0.3,0.6 -0.6,0.6 z m -7.3,0 h -3.6 c -0.3,0 -0.6,-0.3 -0.6,-0.6 0,-0.3 0.3,-0.6 0.6,-0.6 h 3.6 c 0.3,0 0.6,0.3 0.6,0.6 0,0.3 -0.2,0.6 -0.6,0.6 z m -7.2,0 h -3.6 c -0.3,0 -0.6,-0.3 -0.6,-0.6 0,-0.3 0.3,-0.6 0.6,-0.6 h 3.6 c 0.3,0 0.6,0.3 0.6,0.6 0,0.3 -0.3,0.6 -0.6,0.6 z m -7.3,0 h -3.6 c -0.3,0 -0.6,-0.3 -0.6,-0.6 0,-0.3 0.3,-0.6 0.6,-0.6 h 3.6 c 0.3,0 0.6,0.3 0.6,0.6 0,0.3 -0.3,0.6 -0.6,0.6 z m -7.3,0 h -3.6 c -0.3,0 -0.6,-0.3 -0.6,-0.6 0,-0.3 0.3,-0.6 0.6,-0.6 h 3.6 c 0.3,0 0.6,0.3 0.6,0.6 0,0.3 -0.2,0.6 -0.6,0.6 z m -7.2,0 h -3.6 c -0.3,0 -0.6,-0.3 -0.6,-0.6 0,-0.3 0.3,-0.6 0.6,-0.6 h 3.6 c 0.3,0 0.6,0.3 0.6,0.6 0,0.3 -0.3,0.6 -0.6,0.6 z m -7.3,0 h -3.6 c -0.3,0 -0.6,-0.3 -0.6,-0.6 0,-0.3 0.3,-0.6 0.6,-0.6 h 3.6 c 0.3,0 0.6,0.3 0.6,0.6 0,0.3 -0.3,0.6 -0.6,0.6 z m -7.3,0 h -3.6 c -0.3,0 -0.6,-0.3 -0.6,-0.6 0,-0.3 0.3,-0.6 0.6,-0.6 h 3.6 c 0.3,0 0.6,0.3 0.6,0.6 0,0.3 -0.2,0.6 -0.6,0.6 z m -7.2,0 h -3.6 c -0.3,0 -0.6,-0.3 -0.6,-0.6 0,-0.3 0.3,-0.6 0.6,-0.6 h 3.6 c 0.3,0 0.6,0.3 0.6,0.6 0,0.3 -0.3,0.6 -0.6,0.6 z m -7.3,0 h -3.6 c -0.3,0 -0.6,-0.3 -0.6,-0.6 0,-0.3 0.3,-0.6 0.6,-0.6 h 3.6 c 0.3,0 0.6,0.3 0.6,0.6 0,0.3 -0.3,0.6 -0.6,0.6 z m -7.3,0 h -3.6 c -0.3,0 -0.6,-0.3 -0.6,-0.6 0,-0.3 0.3,-0.6 0.6,-0.6 h 3.6 c 0.3,0 0.6,0.3 0.6,0.6 0,0.3 -0.2,0.6 -0.6,0.6 z m -7.2,0 h -3.6 c -0.3,0 -0.6,-0.3 -0.6,-0.6 0,-0.3 0.3,-0.6 0.6,-0.6 h 3.6 c 0.3,0 0.6,0.3 0.6,0.6 0,0.3 -0.3,0.6 -0.6,0.6 z m -7.3,0 h -0.7 c -1,0 -2,-0.1 -3,-0.2 -0.3,0 -0.6,-0.3 -0.5,-0.7 0,-0.3 0.3,-0.6 0.7,-0.5 0.9,0.1 1.8,0.2 2.8,0.2 h 0.7 c 0.3,0 0.6,0.3 0.6,0.6 0,0.3 -0.3,0.6 -0.6,0.6 z m 229,-0.8 c -0.3,0 -0.5,-0.2 -0.6,-0.4 -0.1,-0.3 0.1,-0.7 0.4,-0.7 1.2,-0.3 2.2,-0.8 3.2,-1.4 0.3,-0.2 0.7,-0.1 0.8,0.2 0.2,0.3 0.1,0.7 -0.2,0.8 -1,0.6 -2.2,1.1 -3.5,1.5 0,0 -0.1,0 -0.1,0 z M 992.1,491 c -0.1,0 -0.1,0 -0.2,0 -1.3,-0.4 -2.4,-0.9 -3.4,-1.6 -0.3,-0.2 -0.4,-0.6 -0.2,-0.8 0.2,-0.3 0.6,-0.4 0.8,-0.2 0.9,0.6 2,1.1 3.1,1.4 0.3,0.1 0.5,0.4 0.4,0.8 0,0.3 -0.2,0.4 -0.5,0.4 z m 242.3,-3.6 c -0.1,0 -0.3,-0.1 -0.4,-0.2 -0.2,-0.2 -0.3,-0.6 0,-0.9 0.7,-0.8 1.4,-1.8 1.9,-2.9 0.1,-0.3 0.5,-0.4 0.8,-0.3 0.3,0.1 0.4,0.5 0.3,0.8 -0.6,1.2 -1.3,2.2 -2.1,3.2 -0.2,0.2 -0.3,0.3 -0.5,0.3 z m -248.3,-0.2 c -0.2,0 -0.3,-0.1 -0.5,-0.2 -0.8,-0.9 -1.5,-2 -2,-3.2 -0.1,-0.3 0,-0.7 0.3,-0.8 0.3,-0.1 0.7,0 0.8,0.3 0.5,1.1 1.1,2.1 1.8,2.9 0.2,0.3 0.2,0.6 -0.1,0.9 0,0 -0.2,0.1 -0.3,0.1 z m 251.5,-6.2 c 0,0 -0.1,0 -0.1,0 -0.3,-0.1 -0.5,-0.4 -0.4,-0.7 0.3,-1.1 0.4,-2.2 0.5,-3.5 0,-0.3 0.3,-0.6 0.7,-0.5 0.3,0 0.6,0.3 0.5,0.7 -0.1,1.3 -0.3,2.5 -0.6,3.7 -0.1,0.1 -0.4,0.3 -0.6,0.3 z M 983,480.7 c -0.3,0 -0.5,-0.2 -0.6,-0.5 -0.3,-1.1 -0.4,-2.4 -0.5,-3.7 0,-0.3 0.2,-0.6 0.6,-0.6 0.3,0 0.6,0.2 0.6,0.6 0.1,1.2 0.3,2.4 0.5,3.5 0.1,0.3 -0.1,0.6 -0.5,0.7 0,0 0,0 -0.1,0 z m 255.2,-6.9 c -0.3,0 -0.6,-0.3 -0.6,-0.6 v -3.7 c 0,-0.3 0.3,-0.6 0.6,-0.6 0.3,0 0.6,0.3 0.6,0.6 v 3.7 c 0,0.3 -0.2,0.6 -0.6,0.6 z m -255.8,-0.4 c -0.3,0 -0.6,-0.3 -0.6,-0.6 v -3.7 c 0,-0.3 0.3,-0.6 0.6,-0.6 0.3,0 0.6,0.3 0.6,0.6 v 3.7 c 0,0.4 -0.2,0.6 -0.6,0.6 z m 255.8,-6.9 c -0.3,0 -0.6,-0.3 -0.6,-0.6 v -3.6 c 0,-0.3 0.3,-0.6 0.6,-0.6 0.3,0 0.6,0.3 0.6,0.6 v 3.6 c 0,0.3 -0.2,0.6 -0.6,0.6 z m -255.8,-0.4 c -0.3,0 -0.6,-0.3 -0.6,-0.6 v -3.6 c 0,-0.3 0.3,-0.6 0.6,-0.6 0.3,0 0.6,0.3 0.6,0.6 v 3.6 c 0,0.4 -0.2,0.6 -0.6,0.6 z m 255.8,-6.9 c -0.3,0 -0.6,-0.3 -0.6,-0.6 V 455 c 0,-0.3 0.3,-0.6 0.6,-0.6 0.3,0 0.6,0.3 0.6,0.6 v 3.6 c 0,0.3 -0.2,0.6 -0.6,0.6 z m -255.8,-0.3 c -0.3,0 -0.6,-0.3 -0.6,-0.6 v -3.6 c 0,-0.3 0.3,-0.6 0.6,-0.6 0.3,0 0.6,0.3 0.6,0.6 v 3.6 c 0,0.3 -0.2,0.6 -0.6,0.6 z m 255.8,-7 c -0.3,0 -0.6,-0.3 -0.6,-0.6 v -3.6 c 0,-0.3 0.3,-0.6 0.6,-0.6 0.3,0 0.6,0.3 0.6,0.6 v 3.6 c 0,0.4 -0.2,0.6 -0.6,0.6 z m -255.8,-0.3 c -0.3,0 -0.6,-0.3 -0.6,-0.6 v -3.6 c 0,-0.3 0.3,-0.6 0.6,-0.6 0.3,0 0.6,0.3 0.6,0.6 v 3.6 c 0,0.3 -0.2,0.6 -0.6,0.6 z m 255.8,-6.9 c -0.3,0 -0.6,-0.3 -0.6,-0.6 v -3.6 c 0,-0.3 0.3,-0.6 0.6,-0.6 0.3,0 0.6,0.3 0.6,0.6 v 3.6 c 0,0.3 -0.2,0.6 -0.6,0.6 z m -255.8,-0.4 c -0.3,0 -0.6,-0.3 -0.6,-0.6 v -3.6 c 0,-0.3 0.3,-0.6 0.6,-0.6 0.3,0 0.6,0.3 0.6,0.6 v 3.6 c 0,0.4 -0.2,0.6 -0.6,0.6 z m 255.8,-6.9 c -0.3,0 -0.6,-0.3 -0.6,-0.6 v -3.6 c 0,-0.3 0.3,-0.6 0.6,-0.6 0.3,0 0.6,0.3 0.6,0.6 v 3.6 c 0,0.3 -0.2,0.6 -0.6,0.6 z m -255.8,-0.3 c -0.3,0 -0.6,-0.3 -0.6,-0.6 v -3.6 c 0,-0.3 0.3,-0.6 0.6,-0.6 0.3,0 0.6,0.3 0.6,0.6 v 3.6 c 0,0.3 -0.2,0.6 -0.6,0.6 z m 255.8,-7 c -0.3,0 -0.6,-0.3 -0.6,-0.6 v -3.6 c 0,-0.3 0.3,-0.6 0.6,-0.6 0.3,0 0.6,0.3 0.6,0.6 v 3.6 c 0,0.4 -0.2,0.6 -0.6,0.6 z m -255.8,-0.3 c -0.3,0 -0.6,-0.3 -0.6,-0.6 v -3.6 c 0,-0.3 0.3,-0.6 0.6,-0.6 0.3,0 0.6,0.3 0.6,0.6 v 3.6 c 0,0.3 -0.2,0.6 -0.6,0.6 z m 255.8,-6.9 c -0.3,0 -0.6,-0.3 -0.6,-0.6 v -3.6 c 0,-0.3 0.3,-0.6 0.6,-0.6 0.3,0 0.6,0.3 0.6,0.6 v 3.6 c 0,0.3 -0.2,0.6 -0.6,0.6 z m -255.8,-0.4 c -0.3,0 -0.6,-0.3 -0.6,-0.6 v -3.6 c 0,-0.3 0.3,-0.6 0.6,-0.6 0.3,0 0.6,0.3 0.6,0.6 v 3.6 c 0,0.4 -0.2,0.6 -0.6,0.6 z m 255.8,-6.9 c -0.3,0 -0.6,-0.3 -0.6,-0.6 v -3.6 c 0,-0.3 0.3,-0.6 0.6,-0.6 0.3,0 0.6,0.3 0.6,0.6 v 3.6 c 0,0.3 -0.2,0.6 -0.6,0.6 z m -255.8,-0.3 c -0.3,0 -0.6,-0.3 -0.6,-0.6 V 411 c 0,-0.3 0.3,-0.6 0.6,-0.6 0.3,0 0.6,0.3 0.6,0.6 v 3.6 c 0,0.4 -0.2,0.7 -0.6,0.7 z m 255.8,-7 c -0.3,0 -0.6,-0.3 -0.6,-0.6 v -3.6 c 0,-0.3 0.3,-0.6 0.6,-0.6 0.3,0 0.6,0.3 0.6,0.6 v 3.6 c 0,0.4 -0.2,0.6 -0.6,0.6 z M 982.4,408 c -0.3,0 -0.6,-0.3 -0.6,-0.6 v -3.6 c 0,-0.3 0.3,-0.6 0.6,-0.6 0.3,0 0.6,0.3 0.6,0.6 v 3.6 c 0,0.3 -0.2,0.6 -0.6,0.6 z m 255.8,-6.9 c -0.3,0 -0.6,-0.3 -0.6,-0.6 v -3.6 c 0,-0.3 0.3,-0.6 0.6,-0.6 0.3,0 0.6,0.3 0.6,0.6 v 3.6 c 0,0.3 -0.2,0.6 -0.6,0.6 z m -255.8,-0.4 c -0.3,0 -0.6,-0.3 -0.6,-0.6 v -3.6 c 0,-0.3 0.3,-0.6 0.6,-0.6 0.3,0 0.6,0.3 0.6,0.6 v 3.6 c 0,0.4 -0.2,0.6 -0.6,0.6 z m 255.8,-6.9 c -0.3,0 -0.6,-0.3 -0.6,-0.6 v -3.6 c 0,-0.3 0.3,-0.6 0.6,-0.6 0.3,0 0.6,0.3 0.6,0.6 v 3.6 c 0,0.3 -0.2,0.6 -0.6,0.6 z m -255.8,-0.3 c -0.3,0 -0.6,-0.3 -0.6,-0.6 v -3.6 c 0,-0.3 0.3,-0.6 0.6,-0.6 0.3,0 0.6,0.3 0.6,0.6 v 3.6 c 0,0.3 -0.2,0.6 -0.6,0.6 z m 255.8,-7 c -0.3,0 -0.6,-0.3 -0.6,-0.6 v -3.6 c 0,-0.3 0.3,-0.6 0.6,-0.6 0.3,0 0.6,0.3 0.6,0.6 v 3.6 c 0,0.4 -0.2,0.6 -0.6,0.6 z m -255.8,-0.3 c -0.3,0 -0.6,-0.3 -0.6,-0.6 V 382 c 0,-0.3 0.3,-0.6 0.6,-0.6 0.3,0 0.6,0.3 0.6,0.6 v 3.6 c 0,0.3 -0.2,0.6 -0.6,0.6 z m 255.8,-6.9 c -0.3,0 -0.6,-0.3 -0.6,-0.6 V 375 c 0,-0.3 0.3,-0.6 0.6,-0.6 0.3,0 0.6,0.3 0.6,0.6 v 3.6 c 0,0.4 -0.2,0.7 -0.6,0.7 z m -255.8,-0.4 c -0.3,0 -0.6,-0.3 -0.6,-0.6 v -3.6 c 0,-0.3 0.3,-0.6 0.6,-0.6 0.3,0 0.6,0.3 0.6,0.6 v 3.6 c 0,0.4 -0.2,0.6 -0.6,0.6 z m 255.8,-6.9 c -0.3,0 -0.6,-0.3 -0.6,-0.6 v -3.6 c 0,-0.3 0.3,-0.6 0.6,-0.6 0.3,0 0.6,0.3 0.6,0.6 v 3.6 c 0,0.3 -0.2,0.6 -0.6,0.6 z m -255.8,-0.3 c -0.3,0 -0.6,-0.3 -0.6,-0.6 v -3.6 c 0,-0.3 0.3,-0.6 0.6,-0.6 0.3,0 0.6,0.3 0.6,0.6 v 3.6 c 0,0.3 -0.2,0.6 -0.6,0.6 z m 255.8,-7 c -0.3,0 -0.6,-0.3 -0.6,-0.6 v -3.6 c 0,-0.3 0.3,-0.6 0.6,-0.6 0.3,0 0.6,0.3 0.6,0.6 v 3.6 c 0,0.4 -0.2,0.6 -0.6,0.6 z m -255.8,-0.3 c -0.3,0 -0.6,-0.3 -0.6,-0.6 v -3.6 c 0,-0.3 0.3,-0.6 0.6,-0.6 0.3,0 0.6,0.3 0.6,0.6 v 3.6 c 0,0.3 -0.2,0.6 -0.6,0.6 z m 255.8,-6.9 c -0.3,0 -0.6,-0.3 -0.6,-0.6 v -3.6 c 0,-0.3 0.3,-0.6 0.6,-0.6 0.3,0 0.6,0.3 0.6,0.6 v 3.6 c 0,0.3 -0.2,0.6 -0.6,0.6 z m -255.8,-0.4 c -0.3,0 -0.6,-0.3 -0.6,-0.6 v -3.6 c 0,-0.3 0.3,-0.6 0.6,-0.6 0.3,0 0.6,0.3 0.6,0.6 v 3.6 c 0,0.4 -0.2,0.6 -0.6,0.6 z m 255.8,-6.9 c -0.3,0 -0.6,-0.3 -0.6,-0.6 V 346 c 0,-0.3 0.3,-0.6 0.6,-0.6 0.3,0 0.6,0.3 0.6,0.6 v 3.6 c 0,0.3 -0.2,0.6 -0.6,0.6 z m -255.8,-0.3 c -0.3,0 -0.6,-0.3 -0.6,-0.6 v -3.6 c 0,-0.3 0.3,-0.6 0.6,-0.6 0.3,0 0.6,0.3 0.6,0.6 v 3.6 c 0,0.3 -0.2,0.6 -0.6,0.6 z m 255.8,-7 c -0.3,0 -0.6,-0.3 -0.6,-0.6 v -3.7 c 0,-0.3 0.3,-0.6 0.6,-0.6 0.3,0 0.6,0.3 0.6,0.6 v 3.7 c 0,0.3 -0.2,0.6 -0.6,0.6 z m -255.8,-0.3 c -0.3,0 -0.6,-0.3 -0.6,-0.6 v -3.3 c 0,-0.3 0.3,-0.6 0.6,-0.6 0.3,0 0.6,0.3 0.6,0.6 v 3.3 c 0,0.3 -0.2,0.6 -0.6,0.6 z"
               style="fill:#9b8579" />
          </g>
        </g>
        <path
           id="path218"
           d="m 1230.6,289.1 c -13.3,0 -120.2,0 -120.2,0 0,0 -107,0 -120.2,0 -13.2,0 -22.4,4.2 -22.4,17.5 0,13.3 0,45.9 0,45.9 l 142.6,70.1 142.6,-70.1 c 0,0 0,-32.6 0,-45.9 0,-13.3 -9.1,-17.5 -22.4,-17.5 z"
           style="fill:#594a42" />
        <g
           id="g232">
          <defs
             id="defs221">
            <path
               d="m 1230.6,289.1 c -13.3,0 -120.2,0 -120.2,0 0,0 -107,0 -120.2,0 -13.2,0 -22.4,4.2 -22.4,17.5 0,13.3 0,45.9 0,45.9 l 142.6,70.1 142.6,-70.1 c 0,0 0,-32.6 0,-45.9 0,-13.3 -9.1,-17.5 -22.4,-17.5 z"
               id="path4229" />
          </defs>
          <clipPath
             id="clipPath1687">
            <use
               id="use1685"
               overflow="visible"
               xlink:href="#SVGID_1_"
               style="overflow:visible"
               x="0"
               y="0"
               width="100%"
               height="100%" />
          </clipPath>
          <g
             id="g230"
             clip-path="url(#SVGID_2_)">
            <g
               id="g228">
              <path
                 id="path226-3"
                 d="m 1110.3,412 c -0.1,0 -0.2,0 -0.3,-0.1 l -2.7,-1.3 c -0.3,-0.1 -0.4,-0.5 -0.3,-0.8 0.1,-0.3 0.5,-0.4 0.8,-0.3 l 2.4,1.2 0.3,-0.2 c 0.3,-0.1 0.7,0 0.8,0.3 0.1,0.3 0,0.7 -0.3,0.8 l -0.6,0.3 c 0.1,0.1 0,0.1 -0.1,0.1 z m 3.9,-1.8 c -0.2,0 -0.4,-0.1 -0.5,-0.3 -0.1,-0.3 0,-0.7 0.3,-0.8 l 3.3,-1.6 c 0.3,-0.1 0.7,0 0.8,0.3 0.1,0.3 0,0.7 -0.3,0.8 l -3.3,1.6 c -0.1,0 -0.2,0 -0.3,0 z m -9.8,-1 c -0.1,0 -0.2,0 -0.3,-0.1 l -3.3,-1.6 c -0.3,-0.1 -0.4,-0.5 -0.3,-0.8 0.1,-0.3 0.5,-0.4 0.8,-0.3 l 3.3,1.6 c 0.3,0.1 0.4,0.5 0.3,0.8 -0.1,0.2 -0.3,0.4 -0.5,0.4 z m 16.3,-2.2 c -0.2,0 -0.4,-0.1 -0.5,-0.3 -0.1,-0.3 0,-0.7 0.3,-0.8 l 3.3,-1.6 c 0.3,-0.1 0.7,0 0.8,0.3 0.1,0.3 0,0.7 -0.3,0.8 l -3.3,1.6 c -0.1,0 -0.2,0 -0.3,0 z m -22.8,-1 c -0.1,0 -0.2,0 -0.3,-0.1 l -3.3,-1.6 c -0.3,-0.1 -0.4,-0.5 -0.3,-0.8 0.1,-0.3 0.5,-0.4 0.8,-0.3 l 3.3,1.6 c 0.3,0.1 0.4,0.5 0.3,0.8 -0.1,0.3 -0.3,0.4 -0.5,0.4 z m 29.3,-2.2 c -0.2,0 -0.4,-0.1 -0.5,-0.3 -0.1,-0.3 0,-0.7 0.3,-0.8 l 3.3,-1.6 c 0.3,-0.1 0.7,0 0.8,0.3 0.1,0.3 0,0.7 -0.3,0.8 l -3.3,1.6 c -0.1,0 -0.2,0 -0.3,0 z m -35.8,-1 c -0.1,0 -0.2,0 -0.3,-0.1 l -3.3,-1.6 c -0.3,-0.1 -0.4,-0.5 -0.3,-0.8 0.1,-0.3 0.5,-0.4 0.8,-0.3 l 3.3,1.6 c 0.3,0.1 0.4,0.5 0.3,0.8 -0.1,0.3 -0.3,0.4 -0.5,0.4 z m 42.4,-2.1 c -0.2,0 -0.4,-0.1 -0.5,-0.3 -0.1,-0.3 0,-0.7 0.3,-0.8 l 3.3,-1.6 c 0.3,-0.1 0.7,0 0.8,0.3 0.1,0.3 0,0.7 -0.3,0.8 l -3.3,1.6 c -0.2,0 -0.2,0 -0.3,0 z m -49,-1 c -0.1,0 -0.2,0 -0.3,-0.1 l -3.3,-1.6 c -0.3,-0.1 -0.4,-0.5 -0.3,-0.8 0.1,-0.3 0.5,-0.4 0.8,-0.3 l 3.3,1.6 c 0.3,0.1 0.4,0.5 0.3,0.8 0,0.3 -0.2,0.4 -0.5,0.4 z m 55.5,-2.2 c -0.2,0 -0.4,-0.1 -0.5,-0.3 -0.1,-0.3 0,-0.7 0.3,-0.8 l 3.3,-1.6 c 0.3,-0.1 0.7,0 0.8,0.3 0.1,0.3 0,0.7 -0.3,0.8 l -3.3,1.6 c -0.1,0 -0.2,0 -0.3,0 z m -62,-1 c -0.1,0 -0.2,0 -0.3,-0.1 l -3.3,-1.6 c -0.3,-0.1 -0.4,-0.5 -0.3,-0.8 0.1,-0.3 0.5,-0.4 0.8,-0.3 l 3.3,1.6 c 0.3,0.1 0.4,0.5 0.3,0.8 -0.1,0.3 -0.3,0.4 -0.5,0.4 z m 68.5,-2.1 c -0.2,0 -0.4,-0.1 -0.5,-0.3 -0.1,-0.3 0,-0.7 0.3,-0.8 l 3.3,-1.6 c 0.3,-0.1 0.7,0 0.8,0.3 0.1,0.3 0,0.7 -0.3,0.8 l -3.3,1.6 c -0.1,-0.1 -0.2,0 -0.3,0 z m -75,-1 c -0.1,0 -0.2,0 -0.3,-0.1 l -3.3,-1.6 c -0.3,-0.1 -0.4,-0.5 -0.3,-0.8 0.1,-0.3 0.5,-0.4 0.8,-0.3 l 3.3,1.6 c 0.3,0.1 0.4,0.5 0.3,0.8 -0.1,0.2 -0.3,0.4 -0.5,0.4 z m 81.5,-2.2 c -0.2,0 -0.4,-0.1 -0.5,-0.3 -0.1,-0.3 0,-0.7 0.3,-0.8 l 3.3,-1.6 c 0.3,-0.1 0.7,0 0.8,0.3 0.1,0.3 0,0.7 -0.3,0.8 l -3.3,1.6 c -0.1,0 -0.2,0 -0.3,0 z m -88,-1 c -0.1,0 -0.2,0 -0.3,-0.1 l -3.3,-1.6 c -0.3,-0.1 -0.4,-0.5 -0.3,-0.8 0.1,-0.3 0.5,-0.4 0.8,-0.3 l 3.3,1.6 c 0.3,0.1 0.4,0.5 0.3,0.8 -0.1,0.3 -0.3,0.4 -0.5,0.4 z m 94.6,-2.2 c -0.2,0 -0.4,-0.1 -0.5,-0.3 -0.1,-0.3 0,-0.7 0.3,-0.8 l 3.3,-1.6 c 0.3,-0.1 0.7,0 0.8,0.3 0.1,0.3 0,0.7 -0.3,0.8 l -3.3,1.6 c -0.2,0 -0.2,0 -0.3,0 z m -101.2,-1 c -0.1,0 -0.2,0 -0.3,-0.1 l -3.3,-1.6 c -0.3,-0.1 -0.4,-0.5 -0.3,-0.8 0.1,-0.3 0.5,-0.4 0.8,-0.3 l 3.3,1.6 c 0.3,0.1 0.4,0.5 0.3,0.8 0,0.3 -0.3,0.4 -0.5,0.4 z m 107.7,-2.1 c -0.2,0 -0.4,-0.1 -0.5,-0.3 -0.1,-0.3 0,-0.7 0.3,-0.8 l 3.3,-1.6 c 0.3,-0.1 0.7,0 0.8,0.3 0.1,0.3 0,0.7 -0.3,0.8 l -3.3,1.6 c -0.1,0 -0.2,0 -0.3,0 z m -114.2,-1 c -0.1,0 -0.2,0 -0.3,-0.1 l -3.3,-1.6 c -0.3,-0.1 -0.4,-0.5 -0.3,-0.8 0.1,-0.3 0.5,-0.4 0.8,-0.3 l 3.3,1.6 c 0.3,0.1 0.4,0.5 0.3,0.8 -0.1,0.2 -0.3,0.4 -0.5,0.4 z m 120.7,-2.2 c -0.2,0 -0.4,-0.1 -0.5,-0.3 -0.1,-0.3 0,-0.7 0.3,-0.8 l 3.3,-1.6 c 0.3,-0.1 0.7,0 0.8,0.3 0.1,0.3 0,0.7 -0.3,0.8 l -3.3,1.6 c -0.1,0 -0.2,0 -0.3,0 z m -127.2,-1 c -0.1,0 -0.2,0 -0.3,-0.1 l -3.3,-1.6 c -0.3,-0.1 -0.4,-0.5 -0.3,-0.8 0.1,-0.3 0.5,-0.4 0.8,-0.3 l 3.3,1.6 c 0.3,0.1 0.4,0.5 0.3,0.8 -0.1,0.3 -0.3,0.4 -0.5,0.4 z m 133.7,-2.1 c -0.2,0 -0.4,-0.1 -0.5,-0.3 -0.1,-0.3 0,-0.7 0.3,-0.8 l 3.3,-1.6 c 0.3,-0.1 0.7,0 0.8,0.3 0.1,0.3 0,0.7 -0.3,0.8 l -3.3,1.6 c -0.1,-0.1 -0.2,0 -0.3,0 z m -140.3,-1.1 c -0.1,0 -0.2,0 -0.3,-0.1 l -3.3,-1.6 c -0.3,-0.1 -0.4,-0.5 -0.3,-0.8 0.1,-0.3 0.5,-0.4 0.8,-0.3 l 3.3,1.6 c 0.3,0.1 0.4,0.5 0.3,0.8 0,0.3 -0.2,0.4 -0.5,0.4 z m 146.9,-2.1 c -0.2,0 -0.4,-0.1 -0.5,-0.3 -0.1,-0.3 0,-0.7 0.3,-0.8 l 3.3,-1.6 c 0.3,-0.1 0.7,0 0.8,0.3 0.1,0.3 0,0.7 -0.3,0.8 l -3.3,1.6 c -0.1,0 -0.2,0 -0.3,0 z m -153.4,-1 c -0.1,0 -0.2,0 -0.3,-0.1 l -3.3,-1.6 c -0.3,-0.1 -0.4,-0.5 -0.3,-0.8 0.1,-0.3 0.5,-0.4 0.8,-0.3 l 3.3,1.6 c 0.3,0.1 0.4,0.5 0.3,0.8 0,0.3 -0.3,0.4 -0.5,0.4 z m 159.9,-2.2 c -0.2,0 -0.4,-0.1 -0.5,-0.3 -0.1,-0.3 0,-0.7 0.3,-0.8 l 3.3,-1.6 c 0.3,-0.1 0.7,0 0.8,0.3 0.1,0.3 0,0.7 -0.3,0.8 l -3.3,1.6 c -0.1,0 -0.2,0 -0.3,0 z m -166.4,-1 c -0.1,0 -0.2,0 -0.3,-0.1 l -3.3,-1.6 c -0.3,-0.1 -0.4,-0.5 -0.3,-0.8 0.1,-0.3 0.5,-0.4 0.8,-0.3 l 3.3,1.6 c 0.3,0.1 0.4,0.5 0.3,0.8 -0.1,0.3 -0.3,0.4 -0.5,0.4 z m 172.9,-2.1 c -0.2,0 -0.4,-0.1 -0.5,-0.3 -0.1,-0.3 0,-0.7 0.3,-0.8 l 3.3,-1.6 c 0.3,-0.1 0.7,0 0.8,0.3 0.1,0.3 0,0.7 -0.3,0.8 l -3.3,1.6 c -0.1,0 -0.2,0 -0.3,0 z m -179.4,-1 c -0.1,0 -0.2,0 -0.3,-0.1 l -3.3,-1.6 c -0.3,-0.1 -0.4,-0.5 -0.3,-0.8 0.1,-0.3 0.5,-0.4 0.8,-0.3 l 3.3,1.6 c 0.3,0.1 0.4,0.5 0.3,0.8 -0.1,0.2 -0.3,0.4 -0.5,0.4 z m 185.9,-2.2 c -0.2,0 -0.4,-0.1 -0.5,-0.3 -0.1,-0.3 0,-0.7 0.3,-0.8 l 3.3,-1.6 c 0.3,-0.1 0.7,0 0.8,0.3 0.1,0.3 0,0.7 -0.3,0.8 l -3.3,1.6 c -0.1,0 -0.2,0 -0.3,0 z m -192.5,-1 c -0.1,0 -0.2,0 -0.3,-0.1 l -3.3,-1.6 c -0.3,-0.1 -0.4,-0.5 -0.3,-0.8 0.1,-0.3 0.5,-0.4 0.8,-0.3 l 3.3,1.6 c 0.3,0.1 0.4,0.5 0.3,0.8 0,0.3 -0.2,0.4 -0.5,0.4 z m 199.1,-2.2 c -0.2,0 -0.4,-0.1 -0.5,-0.3 -0.1,-0.3 0,-0.7 0.3,-0.8 l 3.3,-1.6 c 0.3,-0.1 0.7,0 0.8,0.3 0.1,0.3 0,0.7 -0.3,0.8 l -3.3,1.6 c -0.1,0 -0.2,0 -0.3,0 z m -205.6,-1 c -0.1,0 -0.2,0 -0.3,-0.1 l -3.3,-1.6 c -0.3,-0.1 -0.4,-0.5 -0.3,-0.8 0.1,-0.3 0.5,-0.4 0.8,-0.3 l 3.3,1.6 c 0.3,0.1 0.4,0.5 0.3,0.8 0,0.3 -0.3,0.4 -0.5,0.4 z m 212.1,-2.1 c -0.2,0 -0.4,-0.1 -0.5,-0.3 -0.1,-0.3 0,-0.7 0.3,-0.8 l 3.3,-1.6 c 0.3,-0.1 0.7,0 0.8,0.3 0.1,0.3 0,0.7 -0.3,0.8 l -3.3,1.6 c -0.1,0 -0.2,0 -0.3,0 z m -218.6,-1 c -0.1,0 -0.2,0 -0.3,-0.1 l -3.3,-1.6 c -0.3,-0.1 -0.4,-0.5 -0.3,-0.8 0.1,-0.3 0.5,-0.4 0.8,-0.3 l 3.3,1.6 c 0.3,0.1 0.4,0.5 0.3,0.8 -0.1,0.2 -0.3,0.4 -0.5,0.4 z m 225.1,-2.2 c -0.2,0 -0.4,-0.1 -0.5,-0.3 -0.1,-0.3 0,-0.7 0.3,-0.8 l 3.3,-1.6 c 0.3,-0.1 0.7,0 0.8,0.3 0.1,0.3 0,0.7 -0.3,0.8 l -3.3,1.6 c -0.1,0 -0.2,0 -0.3,0 z m -231.6,-1 c -0.1,0 -0.2,0 -0.3,-0.1 l -3.3,-1.6 c -0.3,-0.1 -0.4,-0.5 -0.3,-0.8 0.1,-0.3 0.5,-0.4 0.8,-0.3 l 3.3,1.6 c 0.3,0.1 0.4,0.5 0.3,0.8 -0.1,0.3 -0.3,0.4 -0.5,0.4 z m 238.2,-2.1 c -0.2,0 -0.4,-0.1 -0.5,-0.3 -0.1,-0.3 0,-0.7 0.3,-0.8 l 3.3,-1.6 c 0.3,-0.1 0.7,0 0.8,0.3 0.1,0.3 0,0.7 -0.3,0.8 l -3.3,1.6 c -0.2,-0.1 -0.3,0 -0.3,0 z m -244.8,-1 c -0.1,0 -0.2,0 -0.3,-0.1 l -3.3,-1.6 c -0.3,-0.1 -0.4,-0.5 -0.3,-0.8 0.1,-0.3 0.5,-0.4 0.8,-0.3 l 3.3,1.6 c 0.3,0.1 0.4,0.5 0.3,0.8 0,0.2 -0.2,0.4 -0.5,0.4 z m 251.3,-2.2 c -0.2,0 -0.4,-0.1 -0.5,-0.3 -0.1,-0.3 0,-0.7 0.3,-0.8 l 3.3,-1.6 c 0.3,-0.1 0.7,0 0.8,0.3 0.1,0.3 0,0.7 -0.3,0.8 l -3.3,1.6 c -0.1,0 -0.2,0 -0.3,0 z m -257.8,-1 c -0.1,0 -0.2,0 -0.3,-0.1 l -3.3,-1.6 c -0.3,-0.1 -0.4,-0.5 -0.3,-0.8 0.1,-0.3 0.5,-0.4 0.8,-0.3 l 3.3,1.6 c 0.3,0.1 0.4,0.5 0.3,0.8 0,0.3 -0.3,0.4 -0.5,0.4 z m 264.3,-2.2 c -0.2,0 -0.4,-0.1 -0.5,-0.3 -0.1,-0.3 0,-0.7 0.3,-0.8 l 1.9,-0.9 v -0.8 c 0,-0.3 0.3,-0.6 0.6,-0.6 0.3,0 0.6,0.3 0.6,0.6 v 1.2 c 0,0.2 -0.1,0.4 -0.3,0.5 l -2.2,1.1 c -0.2,0 -0.3,0 -0.4,0 z m -270.8,-1 c -0.1,0 -0.2,0 -0.3,-0.1 l -0.1,-0.1 c -0.2,-0.1 -0.3,-0.3 -0.3,-0.5 v -3.5 c 0,-0.3 0.3,-0.6 0.6,-0.6 0.3,0 0.6,0.3 0.6,0.6 v 3.2 c 0.1,0.2 0.2,0.4 0.1,0.6 -0.2,0.3 -0.4,0.4 -0.6,0.4 z m 273,-4.9 c -0.3,0 -0.6,-0.3 -0.6,-0.6 v -3.6 c 0,-0.3 0.3,-0.6 0.6,-0.6 0.3,0 0.6,0.3 0.6,0.6 v 3.6 c 0,0.4 -0.3,0.6 -0.6,0.6 z m -273.1,-2.3 c -0.3,0 -0.6,-0.3 -0.6,-0.6 v -3.6 c 0,-0.3 0.3,-0.6 0.6,-0.6 0.3,0 0.6,0.3 0.6,0.6 v 3.6 c 0,0.3 -0.3,0.6 -0.6,0.6 z m 273.1,-4.9 c -0.3,0 -0.6,-0.3 -0.6,-0.6 v -3.6 c 0,-0.3 0.3,-0.6 0.6,-0.6 0.3,0 0.6,0.3 0.6,0.6 v 3.6 c 0,0.3 -0.3,0.6 -0.6,0.6 z m -273.1,-2.3 c -0.3,0 -0.6,-0.3 -0.6,-0.6 v -3.6 c 0,-0.3 0.3,-0.6 0.6,-0.6 0.3,0 0.6,0.3 0.6,0.6 v 3.6 c 0,0.3 -0.3,0.6 -0.6,0.6 z m 273.1,-5 c -0.3,0 -0.6,-0.3 -0.6,-0.6 v -3.6 c 0,-0.3 0.3,-0.6 0.6,-0.6 0.3,0 0.6,0.3 0.6,0.6 v 3.6 c 0,0.3 -0.3,0.6 -0.6,0.6 z m -273.1,-2.3 c -0.3,0 -0.6,-0.3 -0.6,-0.6 V 320 c 0,-0.3 0.3,-0.6 0.6,-0.6 0.3,0 0.6,0.3 0.6,0.6 v 3.6 c 0,0.3 -0.3,0.6 -0.6,0.6 z m 273.1,-4.9 c -0.3,0 -0.6,-0.3 -0.6,-0.6 V 315 c 0,-0.3 0.3,-0.6 0.6,-0.6 0.3,0 0.6,0.3 0.6,0.6 v 3.6 c 0,0.4 -0.3,0.7 -0.6,0.7 z m -273.1,-2.4 c -0.3,0 -0.6,-0.3 -0.6,-0.6 v -3.6 c 0,-0.3 0.3,-0.6 0.6,-0.6 0.3,0 0.6,0.3 0.6,0.6 v 3.6 c 0,0.4 -0.3,0.6 -0.6,0.6 z m 273.1,-4.9 c -0.3,0 -0.6,-0.3 -0.6,-0.6 v -3.6 c 0,-0.3 0.3,-0.6 0.6,-0.6 0.3,0 0.6,0.3 0.6,0.6 v 3.6 c 0,0.3 -0.3,0.6 -0.6,0.6 z m -273.1,-2.3 c -0.3,0 -0.6,-0.3 -0.6,-0.6 v -3.6 c 0,-0.3 0.3,-0.6 0.6,-0.6 0.3,0 0.6,0.3 0.6,0.6 v 3.6 c 0,0.3 -0.3,0.6 -0.6,0.6 z m 273,-5 c -0.3,0 -0.6,-0.2 -0.6,-0.5 -0.1,-1.2 -0.4,-2.3 -0.8,-3.4 -0.1,-0.3 0,-0.7 0.3,-0.8 0.3,-0.1 0.7,0 0.8,0.3 0.5,1.2 0.7,2.4 0.9,3.7 0.1,0.4 -0.2,0.7 -0.6,0.7 0.1,0 0.1,0 0,0 z m -272.5,-2.2 c -0.1,0 -0.1,0 -0.2,0 -0.3,-0.1 -0.5,-0.4 -0.4,-0.7 0.3,-1.2 0.8,-2.4 1.5,-3.5 0.2,-0.3 0.5,-0.4 0.8,-0.2 0.3,0.2 0.4,0.5 0.2,0.8 -0.6,1 -1.1,2.1 -1.4,3.2 0,0.2 -0.3,0.4 -0.5,0.4 z m 270,-4.5 c -0.2,0 -0.4,-0.1 -0.5,-0.3 -0.6,-0.9 -1.4,-1.8 -2.3,-2.6 -0.2,-0.2 -0.3,-0.6 0,-0.9 0.2,-0.2 0.6,-0.3 0.9,0 0.9,0.9 1.8,1.8 2.5,2.8 0.2,0.3 0.1,0.6 -0.1,0.8 -0.3,0.2 -0.4,0.2 -0.5,0.2 z m -266.4,-1.8 c -0.1,0 -0.3,-0.1 -0.4,-0.2 -0.2,-0.2 -0.3,-0.6 0,-0.9 0.8,-0.9 1.7,-1.7 2.8,-2.5 0.3,-0.2 0.6,-0.2 0.8,0.1 0.2,0.3 0.2,0.6 -0.1,0.8 -1,0.8 -1.9,1.6 -2.6,2.4 -0.2,0.3 -0.4,0.3 -0.5,0.3 z m 261.2,-3.2 c -0.1,0 -0.2,0 -0.3,-0.1 -0.9,-0.6 -1.9,-1.3 -3,-1.9 -0.3,-0.2 -0.4,-0.5 -0.2,-0.8 0.2,-0.3 0.5,-0.4 0.8,-0.2 1.1,0.6 2.2,1.3 3.1,1.9 0.3,0.2 0.3,0.6 0.1,0.8 -0.1,0.3 -0.3,0.3 -0.5,0.3 z m -255.6,-1.2 c -0.2,0 -0.4,-0.1 -0.5,-0.3 -0.2,-0.3 -0.1,-0.7 0.2,-0.8 1,-0.6 2.1,-1.2 3.3,-1.7 0.3,-0.1 0.7,0 0.8,0.3 0.1,0.3 0,0.7 -0.3,0.8 -1.1,0.5 -2.2,1.1 -3.2,1.7 0,0 -0.1,0 -0.3,0 z m 249.2,-2.3 c -0.1,0 -0.2,0 -0.2,-0.1 -1.3,-0.6 -2.5,-1 -3.3,-1.4 -0.3,-0.1 -0.5,-0.5 -0.4,-0.8 0.1,-0.3 0.5,-0.5 0.8,-0.4 0.9,0.3 2.1,0.8 3.4,1.4 0.3,0.1 0.4,0.5 0.3,0.8 -0.1,0.4 -0.3,0.5 -0.6,0.5 z m -242.6,-0.9 c -0.2,0 -0.5,-0.1 -0.6,-0.4 -0.1,-0.3 0,-0.7 0.3,-0.8 0.4,-0.2 0.9,-0.3 1.2,-0.5 0.3,-0.1 0.7,0 0.8,0.4 0.1,0.4 0,0.7 -0.4,0.8 -0.4,0.1 -0.8,0.3 -1.2,0.5 0,0 0,0 -0.1,0 z"
                 style="fill:#9b8579" />
            </g>
          </g>
        </g>
        <path
           id="path234-1"
           d="m 1119.5,398.4 h -18.4 c -2.8,0 -5,-2.3 -5,-5 v -14.8 c 0,-2.8 2.3,-5 5,-5 h 18.4 c 2.8,0 5,2.3 5,5 v 14.8 c 0,2.8 -2.2,5 -5,5 z"
           style="fill:#7e8083" />
        <path
           id="path236-9"
           d="m 1119.5,395.7 h -18.4 c -2.8,0 -5,-2.3 -5,-5 v -14.8 c 0,-2.8 2.3,-5 5,-5 h 18.4 c 2.8,0 5,2.3 5,5 v 14.8 c 0,2.8 -2.2,5 -5,5 z"
           style="fill:#a7a9ac" />
      </g>
      <g
         id="g244">
        <path
           id="path240-4"
           d="m 1055.1,289.1 v -3.9 c 0,-1.8 1.4,-3.2 3.2,-3.2 h 22.4 c 1.8,0 3.2,1.4 3.2,3.2 v 3.9 z"
           style="fill:#9b8579" />
        <path
           id="path242-7"
           d="m 1136.9,289.1 v -3.9 c 0,-1.8 1.4,-3.2 3.2,-3.2 h 22.4 c 1.8,0 3.2,1.4 3.2,3.2 v 3.9 z"
           style="fill:#9b8579" />
      </g>
      <path
         id="path246-8"
         d="m 1146.2,207.4 c -9.7,0 -35.9,0 -35.9,0 0,0 -26.2,0 -35.9,0 -9.7,0 -15.1,8.1 -15.1,16.7 v 31.2 c 0,2.1 1.7,3.8 3.8,3.8 h 14.9 c 2.1,0 3.8,-1.7 3.8,-3.8 v -18.9 c 0,-5 2.8,-9.1 11.1,-9.1 8.3,0 17.3,0 17.3,0 0,0 9.1,0 17.3,0 8.2,0 11.1,4 11.1,9.1 v 18.9 c 0,2.1 1.7,3.8 3.8,3.8 h 14.9 c 2.1,0 3.8,-1.7 3.8,-3.8 v -31.2 c 0.2,-8.7 -5.2,-16.7 -14.9,-16.7 z"
         style="fill:#594a42" />
      <path
         id="path248-4"
         d="m 1146.6,243.2 c 0,-8.5 2.6,-22 -17.3,-22 h -19 v 0 h -19 c -19.9,0 -17.3,13.5 -17.3,22 0,6 0,12.6 0,15.9 h 4 c 2.1,0 3.8,-1.7 3.8,-3.8 v -18.9 c 0,-5 2.8,-9.1 11.1,-9.1 8.3,0 17.3,0 17.3,0 0,0 9.1,0 17.3,0 8.2,0 11.1,4 11.1,9.1 v 18.9 c 0,2.1 1.7,3.8 3.8,3.8 h 4 c 0.2,-3.3 0.2,-9.9 0.2,-15.9 z"
         style="fill:#493c35" />
    </g>
  </g>
</svg>
