<?xml version="1.0" encoding="UTF-8"?>
<!DOCTYPE svg PUBLIC "-//W3C//DTD SVG 1.1//EN" "http://www.w3.org/Graphics/SVG/1.1/DTD/svg11.dtd">
<svg version="1.1" xmlns="http://www.w3.org/2000/svg" xmlns:xlink="http://www.w3.org/1999/xlink" x="0" y="0" width="341.546" height="297.9" viewBox="0, 0, 341.546, 297.9">
  <g id="Background">
    <rect x="0" y="0" width="341.546" height="297.9" fill="#FFFFFF"/>
  </g>
  <g id="Layer_1">
    <g>
      <path d="M119.259,7.746 L222.286,7.746 C229.787,7.746 236.671,10.819 241.589,15.736 L241.711,15.736 C246.628,20.654 249.703,27.538 249.703,35.04 L249.703,96.882 C249.703,104.382 246.628,111.267 241.711,116.184 C236.671,121.225 229.909,124.3 222.286,124.3 L119.259,124.3 C111.758,124.3 104.871,121.225 99.953,116.184 L99.707,115.938 C94.912,111.02 91.964,104.258 91.964,96.882 L91.964,35.04 C91.964,27.538 95.035,20.776 99.953,15.736 L99.953,15.736 C104.993,10.82 111.758,7.746 119.259,7.746 L119.259,7.746 z M222.286,16.968 L119.259,16.968 C114.336,16.968 109.788,18.935 106.471,22.254 C103.15,25.572 101.181,30.121 101.181,35.041 L101.181,96.883 C101.181,101.801 103.15,106.227 106.225,109.546 L106.471,109.668 C109.788,112.988 114.336,115.079 119.259,115.079 L222.286,115.079 C227.326,115.079 231.876,112.989 235.196,109.668 C238.389,106.473 240.481,101.923 240.481,96.883 L240.481,35.041 C240.481,30.121 238.389,25.572 235.196,22.254 C231.876,18.935 227.326,16.968 222.286,16.968 L222.286,16.968 z" fill="#A4393A"/>
      <path d="M129.831,24.59 C123.066,24.59 117.535,19.058 117.535,12.295 C117.535,5.534 123.066,-0 129.831,-0 L211.836,-0 C218.596,-0 224.129,5.534 224.129,12.295 C224.129,19.058 218.596,24.59 211.836,24.59 L129.831,24.59 z" fill="#771F20"/>
      <path d="M15.244,46.229 L326.423,46.229 C334.785,46.229 341.545,52.989 341.545,61.35 L341.545,282.776 C341.545,291.138 334.785,297.9 326.423,297.9 L15.244,297.9 C6.882,297.9 -0,291.138 -0,282.776 L-0,61.35 C-0,52.989 6.882,46.229 15.244,46.229 L15.244,46.229 z" fill="#CF6E28"/>
      <path d="M214.416,7.746 C213.187,12.541 209.008,16.351 203.968,16.967 C203.476,16.967 202.985,16.967 202.493,16.967 L120.487,16.967 C119.996,16.967 119.504,16.967 119.013,16.967 C118.763,16.967 118.518,16.844 118.394,16.844 L118.394,16.967 C120.242,21.393 124.668,24.589 129.831,24.589 L211.836,24.589 C216.999,24.589 221.425,21.393 223.269,16.967 C223.76,15.49 224.129,14.017 224.129,12.294 C224.129,10.696 223.76,9.097 223.269,7.746 C221.672,3.811 218.105,0.983 213.925,0.247 C214.416,1.598 214.784,3.074 214.784,4.673 C214.784,5.779 214.662,6.761 214.416,7.746 L214.416,7.746 z" fill="#4A1313"/>
      <path d="M327.528,46.229 C335.398,46.843 341.545,53.359 341.545,61.35 L341.545,282.776 C341.545,291.138 334.785,297.9 326.423,297.9 L15.244,297.9 C6.882,297.9 -0,291.138 -0,282.776 L-0,281.057 C0.368,281.057 0.738,281.179 1.105,281.179 L312.284,281.179 C320.64,281.179 327.528,274.294 327.528,265.933 L327.528,46.229 z" fill="#AD5C27"/>
      <path d="M327.528,46.229 L327.897,46.229 L328.143,46.352 L328.265,46.352 L328.51,46.352 L328.634,46.352 L328.878,46.352 L329.001,46.475 L329.248,46.475 L329.369,46.475 L329.615,46.598 L329.739,46.598 L329.985,46.598 L329.985,46.598 C330.234,46.721 330.479,46.721 330.725,46.844 L330.725,46.844 L330.971,46.967 L331.217,46.967 L331.338,47.089 L331.462,47.089 C332.567,47.458 333.551,47.949 334.532,48.564 L334.532,48.564 C334.783,48.688 334.901,48.811 335.146,48.934 L335.146,48.934 L335.396,49.181 L335.396,49.181 L335.642,49.427 L335.642,49.427 L335.887,49.55 L336.01,49.672 C336.255,49.796 336.501,50.041 336.746,50.286 L336.746,50.286 L336.992,50.532 L336.992,50.532 L337.238,50.779 L337.238,50.779 L337.483,51.026 L337.483,51.026 C337.606,51.272 337.851,51.394 337.974,51.517 L337.974,51.64 L338.097,51.763 L338.22,51.886 L338.342,52.132 L338.466,52.132 L338.588,52.378 C338.712,52.501 338.834,52.624 338.958,52.746 L339.079,53.115 L339.325,53.486 C339.447,53.732 339.693,53.977 339.82,54.346 L339.944,54.469 C340.066,54.715 340.066,54.836 340.19,55.082 L340.19,55.082 L340.311,55.331 L340.311,55.454 L340.435,55.7 L340.557,55.822 L340.557,56.068 L340.679,56.068 L340.679,56.315 L340.803,56.561 L340.803,56.561 L340.925,56.93 L340.925,56.93 L340.925,57.176 L341.048,57.421 L341.048,57.545 L341.17,57.667 L341.17,57.915 L341.17,58.038 L341.294,58.284 L341.294,58.406 L341.294,58.652 L341.416,58.775 L341.416,59.021 L341.416,59.144 L341.416,59.39 L341.416,59.513 L341.54,59.761 L341.54,59.884 L341.54,60.007 L341.54,60.253 L341.54,60.377 C341.54,60.744 341.54,61.113 341.54,61.358 L341.54,84.104 C340.065,84.35 338.587,84.472 337.114,84.472 C333.793,84.472 330.593,83.981 327.523,82.999 L327.523,46.229 z" fill="#CF6E28"/>
      <path d="M37.989,297.9 L15.244,297.9 C6.882,297.9 0,291.138 0,282.776 L0,281.057 C0.368,281.057 0.738,281.179 1.105,281.179 L36.019,281.179 C37.497,284.992 38.359,289.17 38.359,293.474 C38.359,295.072 38.235,296.546 37.989,297.9 L37.989,297.9 z" fill="#CF6E28"/>
      <path d="M341.545,260.033 L341.545,282.776 C341.545,291.138 334.785,297.9 326.423,297.9 L303.555,297.9 C303.432,296.546 303.309,295.073 303.309,293.474 C303.309,289.17 304.169,284.992 305.643,281.179 L312.285,281.179 C320.641,281.179 327.529,274.294 327.529,265.933 L327.529,261.138 C330.599,260.156 333.799,259.662 337.12,259.662 C338.592,259.663 340.07,259.785 341.545,260.033 L341.545,260.033 z" fill="#CF6E28"/>
      <path d="M15.244,46.229 L37.989,46.229 C38.235,47.703 38.359,49.18 38.359,50.655 C38.359,69.344 23.236,84.464 4.55,84.464 C2.948,84.464 1.474,84.342 0,84.096 L0,61.35 C0,52.989 6.882,46.229 15.244,46.229 L15.244,46.229 z" fill="#771F20"/>
      <path d="M326.423,46.229 L303.555,46.229 C303.432,47.703 303.309,49.18 303.309,50.655 C303.309,69.344 318.43,84.464 337.12,84.464 C338.593,84.464 340.071,84.342 341.546,84.096 L341.546,61.35 C341.545,52.989 334.785,46.229 326.423,46.229 L326.423,46.229 z" fill="#771F20"/>
      <path d="M15.244,297.9 L37.989,297.9 C38.235,296.546 38.359,295.073 38.359,293.474 C38.359,274.91 23.236,259.663 4.55,259.663 C2.948,259.663 1.474,259.786 0,260.033 L0,282.776 C0,291.138 6.882,297.9 15.244,297.9 L15.244,297.9 z" fill="#771F20"/>
      <path d="M326.423,297.9 L303.555,297.9 C303.432,296.546 303.309,295.073 303.309,293.474 C303.309,274.91 318.43,259.663 337.12,259.663 C338.593,259.663 340.071,259.786 341.546,260.033 L341.546,282.776 C341.545,291.138 334.785,297.9 326.423,297.9 L326.423,297.9 z" fill="#771F20"/>
      <path d="M327.528,82.991 C330.598,83.973 333.798,84.464 337.119,84.464 C338.592,84.464 340.07,84.342 341.545,84.096 L341.545,61.35 C341.545,61.104 341.545,60.736 341.545,60.369 L341.545,60.245 L341.545,59.999 L341.545,59.876 L341.545,59.753 L341.421,59.505 L341.421,59.382 L341.421,59.136 L341.421,59.013 L341.421,58.767 L341.299,58.644 L341.299,58.398 L341.299,58.276 L341.175,58.03 L341.175,57.907 L341.175,57.659 L341.053,57.537 L341.053,57.413 L340.93,57.168 L340.93,56.922 L340.93,56.922 L340.808,56.553 L340.808,56.553 L340.684,56.307 L340.684,56.06 L340.562,56.06 L340.562,55.814 L340.44,55.692 L340.316,55.446 L340.316,55.323 L340.195,55.074 L340.195,55.074 C340.071,54.828 340.071,54.706 339.949,54.461 L339.825,54.338 C339.698,53.969 339.452,53.723 339.33,53.478 L339.084,53.107 L338.963,52.738 L338.593,52.37 L338.471,52.124 L338.347,52.124 L338.225,51.878 L338.102,51.755 L337.979,51.632 L337.979,51.509 C337.856,51.386 337.611,51.263 337.488,51.018 L337.488,51.018 L337.243,50.771 L337.243,50.771 L336.997,50.524 L336.997,50.524 L336.751,50.278 L336.751,50.278 C336.506,50.032 336.26,49.788 336.015,49.664 L335.892,49.542 L335.647,49.419 L335.647,49.419 L335.401,49.173 L335.401,49.173 L335.151,48.926 L335.151,48.926 C334.906,48.803 334.788,48.68 334.537,48.556 L334.537,48.556 C333.556,47.941 332.572,47.45 331.467,47.081 L331.343,47.081 L331.222,46.959 L330.976,46.959 L330.73,46.836 L330.73,46.836 C330.484,46.713 330.239,46.713 329.99,46.59 L329.99,46.59 L329.744,46.59 L329.62,46.59 L329.374,46.467 L329.253,46.467 L329.006,46.467 L328.883,46.344 L328.639,46.344 L328.515,46.344 L328.27,46.344 L328.148,46.344 L327.902,46.221 L327.533,46.221 L327.533,82.991 z" fill="#4A1313"/>
      <path d="M15.244,297.9 L37.989,297.9 C38.235,296.546 38.359,295.073 38.359,293.474 C38.359,289.17 37.497,284.992 36.019,281.179 L1.105,281.179 C0.737,281.179 0.368,281.057 0,281.057 L0,282.776 C0,291.138 6.882,297.9 15.244,297.9 L15.244,297.9 z" fill="#4A1313"/>
      <path d="M326.423,297.9 L303.555,297.9 C303.432,296.546 303.309,295.073 303.309,293.474 C303.309,289.17 304.169,284.992 305.643,281.179 L312.285,281.179 C320.641,281.179 327.529,274.294 327.529,265.933 L327.529,261.138 C330.599,260.156 333.799,259.662 337.12,259.662 C338.593,259.662 340.071,259.785 341.546,260.032 L341.546,282.775 C341.545,291.138 334.785,297.9 326.423,297.9 L326.423,297.9 z" fill="#4A1313"/>
      <path d="M48.686,46.229 L84.464,46.229 L84.464,297.899 L48.686,297.899 z" fill="#771F20"/>
      <path d="M66.512,64.425 C69.092,64.425 71.184,62.332 71.184,59.876 C71.184,57.293 69.092,55.205 66.512,55.205 C63.932,55.205 61.963,57.293 61.963,59.876 C61.963,62.332 63.933,64.425 66.512,64.425 L66.512,64.425 z" fill="#CF6E28"/>
      <path d="M66.512,101.923 C69.092,101.923 71.184,99.833 71.184,97.252 C71.184,94.67 69.092,92.703 66.512,92.703 C63.932,92.703 61.963,94.67 61.963,97.252 C61.963,99.833 63.933,101.923 66.512,101.923 L66.512,101.923 z" fill="#CF6E28"/>
      <path d="M66.512,139.298 C69.092,139.298 71.184,137.208 71.184,134.626 C71.184,132.168 69.092,130.078 66.512,130.078 C63.932,130.078 61.963,132.168 61.963,134.626 C61.963,137.208 63.933,139.298 66.512,139.298 L66.512,139.298 z" fill="#CF6E28"/>
      <path d="M66.512,176.674 C69.092,176.674 71.184,174.587 71.184,172.125 C71.184,169.543 69.092,167.454 66.512,167.454 C63.932,167.454 61.963,169.544 61.963,172.125 C61.963,174.586 63.933,176.674 66.512,176.674 L66.512,176.674 z" fill="#CF6E28"/>
      <path d="M66.512,214.051 C69.092,214.051 71.184,211.961 71.184,209.502 C71.184,206.92 69.092,204.831 66.512,204.831 C63.932,204.831 61.963,206.921 61.963,209.502 C61.963,211.961 63.933,214.051 66.512,214.051 L66.512,214.051 z" fill="#CF6E28"/>
      <path d="M66.512,251.549 C69.092,251.549 71.184,249.459 71.184,246.878 C71.184,244.296 69.092,242.328 66.512,242.328 C63.932,242.328 61.963,244.296 61.963,246.878 C61.963,249.459 63.933,251.549 66.512,251.549 L66.512,251.549 z" fill="#CF6E28"/>
      <path d="M66.512,288.924 C69.092,288.924 71.184,286.834 71.184,284.252 C71.184,281.794 69.092,279.703 66.512,279.703 C63.932,279.703 61.963,281.794 61.963,284.252 C61.963,286.834 63.933,288.924 66.512,288.924 L66.512,288.924 z" fill="#CF6E28"/>
      <path d="M51.76,46.229 L53.97,46.229 L53.97,297.899 L51.76,297.899 z" fill="#4A1313"/>
      <path d="M79.176,46.229 L81.264,46.229 L81.264,297.899 L79.176,297.899 z" fill="#4A1313"/>
      <path d="M48.686,281.179 L84.464,281.179 L84.464,297.9 L48.686,297.9 z" fill="#5D1313"/>
      <path d="M69.833,281.179 C70.692,281.917 71.184,283.023 71.184,284.252 C71.184,286.834 69.092,288.924 66.512,288.924 C63.932,288.924 61.963,286.834 61.963,284.252 C61.963,283.023 62.332,281.917 63.192,281.179 L69.833,281.179 z" fill="#803119"/>
      <path d="M51.76,281.179 L53.97,281.179 L53.97,297.9 L51.76,297.9 z" fill="#4A1313"/>
      <path d="M79.176,281.179 L81.264,281.179 L81.264,297.9 L79.176,297.9 z" fill="#4A1313"/>
      <path d="M257.204,46.229 L292.978,46.229 L292.978,297.899 L257.204,297.899 z" fill="#771F20"/>
      <path d="M275.154,64.425 C277.612,64.425 279.704,62.332 279.704,59.876 C279.704,57.293 277.612,55.205 275.154,55.205 C272.571,55.205 270.479,57.293 270.479,59.876 C270.48,62.332 272.571,64.425 275.154,64.425 L275.154,64.425 z" fill="#CF6E28"/>
      <path d="M275.154,101.923 C277.612,101.923 279.704,99.833 279.704,97.252 C279.704,94.67 277.612,92.703 275.154,92.703 C272.571,92.703 270.479,94.67 270.479,97.252 C270.48,99.833 272.571,101.923 275.154,101.923 L275.154,101.923 z" fill="#CF6E28"/>
      <path d="M275.154,139.298 C277.612,139.298 279.704,137.208 279.704,134.626 C279.704,132.168 277.612,130.078 275.154,130.078 C272.571,130.078 270.479,132.168 270.479,134.626 C270.48,137.208 272.571,139.298 275.154,139.298 L275.154,139.298 z" fill="#CF6E28"/>
      <path d="M275.154,176.674 C277.612,176.674 279.704,174.587 279.704,172.125 C279.704,169.543 277.612,167.454 275.154,167.454 C272.571,167.454 270.479,169.544 270.479,172.125 C270.48,174.586 272.571,176.674 275.154,176.674 L275.154,176.674 z" fill="#CF6E28"/>
      <path d="M275.154,214.051 C277.612,214.051 279.704,211.961 279.704,209.502 C279.704,206.92 277.612,204.831 275.154,204.831 C272.571,204.831 270.479,206.921 270.479,209.502 C270.48,211.961 272.571,214.051 275.154,214.051 L275.154,214.051 z" fill="#CF6E28"/>
      <path d="M275.154,251.549 C277.612,251.549 279.704,249.459 279.704,246.878 C279.704,244.296 277.612,242.328 275.154,242.328 C272.571,242.328 270.479,244.296 270.479,246.878 C270.48,249.459 272.571,251.549 275.154,251.549 L275.154,251.549 z" fill="#CF6E28"/>
      <path d="M275.154,288.924 C277.612,288.924 279.704,286.834 279.704,284.252 C279.704,281.794 277.612,279.703 275.154,279.703 C272.571,279.703 270.479,281.794 270.479,284.252 C270.48,286.834 272.571,288.924 275.154,288.924 L275.154,288.924 z" fill="#CF6E28"/>
      <path d="M260.276,46.229 L262.491,46.229 L262.491,297.899 L260.276,297.899 z" fill="#4A1313"/>
      <path d="M287.694,46.229 L289.908,46.229 L289.908,297.899 L287.694,297.899 z" fill="#4A1313"/>
      <path d="M257.204,281.179 L292.978,281.179 L292.978,297.9 L257.204,297.9 z" fill="#5D1313"/>
      <path d="M278.472,281.179 C279.209,281.917 279.704,283.023 279.704,284.252 C279.704,286.834 277.612,288.924 275.154,288.924 C272.571,288.924 270.479,286.834 270.479,284.252 C270.479,283.023 270.969,281.917 271.712,281.179 L278.472,281.179 z" fill="#803119"/>
      <path d="M260.276,281.179 L262.491,281.179 L262.491,297.9 L260.276,297.9 z" fill="#4A1313"/>
      <path d="M287.694,281.179 L289.908,281.179 L289.908,297.9 L287.694,297.9 z" fill="#4A1313"/>
    </g>
  </g>
</svg>
