<?xml version="1.0" encoding="UTF-8" standalone="no"?>
<svg
   xmlns:dc="http://purl.org/dc/elements/1.1/"
   xmlns:cc="http://creativecommons.org/ns#"
   xmlns:rdf="http://www.w3.org/1999/02/22-rdf-syntax-ns#"
   xmlns:svg="http://www.w3.org/2000/svg"
   xmlns="http://www.w3.org/2000/svg"
   id="svg8567"
   version="1.1"
   viewBox="0 0 71.344772 69.92984"
   height="69.92984mm"
   width="71.344772mm">
  <defs
     id="defs8561">
    <clipPath
       id="Clip_2">
      <path
         id="path5"
         d="m 285.565,277.842 c -0.004,-0.023 -0.009,-0.046 -0.013,-0.07 -0.154,-0.758 -0.306,-1.516 -0.46,-2.275 -0.066,-0.33 -0.133,-0.661 -0.14,-0.997 -0.008,-0.408 0.071,-0.812 0.152,-1.211 0.09,-0.447 0.182,-0.893 0.275,-1.339 0.041,-0.195 0.085,-0.396 0.2,-0.559 0.047,0.908 0.095,1.816 0.143,2.725 0.01,0.188 0.02,0.378 0.047,0.565 0.032,0.223 0.087,0.442 0.143,0.659 0.14,0.54 0.302,1.356 0.796,1.842 z" />
    </clipPath>
  </defs>
  <metadata
     id="metadata8564">
    <rdf:RDF>
      <cc:Work
         rdf:about="">
        <dc:format>image/svg+xml</dc:format>
        <dc:type
           rdf:resource="http://purl.org/dc/dcmitype/StillImage" />
        <dc:title></dc:title>
      </cc:Work>
    </rdf:RDF>
  </metadata>
  <g
     transform="translate(-30.205687,-71.106459)"
     id="layer1">
    <path
       d="M 68.075946,129.29455 54.984218,121.73878 V 96.423956 l 13.091728,7.554434 v 25.31616"
       id="path2692"
       style="fill:#c4bdb4;stroke-width:1.30812621" />
    <path
       d="m 75.664387,124.94108 -0.996795,0.57559 -0.0013,-44.259135 0.996795,-0.575592 0.0013,44.259137"
       id="path2694"
       style="fill:#ffffff;stroke-width:1.30812621" />
    <path
       d="m 57.085064,115.36559 17.582528,10.15108 V 81.257535 L 57.085064,71.106459 v 44.259131"
       id="path2696"
       style="fill:#c4bdb4;stroke-width:1.30812621" />
    <path
       d="m 57.085064,115.36559 17.582528,10.15108 V 81.257535 L 57.085064,71.106459 v 44.259131"
       id="path2698"
       style="fill:#c4bdb4;stroke-width:1.30812621" />
    <path
       d="m 54.984218,116.57957 13.091728,7.55705 -21.68089,12.51876 -13.091728,-7.55834 -2.100847,1.21259 17.581218,10.15107 25.883893,-14.94403 -17.582528,-10.15108 -2.100846,1.21398"
       id="path2700"
       style="fill:#ffffff;stroke-width:1.30812621" />
    <path
       d="m 48.783699,140.4607 -0.996795,0.5756 V 96.775827 l 0.996795,-0.575592 V 140.4607"
       id="path2706"
       style="fill:#ffffff;stroke-width:1.30812621" />
    <path
       d="m 59.129667,110.99516 c 0.303469,-0.22743 0.575577,-0.21705 0.898684,-0.10976 0.293037,0.0979 0.460444,0.40146 0.5638,0.69202 0.05626,0.15821 0.104667,0.32582 0.218431,0.44744 0.141302,0.14932 0.427763,0.25364 0.464399,0.45536 0.03807,0.20913 -0.15564,0.32581 -0.342725,0.23781 -0.387222,-0.18294 -0.444771,-0.33225 -0.540257,-0.39899 -0.139967,-0.0979 -0.358447,-0.085 -0.503625,-0.17799 -0.166122,-0.1058 -0.325718,-0.33373 -0.380647,-0.52328 l -0.378075,-0.62266"
       id="path2708"
       style="fill:#ffc78f;stroke-width:1.30812621" />
    <path
       d="m 59.456699,113.57608 c 0.0262,0.30999 0.217145,0.53114 0.405515,0.43557 0.05231,0.18689 0.375455,0.33472 0.49447,0.0915 0.147828,0.14239 0.383266,-0.16217 0.391127,-0.37526 0.01187,-0.32681 0.02225,-0.34905 0.02472,-0.44596 0.0079,-0.22743 -0.05231,-0.46425 -0.08766,-0.61742 -0.04969,-0.21606 -0.124245,-0.40541 -0.24854,-0.58864 -0.321811,-0.47216 -0.570341,-0.98764 -1.102747,-1.19692 -0.219765,0.10333 -0.435624,0.24078 -0.559879,0.67887 -0.09028,0.32187 0.01434,0.56512 0.163501,0.86339 0.149114,0.29813 0.18575,0.40937 0.194896,0.74172 0.01187,0.44991 0.27603,0.53238 0.324432,0.41332"
       id="path2710"
       style="fill:#ffc78f;stroke-width:1.30812621" />
    <path
       d="m 58.954379,106.07528 c 0.162216,0.63314 -0.219765,1.27805 -0.852897,1.44027 -0.634441,0.16217 -1.27804,-0.22001 -1.441556,-0.85291 l -1.127605,-4.40707 c -0.162216,-0.63314 0.219765,-1.27805 0.854206,-1.44026 0.633132,-0.16217 1.27804,0.21951 1.440246,0.8529 l 1.127606,4.40707"
       id="path2712"
       style="fill:#0879a5;stroke-width:1.30812621" />
    <path
       d="m 59.922394,110.21162 c 0.163501,0.41481 0.223671,0.6763 0.181844,0.86333 -0.05102,0.22892 -1.148539,0.56383 -1.296353,0.37032 -0.12558,-0.16365 -0.210618,-0.41481 -0.308709,-0.69722 l -1.798674,-3.9532 c -0.213239,-0.61871 0.113814,-1.29239 0.731243,-1.50696 0.617434,-0.21458 1.292427,0.11371 1.505651,0.73128 l 0.985023,4.19254"
       id="path2714"
       style="fill:#0879a5;stroke-width:1.30812621" />
    <path
       d="m 51.859102,129.74585 c -0.357112,0.20666 -0.357112,0.54024 0,0.74696 l 2.024979,1.16942 c 0.357113,0.20518 0.93531,0.20518 1.292427,0 0.357113,-0.20666 0.357113,-0.54024 0,-0.7469 l -2.023669,-1.16948 c -0.357112,-0.20518 -0.93662,-0.20518 -1.293737,0"
       id="path2716"
       style="fill:#55371f;stroke-width:1.30812621" />
    <path
       d="m 53.771583,128.5607 -1.492574,-0.1414 c -0.320476,0.43063 -0.601736,0.9157 -0.688075,1.66918 l 3.848512,1.25837 c 0.09681,-0.52585 -0.512788,-1.27538 -1.24534,-1.79995 -0.299563,-0.21457 -0.151734,-0.69593 -0.422523,-0.98635"
       id="path2718"
       style="fill:#55371f;stroke-width:1.30812621" />
    <path
       d="m 56.225627,127.22772 c -0.355827,0.20667 -0.355827,0.54024 0,0.74691 l 2.024979,1.16947 c 0.357112,0.20518 0.93662,0.20518 1.293737,0 0.357113,-0.20666 0.357113,-0.54024 0,-0.74695 l -2.024979,-1.16943 c -0.357112,-0.20518 -0.93662,-0.20518 -1.293737,0"
       id="path2720"
       style="fill:#55371f;stroke-width:1.30812621" />
    <path
       d="m 58.138108,126.04252 -1.492574,-0.13992 c -0.320477,0.42915 -0.600426,0.91442 -0.686765,1.6679 l 3.847201,1.25842 c 0.09681,-0.52591 -0.512787,-1.27543 -1.245339,-1.8 -0.298228,-0.21457 -0.150449,-0.69593 -0.422523,-0.98635"
       id="path2722"
       style="fill:#55371f;stroke-width:1.30812621" />
    <path
       d="m 54.794537,110.88268 0.499705,3.7229 0.525865,3.89432 0.0929,0.67107 3.156511,-0.42124 -1.012492,-7.43276 -0.117719,-0.86863 -0.132106,0.0148 -3.012613,0.42124"
       id="path2724"
       style="fill:#035373;stroke-width:1.30812621" />
    <path
       d="m 58.369645,125.61609 c 0.612203,0.35301 0.612203,0.92613 0,1.27934 -0.612203,0.35301 -1.603762,0.35301 -2.215965,0 -0.612203,-0.35301 -0.612203,-0.92613 0,-1.27934 0.612203,-0.353 1.603762,-0.353 2.215965,0"
       id="path2726"
       style="fill:#035373;stroke-width:1.30812621" />
    <path
       d="m 55.694527,126.25576 c -0.137348,-2.32452 0.0929,-6.81663 0.223671,-7.08479 0.147828,-0.30456 0.349251,-1.31207 0.622669,-1.51221 0.383267,-0.2828 0.835894,-0.54419 1.309435,-0.47858 0.570342,0.0786 1.08836,1.00335 1.216555,1.56451 0.128201,0.5612 -0.153069,7.1816 -0.238058,7.51127 -0.08504,0.32977 -0.578188,-0.11371 -0.899989,0 h -2.234283"
       id="path2728"
       style="fill:#035373;stroke-width:1.30812621" />
    <path
       d="m 52.267237,112.52175 h 3.177439 v 8.3707 h -3.177439 z"
       id="path2730"
       style="fill:#035373;stroke-width:1.30812621" />
    <path
       d="m 54.098616,128.07277 c 0.612203,0.35301 0.612203,0.92613 0,1.27933 -0.612203,0.35301 -1.603767,0.35301 -2.21597,0 -0.612203,-0.35301 -0.612203,-0.92618 0,-1.27933 0.612203,-0.35301 1.603767,-0.35301 2.21597,0"
       id="path2732"
       style="fill:#035373;stroke-width:1.30812621" />
    <path
       d="m 51.423497,128.71244 c 0.07589,-2.32719 0.689381,-7.56492 0.84374,-7.81999 0.173983,-0.29022 0.464399,-0.62923 0.753481,-0.80317 0.408135,-0.2472 0.882986,-0.46573 1.348676,-0.35844 0.55988,0.13101 0.99941,0.58993 1.075282,1.16161 0.07589,0.5703 -0.771793,7.49946 -0.886912,7.81994 -0.115098,0.32037 -0.107287,0.30505 -0.43691,0.39009 l -2.697352,-0.39009"
       id="path2734"
       style="fill:#035373;stroke-width:1.30812621" />
    <path
       d="m 52.307789,113.76316 c 0.434289,0.24968 0.961474,0.29022 1.448097,0.19776 0.486648,-0.0915 0.947082,-0.30208 1.381381,-0.52585 0.736473,-0.36883 1.433705,-0.80322 2.090385,-1.27676 0.316571,-0.22348 0.631826,-0.47217 0.816271,-0.81494 l 0.01335,-0.0247 -0.117719,-0.86858 -0.132106,0.0148 c -0.710314,0.61871 -1.433705,1.21002 -2.27614,1.64431 -0.171363,0.093 -0.354492,0.18442 -0.538946,0.24968 -0.788802,0.34262 -1.657401,0.50098 -2.486749,0.35597 -0.06541,0.35449 -0.130821,0.69722 -0.197517,1.05171"
       id="path2736"
       style="fill:#55371f;stroke-width:1.30812621" />
    <path
       d="m 51.140942,103.33739 0.202757,7.67477 c 0,1.1721 0.841125,2.0564 1.853612,2.2644 0.519329,0.10877 1.085749,0.0346 1.607688,-0.26154 l 1.229642,-0.70508 0.12558,-0.0707 0.596506,-0.34263 0.153069,-0.0875 c 0.715545,-0.41085 1.156385,-1.17338 1.156385,-1.99751 l -0.03411,-0.55592 -0.298228,-4.52222 -0.01434,-0.24077 -0.06408,-0.98892 c 0,-0.27489 -0.03016,-0.53243 -0.08504,-0.77707 v -0.003 c -0.230247,-1.02031 -0.907835,-1.78037 -1.765968,-2.06811 -0.688075,-0.23435 -1.495185,-0.16217 -2.277445,0.31939 -1.054349,0.6501 -1.868004,1.44674 -2.386022,2.36243"
       id="path2738"
       style="fill:#0879a5;stroke-width:1.30812621" />
    <g
       transform="matrix(1.3081263,0,0,1.3081263,-320.48597,-250.80641)"
       clip-path="url(#Clip_2)"
       id="g2742">
      <path
         d="m 284.944,271.391 h 1.764 v 6.451 h -1.764 z"
         id="path2740"
         style="fill:#0d729a" />
    </g>
    <path
       d="m 55.224911,106.59461 -1.257111,0.66192 0.01434,-0.89607 1.258421,-0.6632 -0.01582,0.89735"
       id="path2744"
       style="fill:#e1e1e1;stroke-width:1.30812621" />
    <path
       d="m 56.160221,112.23919 0.596506,-0.34263 c 0.12558,-1.92948 -0.443437,-6.03699 -0.779645,-9.87109 l -0.677609,0.25116 c 0.355827,3.87074 0.924848,8.00964 0.860748,9.96266"
       id="path2746"
       style="fill:#0879a5;stroke-width:1.30812621" />
    <path
       d="m 56.005861,103.65267 -0.172697,0.2749 -0.158261,-0.0994 0.172648,-0.27489 0.15831,0.0994"
       id="path2748"
       style="fill:#adadac;stroke-width:1.30812621" />
    <path
       d="m 56.260947,106.13155 -0.172697,0.27489 -0.15831,-0.10086 0.172697,-0.27489 0.15831,0.10086"
       id="path2750"
       style="fill:#adadac;stroke-width:1.30812621" />
    <path
       d="m 56.454548,108.47179 -0.172648,0.27489 -0.159595,-0.10086 0.173983,-0.27489 0.15831,0.10086"
       id="path2752"
       style="fill:#035373;stroke-width:1.30812621" />
    <path
       d="m 56.62068,110.52161 -0.172697,0.27489 -0.159596,-0.10086 0.173983,-0.27489 0.15831,0.10086"
       id="path2754"
       style="fill:#035373;stroke-width:1.30812621" />
    <path
       d="m 52.71854,108.83414 c -0.06017,0.65143 -0.638363,1.12894 -1.288502,1.06872 -0.651449,-0.0613 -1.130221,-0.63834 -1.068741,-1.28977 l 0.423857,-4.52875 c 0.06146,-0.65143 0.638368,-1.12893 1.289812,-1.06876 0.650139,0.0613 1.128916,0.63838 1.067431,1.28981 l -0.423857,4.52875"
       id="path2756"
       style="fill:#0879a5;stroke-width:1.30812621" />
    <path
       d="m 51.88134,115.31981 c 0.02225,0.15821 0.04845,0.31939 0.126915,0.45782 l 0.21586,0.26155 c 0.205378,0.20814 0.410756,0.41579 0.616129,0.62533 l 0.196231,0.18046 c 0.160881,0.1231 0.361018,0.1938 0.562495,0.19628 l 0.170077,-0.0509 0.03807,-0.0836 c 0.0262,-0.14783 -0.07846,-0.28281 -0.155641,-0.41086 -0.143873,-0.23929 -0.202757,-0.52066 -0.232867,-0.79798 -0.03016,-0.27736 -0.03411,-0.55725 -0.0798,-0.83327 0.01335,0.2027 0.04054,0.41184 0.141303,0.58998 0.09943,0.1765 0.286461,0.31938 0.490553,0.31147 l 0.05493,-0.0148 0.02472,-0.0395 -0.0094,-0.33472 -0.138682,-0.22001 -0.06803,-0.31395 c -0.06279,-0.442 -0.299563,-0.85815 -0.646218,-1.13937 l -0.21586,-0.13596 c -0.187035,-0.0826 -0.400274,-0.0717 -0.601736,-0.0395 l -0.130821,0.0395 -0.07846,0.0692 c -0.193611,0.22001 -0.293037,0.51146 -0.323097,0.80317 -0.03016,0.29318 0.0026,0.58735 0.04301,0.87777"
       id="path2758"
       style="fill:#ffc78f;stroke-width:1.30812621" />
    <path
       d="m 53.12537,112.82655 c 0.105952,0.43162 0.129486,0.69984 0.06279,0.87906 -0.08242,0.22001 -1.213945,0.40443 -1.334289,0.19233 -0.102046,-0.17898 -0.153069,-0.43953 -0.211904,-0.73257 l -1.246645,-4.1611 c -0.129486,-0.64101 0.286461,-1.265 0.927464,-1.3932 0.640982,-0.12954 1.264957,0.28626 1.393153,0.92746 l 0.40947,4.28807"
       id="path2760"
       style="fill:#0879a5;stroke-width:1.30812621" />
    <path
       d="m 56.035951,102.91096 -0.415996,0.21457 -0.276029,-0.86076 0.69069,-0.2393 0.0013,0.88559"
       id="path2762"
       style="fill:#30302f;stroke-width:1.30812621" />
    <path
       d="m 55.674908,107.73922 -0.05493,-4.61374 0.415997,-0.21457 0.599121,4.34557 -0.37412,0.87387 -0.586044,-0.39108"
       id="path2764"
       style="fill:#4d4d4c;stroke-width:1.30812621" />
    <path
       d="m 53.699637,100.68715 c -0.121675,0.20518 -0.423858,0.54549 -0.516713,0.70113 -0.05888,0.0969 -0.06017,0.20913 -0.02769,0.33224 0.09419,0.35449 0.289082,0.56383 0.570346,0.79664 0.430384,0.35449 0.873825,0.69203 1.330364,1.01251 0.252495,-0.42124 0.460444,-0.86992 0.618744,-1.33432 0.244634,0.22347 0.489218,0.44893 0.733857,0.6724 0.04969,-0.38465 0.07456,-0.77964 -0.0064,-1.159 -0.08108,-0.37921 -0.28127,-0.74562 -0.605662,-0.96014 -0.28127,-0.18689 -0.634442,-0.24473 -0.971936,-0.22347 -0.337484,0.0198 -0.665836,0.11519 -0.990253,0.20814 l -0.134727,-0.0445"
       id="path2766"
       style="fill:#1385aa;stroke-width:1.30812621" />
    <path
       d="m 55.954843,101.52434 c -0.05626,0.10729 -0.15831,0.20913 -0.306089,0.29417 -0.477452,0.27588 -1.253181,0.27588 -1.730647,0 -0.478787,-0.27588 -0.478787,-0.72342 0,-0.9994 0.107287,-0.0628 0.231532,-0.10976 0.362353,-0.14387 l 0.215859,-0.0445 c 0.400274,-0.0564 0.839815,0.005 1.15246,0.18689 0.163501,0.0944 0.270788,0.20913 0.323097,0.32829 0.05231,0.12409 0.04697,0.25511 -0.01681,0.37674"
       id="path2768"
       style="fill:#ffc78f;stroke-width:1.30812621" />
    <path
       d="m 53.559664,98.150683 h 2.447508 v 3.168277 h -2.447508 z"
       id="path2770"
       style="fill:#ffc78f;stroke-width:1.30812621" />
    <path
       d="m 53.970415,98.331192 c 0.01978,0.349053 0.03807,0.702457 0.117719,1.043897 0.07851,0.340154 0.2211,0.674971 0.457824,0.931371 0.351871,0.38069 0.905225,0.5612 1.414086,0.46178 0.12034,-0.0247 0.240679,-0.0643 0.340105,-0.13745 0.190991,-0.13843 0.279935,-0.37526 0.345345,-0.60175 0.277315,-0.949658 0.320477,-1.955634 0.257687,-2.943267 -0.0094,-0.146345 -0.02076,-0.295657 -0.0667,-0.434092 -0.136062,-0.413327 -0.55988,-0.68545 -0.991559,-0.739093 -0.430384,-0.05389 -0.865979,0.07713 -1.258417,0.263026 l -0.302183,0.189853 -0.217145,0.264015 c -0.09285,0.105804 -0.12558,1.176004 -0.0968,1.701858"
       id="path2772"
       style="fill:#ffd7b0;stroke-width:1.30812621" />
    <path
       d="m 53.970415,98.704026 c 0.01978,0.350537 0.03807,0.702458 0.117719,1.043848 0.07851,0.341636 0.2211,0.675016 0.457824,0.932706 0.351871,0.38069 0.905225,0.5612 1.414086,0.46029 0.12034,-0.0247 0.240679,-0.0643 0.340105,-0.13596 0.190991,-0.13843 0.279935,-0.37526 0.345345,-0.60175 0.277315,-0.950993 0.320477,-1.956919 0.257687,-2.944552 -0.0094,-0.146346 -0.02076,-0.294174 -0.0667,-0.434092 -0.136062,-0.413327 -0.55988,-0.684165 -0.991559,-0.739094 -0.430384,-0.0534 -0.865979,0.07713 -1.258417,0.263026 l -0.302183,0.190843 -0.217145,0.264014 c -0.09285,0.104815 -0.12558,1.174669 -0.0968,1.700573"
       id="path2774"
       style="fill:#ffc78f;stroke-width:1.30812621" />
    <path
       d="m 55.676214,101.55178 c -0.286462,0 -0.572957,-0.0826 -0.817576,-0.23287 h 1.148534 v -0.01 c 0,0.003 0,0.005 0,0.01 0,0.0692 -0.01681,0.13844 -0.05231,0.20518 -0.09157,0.0198 -0.18575,0.0297 -0.278649,0.0297"
       id="path2776"
       style="fill:#eeb986;stroke-width:1.30812621" />
    <path
       d="m 56.007172,101.31896 h -1.148534 c -0.115099,-0.0707 -0.219766,-0.15673 -0.31133,-0.2566 -0.107287,-0.1152 -0.194897,-0.2472 -0.266833,-0.38712 -0.08766,-0.17255 -0.149115,-0.35697 -0.192277,-0.5442 -0.0798,-0.341636 -0.09809,-0.693309 -0.117719,-1.042561 -0.0094,-0.17156 -0.01187,-0.397505 -0.0079,-0.630521 v 0.0013 c 0.0013,0.08108 0.0039,0.155739 0.0064,0.222484 l 0.0013,0.03461 c 0.01978,0.349053 0.03807,0.701172 0.117719,1.042612 0.07327,0.316416 0.200137,0.625276 0.408135,0.875096 l 0.05102,0.0574 c 0.286461,0.31147 0.709004,0.48946 1.130221,0.48946 0.09419,0 0.18837,-0.01 0.282555,-0.0297 l 0.01187,-0.004 c 0.02225,0.0524 0.03411,0.10581 0.0351,0.16068 v 0.01"
       id="path2778"
       style="fill:#eeb986;stroke-width:1.30812621" />
    <path
       d="m 53.96911,98.681778 c -0.0026,-0.06675 -0.0054,-0.141401 -0.0064,-0.222485 l 0.0064,0.222485"
       id="path2780"
       style="fill:#eeb986;stroke-width:1.30812621" />
    <path
       d="m 54.140472,98.582352 -0.332243,-0.189853 c 0.154355,0.56511 0.217145,1.153755 0.184464,1.738491 l -0.07327,0.22348 -0.150449,0.0564 c -0.227627,0.0148 -0.442151,-0.13596 -0.563801,-0.32977 -0.121674,-0.194801 -0.167456,-0.425196 -0.206663,-0.650152 -0.04969,-0.285275 -0.09285,-0.571637 -0.1282,-0.858098 -0.07327,-0.580833 -0.160881,-1.224406 0.06541,-1.763363 0.173983,-0.415798 0.480072,-0.757436 0.87252,-0.979772 0.392462,-0.222484 0.913071,-0.29714 1.364374,-0.295657 0.380646,0 0.766562,0.07466 1.100136,0.257588 0.334864,0.182931 0.612203,0.480072 0.733857,0.84109 0.05102,0.153267 0.07327,0.319389 0.02868,0.473645 -0.08766,0.306039 -0.405515,0.484027 -0.712929,0.56511 -0.514092,0.134974 -1.075277,0.08355 -1.557975,-0.14239 l -0.307424,-0.115198 -0.285176,0.121625 -0.03016,0.177988 c -0.0039,0.185898 0.0054,0.855527 -0.0013,0.868629"
       id="path2782"
       style="fill:#4d4d4c;stroke-width:1.30812621" />
    <path
       d="m 53.800363,98.141536 c 0.134727,-0.01483 0.24854,0.09147 0.306089,0.202708 0.07194,0.139918 0.09157,0.295657 0.109907,0.448924 0.02472,0.194798 0.04697,0.397506 -0.02373,0.582119 l -0.09547,0.127063 -0.236773,-0.03955 -0.120339,-0.206663 c -0.07851,-0.216057 -0.132106,-0.439531 -0.159596,-0.665871 l 0.01187,-0.270937 0.207998,-0.176504"
       id="path2784"
       style="fill:#ffc78f;stroke-width:1.30812621" />
    <path
       d="m 57.956279,98.137581 10.119667,5.843429 -21.68089,12.51876 -13.091728,-7.55834 -2.100847,1.21259 17.581218,10.15107 25.883893,-14.94403 -14.610461,-8.436118 -2.100852,1.212639"
       id="path2786"
       style="fill:#ffffff;stroke-width:1.30812621" />
    <path
       d="M 74.667592,125.51667 48.783699,140.4607 v -20.15561 l 25.883893,-14.94403 v 20.15561"
       id="path2788"
       style="fill:#c4bdb4;stroke-width:1.30812621" />
    <path
       d="M 30.205687,130.88522 47.786904,141.0363 V 96.775827 L 30.205687,86.624751 v 44.260469"
       id="path2790"
       style="fill:#c4bdb4;stroke-width:1.30812621" />
    <g
       transform="translate(-5.976027,5.82759)"
       id="g9879">
      <path
         style="fill:#ffd7b0;stroke-width:1.30812621"
         id="path2890"
         d="m 81.499211,117.00622 -0.06803,0.25759 -0.03016,0.85028 c -0.0013,0.18689 0.0837,0.46178 0.239393,0.9994 l 0.136062,0.15426 0.15564,-0.0865 c -0.0013,0.14535 0.102047,0.28527 0.240679,0.32829 l 0.189705,-0.085 0.184465,0.18046 0.185749,-0.19777 0.193611,0.12163 0.154355,-0.19876 -0.0262,-0.26302 c -0.09681,-0.41086 -0.227626,-0.64753 -0.196231,-0.84376 l 0.126915,-0.76134 c 0.07456,-0.24968 0.06279,-0.15426 0.103332,-0.41333 0.143873,-0.91698 -1.039962,-1.55403 -1.474261,-0.42668 0,0 -0.03263,0.1152 -0.115099,0.38317" />
      <path
         style="fill:#ffd7b0;stroke-width:1.30812621"
         id="path2892"
         d="m 81.076683,118.02915 0.303469,0.005 0.21586,-0.24325 0.185749,-0.24177 c 0.09028,-0.10877 0.188371,-0.21309 0.24592,-0.34015 0.05888,-0.12806 0.07194,-0.28627 -0.0064,-0.40295 l -0.265547,-0.15969 -0.142588,0.0297 -0.02373,0.0628 c -0.06145,0.26155 -0.143873,0.52719 -0.317856,0.72995 l -0.210618,0.25363 0.01582,0.30753" />
      <path
         style="fill:#ffd7b0;stroke-width:1.30812621"
         id="path2894"
         d="m 92.272938,114.3991 c -0.361019,-0.0445 -0.582114,0.0954 -0.796648,0.33867 -0.196231,0.221 -0.189705,0.55334 -0.136062,0.84376 0.02868,0.15673 0.06803,0.3179 0.03115,0.47364 -0.0445,0.19084 -0.231532,0.41481 -0.166122,0.59913 0.06932,0.19084 0.285176,0.19628 0.397654,0.0346 0.232867,-0.33769 0.209284,-0.48799 0.256401,-0.58736 0.07065,-0.14931 0.256401,-0.24325 0.332244,-0.38861 0.08632,-0.16859 0.109907,-0.4331 0.06413,-0.61613 l 0.01681,-0.69593" />
      <path
         style="fill:#ffd7b0;stroke-width:1.30812621"
         id="path2896"
         d="m 93.234412,116.69227 c 0.126915,0.26945 0.07456,0.54415 -0.126915,0.55463 0.04697,0.17947 -0.149114,0.45634 -0.364974,0.31246 -0.05493,0.18838 -0.395083,0.0495 -0.50232,-0.12409 -0.166122,-0.2655 -0.18575,-0.27885 -0.235488,-0.35697 -0.113813,-0.18589 -0.179223,-0.41085 -0.222385,-0.55334 -0.06145,-0.20271 -0.09028,-0.39503 -0.07456,-0.60565 0.04054,-0.54548 -0.0013,-1.09097 0.338819,-1.51873 0.232867,-0.0198 0.476166,-0.01 0.788801,0.29417 0.227627,0.22249 0.257687,0.47464 0.277315,0.79274 0.01978,0.31791 0.04203,0.42767 0.193611,0.70636 0.205378,0.37922 0.02472,0.57298 -0.07194,0.49842" />
      <path
         style="fill:#6a6a69;stroke-width:1.30812621"
         id="path2898"
         d="m 84.388859,130.75986 c -0.340104,0.19727 -0.340104,0.51671 0,0.71423 l 1.93603,1.11712 c 0.34144,0.19776 0.894759,0.19776 1.236178,0 0.34144,-0.19777 0.34144,-0.51671 0,-0.71423 l -1.936025,-1.11712 c -0.341439,-0.19628 -0.894758,-0.19628 -1.236183,0" />
      <path
         style="fill:#6a6a69;stroke-width:1.30812621"
         id="path2900"
         d="m 87.817459,129.99066 -1.841841,0.42272 c -1.101441,-0.2917 -1.84184,0.0564 -1.84184,0.68545 l 3.683681,1.10797 v -2.21594" />
      <path
         style="fill:#6a6a69;stroke-width:1.30812621"
         id="path2902"
         d="m 88.330246,128.46407 c -0.340105,0.19628 -0.340105,0.51671 0,0.71294 l 1.936025,1.11845 c 0.34144,0.19628 0.894758,0.19628 1.236183,0 0.34144,-0.19776 0.34144,-0.5167 0,-0.71422 l -1.93603,-1.11717 c -0.34144,-0.19727 -0.894759,-0.19727 -1.236178,0" />
      <path
         style="fill:#6a6a69;stroke-width:1.30812621"
         id="path2904"
         d="m 91.758845,127.69492 -1.84184,0.42272 c -1.101446,-0.2917 -1.841845,0.0564 -1.841845,0.68545 l 3.683685,1.10797 v -2.21595" />
      <path
         style="fill:#4d4d4c;stroke-width:1.30812621"
         id="path2906"
         d="m 90.968739,121.56765 -3.037472,0.0396 -0.0013,-0.0668 -0.105952,-7.93379 3.037471,-0.0396 0.09809,7.35297 0.0094,0.64753" />
      <path
         style="fill:#4d4d4c;stroke-width:1.30812621"
         id="path2908"
         d="m 89.295645,128.00229 c -0.545492,0.39899 -0.486647,0.94319 0.130821,1.2166 0.617434,0.2734 1.560595,0.17156 2.106083,-0.22644 0.546797,-0.39899 0.487933,-0.94319 -0.129486,-1.2166 -0.618744,-0.27341 -1.5619,-0.17156 -2.107388,0.22644" />
      <path
         style="fill:#4d4d4c;stroke-width:1.30812621"
         id="path2910"
         d="m 91.904048,128.3372 c -0.105952,-2.22252 -0.78357,-6.52754 -0.935309,-6.76955 -0.171363,-0.2749 -0.46702,-1.15247 -0.745635,-1.31469 -0.395033,-0.2304 -0.851591,-0.4331 -1.293737,-0.32186 -0.533716,0.13201 -0.932695,1.06481 -0.99679,1.61163 -0.06408,0.54681 0.877751,6.8101 0.992864,7.1149 0.0667,0.17799 0.240679,0.0905 0.43691,10e-4 0.137347,-0.0628 0.286461,-0.1241 0.418617,-0.0939 l 2.12309,-0.22743" />
      <path
         style="fill:#464645;stroke-width:1.30812621"
         id="path2912"
         d="m 87.929962,121.54149 v 0 l -0.0094,-0.68288 0.31395,-2.84256 c 0.405515,-0.0628 0.794037,-0.23287 1.110603,-0.49342 -0.787491,0.99159 -1.088364,2.36382 -1.363068,3.75697 -0.02077,0.0811 -0.03659,0.1597 -0.04598,0.23139 -0.0026,0.01 -0.0039,0.0198 -0.0064,0.0297" />
      <path
         style="fill:#464645;stroke-width:1.30812621"
         id="path2914"
         d="m 87.936498,121.51138 c 0.0094,-0.0722 0.02472,-0.1503 0.04598,-0.23138 -0.01582,0.0771 -0.03115,0.15425 -0.04598,0.23138" />
      <path
         style="fill:#4d4d4c;stroke-width:1.30812621"
         id="path2916"
         d="m 84.634789,122.94507 3.019153,0.33373 0.877756,-7.95338 -3.019154,-0.33372 -0.877755,7.95337" />
      <path
         style="fill:#4d4d4c;stroke-width:1.30812621"
         id="path2918"
         d="m 85.464141,129.94359 c -0.605662,0.29813 -0.640982,0.84505 -0.0798,1.22045 0.562495,0.37526 1.508271,0.43706 2.113933,0.13844 0.605662,-0.29961 0.640983,-0.84633 0.0798,-1.22045 -0.56119,-0.37526 -1.508272,-0.43706 -2.113934,-0.13893" />
      <path
         style="fill:#4d4d4c;stroke-width:1.30812621"
         id="path2920"
         d="m 87.975744,130.72061 c 0.07327,-2.22514 -0.190991,-7.18818 -0.321812,-7.44196 -0.149114,-0.28626 -0.397653,-0.6985 -0.663216,-0.88297 -0.37412,-0.26154 -0.813655,-0.4997 -1.263652,-0.42519 -0.542872,0.089 -0.990249,0.4997 -1.097516,1.03994 -0.108573,0.53896 0.266833,7.20123 0.357112,7.51518 0.08894,0.31247 0.0837,0.29813 0.392413,0.39899 l 2.596631,-0.20419" />
      <path
         style="fill:#75c291;stroke-width:1.30812621"
         id="path2922"
         d="m 92.733401,114.51815 c -0.162216,0.13745 -0.363688,0.2304 -0.589969,0.25907 -0.259021,0.0346 -0.507551,-0.0247 -0.71685,-0.14783 l -0.259021,-0.20913 c -0.15307,-0.16612 -0.257687,-0.3807 -0.289082,-0.62266 l -0.549413,-4.31289 c -0.0445,-0.35449 0.07846,-0.69202 0.30871,-0.9288 l 0.08242,-0.0771 0.170077,-0.12014 0.08894,-0.0445 0.07589,-0.0297 0.253781,-0.0643 c 0.620054,-0.0786 1.18647,0.35993 1.266268,0.98111 l 0.21843,1.7241 0.09028,0.70117 0.239393,1.88761 c 0.04974,0.39355 -0.108572,0.76658 -0.389792,1.00598" />
      <path
         style="fill:#75c291;stroke-width:1.30812621"
         id="path2924"
         d="m 90.480805,109.95934 c 0.265548,0.56512 0.939236,0.80841 1.505652,0.54287 0.56511,-0.2655 0.723396,-1.13809 0.457873,-1.70448 l -1.735883,-3.48485 c -0.265548,-0.56645 -0.939236,-0.80974 -1.505657,-0.5442 -0.56511,0.2655 -0.808419,0.93923 -0.542872,1.50563 l 1.820912,3.68503" />
      <path
         style="fill:#75c291;stroke-width:1.30812621"
         id="path2926"
         d="m 91.16757,114.42006 -0.105952,0.26154 c -0.694616,1.19301 -4.095741,2.29703 -5.636718,1.01641 l -0.03164,-0.0247 c -0.256401,-0.14931 -0.401609,-0.33768 -0.433004,-0.5311 l -0.0026,-0.0247 -0.0026,-0.0297 -0.0013,-0.0297 -0.0064,-0.16216 -0.02225,-0.58998 -0.01286,-0.36389 -0.25378,-6.84411 c 0.260306,-0.70508 0.800573,-1.19301 2.569156,-2.09299 1.139378,-0.5795 1.665247,-0.38465 2.40303,-0.35449 1.338215,0.0564 1.280656,2.09823 1.255802,1.76331 0.01285,0.0603 0.04054,0.60175 0.07194,1.36962 l 0.01038,0.26154 0.01038,0.26797 c 0.05231,1.31335 0.112478,3.03093 0.153069,4.22528 l 0.0026,0.0603 0.0039,0.003 0.01582,0.59518 c 0.01681,0.47117 0.0262,0.76396 0.0262,0.76396 l -0.0026,0.0198 0.0064,0.2393 -0.01681,0.20023" />
      <path
         style="fill:#ffd7b0;stroke-width:1.30812621"
         id="path2928"
         d="m 88.4519,102.42058 c -0.01829,0.33472 -0.03659,0.67106 -0.111193,0.99812 -0.07589,0.32581 -0.211904,0.6449 -0.438245,0.89082 -0.256401,0.27737 -0.623975,0.44349 -0.999405,0.46426 -0.117719,0.005 -0.235487,0 -0.351871,-0.0247 l -0.325718,-0.13101 c -0.149114,-0.10877 -0.232867,-0.27885 -0.293036,-0.45536 v -0.001 l -0.03807,-0.11915 c -0.264262,-0.90784 -0.304804,-1.86932 -0.245919,-2.81379 0.0094,-0.13992 0.02076,-0.28132 0.06408,-0.41481 0.129486,-0.39503 0.535021,-0.65539 0.947082,-0.70641 0.412041,-0.0509 0.828043,0.0732 1.204783,0.25116 l 0.287796,0.18194 0.206663,0.25264 c 0.08894,0.10086 0.12034,1.1237 0.09285,1.62602" />
      <path
         style="fill:#ffd7b0;stroke-width:1.30812621"
         id="path2930"
         d="m 86.230704,104.83276 v -0.0148 0.0148" />
      <path
         style="fill:#edc8a4;stroke-width:1.30812621"
         id="path2932"
         d="m 86.815438,104.77654 c -0.08894,0 -0.176603,-0.01 -0.264262,-0.0247 l -0.325717,-0.13102 c -0.149114,-0.10877 -0.232868,-0.27884 -0.293037,-0.45535 v -0.001 c 0.103331,0.10086 0.197517,0.1503 0.279935,0.1503 0.228912,0 0.380646,-0.37921 0.447391,-1.16162 0.0667,0.4997 0.313951,0.32977 0.315236,0.83328 0,0.20123 -0.0054,0.40443 -0.01038,0.60565 l -0.01978,0.12806 -0.04203,0.0549 c -0.02868,10e-4 -0.05755,0.003 -0.08766,0.003" />
      <path
         style="fill:#ffd7b0;stroke-width:1.30812621"
         id="path2934"
         d="m 86.659768,102.24793 h 2.34024 v 3.0296 h -2.34024 z" />
      <path
         style="fill:#ffd7b0;stroke-width:1.30812621"
         id="path2936"
         d="m 88.662509,104.71375 c 0.457824,0.2655 0.457824,0.69332 0,0.95886 -0.457824,0.26402 -1.200857,0.26402 -1.658701,0 -0.457873,-0.2655 -0.457873,-0.69331 0,-0.95886 0.457824,-0.26401 1.200858,-0.26401 1.658701,0" />
      <path
         style="fill:#4d4d4c;stroke-width:1.30812621"
         id="path2938"
         d="m 86.132594,101.53628 c 0.344059,0.20024 0.499705,0.57559 0.536331,0.97196 0.03659,0.39652 -0.02225,0.79798 0.01285,1.1943 0.0351,0.39651 0.190991,0.81627 0.533716,1.01903 0.239393,0.1414 0.532405,0.15425 0.81104,0.15178 0.364973,-0.005 0.847666,-0.0247 0.986328,-0.36389 1.837914,-4.47114 -0.986328,-4.772039 -1.318592,-4.800819 -1.172082,-0.10184 -2.601867,0.630529 -2.047218,1.554079 0.08504,0.1414 0.366259,0.20518 0.485313,0.27341" />
      <path
         style="fill:#ffd7b0;stroke-width:1.30812621"
         id="path2940"
         d="m 86.757879,102.24793 c -0.128201,0.004 -0.222386,0.12163 -0.261642,0.23534 -0.04845,0.1414 -0.0445,0.2917 -0.04203,0.43953 0.0054,0.18689 0.01038,0.38218 0.103332,0.54677 l 0.108572,0.10581 0.21848,-0.0707 0.08504,-0.2121 c 0.0445,-0.21605 0.06412,-0.43409 0.05888,-0.65143 l -0.04969,-0.25512 -0.221051,-0.13893" />
      <path
         style="fill:#68a77e;stroke-width:1.30812621"
         id="path2942"
         d="m 84.947434,114.89489 v 0 l -0.02225,-0.58998 -0.01286,-0.36388 0.765253,-1.50435 c 0.07846,-0.12162 0.134727,-0.26154 0.162216,-0.41332 l 0.736478,-4.07612 c 0.105952,1.87585 -0.05231,4.00418 -0.312665,4.59673 -0.378026,0.85948 -0.952312,1.86412 -1.315971,2.35072" />
      <path
         style="fill:#75c291;stroke-width:1.30812621"
         id="path2944"
         d="m 86.811512,107.74468 -0.122959,0.68283 -0.65145,3.59605 c -0.02769,0.15178 -0.0837,0.2917 -0.162216,0.41332 -0.205378,0.31642 -0.561185,0.518 -0.948392,0.518 l -0.204092,-0.0198 c -0.328338,-0.0588 -0.597811,-0.25512 -0.761327,-0.51799 -0.141303,-0.2304 -0.202758,-0.51019 -0.150449,-0.79665 l 0.03263,-0.18046 0.04202,-0.23682 0.508861,-2.81116 0.190991,-1.05043 c 0.09809,-0.54682 0.574267,-0.93008 1.111908,-0.93008 l 0.201472,0.0198 c 0.616124,0.11125 1.024259,0.69984 0.913071,1.31464" />
      <path
         style="fill:#75c291;stroke-width:1.30812621"
         id="path2946"
         d="m 85.906287,112.37543 -0.03164,0.0613 -1.705798,3.35799 -0.232818,0.45634 c -0.28389,0.55725 -0.546798,0.78616 -0.983713,0.66453 0,0 -1.71757,-0.43409 -1.159,-1.45074 l 2.049833,-4.02509 0.0445,-0.0905 h 0.0013 c 0.198852,-0.39256 0.596506,-0.62004 1.008562,-0.62004 0.172697,0 0.347966,0.0396 0.512787,0.1241 0.557264,0.2828 0.779645,0.9641 0.49578,1.52135" />
      <path
         style="fill:#68a77e;stroke-width:1.30812621"
         id="path2948"
         d="m 91.426582,114.62934 v 0 l -0.259021,-0.20913 0.01681,-0.20024 -0.0064,-0.23929 0.0026,-0.0198 c 0,0 -0.0094,-0.29318 -0.0262,-0.76396 l -0.01582,-0.59517 -0.0039,-0.003 -0.0026,-0.0603 c -0.01978,-0.58474 -0.0445,-1.29244 -0.07065,-2.01843 0.130821,0.0564 0.273409,0.0875 0.417282,0.0905 0.04845,0.27192 0.07846,0.44348 0.07846,0.44348 0,0 -0.0262,3.13427 -0.130821,3.57642" />
      <path
         style="fill:#68a77e;stroke-width:1.30812621"
         id="path2950"
         d="m 91.478905,110.60944 c -0.143873,-0.003 -0.286461,-0.0346 -0.417282,-0.0905 -0.02769,-0.75867 -0.05626,-1.53574 -0.08242,-2.2068 l -0.01038,-0.26797 -0.01038,-0.26154 c 0.03016,0.14931 0.06279,0.3179 0.0968,0.4997 0.146494,0.77835 0.324432,1.76598 0.423858,2.32718" />
      <path
         style="fill:#68a77e;stroke-width:1.30812621"
         id="path2952"
         d="m 91.184578,114.21987 -0.0064,-0.23929 0.0064,0.23929 m -0.0039,-0.26006 c 0,0 -0.0094,-0.29318 -0.0262,-0.76391 l -0.01582,-0.59522 -0.0039,-0.003 -0.0026,-0.0603 c -0.03659,-0.98763 -0.160881,-2.78367 -0.242014,-4.17944 -0.0262,-0.44497 -0.04845,-0.85029 -0.0615,-1.17472 0.0262,0.089 0.07194,0.30752 0.129486,0.59912 l 0.01038,0.26155 0.01038,0.26797 c 0.0262,0.67106 0.05493,1.44812 0.08242,2.20685 0.0262,0.72599 0.05102,1.43369 0.07065,2.01842 l 0.0026,0.0603 0.0039,0.003 0.01582,0.59517 c 0.01681,0.47068 0.0262,0.76397 0.0262,0.76397" />
    </g>
    <path
       d="m 64.278452,132.90498 c -1.224406,-0.36487 -0.300848,-0.55596 -0.211904,-0.58607 l 0.306089,-0.0148 0.413376,-0.53629 0.03807,-0.0836 c 0.09681,-0.13596 0.06408,-0.0954 0.231532,-0.10481 l 0.334864,0.01 0.100711,0.0198 0.134727,0.16464 c 0.04598,0.12806 0.04202,0.27094 0.0064,0.40146 -0.0351,0.13102 -0.102046,0.25265 -0.179223,0.36389 l -0.179224,0.21952 -0.252495,0.1765 -0.290416,0.01 c -0.15307,-0.003 -0.30609,0.003 -0.452633,-0.0395"
       id="path3012"
       style="fill:#ffd7b0;stroke-width:1.30812621" />
    <path
       d="m 66.408083,124.05287 -0.705083,7.92855 -0.899989,-0.22891 -0.506246,-4.93945 -0.177889,-1.72282 -0.105952,-1.03737 c 0,-0.65534 0.5311,-1.18644 1.185165,-1.18644 h 0.02472 c 0.65406,0 1.18516,0.5311 1.18516,1.18644"
       id="path3014"
       style="fill:#ffd7b0;stroke-width:1.30812621" />
    <path
       d="m 65.440068,133.05019 h -0.817576 v 0.63052 l 0.763943,-0.31543 0.05364,-0.31544"
       id="path3016"
       style="fill:#4a7281;stroke-width:1.30812621" />
    <path
       d="m 65.938463,133.95669 c -0.227626,0.10482 -0.414661,0.13893 -0.639672,0.0297 0.0039,-0.22644 0.0089,-0.62395 -0.02472,-0.84767 -0.219765,0.0613 -0.423857,0.4865 -0.644903,0.54158 l -0.214525,-0.005 c -0.550708,-0.10185 -0.914366,-0.32829 -1.323812,-0.78097 l -0.109858,-0.22248 c 0.31133,-0.24968 0.93793,-0.36636 1.391848,-0.36636 -0.132106,0 -0.544182,0.0494 -0.650139,0.25759 0.227626,0.0954 0.821507,0.15969 1.015108,0.005 l 0.202757,-0.30999 c 0.115099,-0.21309 0.289082,-0.39256 0.499705,-0.51014 l 0.210619,-0.0628 c 0.183129,0.01 0.283841,0.2131 0.34401,0.38713 0.07065,0.20814 0.139968,0.43013 0.09157,0.64486 l -0.08504,0.25116 c -0.108573,0.31543 -0.08632,0.65801 -0.06279,0.99025"
       id="path3018"
       style="fill:#4a7281;stroke-width:1.30812621" />
    <path
       d="m 62.313647,134.00643 c -1.224406,-0.36389 -0.300848,-0.55597 -0.211904,-0.58474 l 0.306089,-0.0148 0.413377,-0.53767 0.03807,-0.0826 c 0.09809,-0.13745 0.06412,-0.0969 0.231532,-0.10481 l 0.334864,0.01 0.100711,0.0198 0.134727,0.16464 c 0.04598,0.12706 0.04301,0.26945 0.0064,0.40047 -0.0351,0.13201 -0.102046,0.25264 -0.179223,0.36488 l -0.179224,0.21951 -0.252445,0.17552 -0.290417,0.0148 c -0.153069,-0.003 -0.306089,0.003 -0.452632,-0.0445"
       id="path3020"
       style="fill:#ffd7b0;stroke-width:1.30812621" />
    <path
       d="m 64.687898,123.31511 -0.06017,0.50099 -0.119054,1.00464 -0.04969,0.41332 -0.08108,0.68026 -0.03906,0.33076 v 0.001 l -0.0667,0.5612 -0.0054,0.0445 v 0.003 c -0.07327,0.50494 -0.507556,0.8843 -1.022954,0.8843 h -0.01978 c -0.519329,0 -0.954933,-0.38465 -1.022959,-0.89478 l -0.0064,-0.0613 -0.31657,-3.4757 2.218585,0.005 0.59127,0.001"
       id="path3022"
       style="fill:#ffd7b0;stroke-width:1.30812621" />
    <path
       d="m 64.443279,125.15432 -0.146494,1.65869 -0.55857,6.2712 -0.899994,-0.2304 -0.337484,-3.29648 -0.417282,-4.05129 -0.0351,-0.35202 c 0,-0.65406 0.5311,-1.18515 1.185165,-1.18515 h 0.02472 c 0.296943,0 0.567726,0.10877 0.77572,0.28923 0.234152,0.20271 0.387221,0.49579 0.40685,0.82542 l 0.0026,0.0707"
       id="path3024"
       style="fill:#ffd7b0;stroke-width:1.30812621" />
    <path
       d="m 64.605485,129.83089 v 0 l -0.30871,-3.01788 0.07456,-0.83847 0.0064,-0.0603 0.08108,-0.68026 0.01829,-0.1503 c 0.623975,0.004 1.246645,0.0905 1.815681,0.25908 l -0.384602,4.32989 c -0.418617,0.0944 -0.859442,0.14634 -1.302894,0.15821 m -0.177888,-3.85373 c 0.04598,0.1503 0.07456,0.30357 0.0929,0.45634 l 0.0026,0.0198 0.01434,0.15574 v 0.005 l 0.120339,1.3225 0.0064,0.0588 -0.0064,0.11669 0.03411,0.46968 0.03906,-0.33224 0.08108,-0.67887 0.04845,-0.41333 0.12034,-1.00464 c -0.171363,-0.0297 -0.33882,-0.0796 -0.4984,-0.14931 l -0.05493,-0.0247"
       id="path3026"
       style="fill:#edc8a4;stroke-width:1.30812621" />
    <path
       d="m 64.691818,128.58033 -0.03411,-0.46969 0.0064,-0.11668 -0.0064,-0.0588 -0.120339,-1.32254 v -0.005 l -0.01434,-0.15574 -0.0026,-0.0198 c -0.01829,-0.15327 -0.04697,-0.30604 -0.09285,-0.45634 l 0.05493,0.0247 c 0.159596,0.0692 0.327052,0.11915 0.4984,0.14931 l -0.120339,1.00464 -0.04845,0.41333 -0.08108,0.67892 -0.03906,0.33224"
       id="path3028"
       style="fill:#dcba99;stroke-width:1.30812621" />
    <path
       d="m 64.371332,125.97454 0.07194,-0.82022 -0.0026,-0.0707 c 0.01286,0 0.02472,0 0.03659,0 l -0.01829,0.15031 -0.08108,0.6802 -0.0064,0.0603"
       id="path3030"
       style="fill:#edc8a4;stroke-width:1.30812621" />
    <path
       d="m 64.028602,129.82174 c -0.527174,-0.0297 -1.047813,-0.11767 -1.527895,-0.26401 l -0.417282,-4.0513 c 0.614824,-0.2472 1.319902,-0.38613 2.035446,-0.41579 l 0.321812,-0.005 0.0026,0.0707 -0.07194,0.82018 -0.342725,3.8472"
       id="path3032"
       style="fill:#edc8a4;stroke-width:1.30812621" />
    <path
       d="m 66.761275,108.99502 c -0.08894,-0.45931 -0.533715,-0.76001 -0.992864,-0.67106 l -0.01681,0.003 c -0.459159,0.089 -0.760022,0.53371 -0.671073,0.99287 l 0.402895,1.94912 c 0.575577,-0.0198 1.149844,-0.21853 1.637778,-0.53634 l -0.359733,-1.73721"
       id="path3034"
       style="fill:#85b8bb;stroke-width:1.30812621" />
    <path
       d="m 67.522607,112.67744 -0.401609,-1.94521 c -0.487933,0.3179 -1.0622,0.51671 -1.637773,0.53634 l 0.358448,1.73325 c 0.08894,0.4593 0.533715,0.76005 0.992864,0.67106 l 0.01681,-0.003 c 0.459158,-0.089 0.760021,-0.53372 0.671072,-0.99282"
       id="path3036"
       style="fill:#ffd7b0;stroke-width:1.30812621" />
    <path
       d="m 64.834406,117.86414 -0.745629,-0.42124 1.822217,-4.77857 c 0.180509,-0.43162 0.677608,-0.63576 1.109293,-0.45535 l 0.01582,0.005 c 0.431669,0.18046 0.634441,0.67759 0.453917,1.10925 l -2.65547,4.53938"
       id="path3038"
       style="fill:#ffd7b0;stroke-width:1.30812621" />
    <path
       d="m 66.134685,116.90266 c 0.01434,0.38861 -3.700688,-0.24572 -3.717696,-0.42667 l -0.03807,-1.00202 c -0.05888,-0.85291 -0.430384,-2.69607 -0.444771,-2.71698 -0.31395,-0.47118 -0.765253,-2.02239 -0.603047,-2.56525 0.184465,-0.61747 1.295043,-1.30944 1.712335,-2.10609 0.745634,-1.42326 2.502446,-0.0707 3.231073,0.18442 1.399694,0.48946 -0.155641,8.20063 -0.139968,8.6323"
       id="path3040"
       style="fill:#85b8bb;stroke-width:1.30812621" />
    <path
       d="m 62.770185,112.07831 0.179224,-1.40101 c 0.06408,-0.46425 -0.260307,-0.89216 -0.724706,-0.95495 l -0.01681,-0.003 c -0.463064,-0.0628 -0.890833,0.26154 -0.953623,0.7247 l -0.183129,1.42979 c 0.476166,0.33224 1.126295,0.31543 1.699257,0.20419"
       id="path3042"
       style="fill:#85b8bb;stroke-width:1.30812621" />
    <path
       d="m 61.070928,111.87422 -0.340104,2.66333 c -0.06412,0.46426 0.260306,0.89083 0.724701,0.95496 l 0.01681,0.003 c 0.463064,0.0628 0.890832,-0.26155 0.953622,-0.72471 l 0.34406,-2.69211 c -0.572957,0.11124 -1.223096,0.12805 -1.699252,-0.20419"
       id="path3044"
       style="fill:#ffd7b0;stroke-width:1.30812621" />
    <path
       d="m 60.797529,119.55295 -0.816271,-0.25759 0.733858,-4.69096 c 0.08766,-0.4603 0.5311,-0.76134 0.991559,-0.67368 l 0.01681,0.003 c 0.459158,0.0875 0.761332,0.53109 0.673688,0.99153 l -1.599841,4.62818"
       id="path3046"
       style="fill:#ffd7b0;stroke-width:1.30812621" />
    <path
       d="m 59.170219,120.36264 c -0.06017,0.24869 -0.159596,0.48551 -0.259022,0.7208 l 0.27865,0.0509 0.175268,-0.25512 0.102046,-0.29961 c 0.107287,-0.20666 0.337484,-0.31939 0.490554,-0.4958 0.146493,-0.1676 0.219765,-0.38613 0.287796,-0.5965 0.04203,-0.12805 0.0837,-0.25759 0.08894,-0.39108 0.0054,-0.13448 -0.175268,-0.11668 -0.270788,-0.21062 -0.24854,0.32681 -0.353207,0.49342 -0.603047,0.81889 l -0.192276,0.29962 c -0.04969,0.11371 -0.06932,0.23781 -0.09809,0.35844"
       id="path3048"
       style="fill:#ffd7b0;stroke-width:1.30812621" />
    <path
       d="m 59.911927,122.1574 0.09809,-0.0564 0.18575,-0.0148 0.129486,-0.17651 0.202758,-0.25363 c 0.07327,-0.12706 0.06146,-0.28379 0.05493,-0.43014 -0.02373,-0.56249 0.07327,-1.12498 0.235487,-1.66522 l 0.02868,-0.31939 -0.07327,-0.12311 -0.210618,-0.23286 -0.296943,-0.0549 c -0.15564,0.0588 -0.205378,0.24868 -0.262927,0.40442 -0.107287,0.29319 -0.400275,0.46178 -0.480072,0.76263 l -0.08504,0.34164 c -0.05102,0.35993 0.02868,1.31468 0.139968,1.50434 l 0.333578,0.31247"
       id="path3050"
       style="fill:#ffd7b0;stroke-width:1.30812621" />
    <path
       d="m 64.717983,105.03796 c -0.01829,0.34164 -0.03659,0.68417 -0.113814,1.01641 -0.07718,0.33224 -0.214524,0.65801 -0.446056,0.90783 -0.261642,0.28281 -0.635747,0.4514 -1.017723,0.47365 -0.12034,0.005 -0.240679,0 -0.359733,-0.0247 l -0.330958,-0.13349 c -0.151734,-0.10976 -0.238058,-0.28379 -0.299563,-0.46425 v -0.001 l -0.03807,-0.12014 c -0.269453,-0.92618 -0.311329,-1.90595 -0.249825,-2.86743 0.0094,-0.14239 0.01978,-0.28775 0.06541,-0.42371 0.132106,-0.40146 0.544182,-0.66711 0.964089,-0.71947 0.419902,-0.0524 0.84374,0.0761 1.227022,0.2566 l 0.294322,0.1859 0.210619,0.2566 c 0.09028,0.10185 0.122959,1.14461 0.09418,1.65741"
       id="path3052"
       style="fill:#ffd7b0;stroke-width:1.30812621" />
    <path
       d="m 62.454925,107.49592 v -0.0148 0.0148"
       id="path3054"
       style="fill:#ffd7b0;stroke-width:1.30812621" />
    <path
       d="m 63.051431,107.43837 c -0.09028,0 -0.18051,-0.01 -0.270789,-0.0247 l -0.330958,-0.13349 c -0.151734,-0.10976 -0.238058,-0.28379 -0.299563,-0.46425 v -10e-4 c 0.105952,0.10185 0.201472,0.15327 0.286461,0.15327 0.232867,0 0.387222,-0.38712 0.455204,-1.18253 0.06803,0.50885 0.320476,0.33472 0.320476,0.84895 0,0.20518 -0.0039,0.41086 -0.0094,0.61614 l -0.02077,0.13101 -0.04202,0.0564 c -0.03016,0.001 -0.05888,0.003 -0.08894,0.003"
       id="path3056"
       style="fill:#edc8a4;stroke-width:1.30812621" />
    <path
       d="m 63.043579,105.5429 h 1.96481 v 2.543 h -1.96481 z"
       id="path3058"
       style="fill:#ffd7b0;stroke-width:1.30812621" />
    <path
       d="m 64.724524,107.61364 c 0.384601,0.22248 0.384601,0.58212 0,0.8045 -0.384602,0.221 -1.007257,0.221 -1.391848,0 -0.384602,-0.22248 -0.384602,-0.58211 0,-0.8045 0.384601,-0.22248 1.007261,-0.22248 1.391848,0"
       id="path3060"
       style="fill:#ffd7b0;stroke-width:1.30812621" />
    <path
       d="m 62.354199,104.13665 c 0.351871,0.20419 0.510172,0.58603 0.546797,0.99026 0.03659,0.40442 -0.02225,0.81236 0.01335,1.21654 0.03659,0.40443 0.194897,0.83199 0.544183,1.03866 0.244634,0.14387 0.542872,0.15821 0.826732,0.15425 0.3715,-0.005 0.864674,-0.0247 1.005951,-0.37031 1.873236,-4.55619 -1.005951,-4.86361 -1.344755,-4.89238 -1.194317,-0.10334 -2.664652,0.91831 -2.099542,1.85883 0.08632,0.14387 0.387222,-0.0653 0.507552,0.004"
       id="path3062"
       style="fill:#4d4d4c;stroke-width:1.30812621" />
    <path
       d="m 62.992566,104.86269 c -0.132106,0.004 -0.227626,0.12311 -0.266833,0.23831 -0.04969,0.14536 -0.04598,0.29813 -0.04301,0.44843 0.0054,0.19084 0.01187,0.3886 0.105952,0.55725 l 0.109858,0.10877 0.222386,-0.0732 0.08766,-0.21606 c 0.0445,-0.21853 0.06413,-0.442 0.06017,-0.66454 l -0.05102,-0.25907 -0.225006,-0.13992"
       id="path3064"
       style="fill:#ffd7b0;stroke-width:1.30812621" />
    <path
       d="m 63.973658,135.05814 c -0.226291,0.1058 -0.414661,0.13893 -0.639672,0.0297 0.0039,-0.22644 0.0094,-0.62394 -0.02472,-0.84766 -0.219765,0.0613 -0.423857,0.4865 -0.644908,0.54029 l -0.214524,-0.005 c -0.550704,-0.10036 -0.914362,-0.3268 -1.323808,-0.77933 l -0.108572,-0.22249 c 0.310044,-0.24968 0.93662,-0.36636 1.390538,-0.36636 -0.132107,0 -0.544178,0.0494 -0.65014,0.2566 0.228912,0.0954 0.821507,0.16068 1.015108,0.005 l 0.202758,-0.31 c 0.115098,-0.2121 0.289081,-0.39256 0.499705,-0.5089 l 0.210618,-0.0628 c 0.18313,0.01 0.283841,0.2131 0.344011,0.38713 0.07194,0.20814 0.139967,0.42915 0.0929,0.64362 l -0.08632,0.25264 c -0.108572,0.31544 -0.08632,0.65796 -0.06279,0.98892"
       id="path3066"
       style="fill:#4a7281;stroke-width:1.30812621" />
    <path
       d="m 62.376437,108.92961 c 0.232867,-0.24226 0.327053,-0.34559 0.426429,-0.41876 0.124245,0.27983 0.257686,0.57297 0.504936,0.75348 0.239393,0.17403 0.545487,0.21605 0.826737,0.30604 0.259022,0.0836 0.504936,0.2121 0.720776,0.37921 0.06017,-0.47612 0.5311,-0.77178 0.807114,-1.16552 0.320477,-0.45783 0.370214,-1.05305 0.330958,-1.6103 -0.03906,-0.55858 -0.156975,-1.11321 -0.1282,-1.67179 0.01681,-0.31 0.07718,-0.61614 0.0837,-0.92613 0.0054,-0.31 -0.05102,-0.63577 -0.242013,-0.87906 -0.210619,-0.27094 -0.550719,-0.40048 -0.875136,-0.50757 -0.214524,-0.0692 -0.431669,-0.13497 -0.65537,-0.15821 -0.677613,-0.0692 -1.326442,0.24968 -1.933414,0.56116 l -0.130821,0.0979 -0.265548,0.442 c 1.131531,0.63186 0.884297,1.9413 0.765258,2.62804 -0.06408,0.36636 -0.206664,0.71427 -0.282556,1.0792 -0.07456,0.36487 -0.15564,0.77835 0.04697,1.08968"
       id="path3068"
       style="fill:#4d4d4c;stroke-width:1.30812621" />
    <path
       d="m 67.332927,125.32963 c 1.606382,0.92747 1.606382,2.43181 0,3.35927 -1.606378,0.92613 -4.20955,0.92613 -5.815927,0 -1.606383,-0.92746 -1.606383,-2.4318 0,-3.35927 1.606377,-0.92617 4.209549,-0.92617 5.815927,0"
       id="path3070"
       style="fill:#4a7281;stroke-width:1.30812621" />
    <path
       d="m 66.282503,115.85748 c -0.460444,1.03866 -3.701998,1.24928 -3.891678,-0.0732 -0.919613,4.17554 -1.896779,7.2614 -2.056375,10.97911 l 8.20326,0.14388 -1.165537,-6.41769 c 0,-2.25258 -0.555954,-3.03879 -1.08967,-4.63208"
       id="path3072"
       style="fill:#4a7281;stroke-width:1.30812621" />
    <g
       transform="translate(-6.2213816,13.977909)"
       id="g9845">
      <path
         style="fill:#4e3f36;stroke-width:1.30812621"
         id="path2676"
         d="m 107.74023,113.26101 -0.49709,-1.70576 -0.45264,-1.25842 c -0.0811,-0.28132 -0.31004,-0.56249 -0.55726,-0.69069 l -2.20419,-1.32512 c -0.24725,-0.12805 -0.45525,-0.0707 -0.50756,0.1414 l -0.26426,1.06219 -0.32047,1.28458 c -0.0785,0.31247 0.20799,0.81103 0.57557,1.00068 l 3.73862,1.94259 c 0.3676,0.18985 0.6109,-0.0346 0.48927,-0.4514" />
      <path
         style="fill:#4e3f36;stroke-width:1.30812621"
         id="path2678"
         d="m 103.62748,108.25877 -0.3676,0.32186 3.15258,5.99512 1.24403,-0.84243 -4.02902,-5.4745" />
      <path
         style="fill:#776154;stroke-width:1.30812621"
         id="path2680"
         d="m 105.99126,114.57046 -3.52278,-2.19765 c -0.32834,-0.20518 -0.51672,-0.74691 -0.37546,-1.08573 l 1.05173,-2.54695 c 0.0955,-0.22891 0.31395,-0.2917 0.53634,-0.15327 l 2.18195,1.36181 c 0.22239,0.13843 0.39375,0.44496 0.4199,0.74952 l 0.12949,1.5305 0.15826,1.85102 c 0.0381,0.45139 -0.24983,0.69593 -0.5795,0.49045" />
      <path
         style="fill:#624f45;stroke-width:1.30812621"
         id="path2682"
         d="m 106.41247,112.22893 c -0.52194,0.4252 -1.25841,0.4514 -2.01844,-0.0247 -0.76263,-0.47463 -1.38138,-1.34608 -1.72541,-2.31146 l 0.47616,-1.15376 c 0.0955,-0.22891 0.31395,-0.2917 0.53633,-0.15326 l 2.18196,1.36175 c 0.22239,0.13893 0.39375,0.44497 0.4199,0.74952 l 0.12949,1.53055" />
      <path
         style="fill:#776154;stroke-width:1.30812621"
         id="path2684"
         d="m 105.36074,111.45845 c -0.0719,0.55596 -0.49055,0.78092 -0.93662,0.5036 -0.44477,-0.27885 -0.74825,-0.95362 -0.6763,-1.50958 0.0719,-0.55592 0.49055,-0.78092 0.93662,-0.50232 0.44477,0.27736 0.74825,0.95233 0.6763,1.5083" />
      <path
         style="fill:#8e7d6b;stroke-width:1.30812621"
         id="path2686"
         d="m 105.24563,111.38651 c -0.0615,0.47612 -0.42124,0.66973 -0.80188,0.43162 -0.38198,-0.23831 -0.6423,-0.81761 -0.58081,-1.29377 0.0614,-0.47612 0.42124,-0.66973 0.80319,-0.43063 0.38064,0.23781 0.64098,0.81627 0.5795,1.29243" />
      <path
         style="fill:#624f45;stroke-width:1.30812621"
         id="path2688"
         d="m 104.52616,112.85945 -0.22106,0.0761 -0.17922,-0.34559 0.22629,-1.76074 0.40423,0.25264 -0.23024,1.77775" />
      <path
         style="fill:#776154;stroke-width:1.30812621"
         id="path2690"
         d="m 104.37834,108.74275 v -0.32285 c 0,-0.35202 0.24725,-0.49446 0.55072,-0.31939 l 0.0143,0.01 c 0.3048,0.17502 0.55203,0.60437 0.55203,0.95624 v 0.32285 c -0.0262,0.20518 0.23282,0.24869 0.2433,0.13992 v -0.32285 c 0,-0.50623 -0.35711,-1.12365 -0.79534,-1.37614 l -0.0143,-0.01 c -0.43824,-0.25364 -0.79403,-0.0494 -0.79403,0.45782 v 0.32433 c -0.005,0.26402 0.2433,0.22496 0.2433,0.13992" />
      <path
         style="fill:#ffd7b0;stroke-width:1.30812621"
         id="path3124"
         d="m 102.95902,123.45001 c -1.13153,-0.3362 -0.27732,-0.51409 -0.1949,-0.54153 l 0.28256,-0.0148 0.38198,-0.49579 0.0351,-0.0771 c 0.0903,-0.12706 0.0602,-0.089 0.21453,-0.0969 l 0.30871,0.005 0.0928,0.0198 0.12558,0.15326 c 0.042,0.11767 0.0391,0.24968 0.006,0.37131 -0.0326,0.12014 -0.0942,0.23286 -0.16612,0.33619 l -0.16612,0.20271 -0.23287,0.16365 -0.26816,0.01 c -0.14259,-0.003 -0.28385,0.003 -0.41991,-0.0395" />
      <path
         style="fill:#ffd7b0;stroke-width:1.30812621"
         id="path3126"
         d="m 104.92906,115.26639 -0.65145,7.33076 -0.83197,-0.21309 -0.63313,-6.15866 -0.0785,-0.76921 -0.0198,-0.18985 c 0,-0.60565 0.49056,-1.0962 1.09621,-1.0962 h 0.0222 c 0.60566,0 1.09621,0.49045 1.09621,1.0962" />
      <path
         style="fill:#de3c52;stroke-width:1.30812621"
         id="path3128"
         d="m 104.0343,123.58479 h -0.7574 v 0.5834 l 0.70769,-0.2917 0.0497,-0.2917" />
      <path
         style="fill:#de3c52;stroke-width:1.30812621"
         id="path3130"
         d="m 104.49476,124.42326 c -0.20928,0.0969 -0.38327,0.12706 -0.59127,0.0247 0.003,-0.20815 0.008,-0.57688 -0.0237,-0.78354 -0.20276,0.0574 -0.39113,0.44991 -0.5952,0.50098 l -0.19885,-0.005 c -0.50886,-0.0939 -0.84635,-0.30357 -1.2244,-0.72075 l -0.10072,-0.20666 c 0.28647,-0.2304 0.86598,-0.33769 1.2859,-0.33868 -0.12168,0 -0.50233,0.0445 -0.60044,0.23782 0.21062,0.089 0.75872,0.14782 0.93793,0.005 l 0.18837,-0.28626 c 0.10595,-0.19628 0.26688,-0.36389 0.46178,-0.47217 l 0.19361,-0.0573 c 0.17008,0.01 0.26293,0.19777 0.31786,0.35845 0.0667,0.19233 0.13082,0.39652 0.0863,0.59517 l -0.0798,0.23287 c -0.0994,0.2917 -0.0798,0.60832 -0.0575,0.91569" />
      <path
         style="fill:#ffd7b0;stroke-width:1.30812621"
         id="path3132"
         d="m 101.14334,124.46904 c -1.13153,-0.3362 -0.27865,-0.51409 -0.19623,-0.54024 l 0.28256,-0.0148 0.38326,-0.4958 0.0351,-0.0771 c 0.0889,-0.12706 0.0589,-0.089 0.21324,-0.0969 l 0.31004,0.005 0.0929,0.0198 0.12429,0.15327 c 0.043,0.11767 0.0391,0.24967 0.006,0.3713 -0.0326,0.12014 -0.0942,0.23287 -0.16612,0.3362 l -0.16612,0.20271 -0.23153,0.16365 -0.26946,0.01 c -0.1413,-0.003 -0.28384,0.003 -0.41861,-0.0395" />
      <path
         style="fill:#ffd7b0;stroke-width:1.30812621"
         id="path3134"
         d="m 103.33838,114.58485 -0.0549,0.46178 -0.15697,1.31206 -0.0746,0.6279 -0.0366,0.30604 v 0.003 l -0.0615,0.51799 -0.005,0.0396 v 0.003 c -0.068,0.46721 -0.46964,0.81889 -0.94578,0.81889 h -0.0168 c -0.4814,0 -0.88298,-0.35697 -0.94577,-0.82804 l -0.006,-0.0564 -0.20147,-2.20552 -0.0916,-1.00854 2.05114,0.005 0.5468,0.001" />
      <path
         style="fill:#ffd7b0;stroke-width:1.30812621"
         id="path3136"
         d="m 103.11207,116.28542 -0.65145,7.33076 -0.83196,-0.2121 -0.69724,-6.79443 -0.0341,-0.32433 c 0,-0.60565 0.49055,-1.09754 1.09621,-1.09754 h 0.0222 c 0.27469,0 0.52586,0.10086 0.71816,0.26797 0.21586,0.18689 0.35845,0.45931 0.37674,0.76268 l 0.001,0.0667" />
      <path
         style="fill:#edc8a4;stroke-width:1.30812621"
         id="path3138"
         d="m 103.26251,120.60745 v 0 l -0.28646,-2.78892 0.0693,-0.77572 0.006,-0.0564 0.0746,-0.6279 0.0168,-0.13992 c 0.57688,0.004 1.15246,0.085 1.67963,0.2393 l -0.35583,4.00418 c -0.38722,0.0875 -0.79534,0.13596 -1.20478,0.14535 m -0.16483,-3.56202 c 0.042,0.13991 0.0693,0.27983 0.0863,0.42272 l 0.001,0.0148 0.0143,0.14387 v 0.004 l 0.1112,1.22307 0.005,0.0549 -0.005,0.10728 0.0316,0.4341 0.0351,-0.30753 0.0759,-0.6279 0.046,-0.38218 0.10986,-0.92874 c -0.15826,-0.0297 -0.31395,-0.0732 -0.46178,-0.13745 l -0.0497,-0.0247" />
      <path
         style="fill:#dcba99;stroke-width:1.30812621"
         id="path3140"
         d="m 103.3423,119.45241 -0.0316,-0.43409 0.005,-0.10729 -0.005,-0.0549 -0.11119,-1.22312 v -0.004 l -0.0143,-0.14388 -0.001,-0.0148 c -0.0168,-0.14239 -0.0445,-0.2828 -0.0863,-0.42272 l 0.0497,0.0247 c 0.14783,0.0643 0.30347,0.10976 0.46178,0.13745 l -0.10986,0.92875 -0.046,0.38217 -0.0759,0.62791 -0.0351,0.30752" />
      <path
         style="fill:#edc8a4;stroke-width:1.30812621"
         id="path3142"
         d="m 103.04536,117.04281 0.0667,-0.75739 -0.001,-0.0667 c 0.0104,0 0.0208,0 0.0326,0 l -0.0168,0.13992 -0.0746,0.6279 -0.006,0.0564" />
      <path
         style="fill:#edc8a4;stroke-width:1.30812621"
         id="path3144"
         d="m 102.72879,120.59964 c -0.48793,-0.0247 -0.96932,-0.10877 -1.41277,-0.24473 l -0.38461,-3.74521 c 0.56773,-0.22891 1.21918,-0.35696 1.88109,-0.38465 l 0.29823,-0.005 10e-4,0.0667 -0.0667,0.75744 -0.0693,0.77573 -0.24726,2.78105" />
      <path
         style="fill:#de3c52;stroke-width:1.30812621"
         id="path3146"
         d="m 105.25609,101.344 c -0.0824,-0.42519 -0.49317,-0.70245 -0.9183,-0.62004 l -0.0158,0.003 c -0.42514,0.0826 -0.70246,0.49342 -0.62136,0.91826 l 0.37284,1.80134 c 0.53241,-0.0198 1.06351,-0.20172 1.51481,-0.4958 l -0.33224,-1.60639" />
      <path
         style="fill:#ffd7b0;stroke-width:1.30812621"
         id="path3148"
         d="m 105.95987,104.74905 -0.3715,-1.79866 c -0.4513,0.29418 -0.98241,0.4776 -1.51482,0.4958 l 0.3323,1.60243 c 0.0824,0.42519 0.49317,0.70246 0.9183,0.62137 l 0.0143,-0.004 c 0.42514,-0.0811 0.70376,-0.49194 0.62136,-0.91699" />
      <path
         style="fill:#ffd7b0;stroke-width:1.30812621"
         id="path3150"
         d="m 103.47442,109.54463 -0.68938,-0.39009 1.68487,-4.41883 c 0.16612,-0.39899 0.62528,-0.58736 1.02426,-0.41976 l 0.0143,0.005 c 0.40027,0.16612 0.58866,0.62528 0.42124,1.02426 l -2.45536,4.19779" />
      <path
         style="fill:#de3c52;stroke-width:1.30812621"
         id="path3152"
         d="m 104.67659,108.65514 c 0.0129,0.35993 -3.42206,-0.22743 -3.43776,-0.39355 l -0.0341,-0.92746 c -0.0549,-0.78883 -0.39899,-2.49198 -0.41204,-2.51161 -0.29042,-0.43557 -0.7077,-1.86931 -0.55857,-2.37163 0.17008,-0.57035 1.19825,-1.21002 1.58414,-1.94649 0.68808,-1.315969 2.31277,-0.0653 2.98776,0.17007 1.29243,0.4514 -0.14521,7.58188 -0.12948,7.98087" />
      <path
         style="fill:#de3c52;stroke-width:1.30812621"
         id="path3154"
         d="m 101.56587,104.19443 0.16612,-1.29506 c 0.0575,-0.42915 -0.24202,-0.82413 -0.67107,-0.88297 l -0.0158,-0.003 c -0.42776,-0.0573 -0.82281,0.24177 -0.88168,0.67106 l -0.168739,1.32122 c 0.439529,0.30752 1.041269,0.2917 1.571059,0.18837" />
      <path
         style="fill:#ffd7b0;stroke-width:1.30812621"
         id="path3156"
         d="m 99.994811,104.00606 -0.31529,2.4632 c -0.0589,0.42766 0.24068,0.82413 0.669769,0.88168 l 0.0158,0.003 c 0.42905,0.0588 0.82411,-0.24078 0.88298,-0.66978 l 0.31786,-2.48935 c -0.52979,0.10333 -1.13153,0.11915 -1.571059,-0.18837" />
      <path
         style="fill:#ffd7b0;stroke-width:1.30812621"
         id="path3158"
         d="m 99.741031,111.10524 -0.75479,-0.23831 0.67892,-4.33642 c 0.0811,-0.42519 0.491839,-0.70508 0.916999,-0.62399 l 0.0158,0.004 c 0.42386,0.0811 0.70377,0.49046 0.62266,0.91565 l -1.479489,4.27892" />
      <path
         style="fill:#ffd7b0;stroke-width:1.30812621"
         id="path3160"
         d="m 98.236691,111.85481 c -0.0549,0.22892 -0.14783,0.44893 -0.2394,0.66583 l 0.25769,0.0494 0.16222,-0.23683 0.0942,-0.27588 c 0.0994,-0.19232 0.31133,-0.29714 0.45392,-0.4593 0.13606,-0.15574 0.20276,-0.35697 0.26555,-0.55201 0.0391,-0.11767 0.0772,-0.23781 0.0824,-0.3624 0.005,-0.1241 -0.16088,-0.10581 -0.24987,-0.19381 -0.23025,0.30208 -0.32705,0.45535 -0.55726,0.75738 l -0.17789,0.27588 -0.0916,0.33225" />
      <path
         style="fill:#ffd7b0;stroke-width:1.30812621"
         id="path3162"
         d="m 98.923451,113.51351 0.0889,-0.0524 0.17264,-0.01 0.12034,-0.16216 0.18709,-0.23534 c 0.068,-0.11668 0.0563,-0.26154 0.051,-0.39751 -0.0222,-0.52061 0.068,-1.04127 0.21715,-1.53964 l 0.0262,-0.29566 -0.0667,-0.11371 -0.19489,-0.21457 -0.2747,-0.0509 c -0.14387,0.0549 -0.18965,0.2304 -0.2433,0.37427 -0.0994,0.26945 -0.37021,0.42618 -0.44343,0.70374 l -0.0785,0.31642 c -0.047,0.33225 0.0262,1.21526 0.1282,1.39187 l 0.31004,0.28774" />
      <path
         style="fill:#ffd7b0;stroke-width:1.30812621"
         id="path3164"
         d="m 103.36715,97.685171 c -0.0168,0.31544 -0.0351,0.63314 -0.10595,0.94057 -0.0707,0.30752 -0.19885,0.60694 -0.41337,0.8398 -0.24068,0.26006 -0.58735,0.41729 -0.94055,0.43706 l -0.33224,-0.0247 -0.30609,-0.12311 c -0.13997,-0.10185 -0.21977,-0.26302 -0.27732,-0.42914 v -10e-4 l -0.0341,-0.11124 c -0.24983,-0.85681 -0.2878,-1.76203 -0.23153,-2.65157 0.008,-0.13201 0.0183,-0.2655 0.0602,-0.39108 0.12167,-0.3713 0.50362,-0.61742 0.89213,-0.66582 0.38851,-0.0494 0.77965,0.0692 1.13415,0.23682 l 0.27208,0.17156 0.19489,0.23831 c 0.0837,0.0939 0.11253,1.05828 0.0877,1.53183" />
      <path
         style="fill:#ffd7b0;stroke-width:1.30812621"
         id="path3166"
         d="m 101.27415,99.958721 v -0.0148 0.0148" />
      <path
         style="fill:#edc8a4;stroke-width:1.30812621"
         id="path3168"
         d="m 101.90729,99.902451 -0.33225,-0.0247 -0.30609,-0.12311 c -0.13996,-0.10184 -0.21976,-0.26302 -0.27731,-0.42914 v -0.001 c 0.0981,0.0939 0.18708,0.1414 0.26555,0.1414 0.21586,0 0.35839,-0.35696 0.42118,-1.09358 0.0628,0.47068 0.29566,0.30999 0.29566,0.78487 0.001,0.18986 -0.004,0.3807 -0.009,0.57035 l -0.0183,0.12015 -0.0391,0.0524" />
      <path
         style="fill:#ffd7b0;stroke-width:1.30812621"
         id="path3170"
         d="m 101.81834,98.152191 h 1.81698 v 2.352009 h -1.81698 z" />
      <path
         style="fill:#ffd7b0;stroke-width:1.30812621"
         id="path3172"
         d="m 103.37239,100.06729 c 0.35583,0.20518 0.35583,0.53762 0,0.743 -0.35449,0.20518 -0.93139,0.20518 -1.2872,0 -0.35582,-0.20518 -0.35582,-0.53762 0,-0.743 0.35583,-0.205179 0.9327,-0.205179 1.2872,0" />
      <path
         style="fill:#4d4d4c;stroke-width:1.30812621"
         id="path3174"
         d="m 101.18128,96.853231 c 0.32443,0.18689 0.47092,0.54153 0.50494,0.91436 0.0341,0.37427 -0.0208,0.75215 0.0119,1.12498 0.0341,0.37427 0.18051,0.7692 0.50363,0.96019 0.22629,0.1335 0.50101,0.14635 0.76394,0.14239 0.34406,-0.004 0.79927,-0.0247 0.93008,-0.34163 1.73196,-4.21218 -0.93008,-4.49735 -1.24272,-4.52351 -1.10405,-0.0969 -2.46451,0.84895 -1.94256,1.71753 0.0811,0.13349 0.35844,-0.0603 0.47092,0.005" />
      <path
         style="fill:#ffd7b0;stroke-width:1.30812621"
         id="path3176"
         d="m 101.77124,97.522961 c -0.12167,0.004 -0.21061,0.11371 -0.24725,0.221 -0.046,0.13349 -0.042,0.27489 -0.0391,0.41332 0.004,0.17651 0.0104,0.35994 0.0968,0.51543 l 0.10333,0.10086 0.20538,-0.0667 0.0798,-0.20023 c 0.042,-0.20271 0.0602,-0.40789 0.0549,-0.61352 l -0.046,-0.23929 -0.208,-0.13102" />
      <path
         style="fill:#de3c52;stroke-width:1.30812621"
         id="path3178"
         d="m 102.67777,125.44229 c -0.20928,0.0969 -0.38326,0.12706 -0.59127,0.0247 0.004,-0.20815 0.009,-0.57688 -0.0222,-0.78354 -0.20409,0.0573 -0.39246,0.44991 -0.5965,0.50098 l -0.19886,-0.005 c -0.50886,-0.0939 -0.84505,-0.30357 -1.2231,-0.72075 l -0.102039,-0.20667 c 0.287789,-0.23039 0.865979,-0.33768 1.285879,-0.33867 -0.12034,0 -0.50232,0.0445 -0.60042,0.23781 0.21061,0.089 0.76001,0.14783 0.93792,0.005 l 0.18837,-0.28627 c 0.10595,-0.19628 0.26683,-0.36339 0.46178,-0.47067 l 0.1949,-0.0588 c 0.16874,0.01 0.26164,0.19777 0.31785,0.35845 0.0654,0.19232 0.12949,0.39652 0.085,0.59517 l -0.0798,0.23287 c -0.0994,0.2917 -0.0785,0.60832 -0.0575,0.91569" />
      <path
         style="fill:#4d4d4c;stroke-width:1.30812621"
         id="path3180"
         d="m 101.41805,99.278461 -0.0863,0.34015 c 0.50101,0.20419 0.96671,0.599129 1.55144,0.435579 0.90392,-0.251159 1.32513,-0.003 1.7542,-0.655339 l -0.20929,-1.28329 c 0.0143,-0.28627 0.0707,-0.57035 0.0759,-0.85682 0.005,-0.28626 -0.047,-0.58735 -0.22367,-0.81365 -0.1949,-0.24868 -0.50887,-0.37031 -0.80843,-0.4682 -0.19885,-0.0653 -0.39899,-0.12558 -0.60566,-0.14635 -0.62659,-0.0643 -1.22702,0.23139 -1.78821,0.518 l -0.12034,0.0915 -0.24725,0.40838 c 1.0465,0.58474 0.81888,1.7961 0.70769,2.43052" />
      <path
         style="fill:#de3c52;stroke-width:1.30812621"
         id="path3182"
         d="m 105.78457,116.44763 c 1.48473,0.85682 1.48473,2.24735 0,3.10421 -1.48472,0.85809 -3.89298,0.85809 -5.3777,0 -1.484729,-0.85686 -1.484729,-2.24739 0,-3.10421 1.48472,-0.85814 3.89298,-0.85814 5.3777,0" />
      <path
         style="fill:#de3c52;stroke-width:1.30812621"
         id="path3184"
         d="m 104.81264,107.68971 c -0.42515,0.95886 -3.42337,1.1538 -3.59735,-0.0692 -0.85028,3.86159 -1.754199,6.71463 -1.902019,10.15108 l 7.584519,0.13349 -1.0779,-5.93366 c 0,-2.08256 -0.51278,-2.80984 -1.00725,-4.2815" />
    </g>
  </g>
</svg>
