<?xml version="1.0" encoding="UTF-8" standalone="no"?>
<svg
   xmlns:dc="http://purl.org/dc/elements/1.1/"
   xmlns:cc="http://creativecommons.org/ns#"
   xmlns:rdf="http://www.w3.org/1999/02/22-rdf-syntax-ns#"
   xmlns:svg="http://www.w3.org/2000/svg"
   xmlns="http://www.w3.org/2000/svg"
   id="svg11364"
   version="1.1"
   viewBox="0 0 154.35402 173.86276"
   height="173.86276mm"
   width="154.35402mm">
  <defs
     id="defs11358" />
  <metadata
     id="metadata11361">
    <rdf:RDF>
      <cc:Work
         rdf:about="">
        <dc:format>image/svg+xml</dc:format>
        <dc:type
           rdf:resource="http://purl.org/dc/dcmitype/StillImage" />
        <dc:title></dc:title>
      </cc:Work>
    </rdf:RDF>
  </metadata>
  <g
     transform="translate(-22.248524,-21.302637)"
     id="layer1">
    <path
       d="m 87.175018,171.84046 c 1.51018,0.86892 1.51018,2.28568 0,3.15457 l -8.56729,4.9477 c -1.51023,0.87434 -3.95698,0.87434 -5.46802,0 -1.51018,-0.87453 -1.51018,-2.28568 0,-3.16012 l 8.56729,-4.94215 c 1.51018,-0.87453 3.95707,-0.87453 5.46802,0"
       id="path3892"
       style="fill:#55371f;stroke-width:5.53433514" />
    <path
       d="m 79.083798,166.82081 6.31464,-0.59216 c 1.35544,1.82084 2.54563,3.86851 2.91105,7.0618 l -16.28213,5.32404 c -0.41068,-2.2248 2.16951,-5.4015 5.26887,-7.62079 1.26758,-0.9076 0.64247,-2.93871 1.78833,-4.17289"
       id="path3894"
       style="fill:#55371f;stroke-width:5.53433514" />
    <path
       d="m 68.701338,161.18689 c 1.51023,0.86888 1.51023,2.28568 0,3.16009 l -8.567237,4.94216 c -1.510183,0.87434 -3.962594,0.87434 -5.473396,0 -1.510278,-0.8689 -1.510278,-2.28568 0,-3.15458 l 8.567238,-4.94767 c 1.51023,-0.87456 3.962547,-0.87456 5.473395,0"
       id="path3896"
       style="fill:#55371f;stroke-width:5.53433514" />
    <path
       d="m 61.246407,155.57504 h 5.678402 c 1.355429,1.82085 2.540209,3.87403 2.905349,7.06182 l -16.276477,5.32404 c -0.410203,-2.22483 2.074998,-5.53435 5.268819,-7.6208 2.258113,-1.47215 1.278148,-3.53641 2.423907,-4.76506"
       id="path3898"
       style="fill:#55371f;stroke-width:5.53433514" />
    <path
       d="m 56.680644,125.29117 11.361994,1.80975 4.57685,-19.31483 2.13624,-15.78393 -17.184061,-1.78193 -0.891023,35.07106"
       id="path3900"
       style="fill:#85b8bb;stroke-width:5.53433514" />
    <path
       d="m 70.007328,118.80492 c -0.0842,-1.30062 -0.18797,-2.60666 -0.2722,-3.90723 -0.22842,-3.3206 -0.47711,-6.69654 -1.69425,-9.79023 1.32825,0.76933 2.66184,1.53845 3.99005,2.3078 l 0.58761,0.37085 -2.61212,11.01886"
       id="path3902"
       style="fill:#759fa1;stroke-width:5.53433514" />
    <path
       d="m 56.680644,125.29672 c 0.541495,-2.37977 2.734033,-6.29257 5.147089,-6.62463 2.003807,-0.27677 3.918196,0.8302 5.539638,2.02562 1.156757,0.85238 0.04283,5.11373 0.675547,6.40323 0.55459,1.13455 0.60265,24.31787 0.33311,30.72663 -2.589982,1.49434 -5.368177,1.32281 -7.95845,-0.17149 -0.719472,-8.31812 -4.272482,-29.98503 -3.735554,-32.35926"
       id="path3904"
       style="fill:#85b8bb;stroke-width:5.53433514" />
    <path
       d="m 72.005178,134.37856 12.26987,-0.10464 3.96249,-35.77946 -16.23236,0.47045 v 35.4142"
       id="path3906"
       style="fill:#85b8bb;stroke-width:5.53433514" />
    <path
       d="m 72.005178,134.37856 c 0.32027,-2.41298 2.1806,-4.36108 4.55497,-4.90896 1.96407,-0.45931 3.97358,0.46498 5.70029,1.51084 1.22371,0.74152 1.278,2.06433 2.01437,3.29294 2.0541,3.43129 2.10298,24.07989 2.42409,33.92548 -0.86813,2.55133 -8.29617,0.12124 -8.26291,-0.13389 0.0428,-0.24911 -6.75188,-31.27454 -6.43081,-33.68752"
       id="path3908"
       style="fill:#85b8bb;stroke-width:5.53433514" />
    <path
       d="m 58.783621,69.997625 c 1.610592,-0.586737 2.573617,-2.197134 3.409298,-3.696942 1.112781,-1.986924 2.219376,-3.97364 3.331729,-5.965993 -2.224992,-1.737802 -3.923906,-3.995815 -5.196914,-6.513921 -1.570857,1.665845 -2.805843,3.25973 -4.327827,4.726314 -1.526791,1.455634 -5.368372,6.580339 -6.203956,8.705522 -0.648759,1.638231 0.615018,3.409144 2.413056,4.261428 1.549918,0.736076 4.958835,-0.929765 6.574614,-1.516489"
       id="path3910"
       style="fill:#ffd7b0;stroke-width:5.53433514" />
    <path
       d="m 61.639478,67.739617 1.543637,-9.93413 10.470963,2.916587 -3.21538,10.542924 c -0.55867,2.933192 -2.23593,5.102641 -5.180111,4.576885 -2.944369,-0.531278 -4.178451,-5.16907 -3.619537,-8.102266"
       id="path3912"
       style="fill:#facca0;stroke-width:5.53433514" />
    <path
       d="m 65.640667,46.819834 c 2.623491,-3.464492 5.932991,-2.446186 7.615391,-1.427809 1.28429,0.774769 1.62102,1.549542 0,0.348673 2.40188,1.782144 2.88884,5.158001 1.08561,7.537752 l -5.93271,7.808972 c -1.616917,1.936926 -9.707329,-3.486651 -8.080176,-7.266587 l 5.312978,-7.000938"
       id="path3914"
       style="fill:#035373;stroke-width:5.53433514" />
    <path
       d="m 89.775988,98.92007 c -12.31935,13.55358 -32.254097,1.23412 -33.620995,-5.13033 0,0 -4.997571,-13.80818 8.096647,-40.489205 v -0.0053 c 1.909679,-8.489604 10.531928,-13.005624 18.573138,-8.035811 4.84282,2.994089 9.42504,7.720408 11.80484,11.926516 0,0 -4.76516,40.26781 -4.85363,41.73442"
       id="path3916"
       style="fill:#035373;stroke-width:5.53433514" />
    <path
       d="m 71.446268,47.118679 0.22842,0.664118 c 0.25459,0.492595 0.7258,0.957381 1.39931,1.350408 l 0.36642,0.188208 c 2.20814,1.073679 5.51227,1.012805 7.5877,-0.188208 2.20253,-1.267369 2.20253,-3.326123 0,-4.593487 l -0.86809,-0.409584 -0.78029,-0.249119 -0.0143,-0.0053 -0.99143,-0.198724 c -1.84287,-0.254546 -3.863,0.03379 -5.30199,0.863247 -0.74664,0.437232 -1.2445,0.957381 -1.48296,1.510849 l -0.14609,1.068246"
       id="path3918"
       style="fill:#ffd7b0;stroke-width:5.53433514" />
    <path
       d="m 71.429808,32.275599 h 11.24573 v 14.560844 h -11.24573 z"
       id="path3920"
       style="fill:#ffd7b0;stroke-width:5.53433514" />
    <path
       d="m 73.438658,49.321361 v 0 l -0.36595,-0.188208 c -0.6755,-0.393024 -1.14623,-0.857808 -1.3993,-1.350403 l -0.22842,-0.66412 1.07932,0.470448 c 0.20844,0.02284 0.41449,0.03379 0.61916,0.03379 1.11283,0 2.21938,-0.282146 3.21543,-0.785852 h 2.34662 c -1.29475,1.527576 -3.27614,2.451716 -5.26858,2.484942"
       id="path3922"
       style="fill:#edc8a4;stroke-width:5.53433514" />
    <path
       d="m 78.707278,46.836443 h -2.34657 c 0.94137,-0.475901 1.77172,-1.162164 2.40768,-2.003445 l 0.21081,-0.287809 0.39735,-0.664123 c 0.57519,-1.084762 0.90778,-2.302287 1.06268,-3.525376 0.20843,-1.59389 0.12563,-3.209912 0.0619,-4.820409 l -0.0842,-1.17889 c 0.12564,1.062592 0.21557,2.103054 0.25459,2.883391 0.0619,1.610416 0.14657,3.22652 -0.0619,4.820404 -0.0842,0.702817 -0.2327,1.394546 -0.4535,2.069752 l -0.16704,0.509137 c -0.25887,0.680609 -0.60274,1.317155 -1.03959,1.898224 -0.0619,0.104595 -0.14657,0.205006 -0.23222,0.298944"
       id="path3924"
       style="fill:#edc8a4;stroke-width:5.53433514" />
    <path
       d="m 80.395248,35.208794 c 0.16704,1.599324 0.32645,3.209902 0.21557,4.820399 -0.12563,1.604981 -0.52522,3.220999 -1.42233,4.560306 -1.31779,1.97583 -3.70239,3.093693 -6.08214,3.099232 -3.29865,0.0053 -4.87574,-2.285684 -5.33515,-3.265279 -1.936947,-4.117543 -1.156705,-8.246156 -1.577092,-12.773236 -0.06186,-0.675183 -0.125636,-1.355852 -0.0048,-2.019966 0.322167,-1.970192 2.047732,-3.508779 3.968122,-4.062205 1.92019,-0.553474 3.98481,-0.26568 5.9052,0.293233 0.52522,0.154754 1.05634,0.332207 1.50604,0.64762 l 1.17341,1.046073 c 0.49353,0.409585 1.40563,5.241004 1.65456,7.653991"
       id="path3926"
       style="fill:#ffd7b0;stroke-width:5.53433514" />
    <path
       d="m 83.206758,40.925771 c -0.41449,0.968459 -1.5709,1.936927 -1.78214,1.798667 l -0.49344,-0.963029 c -0.56495,-2.634352 -0.70281,-5.351701 -0.40306,-8.024785 l -2.18045,1.737799 c -0.31598,-0.387409 -0.0619,-3.519839 0.005,-6.154191 0,-0.04379 -0.44351,1.671281 -4.17297,-2.036704 -3.72452,-3.713527 7.35533,-7.620773 9.75163,-1.422369 0.91406,2.08084 1.17974,10.642538 -0.72584,15.06446"
       id="path3928"
       style="fill:#8e7d6b;stroke-width:5.53433514" />
    <path
       d="m 80.766148,32.530186 c -0.61911,0.0276 -1.06891,0.592163 -1.2446,1.139983 -0.22842,0.686313 -0.20891,1.411281 -0.18797,2.114118 0.0428,0.902155 0.0619,1.83736 0.52522,2.628808 l 0.52518,0.503641 1.04592,-0.354098 0.39735,-1.018249 c 0.20891,-1.040425 0.28267,-2.091996 0.24888,-3.137979 l -0.24888,-1.223022 -1.06886,-0.653054"
       id="path3930"
       style="fill:#ffd7b0;stroke-width:5.53433514" />
    <path
       d="m 77.074708,87.53594 c 1.54992,0.61979 3.29846,0.71956 4.74854,0.20501 1.16727,-0.40393 2.13068,-1.211948 2.63981,-2.451712 l 7.04526,-14.865226 -10.30508,-3.54751 -1.65447,4.178414 h -0.0143 l -1.67127,4.211628 -0.33644,0.857813 -1.84277,4.648842 c -0.74674,2.695227 -1.3994,5.639476 1.38893,6.762961"
       id="path3932"
       style="fill:#ffd7b0;stroke-width:5.53433514" />
    <path
       d="m 84.811738,57.91618 c 1.11697,-2.789305 4.28904,-4.139696 7.0729,-3.016212 2.78932,1.118021 4.13975,4.28911 3.01623,7.072868 l -3.39255,8.450933 c -1.54987,3.005153 -10.91939,-0.531278 -10.29932,-3.553053 l 3.60274,-8.954536"
       id="path3934"
       style="fill:#035373;stroke-width:5.53433514" />
    <path
       d="m 68.408008,32.452709 c 1.00819,0.287808 2.01437,0.575602 3.02717,0.868897 1.97673,0.564537 4.19516,1.112372 6.0049,0.131811 0.44732,-0.243457 0.88479,-3.215455 0.91411,-4.134152 0.019,-0.90216 0.6419,-1.427815 1.40558,-1.898238 0.61507,-0.381984 1.45584,-0.597596 1.66504,-1.289541 0.16703,-0.558907 0.0619,-1.300631 -0.16704,-1.831929 -1.24041,-2.761625 -9.80703,-2.628804 -12.05938,-0.77477 -1.46631,1.206505 -2.296706,3.027281 -2.772817,4.870205 -0.292661,1.156719 -0.397354,2.573464 0.493527,3.370409 0.409252,0.370848 0.95798,0.531278 1.48925,0.686313"
       id="path3936"
       style="fill:#ffd7b0;stroke-width:5.53433514" />
    <path
       d="m 49.97859,71.076824 c 0.729942,1.328244 1.079232,2.186057 3.359235,3.586252 1.466308,0.913247 7.233556,3.038349 11.970871,3.724591 0.569002,0.07742 1.123299,0.144285 1.650471,0.181974 1.631531,0.104595 3.038161,-0.02284 3.951361,-0.52023 -2.1527,-5.827651 -7.083985,-10.000539 -11.98167,-11.965227 -1.698486,-0.686313 -1.03964,-1.001723 -2.440658,-1.488679 -1.405682,-0.481555 -2.999714,-0.558909 -4.35557,0.05429 -2.307842,1.040415 -3.370419,4.195025 -2.152803,6.425361"
       id="path3938"
       style="fill:#ffd7b0;stroke-width:5.53433514" />
    <path
       d="m 58.927525,66.084854 c 5.921859,2.700747 5.362946,8.888133 9.319923,14.649389 1.7319,2.507048 4.31688,4.942162 8.66137,6.967717 1.29052,0.87434 3.26515,0.83021 4.91443,0.0395 1.01875,-0.4815 1.90973,-1.245198 2.4518,-2.246944 0.44351,-0.824549 0.65285,-1.710188 0.65285,-2.578975 0,-1.931501 -1.03546,-3.813171 -2.86133,-4.792764 l -0.0428,-0.0276 -1.01242,-0.64192 c -1.06248,-0.664123 -2.11397,-1.411287 -3.1379,-2.186079 -2.63996,-1.981269 -5.15799,-4.134128 -7.46598,-5.584127 l -0.42067,-0.221282 c -0.59174,-0.309983 -1.53321,-0.769324 -1.69848,-1.018244 -3.547351,-5.312955 -8.201913,-4.488339 -9.297658,-2.46831 l -0.06186,0.110884"
       id="path3940"
       style="fill:#ffd7b0;stroke-width:5.53433514" />
    <path
       d="m 59.862949,70.916332 0.06186,-0.06048 -0.06186,0.06048"
       id="path3942"
       style="fill:#f8c491;stroke-width:5.53433514" />
    <path
       d="m 66.957836,78.570321 c -0.525127,-0.0395 -1.07928,-0.104637 -1.650329,-0.181974 -1.123251,-2.069753 -1.731988,-4.366582 -2.584514,-6.558182 -0.8639,-2.224792 -1.876319,-4.416388 -3.796468,-5.744629 5.185541,2.363161 5.401445,7.399406 8.030311,12.485461"
       id="path3944"
       style="fill:#edc8a4;stroke-width:5.53433514" />
    <path
       d="m 66.957836,78.570321 v 0 c -2.628676,-5.08605 -2.844485,-10.1223 -8.030311,-12.485467 5.185826,2.357623 5.395973,7.393868 8.030311,12.485467"
       id="path3946"
       style="fill:#edc8a4;stroke-width:5.53433514" />
    <path
       d="m 58.927525,66.084854 v 0"
       id="path3948"
       style="fill:#272724;stroke-width:5.53433514" />
    <path
       d="m 77.866228,75.266307 1.99129,-5.102641 c 0,0 0.0143,0.01093 0.0428,0.0276 l -0.34311,0.863466 h -0.0143 l -1.67127,4.211623"
       id="path3950"
       style="fill:#084e6b;stroke-width:5.53433514" />
    <path
       d="m 82.017028,78.094349 v 0 l -1.01247,-0.64192 c -1.06258,-0.664114 -2.11411,-1.411278 -3.13791,-2.186076 l 1.67127,-4.211633 h 0.0143 l 0.34311,-0.863452 c 0.26506,0.205006 2.08127,1.58844 3.12691,1.920405 0.69649,0.22128 1.42234,0.376319 1.63786,1.079113 l -0.33644,1.162153 c 0.37689,0.581103 -0.0619,1.48324 -0.56487,1.566284 0.23842,0.791506 -0.43685,1.289544 -0.86813,1.289544 -0.0619,0 -0.10469,-0.01093 -0.14657,-0.02284 l -0.71957,0.907589"
       id="path3952"
       style="fill:#edc8a4;stroke-width:5.53433514" />
    <path
       d="m 81.308548,78.227169 c -0.67555,0 -1.57086,-0.553474 -2.10874,-0.929761 -0.55458,-0.387408 -1.11273,-0.774778 -1.67126,-1.173245 -2.75597,-1.953668 -5.51204,-4.040068 -7.54878,-6.663356 l 0.42067,0.221282 c 2.30789,1.44998 4.82607,3.602848 7.46588,5.584127 1.0228,0.774774 2.07495,1.521931 3.13796,2.186075 l 1.01242,0.641918 -0.60274,0.127581 c -0.0428,0.0053 -0.0619,0.0053 -0.1047,0.0053"
       id="path3954"
       style="fill:#edc8a4;stroke-width:5.53433514" />
    <path
       d="m 70.400398,69.682178 c 3.20976,2.014528 6.81269,5.384895 10.60378,7.770202 0.72585,-0.08365 1.43286,-0.935408 0.2722,-1.400198 2.48472,0.52583 2.6232,-1.156719 1.82602,-1.438884 0.92462,0.04379 1.46626,-1.483238 0.0619,-1.909321 1.19021,0.144285 0.94551,-0.974117 -0.019,-1.494321 -3.27648,-1.732364 -7.08951,-2.484924 -10.76439,-1.970192 -0.66522,0.09417 -1.33459,0.226944 -1.97045,0.442801"
       id="path3956"
       style="fill:#ffd7b0;stroke-width:5.53433514" />
    <path
       d="m 79.581838,68.868616 -0.33311,-0.929765 -1.0521,0.343058 c -0.85767,0.603235 -1.90978,0.929765 -2.96089,0.907593 l -0.42685,0.05429 -0.14657,0.359759 0.29266,0.14852 c 0.59165,0.104595 1.17974,0.215857 1.77163,0.326497 0.60274,0.110827 1.23417,0.215855 1.80936,0 0.52099,-0.198725 0.92457,-0.669545 1.04587,-1.211944"
       id="path3958"
       style="fill:#ffd7b0;stroke-width:5.53433514" />
    <path
       d="m 82.343428,23.636491 c -2.8668,-2.296745 -6.95108,-2.966383 -10.39906,-1.704535 -3.4478,1.261924 -6.131865,4.410867 -6.834967,8.019241 -0.167031,0.808038 -0.228419,1.632587 -0.477109,2.418511 -0.248883,0.785851 -0.725802,1.544103 -1.462121,1.903876 3.497762,0.691734 7.205767,0.282146 10.476537,-1.151069 1.66084,-0.724988 3.1933,-1.704539 4.72085,-2.678618 1.30522,-0.830199 2.61782,-1.665841 3.92381,-2.495978 0.54773,-0.354097 1.13382,-0.74151 1.37223,-1.344765 0.43114,-1.079118 -0.41401,-2.241424 -1.32203,-2.966416"
       id="path3960"
       style="fill:#8e7d6b;stroke-width:5.53433514" />
    <path
       d="m 56.232371,112.37956 1.223612,-2.22479 21.871885,12.03165 -1.22361,2.22478 -21.871887,-12.03164"
       id="path4272"
       style="fill:#69696a;stroke-width:5.53433514" />
    <path
       d="m 30.885185,179.53319 -1.460074,-0.18821 26.681153,-68.19964 c 0.248882,-0.63085 0.773912,-1.10129 1.173408,-1.05149 h 0.01428 c 0.399258,0.0542 0.520986,0.60865 0.272199,1.23974 l -26.681062,68.19962"
       id="path4274"
       style="fill:#69696a;stroke-width:5.53433514" />
    <path
       d="m 27.658622,179.11813 c -0.796897,2.02561 -0.320262,3.81867 1.062673,3.99578 1.378413,0.18198 3.137954,-1.31716 3.934898,-3.34828 0.796897,-2.03106 0.320263,-3.82422 -1.062576,-4.00132 -1.378462,-0.18197 -3.143618,1.3228 -3.934995,3.35382"
       id="path4276"
       style="fill:#606060;stroke-width:5.53433514" />
    <path
       d="m 28.914926,179.27862 c -0.39307,1.00716 -0.146092,1.89824 0.525222,1.98671 0.685828,0.0877 1.560436,-0.65847 1.959884,-1.66584 0.39307,-1.00716 0.146569,-1.8928 -0.531171,-1.98128 -0.679688,-0.0877 -1.554153,0.65305 -1.953696,1.66041"
       id="path4278"
       style="fill:#d6d6d6;stroke-width:5.53433514" />
    <path
       d="m 46.098988,185.49367 25.95616,-47.16914 -21.866174,-12.03164 -0.554582,-0.0711 c -5.783381,-0.7526 -13.155226,5.5288 -16.486956,14.03506 l -0.497714,1.27846 -9.701576,24.79383 c -1.217427,3.12136 -0.796993,5.93834 0.880554,6.93451 l 22.270098,12.23086"
       id="path4280"
       style="fill:#eb766c;stroke-width:5.53433514" />
    <path
       d="m 71.507088,138.25259 0.54844,0.0711 -18.844332,48.17083 -6.453171,-0.83563 c -2.529028,-0.32645 -3.381412,-3.60285 -1.936899,-7.29425 l 9.701814,-24.79935 0.497715,-1.27845 c 3.326067,-8.50628 10.703289,-14.78221 16.486713,-14.03509"
       id="path4282"
       style="fill:#ef556c;stroke-width:5.53433514" />
    <path
       d="m 52.756737,191.57036 -1.462072,-0.1882 26.681203,-68.20515 c 0.24888,-0.63085 0.77386,-1.10128 1.17331,-1.0515 l 0.0143,0.006 c 0.39735,0.0503 0.52522,0.60323 0.27648,1.23976 l -26.68101,68.19954"
       id="path4284"
       style="fill:#69696a;stroke-width:5.53433514" />
    <path
       d="m 49.209389,178.67537 3.060435,0.39302 c 1.018653,0.13176 2.313456,-0.96845 2.894498,-2.46275 l 5.379364,-13.74177 c 0.581325,-1.49433 0.232225,-2.81144 -0.78029,-2.93872 l -3.066097,-0.39845 c -1.012373,-0.13175 -2.307747,0.96846 -2.89426,2.46276 l -5.373844,13.74177 c -0.587513,1.49431 -0.238412,2.81142 0.780194,2.94426"
       id="path4286"
       style="fill:#de3c52;stroke-width:5.53433514" />
    <path
       d="m 26.274973,166.84849 7.952981,-19.09899 15.1971,8.36239 -8.511607,18.79461 -14.638474,-8.05801"
       id="path4288"
       style="fill:#de3c52;stroke-width:5.53433514" />
    <path
       d="m 31.27816,150.31188 -5.373796,13.73071 c -0.585514,1.49977 -0.238413,2.81144 0.780194,2.94426 l 0.303131,0.0395 7.487861,-19.13772 -0.30313,-0.0395 c -1.018654,-0.13389 -2.313409,0.96847 -2.894497,2.46275"
       id="path4290"
       style="fill:#de3c52;stroke-width:5.53433514" />
    <path
       d="m 46.220811,158.53591 -5.373843,13.73068 c -0.581375,1.49977 -0.232703,2.81147 0.780193,2.94429 l 0.310269,0.0395 7.487958,-19.13772 -0.310269,-0.0395 c -1.018702,-0.13176 -2.307747,0.96845 -2.894499,2.46275"
       id="path4292"
       style="fill:#eb766c;stroke-width:5.53433514" />
    <path
       d="m 49.524893,191.14977 c -0.790711,2.03104 -0.315979,3.82422 1.062529,4.00133 1.382601,0.17779 3.143475,-1.3228 3.940419,-3.35383 0.790664,-2.03104 0.315979,-3.81867 -1.062625,-4.00132 -1.384695,-0.17779 -3.143475,1.3228 -3.940323,3.35382"
       id="path4294"
       style="fill:#606060;stroke-width:5.53433514" />
    <path
       d="m 50.786574,191.31578 c -0.39307,1.00716 -0.167031,1.8928 0.525175,1.98127 0.685828,0.0877 1.560388,-0.65304 1.953696,-1.66019 0.393071,-1.00717 0.167031,-1.89823 -0.525173,-1.98691 -0.685829,-0.0877 -1.560436,0.65304 -1.953698,1.66583"
       id="path4296"
       style="fill:#d6d6d6;stroke-width:5.53433514" />
    <path
       d="m 175.78514,83.601027 -10.97463,30.372433 c 0,1.78213 -1.25716,3.95152 -2.78933,4.83146 l -38.59092,34.95487 c -5.76658,-3.32613 -11.22912,-6.51943 -11.72718,-6.76849 -0.54845,-0.27677 -0.88483,-0.9187 -0.88483,-1.84846 l -0.004,-35.36995 c 0,-1.78215 1.25707,-3.95151 2.7947,-4.837 l 8.00813,-4.62671 5.61193,-3.23758 19.66336,-11.356455 15.12542,-8.727648 c 0.79691,-0.464977 1.52275,-0.492597 2.03109,-0.161084 0.47063,0.30432 5.08593,2.933195 11.73821,6.774023"
       id="path4298"
       style="fill:#45645d;stroke-width:5.53433514" />
    <path
       d="m 173.80932,84.680226 -48.4088,27.948374 c -1.12331,0.64762 -2.03113,2.21927 -2.02484,3.50877 v 35.37548 c 0,1.29498 0.90153,1.81519 2.02484,1.17325 l 48.4088,-27.95394 c 1.11688,-0.64193 2.02469,-2.21373 2.02469,-3.50878 V 85.847932 c 0,-1.289548 -0.90781,-1.815197 -2.02469,-1.167811"
       id="path4300"
       style="fill:#43a3a0;stroke-width:5.53433514" />
    <path
       d="m 175.07666,86.290705 -0.004,35.381015 c 0,0.80239 -0.56491,1.77649 -1.25711,2.1805 l -9.51351,5.49009 -5.61187,3.24312 -19.65809,11.34539 -5.62272,3.24312 -8.0138,4.6267 c -0.69234,0.40387 -1.26124,0.0774 -1.25711,-0.72499 v -35.38101 c 0,-0.79695 0.56491,-1.78215 1.26135,-2.18607 l 8.01375,-4.6267 5.61169,-3.2376 19.65797,-11.35091 5.61183,-3.24312 9.51361,-5.490072 c 0.69653,-0.393023 1.26126,-0.06667 1.26749,0.730427 z m -1.26767,-2.495984 -9.51327,5.490059 -5.61183,3.24313 -19.65799,11.35092 -5.61191,3.23757 -8.01371,4.63226 c -1.53736,0.87998 -2.79481,3.05494 -2.79481,4.83146 l 0.004,35.37549 c 0,1.78213 1.25088,2.5015 2.78937,1.61041 l 48.41442,-27.94838 c 1.53744,-0.88541 2.78929,-3.05496 2.78929,-4.83701 V 85.410691 c 0,-1.782139 -1.25084,-2.507066 -2.795,-1.616055"
       id="path4302"
       style="fill:#53756e;stroke-width:5.53433514" />
    <path
       d="m 139.02614,103.87883 -5.61193,3.23757 v 1.76541 l -0.004,6.4973 0.28838,-0.94086 1.80936,-3.10476 c 0.40306,-0.59216 0.95798,-0.91868 1.36585,-0.79694 l 1.85957,0.99064 0.29267,0.61979 v -8.26814"
       id="path4304"
       style="fill:#5a9ba5;stroke-width:5.53433514" />
    <path
       d="m 139.02614,144.83844 v -32.69131 l -0.29265,-0.61435 -1.85948,-0.9963 c -0.40401,-0.1213 -0.96221,0.20501 -1.36171,0.79694 l -1.82192,3.10476 -0.28268,0.94628 v 32.69133 l 5.61729,-3.23759"
       id="path4306"
       style="fill:#59b1bf;stroke-width:5.53433514" />
    <path
       d="m 139.02614,114.33318 v -2.18605 l -0.29265,-0.61435 -1.85948,-0.9963 c -0.40401,-0.1213 -0.96221,0.20501 -1.36171,0.79694 l -1.82192,3.10476 -0.28268,0.94628 v 2.19161 l 5.61729,-3.24312"
       id="path4308"
       style="fill:#59b1bf;stroke-width:5.53433514" />
    <path
       d="m 134.27207,118.06886 3.89065,-2.24694 0.29266,0.16109 v 4.34445 l -0.29266,0.50374 -3.89065,2.24695 -0.28837,-0.16528 v -4.35141 z m 4.75407,-3.73568 -0.85761,0.16109 -3.89626,2.24694 -0.85757,0.8302 -0.004,0.006 c -0.3431,0.49804 -0.57111,1.11238 -0.5752,1.64932 l 0.004,4.34997 c 0,0.53698 0.21558,0.88542 0.57105,0.99064 h 0.004 l 0.85757,-0.16526 3.8906,-2.24695 0.8639,-0.84129 c 0.3531,-0.49804 0.58137,-1.10692 0.57105,-1.64367 l 0.004,-4.34444 c 0.004,-0.54783 -0.2327,-0.8965 -0.57518,-0.99063"
       id="path4310"
       style="fill:#afc4d5;stroke-width:5.53433514" />
    <path
       d="m 164.29595,89.28478 -5.61188,3.24313 0.004,0.88543 -0.004,0.005 v 0.87434 l 0.004,6.49732 0.27649,-0.94086 1.81565,-3.11029 c 0.40306,-0.59217 0.96217,-0.91325 1.36171,-0.79151 l 1.8699,0.99064 0.28266,0.61979 v -7.38255 l 0.004,-0.006 -0.004,-0.88542"
       id="path4312"
       style="fill:#5a9ba5;stroke-width:5.53433514" />
    <path
       d="M 164.30138,130.24439 V 97.55862 l -0.29267,-0.61979 -1.85952,-0.99629 c -0.4102,-0.1172 -0.96844,0.20501 -1.36585,0.79694 l -1.81564,3.1103 -0.28268,0.94086 v 32.69684 l 5.61731,-3.24312"
       id="path4314"
       style="fill:#59b1bf;stroke-width:5.53433514" />
    <path
       d="m 164.30138,99.74467 v -2.18605 l -0.29267,-0.61979 -1.85952,-0.99629 c -0.4102,-0.1172 -0.96844,0.20501 -1.36585,0.79694 l -1.81564,3.1103 -0.28268,0.94086 v 2.1916 l 5.61731,-3.23761"
       id="path4316"
       style="fill:#59b1bf;stroke-width:5.53433514" />
    <path
       d="m 163.43815,101.22234 0.29265,0.16527 -0.004,4.34997 -0.28838,0.49804 -3.89068,2.24696 -0.28838,-0.16527 v -4.34449 l 0.28266,-0.49804 z m 0.86384,-1.47759 -0.004,-0.005 -0.85348,0.16108 -3.8962,2.25246 -0.85757,0.81913 -0.004,0.0109 c -0.3493,0.49804 -0.57515,1.11237 -0.56906,1.65475 v 4.34446 c 0,0.54241 0.22604,0.8965 0.56906,0.99064 l 0.86389,-0.16109 3.89631,-2.24694 0.85343,-0.8302 0.004,-0.005 c 0.34929,-0.50364 0.57509,-1.11802 0.57509,-1.65475 l 0.004,-4.34446 c -0.004,-0.54241 -0.23222,-0.89107 -0.58127,-0.9852"
       id="path4318"
       style="fill:#afc4d5;stroke-width:5.53433514" />
    <path
       d="m 138.05764,96.69526 c 0.35359,0.205 1.02913,-0.34867 1.56673,-1.15673 3.44237,-5.21887 8.26267,-8.00263 11.70504,-6.75741 0.5374,0.18821 1.2111,-0.0395 1.56667,-0.65305 0.35358,-0.61436 0.16703,-1.444532 -0.49349,-1.676929 -4.07317,-1.472143 -9.77909,1.820849 -13.85233,7.997119 -0.65279,0.99064 -0.84719,2.04214 -0.49347,2.24694"
       id="path4320"
       style="fill:#9cafbe;stroke-width:5.53433514" />
  </g>
</svg>
