<?xml version="1.0" encoding="UTF-8" standalone="no"?>
<svg
   xmlns:dc="http://purl.org/dc/elements/1.1/"
   xmlns:cc="http://creativecommons.org/ns#"
   xmlns:rdf="http://www.w3.org/1999/02/22-rdf-syntax-ns#"
   xmlns:svg="http://www.w3.org/2000/svg"
   xmlns="http://www.w3.org/2000/svg"
   viewBox="0 0 3200 3200"
   height="3200"
   width="3200"
   xml:space="preserve"
   id="svg2"
   version="1.1"><metadata
     id="metadata8"><rdf:RDF><cc:Work
         rdf:about=""><dc:format>image/svg+xml</dc:format><dc:type
           rdf:resource="http://purl.org/dc/dcmitype/StillImage" /></cc:Work></rdf:RDF></metadata><defs
     id="defs6"><clipPath
       id="clipPath20"
       clipPathUnits="userSpaceOnUse"><path
         id="path18"
         d="M 0,2400 H 2400 V 0 H 0 Z" /></clipPath></defs><g
     transform="matrix(1.3333333,0,0,-1.3333333,0,3200)"
     id="g10"><path
       id="path12"
       style="fill:#e7e8e9;fill-opacity:1;fill-rule:nonzero;stroke:none"
       d="M 0,0 H 2400 V 2400 H 0 Z" /><g
       id="g14"><g
         clip-path="url(#clipPath20)"
         id="g16"><g
           transform="translate(544.1377,1818.2256)"
           id="g22"><path
             id="path24"
             style="fill:#231f20;fill-opacity:1;fill-rule:nonzero;stroke:none"
             d="m 0,0 c -16.568,0 -30,-13.432 -30,-30 0,-16.568 13.432,-30 30,-30 16.568,0 30,13.432 30,30 C 30,-13.432 16.568,0 0,0 m 175.095,-77.358 c -28.604,-21.173 -59.805,-36.46 -93.308,-45.77 25.866,22.743 42.22,56.06 42.22,93.128 0,37.068 -16.354,70.384 -42.218,93.127 33.702,-9.365 65.072,-24.776 93.81,-46.146 24.016,-17.859 40.473,-35.924 49.455,-46.987 -9.033,-11.131 -25.641,-29.352 -49.959,-47.352 M 0,-114.007 c -46.322,0 -84.007,37.685 -84.007,84.007 0,46.322 37.685,84.007 84.007,84.007 46.322,0 84.007,-37.685 84.007,-84.007 0,-46.322 -37.685,-84.007 -84.007,-84.007 m -175.255,36.772 c -24.219,17.954 -40.784,36.131 -49.806,47.245 17.713,21.819 64.664,70.885 143.023,92.895 -25.72,-22.738 -41.969,-55.957 -41.969,-92.905 0,-37.067 16.353,-70.383 42.218,-93.126 -33.565,9.328 -64.819,24.655 -93.466,45.891 m 442.09,58.032 c -0.891,1.389 -22.316,34.391 -65.874,67.165 C 175.494,67.124 147.557,82.395 117.927,93.35 80.941,107.026 41.265,113.96 0,113.96 c -41.264,0 -80.939,-6.934 -117.925,-20.61 -29.63,-10.955 -57.567,-26.226 -83.034,-45.388 -43.559,-32.774 -64.985,-65.775 -65.876,-67.164 -2.066,-3.222 -3.165,-6.97 -3.165,-10.798 0,-4.901 0,-9.531 20.006,-32.508 14.141,-16.242 31.1,-31.961 49.042,-45.46 40.018,-30.106 107.365,-65.993 200.952,-65.993 93.589,0 160.936,35.885 200.952,65.989 17.943,13.499 34.902,29.219 49.043,45.46 C 270,-39.535 270,-34.903 270,-30 c 0,3.828 -1.099,7.575 -3.165,10.797" /></g><g
           transform="translate(719.2334,1145.9766)"
           id="g26"><path
             id="path28"
             style="fill:#231f20;fill-opacity:1;fill-rule:nonzero;stroke:none"
             d="m 0,0 c -50.742,-37.559 -109.652,-56.604 -175.096,-56.604 -65.514,0 -124.478,19.086 -175.254,56.726 -24.21,17.947 -40.771,36.116 -49.795,47.232 8.992,11.075 25.445,29.132 49.452,46.984 17.405,12.942 35.776,23.699 55.046,32.252 -2.276,-9.463 -3.456,-19.247 -3.456,-29.233 0,-68.378 55.63,-124.007 124.007,-124.007 68.378,0 124.007,55.629 124.007,124.007 0,9.946 -1.171,19.693 -3.43,29.121 1.842,-0.817 3.675,-1.655 5.501,-2.511 -0.43,-3.3 -0.67,-6.596 -0.67,-9.883 0,-33.328 27.019,-59.435 61.51,-59.435 9.654,0 18.72,2.048 26.775,5.725 C 43.193,55.455 46.998,51.019 49.965,47.36 40.933,36.229 24.322,18.004 0,0 m -245.352,143.429 c 22.457,5.246 45.902,7.888 70.256,7.888 24.272,0 47.759,-2.678 70.32,-7.982 8.971,-13.651 13.687,-29.413 13.687,-45.978 0,-46.322 -37.685,-84.007 -84.007,-84.007 -46.321,0 -84.007,37.685 -84.007,84.007 0,16.604 4.74,32.4 13.751,46.072 M 11.82,157.271 c 10.19,-11.096 21.511,-27.368 21.511,-43.187 0,-12.759 -10.82,-19.435 -21.509,-19.435 -10.689,0 -21.51,6.676 -21.51,19.435 0,15.823 11.329,32.102 21.508,43.187 M 91.739,58.155 c -0.407,0.635 -8.452,13.068 -24.354,30.008 3.819,7.795 5.946,16.573 5.946,25.921 0,20.627 -8.478,41.575 -25.2,62.263 -11.511,14.241 -22.813,23.147 -24.064,24.115 -7.209,5.583 -17.281,5.583 -24.49,0 -1.251,-0.968 -12.554,-9.874 -24.064,-24.115 -3.974,-4.916 -7.467,-9.847 -10.506,-14.785 -43.237,19.755 -90.267,29.755 -140.103,29.755 -29.779,0 -58.724,-3.631 -86.435,-10.781 -0.446,-0.095 -0.886,-0.216 -1.325,-0.341 -10.23,-2.685 -20.296,-5.839 -30.165,-9.487 -29.629,-10.957 -57.566,-26.228 -83.034,-45.389 -43.558,-32.773 -64.985,-65.775 -65.875,-67.164 -2.067,-3.222 -3.166,-6.969 -3.166,-10.798 0,-4.901 0,-9.531 20.006,-32.507 14.142,-16.242 31.101,-31.962 49.043,-45.46 40.017,-30.106 107.364,-65.994 200.951,-65.994 93.589,0 160.936,35.886 200.952,65.99 17.944,13.499 34.902,29.218 49.043,45.46 20.005,22.977 20.005,27.608 20.005,32.511 0,3.829 -1.098,7.576 -3.165,10.798 m -266.835,9.202 c 16.569,0 30,13.432 30,30 0,16.569 -13.431,30 -30,30 -16.568,0 -30,-13.431 -30,-30 0,-16.568 13.432,-30 30,-30" /></g><g
           transform="translate(2082.2275,963.8232)"
           id="g30"><path
             id="path32"
             style="fill:#231f20;fill-opacity:1;fill-rule:nonzero;stroke:none"
             d="m 0,0 c -10.689,0 -21.51,6.676 -21.51,19.435 0,15.82 11.324,32.094 21.501,43.179 C 10.096,51.573 21.509,35.218 21.509,19.435 21.509,6.676 10.688,0 0,0 m 36.309,81.697 c -11.511,14.241 -22.813,23.148 -24.064,24.116 -7.206,5.581 -17.278,5.583 -24.49,0 -1.251,-0.968 -12.553,-9.875 -24.064,-24.115 C -53.031,61.01 -61.51,40.062 -61.51,19.435 -61.51,-13.894 -34.491,-40 0,-40 c 34.491,0 61.509,26.106 61.509,59.435 0,20.627 -8.479,41.575 -25.2,62.262 m -272.886,91.991 -20.441,11.8 89.761,155.471 20.441,-11.802 z m -189.109,109.181 89.761,155.47 134.027,-77.38 -89.761,-155.471 z m -55.081,31.801 89.76,155.471 20.442,-11.802 -89.762,-155.47 z M 4.141,131.266 10.28,141.9 c 2.75,4.763 1.164,11.015 -3.523,13.892 l -57.485,37.968 10.338,17.908 -28.312,16.347 2.93,5.074 c 2.75,4.763 1.102,10.91 -3.661,13.66 l -59.081,34.11 19.369,33.548 c 9.357,16.206 3.785,37.004 -12.42,46.36 l -254.693,147.046 c -16.206,9.357 -37.002,3.784 -46.358,-12.422 L -518.44,329.418 c -9.356,-16.205 -3.784,-37.001 12.421,-46.357 l 254.693,-147.046 c 16.205,-9.357 37.001,-3.785 46.357,12.421 l 19.37,33.549 59.081,-34.11 c 4.763,-2.75 10.911,-1.103 13.661,3.66 l 2.93,5.076 28.314,-16.346 10.337,17.904 61.623,-30.8 c 4.837,-2.619 11.044,-0.866 13.794,3.897" /></g><g
           transform="translate(1293.1709,524.6309)"
           id="g34"><path
             id="path36"
             style="fill:#231f20;fill-opacity:1;fill-rule:nonzero;stroke:none"
             d="m 0,0 v 4.4 h -24.451 v -6.3 h 14.6 v -0.151 l -16.05,-23.151 v -4.101 H 0.25 v 6.301 h -15.951 v 0.2 z m -49.58,96.501 c 1.101,0.3 3.2,0.5 6.301,0.5 7.7,0 11.9,-3.7 11.9,-9.9 0,-6.8 -5,-10.902 -13.1,-10.902 -2.201,0 -3.801,0.101 -5.101,0.401 z M -64.681,40.697 h 15.101 v 24.202 c 1.4,-0.299 3.2,-0.4 5.2,-0.4 9.001,0 16.802,2.3 22.002,7.101 4,3.7 6.1,9.3 6.1,16.001 0,6.6 -2.8,12.2 -7.1,15.501 -4.501,3.7 -11.301,5.5 -20.702,5.5 -9.3,0 -15.9,-0.6 -20.601,-1.401 z m -87.398,27.102 h 24.201 V 80.2 h -24.201 v 15.402 h 25.901 v 12.5 H -167.28 V 40.697 h 15.201 z m 104.297,87.898 h -55.399 v 32 h 49.599 v 24.799 h -49.599 v 28 h 52.599 v 25 h -82.999 V 130.697 h 85.799 z m -131.278,-185 h 7.601 V -2 h 9.2 V 4.4 H -188.16 V -2 h 9.1 z M 61.829,-104.631 H -248.17 V 287.034 H 61.829 Z m 25,461.619 H -273.17 c -16.542,0 -30,-13.459 -30,-30 v -9.954 c 0,-11.079 6.042,-20.768 15,-25.964 v -405.701 c 0,-16.541 13.458,-30 30,-30 H 71.829 c 16.542,0 30,13.459 30,30 V 291.07 c 8.958,5.196 15,14.885 15,25.964 v 9.954 c 0,16.541 -13.458,30 -30,30 M -185.434,-76.104 h -6.698 v 13.647 h -3.799 v -16.846 h 10.497 z m 120.602,3.924 h 6.198 v 3.1 h -6.198 v 3.5 h 6.573 v 3.123 h -10.372 v -16.846 h 10.723 v 3.125 h -6.924 z m 70.397,1.576 c 0,-4.025 -2.274,-5.923 -5.748,-5.899 -0.45,0 -1,0 -1.325,0.075 v 11.022 c 0.325,0.076 0.901,0.15 1.725,0.15 3.3,0 5.348,-1.724 5.348,-5.348 m -10.872,7.897 v -16.52 c 0.925,-0.125 2.35,-0.25 4.325,-0.25 3.298,0 6.023,0.7 7.797,2.174 1.6,1.375 2.775,3.6 2.775,6.824 0,2.999 -1.1,5.098 -2.85,6.398 -1.599,1.225 -3.699,1.749 -6.923,1.749 -1.899,0 -3.724,-0.125 -5.124,-0.375 M -95,-23.802 h -0.05 c -5.1,0 -8.15,4.95 -8.15,11.3 0,6.301 2.95,11.401 8.2,11.401 5.25,0 8.101,-5.2 8.101,-11.251 0,-6.599 -2.951,-11.45 -8.101,-11.45 m 0.2,28.751 c -9.9,0 -16.401,-7.55 -16.401,-17.65 0,-9.601 5.9,-17.151 15.851,-17.151 h 0.05 c 9.851,0 16.501,6.651 16.501,17.75 0,9.301 -5.65,17.051 -16.001,17.051 m -33.333,-75.379 c -0.55,0 -0.949,0.026 -1.274,0.1 v 4.975 c 0.274,0.074 0.8,0.125 1.574,0.125 1.925,0 2.975,-0.925 2.975,-2.475 0,-1.699 -1.25,-2.725 -3.275,-2.725 m 5.274,6.724 c -1.124,0.925 -2.825,1.374 -5.174,1.374 -2.324,0 -3.974,-0.149 -5.149,-0.35 v -16.621 h 3.775 v 6.049 c 0.349,-0.074 0.8,-0.1 1.3,-0.1 2.249,0 4.198,0.575 5.498,1.775 1,0.925 1.525,2.324 1.525,3.999 0,1.649 -0.7,3.049 -1.775,3.874" /></g><g
           transform="translate(1666.5859,1796.124)"
           id="g38"><path
             id="path40"
             style="fill:#231f20;fill-opacity:1;fill-rule:nonzero;stroke:none"
             d="M 0,0 53.593,133.876 H 98.11 c 11.046,0 20,8.954 20,20 0,11.046 -8.954,20 -20,20 H 40.056 c -8.176,0 -15.53,-4.977 -18.568,-12.567 L -45.945,-7.143 c 6.667,1.893 14.833,3.59 24.988,4.973 C -14.537,-1.295 -7.48,-0.568 0,0 m 405.145,-141.72 c -7.165,-3.434 -34.131,-7.953 -75.389,-7.953 -41.221,0 -68.175,4.511 -75.369,7.944 -2.471,3.821 -6.908,17.447 -6.908,40.119 0,22.74 4.464,36.38 6.888,40.107 7.164,3.435 34.129,7.954 75.385,7.954 41.223,0 68.178,-4.511 75.371,-7.943 2.471,-3.821 6.908,-17.447 6.908,-40.118 0,-22.742 -4.463,-36.382 -6.886,-40.11 m -289.699,0 c -7.164,-3.434 -34.131,-7.953 -75.389,-7.953 -41.22,0 -68.175,4.511 -75.37,7.944 -2.47,3.821 -6.906,17.447 -6.906,40.119 0,22.74 4.463,36.381 6.887,40.107 7.164,3.435 34.13,7.954 75.386,7.954 41.221,0 68.176,-4.511 75.371,-7.943 2.471,-3.821 6.907,-17.447 6.907,-40.118 0,-22.742 -4.463,-36.382 -6.886,-40.11 m 317.527,109.115 c -5.147,5.147 -14.827,11.569 -44.229,15.574 -16.488,2.245 -37.439,3.482 -58.992,3.482 -21.547,0 -42.496,-1.237 -58.985,-3.483 -29.404,-4.005 -39.082,-10.427 -44.23,-15.574 -12.512,-12.512 -16.902,-35.381 -18.367,-52.704 h -46.528 c -1.466,17.322 -5.856,40.192 -18.368,52.705 -5.147,5.147 -14.827,11.569 -44.228,15.574 -16.489,2.245 -37.44,3.482 -58.992,3.482 -21.548,0 -42.496,-1.237 -58.987,-3.483 -29.402,-4.005 -39.082,-10.427 -44.229,-15.574 -17.2,-17.202 -19.057,-53.989 -19.057,-69.006 0,-15.018 1.858,-51.805 19.058,-69.005 5.147,-5.148 14.826,-11.57 44.228,-15.573 16.491,-2.247 37.44,-3.483 58.99,-3.483 21.549,0 42.499,1.236 58.989,3.483 29.402,4.003 39.081,10.425 44.229,15.573 10.795,10.796 15.545,29.305 17.586,45.307 h 48.089 c 2.041,-16.002 6.791,-34.511 17.587,-45.307 5.148,-5.147 14.827,-11.57 44.23,-15.573 16.489,-2.247 37.438,-3.483 58.989,-3.483 21.549,0 42.498,1.236 58.988,3.483 29.402,4.003 39.082,10.425 44.231,15.573 17.199,17.2 19.056,53.987 19.056,69.005 0,15.017 -1.857,51.804 -19.058,69.007 M 271.702,133.876 h 44.517 L 369.813,0 c 7.48,-0.568 14.537,-1.295 20.957,-2.17 10.154,-1.383 18.32,-3.08 24.988,-4.973 l -67.434,168.452 c -3.039,7.59 -10.392,12.567 -18.568,12.567 h -58.054 c -11.046,0 -20,-8.954 -20,-20 0,-11.046 8.954,-20 20,-20" /></g><g
           transform="translate(1774.1689,818.249)"
           id="g42"><path
             id="path44"
             style="fill:#231f20;fill-opacity:1;fill-rule:nonzero;stroke:none"
             d="m 0,0 -28.285,28.285 c -52.882,-52.883 -83.939,-121.764 -88.694,-195.725 h -154.207 v -40 h 154.207 c 4.756,-73.962 35.813,-142.843 88.695,-195.724 L 0,-374.879 c -50.067,50.066 -77.641,116.634 -77.641,187.44 0,70.804 27.574,137.373 77.641,187.439 m -123.752,-263.477 c -6.928,4.545 -16.227,2.615 -20.77,-4.313 l -27.772,-42.329 c -4.544,-6.927 -2.613,-16.226 4.314,-20.771 2.537,-1.664 5.391,-2.46 8.214,-2.46 4.885,0 9.676,2.384 12.556,6.774 l 27.772,42.329 c 4.543,6.927 2.613,16.226 -4.314,20.77 m 411.199,40.116 c 5.381,-6.298 14.849,-7.04 21.149,-1.66 l 30.536,26.089 42.035,-31.308 c -19.623,-88.888 -99.025,-155.59 -193.727,-155.59 -10.528,0 -20.865,0.834 -30.954,2.42 l 42.933,56.787 c 2.934,3.88 3.804,8.941 2.334,13.578 l -4.398,13.876 36.686,23.202 c 3.859,2.442 6.397,6.508 6.894,11.047 l 7.497,68.544 c 0.9,8.235 -5.045,15.642 -13.281,16.542 -8.243,0.907 -15.641,-5.045 -16.542,-13.28 l -6.711,-61.361 -23.915,-15.126 -11.921,37.62 c -2.503,7.896 -10.931,12.268 -18.832,9.766 -7.896,-2.503 -12.269,-10.933 -9.766,-18.831 l 23.349,-73.671 -46.081,-60.949 c -30.696,10.254 -58.073,27.817 -80.058,50.619 19.191,11.686 35.787,27.28 48.768,46.042 18.671,26.982 28.539,58.645 28.539,91.565 0,32.92 -9.868,64.584 -28.539,91.565 -12.981,18.761 -29.576,34.356 -48.767,46.042 35.889,37.223 86.151,60.491 141.755,60.771 l -41.215,-58.525 c -2.944,-4.18 -3.556,-9.57 -1.625,-14.304 l 11.896,-29.153 c 0.015,-0.037 0.03,-0.074 0.045,-0.109 l 18.034,-44.197 c 2.373,-5.815 7.979,-9.337 13.895,-9.337 1.887,0 3.806,0.359 5.661,1.116 7.671,3.13 11.352,11.885 8.222,19.555 l -9.688,23.741 h 37.5 l 21.371,-36.922 c 2.782,-4.804 7.819,-7.489 12.996,-7.489 2.551,0.001 5.135,0.652 7.501,2.021 7.17,4.15 9.618,13.327 5.468,20.497 l -25.704,44.407 c -2.682,4.633 -7.629,7.486 -12.982,7.486 h -58.391 l -4.947,12.123 46.642,66.231 c 93.412,-16.037 164.722,-97.601 164.722,-195.519 0,-2.921 -0.076,-5.825 -0.202,-8.715 l -38.179,28.434 c -5.617,4.184 -13.379,3.923 -18.704,-0.626 l -39.638,-33.866 c -6.298,-5.381 -7.043,-14.85 -1.661,-21.148 M -7.6,-223.79 c 13.922,6.19 23.635,20.132 23.635,36.351 0,16.218 -9.713,30.16 -23.635,36.35 4.679,25.156 14.117,48.659 27.346,69.537 38.259,-21.168 62.235,-61.219 62.235,-105.888 0,-44.669 -23.976,-84.721 -62.235,-105.888 C 6.517,-272.45 -2.922,-248.947 -7.6,-223.79 M 356.008,-18.873 C 310.981,26.153 251.117,50.95 187.44,50.95 123.765,50.95 63.899,26.153 18.873,-18.873 -26.152,-63.898 -50.949,-123.764 -50.949,-187.44 c 0,-63.676 24.797,-123.541 69.822,-168.568 45.026,-45.025 104.892,-69.822 168.567,-69.822 63.676,0 123.541,24.797 168.568,69.822 45.026,45.027 69.823,104.892 69.823,168.568 0,63.676 -24.797,123.542 -69.823,168.567 m -500.53,-88.217 c 2.88,-4.389 7.67,-6.773 12.555,-6.773 2.823,0 5.678,0.796 8.215,2.46 6.927,4.545 8.857,13.843 4.314,20.77 l -27.772,42.329 c -4.546,6.926 -13.844,8.857 -20.77,4.314 -6.927,-4.545 -8.858,-13.844 -4.314,-20.771 z m 16.119,-119.126 c -4.171,7.158 -13.354,9.58 -20.512,5.412 l -53.518,-31.172 c -7.158,-4.17 -9.581,-13.352 -5.412,-20.511 2.787,-4.784 7.813,-7.453 12.976,-7.453 2.563,0 5.161,0.658 7.536,2.041 l 53.518,31.171 c 7.158,4.17 9.581,13.353 5.412,20.512 m -74.03,103.312 53.518,-31.172 c 2.375,-1.383 4.972,-2.041 7.536,-2.041 5.163,0 10.19,2.67 12.976,7.453 4.169,7.159 1.746,16.342 -5.412,20.512 l -53.518,31.172 c -7.156,4.166 -16.342,1.747 -20.512,-5.413 -4.169,-7.159 -1.746,-16.341 5.412,-20.511" /></g><g
           transform="translate(1355.5391,1667.1113)"
           id="g46"><path
             id="path48"
             style="fill:#231f20;fill-opacity:1;fill-rule:nonzero;stroke:none"
             d="m 0,0 c -38.402,0 -74.926,18.528 -97.699,49.562 -3.768,5.134 -9.756,8.167 -16.125,8.167 h -83.43 c -6.369,0 -12.357,-3.033 -16.125,-8.167 C -236.15,18.527 -272.674,0 -311.077,0 c -66.782,0 -121.114,54.332 -121.114,121.115 0,66.782 54.332,121.114 121.114,121.114 38.829,0 75.591,-18.866 98.339,-50.465 3.758,-5.221 9.799,-8.316 16.23,-8.316 h 81.938 c 6.433,0 12.472,3.094 16.232,8.315 22.748,31.6 59.512,50.466 98.338,50.466 66.781,0 121.113,-54.332 121.113,-121.114 C 121.113,54.332 66.781,0 0,0 m 0,282.229 c -48.152,0 -93.908,-21.796 -124.393,-58.781 h -62.291 c -30.484,36.985 -76.239,58.781 -124.393,58.781 -88.839,0 -161.114,-72.276 -161.114,-161.114 0,-88.839 72.275,-161.115 161.114,-161.115 25.719,0 51.312,6.219 74.011,17.985 18.873,9.783 35.824,23.411 49.523,39.744 h 64.008 C -109.836,1.396 -92.883,-12.232 -74.012,-22.015 -51.313,-33.78 -25.721,-40 0,-40 88.838,-40 161.113,32.276 161.113,121.115 161.113,209.953 88.838,282.229 0,282.229" /></g><g
           transform="translate(1355.373,1821.3086)"
           id="g50"><path
             id="path52"
             style="fill:#231f20;fill-opacity:1;fill-rule:nonzero;stroke:none"
             d="M 0,0 C -4.523,0 -7.09,-0.244 -8.436,-0.611 V -23.229 H -1.1 c 9.291,0 14.793,4.646 14.793,11.86 C 13.693,-3.912 8.559,0 0,0" /></g><g
           transform="translate(1072.6631,1752.2354)"
           id="g54"><path
             id="path56"
             style="fill:#231f20;fill-opacity:1;fill-rule:nonzero;stroke:none"
             d="m 0,0 h -51.347 v 82.398 h 18.582 v -66.75 l 32.765,0 z m -28.201,134.771 c -54.556,0 -98.779,-44.225 -98.779,-98.78 0,-54.554 44.223,-98.779 98.779,-98.779 54.555,0 98.78,44.225 98.78,98.779 0,54.555 -44.225,98.78 -98.78,98.78" /></g><g
           transform="translate(1371.6328,1752.2354)"
           id="g58"><path
             id="path60"
             style="fill:#231f20;fill-opacity:1;fill-rule:nonzero;stroke:none"
             d="m 0,0 c -1.223,2.323 -3.301,9.047 -5.623,19.193 -2.324,10.392 -5.869,13.081 -13.57,13.204 h -5.502 V 0 h -18.461 v 81.177 c 5.992,1.099 14.793,1.833 24.818,1.833 12.225,0 20.783,-1.833 26.651,-6.602 5.013,-3.912 7.703,-9.658 7.703,-17.237 0,-10.392 -7.457,-17.605 -14.549,-20.172 V 38.632 C 7.213,36.31 10.391,30.93 12.471,23.351 15.037,13.937 17.482,3.179 19.072,0 Z m -16.094,134.771 c -54.554,0 -98.781,-44.225 -98.781,-98.78 0,-54.554 44.227,-98.779 98.781,-98.779 54.555,0 98.78,44.225 98.78,98.779 0,54.555 -44.225,98.78 -98.78,98.78" /></g><g
           transform="translate(699.8916,594.8877)"
           id="g62"><path
             id="path64"
             style="fill:#231f20;fill-opacity:1;fill-rule:nonzero;stroke:none"
             d="M 0,0 C 5.381,-6.298 14.849,-7.041 21.148,-1.66 L 51.685,24.43 93.72,-6.879 c -19.623,-88.887 -99.026,-155.59 -193.727,-155.59 -10.528,0 -20.865,0.832 -30.953,2.42 l 42.932,56.787 c 2.933,3.88 3.803,8.942 2.334,13.578 l -4.397,13.875 36.685,23.204 c 3.86,2.441 6.397,6.507 6.893,11.046 l 7.497,68.544 c 0.901,8.236 -5.045,15.642 -13.28,16.542 -8.227,0.901 -15.641,-5.045 -16.542,-13.28 l -6.711,-61.36 -23.914,-15.125 -11.923,37.618 c -2.502,7.896 -10.932,12.269 -18.83,9.766 -7.898,-2.502 -12.27,-10.933 -9.767,-18.831 l 23.348,-73.67 -46.08,-60.951 c -30.697,10.253 -58.073,27.82 -80.058,50.62 19.191,11.686 35.787,27.282 48.769,46.042 18.67,26.982 28.538,58.645 28.538,91.565 0,32.921 -9.868,64.583 -28.538,91.565 -12.982,18.762 -29.578,34.357 -48.769,46.042 35.89,37.224 86.152,60.493 141.755,60.772 l -41.215,-58.525 c -2.943,-4.179 -3.556,-9.57 -1.624,-14.303 l 11.89,-29.138 c 0.019,-0.045 0.036,-0.091 0.055,-0.137 l 18.031,-44.185 c 2.372,-5.816 7.978,-9.337 13.893,-9.337 1.887,0 3.807,0.358 5.662,1.115 7.67,3.13 11.351,11.886 8.221,19.556 l -9.687,23.74 h 37.5 L -36.92,86.164 c 2.78,-4.804 7.817,-7.488 12.996,-7.488 2.549,0.001 5.134,0.651 7.5,2.02 7.17,4.151 9.618,13.327 5.467,20.497 l -25.704,44.408 c -2.681,4.632 -7.629,7.485 -12.982,7.485 h -58.391 l -4.947,12.124 46.643,66.231 C 27.074,215.404 98.384,133.839 98.384,35.921 98.384,33 98.307,30.097 98.182,27.205 L 60.003,55.641 C 54.387,59.822 46.625,59.563 41.299,55.015 L 1.661,21.148 C -4.638,15.768 -5.381,6.299 0,0 m -295.047,-0.429 c 13.922,6.191 23.635,20.132 23.635,36.351 0,16.219 -9.713,30.16 -23.635,36.349 4.678,25.159 14.116,48.662 27.346,69.54 38.26,-21.17 62.235,-61.221 62.235,-105.89 0,-44.669 -23.975,-84.721 -62.236,-105.888 -13.229,20.878 -22.667,44.381 -27.345,69.538 m -28.807,-86.701 c -11.519,0 -34.098,37.157 -34.098,123.051 0,85.894 22.579,123.052 34.098,123.052 3.931,0 8.886,-3.297 14.003,-9.724 -18.639,-34.403 -28.545,-73.103 -28.545,-113.328 0,-40.222 9.904,-78.917 28.54,-113.317 -5.115,-6.423 -10.069,-9.734 -13.998,-9.734 m -65.892,40.237 c -13.023,21.874 -20.146,50.902 -20.146,82.814 0,31.912 7.123,60.939 20.146,82.814 -5.388,-23.874 -8.206,-51.979 -8.206,-82.814 0,-30.834 2.818,-58.941 8.206,-82.814 M 68.561,204.489 c -45.026,45.027 -104.892,69.824 -168.568,69.824 -63.676,0 -123.541,-24.797 -168.567,-69.824 -6.682,-6.682 -12.908,-13.7 -18.684,-21 -10.982,10.15 -23.38,15.484 -36.596,15.484 -37.88,0 -71.34,-17.894 -94.217,-50.385 -20.52,-29.143 -31.821,-69.155 -31.821,-112.667 0,-43.512 11.301,-83.525 31.821,-112.667 22.878,-32.49 56.338,-50.384 94.217,-50.384 13.216,0 25.614,5.335 36.595,15.484 5.777,-7.301 12.003,-14.318 18.685,-21 45.026,-45.026 104.891,-69.823 168.567,-69.823 63.676,0 123.542,24.797 168.568,69.823 45.026,45.026 69.823,104.891 69.823,168.567 0,63.677 -24.797,123.542 -69.823,168.568" /></g><g
           transform="translate(1304.1016,1182.4277)"
           id="g66"><path
             id="path68"
             style="fill:#231f20;fill-opacity:1;fill-rule:nonzero;stroke:none"
             d="m 0,0 c -85.895,0 -123.053,22.579 -123.053,34.098 0,14.284 43.434,42.088 123.053,42.088 79.617,0 123.049,-27.804 123.049,-42.088 C 123.049,22.579 85.893,0 0,0 m 0,-51.939 c -31.912,0 -60.939,7.122 -82.814,20.145 C -58.941,-37.183 -30.834,-40 0,-40 c 30.834,0 58.939,2.817 82.814,8.206 C 60.939,-44.817 31.912,-51.939 0,-51.939 m -163.053,86.037 c 0,-0.92 0.02,-1.835 0.04,-2.75 -11.827,-9.147 -26.186,-18.84 -43.426,-28.793 -74.387,-42.949 -117.856,-41.973 -123.616,-31.997 -7.141,12.37 16.572,58.166 85.523,97.974 68.951,39.81 120.468,37.447 127.608,25.076 0.133,-0.228 0.246,-0.477 0.35,-0.734 -30.045,-14.919 -46.479,-35.586 -46.479,-58.776 m -17.417,-76.525 c -27.636,-15.956 -56.336,-24.302 -81.792,-23.961 23.369,7.271 49.119,18.884 75.824,34.301 11.7,6.755 22.667,13.718 32.821,20.805 1.332,-3.013 2.803,-5.967 4.406,-8.858 -9.215,-8.096 -19.695,-15.611 -31.259,-22.287 M 109.113,96.347 C 79.639,109.141 40.889,116.186 0,116.186 c -27.965,0 -54.926,-3.3 -78.607,-9.476 -1.145,2.321 -2.362,4.624 -3.676,6.898 -12.522,21.691 -40.164,31.259 -77.834,26.942 -31.922,-3.657 -69.004,-16.932 -104.414,-37.376 -35.411,-20.445 -65.449,-45.921 -84.578,-71.739 -22.574,-30.463 -28.109,-59.187 -15.586,-80.877 18.939,-32.804 51.167,-52.835 90.743,-56.403 35.497,-3.199 75.801,7.022 113.483,28.778 13.328,7.695 25.557,16.403 36.475,25.866 3.551,-3.125 7.326,-6.103 11.326,-8.918 29.143,-20.52 69.156,-31.82 112.668,-31.82 43.512,0 83.523,11.3 112.666,31.82 32.49,22.877 50.383,56.338 50.383,94.217 0,25.046 -19.154,47.153 -53.936,62.249" /></g></g></g></g></svg>