<?xml version="1.0" encoding="UTF-8"?>
<!DOCTYPE svg PUBLIC "-//W3C//DTD SVG 1.1//EN" "http://www.w3.org/Graphics/SVG/1.1/DTD/svg11.dtd">
<svg version="1.1" xmlns="http://www.w3.org/2000/svg" xmlns:xlink="http://www.w3.org/1999/xlink" x="0" y="0" width="1849" height="1931" viewBox="0, 0, 1849, 1931">
  <g id="Background">
    <rect x="0" y="0" width="1849" height="1931" fill="#FFFFFF"/>
  </g>
  <defs>
    <clipPath id="Clip_1">
      <path d="M-0,0.69 L1848.54,0.69 L1848.54,1930.94 L-0,1930.94 z"/>
    </clipPath>
    <clipPath id="Clip_2">
      <path d="M-0,0.69 L1848.54,0.69 L1848.54,1930.94 L-0,1930.94 z"/>
    </clipPath>
  </defs>
  <g id="Layer_1">
    <g clip-path="url(#Clip_1)">
      <path d="M462.412,1707.39 C466.424,1709.02 470.291,1710.94 474.002,1713.14 C489.313,1695.24 498.992,1671.79 499.867,1646.92 L475.287,1650.56 C474.979,1670.53 470.376,1689.87 462.412,1707.39 z M422.716,1715.84 L423.788,1739.88 C431.623,1732.56 440.134,1720.37 442.269,1716.98 C435.891,1715.78 429.353,1715.4 422.716,1715.84 z M444.574,1736.73 C451.179,1733.3 457.377,1729.06 463.063,1724.15 C460.603,1722.88 458.078,1721.73 455.486,1720.74 C452.199,1726.34 448.545,1731.68 444.574,1736.73 z M449.749,1703.34 C458.493,1686.79 461.536,1664.69 461.813,1652.56 L420.172,1658.73 L422.064,1701.21 C431.658,1700.48 440.948,1701.24 449.749,1703.34 z M375.094,1602.47 C373.379,1606.36 363.49,1631.08 364.324,1652.3 L406.078,1646.12 L404.243,1604.95 C394.118,1605.73 384.326,1604.83 375.094,1602.47 z M377.368,1732.31 C374.896,1734.05 372.508,1735.92 370.191,1737.91 C376.242,1741.08 382.736,1743.44 389.556,1744.89 C385.188,1741.06 381.106,1736.86 377.368,1732.31 z M327.031,1672.52 C330.099,1696.81 341.733,1717.1 358.421,1730.26 C361.892,1727 365.538,1723.96 369.35,1721.17 C359.939,1706.23 353.687,1688.5 351.612,1668.88 L327.031,1672.52 z M362.552,1598.22 C358.331,1596.43 354.276,1594.3 350.4,1591.87 C335.718,1609.97 326.645,1633.32 326.243,1657.95 L350.857,1654.3 C350.882,1634.66 355.074,1615.59 362.552,1598.22 z M381.592,1566.17 C374.113,1570.05 367.15,1574.97 360.865,1580.74 C363.554,1582.25 366.326,1583.61 369.18,1584.78 C372.842,1578.23 377.006,1572 381.592,1566.17 z M381.488,1713.44 C389.989,1708.79 399.093,1705.3 408.622,1703.2 L406.729,1660.72 L365.085,1666.88 C366.432,1678.77 370.211,1696.1 381.488,1713.44 z M474.739,1635.95 L499.354,1632.31 C496.776,1608.12 485.752,1587.74 469.666,1574.21 C466.056,1577.74 462.24,1581.04 458.234,1584.05 C467.15,1598.99 472.975,1616.58 474.739,1635.95 z M409.273,1717.83 C402.686,1719.35 396.268,1721.65 390.079,1724.71 C392.488,1727.43 401.854,1736.81 410.347,1741.87 L409.273,1717.83 z M438.081,1580.52 C432.123,1572.36 420.232,1563.77 415.816,1561.03 L417.034,1588.34 C424.282,1586.67 431.322,1584.05 438.081,1580.52 z M450.502,1572.73 C453.213,1570.74 455.827,1568.58 458.346,1566.3 C451.63,1562.46 444.324,1559.65 436.602,1558.02 C441.643,1562.43 446.305,1567.34 450.502,1572.73 z M403.592,1590.33 L402.375,1563.02 C398.256,1567.03 389.48,1576.82 382.127,1588.8 C389.109,1590.3 396.29,1590.81 403.592,1590.33 z M446.232,1591.93 C437.33,1596.98 427.746,1600.75 417.686,1602.96 L419.521,1644.13 L461.273,1637.95 C459.328,1614.78 448.27,1595.27 446.232,1591.93 z M631.207,1879.13 L641.275,1881.46 L642.576,1875.85 L632.508,1873.52 L631.207,1879.13 z M619.197,1796.34 L604.824,1858.45 L624.963,1863.11 L639.336,1801 L619.197,1796.34 z M655.066,1766.2 L631.768,1760.8 L628.994,1772.79 L652.293,1778.18 L655.066,1766.2 z M648.783,1803.19 L634.41,1865.3 L644.479,1867.63 L658.854,1805.52 L648.783,1803.19 z M601.622,1872.29 L621.762,1876.95 L623.063,1871.33 L602.922,1866.67 L601.622,1872.29 z M704.229,1600.13 L654.686,1588.66 L643.049,1638.94 L692.592,1650.4 L704.229,1600.13 z M682.715,1663.78 C677.328,1662.54 671.982,1665.76 670.775,1670.98 C669.568,1676.2 672.955,1681.44 678.34,1682.68 C683.725,1683.93 689.068,1680.71 690.275,1675.49 C691.486,1670.27 688.1,1665.03 682.715,1663.78 z M666.672,1661.45 L606.855,1647.6 L606.104,1650.85 L665.92,1664.69 L666.672,1661.45 z M663.115,1676.81 L603.299,1662.96 L602.55,1666.2 L662.365,1680.05 L663.115,1676.81 z M637.965,1637.76 L649.598,1587.49 L600.056,1576.02 L588.421,1626.29 L637.965,1637.76 z M591.414,1642.65 C586.03,1641.41 580.686,1644.63 579.477,1649.85 C578.269,1655.07 581.656,1660.31 587.04,1661.55 C592.426,1662.8 597.771,1659.58 598.979,1654.36 C600.186,1649.14 596.801,1643.9 591.414,1642.65 z M619.982,1570.65 L688.688,1586.55 C691.783,1587.26 694.852,1585.41 695.549,1582.41 C696.24,1579.41 694.299,1576.4 691.201,1575.68 L622.496,1559.78 C619.4,1559.07 616.33,1560.91 615.638,1563.92 C614.942,1566.92 616.887,1569.93 619.982,1570.65 z M720.266,1619.3 L713.635,1647.96 C712.912,1651.09 709.715,1653.02 706.488,1652.27 L701.42,1651.1 L690.664,1697.57 L684.219,1696.08 L681.301,1708.69 C680.275,1713.12 675.734,1715.86 671.158,1714.8 L659.863,1712.19 C655.289,1711.13 652.412,1706.67 653.438,1702.24 L656.355,1689.63 C648.654,1687.85 611.113,1679.16 603.414,1677.38 L600.498,1689.99 C599.471,1694.42 594.929,1697.16 590.353,1696.1 L579.06,1693.49 C574.483,1692.43 571.606,1687.97 572.633,1683.54 L575.552,1670.93 L569.43,1669.52 L580.185,1623.04 L575.117,1621.87 C571.894,1621.12 569.866,1617.98 570.589,1614.86 L577.222,1586.2 C577.944,1583.07 581.145,1581.14 584.367,1581.89 L589.437,1583.07 L593.288,1566.42 C596.246,1553.64 608.907,1549.69 621.168,1552.52 L658.367,1561.14 L658.383,1561.14 L695.584,1569.75 C707.846,1572.58 717.48,1581.7 714.525,1594.48 L710.672,1611.12 L715.74,1612.29 C718.965,1613.04 720.99,1616.18 720.266,1619.3 z M649.805,1887.62 L659.875,1889.95 L678.369,1810.04 L668.299,1807.71 L649.805,1887.62 z M660.85,1780.16 L684.15,1785.55 L686.924,1773.57 L663.621,1768.18 L660.85,1780.16 z M591.355,1751.45 L568.053,1746.06 L565.279,1758.04 L588.581,1763.43 L591.355,1751.45 z M623.209,1758.82 L599.909,1753.43 L597.136,1765.42 L620.438,1770.81 L623.209,1758.82 z M755.953,1530.21 L584.308,1490.48 C580.78,1489.67 577.246,1491.87 576.431,1495.4 L546.8,1623.43 L552.102,1742.37 L559.497,1744.08 L556.727,1756.06 L552.67,1755.12 L553.833,1781.22 L560.652,1782.79 L554.993,1807.24 L555.857,1826.63 C556.388,1838.53 551.651,1853.64 540.457,1855.14 C540.443,1855.13 519.45,1857.65 491.828,1860.96 C491.828,1860.96 489.925,1869.04 496.334,1870.6 L667.98,1910.33 C671.508,1911.15 675.041,1908.94 675.859,1905.41 L701.164,1796.07 C701.982,1792.54 699.74,1789.16 696.213,1788.34 L698.986,1776.36 C702.512,1777.18 705.992,1775.2 706.809,1771.67 L760.869,1538.08 C761.686,1534.56 759.48,1531.02 755.953,1530.21 z M473.866,1876.78 C471.752,1872.76 470.629,1868.19 470.757,1863.48 C420.316,1869.53 360.975,1876.65 360.975,1876.65 C360.975,1876.65 429.483,1876.8 473.866,1876.78 z M418.119,1761.06 C473.883,1752.71 516.83,1696.87 514.049,1636.33 C511.266,1575.79 463.807,1533.49 408.043,1541.84 C352.28,1550.19 309.332,1606.03 312.113,1666.57 C314.896,1727.11 362.355,1769.41 418.119,1761.06 z M780.843,1542.71 L727.762,1772.07 C726.33,1778.26 722.871,1783.46 718.248,1787.13 C720.785,1792.46 721.609,1798.65 720.178,1804.84 L695.832,1910.03 C692.467,1924.57 677.898,1933.66 663.359,1930.3 L494.711,1891.27 C454.264,1891.58 309.619,1891.04 309.617,1891.03 C296.461,1891.71 285.656,1881.29 285.01,1866.74 L269.574,1520.51 C268.889,1505.11 279.824,1490.94 294,1488.84 L513.514,1456.32 C527.69,1454.23 539.736,1465 540.424,1480.39 L543.401,1547.19 L556.456,1490.78 C559.822,1476.24 574.39,1467.14 588.93,1470.51 L760.576,1510.23 C775.115,1513.6 784.208,1528.17 780.843,1542.71 z M552.521,1860.92 L572.66,1865.58 L573.959,1859.97 L553.822,1855.31 L552.521,1860.92 z M599.681,1791.83 L585.308,1853.93 L595.379,1856.26 L609.754,1794.16 L599.681,1791.83 z M570.097,1784.98 L555.723,1847.09 L575.861,1851.75 L590.235,1789.64 L570.097,1784.98 z M583.406,1862.15 L593.477,1864.48 L592.176,1870.1 L582.105,1867.77 L583.406,1862.15" fill="#0A0B09"/>
      <path d="M1174.41,1707.39 C1178.42,1709.02 1182.29,1710.94 1186,1713.14 C1201.31,1695.24 1210.99,1671.79 1211.87,1646.92 L1187.29,1650.56 C1186.98,1670.53 1182.38,1689.87 1174.41,1707.39 z M1134.71,1715.84 L1135.79,1739.88 C1143.62,1732.56 1152.13,1720.37 1154.27,1716.98 C1147.89,1715.78 1141.35,1715.4 1134.71,1715.84 z M1156.57,1736.73 C1163.18,1733.3 1169.38,1729.06 1175.06,1724.15 C1172.6,1722.88 1170.08,1721.73 1167.49,1720.74 C1164.2,1726.34 1160.54,1731.68 1156.57,1736.73 z M1161.75,1703.34 C1170.49,1686.79 1173.54,1664.69 1173.81,1652.56 L1132.17,1658.73 L1134.06,1701.21 C1143.66,1700.48 1152.95,1701.24 1161.75,1703.34 z M1087.09,1602.47 C1085.38,1606.36 1075.49,1631.08 1076.32,1652.3 L1118.08,1646.12 L1116.24,1604.95 C1106.12,1605.73 1096.33,1604.83 1087.09,1602.47 z M1089.37,1732.31 C1086.9,1734.05 1084.51,1735.92 1082.19,1737.91 C1088.24,1741.08 1094.74,1743.44 1101.56,1744.89 C1097.19,1741.06 1093.11,1736.86 1089.37,1732.31 z M1039.03,1672.52 C1042.1,1696.81 1053.73,1717.1 1070.42,1730.26 C1073.89,1727 1077.54,1723.96 1081.35,1721.17 C1071.94,1706.23 1065.69,1688.5 1063.61,1668.88 L1039.03,1672.52 z M1074.55,1598.22 C1070.33,1596.43 1066.28,1594.3 1062.4,1591.87 C1047.72,1609.97 1038.64,1633.32 1038.24,1657.95 L1062.86,1654.3 C1062.88,1634.66 1067.07,1615.59 1074.55,1598.22 z M1093.59,1566.17 C1086.11,1570.05 1079.15,1574.97 1072.86,1580.74 C1075.55,1582.25 1078.33,1583.61 1081.18,1584.78 C1084.84,1578.23 1089,1572 1093.59,1566.17 z M1093.49,1713.44 C1101.99,1708.79 1111.09,1705.3 1120.62,1703.2 L1118.73,1660.72 L1077.08,1666.88 C1078.43,1678.77 1082.21,1696.1 1093.49,1713.44 z M1186.74,1635.95 L1211.35,1632.31 C1208.78,1608.12 1197.75,1587.74 1181.67,1574.21 C1178.05,1577.74 1174.24,1581.04 1170.23,1584.05 C1179.15,1598.99 1184.97,1616.58 1186.74,1635.95 z M1121.27,1717.83 C1114.68,1719.35 1108.27,1721.65 1102.08,1724.71 C1104.49,1727.43 1113.85,1736.81 1122.35,1741.87 L1121.27,1717.83 z M1150.08,1580.52 C1144.12,1572.36 1132.23,1563.77 1127.82,1561.03 L1129.03,1588.34 C1136.28,1586.67 1143.32,1584.05 1150.08,1580.52 z M1162.5,1572.73 C1165.21,1570.74 1167.83,1568.58 1170.34,1566.3 C1163.63,1562.46 1156.32,1559.65 1148.6,1558.02 C1153.64,1562.43 1158.3,1567.34 1162.5,1572.73 z M1115.59,1590.33 L1114.37,1563.02 C1110.25,1567.03 1101.48,1576.82 1094.13,1588.8 C1101.11,1590.3 1108.29,1590.81 1115.59,1590.33 z M1158.23,1591.93 C1149.33,1596.98 1139.75,1600.75 1129.68,1602.96 L1131.52,1644.13 L1173.27,1637.95 C1171.33,1614.78 1160.27,1595.27 1158.23,1591.93 z M1367.07,1766.2 L1343.77,1760.8 L1340.99,1772.79 L1364.29,1778.18 L1367.07,1766.2 z M1331.2,1796.34 L1316.82,1858.45 L1336.96,1863.11 L1351.33,1801 L1331.2,1796.34 z M1343.21,1879.13 L1353.27,1881.46 L1354.58,1875.85 L1344.51,1873.52 L1343.21,1879.13 z M1361.8,1887.62 L1371.87,1889.95 L1390.37,1810.04 L1380.3,1807.71 L1361.8,1887.62 z M1467.95,1530.21 L1296.31,1490.48 C1292.78,1489.67 1289.25,1491.87 1288.43,1495.4 L1258.8,1623.43 L1264.1,1742.37 L1271.5,1744.08 L1268.73,1756.06 L1264.67,1755.12 L1265.83,1781.22 L1272.65,1782.79 L1266.99,1807.24 L1267.86,1826.63 C1268.39,1838.53 1263.65,1853.64 1252.46,1855.14 C1252.44,1855.13 1231.45,1857.65 1203.83,1860.96 C1203.83,1860.96 1202.49,1868.85 1208.33,1870.6 L1379.98,1910.33 C1383.51,1911.15 1387.04,1908.94 1387.86,1905.41 L1413.16,1796.07 C1413.98,1792.54 1411.74,1789.16 1408.21,1788.34 L1410.99,1776.36 C1414.51,1777.18 1417.99,1775.2 1418.81,1771.67 L1472.87,1538.08 C1473.68,1534.56 1471.48,1531.02 1467.95,1530.21 z M1185.87,1876.78 C1183.75,1872.76 1182.63,1868.19 1182.76,1863.48 C1132.32,1869.53 1072.97,1876.65 1072.97,1876.65 C1072.97,1876.65 1141.48,1876.8 1185.87,1876.78 z M1130.12,1761.06 C1185.88,1752.71 1228.83,1696.87 1226.05,1636.33 C1223.26,1575.79 1175.81,1533.49 1120.04,1541.84 C1064.28,1550.19 1021.33,1606.03 1024.11,1666.57 C1026.9,1727.11 1074.35,1769.41 1130.12,1761.06 z M1492.84,1542.71 L1439.76,1772.07 C1438.33,1778.26 1434.87,1783.46 1430.25,1787.13 C1432.78,1792.46 1433.61,1798.65 1432.18,1804.84 L1407.83,1910.03 C1404.47,1924.57 1389.9,1933.66 1375.36,1930.3 L1206.71,1891.27 C1166.26,1891.58 1021.62,1891.04 1021.62,1891.03 C1008.46,1891.71 997.655,1881.29 997.009,1866.74 L981.573,1520.51 C980.888,1505.11 991.823,1490.94 1006,1488.84 L1225.51,1456.32 C1239.69,1454.23 1251.74,1465 1252.42,1480.39 L1255.4,1547.19 L1268.46,1490.78 C1271.82,1476.24 1286.39,1467.14 1300.93,1470.51 L1472.58,1510.23 C1487.11,1513.6 1496.21,1528.17 1492.84,1542.71 z M1313.62,1872.29 L1333.76,1876.95 L1335.06,1871.33 L1314.92,1866.67 L1313.62,1872.29 z M1360.78,1803.19 L1346.41,1865.3 L1356.48,1867.63 L1370.85,1805.52 L1360.78,1803.19 z M1390.75,1587.34 L1340.69,1575.82 C1325.07,1572.22 1320.21,1584.88 1318.36,1592.9 L1315.33,1606.04 C1314.37,1610.22 1317.36,1612.52 1319.72,1613.06 C1319.76,1613.07 1393.31,1630.01 1393.31,1630.01 C1395.68,1630.55 1399.37,1629.79 1400.33,1625.62 L1403.36,1612.47 C1405.21,1604.45 1406.37,1590.94 1390.75,1587.34 z M1387.71,1641.15 C1382.22,1639.89 1376.74,1643.31 1375.47,1648.81 C1374.21,1654.3 1377.64,1659.77 1383.13,1661.04 C1388.62,1662.3 1394.09,1658.88 1395.36,1653.38 C1396.62,1647.89 1393.2,1642.42 1387.71,1641.15 z M1372.67,1693.12 L1371.28,1687.35 L1314.46,1674.27 L1310.68,1678.85 L1372.67,1693.12 z M1321.73,1665.46 L1319.32,1668.38 L1369.48,1679.93 L1368.59,1676.26 C1354.38,1672.98 1335.95,1668.74 1321.73,1665.46 z M1371.8,1640.49 L1372.46,1637.64 L1335.14,1629.05 L1334.49,1631.89 L1371.8,1640.49 z M1331.22,1646.09 L1330.56,1648.93 L1367.88,1657.53 L1368.54,1654.68 L1331.22,1646.09 z M1315.31,1645.42 C1320.81,1646.69 1326.28,1643.26 1327.55,1637.77 C1328.81,1632.28 1325.39,1626.8 1319.89,1625.53 C1314.4,1624.27 1308.92,1627.7 1307.66,1633.19 C1306.4,1638.68 1309.82,1644.16 1315.31,1645.42 z M1350.63,1568.92 L1384.83,1576.8 C1386.22,1577.12 1387.62,1576.25 1387.94,1574.85 C1388.26,1573.46 1387.39,1572.07 1385.99,1571.74 L1351.79,1563.87 C1350.4,1563.55 1349.01,1564.42 1348.69,1565.82 C1348.37,1567.21 1349.24,1568.6 1350.63,1568.92 z M1416.98,1598.97 L1399.26,1675.9 C1398.21,1680.46 1393.51,1681.99 1390.59,1681.32 C1390.59,1681.32 1388.45,1680.83 1384.81,1679.99 L1404.61,1719.55 L1377.56,1713.32 L1375.62,1705.31 L1302.7,1688.52 L1297.46,1694.88 L1270.41,1688.65 L1305.51,1661.73 C1301.88,1660.89 1299.73,1660.4 1299.73,1660.4 C1296.81,1659.72 1293.25,1656.29 1294.31,1651.73 L1312.02,1574.8 C1314.3,1564.9 1320.31,1549.27 1339.59,1553.71 L1401.41,1567.94 C1420.7,1572.38 1419.26,1589.07 1416.98,1598.97 z M1372.85,1780.16 L1396.15,1785.55 L1398.92,1773.57 L1375.62,1768.18 L1372.85,1780.16 z M1282.1,1784.98 L1267.72,1847.09 L1287.86,1851.75 L1302.23,1789.64 L1282.1,1784.98 z M1264.52,1860.92 L1284.66,1865.58 L1285.96,1859.97 L1265.82,1855.31 L1264.52,1860.92 z M1335.21,1758.82 L1311.91,1753.43 L1309.13,1765.42 L1332.44,1770.81 L1335.21,1758.82 z M1303.35,1751.45 L1280.05,1746.06 L1277.28,1758.04 L1300.58,1763.43 L1303.35,1751.45 z M1311.68,1791.83 L1297.31,1853.93 L1307.38,1856.26 L1321.75,1794.16 L1311.68,1791.83 z M1295.41,1862.15 L1305.48,1864.48 L1304.17,1870.1 L1294.1,1867.77 L1295.41,1862.15" fill="#0A0B09"/>
      <path d="M242.102,1065.73 L271.005,1061.42 C270.004,1090.66 258.647,1118.25 240.662,1139.32 C236.295,1136.74 231.744,1134.48 227.026,1132.57 C236.372,1111.96 241.762,1089.21 242.102,1065.73 z M203.346,1143.87 C200.84,1147.86 190.846,1162.21 181.639,1170.82 L180.352,1142.55 C188.155,1142.02 195.845,1142.47 203.346,1143.87 z M218.894,1148.27 C221.944,1149.44 224.914,1150.78 227.809,1152.28 C221.127,1158.06 213.842,1163.05 206.08,1167.09 C210.745,1161.15 215.037,1154.86 218.894,1148.27 z M179.569,1125.35 L177.295,1075.39 L226.258,1068.09 C225.948,1082.36 222.393,1108.34 212.129,1127.81 C201.777,1125.36 190.85,1124.48 179.569,1125.35 z M158.504,1012.17 L160.708,1060.58 L111.612,1067.9 C110.606,1042.94 122.208,1013.86 124.219,1009.28 C135.081,1012.05 146.596,1013.09 158.504,1012.17 z M141.387,1176.74 C133.366,1175.06 125.725,1172.29 118.608,1168.56 C121.329,1166.23 124.136,1164.02 127.042,1161.96 C131.442,1167.32 136.247,1172.25 141.387,1176.74 z M67.777,1091.71 L96.68,1087.4 C99.141,1110.47 106.514,1131.32 117.598,1148.88 C113.12,1152.16 108.834,1155.74 104.756,1159.58 C85.118,1144.12 71.412,1120.27 67.777,1091.71 z M95.777,1070.26 L66.833,1074.57 C67.278,1045.62 77.923,1018.14 95.17,996.842 C99.73,999.692 104.5,1002.19 109.465,1004.3 C100.693,1024.73 95.784,1047.17 95.777,1070.26 z M117.246,988.481 C113.889,987.103 110.627,985.512 107.463,983.735 C114.849,976.948 123.032,971.153 131.823,966.579 C126.436,973.448 121.545,980.77 117.246,988.481 z M112.522,1085.04 L161.489,1077.74 L163.762,1127.71 C152.557,1130.18 141.857,1134.3 131.866,1139.78 C118.584,1119.39 114.12,1099.02 112.522,1085.04 z M221.975,987.526 C226.682,983.977 231.166,980.096 235.407,975.934 C254.34,991.833 267.327,1015.78 270.385,1044.23 L241.442,1048.55 C239.345,1025.76 232.476,1005.09 221.975,987.526 z M141.979,1153.02 C149.254,1149.41 156.799,1146.7 164.545,1144.9 L165.833,1173.18 C155.842,1167.23 144.817,1156.21 141.979,1153.02 z M173.527,992.618 L172.065,960.499 C177.262,963.723 191.253,973.805 198.27,983.389 C190.325,987.554 182.048,990.643 173.527,992.618 z M196.505,956.932 C205.59,958.84 214.184,962.141 222.086,966.648 C219.125,969.338 216.055,971.874 212.868,974.226 C207.926,967.891 202.439,962.114 196.505,956.932 z M132.477,993.196 C141.112,979.096 151.42,967.575 156.26,962.852 L157.721,994.972 C149.135,995.547 140.688,994.954 132.477,993.196 z M225.608,1050.91 L176.514,1058.23 L174.309,1009.81 C186.139,1007.19 197.405,1002.75 207.868,996.809 C210.268,1000.73 223.295,1023.66 225.608,1050.91 z M297.522,1331.27 C291.034,1335.56 281.227,1336.01 275.958,1336.25 C267.502,1336.64 125.641,1337.18 58.609,1337.08 L306.597,1310.22 C306.042,1325.63 299.741,1329.8 297.522,1331.27 z M162.901,937.938 C228.471,928.057 284.331,977.756 287.67,1048.94 C291.009,1120.13 240.565,1185.85 174.997,1195.74 C109.428,1205.62 53.566,1155.92 50.227,1084.73 C46.887,1013.54 97.335,947.821 162.901,937.938 z M337.049,1272.69 L318.514,865.529 C317.689,847.429 303.509,834.771 286.841,837.256 L28.725,875.735 C12.057,878.22 -0.787,894.905 0.038,913.006 L18.575,1320.16 C19.353,1337.27 32.071,1349.52 47.542,1348.7 C47.544,1348.71 260.72,1349.31 276.52,1348.59 C292.054,1347.88 319.829,1345.48 318.972,1306.23 C330.141,1299.84 337.688,1286.69 337.049,1272.69" fill="#0A0B09"/>
      <path d="M1529.41,1106.8 C1533.42,1108.43 1537.29,1110.36 1541,1112.55 C1556.31,1094.65 1565.99,1071.2 1566.87,1046.34 L1542.29,1049.98 C1541.98,1069.95 1537.38,1089.29 1529.41,1106.8 z M1489.71,1115.25 L1490.79,1139.29 C1498.62,1131.98 1507.13,1119.78 1509.27,1116.4 C1502.89,1115.19 1496.35,1114.81 1489.71,1115.25 z M1511.57,1136.15 C1518.18,1132.72 1524.38,1128.48 1530.06,1123.56 C1527.6,1122.29 1525.08,1121.15 1522.49,1120.15 C1519.2,1125.75 1515.54,1131.09 1511.57,1136.15 z M1516.75,1102.75 C1525.49,1086.2 1528.54,1064.1 1528.81,1051.97 L1487.17,1058.14 L1489.06,1100.63 C1498.66,1099.89 1507.95,1100.66 1516.75,1102.75 z M1442.09,1001.88 C1440.38,1005.78 1430.49,1030.5 1431.32,1051.72 L1473.08,1045.54 L1471.24,1004.37 C1461.12,1005.14 1451.33,1004.25 1442.09,1001.88 z M1444.37,1131.72 C1441.9,1133.46 1439.51,1135.34 1437.19,1137.32 C1443.24,1140.5 1449.74,1142.86 1456.55,1144.3 C1452.19,1140.48 1448.11,1136.28 1444.37,1131.72 z M1394.03,1071.93 C1397.1,1096.22 1408.73,1116.52 1425.42,1129.67 C1428.89,1126.41 1432.54,1123.37 1436.35,1120.58 C1426.94,1105.65 1420.69,1087.91 1418.61,1068.29 L1394.03,1071.93 z M1429.55,997.637 C1425.33,995.84 1421.28,993.711 1417.4,991.284 C1402.72,1009.38 1393.64,1032.73 1393.24,1057.36 L1417.86,1053.72 C1417.88,1034.08 1422.07,1015 1429.55,997.637 z M1448.59,965.581 C1441.11,969.461 1434.15,974.381 1427.86,980.149 C1430.55,981.663 1433.33,983.018 1436.18,984.192 C1439.84,977.639 1444,971.417 1448.59,965.581 z M1448.49,1112.86 C1456.99,1108.2 1466.09,1104.72 1475.62,1102.62 L1473.73,1060.13 L1432.08,1066.3 C1433.43,1078.19 1437.21,1095.51 1448.49,1112.86 z M1541.74,1035.37 L1566.35,1031.72 C1563.78,1007.53 1552.75,987.153 1536.67,973.62 C1533.05,977.155 1529.24,980.452 1525.23,983.465 C1534.15,998.405 1539.97,1015.99 1541.74,1035.37 z M1476.27,1117.24 C1469.68,1118.76 1463.27,1121.07 1457.08,1124.13 C1459.49,1126.84 1468.85,1136.22 1477.35,1141.29 L1476.27,1117.24 z M1505.08,979.928 C1499.12,971.774 1487.23,963.188 1482.82,960.442 L1484.03,987.754 C1491.28,986.085 1498.32,983.463 1505.08,979.928 z M1517.5,972.149 C1520.21,970.151 1522.83,967.997 1525.34,965.711 C1518.63,961.874 1511.32,959.059 1503.6,957.43 C1508.64,961.84 1513.3,966.758 1517.5,972.149 z M1470.59,989.745 L1469.37,962.432 C1465.25,966.444 1456.48,976.231 1449.13,988.215 C1456.11,989.715 1463.29,990.227 1470.59,989.745 z M1513.23,991.346 C1504.33,996.395 1494.75,1000.159 1484.68,1002.38 L1486.52,1043.55 L1528.27,1037.36 C1526.33,1014.19 1515.27,994.686 1513.23,991.346 z M1716.8,1287.03 L1726.87,1289.36 L1745.37,1209.45 L1735.3,1207.12 L1716.8,1287.03 z M1698.21,1278.55 L1708.27,1280.88 L1709.58,1275.26 L1699.51,1272.93 L1698.21,1278.55 z M1686.2,1195.75 L1671.82,1257.86 L1691.96,1262.52 L1706.33,1200.42 L1686.2,1195.75 z M1722.07,1165.61 L1698.77,1160.22 L1695.99,1172.2 L1719.29,1177.59 L1722.07,1165.61 z M1668.62,1271.7 L1688.76,1276.36 L1690.06,1270.74 L1669.92,1266.08 L1668.62,1271.7 z M1822.95,929.624 L1651.31,889.897 C1647.78,889.08 1644.25,891.284 1643.43,894.812 L1613.8,1022.84 L1619.1,1141.78 L1626.5,1143.49 L1623.73,1155.47 L1619.67,1154.54 L1620.83,1180.63 L1627.65,1182.21 L1621.99,1206.66 L1622.86,1226.04 C1623.39,1237.95 1618.65,1253.05 1607.46,1254.55 C1607.44,1254.55 1586.45,1257.06 1558.83,1260.37 C1558.83,1260.37 1556.31,1268.21 1563.33,1270.02 L1734.98,1309.74 C1738.51,1310.56 1742.04,1308.35 1742.86,1304.82 L1768.16,1195.48 C1768.98,1191.95 1766.74,1188.57 1763.21,1187.76 L1765.99,1175.77 C1769.51,1176.59 1772.99,1174.61 1773.81,1171.09 L1827.87,937.497 C1828.68,933.969 1826.48,930.438 1822.95,929.624 z M1540.87,1276.19 C1538.75,1272.17 1537.63,1267.61 1537.76,1262.9 C1487.32,1268.95 1427.97,1276.07 1427.97,1276.07 C1427.97,1276.07 1496.48,1276.21 1540.87,1276.19 z M1485.12,1160.48 C1540.88,1152.13 1583.83,1096.28 1581.05,1035.74 C1578.26,975.208 1530.81,932.903 1475.04,941.251 C1419.28,949.6 1376.33,1005.44 1379.11,1065.98 C1381.9,1126.52 1429.35,1168.82 1485.12,1160.48 z M1847.84,942.12 L1794.76,1171.48 C1793.33,1177.67 1789.87,1182.87 1785.25,1186.55 C1787.78,1191.88 1788.61,1198.07 1787.18,1204.25 L1762.83,1309.45 C1759.47,1323.99 1744.9,1333.08 1730.36,1329.71 L1561.71,1290.68 C1521.26,1291 1376.62,1290.45 1376.62,1290.44 C1363.46,1291.12 1352.66,1280.71 1352.01,1266.15 L1336.57,919.919 C1335.89,904.526 1346.82,890.349 1361,888.25 L1580.51,855.738 C1594.69,853.639 1606.74,864.413 1607.42,879.805 L1610.4,946.598 L1623.46,890.19 C1626.82,875.649 1641.39,866.557 1655.93,869.922 L1827.58,909.649 C1842.11,913.01 1851.21,927.581 1847.84,942.12 z M1727.85,1179.57 L1751.15,1184.97 L1753.92,1172.98 L1730.62,1167.59 L1727.85,1179.57 z M1773.64,971.618 C1773.6,971.641 1773.56,971.665 1773.53,971.688 L1746.79,989.36 L1660.11,967.202 C1658.54,966.811 1656.86,967.229 1655.67,968.34 L1646.58,976.856 C1643.77,979.661 1645.25,983.124 1647.37,984.409 L1705.26,1019.6 L1674.48,1041.68 L1655.01,1034.85 C1653.74,1034.41 1652.35,1034.52 1651.18,1035.15 L1634.99,1043.83 C1631.21,1046.14 1631.92,1050.61 1635,1052.23 L1650.9,1060.74 C1648.15,1063.83 1644.43,1069.61 1647.39,1074.31 C1650.46,1079.18 1658.43,1076.86 1661.43,1075.65 L1664.13,1093.51 C1665,1098.45 1670.27,1098.16 1672.05,1096.33 L1685.64,1083.99 C1686.63,1083.09 1687.2,1081.82 1687.21,1080.48 L1687.3,1059.84 L1718.41,1038.24 L1732.17,1104.58 C1733.25,1108.68 1737.16,1108.87 1739.03,1107.84 L1750.1,1102.13 C1751.55,1101.38 1752.51,1099.95 1752.66,1098.32 L1760.82,1009.24 L1786.42,989.958 C1786.46,989.932 1786.49,989.905 1786.52,989.878 C1798.26,980.522 1798.67,971.563 1795.8,968.893 C1791.41,964.823 1782.17,966.313 1773.64,971.618 z M1715.78,1202.6 L1701.41,1264.71 L1711.48,1267.04 L1725.85,1204.93 L1715.78,1202.6 z M1637.1,1184.39 L1622.72,1246.5 L1642.86,1251.16 L1657.23,1189.05 L1637.1,1184.39 z M1619.52,1260.34 L1639.66,1265 L1640.96,1259.38 L1620.82,1254.72 L1619.52,1260.34 z M1666.68,1191.24 L1652.31,1253.35 L1662.38,1255.68 L1676.75,1193.57 L1666.68,1191.24 z M1649.1,1267.18 L1659.17,1269.52 L1660.48,1263.9 L1650.41,1261.57 L1649.1,1267.18 z M1658.35,1150.87 L1635.05,1145.47 L1632.28,1157.46 L1655.58,1162.85 L1658.35,1150.87 z M1687.44,1170.22 L1664.13,1164.83 L1666.91,1152.84 L1690.21,1158.24 L1687.44,1170.22" fill="#0A0B09"/>
    </g>
    <path d="M932.589,1116.46 L976.554,927.163 L956.151,922.424 L912.187,1111.72 L932.589,1116.46 z M984.001,1128.4 L1027.97,939.104 L1007.57,934.366 L963.599,1123.66 L984.001,1128.4 z M1059.49,1036.7 L1079.38,951.045 L1058.98,946.305 L1039.09,1031.96 L1059.49,1036.7 z M817.412,1106.8 C821.423,1108.43 825.291,1110.36 829.001,1112.55 C844.312,1094.65 853.992,1071.2 854.867,1046.34 L830.287,1049.98 C829.978,1069.95 825.376,1089.29 817.412,1106.8 z M777.715,1115.25 L778.788,1139.29 C786.623,1131.98 795.133,1119.78 797.268,1116.4 C790.89,1115.19 784.352,1114.81 777.715,1115.25 z M799.574,1136.15 C806.178,1132.72 812.376,1128.48 818.062,1123.56 C815.602,1122.29 813.078,1121.15 810.486,1120.15 C807.199,1125.75 803.544,1131.09 799.574,1136.15 z M804.749,1102.75 C813.493,1086.2 816.536,1064.1 816.812,1051.97 L775.171,1058.14 L777.064,1100.63 C786.658,1099.89 795.948,1100.66 804.749,1102.75 z M730.093,1001.88 C728.378,1005.78 718.49,1030.5 719.324,1051.72 L761.078,1045.54 L759.243,1004.37 C749.118,1005.14 739.326,1004.25 730.093,1001.88 z M732.368,1131.72 C729.896,1133.46 727.507,1135.34 725.191,1137.32 C731.242,1140.5 737.736,1142.86 744.555,1144.3 C740.187,1140.48 736.106,1136.28 732.368,1131.72 z M682.031,1071.93 C685.099,1096.22 696.733,1116.52 713.42,1129.67 C716.891,1126.41 720.538,1123.37 724.349,1120.58 C714.939,1105.65 708.686,1087.91 706.612,1068.29 L682.031,1071.93 z M717.551,997.637 C713.331,995.84 709.276,993.711 705.4,991.284 C690.718,1009.38 681.644,1032.73 681.244,1057.36 L705.857,1053.72 C705.881,1034.08 710.074,1015 717.551,997.637 z M736.591,965.581 C729.113,969.461 722.15,974.381 715.865,980.149 C718.553,981.663 721.326,983.018 724.179,984.192 C727.841,977.639 732.005,971.417 736.591,965.581 z M736.488,1112.86 C744.989,1108.2 754.092,1104.72 763.622,1102.62 L761.728,1060.13 L720.085,1066.3 C721.431,1078.19 725.21,1095.51 736.488,1112.86 z M829.739,1035.37 L854.354,1031.72 C851.776,1007.53 840.751,987.153 824.666,973.62 C821.055,977.155 817.24,980.452 813.234,983.465 C822.15,998.405 827.974,1015.99 829.739,1035.37 z M764.273,1117.24 C757.685,1118.76 751.267,1121.07 745.079,1124.13 C747.488,1126.84 756.854,1136.22 765.346,1141.29 L764.273,1117.24 z M793.081,979.928 C787.123,971.774 775.232,963.188 770.816,960.442 L772.034,987.754 C779.282,986.085 786.322,983.463 793.081,979.928 z M805.501,972.149 C808.212,970.151 810.827,967.997 813.345,965.711 C806.629,961.874 799.324,959.059 791.601,957.43 C796.642,961.84 801.304,966.758 805.501,972.149 z M758.591,989.745 L757.375,962.432 C753.255,966.444 744.48,976.231 737.126,988.215 C744.109,989.715 751.29,990.227 758.591,989.745 z M801.232,991.346 C792.33,996.395 782.746,1000.159 772.685,1002.38 L774.52,1043.55 L816.273,1037.36 C814.328,1014.19 803.269,994.686 801.232,991.346 z M1004.8,1287.03 L1014.87,1289.36 L1033.37,1209.45 L1023.3,1207.12 L1004.8,1287.03 z M986.206,1278.55 L996.274,1280.88 L997.575,1275.26 L987.507,1272.93 L986.206,1278.55 z M974.196,1195.75 L959.823,1257.86 L979.962,1262.52 L994.335,1200.42 L974.196,1195.75 z M1010.07,1165.61 L986.767,1160.22 L983.993,1172.2 L1007.29,1177.59 L1010.07,1165.61 z M956.62,1271.7 L976.761,1276.36 L978.062,1270.74 L957.921,1266.08 L956.62,1271.7 z M1110.95,929.624 L939.306,889.897 C935.778,889.08 932.245,891.284 931.429,894.812 L901.799,1022.84 L907.101,1141.78 L914.497,1143.49 L911.726,1155.47 L907.669,1154.54 L908.833,1180.63 L915.652,1182.21 L909.993,1206.66 L910.857,1226.04 C911.387,1237.95 906.651,1253.05 895.457,1254.55 C895.443,1254.55 874.45,1257.06 846.828,1260.37 C846.828,1260.37 844.31,1268.21 851.333,1270.02 L1022.98,1309.74 C1026.51,1310.56 1030.04,1308.35 1030.86,1304.82 L1056.16,1195.48 C1056.98,1191.95 1054.74,1188.57 1051.21,1187.76 L1053.99,1175.77 C1057.51,1176.59 1060.99,1174.61 1061.81,1171.09 L1115.87,937.497 C1116.68,933.969 1114.48,930.438 1110.95,929.624 z M828.866,1276.19 C826.751,1272.17 825.628,1267.61 825.756,1262.9 C775.316,1268.95 715.974,1276.07 715.974,1276.07 C715.974,1276.07 784.483,1276.21 828.866,1276.19 z M773.119,1160.48 C828.882,1152.13 871.83,1096.28 869.048,1035.74 C866.265,975.208 818.806,932.903 763.042,941.251 C707.28,949.6 664.332,1005.44 667.113,1065.98 C669.896,1126.52 717.355,1168.82 773.119,1160.48 z M1135.84,942.12 L1082.76,1171.48 C1081.33,1177.67 1077.87,1182.87 1073.25,1186.55 C1075.78,1191.88 1076.61,1198.07 1075.18,1204.25 L1050.83,1309.45 C1047.47,1323.99 1032.9,1333.08 1018.36,1329.71 L849.71,1290.68 C809.263,1291 664.619,1290.45 664.617,1290.44 C651.46,1291.12 640.656,1280.71 640.009,1266.15 L624.574,919.919 C623.888,904.526 634.824,890.349 649,888.25 L868.513,855.738 C882.69,853.639 894.736,864.413 895.423,879.805 L898.401,946.598 L911.456,890.19 C914.822,875.649 929.388,866.557 943.929,869.922 L1115.58,909.649 C1130.11,913.01 1139.21,927.581 1135.84,942.12 z M1015.85,1179.57 L1039.15,1184.97 L1041.92,1172.98 L1018.62,1167.59 L1015.85,1179.57 z M1003.78,1202.6 L989.409,1264.71 L999.478,1267.04 L1013.85,1204.93 L1003.78,1202.6 z M925.095,1184.39 L910.722,1246.5 L930.86,1251.16 L945.233,1189.05 L925.095,1184.39 z M907.521,1260.34 L927.659,1265 L928.958,1259.38 L908.822,1254.72 L907.521,1260.34 z M954.679,1191.24 L940.306,1253.35 L950.378,1255.68 L964.753,1193.57 L954.679,1191.24 z M937.104,1267.18 L947.175,1269.52 L948.476,1263.9 L938.405,1261.57 L937.104,1267.18 z M946.354,1150.87 L923.052,1145.47 L920.279,1157.46 L943.579,1162.85 L946.354,1150.87 z M975.437,1170.22 L952.134,1164.83 L954.907,1152.84 L978.208,1158.24 L975.437,1170.22" fill="#0A0B09"/>
    <path d="M959.035,186.749 C945.566,194.401 931.065,200.114 915.839,203.485 L918.678,265.802 L981.87,256.38 C978.891,221.306 962.124,191.8 959.035,186.749" fill="#0A0B09"/>
    <path d="M861.995,182.099 C872.566,184.36 883.437,185.124 894.489,184.385 L892.607,143.042 C886.379,149.12 873.108,163.949 861.995,182.099" fill="#0A0B09"/>
    <path d="M977.335,147.927 C967.163,142.126 956.102,137.877 944.408,135.419 C952.047,142.092 959.11,149.526 965.471,157.68 C969.572,154.652 973.525,151.389 977.335,147.927" fill="#0A0B09"/>
    <path d="M912.95,140.011 L914.833,181.352 C925.802,178.811 936.454,174.837 946.681,169.476 C937.649,157.139 919.641,144.163 912.95,140.011" fill="#0A0B09"/>
    <path d="M904.931,413.761 L903.273,377.363 C893.301,379.674 883.592,383.17 874.228,387.815 C877.88,391.921 892.07,406.108 904.931,413.761" fill="#0A0B09"/>
    <path d="M1002.25,253.342 L1039.51,247.787 C1035.57,211.17 1018.85,180.342 994.481,159.88 C989.021,165.235 983.25,170.232 977.191,174.801 C990.709,197.401 999.552,224.018 1002.25,253.342" fill="#0A0B09"/>
    <path d="M861.208,370.771 C874.069,363.713 887.842,358.421 902.266,355.231 L899.337,290.921 L836.311,300.317 C838.367,318.315 844.113,344.531 861.208,370.771" fill="#0A0B09"/>
    <path d="M812.11,552.319 L811.412,552.424 L811.163,554.702 L808.786,582.431 L817.412,581.144 L812.56,554.494 L812.11,552.319" fill="#0A0B09"/>
    <path d="M762.687,546.708 L763.866,572.611 C771.79,571.43 773.173,568.272 772.736,558.662 C772.299,549.05 770.61,545.527 762.687,546.708" fill="#0A0B09"/>
    <path d="M861.152,147.836 C849.838,153.725 839.307,161.184 829.8,169.921 C833.873,172.208 838.07,174.255 842.39,176.029 C847.927,166.105 854.219,156.678 861.152,147.836" fill="#0A0B09"/>
    <path d="M832.376,196.389 C825.986,193.673 819.844,190.458 813.974,186.79 C791.778,214.204 778.075,249.569 777.502,286.844 L814.757,281.29 C814.766,251.565 821.084,222.69 832.376,196.389" fill="#0A0B09"/>
    <path d="M778.717,308.905 C783.395,345.666 801.036,376.364 826.315,396.256 C831.563,391.318 837.079,386.71 842.845,382.481 C828.578,359.886 819.087,333.05 815.92,303.356 L778.717,308.905" fill="#0A0B09"/>
    <path d="M844.143,407.814 C853.306,412.615 863.139,416.18 873.465,418.353 C866.848,412.574 860.665,406.225 854.998,399.328 C851.26,401.974 847.646,404.814 844.143,407.814" fill="#0A0B09"/>
    <path d="M835.139,278.251 L898.333,268.832 L895.496,206.516 C880.17,207.703 865.348,206.36 851.368,202.798 C848.778,208.696 833.843,246.129 835.139,278.251" fill="#0A0B09"/>
    <path d="M937.755,520.609 L938.936,546.512 C946.86,545.331 948.242,542.172 947.805,532.564 C947.367,522.951 945.682,519.428 937.755,520.609" fill="#0A0B09"/>
    <path d="M985.009,512.033 C980.579,512.691 981.101,518.985 981.101,518.985 L983.41,569.733 C983.41,569.733 983.466,576.096 987.896,575.437 C992.325,574.775 991.802,568.482 991.802,568.482 L989.492,517.734 C989.492,517.734 989.438,511.371 985.009,512.033" fill="#0A0B09"/>
    <path d="M982.707,278.494 L919.682,287.891 L922.611,352.2 C937.13,351.076 951.194,352.216 964.519,355.369 C977.731,330.308 982.307,296.86 982.707,278.494" fill="#0A0B09"/>
    <path d="M1025.86,507.123 L1027.02,532.674 C1030.52,532.151 1036.32,530.814 1035.76,518.509 C1035.2,506.201 1029.35,506.6 1025.86,507.123" fill="#0A0B09"/>
    <path d="M956.732,405.932 C966.725,400.731 976.101,394.302 984.701,386.857 C980.975,384.936 977.152,383.206 973.227,381.703 C968.262,390.181 962.737,398.276 956.732,405.932" fill="#0A0B09"/>
    <path d="M925.274,410.728 C937.124,399.638 949.988,381.172 953.215,376.041 C943.559,374.231 933.661,373.658 923.619,374.333 L925.274,410.728" fill="#0A0B09"/>
    <g clip-path="url(#Clip_2)">
      <path d="M1003.1,275.455 C1002.66,305.684 995.724,334.968 983.692,361.485 C989.767,363.946 995.624,366.857 1001.25,370.173 C1024.39,343.061 1039.01,307.546 1040.3,269.909 L1003.1,275.455" fill="#0A0B09"/>
      <path d="M1096.23,703.251 C1087.01,709.351 1073.07,709.987 1065.58,710.328 C1053.57,710.873 851.948,711.65 756.679,711.504 L1109.13,673.332 C1108.34,695.23 1099.39,701.164 1096.23,703.251 z M749.51,535.693 C749.51,535.693 761.516,533.903 762.1,533.817 C773.054,532.184 784.517,536.492 785.417,556.299 C786.32,576.107 775.407,583.867 764.453,585.501 L766.021,619.958 L753.432,621.835 L749.51,535.693 z M901.156,110.973 C985.554,98.252 1057.45,162.225 1061.75,253.852 C1066.05,345.487 1001.12,430.079 916.724,442.797 C832.327,455.517 760.425,391.548 756.127,299.916 C751.829,208.281 816.761,123.693 901.156,110.973 z M1090.22,498.001 L1078.33,499.772 L1081.66,572.905 L1069.07,574.781 L1065.74,501.651 L1053.85,503.422 L1053.26,490.412 L1089.63,484.993 L1090.22,498.001 z M1051.7,577.372 L1039.12,579.246 L1030.93,543.889 L1027.55,544.392 L1029.21,580.726 L1016.62,582.6 L1012.7,496.459 L1025.29,494.583 C1040.21,492.36 1047.13,500.057 1047.86,516.232 C1048.25,524.789 1046.39,532.851 1041.76,536.845 L1051.7,577.372 z M970.823,571.609 L968.512,520.864 C968.512,520.864 967.549,502.246 984.448,499.728 C1001.35,497.206 1002.08,515.86 1002.08,515.86 L1004.39,566.606 C1004.39,566.606 1005.36,585.224 988.456,587.742 C971.557,590.264 970.823,571.609 970.823,571.609 z M928.501,595.735 L924.58,509.594 C924.58,509.594 936.586,507.807 937.168,507.718 C948.125,506.085 959.586,510.394 960.488,530.202 C961.391,550.008 950.478,557.771 939.522,559.404 L941.09,593.859 L928.501,595.735 z M894.508,560.45 C888.162,552.546 882.168,544.589 881.746,535.331 C881.32,525.954 885.385,514.729 897.264,512.725 C912.398,510.112 915.467,523.344 915.905,532.954 L903.602,535.967 C903.341,530.225 902.221,523.665 898.024,524.294 C894.765,524.894 893.876,528.566 894.101,533.49 C894.368,539.35 899.679,545.165 904.901,551.586 C911.127,559.506 917.463,567.176 917.883,576.437 C918.407,587.919 915.141,598.674 901.385,600.723 C885.186,603.139 882.527,591.144 881.945,578.371 L894.248,575.357 C894.572,582.506 895.615,589.901 900.857,589.121 C904.589,588.565 905.8,584.252 905.555,578.861 C905.293,573.118 899.617,567.004 894.508,560.45 z M851.615,566.844 C845.271,558.939 839.276,550.985 838.854,541.727 C838.427,532.35 842.492,521.125 854.371,519.118 C869.507,516.505 872.574,529.737 873.011,539.347 L860.709,542.361 C860.448,536.618 859.328,530.062 855.132,530.687 C851.875,531.29 850.983,534.963 851.208,539.884 C851.475,545.743 856.788,551.558 862.007,557.979 C868.236,565.9 874.57,573.569 874.99,582.83 C875.513,594.313 872.248,605.068 858.495,607.116 C842.293,609.532 839.636,597.537 839.055,584.764 L851.354,581.75 C851.681,588.899 852.722,596.294 857.966,595.514 C861.697,594.958 862.907,590.646 862.662,585.254 C862.4,579.514 856.725,573.398 851.615,566.844 z M793.878,615.806 L802.894,527.736 L818.279,525.442 L835.139,609.654 L822.9,611.478 L819.77,594.246 L807.647,596.054 L806.117,613.98 L793.878,615.806 z M1081.05,1.132 L714.208,55.821 C690.518,59.353 672.264,83.066 673.435,108.792 L699.78,687.464 C700.887,711.783 718.963,729.181 740.951,728.022 C740.952,728.035 1043.93,728.891 1066.38,727.866 C1088.46,726.862 1127.94,723.441 1126.72,667.661 C1142.59,658.581 1153.32,639.891 1152.41,619.988 L1126.07,41.316 C1124.9,15.591 1104.74,-2.399 1081.05,1.132" fill="#0A0B09"/>
    </g>
  </g>
</svg>
