<?xml version="1.0" encoding="UTF-8" standalone="no"?>
<!-- Created with Inkscape (http://www.inkscape.org/) -->

<svg
   xmlns:dc="http://purl.org/dc/elements/1.1/"
   xmlns:cc="http://creativecommons.org/ns#"
   xmlns:rdf="http://www.w3.org/1999/02/22-rdf-syntax-ns#"
   xmlns:svg="http://www.w3.org/2000/svg"
   xmlns="http://www.w3.org/2000/svg"
   xmlns:sodipodi="http://sodipodi.sourceforge.net/DTD/sodipodi-0.dtd"
   xmlns:inkscape="http://www.inkscape.org/namespaces/inkscape"
   width="139.16202mm"
   height="229.68303mm"
   viewBox="0 0 139.16202 229.68303"
   version="1.1"
   id="svg2318"
   sodipodi:docname="passenger02.svg"
   inkscape:version="0.92.3 (2405546, 2018-03-11)">
  <defs
     id="defs2312" />
  <sodipodi:namedview
     id="base"
     pagecolor="#ffffff"
     bordercolor="#666666"
     borderopacity="1.0"
     inkscape:pageopacity="0.0"
     inkscape:pageshadow="2"
     inkscape:zoom="1.979899"
     inkscape:cx="258.37168"
     inkscape:cy="210.15258"
     inkscape:document-units="mm"
     inkscape:current-layer="layer1"
     showgrid="false"
     fit-margin-top="0"
     fit-margin-left="0"
     fit-margin-right="0"
     fit-margin-bottom="0"
     inkscape:window-width="1853"
     inkscape:window-height="1025"
     inkscape:window-x="67"
     inkscape:window-y="27"
     inkscape:window-maximized="1" />
  <metadata
     id="metadata2315">
    <rdf:RDF>
      <cc:Work
         rdf:about="">
        <dc:format>image/svg+xml</dc:format>
        <dc:type
           rdf:resource="http://purl.org/dc/dcmitype/StillImage" />
        <dc:title></dc:title>
      </cc:Work>
    </rdf:RDF>
  </metadata>
  <g
     inkscape:label="Layer 1"
     inkscape:groupmode="layer"
     id="layer1"
     transform="translate(28.673341,91.118294)">
    <path
       id="path14"
       style="fill:#fc9162;fill-opacity:1;fill-rule:nonzero;stroke:none;stroke-width:0.291006"
       d="m 26.466454,-49.33827 -12.958427,-0.238396 4.202117,-21.685765 11.29972,1.411401 -2.54341,20.513007"
       inkscape:connector-curvature="0" />
    <path
       id="path16"
       style="fill:#fdbb97;fill-opacity:1;fill-rule:nonzero;stroke:none;stroke-width:0.291006"
       d="m 38.150403,-69.60389 c 0.177353,-2.147624 0.264793,-4.324367 0.0165,-6.471991 -0.308512,-2.825691 -1.583063,-6.087836 -3.294233,-8.360597 -1.57432,-2.106875 -3.75395,-3.855825 -6.274098,-4.69681 -1.420064,-0.477616 -3.107889,-0.803451 -4.618197,-0.803451 -7.46724,0 -13.528926,6.05583 -13.528926,13.528836 0,5.200245 2.927566,9.707987 7.231558,11.969117 2.616084,3.966361 8.866928,11.925398 16.793876,11.861386 0.61125,-1.193134 1.943957,-5.785181 2.860667,-11.002996 1.760582,0.110536 2.927483,-0.320061 3.355276,-1.169789 0.419049,-0.849728 -1.708201,-1.359021 -2.540523,-4.854035"
       inkscape:connector-curvature="0" />
    <path
       id="path18"
       style="fill:#401d11;fill-opacity:1;fill-rule:nonzero;stroke:none;stroke-width:0.291006"
       d="m 35.784511,-70.596243 c 0,0.570005 -0.28789,1.044734 -1.079628,1.044734 -0.800152,0 -1.807188,-1.044734 -1.807188,-1.044734 0,0 1.006871,-1.059253 1.807188,-1.059253 0.791903,0 1.079628,0.471017 1.079628,1.059253"
       inkscape:connector-curvature="0" />
    <path
       id="path20"
       style="fill:#fdbb97;fill-opacity:1;fill-rule:nonzero;stroke:none;stroke-width:0.291006"
       d="m 20.515378,-48.569959 c 5.913295,-4.309849 11.643208,2.531697 14.113862,14.183558 2.470572,11.628599 4.583303,22.433701 4.583303,22.433701 l 7.17332,7.1150829 c 0,0 5.997592,10.988395 12.804245,22.1223021 3.349502,2.476429 6.876439,7.627262 6.876439,7.627262 l 0.599702,7.484637 -5.4214,5.273001 -2.57253,-1.431694 -0.125384,-6.521485 c 0,0 -2.662691,-5.06059 -4.542553,-8.660283 C 53.451699,19.988126 31.806436,-0.67039309 31.806436,-0.67039309 L 30.162248,-2.9344105 c 0,0 -7.438121,-15.9617105 -9.419858,-24.4329265 -1.981737,-8.471133 -6.140217,-16.904487 -0.226847,-21.202622"
       inkscape:connector-curvature="0" />
    <path
       id="path22"
       style="fill:#a5324a;fill-opacity:1;fill-rule:nonzero;stroke:none;stroke-width:0.291006"
       d="m 18.981808,-49.122889 c 4.376748,-3.134121 10.479111,-0.573305 10.479111,-0.573305 l 4.909303,9.617743 1.367682,-0.99524 4.021712,20.504263 1.414289,6.93179 1.716944,0.348932 0.989467,3.3697945 5.063476,4.9529402 L 59.003846,12.735945 49.287198,20.948143 31.579507,1.3168707 27.479182,-2.7572222 c 0,0 -9.783639,-28.1344948 -10.225949,-33.7363008 -0.430598,-5.596031 -0.503189,-10.703227 -0.503189,-10.703227 l 2.232012,-1.926469"
       inkscape:connector-curvature="0" />
    <path
       id="path24"
       style="fill:#a5324a;fill-opacity:1;fill-rule:nonzero;stroke:none;stroke-width:0.291006"
       d="m 49.374472,17.930663 3.5648,4.912191 7.767,-6.469022 -3.838419,-5.267227 -7.493381,6.824058"
       inkscape:connector-curvature="0" />
    <path
       id="path26"
       style="fill:#fc9160;fill-opacity:1;fill-rule:nonzero;stroke:none;stroke-width:0.291006"
       d="m 41.336905,-15.200326 c 0.05774,-0.390177 0.104762,-0.788604 0.139408,-1.193134 0.192201,-1.795557 0.282115,-3.238883 0.20045,-4.123587 l -0.0082,0.0059 c -0.04125,-3.387364 -0.52381,-6.987058 -1.50445,-10.644989 C 36.220931,-45.735563 25.901859,-55.6327 17.1048,-53.255176 8.3018093,-50.883427 4.3558232,-37.14218 8.2872911,-22.56564 c 1.3386458,4.973233 3.4310019,9.384875 5.9452939,12.9642756 v 0 c 0,0 -0.102288,10.45584031 -4.07995,16.3283777 -1.0359906,1.2017951 -1.9060939,2.5840781 -2.557929,4.1381047 -3.1312335,7.566137 0.2647925,16.150777 7.571994,19.171474 7.304232,3.035133 15.763743,-0.645895 18.900833,-8.218054 0.546908,-1.309527 0.87596,-2.65106 1.041765,-3.986736 v 0 c 0,0 4.845291,-21.9156655 6.227573,-33.032085"
       inkscape:connector-curvature="0" />
    <path
       id="path28"
       style="fill:#28222b;fill-opacity:1;fill-rule:nonzero;stroke:none;stroke-width:0.291006"
       d="m 74.383508,138.56428 h 13.127275 l 22.977887,-6.94334 c 0,0 -0.0899,-4.17885 -3.68416,-4.57175 -3.5794,-0.41327 -11.622745,0.0412 -11.622745,0.0412 l -7.953263,-4.14099 -12.16404,2.29017 -2.342548,8.62836 1.661594,4.69681"
       inkscape:connector-curvature="0" />
    <path
       id="path30"
       style="fill:#343334;fill-opacity:1;fill-rule:nonzero;stroke:none;stroke-width:0.291006"
       d="m -28.443441,132.52305 12.565684,3.80048 H 8.124407 c 0,0 1.1202952,-4.03912 -2.2029748,-5.45638 -3.3145261,-1.41717 -11.1367943,-3.3203 -11.1367943,-3.3203 l -6.4166409,-6.26535 -12.309553,-1.32124 -4.731785,7.58659 0.230147,4.9762"
       inkscape:connector-curvature="0" />
    <path
       id="path32"
       style="fill:#28222b;fill-opacity:1;fill-rule:nonzero;stroke:none;stroke-width:0.291006"
       d="M 8.0574253,6.6717016 5.9214322,19.938632 9.18069,27.577525 -1.6621928,68.431878 l -8.2848716,8.864033 -16.1217406,44.328909 13.991522,3.55325 5.4447447,-2.1331 L 10.047906,80.144864 15.166733,72.083953 34.364365,42.698169 18.012799,6.4330583 8.0574253,6.6714541"
       inkscape:connector-curvature="0" />
    <path
       id="path34"
       style="fill:#393635;fill-opacity:1;fill-rule:nonzero;stroke:none;stroke-width:0.291006"
       d="M 10.638699,7.0383691 8.4444678,20.980397 43.280779,68.699558 l 2.159255,8.587609 27.348779,55.235883 9.975667,-1.6559 6.640765,-6.39049 L 62.050692,75.674985 62.5976,69.776298 48.931996,34.387065 38.030875,5.3097936 10.638534,7.0383691"
       inkscape:connector-curvature="0" />
    <path
       id="path36"
       style="fill:#dd3f67;fill-opacity:1;fill-rule:nonzero;stroke:none;stroke-width:0.291006"
       d="m 28.404553,-50.912589 c 3.96067,2.255273 9.108533,9.608999 11.133908,14.579427 2.010855,4.964488 3.329126,18.021977 1.201877,32.3685354 0.453695,5.3312387 4.315623,22.6228506 4.315623,22.6228506 v 3.896575 l 2.389155,2.901334 -2.211636,3.311639 -23.976023,-12.318297 c 0,0 -13.0603764,11.4802 -12.8129892,10.842883 C 8.6861632,26.663785 6.4336119,2.09706 6.4336119,2.09706 l -2.2843924,-31.812801 3.384395,-15.63571 2.9158525,-5.561138 3.05856,-2.69181 14.896526,2.69181"
       inkscape:connector-curvature="0" />
    <path
       id="path38"
       style="fill:#fdbb97;fill-opacity:1;fill-rule:nonzero;stroke:none;stroke-width:0.291006"
       d="m 16.170718,-49.33827 c 7.321637,0 7.929926,8.90767 3.067139,19.773898 -4.848096,10.863257 -9.4983805,20.8446985 -9.4983805,20.8446985 L 11.36329,1.2502189 c 0,0 -1.6238135,12.4172021 -2.6772918,25.4135661 1.2455147,3.980962 1.0679965,10.211423 1.0679965,10.211423 L 5.8341579,43.294736 -1.644705,44.359845 -2.8902198,41.68841 0.84921168,36.336796 c 0,0 0.82646612,-5.648412 1.42014582,-9.673011 0.1831276,-1.18439 -5.1595773,-30.6312988 -5.1595773,-30.6312988 v -2.796572 c 0,0 3.38728217,-17.2798982 6.7630157,-25.2913162 C 7.260078,-40.075563 8.8664035,-49.33827 16.170718,-49.33827"
       inkscape:connector-curvature="0" />
    <path
       id="path40"
       style="fill:#a5324a;fill-opacity:1;fill-rule:nonzero;stroke:none;stroke-width:0.291006"
       d="m 15.344252,-59.3518 12.542347,6.212974 -0.11961,4.734671 -15.455313,-4.851065 3.032246,-6.09658"
       inkscape:connector-curvature="0" />
    <path
       id="path42"
       style="fill:#a5324a;fill-opacity:1;fill-rule:nonzero;stroke:none;stroke-width:0.291006"
       d="m 15.262752,-50.68269 c 5.383619,0.04949 8.805803,5.700793 8.805803,5.700793 l -1.693608,10.668252 h 1.693608 l -8.805803,18.944544 -2.950828,6.4341289 1.196103,1.2891519 -1.196103,3.314526 1.196103,6.9870582 -2.293136,20.22784 -12.6878521,0.919597 -2.7587916,-26.2924135 -0.9253716,-5.7095374 c 0,0 8.6457648,-28.5040491 11.5907362,-33.2823591 2.9420842,-4.784083 5.8783121,-8.962938 5.8783121,-8.962938 l 2.950828,-0.238396"
       inkscape:connector-curvature="0" />
    <path
       id="path44"
       style="fill:#a5324a;fill-opacity:1;fill-rule:nonzero;stroke:none;stroke-width:0.291006"
       d="m 0.36037663,22.898204 v 6.070348 L 10.449467,28.305334 V 21.795479 L 0.36037663,22.898452"
       inkscape:connector-curvature="0" />
    <path
       id="path46"
       style="fill:#401d11;fill-opacity:1;fill-rule:nonzero;stroke:none;stroke-width:0.291006"
       d="m 25.191902,-78.607661 c 3.817962,-1.926469 4.298136,1.38517 7.705793,-2.092273 1.405628,-1.443408 6.524372,2.616084 7.842643,0.942859 -2.857697,-6.244979 -13.284418,-12.00698 -19.043458,-11.302681 -8.913527,1.091258 -16.532045,11.014544 -11.7421049,19.482791 1.6907949,2.994465 4.5426359,5.334208 6.8095399,7.889167 1.693682,-2.965346 10.374431,-8.404234 12.734467,-9.355838 -0.829354,-2.755822 -1.233884,-6.76879 -2.057381,-9.55373 l -2.249499,3.989705"
       inkscape:connector-curvature="0" />
    <path
       id="path48"
       style="fill:#401d11;fill-opacity:1;fill-rule:nonzero;stroke:none;stroke-width:0.291006"
       d="m 26.155137,-90.611589 c 8.639908,1.711088 12.734376,7.123827 13.53758,8.229604 0.809225,1.108746 1.164014,2.188374 1.321158,3.500788 -0.65167,-0.221073 -3.812188,-0.701164 -4.79291,-0.788604 -1.120295,-0.09569 -2.426935,-0.273866 -3.454182,0.165805 -1.050591,0.456994 -1.9527,1.254259 -3.084709,1.568545 -3.230139,0.899223 -8.261617,-2.968233 -4.993607,-5.980186 l 1.46667,-6.696034"
       inkscape:connector-curvature="0" />
    <path
       id="path50"
       style="fill:#fdbb97;fill-opacity:1;fill-rule:nonzero;stroke:none;stroke-width:0.291006"
       d="m 25.482844,-65.398886 c -2.825617,0.259019 -4.842329,-1.248401 -5.12461,-4.193373 -0.386877,-3.847081 1.804302,-5.360357 4.149827,-3.040989 2.32803,2.330916 0.180653,5.392281 0.180653,5.392281 l 0.794378,1.842081"
       inkscape:connector-curvature="0" />
  </g>
</svg>
