<?xml version="1.0" encoding="UTF-8"?>
<!DOCTYPE svg PUBLIC "-//W3C//DTD SVG 1.1//EN" "http://www.w3.org/Graphics/SVG/1.1/DTD/svg11.dtd">
<svg version="1.1" xmlns="http://www.w3.org/2000/svg" xmlns:xlink="http://www.w3.org/1999/xlink" x="0" y="0" width="500" height="500" viewBox="0, 0, 500, 500">
  <g id="Background">
    <rect x="0" y="0" width="500" height="500" fill="#FFFFFF"/>
  </g>
  <defs>
    <clipPath id="Clip_1">
      <path d="M34.876,71.202 L457.174,71.202 L457.174,395.669 L34.876,395.669 z"/>
    </clipPath>
    <clipPath id="Clip_2">
      <path d="M48.848,311.132 L140.631,311.132 L140.631,436.591 L48.848,436.591 z"/>
    </clipPath>
  </defs>
  <g id="Background_Simple">
    <g>
      <path d="M420.7,119.106 C420.7,119.106 386.637,71.064 325.049,71.202 C263.461,71.34 225.928,114.01 183.78,138.832 C161.707,151.83 134.533,151.369 110.359,159.391 C33.065,185.044 15.644,285.853 55.744,336.766 C90.46,380.841 143.962,399.212 221.316,395.11 C298.669,391.006 353.273,390.794 415.883,335.2 C478.492,279.606 461.419,182.794 420.7,119.106" fill="#AAFF00"/>
      <g clip-path="url(#Clip_1)" opacity="0.7">
        <path d="M420.7,119.106 C420.7,119.106 386.637,71.064 325.049,71.202 C263.461,71.34 225.928,114.01 183.78,138.832 C161.707,151.83 134.533,151.369 110.359,159.391 C33.065,185.044 15.644,285.853 55.744,336.766 C90.46,380.841 143.962,399.212 221.316,395.11 C298.669,391.006 353.273,390.794 415.883,335.2 C478.492,279.606 461.419,182.794 420.7,119.106" fill="#FFFFFF"/>
      </g>
    </g>
  </g>
  <g id="Clouds">
    <g>
      <path d="M400.535,114.104 C399.241,114.104 398.053,114.543 397.099,115.273 C395.889,111.787 392.584,109.282 388.686,109.282 C387.096,109.282 385.606,109.702 384.313,110.434 C383.516,101.559 376.063,94.602 366.981,94.602 C358.626,94.602 351.649,100.49 349.966,108.342 C347.922,106.33 345.12,105.087 342.026,105.087 C336.661,105.087 332.179,108.822 331.009,113.829 C329.778,112.175 327.811,111.104 325.592,111.104 C324.385,111.104 323.254,111.423 322.273,111.978 C321.669,105.244 316.014,99.966 309.124,99.966 C302.786,99.966 297.492,104.434 296.215,110.392 C294.664,108.865 292.539,107.922 290.191,107.922 C285.446,107.922 281.6,111.768 281.6,116.512 C281.6,116.62 281.612,116.725 281.616,116.831 L330.722,116.831 L338.248,116.831 L405.37,116.831 C404.376,115.199 402.586,114.104 400.535,114.104" fill="#FFFFFF"/>
      <path d="M284.763,309.962 C283.47,309.962 282.282,310.4 281.327,311.131 C280.117,307.646 276.813,305.139 272.914,305.139 C271.325,305.139 269.834,305.561 268.541,306.291 C267.744,297.416 260.291,290.459 251.209,290.459 C242.854,290.459 235.877,296.348 234.194,304.2 C232.15,302.189 229.348,300.944 226.254,300.944 C220.889,300.944 216.407,304.679 215.237,309.687 C214.006,308.033 212.039,306.961 209.819,306.961 C208.613,306.961 207.482,307.281 206.501,307.835 C205.897,301.102 200.242,295.824 193.352,295.824 C187.013,295.824 181.721,300.291 180.443,306.249 C178.892,304.723 176.767,303.779 174.42,303.779 C169.675,303.779 165.828,307.626 165.828,312.37 C165.828,312.478 165.84,312.582 165.844,312.689 L214.95,312.689 L222.476,312.689 L289.598,312.689 C288.605,311.057 286.814,309.962 284.763,309.962" fill="#FFFFFF"/>
      <path d="M290.708,240.32 C288.16,240.32 285.819,241.183 283.941,242.621 C281.558,235.757 275.049,230.821 267.373,230.821 C264.24,230.821 261.306,231.651 258.76,233.089 C257.191,215.611 242.513,201.91 224.626,201.91 C208.172,201.91 194.431,213.507 191.115,228.971 C187.09,225.01 181.572,222.561 175.479,222.561 C164.914,222.561 156.086,229.915 153.782,239.777 C151.357,236.521 147.485,234.409 143.113,234.409 C140.736,234.409 138.51,235.039 136.578,236.13 C135.388,222.87 124.252,212.475 110.683,212.475 C98.199,212.475 87.774,221.273 85.259,233.006 C82.205,230.001 78.019,228.142 73.396,228.142 C64.051,228.142 56.477,235.717 56.477,245.062 C56.477,245.274 56.5,245.479 56.508,245.689 L153.218,245.689 L168.04,245.689 L300.229,245.689 C298.272,242.474 294.746,240.32 290.708,240.32" fill="#FFFFFF"/>
    </g>
  </g>
  <g id="Airplane">
    <g>
      <path d="M231.293,181.372 L171.996,169.909 L128.689,161.428 C128.17,161.326 127.65,161.255 127.124,161.215 C124.814,161.041 118.435,160.737 114.936,162.33 C110.609,164.3 108.51,167.374 109.744,169.325 C110.977,171.277 118.967,175.622 126.183,178.053 C133.399,180.483 169.142,188.208 174.204,188.613 C179.267,189.018 185.499,189.286 185.499,189.286 C185.499,189.286 206.881,191.229 215.046,190.493 C223.211,189.757 235.085,186.076 235.674,184.502 C236.264,182.928 231.293,181.372 231.293,181.372" fill="#FFFFFF"/>
      <path d="M208.677,177.477 C208.677,177.477 215.12,177.993 218.03,176.373 C220.938,174.753 232.215,158.286 232.924,158.111 C233.633,157.936 238.695,158.342 238.695,158.342 L230.952,182.734 L207.739,177.633 z" fill="#FFFFFF"/>
      <path d="M224.684,188.717 C224.684,188.717 226.35,188.155 227.308,187.769 C228.265,187.383 230.41,186.628 231.615,186.029 C232.821,185.431 233.373,184.318 233.373,184.318 L262.811,181.116 L259.819,180.876 L228.155,182.973 C228.127,186.213 224.684,188.717 224.684,188.717" fill="#1A2E35"/>
      <path d="M128.834,179.654 C128.834,179.654 125.567,179.2 124.835,181.425 C124.809,181.422 124.784,181.414 124.756,181.412 C124.594,181.399 124.438,181.414 124.291,181.446 L124.493,178.918 L134.14,180.212 C134.431,180.284 134.726,180.357 135.026,180.43 z M276.158,170.605 L257.383,172.173 L258.007,171.945 L200.68,175.454 L164.659,177.658 C164.659,177.658 160.269,177.539 161.769,179.048 L167.66,180.678 C167.66,180.678 156.559,180.484 140.23,176.166 C123.901,171.848 118.415,170.946 113.785,168.028 C112.478,167.204 111.62,166.084 111.06,164.901 C109.503,166.452 108.974,168.107 109.744,169.325 C110.892,171.142 117.9,175.035 124.687,177.525 L124.379,177.445 L114.291,176.174 C114.291,176.174 111.787,172.731 111.732,173.422 C111.677,174.112 110.25,177.471 111.17,177.545 C112.09,177.619 123.118,178.733 123.118,178.733 L122.859,181.967 C122.21,181.974 121.661,182.469 121.608,183.129 C121.552,183.827 122.073,184.439 122.772,184.495 C123.379,184.544 123.92,184.156 124.088,183.596 C124.237,183.656 124.399,183.699 124.572,183.713 C124.623,183.717 124.671,183.713 124.721,183.713 C124.979,185.937 126.253,187.64 128.843,188.224 C132.028,188.942 141.196,190.139 144.086,188.749 C146.181,187.742 145.297,184.429 144.652,182.681 C148.528,183.558 152.579,184.444 156.409,185.255 L156.2,187.866 L158.676,188.759 L160.489,192.147 L158.961,192.684 C158.796,191.886 158.202,191.269 157.438,191.208 C156.484,191.131 155.642,191.945 155.555,193.026 C155.469,194.106 156.171,195.043 157.125,195.12 C157.741,195.169 158.308,194.843 158.657,194.316 L160.995,194.503 L161.014,194.615 C160.31,194.821 159.757,195.505 159.688,196.367 C159.601,197.447 160.304,198.385 161.257,198.461 C162.176,198.535 162.985,197.779 163.12,196.757 L163.291,196.792 C163.554,197.357 164.058,197.759 164.667,197.808 C165.621,197.884 166.463,197.071 166.55,195.99 C166.637,194.91 165.934,193.972 164.98,193.896 C164.208,193.834 163.515,194.362 163.231,195.138 L162.357,194.844 L162.155,191.585 L160.765,188.695 L161.152,186.244 C167.443,187.533 172.521,188.478 174.204,188.613 C179.267,189.018 185.499,189.285 185.499,189.285 C185.499,189.285 187.729,189.488 191.021,189.737 L190.855,191.799 L189.149,191.804 C188.912,191.153 188.375,190.674 187.708,190.62 C186.754,190.544 185.912,191.358 185.825,192.438 C185.739,193.518 186.441,194.456 187.395,194.532 C188.062,194.586 188.668,194.197 189.006,193.592 L190.69,193.87 L190.716,193.93 C190.189,194.233 189.803,194.821 189.746,195.531 C189.66,196.612 190.362,197.549 191.315,197.625 C192.015,197.681 192.651,197.256 192.977,196.6 L194.321,196.708 C194.582,197.283 195.09,197.696 195.706,197.745 C196.659,197.821 197.502,197.008 197.589,195.927 C197.675,194.847 196.973,193.909 196.02,193.833 C195.066,193.757 194.223,194.571 194.137,195.651 L193.198,195.807 L193.336,189.907 C200.292,190.401 210.097,190.939 215.046,190.493 C216.478,190.364 218.024,190.143 219.604,189.86 L219.606,189.86 C215.22,189.794 209.032,189.59 204.976,188.992 C198.109,187.979 197.953,187.04 197.953,187.04 C197.953,187.04 199.104,187.132 199.177,186.212 C199.251,185.291 199.361,183.91 199.361,183.91 C199.361,183.91 202.491,185.319 203.393,185.623 C204.295,185.926 202.141,183.902 202.141,183.902 L211.512,182.567 L214.586,184.666 L215.755,184.528 L214.273,182.788 L223.225,181.464 C223.328,181.471 223.429,181.478 223.529,181.485 L226.773,182.862 L228.154,182.973 L227.015,181.484 L226.688,180.482 L234.947,179.117 C234.947,179.117 238.022,181.216 239.669,180.884 C241.317,180.553 239.568,179.255 239.568,179.255 L242.836,178.938 L245.395,178.795 L245.579,176.494 L249.13,175.194 L279.803,171.36 L283.338,167.705 z" fill="#1A2E35"/>
      <path d="M192.154,178.47 L184.505,178.553 C184.505,178.553 185.351,179.547 185.591,182.345 C185.83,185.143 187.385,185.963 189.668,186.377 C191.951,186.791 195.283,185.668 195.274,182.888 C195.265,180.109 194.473,178.424 192.154,178.47" fill="#FFFFFF"/>
      <path d="M114.127,163.191 L113.238,165.037 L114.962,165.204 L115.954,163.337 z" fill="#1A2E35"/>
      <path d="M121.817,165.868 L123.211,166.003 L122.456,163.858 L121.878,163.812 z" fill="#1A2E35"/>
      <path d="M118.765,163.563 L118.334,165.531 L121.25,165.813 L121.31,163.767 z" fill="#1A2E35"/>
      <path d="M118.192,163.517 L116.57,163.387 L115.574,165.264 L117.763,165.475 z" fill="#1A2E35"/>
      <path d="M113.519,163.143 L113.394,163.133 C112.498,163.663 111.742,164.24 111.133,164.833 L112.635,164.979 z" fill="#1A2E35"/>
    </g>
  </g>
  <g id="Window">
    <g>
      <path d="M446.696,250.411 L416.09,250.411 L416.09,228.077 L446.696,228.077 z M446.696,279.363 L416.09,279.363 L416.09,254.547 L446.696,254.547 z M412.781,204.088 L435.115,204.088 L435.115,220.632 L412.781,220.632 z M412.781,220.632 M411.954,250.411 L381.348,250.411 L381.348,228.077 L411.954,228.077 z M411.954,279.363 L381.348,279.363 L381.348,254.547 L411.954,254.547 z M411.954,308.314 L381.348,308.314 L381.348,283.499 L411.954,283.499 z M364.804,220.632 L358.647,204.088 L387.138,204.088 L387.138,220.632 z M388.792,204.088 L411.127,204.088 L411.127,220.632 L388.792,220.632 z M456.936,228.077 C456.809,225.597 456.632,223.115 456.404,220.632 L436.77,220.632 L436.77,204.088 L454.183,204.088 C453.497,200.214 452.696,196.351 451.794,192.507 L336.679,192.507 L336.679,203.261 L350.741,203.261 L359.013,228.077 L375.557,228.077 L375.557,356.293 L388.716,356.293 C397.664,350.329 406.687,343.366 415.883,335.2 C425.063,327.049 432.519,318.005 438.449,308.314 L416.09,308.314 L416.09,283.499 L446.696,283.499 L446.696,292.191 C448.457,287.996 449.983,283.716 451.28,279.363 L450.832,279.363 L450.832,254.547 L456.229,254.547 C456.38,253.172 456.51,251.793 456.623,250.411 L450.832,250.411 L450.832,228.077 z" fill="#1A2E35"/>
      <path d="M42.193,363.771 L441.208,363.771 L441.208,353.475 L42.193,353.475 z" fill="#1A2E35"/>
      <path d="M354.541,358.603 L354.541,70.199" fill-opacity="0" stroke="#1A2E35" stroke-width="1" stroke-linecap="round" stroke-linejoin="round"/>
      <path d="M186.541,358.603 L186.541,71.368" fill-opacity="0" stroke="#1A2E35" stroke-width="1" stroke-linecap="round" stroke-linejoin="round"/>
      <path d="M29.331,252.042 L472.075,252.042" fill-opacity="0" stroke="#1A2E35" stroke-width="1" stroke-linecap="round" stroke-linejoin="round"/>
      <path d="M42.838,136.335 L455.565,136.335" fill-opacity="0" stroke="#1A2E35" stroke-width="1" stroke-linecap="round" stroke-linejoin="round"/>
      <path d="M245.945,196.813 L241.599,199.491" fill-opacity="0" stroke="#1A2E35" stroke-width="0.5" stroke-linecap="round" stroke-linejoin="round"/>
      <path d="M319.204,151.665 L251.785,193.214" fill-opacity="0" stroke="#1A2E35" stroke-width="0.5" stroke-linecap="round" stroke-linejoin="round"/>
      <path d="M328.1,154.473 L274.085,187.761" fill-opacity="0" stroke="#1A2E35" stroke-width="0.5" stroke-linecap="round" stroke-linejoin="round"/>
      <path d="M351.69,139.935 L335.376,149.989" fill-opacity="0" stroke="#1A2E35" stroke-width="0.5" stroke-linecap="round" stroke-linejoin="round"/>
      <path d="M68.932,340.151 L64.586,342.83" fill-opacity="0" stroke="#1A2E35" stroke-width="0.5" stroke-linecap="round" stroke-linejoin="round"/>
      <path d="M142.189,295.004 L74.771,336.553" fill-opacity="0" stroke="#1A2E35" stroke-width="0.5" stroke-linecap="round" stroke-linejoin="round"/>
      <path d="M151.085,297.811 L97.071,331.099" fill-opacity="0" stroke="#1A2E35" stroke-width="0.5" stroke-linecap="round" stroke-linejoin="round"/>
      <path d="M174.675,283.272 L158.362,293.327" fill-opacity="0" stroke="#1A2E35" stroke-width="0.5" stroke-linecap="round" stroke-linejoin="round"/>
      <path d="M315.888,343.605 L311.542,346.284" fill-opacity="0" stroke="#1A2E35" stroke-width="0.5" stroke-linecap="round" stroke-linejoin="round"/>
      <path d="M389.146,298.458 L321.728,340.006" fill-opacity="0" stroke="#1A2E35" stroke-width="0.5" stroke-linecap="round" stroke-linejoin="round"/>
      <path d="M398.041,301.265 L344.027,334.553" fill-opacity="0" stroke="#1A2E35" stroke-width="0.5" stroke-linecap="round" stroke-linejoin="round"/>
      <path d="M421.631,286.727 L405.318,296.781" fill-opacity="0" stroke="#1A2E35" stroke-width="0.5" stroke-linecap="round" stroke-linejoin="round"/>
    </g>
  </g>
  <g id="Character">
    <g>
      <path d="M274.896,318.024 C274.896,318.024 270.232,359.989 269.345,371.535 C268.457,383.081 264.237,411.501 264.237,416.164 C264.237,420.826 264.681,426.599 264.681,426.599 L259.353,427.043 C259.353,427.043 256.465,407.503 256.465,399.067 C256.465,390.629 253.581,374.42 253.801,368.648 C254.023,362.875 255.578,354.215 255.578,349.109 C255.578,344.003 250.471,331.346 250.915,313.805 C251.359,296.265 274.896,318.024 274.896,318.024" fill="#1A2E35"/>
      <path d="M274.896,318.024 C274.896,318.024 270.232,359.989 269.345,371.535 C268.457,383.081 264.237,411.501 264.237,416.164 C264.237,420.826 264.681,426.599 264.681,426.599 L259.353,427.043 C259.353,427.043 256.465,407.503 256.465,399.067 C256.465,390.629 253.581,374.42 253.801,368.648 C254.023,362.875 255.578,354.215 255.578,349.109 C255.578,344.003 250.471,331.346 250.915,313.805 C251.359,296.265 274.896,318.024 274.896,318.024 z" fill-opacity="0" stroke="#1A2E35" stroke-width="1" stroke-linecap="round" stroke-linejoin="round"/>
      <path d="M264.682,426.6 C264.682,426.6 270.011,430.819 272.231,432.151 C274.452,433.483 278.448,434.371 278.448,435.259 C278.448,436.147 276.672,436.591 276.672,436.591 L258.021,436.591 C258.021,436.591 258.021,433.261 258.465,431.262 C258.909,429.264 259.353,427.043 259.353,427.043 z" fill="#AAFF00"/>
      <path d="M264.682,426.6 C264.682,426.6 270.011,430.819 272.231,432.151 C274.452,433.483 278.448,434.371 278.448,435.259 C278.448,436.147 276.672,436.591 276.672,436.591 L258.021,436.591 C258.021,436.591 258.021,433.261 258.465,431.262 C258.909,429.264 259.353,427.043 259.353,427.043 L264.682,426.6 z" fill-opacity="0" stroke="#1A2E35" stroke-width="1" stroke-linecap="round" stroke-linejoin="round"/>
      <path d="M264.237,430.374 L264.681,426.6 L259.352,427.043 C259.352,427.043 259.029,428.659 258.659,430.374 z" fill="#FFFFFF"/>
      <path d="M264.237,430.374 L264.681,426.6 L259.352,427.043 C259.352,427.043 259.029,428.659 258.659,430.374 L264.237,430.374 z" fill-opacity="0" stroke="#1A2E35" stroke-width="1" stroke-linecap="round" stroke-linejoin="round"/>
      <path d="M252.691,406.616 C252.691,406.616 246.253,404.395 245.364,405.95 C244.476,407.504 246.03,422.158 246.696,426.155 C247.362,430.151 249.139,434.593 250.249,434.148 C251.359,433.704 252.025,420.16 252.914,418.162 C253.801,416.164 256.688,411.279 256.688,411.279 z" fill="#AAFF00"/>
      <path d="M252.691,406.616 C252.691,406.616 246.253,404.395 245.364,405.95 C244.476,407.504 246.03,422.158 246.696,426.155 C247.362,430.151 249.139,434.593 250.249,434.148 C251.359,433.704 252.025,420.16 252.914,418.162 C253.801,416.164 256.688,411.279 256.688,411.279 L252.691,406.616 z" fill-opacity="0" stroke="#1A2E35" stroke-width="1" stroke-linecap="round" stroke-linejoin="round"/>
      <path d="M250.32,405.924 C250.561,408.675 251.36,412.833 251.36,412.833 L255.889,412.653 C256.358,411.84 256.689,411.279 256.689,411.279 L252.692,406.616 C252.692,406.616 251.634,406.254 250.32,405.924" fill="#FFFFFF"/>
      <path d="M250.32,405.924 C250.561,408.675 251.36,412.833 251.36,412.833 L255.889,412.653 C256.358,411.84 256.689,411.279 256.689,411.279 L252.692,406.616 C252.692,406.616 251.634,406.254 250.32,405.924 z" fill-opacity="0" stroke="#1A2E35" stroke-width="1" stroke-linecap="round" stroke-linejoin="round"/>
      <path d="M248.473,301.372 C248.473,301.372 242.256,308.255 241.812,316.248 C241.368,324.241 250.693,334.233 254.69,338.452 C258.686,342.67 281.556,368.87 281.556,368.87 C281.556,368.87 273.562,373.977 269.788,381.748 C266.014,389.519 252.691,406.616 252.691,406.616 L256.91,412.611 C256.91,412.611 283.776,385.745 286.885,382.858 C289.993,379.972 297.32,371.091 297.32,369.314 C297.32,367.538 286.663,348.665 283.999,341.338 C281.334,334.011 266.458,313.806 266.458,313.806 C266.458,313.806 257.133,303.37 248.473,301.372" fill="#1A2E35"/>
      <path d="M248.473,301.372 C248.473,301.372 242.256,308.255 241.812,316.248 C241.368,324.241 250.693,334.233 254.69,338.452 C258.686,342.67 281.556,368.87 281.556,368.87 C281.556,368.87 273.562,373.977 269.788,381.748 C266.014,389.519 252.691,406.616 252.691,406.616 L256.91,412.611 C256.91,412.611 283.776,385.745 286.885,382.858 C289.993,379.972 297.32,371.091 297.32,369.314 C297.32,367.538 286.663,348.665 283.999,341.338 C281.334,334.011 266.458,313.806 266.458,313.806 C266.458,313.806 257.133,303.37 248.473,301.372 z" fill-opacity="0" stroke="#1A2E35" stroke-width="1" stroke-linecap="round" stroke-linejoin="round"/>
      <path d="M269.668,352.527 L270.739,353.678" fill-opacity="0" stroke="#FFFFFF" stroke-width="1" stroke-linecap="round" stroke-linejoin="round"/>
      <path d="M256.257,338.101 L267.986,350.718" fill-opacity="0" stroke="#FFFFFF" stroke-width="1" stroke-linecap="round" stroke-linejoin="round"/>
      <path d="M258.242,398.278 C257.444,399.304 256.873,400.018 256.696,400.196" fill-opacity="0" stroke="#FFFFFF" stroke-width="1" stroke-linecap="round" stroke-linejoin="round"/>
      <path d="M268.105,385.275 C268.105,385.275 263.68,391.174 260.329,395.565" fill-opacity="0" stroke="#FFFFFF" stroke-width="1" stroke-linecap="round" stroke-linejoin="round"/>
      <path d="M300.651,328.017 C300.651,328.017 305.091,332.679 306.202,334.9 C307.312,337.12 309.089,341.783 307.755,342.004 C306.423,342.227 305.536,338.008 305.536,338.008 C305.536,338.008 306.423,342.004 305.979,343.115 C305.536,344.225 304.204,339.119 304.204,339.119 C304.204,339.119 304.425,343.781 303.759,343.115 C303.093,342.449 302.205,338.23 302.205,338.23 C302.205,338.23 301.761,343.337 301.094,342.227 C300.428,341.117 300.428,338.008 300.428,338.008 C300.428,338.008 298.209,334.677 297.098,332.235 C295.988,329.792 295.988,328.905 295.988,328.905 z" fill="#FFFFFF"/>
      <path d="M300.651,328.017 C300.651,328.017 305.091,332.679 306.202,334.9 C307.312,337.12 309.089,341.783 307.755,342.004 C306.423,342.227 305.536,338.008 305.536,338.008 C305.536,338.008 306.423,342.004 305.979,343.115 C305.536,344.225 304.204,339.119 304.204,339.119 C304.204,339.119 304.425,343.781 303.759,343.115 C303.093,342.449 302.205,338.23 302.205,338.23 C302.205,338.23 301.761,343.337 301.094,342.227 C300.428,341.117 300.428,338.008 300.428,338.008 C300.428,338.008 298.209,334.677 297.098,332.235 C295.988,329.792 295.988,328.905 295.988,328.905 L300.651,328.017 z" fill-opacity="0" stroke="#1A2E35" stroke-width="1" stroke-linecap="round" stroke-linejoin="round"/>
      <g>
        <path d="M300.252,332.509 C300.252,332.509 300.131,334.08 300.856,334.805 C301.581,335.53 303.514,336.134 303.514,336.134 C303.514,336.134 306.413,340.483 306.413,339.032 C306.413,337.583 304.963,333.597 303.635,332.268" fill="#FFFFFF"/>
        <path d="M300.252,332.509 C300.252,332.509 300.131,334.08 300.856,334.805 C301.581,335.53 303.514,336.134 303.514,336.134 C303.514,336.134 306.413,340.483 306.413,339.032 C306.413,337.583 304.963,333.597 303.635,332.268" fill-opacity="0" stroke="#1A2E35" stroke-width="1" stroke-linecap="round" stroke-linejoin="round"/>
      </g>
      <path d="M287.551,294.933 C287.551,294.933 292.436,304.703 294.212,309.81 C295.989,314.916 301.539,327.573 301.539,327.573 L296.21,330.681 C296.21,330.681 289.55,320.912 286.663,315.805 C283.777,310.698 282.445,307.145 282.445,307.145 z" fill="#AAFF00"/>
      <path d="M287.551,294.933 C287.551,294.933 292.436,304.703 294.212,309.81 C295.989,314.916 301.539,327.573 301.539,327.573 L296.21,330.681 C296.21,330.681 289.55,320.912 286.663,315.805 C283.777,310.698 282.445,307.145 282.445,307.145 L287.551,294.933 z" fill-opacity="0" stroke="#1A2E35" stroke-width="1" stroke-linecap="round" stroke-linejoin="round"/>
      <path d="M285.588,309.605 L284.699,320.04 C284.699,320.04 277.595,317.598 276.262,316.708 C274.93,315.822 275.152,309.827 276.484,302.944 C277.817,296.06 286.254,276.078 286.254,276.078 z" fill="#1A2E35"/>
      <path d="M285.588,309.605 L284.699,320.04 C284.699,320.04 277.595,317.598 276.262,316.708 C274.93,315.822 275.152,309.827 276.484,302.944 C277.817,296.06 286.254,276.078 286.254,276.078 L285.588,309.605 z" fill-opacity="0" stroke="#1A2E35" stroke-width="1" stroke-linecap="round" stroke-linejoin="round"/>
      <path d="M280.89,249.86 C280.89,249.86 285.553,259.186 285.997,262.96 C286.441,266.735 287.995,273.618 286.219,280.278 C284.443,286.94 280.224,296.709 279.558,304.481 C278.892,312.252 277.338,320.911 277.338,320.911 L275.118,325.13 L271.12,318.691 L271.12,324.241 C271.12,324.241 268.012,320.911 263.127,318.247 C258.243,315.582 252.026,306.923 252.026,306.923 L249.583,304.481 C249.583,304.481 260.242,262.072 261.129,256.299 C262.018,250.527 268.012,248.528 271.565,247.862 C275.118,247.196 280.89,249.86 280.89,249.86" fill="#FFFFFF"/>
      <path d="M280.89,249.86 C280.89,249.86 285.553,259.186 285.997,262.96 C286.441,266.735 287.995,273.618 286.219,280.278 C284.443,286.94 280.224,296.709 279.558,304.481 C278.892,312.252 277.338,320.911 277.338,320.911 L275.118,325.13 L271.12,318.691 L271.12,324.241 C271.12,324.241 268.012,320.911 263.127,318.247 C258.243,315.582 252.026,306.923 252.026,306.923 L249.583,304.481 C249.583,304.481 260.242,262.072 261.129,256.299 C262.018,250.527 268.012,248.528 271.565,247.862 C275.118,247.196 280.89,249.86 280.89,249.86 z" fill-opacity="0" stroke="#1A2E35" stroke-width="1" stroke-linecap="round" stroke-linejoin="round"/>
      <path d="M281.591,254.54 C281.591,254.54 284.39,260.386 284.082,265.763 C283.88,269.31 284.478,274.301 284.478,274.301 C284.478,274.301 283.589,296.504 284.255,300.278 C284.921,304.054 285.588,309.604 285.588,309.604 C285.588,309.604 287.363,286.734 288.474,281.85 C289.584,276.965 291.139,272.303 289.362,266.974 C287.586,261.644 286.254,256.316 284.478,254.096 C282.701,251.875 279.815,250.321 279.815,250.321 z" fill="#AAFF00"/>
      <path d="M281.591,254.54 C281.591,254.54 284.39,260.386 284.082,265.763 C283.88,269.31 284.478,274.301 284.478,274.301 C284.478,274.301 283.589,296.504 284.255,300.278 C284.921,304.054 285.588,309.604 285.588,309.604 C285.588,309.604 287.363,286.734 288.474,281.85 C289.584,276.965 291.139,272.303 289.362,266.974 C287.586,261.644 286.254,256.316 284.478,254.096 C282.701,251.875 279.815,250.321 279.815,250.321 L281.591,254.54 z" fill-opacity="0" stroke="#1A2E35" stroke-width="1" stroke-linecap="round" stroke-linejoin="round"/>
      <path d="M277.781,258.52 L277.014,263.458 C277.014,263.458 270.454,256.522 270.677,252.303 C270.898,248.084 271.787,245.198 275.117,244.31 C278.447,243.421 280.804,250.62 281.47,254.394 C282.136,258.168 279.933,262.69 279.933,262.69 z" fill="#FFFFFF"/>
      <path d="M277.781,258.52 L277.014,263.458 C277.014,263.458 270.454,256.522 270.677,252.303 C270.898,248.084 271.787,245.198 275.117,244.31 C278.447,243.421 280.804,250.62 281.47,254.394 C282.136,258.168 279.933,262.69 279.933,262.69 L277.781,258.52 z" fill-opacity="0" stroke="#1A2E35" stroke-width="1" stroke-linecap="round" stroke-linejoin="round"/>
      <path d="M285.997,243.643 C285.997,243.643 281.334,251.192 279.78,254.522 C278.226,257.853 277.781,258.519 277.781,258.519 C277.781,258.519 275.117,249.86 275.117,247.196 C275.117,244.531 275.339,240.535 275.339,240.535 L280.668,233.43 z" fill="#FFFFFF"/>
      <path d="M285.997,243.643 C285.997,243.643 281.334,251.192 279.78,254.522 C278.226,257.853 277.781,258.519 277.781,258.519 C277.781,258.519 275.117,249.86 275.117,247.196 C275.117,244.531 275.339,240.535 275.339,240.535 L280.668,233.43 L285.997,243.643 z" fill-opacity="0" stroke="#1A2E35" stroke-width="1" stroke-linecap="round" stroke-linejoin="round"/>
      <path d="M292.436,215.889 C292.436,215.889 298.652,221.662 299.54,228.545 C300.428,235.428 296.433,240.979 291.77,243.2 C287.108,245.42 283.777,245.198 281.557,241.423 C279.336,237.649 281.779,221.662 285.109,217.888 C288.44,214.113 292.436,215.889 292.436,215.889" fill="#1A2E35"/>
      <path d="M292.436,215.889 C292.436,215.889 298.652,221.662 299.54,228.545 C300.428,235.428 296.433,240.979 291.77,243.2 C287.108,245.42 283.777,245.198 281.557,241.423 C279.336,237.649 281.779,221.662 285.109,217.888 C288.44,214.113 292.436,215.889 292.436,215.889 z" fill-opacity="0" stroke="#1A2E35" stroke-width="1" stroke-linecap="round" stroke-linejoin="round"/>
      <path d="M289.993,218.998 C289.993,218.998 293.546,220.996 293.546,227.435 C293.546,230.995 290.882,238.981 290.437,241.423 C289.993,243.866 287.551,245.198 285.553,244.754 C283.555,244.31 278.447,239.647 277.338,238.759 C276.227,237.871 274.895,234.318 275.117,228.989 C275.339,223.661 281.556,215.667 289.993,218.998" fill="#FFFFFF"/>
      <path d="M289.993,218.998 C289.993,218.998 293.546,220.996 293.546,227.435 C293.546,230.995 290.882,238.981 290.437,241.423 C289.993,243.866 287.551,245.198 285.553,244.754 C283.555,244.31 278.447,239.647 277.338,238.759 C276.227,237.871 274.895,234.318 275.117,228.989 C275.339,223.661 281.556,215.667 289.993,218.998 z" fill-opacity="0" stroke="#1A2E35" stroke-width="1" stroke-linecap="round" stroke-linejoin="round"/>
      <path d="M291.77,217.665 C291.77,217.665 284.443,226.324 279.336,234.54 C274.23,242.755 274.452,245.419 270.233,243.421 C266.014,241.423 255.579,230.987 256.911,223.66 C258.243,216.333 262.24,205.231 276.672,205.231 C291.104,205.231 295.767,211.004 291.77,217.665" fill="#1A2E35"/>
      <path d="M291.77,217.665 C291.77,217.665 284.443,226.324 279.336,234.54 C274.23,242.755 274.452,245.419 270.233,243.421 C266.014,241.423 255.579,230.987 256.911,223.66 C258.243,216.333 262.24,205.231 276.672,205.231 C291.104,205.231 295.767,211.004 291.77,217.665 z" fill-opacity="0" stroke="#1A2E35" stroke-width="1" stroke-linecap="round" stroke-linejoin="round"/>
      <path d="M271.564,247.862 C271.564,247.862 272.896,258.075 274.895,263.849 C276.893,269.621 280.003,273.84 280.003,273.84 C280.003,273.84 274.451,286.94 269.344,295.821 C264.237,304.702 258.242,315.582 258.242,315.582 L246.03,304.925 C246.03,304.925 253.357,287.828 253.58,283.388 C253.801,278.946 255.356,249.86 257.576,249.638 C259.796,249.416 271.564,247.862 271.564,247.862" fill="#AAFF00"/>
      <path d="M271.564,247.862 C271.564,247.862 272.896,258.075 274.895,263.849 C276.893,269.621 280.003,273.84 280.003,273.84 C280.003,273.84 274.451,286.94 269.344,295.821 C264.237,304.702 258.242,315.582 258.242,315.582 L246.03,304.925 C246.03,304.925 253.357,287.828 253.58,283.388 C253.801,278.946 255.356,249.86 257.576,249.638 C259.796,249.416 271.564,247.862 271.564,247.862 z" fill-opacity="0" stroke="#1A2E35" stroke-width="1" stroke-linecap="round" stroke-linejoin="round"/>
      <path d="M241.75,287.25 L261,252 L263.548,249.027 L267.137,248.61 C267.137,248.61 264,251.75 263,253.5 C262,255.25 244.25,287.5 244.25,287.5 z" fill="#FFFFFF"/>
      <path d="M241.75,287.25 L261,252 L263.548,249.027 L267.137,248.61 C267.137,248.61 264,251.75 263,253.5 C262,255.25 244.25,287.5 244.25,287.5 L241.75,287.25 z" fill-opacity="0" stroke="#1A2E35" stroke-width="1" stroke-linecap="round" stroke-linejoin="round"/>
      <path d="M236.425,333.935 C236.425,333.935 234.925,340.311 234.737,341.248 C234.55,342.186 231.737,344.998 231.362,346.686 C230.987,348.373 230.987,350.062 230.237,349.498 C229.487,348.936 229.112,347.248 229.299,346.686 C229.299,346.686 223.111,343.686 222.924,342.561 C222.736,341.436 232.3,333.748 232.3,333.748 z" fill="#FFFFFF"/>
      <path d="M236.425,333.935 C236.425,333.935 234.925,340.311 234.737,341.248 C234.55,342.186 231.737,344.998 231.362,346.686 C230.987,348.373 230.987,350.062 230.237,349.498 C229.487,348.936 229.112,347.248 229.299,346.686 C229.299,346.686 223.111,343.686 222.924,342.561 C222.736,341.436 232.3,333.748 232.3,333.748 L236.425,333.935 z" fill-opacity="0" stroke="#1A2E35" stroke-width="1" stroke-linecap="round" stroke-linejoin="round"/>
      <g>
        <path d="M229.299,346.686 C229.299,346.686 229.861,343.311 231.174,341.436" fill="#FFFFFF"/>
        <path d="M229.299,346.686 C229.299,346.686 229.861,343.311 231.174,341.436" fill-opacity="0" stroke="#1A2E35" stroke-width="1" stroke-linecap="round" stroke-linejoin="round"/>
      </g>
      <path d="M239.947,286.909 L262.31,289.784 L257.198,323.647 L249.531,324.286 L228.766,312.786 z" fill="#FFFFFF"/>
      <path d="M239.947,286.909 L262.31,289.784 L257.198,323.647 L249.531,324.286 L228.766,312.786 L239.947,286.909 z" fill-opacity="0" stroke="#1A2E35" stroke-width="1" stroke-linecap="round" stroke-linejoin="round"/>
      <path d="M256.24,289.465 L249.531,324.286 L257.198,323.648 L262.309,289.784 z" fill="#FFFFFF"/>
      <path d="M256.24,289.465 L249.531,324.286 L257.198,323.648 L262.309,289.784 L256.24,289.465 z" fill-opacity="0" stroke="#1A2E35" stroke-width="1" stroke-linecap="round" stroke-linejoin="round"/>
      <path d="M263.548,249.027 C263.548,249.027 269.657,254.962 266.144,265.184 C262.629,275.408 256.24,289.465 256.24,289.465 L259.435,289.465 L270.142,261.796 C270.142,261.796 271.143,257.957 269.641,254.034 C268.139,250.111 267.137,248.61 267.137,248.61 z" fill="#FFFFFF"/>
      <path d="M263.548,249.027 C263.548,249.027 269.657,254.962 266.144,265.184 C262.629,275.408 256.24,289.465 256.24,289.465 L259.435,289.465 L270.142,261.796 C270.142,261.796 271.143,257.957 269.641,254.034 C268.139,250.111 267.137,248.61 267.137,248.61 L263.548,249.027 z" fill-opacity="0" stroke="#1A2E35" stroke-width="1" stroke-linecap="round" stroke-linejoin="round"/>
      <g>
        <path d="M265.126,248.972 C265.126,248.972 254.912,248.972 254.69,250.526 C254.468,252.08 245.365,288.494 244.254,290.492 C243.144,292.49 238.926,298.93 238.038,303.814 C237.149,308.699 231.376,334.233 231.376,334.233 L237.593,335.121 C237.593,335.121 249.805,308.255 250.916,303.593 C252.025,298.93 253.58,290.048 253.58,290.048 C253.58,290.048 267.79,261.183 267.568,258.519 C267.346,255.855 266.68,254.079 266.68,254.079" fill="#AAFF00"/>
        <path d="M265.126,248.972 C265.126,248.972 254.912,248.972 254.69,250.526 C254.468,252.08 245.365,288.494 244.254,290.492 C243.144,292.49 238.926,298.93 238.038,303.814 C237.149,308.699 231.376,334.233 231.376,334.233 L237.593,335.121 C237.593,335.121 249.805,308.255 250.916,303.593 C252.025,298.93 253.58,290.048 253.58,290.048 C253.58,290.048 267.79,261.183 267.568,258.519 C267.346,255.855 266.68,254.079 266.68,254.079" fill-opacity="0" stroke="#1A2E35" stroke-width="1" stroke-linecap="round" stroke-linejoin="round"/>
      </g>
      <path d="M166.934,432.895 C166.934,430.927 165.339,429.332 163.371,429.332 C161.404,429.332 159.809,430.927 159.809,432.895 C159.809,434.863 161.404,436.458 163.371,436.458 C165.339,436.458 166.934,434.863 166.934,432.895" fill="#1A2E35"/>
      <path d="M166.934,432.895 C166.934,430.927 165.339,429.332 163.371,429.332 C161.404,429.332 159.809,430.927 159.809,432.895 C159.809,434.863 161.404,436.458 163.371,436.458 C165.339,436.458 166.934,434.863 166.934,432.895 z" fill-opacity="0" stroke="#1A2E35" stroke-width="1" stroke-linecap="round" stroke-linejoin="round"/>
      <path d="M220.708,354.398 L168.059,431.958" fill-opacity="0" stroke="#1A2E35" stroke-width="2" stroke-linecap="round" stroke-linejoin="round"/>
      <path d="M229.111,342.186 L220.708,354.398" fill-opacity="0" stroke="#1A2E35" stroke-width="4" stroke-linecap="round" stroke-linejoin="round"/>
      <path d="M162.495,428.405 L146.92,417.615 C145.347,416.526 144.955,414.367 146.045,412.794 L173.173,373.634 C174.263,372.061 176.421,371.67 177.995,372.759 L193.569,383.55 C195.142,384.639 195.534,386.798 194.445,388.371 L167.317,427.53 C166.227,429.103 164.068,429.495 162.495,428.405" fill="#1A2E35"/>
      <path d="M162.495,428.405 L146.92,417.615 C145.347,416.526 144.955,414.367 146.045,412.794 L173.173,373.634 C174.263,372.061 176.421,371.67 177.995,372.759 L193.569,383.55 C195.142,384.639 195.534,386.798 194.445,388.371 L167.317,427.53 C166.227,429.103 164.068,429.495 162.495,428.405 z" fill-opacity="0" stroke="#1A2E35" stroke-width="1" stroke-linecap="round" stroke-linejoin="round"/>
      <path d="M138.383,408.508 L147.879,415.086 L171.905,380.404 L161.352,373.093 C159.689,371.941 157.406,372.356 156.255,374.018 L137.133,401.62 C135.576,403.867 136.136,406.951 138.383,408.508" fill="#1A2E35"/>
      <path d="M138.383,408.508 L147.879,415.086 L171.905,380.404 L161.352,373.093 C159.689,371.941 157.406,372.356 156.255,374.018 L137.133,401.62 C135.576,403.867 136.136,406.951 138.383,408.508 z" fill-opacity="0" stroke="#1A2E35" stroke-width="1" stroke-linecap="round" stroke-linejoin="round"/>
      <path d="M140.541,410.003 L150.037,416.581 L174.063,381.899 L163.509,374.588 C161.846,373.436 159.564,373.85 158.412,375.513 L139.291,403.115 C137.734,405.362 138.293,408.446 140.541,410.003" fill="#AAFF00"/>
      <path d="M140.541,410.003 L150.037,416.581 L174.063,381.899 L163.509,374.588 C161.846,373.436 159.564,373.85 158.412,375.513 L139.291,403.115 C137.734,405.362 138.293,408.446 140.541,410.003 z" fill-opacity="0" stroke="#1A2E35" stroke-width="1" stroke-linecap="round" stroke-linejoin="round"/>
      <path d="M164.585,375.333 L153.732,390.082 C153.339,390.617 153.453,391.371 153.988,391.765 L156.627,393.706 C157.163,394.101 157.916,393.985 158.31,393.45 L169.258,378.57 z" fill="#1A2E35"/>
      <path d="M164.961,430.114 L149.386,419.324 C147.813,418.234 147.421,416.076 148.511,414.503 L175.639,375.343 C176.729,373.77 178.887,373.379 180.46,374.468 L196.035,385.259 C197.608,386.347 198,388.507 196.911,390.08 L169.783,429.239 C168.693,430.812 166.534,431.204 164.961,430.114" fill="#AAFF00"/>
      <path d="M164.961,430.114 L149.386,419.324 C147.813,418.234 147.421,416.076 148.511,414.503 L175.639,375.343 C176.729,373.77 178.887,373.379 180.46,374.468 L196.035,385.259 C197.608,386.347 198,388.507 196.911,390.08 L169.783,429.239 C168.693,430.812 166.534,431.204 164.961,430.114 z" fill-opacity="0" stroke="#1A2E35" stroke-width="1" stroke-linecap="round" stroke-linejoin="round"/>
      <path d="M164.872,426.332 L162.247,433.645 L163.56,434.395 L168.435,428.582 z" fill="#FFFFFF"/>
      <path d="M164.872,426.332 L162.247,433.645 L163.56,434.395 L168.435,428.582 L164.872,426.332 z" fill-opacity="0" stroke="#1A2E35" stroke-width="1" stroke-linecap="round" stroke-linejoin="round"/>
      <path d="M185.961,378.279 L173.847,394.519 C173.425,395.086 173.542,395.886 174.107,396.308 L176.613,398.177 C177.179,398.599 177.98,398.483 178.402,397.918 L190.635,381.517 z" fill="#1A2E35"/>
      <path d="M165.417,423.201 L154.87,415.636 C153.51,414.659 153.197,412.765 154.174,411.405 L162.232,400.171 C163.208,398.81 165.103,398.499 166.464,399.474 L177.01,407.04 C178.37,408.016 178.682,409.91 177.706,411.27 L169.646,422.505 C168.671,423.865 166.777,424.177 165.417,423.201" fill="#1A2E35"/>
      <path d="M165.417,423.201 L154.87,415.636 C153.51,414.659 153.197,412.765 154.174,411.405 L162.232,400.171 C163.208,398.81 165.103,398.499 166.464,399.474 L177.01,407.04 C178.37,408.016 178.682,409.91 177.706,411.27 L169.646,422.505 C168.671,423.865 166.777,424.177 165.417,423.201 z" fill-opacity="0" stroke="#1A2E35" stroke-width="1" stroke-linecap="round" stroke-linejoin="round"/>
      <path d="M166.6,424.385 L156.054,416.82 C154.693,415.843 154.382,413.949 155.358,412.589 L163.416,401.355 C164.392,399.994 166.287,399.683 167.647,400.658 L178.193,408.225 C179.554,409.2 179.865,411.094 178.89,412.455 L170.83,423.689 C169.854,425.049 167.96,425.361 166.6,424.385" fill="#AAFF00"/>
      <path d="M166.6,424.385 L156.054,416.82 C154.693,415.843 154.382,413.949 155.358,412.589 L163.416,401.355 C164.392,399.994 166.287,399.683 167.647,400.658 L178.193,408.225 C179.554,409.2 179.865,411.094 178.89,412.455 L170.83,423.689 C169.854,425.049 167.96,425.361 166.6,424.385 z" fill-opacity="0" stroke="#1A2E35" stroke-width="1" stroke-linecap="round" stroke-linejoin="round"/>
    </g>
  </g>
  <g id="Plants">
    <g>
      <path d="M76.988,403.868 C77.207,403.676 77.615,403.316 78.384,402.64 C79.182,401.939 80.572,399.224 82.1,396.1 C81.456,394.758 80.841,393.407 80.366,392.046 C78.719,395.112 77.225,397.491 76.383,398.778 C76.631,400.477 76.829,402.198 76.988,403.868 M82.611,411.715 C83.614,410.645 84.716,409.372 85.91,407.829 C85.922,407.347 85.862,406.284 85.399,404.165 C85.003,402.351 84.222,400.533 83.355,398.703 C81.51,400.457 80.148,401.622 80.148,401.622 L77.034,404.359 C77.282,407.084 77.424,409.64 77.506,411.715 z M86.856,406.576 C87.596,405.572 88.365,404.473 89.16,403.271 C89.648,401.237 89.988,399.143 90.141,397.066 C90.273,395.275 90.136,393.49 89.895,391.707 C88.602,393.337 87.096,394.975 85.657,396.44 C85.703,397.959 85.865,399.495 86.23,401.076 C86.283,401.303 86.786,404.699 86.856,406.576 M59.145,356.394 C62.16,360.863 66.357,366.676 68.598,371.341 C67.743,368.264 66.913,365.357 66.151,362.732 C65.004,360.482 61.935,354.792 58.39,350.999 C53.888,346.18 51.965,343.084 54.388,342.815 C56.068,342.629 60.983,349.176 64.062,355.677 C63.39,353.455 62.863,351.759 62.542,350.766 C62.397,350.315 62.253,349.821 62.113,349.299 C60.523,347.086 56.856,341.783 53.421,335.362 C48.873,326.861 47.408,318.841 50.441,322.291 C53.234,325.468 58.093,341.253 61.953,348.687 C61.627,347.408 61.32,345.991 61.043,344.596 C60.497,343.243 59.782,341.872 59.372,340.625 C58.743,338.709 58.188,336.767 57.742,334.801 C57.046,331.727 56.593,328.574 56.634,325.418 C56.681,321.673 57.456,318.064 59.539,314.931 C60.063,314.143 63.255,309.372 64.239,311.827 C64.396,312.221 64.358,312.661 64.31,313.082 C63.845,317.147 62.37,320.882 61.458,324.84 C60.093,330.762 61,340.704 61.485,344.932 C61.66,345.599 61.881,346.432 62.137,347.392 C61.5,340.024 64.693,331.293 67.651,329.767 C71.311,327.88 67.72,335.292 64.898,341.762 C63.072,345.948 62.935,349.122 63.066,350.844 C63.644,352.97 64.304,355.36 64.992,357.78 C65.128,358.112 65.257,358.442 65.379,358.769 C65.091,357.183 64.899,355.472 64.995,353.973 C65.267,349.745 70.058,341.278 73.236,342.473 C76.414,343.669 71.032,348.135 68.15,353.327 C66.176,356.884 66.248,360.638 66.489,362.65 C66.524,362.843 66.552,363.031 66.576,363.216 C66.907,364.317 67.234,365.385 67.553,366.392 C68.299,368.755 68.994,370.98 69.658,373.15 C69.024,370.532 68.376,366.89 68.593,363.513 C68.992,357.31 72.624,351.459 75.648,350.662 C78.671,349.866 72.926,359.97 71.004,365.649 C69.552,369.936 70.125,374.11 70.493,375.899 C71.417,378.974 72.297,382.005 73.191,385.218 C72.873,381.691 73.078,377.119 73.46,372.617 C74.046,365.72 78.15,361.313 80.969,361.495 C83.788,361.676 80.847,365.592 76.77,373.962 C73.848,379.964 73.792,385.493 73.995,388.144 C74.363,389.498 74.735,390.889 75.118,392.341 C75.552,393.992 75.91,395.79 76.207,397.635 C76.616,395.992 77.225,393.588 77.935,390.936 C78.729,387.974 79.395,385.027 79.728,381.981 C80.113,378.465 81.038,374.076 84.486,372.246 C85.653,371.627 86.761,371.856 87.38,373.028 C87.759,373.749 87.715,374.613 87.585,375.415 C87.205,377.77 86.295,380.065 85.241,382.302 C85.984,383.491 86.185,385.242 86.136,386.522 C86.115,387.074 86.085,387.619 86.051,388.161 C86.352,387.604 86.642,387.088 86.916,386.631 C87.444,385.75 88.073,385 88.728,384.398 C88.559,383.092 88.448,381.78 88.462,380.463 C88.479,378.752 90.467,374.392 92.274,377.624 C92.997,378.916 92.857,381.454 92.928,383.141 C93.425,383.604 93.571,384.556 93.155,386.059 C93.441,389.957 93.488,393.951 92.548,397.739 C92.755,397.377 92.962,397.014 93.169,396.648 C93.425,395.396 94.531,389.663 94.732,382.965 C94.96,375.378 93.747,369.147 95.816,366.811 C97.884,364.475 99.036,372.703 98.168,381.669 C97.686,386.65 96.18,390.797 94.937,393.5 C96.964,389.857 98.969,386.142 100.865,382.556 C101.676,380.639 103.584,375.471 103.107,370.227 C102.506,363.614 102.069,358.206 104.578,354.484 C107.088,350.763 107.615,353.177 106.383,360.933 C105.538,366.259 104.638,373.371 103.093,378.309 C104.567,375.477 105.945,372.787 107.178,370.347 C107.877,367.921 109.516,361.667 109.514,356.475 C109.512,349.881 110.219,346.305 112.174,347.763 C113.528,348.772 112.653,356.912 110.467,363.765 C111.492,361.682 112.264,360.083 112.707,359.139 C112.908,358.71 113.141,358.251 113.395,357.772 C113.743,355.07 114.682,348.691 116.553,341.655 C119.031,332.337 123.433,325.475 123.295,330.067 C123.168,334.295 115.948,349.149 113.696,357.217 C114.33,356.06 115.072,354.814 115.823,353.604 C116.346,352.244 116.76,350.754 117.312,349.562 C118.159,347.733 119.078,345.934 120.095,344.193 C121.683,341.472 123.504,338.858 125.688,336.578 C128.278,333.873 131.307,331.764 134.967,330.896 C135.888,330.678 141.479,329.369 140.522,331.835 C140.368,332.229 140.04,332.526 139.717,332.801 C136.603,335.455 132.976,337.178 129.609,339.448 C124.57,342.846 118.447,350.731 115.916,354.153 C115.589,354.761 115.181,355.519 114.713,356.396 C119.277,350.576 127.569,346.373 130.772,347.277 C134.736,348.394 127.053,351.361 120.574,354.165 C116.383,355.978 114.117,358.206 113.037,359.553 C112.009,361.501 110.86,363.699 109.711,365.937 C109.584,366.272 109.453,366.601 109.319,366.925 C110.191,365.568 111.218,364.186 112.312,363.157 C115.396,360.252 124.676,357.333 126.183,360.375 C127.691,363.418 120.709,363.009 115.059,364.838 C111.189,366.091 108.679,368.884 107.482,370.519 C107.376,370.682 107.268,370.84 107.16,370.991 C106.65,372.022 106.16,373.026 105.705,373.98 C104.639,376.216 103.628,378.316 102.633,380.356 C103.955,378.01 105.967,374.906 108.432,372.585 C112.956,368.324 119.604,366.525 122.358,368.007 C125.111,369.488 114.016,372.952 108.736,375.791 C104.749,377.934 102.319,381.376 101.366,382.934 C99.943,385.814 98.518,388.629 96.979,391.587 C99.153,388.793 102.424,385.591 105.776,382.561 C110.91,377.919 116.918,377.5 118.854,379.556 C120.791,381.612 115.969,382.467 107.277,385.804 C101.045,388.195 97.231,392.199 95.57,394.275 C94.915,395.515 94.238,396.786 93.526,398.109 C92.717,399.612 91.752,401.171 90.71,402.722 C92.129,401.8 94.216,400.459 96.544,399.006 C99.146,397.382 101.644,395.681 103.966,393.682 C106.647,391.375 110.318,388.799 114.088,389.814 C115.363,390.158 116.016,391.083 115.669,392.36 C115.454,393.147 114.832,393.748 114.191,394.246 C110.634,397.005 105.851,398.33 101.711,399.96 C96.602,401.971 92.143,403.167 90.058,403.678 C89.079,405.089 88.051,406.481 87.026,407.81 C87.318,407.819 87.862,407.836 88.884,407.866 C91.081,407.932 101.008,403.434 106.047,401.986 C111.086,400.539 115.8,403.278 110.519,406.117 C105.238,408.956 90.869,408.326 90.869,408.326 L86.725,408.201 C85.755,409.45 84.797,410.633 83.898,411.715 L103.58,411.715 L103.58,417.173 L99.694,417.173 L96.534,436.591 L70.373,436.591 L67.214,417.173 L63.326,417.173 L63.326,411.715 L76.377,411.715 C76.471,409.863 76.452,407.527 76.184,404.643 C75.864,404.283 75.094,403.547 73.31,402.314 C67.584,398.357 57.873,398.029 55.294,390.414 C54.67,388.573 55.376,386.22 57.573,386.321 C59.15,386.393 60.826,387.779 61.809,388.915 C65.084,392.7 67.551,396.621 71.81,399.488 C72.003,399.618 74.689,401.758 76.021,403.082 C75.877,401.843 75.689,400.515 75.449,399.094 C74.418,397.274 73.238,395.512 71.932,393.889 C68.448,389.562 63.145,387.024 59.373,382.899 C58.218,381.637 56.696,377.094 60.223,378.222 C61.794,378.725 63.642,381.098 64.864,382.187 C68.334,385.281 71.866,388.633 74.15,392.738 C74.054,392.332 73.957,391.926 73.86,391.517 C73.193,390.428 70.089,385.482 65.664,380.449 C60.653,374.748 55.514,371.021 55.432,367.902 C55.349,364.783 61.806,370.011 67.291,377.157 C70.338,381.127 72.067,385.184 73.004,388.01 C71.999,383.963 70.929,379.88 69.868,375.965 C69.153,374.011 67.02,368.93 63.092,365.423 C58.14,361 54.13,357.345 53.424,352.912 C52.718,348.479 54.751,349.884 59.145,356.394" fill="#AAFF00"/>
      <g clip-path="url(#Clip_2)" opacity="0.4">
        <path d="M76.988,403.868 C77.207,403.676 77.615,403.316 78.384,402.64 C79.182,401.939 80.572,399.224 82.1,396.1 C81.456,394.758 80.841,393.407 80.366,392.046 C78.719,395.112 77.225,397.491 76.383,398.778 C76.631,400.477 76.829,402.198 76.988,403.868 M82.611,411.715 C83.614,410.645 84.716,409.372 85.91,407.829 C85.922,407.347 85.862,406.284 85.399,404.165 C85.003,402.351 84.222,400.533 83.355,398.703 C81.51,400.457 80.148,401.622 80.148,401.622 L77.034,404.359 C77.282,407.084 77.424,409.64 77.506,411.715 z M86.856,406.576 C87.596,405.572 88.365,404.473 89.16,403.271 C89.648,401.237 89.988,399.143 90.141,397.066 C90.273,395.275 90.136,393.49 89.895,391.707 C88.602,393.337 87.096,394.975 85.657,396.44 C85.703,397.959 85.865,399.495 86.23,401.076 C86.283,401.303 86.786,404.699 86.856,406.576 M59.145,356.394 C62.16,360.863 66.357,366.676 68.598,371.341 C67.743,368.264 66.913,365.357 66.151,362.732 C65.004,360.482 61.935,354.792 58.39,350.999 C53.888,346.18 51.965,343.084 54.388,342.815 C56.068,342.629 60.983,349.176 64.062,355.677 C63.39,353.455 62.863,351.759 62.542,350.766 C62.397,350.315 62.253,349.821 62.113,349.299 C60.523,347.086 56.856,341.783 53.421,335.362 C48.873,326.861 47.408,318.841 50.441,322.291 C53.234,325.468 58.093,341.253 61.953,348.687 C61.627,347.408 61.32,345.991 61.043,344.596 C60.497,343.243 59.782,341.872 59.372,340.625 C58.743,338.709 58.188,336.767 57.742,334.801 C57.046,331.727 56.593,328.574 56.634,325.418 C56.681,321.673 57.456,318.064 59.539,314.931 C60.063,314.143 63.255,309.372 64.239,311.827 C64.396,312.221 64.358,312.661 64.31,313.082 C63.845,317.147 62.37,320.882 61.458,324.84 C60.093,330.762 61,340.704 61.485,344.932 C61.66,345.599 61.881,346.432 62.137,347.392 C61.5,340.024 64.693,331.293 67.651,329.767 C71.311,327.88 67.72,335.292 64.898,341.762 C63.072,345.948 62.935,349.122 63.066,350.844 C63.644,352.97 64.304,355.36 64.992,357.78 C65.128,358.112 65.257,358.442 65.379,358.769 C65.091,357.183 64.899,355.472 64.995,353.973 C65.267,349.745 70.058,341.278 73.236,342.473 C76.414,343.669 71.032,348.135 68.15,353.327 C66.176,356.884 66.248,360.638 66.489,362.65 C66.524,362.843 66.552,363.031 66.576,363.216 C66.907,364.317 67.234,365.385 67.553,366.392 C68.299,368.755 68.994,370.98 69.658,373.15 C69.024,370.532 68.376,366.89 68.593,363.513 C68.992,357.31 72.624,351.459 75.648,350.662 C78.671,349.866 72.926,359.97 71.004,365.649 C69.552,369.936 70.125,374.11 70.493,375.899 C71.417,378.974 72.297,382.005 73.191,385.218 C72.873,381.691 73.078,377.119 73.46,372.617 C74.046,365.72 78.15,361.313 80.969,361.495 C83.788,361.676 80.847,365.592 76.77,373.962 C73.848,379.964 73.792,385.493 73.995,388.144 C74.363,389.498 74.735,390.889 75.118,392.341 C75.552,393.992 75.91,395.79 76.207,397.635 C76.616,395.992 77.225,393.588 77.935,390.936 C78.729,387.974 79.395,385.027 79.728,381.981 C80.113,378.465 81.038,374.076 84.486,372.246 C85.653,371.627 86.761,371.856 87.38,373.028 C87.759,373.749 87.715,374.613 87.585,375.415 C87.205,377.77 86.295,380.065 85.241,382.302 C85.984,383.491 86.185,385.242 86.136,386.522 C86.115,387.074 86.085,387.619 86.051,388.161 C86.352,387.604 86.642,387.088 86.916,386.631 C87.444,385.75 88.073,385 88.728,384.398 C88.559,383.092 88.448,381.78 88.462,380.463 C88.479,378.752 90.467,374.392 92.274,377.624 C92.997,378.916 92.857,381.454 92.928,383.141 C93.425,383.604 93.571,384.556 93.155,386.059 C93.441,389.957 93.488,393.951 92.548,397.739 C92.755,397.377 92.962,397.014 93.169,396.648 C93.425,395.396 94.531,389.663 94.732,382.965 C94.96,375.378 93.747,369.147 95.816,366.811 C97.884,364.475 99.036,372.703 98.168,381.669 C97.686,386.65 96.18,390.797 94.937,393.5 C96.964,389.857 98.969,386.142 100.865,382.556 C101.676,380.639 103.584,375.471 103.107,370.227 C102.506,363.614 102.069,358.206 104.578,354.484 C107.088,350.763 107.615,353.177 106.383,360.933 C105.538,366.259 104.638,373.371 103.093,378.309 C104.567,375.477 105.945,372.787 107.178,370.347 C107.877,367.921 109.516,361.667 109.514,356.475 C109.512,349.881 110.219,346.305 112.174,347.763 C113.528,348.772 112.653,356.912 110.467,363.765 C111.492,361.682 112.264,360.083 112.707,359.139 C112.908,358.71 113.141,358.251 113.395,357.772 C113.743,355.07 114.682,348.691 116.553,341.655 C119.031,332.337 123.433,325.475 123.295,330.067 C123.168,334.295 115.948,349.149 113.696,357.217 C114.33,356.06 115.072,354.814 115.823,353.604 C116.346,352.244 116.76,350.754 117.312,349.562 C118.159,347.733 119.078,345.934 120.095,344.193 C121.683,341.472 123.504,338.858 125.688,336.578 C128.278,333.873 131.307,331.764 134.967,330.896 C135.888,330.678 141.479,329.369 140.522,331.835 C140.368,332.229 140.04,332.526 139.717,332.801 C136.603,335.455 132.976,337.178 129.609,339.448 C124.57,342.846 118.447,350.731 115.916,354.153 C115.589,354.761 115.181,355.519 114.713,356.396 C119.277,350.576 127.569,346.373 130.772,347.277 C134.736,348.394 127.053,351.361 120.574,354.165 C116.383,355.978 114.117,358.206 113.037,359.553 C112.009,361.501 110.86,363.699 109.711,365.937 C109.584,366.272 109.453,366.601 109.319,366.925 C110.191,365.568 111.218,364.186 112.312,363.157 C115.396,360.252 124.676,357.333 126.183,360.375 C127.691,363.418 120.709,363.009 115.059,364.838 C111.189,366.091 108.679,368.884 107.482,370.519 C107.376,370.682 107.268,370.84 107.16,370.991 C106.65,372.022 106.16,373.026 105.705,373.98 C104.639,376.216 103.628,378.316 102.633,380.356 C103.955,378.01 105.967,374.906 108.432,372.585 C112.956,368.324 119.604,366.525 122.358,368.007 C125.111,369.488 114.016,372.952 108.736,375.791 C104.749,377.934 102.319,381.376 101.366,382.934 C99.943,385.814 98.518,388.629 96.979,391.587 C99.153,388.793 102.424,385.591 105.776,382.561 C110.91,377.919 116.918,377.5 118.854,379.556 C120.791,381.612 115.969,382.467 107.277,385.804 C101.045,388.195 97.231,392.199 95.57,394.275 C94.915,395.515 94.238,396.786 93.526,398.109 C92.717,399.612 91.752,401.171 90.71,402.722 C92.129,401.8 94.216,400.459 96.544,399.006 C99.146,397.382 101.644,395.681 103.966,393.682 C106.647,391.375 110.318,388.799 114.088,389.814 C115.363,390.158 116.016,391.083 115.669,392.36 C115.454,393.147 114.832,393.748 114.191,394.246 C110.634,397.005 105.851,398.33 101.711,399.96 C96.602,401.971 92.143,403.167 90.058,403.678 C89.079,405.089 88.051,406.481 87.026,407.81 C87.318,407.819 87.862,407.836 88.884,407.866 C91.081,407.932 101.008,403.434 106.047,401.986 C111.086,400.539 115.8,403.278 110.519,406.117 C105.238,408.956 90.869,408.326 90.869,408.326 L86.725,408.201 C85.755,409.45 84.797,410.633 83.898,411.715 L103.58,411.715 L103.58,417.173 L99.694,417.173 L96.534,436.591 L70.373,436.591 L67.214,417.173 L63.326,417.173 L63.326,411.715 L76.377,411.715 C76.471,409.863 76.452,407.527 76.184,404.643 C75.864,404.283 75.094,403.547 73.31,402.314 C67.584,398.357 57.873,398.029 55.294,390.414 C54.67,388.573 55.376,386.22 57.573,386.321 C59.15,386.393 60.826,387.779 61.809,388.915 C65.084,392.7 67.551,396.621 71.81,399.488 C72.003,399.618 74.689,401.758 76.021,403.082 C75.877,401.843 75.689,400.515 75.449,399.094 C74.418,397.274 73.238,395.512 71.932,393.889 C68.448,389.562 63.145,387.024 59.373,382.899 C58.218,381.637 56.696,377.094 60.223,378.222 C61.794,378.725 63.642,381.098 64.864,382.187 C68.334,385.281 71.866,388.633 74.15,392.738 C74.054,392.332 73.957,391.926 73.86,391.517 C73.193,390.428 70.089,385.482 65.664,380.449 C60.653,374.748 55.514,371.021 55.432,367.902 C55.349,364.783 61.806,370.011 67.291,377.157 C70.338,381.127 72.067,385.184 73.004,388.01 C71.999,383.963 70.929,379.88 69.868,375.965 C69.153,374.011 67.02,368.93 63.092,365.423 C58.14,361 54.13,357.345 53.424,352.912 C52.718,348.479 54.751,349.884 59.145,356.394" fill="#FFFFFF"/>
      </g>
    </g>
  </g>
  <g id="Ground">
    <path d="M448.811,436.591 L457.816,436.591" fill-opacity="0" stroke="#1A2E35" stroke-width="1" stroke-linecap="round" stroke-linejoin="round"/>
    <path d="M201.925,436.591 L438.305,436.591" fill-opacity="0" stroke="#1A2E35" stroke-width="1" stroke-linecap="round" stroke-linejoin="round"/>
    <path d="M34.583,436.591 L195.921,436.591" fill-opacity="0" stroke="#1A2E35" stroke-width="1" stroke-linecap="round" stroke-linejoin="round"/>
  </g>
</svg>
