<?xml version="1.0" encoding="UTF-8" standalone="no"?>
<svg
   xmlns:dc="http://purl.org/dc/elements/1.1/"
   xmlns:cc="http://creativecommons.org/ns#"
   xmlns:rdf="http://www.w3.org/1999/02/22-rdf-syntax-ns#"
   xmlns:svg="http://www.w3.org/2000/svg"
   xmlns="http://www.w3.org/2000/svg"
   xmlns:sodipodi="http://sodipodi.sourceforge.net/DTD/sodipodi-0.dtd"
   xmlns:inkscape="http://www.inkscape.org/namespaces/inkscape"
   width="117.06mm"
   height="171.62mm"
   version="1.1"
   viewBox="0 0 117.06 171.62"
   id="svg60"
   sodipodi:docname="passengers.svg"
   inkscape:export-filename="/home/miro/stack/nuctech/animation/passengers.svg.png"
   inkscape:export-xdpi="250"
   inkscape:export-ydpi="250"
   inkscape:version="0.92.3 (2405546, 2018-03-11)">
  <defs
     id="defs64" />
  <sodipodi:namedview
     pagecolor="#ffffff"
     bordercolor="#666666"
     borderopacity="1"
     objecttolerance="10"
     gridtolerance="10"
     guidetolerance="10"
     inkscape:pageopacity="0"
     inkscape:pageshadow="2"
     inkscape:window-width="756"
     inkscape:window-height="480"
     id="namedview62"
     showgrid="false"
     inkscape:zoom="0.36383678"
     inkscape:cx="221.21574"
     inkscape:cy="324.32125"
     inkscape:window-x="67"
     inkscape:window-y="27"
     inkscape:window-maximized="0"
     inkscape:current-layer="svg60" />
  <metadata
     id="metadata2">
    <rdf:RDF>
      <cc:Work
         rdf:about="">
        <dc:format>image/svg+xml</dc:format>
        <dc:type
           rdf:resource="http://purl.org/dc/dcmitype/StillImage" />
        <dc:title />
      </cc:Work>
    </rdf:RDF>
  </metadata>
  <path
     d="m30.532 159.12c-3.3924 8.0895-12.703 11.899-20.794 8.5046-8.0884-3.394-11.891-12.706-8.4961-20.796l12.285-29.289c3.3962-8.0894 12.701-11.887 20.787-8.4988 8.0929 3.394 11.899 12.701 8.5046 20.79l-12.287 29.289"
     fill="#2d2f2e"
     id="path4" />
  <path
     d="m20.706 162.9c0 4.8134-3.9033 8.7234-8.7216 8.7234-4.8166 0-8.7238-3.91-8.7238-8.7234 0-4.8188 3.9073-8.7234 8.7238-8.7234 4.8183 0 8.7216 3.9046 8.7216 8.7234"
     fill="#4b4b4b"
     id="path6" />
  <path
     d="m16.687 162.9c0 2.5919-2.1076 4.6956-4.7022 4.6956-2.5906 0-4.6943-2.1037-4.6943-4.6956 0-2.603 2.1037-4.701 4.6943-4.701 2.5946 0 4.7022 2.098 4.7022 4.701"
     fill="#e0f1e7"
     id="path8" />
  <path
     d="m39.532 89.049 4.3303 1.8176-11.356 27.118-4.3281-1.8176 11.353-27.118"
     fill="#2d2f2e"
     id="path10" />
  <path
     d="m83.76 30.951-9.5974-0.18446 3.1135-16.061 8.3745 1.0432-1.8906 15.203"
     fill="#fc9160"
     id="path12" />
  <path
     d="m92.416 15.928c0.12722-1.587 0.20196-3.1976 0.0159-4.7908-0.23535-2.0926-1.172-4.5047-2.4348-6.1934-1.172-1.56-2.7881-2.8498-4.6561-3.4781-1.0543-0.35302-2.2945-0.60109-3.4221-0.60109-5.5336 0-10.028 4.4936-10.028 10.025 0 3.8539 2.1782 7.1918 5.3618 8.8748 1.9372 2.9339 6.5675 8.8299 12.441 8.7795 0.4548-0.88574 1.4423-4.2859 2.1205-8.1512 1.3072 0.0795 2.1654-0.23535 2.4852-0.86348 0.31486-0.62813-1.2626-1.0098-1.8849-3.6015"
     fill="#fdbb97"
     id="path14" />
  <path
     d="m90.656 15.193c0 0.43253-0.20832 0.7792-0.79669 0.7792-0.58838 0-1.3358-0.7792-1.3358-0.7792s0.7458-0.7792 1.3358-0.7792c0.58837 0 0.79669 0.34825 0.79669 0.7792"
     fill="#401d11"
     id="path16" />
  <path
     d="m79.049 31.069c4.1722-3.4725 8.7386 1.3183 11.117 9.8004 2.3842 8.4934 4.4712 16.37 4.4712 16.37l5.6435 4.9142s4.9648 7.837 10.524 15.741c2.5974 1.6718 5.4472 5.307 5.4472 5.307l0.80783 5.5089-3.753 4.1514-1.9747-0.9255-0.40391-4.819s-2.2046-3.6183-3.7697-6.1876c-0.46593-0.75694-17.458-14.995-17.458-14.995l-1.323-1.5932s-6.2606-11.444-8.1377-17.609c-1.8693-6.1708-5.3429-12.207-1.1895-15.663"
     fill="#fdbb97"
     id="path18" />
  <path
     d="m77.899 30.732c3.0786-2.53 6.3099-0.67902 6.3099-0.67902l5.4921 6.6253 4.9311 14.159 1.3739 5.06 1.2849 0.17333 0.88574 2.4459 3.9943 3.4164 10.715 16.095-7.1189 5.3518-16.134-15.971-3.2313-2.8105s-8.5871-20.33-9.1721-24.448c-0.59156-4.1177-0.89211-7.8876-0.89211-7.8876l1.56-1.5314"
     fill="#393635"
     id="path20" />
  <path
     d="m91.646 42.99c-3.0405-9.9575-8.6111-16.622-14.817-14.945-6.5154 1.7559-9.4448 11.938-6.5283 22.737 0.9907 3.6856 2.5442 6.945 4.4049 9.5985 0 0-0.0636 6.0083-2.0841 10.412 0.42299 3.9606 0.1622 8.1399 0.38006 12.151 1.1593 1.784 2.4874 3.439 3.9448 4.9872 1.9192 0.71242 3.8545 1.3851 5.7955 2.0253 2.8892-0.99388 5.3744-3.1977 6.6534-6.2943 0.40391-0.97003 0.65039-1.9634 0.77442-2.9564 0 0 2.3562-10.648 3.7923-19.068-1.3962-6.0698-2.115-12.431-2.3169-18.647"
     fill="#fc9160"
     id="path22" />
  <path
     d="m42.208 142.53-0.35939 9.7163 4.503 17.211s3.1012 0.0318 3.4956-2.603c0.39437-2.6478 0.28465-8.6055 0.28465-8.6055l3.2779-5.7837-1.3612-9.0656-6.3268-1.969-3.5147 1.0988"
     fill="#2d2f2e"
     id="path24" />
  <path
     d="m83.238 168.3 9.3068 0.81896 17.778-0.30214s0.78556-2.9958-1.694-4.0056c-2.474-1.0161-8.2915-2.3281-8.2915-2.3281l-4.8245-4.5496-9.1384-0.83008-3.4165 5.6716 0.28147 5.5256"
     fill="#2d2f2e"
     id="path26" />
  <path
     d="m72.915 72.891-1.0241 12.179 2.4123 4.7402 6.7682 30.574-2.4441 8.6561 4.475 34.652 10.412-2.4235 2.8611-3.2537-3.6128-33.912 0.62336-7.0403 2.6366-25.878-23.108-18.294"
     fill="#28222b"
     id="path28" />
  <path
     d="m75.563 73.839-4.5383 9.4245 14.525 41.289-3.6183-1.1942-35.207 18.159 0.95094 7.4331 4.5445 5.0937 36.881-18.917 9.9182-5.694-2.143-28.021-1.5155-22.944-19.798-4.6281"
     fill="#393635"
     id="path30" />
  <path
     d="m85.206 29.784c2.9284 1.6662 4.9928 7.5341 6.4906 11.214 1.498 3.6802 4.2242 12.925 2.6478 23.562 0.33076 3.9494 3.192 16.757 3.192 16.757l1.0273 2.53 0.74581 2.5076-1.6325 2.4572-17.767 2.2832-9.493-3.3771-1.49-18.664-1.6942-23.573 2.5138-11.579 2.1496-4.1177 2.2703-2.0027 11.039 2.0027"
     fill="#4b4b4b"
     id="path32" />
  <path
     d="m75.543 30.082c5.0864 1.8849 3.2122 8.2296-2.961 14.53-6.1732 6.2943-11.965 12.028-11.965 12.028l-1.4503 7.3434s-4.3214 8.2072-8.4014 16.964c-0.16061 3.0853-1.8895 7.3714-1.8895 7.3714l-4.374 3.4444-5.4712-1.1895-0.1781-2.1767 3.9706-2.7431s2.0404-3.7138 3.4888-6.356c0.42776-0.7792 4.3039-22.608 4.3039-22.608l0.71559-1.941s6.8043-11.13 11.22-15.831c4.4155-4.6898 7.9156-10.715 12.991-8.8355"
     fill="#fdbb97"
     id="path34" />
  <path
     d="m75.254 28.915c3.7338 1.42 4.6521 6.2326 4.6521 6.2326l-3.9246 6.973 1.1752 0.4373-10.994 10.883-3.7037 3.7136 0.49296 1.2006-1.6807 1.9971-0.9732 5.1554-8.0598 16.807-8.1763-4.544 5.2396-20.403 0.83167-4.2018s13.345-17.576 16.623-20.134c3.2761-2.5637 6.3947-4.7067 6.3947-4.7067l2.1038 0.58837"
     fill="#393635"
     id="path36" />
  <path
     d="m82.817 9.258c2.8274-1.4185 3.1863 1.032 5.7107-1.5425 1.0432-1.0718-0.86984-8.2858-8.2981-7.6799-6.6286 0.54384-12.247 8.1624-8.7043 14.434 1.2594 2.2215 3.3727 3.9493 5.0557 5.8454 1.2515-2.1991 7.6777-6.2214 9.428-6.9338-0.617-2.0364-0.91437-5.0096-1.5202-7.074l-1.6716 2.9508"
     id="path38" />
  <path
     d="m83.535 0.366c6.3953 1.2674 9.4358 5.2788 10.031 6.0978 0.59474 0.81895-6.5804 3.063-7.4162 3.2932-2.3955 0.66788-6.1188-2.1991-3.7082-4.4319l1.0941-4.959"
     id="path40" />
  <path
     d="m83.036 19.047c-2.0924 0.19083-3.5886-0.93186-3.8006-3.1079-0.27988-2.8498 1.3437-3.9718 3.077-2.2497 1.7278 1.7224 0.14312 3.9943 0.14312 3.9943l0.5836 1.3628"
     fill="#fdbb97"
     id="path42" />
  <g
     transform="translate(-15.204,-12.581)"
     fill="#dfedf4"
     id="g50">
    <path
       d="m90.552 37.221-1.8058 3.6858 10.308 4.5777 0.0636-3.1696 1.739 2.4066-1.498-4.3533-0.59474 0.75694-7.6468-2.9284-0.56293-0.97638"
       id="path44" />
    <path
       d="m60.114 90.84-0.84758 2.2384 6.9051 2.8162 0.41345-1.4805-6.471-3.5735"
       id="path46" />
    <path
       d="m127.71 90.896 0.77442 0.86984-5.6996 5.0433-1.2117-1.3024 6.1372-4.6113"
       id="path48" />
  </g>
  <path
     d="m74.635 26.093-1.8014 2.4516 5.6385 3.7193 2.056-0.83644-1.0495 2.2943 9.0498 12.538-4.6785-13.357-9.2143-6.8105"
     fill="#595959"
     id="path52" />
  <path
     d="m88.526 46.261-2.8778-14.12-1.0098-2.9228 1.0098 0.51682 0.67902 1.2181-0.67902 0.12722 0.93663 1.436 1.941 13.739"
     fill="#595959"
     id="path54" />
  <path
     d="m83.266 32.645 4.6337 11.831-2.2495-12.336-2.0925-3.5959-0.29101 4.1008"
     fill="#f2f2f4"
     id="path56" />
  <path
     d="m83.558 28.545-0.44367 2.4066 1.5266 1.9523 3.018 12.151 3.7138 3.265-5.7894-15.416-0.48819-2.3786-1.5377-1.9803"
     fill="#393635"
     id="path58" />
</svg>
