<?xml version="1.0" encoding="UTF-8"?>
<!DOCTYPE svg PUBLIC "-//W3C//DTD SVG 1.1//EN" "http://www.w3.org/Graphics/SVG/1.1/DTD/svg11.dtd">
<svg version="1.1" xmlns="http://www.w3.org/2000/svg" xmlns:xlink="http://www.w3.org/1999/xlink" x="0" y="0" width="331.824" height="486.482" viewBox="0, 0, 331.824, 486.482">
  <g id="Passenger02">
    <path d="M86.547,451.049 C76.931,473.98 50.539,484.778 27.604,475.156 C4.676,465.536 -6.103,439.139 3.52,416.207 L38.344,333.183 C47.971,310.253 74.347,299.488 97.268,309.092 C120.208,318.713 130.997,345.095 121.375,368.024 L86.546,451.048" fill="#2D2F2E" id="path4"/>
    <path d="M58.694,461.764 C58.694,475.408 47.63,486.492 33.972,486.492 C20.318,486.492 9.243,475.408 9.243,461.764 C9.243,448.104 20.318,437.036 33.972,437.036 C47.63,437.036 58.694,448.104 58.694,461.764" fill="#4B4B4B" id="path6"/>
    <path d="M224.076,88.07 C235.903,78.226 248.847,91.807 255.589,115.85 C262.347,139.926 268.263,162.253 268.263,162.253 L284.26,176.183 C284.26,176.183 298.334,198.399 314.092,220.804 C321.455,225.543 329.533,235.847 329.533,235.847 L331.823,251.463 L321.184,263.231 L315.587,260.607 L314.442,246.947 C314.442,246.947 308.193,236.69 303.756,229.407 C302.435,227.262 254.269,186.902 254.269,186.902 L250.519,182.386 C250.519,182.386 232.772,149.946 227.451,132.47 C222.152,114.978 212.306,97.868 224.079,88.071" fill="#FDBB97" id="path18"/>
    <path d="M112.059,252.422 L124.334,257.575 L92.144,334.445 L79.875,329.292 L112.057,252.422" fill="#2D2F2E" id="path10"/>
    <path d="M259.784,121.861 C251.165,93.635 235.375,74.744 217.783,79.498 C199.314,84.475 191.01,113.338 199.278,143.949 C202.086,154.396 206.489,163.636 211.764,171.157 C211.764,171.157 211.584,188.189 205.856,200.672 C207.055,211.899 206.316,223.745 206.934,235.115 C210.22,240.172 213.984,244.864 218.116,249.252 C223.556,251.272 229.042,253.179 234.544,254.993 C242.734,252.176 249.778,245.929 253.404,237.151 C254.549,234.402 255.247,231.586 255.599,228.771 C255.599,228.771 262.278,198.588 266.349,174.72 C262.391,157.514 260.354,139.482 259.781,121.862" fill="#FC9160" id="path22"/>
    <path d="M220.816,87.114 C229.543,79.943 238.702,85.19 238.702,85.19 L254.271,103.97 L268.248,144.106 L272.143,158.449 L275.785,158.94 L278.296,165.874 L289.618,175.558 L319.992,221.181 L299.812,236.352 L254.078,191.08 L244.918,183.113 C244.918,183.113 220.577,125.485 218.919,113.812 C217.242,102.139 216.39,91.453 216.39,91.453 L220.812,87.112" fill="#393635" id="path20"/>
    <path d="M119.645,404.022 L118.626,431.564 L131.39,480.351 C131.39,480.351 140.181,480.442 141.299,472.973 C142.417,465.467 142.106,448.579 142.106,448.579 L151.398,432.185 L147.539,406.487 L129.605,400.905 L119.642,404.02" fill="#2D2F2E" id="path24"/>
    <path d="M235.95,477.071 L262.332,479.392 L312.726,478.536 C312.726,478.536 314.953,470.044 307.924,467.181 C300.911,464.301 284.421,460.582 284.421,460.582 L270.745,447.686 L244.841,445.333 L235.156,461.41 L235.954,477.073" fill="#2D2F2E" id="path26"/>
    <path d="M206.688,206.62 L203.785,241.143 L210.623,254.58 L229.809,341.247 L222.881,365.784 L235.566,464.01 L265.08,457.14 L273.19,447.917 L262.949,351.788 L264.716,331.832 L272.19,258.477 L206.687,206.62" fill="#28222B" id="path28"/>
    <path d="M214.194,209.307 L201.33,236.023 L242.503,353.062 L232.246,349.677 L132.447,401.151 L135.143,422.222 L148.025,436.66 L252.569,383.037 L280.684,366.897 L274.609,287.467 L270.313,222.429 L214.193,209.31" fill="#393635" id="path30"/>
    <path d="M214.138,85.272 C228.556,90.615 223.243,108.6 205.744,126.459 C188.245,144.301 171.828,160.554 171.828,160.554 L167.717,181.37 C167.717,181.37 155.467,204.635 143.902,229.457 C143.446,238.203 138.546,250.353 138.546,250.353 L126.147,260.116 L110.638,256.744 L110.133,250.574 L121.388,242.798 C121.388,242.798 127.172,232.271 131.278,224.781 C132.49,222.573 143.478,160.696 143.478,160.696 L145.506,155.194 C145.506,155.194 164.794,123.644 177.311,110.318 C189.827,97.025 199.749,79.945 214.136,85.273" fill="#FDBB97" id="path34"/>
    <path d="M213.318,81.964 C223.902,85.989 226.505,99.631 226.505,99.631 L215.381,119.397 L218.712,120.637 L187.548,151.486 L177.049,162.013 L178.446,165.416 L173.682,171.077 L170.924,185.691 L148.077,233.333 L124.9,220.452 L139.752,162.617 L142.11,150.706 C142.11,150.706 179.938,100.884 189.23,93.633 C198.517,86.366 207.357,80.292 207.357,80.292 L213.32,81.959" fill="#393635" id="path36"/>
    <path d="M237.43,87.735 L210.225,87.212 L219.05,41.685 L242.789,44.642 L237.43,87.737" fill="#FC9160" id="path12"/>
    <path d="M241.529,84.427 C249.83,89.15 255.682,105.784 259.927,116.215 C264.174,126.647 271.901,152.853 267.433,183.005 C268.371,194.2 276.481,230.505 276.481,230.505 L279.393,237.677 L281.507,244.785 L276.88,251.75 L226.517,258.222 L199.607,248.649 L195.384,195.743 L190.581,128.922 L197.707,96.1 L203.8,84.428 L210.236,78.751 L241.527,84.428" fill="#4B4B4B" id="path32"/>
    <path d="M213.585,69.846 L208.466,80.294 L237.686,93.27 L237.866,84.285 L242.795,91.107 L238.549,78.767 L236.863,80.913 L215.187,72.612 L213.591,69.844" fill="#DFEDF4" id="path44"/>
    <path d="M127.304,221.837 L124.901,228.182 L144.475,236.165 L145.647,231.968 L127.304,221.838" fill="#DFEDF4" id="path46"/>
    <path d="M318.915,221.995 L321.11,224.461 L304.953,238.757 L301.519,235.065 L318.916,221.994" fill="#DFEDF4" id="path48"/>
    <path d="M211.564,73.964 L206.457,80.914 L222.441,91.457 L228.269,89.086 L225.294,95.589 L250.947,131.13 L237.685,93.268 L211.565,73.962" fill="#595959" id="path52"/>
    <path d="M250.94,131.134 L242.782,91.108 L239.92,82.823 L242.782,84.288 L244.707,87.741 L242.782,88.102 L245.437,92.172 L250.939,131.118" fill="#595959" id="path54"/>
    <path d="M236.03,92.537 L249.164,126.074 L242.788,91.106 L236.856,80.912 L236.032,92.537" fill="#F2F2F4" id="path56"/>
    <path d="M236.857,80.915 L235.6,87.737 L239.927,93.271 L248.482,127.715 L259.009,136.97 L242.598,93.271 L241.215,86.528 L236.856,80.915" fill="#393635" id="path58"/>
    <path d="M261.967,45.15 C262.327,40.652 262.539,36.086 262.012,31.57 C261.345,25.638 258.689,18.801 255.11,14.014 C251.788,9.592 247.207,5.936 241.911,4.155 C238.923,3.154 235.407,2.451 232.211,2.451 C216.525,2.451 203.785,15.189 203.785,30.868 C203.785,41.793 209.96,51.254 218.984,56.025 C224.475,64.342 237.601,81.055 254.25,80.912 C255.539,78.401 258.338,68.763 260.261,57.806 C263.966,58.031 266.399,57.139 267.305,55.358 C268.198,53.578 263.726,52.496 261.962,45.149" fill="#FDBB97" id="path14"/>
    <path d="M234.757,26.243 C242.772,22.222 243.789,29.169 250.945,21.871 C253.902,18.833 248.479,-1.617 227.422,0.101 C208.633,1.643 192.707,23.238 202.749,41.016 C206.319,47.313 212.309,52.211 217.08,57.586 C220.628,51.352 238.844,39.95 243.805,37.931 C242.056,32.158 241.213,23.731 239.496,17.879 L234.757,26.243" fill="#000000" id="path38"/>
    <path d="M235.378,53.991 C229.446,54.532 225.205,51.35 224.604,45.182 C223.811,37.104 228.413,33.923 233.326,38.805 C238.224,43.687 233.732,50.127 233.732,50.127 L235.386,53.99" fill="#FDBB97" id="path42"/>
    <path d="M256.978,43.067 C256.978,44.293 256.387,45.276 254.719,45.276 C253.051,45.276 250.933,43.067 250.933,43.067 C250.933,43.067 253.047,40.858 254.719,40.858 C256.387,40.858 256.978,41.845 256.978,43.067" fill="#401D11" id="path16"/>
    <path d="M236.792,1.037 C254.921,4.63 263.539,16.001 265.226,18.323 C266.912,20.644 246.573,27.005 244.204,27.658 C237.414,29.551 226.86,21.424 233.693,15.095 L236.794,1.038" fill="#000000" id="path40"/>
    <path d="M47.302,461.764 C47.302,469.111 41.327,475.074 33.973,475.074 C26.629,475.074 20.666,469.111 20.666,461.764 C20.666,454.385 26.629,448.438 33.973,448.438 C41.327,448.438 47.302,454.385 47.302,461.764" fill="#E0F1E7" id="path8"/>
  </g>
</svg>
