<?xml version="1.0" encoding="UTF-8"?>
<!DOCTYPE svg PUBLIC "-//W3C//DTD SVG 1.1//EN" "http://www.w3.org/Graphics/SVG/1.1/DTD/svg11.dtd">
<svg version="1.1" xmlns="http://www.w3.org/2000/svg" xmlns:xlink="http://www.w3.org/1999/xlink" x="0" y="0" width="394.475" height="651.07" viewBox="0, 0, 394.475, 651.07">
  <g id="Layer_1">
    <path d="M156.302,118.432 L119.569,117.756 L131.481,56.284 L163.511,60.285 L156.302,118.432" fill="#FC9162" id="path14"/>
    <path d="M189.422,60.986 C189.924,54.898 190.172,48.728 189.468,42.64 C188.594,34.63 184.981,25.383 180.13,18.941 C175.668,12.968 169.489,8.011 162.346,5.627 C158.32,4.273 153.536,3.349 149.255,3.349 C128.088,3.349 110.905,20.515 110.905,41.699 C110.905,56.44 119.204,69.217 131.404,75.627 C138.819,86.87 156.538,109.431 179.008,109.25 C180.741,105.868 184.519,92.851 187.117,78.06 C192.108,78.374 195.416,77.153 196.628,74.744 C197.816,72.336 191.786,70.892 189.427,60.985" fill="#FDBB97" id="path16"/>
    <path d="M182.715,58.173 C182.715,59.789 181.899,61.134 179.655,61.134 C177.387,61.134 174.532,58.173 174.532,58.173 C174.532,58.173 177.386,55.17 179.655,55.17 C181.9,55.17 182.715,56.505 182.715,58.173" fill="#401D11" id="path18"/>
    <path d="M139.433,120.609 C156.195,108.393 172.437,127.786 179.44,160.815 C186.444,193.778 192.432,224.406 192.432,224.406 L212.766,244.575 C212.766,244.575 229.767,275.723 249.062,307.284 C258.556,314.304 268.554,328.905 268.554,328.905 L270.254,350.121 L254.886,365.068 L247.594,361.01 L247.239,342.524 C247.239,342.524 239.691,328.179 234.362,317.975 C232.795,314.947 171.439,256.388 171.439,256.388 L166.778,249.97 C166.778,249.97 145.694,204.724 140.076,180.711 C134.459,156.699 122.671,132.793 139.433,120.609" fill="#FDBB97" id="path20"/>
    <path d="M135.085,119.042 C147.492,110.158 164.79,117.417 164.79,117.417 L178.706,144.68 L182.583,141.859 L193.983,199.981 L197.992,219.63 L202.859,220.619 L205.664,230.171 L220.017,244.211 L248.534,294.39 L220.99,317.669 L170.795,262.021 L159.173,250.472 C159.173,250.472 131.439,170.721 130.186,154.842 C128.965,138.979 128.759,124.502 128.759,124.502 L135.086,119.041" fill="#A5324A" id="path22"/>
    <path d="M221.238,309.115 L231.343,323.039 L253.36,304.702 L242.479,289.771 L221.238,309.115" fill="#A5324A" id="path24"/>
    <path d="M198.454,215.201 C198.618,214.095 198.751,212.965 198.849,211.818 C199.394,206.729 199.649,202.637 199.418,200.13 L199.394,200.146 C199.277,190.544 197.91,180.34 195.13,169.971 C183.952,128.644 154.701,100.589 129.765,107.329 C104.811,114.052 93.626,153.003 104.77,194.322 C108.565,208.42 114.496,220.925 121.623,231.072 L121.623,231.072 C121.623,231.072 121.333,260.71 110.058,277.357 C107.121,280.763 104.655,284.682 102.807,289.087 C93.931,310.534 103.558,334.869 124.271,343.431 C144.976,352.035 168.956,341.6 177.848,320.136 C179.398,316.424 180.331,312.621 180.801,308.835 L180.801,308.835 C180.801,308.835 194.536,246.712 198.454,215.201" fill="#FC9160" id="path26"/>
    <path d="M292.13,651.069 L329.341,651.069 L394.475,631.387 C394.475,631.387 394.22,619.541 384.032,618.428 C373.885,617.256 351.085,618.544 351.085,618.544 L328.541,606.806 L294.06,613.298 L287.42,637.756 L292.13,651.07" fill="#28222B" id="path28"/>
    <path d="M0.652,633.944 L36.271,644.717 L104.309,644.717 C104.309,644.717 107.484,633.268 98.064,629.25 C88.668,625.233 66.495,619.838 66.495,619.838 L48.306,602.078 L13.413,598.333 L0,619.838 L0.652,633.944" fill="#343334" id="path30"/>
    <path d="M104.119,277.2 L98.064,314.807 L107.303,336.461 L76.567,452.268 L53.082,477.395 L7.383,603.051 L47.044,613.124 L62.478,607.077 L109.761,485.47 L124.271,462.621 L178.69,379.322 L132.339,276.524 L104.119,277.199" fill="#28222B" id="path32"/>
    <path d="M111.436,278.239 L105.216,317.76 L203.964,453.027 L210.085,477.37 L287.609,633.944 L315.887,629.25 L334.711,611.135 L257.17,472.8 L258.721,456.079 L219.984,355.763 L189.083,273.339 L111.435,278.239" fill="#393635" id="path34"/>
    <path d="M161.796,113.969 C173.023,120.362 187.615,141.207 193.356,155.296 C199.056,169.369 202.793,206.382 196.763,247.05 C198.049,262.162 208.996,311.178 208.996,311.178 L208.996,322.223 L215.769,330.447 L209.5,339.835 L141.536,304.917 C141.536,304.917 104.515,337.459 105.216,335.652 C105.901,333.87 99.516,264.233 99.516,264.233 L93.04,174.054 L102.634,129.733 L110.899,113.969 L119.569,106.339 L161.796,113.969" fill="#DD3F67" id="path36"/>
    <path d="M127.117,118.432 C147.871,118.432 149.596,143.682 135.811,174.484 C122.069,205.277 108.887,233.571 108.887,233.571 L113.49,261.832 C113.49,261.832 108.887,297.03 105.9,333.87 C109.431,345.155 108.928,362.816 108.928,362.816 L97.817,381.013 L76.617,384.033 L73.086,376.46 L83.686,361.29 C83.686,361.29 86.029,345.279 87.712,333.87 C88.231,330.513 73.086,247.042 73.086,247.042 L73.086,239.114 C73.086,239.114 82.688,190.132 92.257,167.422 C101.859,144.688 106.412,118.432 127.117,118.432" fill="#FDBB97" id="path38"/>
    <path d="M124.774,90.047 L160.327,107.658 L159.988,121.079 L116.178,107.328 L124.773,90.047" fill="#A5324A" id="path40"/>
    <path d="M124.543,114.621 C139.804,114.761 149.505,130.78 149.505,130.78 L144.704,161.021 L149.505,161.021 L124.543,214.722 L116.179,232.961 L119.569,236.615 L116.179,246.01 L119.569,265.816 L113.069,323.155 L77.103,325.762 L69.283,251.232 L66.66,235.048 C66.66,235.048 91.168,154.249 99.516,140.704 C107.856,127.143 116.179,115.297 116.179,115.297 L124.543,114.621" fill="#A5324A" id="path42"/>
    <path d="M82.3,323.196 L82.3,340.404 L110.899,338.524 L110.899,320.071 L82.3,323.197" fill="#A5324A" id="path44"/>
    <path d="M152.689,35.463 C163.511,30.002 164.873,39.39 174.532,29.532 C178.517,25.441 193.026,36.948 196.763,32.205 C188.663,14.503 159.107,-1.831 142.782,0.166 C117.515,3.259 95.919,31.388 109.497,55.393 C114.29,63.881 122.374,70.513 128.8,77.756 C133.601,69.35 158.207,53.933 164.897,51.235 C162.546,43.423 161.4,32.048 159.065,24.154 L152.689,35.463" fill="#401D11" id="path46"/>
    <path d="M155.419,1.436 C179.91,6.287 191.517,21.63 193.794,24.764 C196.087,27.907 197.093,30.968 197.539,34.688 C195.691,34.061 186.732,32.7 183.952,32.452 C180.777,32.181 177.073,31.676 174.161,32.922 C171.183,34.218 168.626,36.478 165.417,37.369 C156.261,39.918 141.998,28.955 151.262,20.417 L155.419,1.436" fill="#401D11" id="path48"/>
    <path d="M153.514,72.905 C145.504,73.64 139.787,69.367 138.987,61.019 C137.89,50.114 144.102,45.824 150.75,52.399 C157.35,59.006 151.262,67.684 151.262,67.684 L153.514,72.905" fill="#FDBB97" id="path50"/>
  </g>
</svg>
