<?xml version="1.0" encoding="UTF-8"?>
<!DOCTYPE svg PUBLIC "-//W3C//DTD SVG 1.1//EN" "http://www.w3.org/Graphics/SVG/1.1/DTD/svg11.dtd">
<svg version="1.1" xmlns="http://www.w3.org/2000/svg" xmlns:xlink="http://www.w3.org/1999/xlink" x="0" y="0" width="500" height="500" viewBox="0, 0, 500, 500">
  <g id="Background">
    <rect x="0" y="0" width="500" height="500" fill="#FFFFFF"/>
  </g>
  <defs>
    <clipPath id="Clip_1">
      <path d="M302.059,441.276 L304.388,441.276 L304.388,443.634 L302.059,443.634 z"/>
    </clipPath>
    <clipPath id="Clip_2">
      <path d="M300.558,440.822 L329.985,440.822 L329.985,452.786 L300.558,452.786 z"/>
    </clipPath>
    <clipPath id="Clip_3">
      <path d="M180.533,430.35 L203.13,430.35 L203.13,452.253 L180.533,452.253 z"/>
    </clipPath>
    <clipPath id="Clip_4">
      <path d="M187.17,429.763 L189.98,429.763 L189.98,432.573 L187.17,432.573 z"/>
    </clipPath>
    <clipPath id="Clip_5">
      <path d="M394.994,203.561 L409.154,203.561 L409.154,220.013 L394.994,220.013 z"/>
    </clipPath>
    <clipPath id="Clip_6">
      <path d="M53.939,392.09 L71.384,392.09 L71.384,410.894 L53.939,410.894 z"/>
    </clipPath>
    <clipPath id="Clip_7">
      <path d="M21.634,405.656 L48.169,405.656 L48.169,420.144 L21.634,420.144 z"/>
    </clipPath>
    <clipPath id="Clip_8">
      <path d="M42.188,427.166 L67.815,427.166 L67.815,452.793 L42.188,452.793 z"/>
    </clipPath>
  </defs>
  <g id="Background_Complete">
    <g>
      <path d="M24.069,215.546 L40.778,259.248 L88.766,259.248 C88.766,259.248 75.054,252.821 69.485,246.823 C63.915,240.825 38.636,215.546 38.636,215.546 z" fill="#E6E6E6"/>
      <path d="M30.456,259.248 L321.562,259.248 C327.671,259.248 333.767,260.207 339.485,262.352 C341.173,262.985 342.86,263.727 344.411,264.588 C350.331,267.876 350.491,276.458 344.638,279.863 C339.976,282.576 332.331,285.135 320.081,285.135 C294.015,285.135 92.639,281.34 92.639,281.34 C92.639,281.34 33.352,272.171 30.456,259.248" fill="#EFEFEF"/>
      <path d="M91.4,266.036 C91.4,266.036 91.674,268.221 94.768,268.403 L158.296,268.403 L158.296,266.036 z" fill="#E6E6E6"/>
      <path d="M172.222,268.404 L252.952,268.404 L252.952,266.037 L172.222,266.037 z" fill="#E6E6E6"/>
      <path d="M267.13,268.404 L314.367,268.404 L314.367,266.037 L267.13,266.037 z" fill="#E6E6E6"/>
      <path d="M333.023,265.269 L333.023,267.925 L347.518,267.925 C347.518,267.925 345.6,265.455 343.907,264.588 z" fill="#E6E6E6"/>
      <path d="M315.097,293.317 L317.526,293.317 L317.526,285.135 L315.097,285.135 z" fill="#E6E6E6"/>
      <path d="M317.526,285.455 C317.526,285.455 315.545,277.302 290.75,277.302 L90.994,277.302 C87.373,276.741 60.796,274.474 62.028,258.929 L29.951,258.929 C29.951,258.929 27.96,261.887 43.755,269.512 C52.128,273.554 76.538,280.509 86.667,281.379 C90.674,281.723 93.38,281.649 96.183,281.697 z" fill="#E6E6E6"/>
      <path d="M187.983,273.129 C187.983,273.129 152.013,271.614 152.213,284.279 C152.213,284.279 150.521,295.374 187.983,293.187 z" fill="#EFEFEF"/>
      <path d="M186.264,280.751 C186.264,280.751 197.095,280.344 198.901,283.155 C198.901,283.155 193.285,284.906 186.264,285.135 z" fill="#EFEFEF"/>
      <path d="M187.983,293.187 C187.969,293.187 187.955,293.059 187.941,292.813 C187.931,292.518 187.918,292.161 187.902,291.726 C187.885,290.711 187.861,289.341 187.832,287.647 C187.809,284.089 187.776,279.179 187.738,273.459 L187.97,273.704 C184.803,273.546 181.347,273.262 177.74,273.179 C175.677,273.132 173.662,273.157 171.732,273.332 C169.81,273.523 167.938,273.812 166.187,274.133 C162.672,274.764 159.629,275.879 157.31,277.251 C154.988,278.597 153.217,279.997 152.625,281.39 C152.022,282.765 152.247,283.665 152.161,283.65 C152.148,283.652 152.107,283.444 152.098,283.041 C152.091,282.639 152.141,282.027 152.44,281.308 C153.008,279.816 154.805,278.331 157.123,276.935 C159.453,275.5 162.551,274.324 166.096,273.662 C167.871,273.324 169.723,273.026 171.685,272.824 C173.643,272.639 175.676,272.612 177.752,272.658 C181.38,272.742 184.84,273.039 187.996,273.215 L188.229,273.228 L188.228,273.459 C188.19,279.179 188.157,284.089 188.134,287.647 C188.105,289.341 188.081,290.711 188.064,291.726 C188.048,292.161 188.035,292.518 188.024,292.813 C188.011,293.059 187.997,293.187 187.983,293.187" fill="#E6E6E6"/>
      <path d="M182.029,293.354 C181.885,293.354 181.768,288.839 181.768,283.272 C181.768,277.703 181.885,273.189 182.029,273.189 C182.173,273.189 182.288,277.703 182.288,283.272 C182.288,288.839 182.173,293.354 182.029,293.354" fill="#E6E6E6"/>
      <path d="M179.19,293.472 C179.046,293.472 178.93,288.91 178.93,283.283 C178.93,277.653 179.046,273.091 179.19,273.091 C179.334,273.091 179.45,277.653 179.45,283.283 C179.45,288.91 179.334,293.472 179.19,293.472" fill="#E6E6E6"/>
      <path d="M343.782,218.44 C343.782,218.584 275.734,218.7 191.812,218.7 C107.861,218.7 39.828,218.584 39.828,218.44 C39.828,218.296 107.861,218.18 191.812,218.18 C275.734,218.18 343.782,218.296 343.782,218.44" fill="#E6E6E6"/>
      <path d="M361.511,77.218 C362.328,71.28 353.948,66.395 347.651,65.887 C344.647,65.645 341.528,66.104 338.683,65.113 C332.519,62.965 330.057,55.001 324.042,52.464 C319.545,50.568 314.368,52.256 310.01,54.45 C305.651,56.644 301.342,59.405 296.472,59.717 C292.237,59.988 287.636,58.417 283.93,60.486 C281.167,62.029 279.721,65.211 277.175,67.088 C274.685,68.925 271.436,69.314 268.346,69.482 C265.256,69.65 262.057,69.681 259.243,70.97 C256.43,72.258 254.102,75.233 254.686,78.272 z" fill="#F7F7F7"/>
      <path d="M171.261,218.44 L206.821,206.921 L222,206.921 L269.475,200.361 L323.953,195.402 L348.94,183.921 L415.804,196.378 L435.705,198.234 L446.428,204.951 L461.363,218.44 z" fill="#E6E6E6"/>
      <path d="M266.818,154.782 C267.879,147.082 257.011,140.747 248.845,140.089 C244.951,139.775 240.905,140.37 237.216,139.085 C229.223,136.299 226.03,125.972 218.231,122.682 C212.4,120.223 205.687,122.412 200.034,125.258 C194.381,128.102 188.795,131.683 182.479,132.087 C176.986,132.439 171.02,130.402 166.214,133.085 C162.632,135.085 160.756,139.212 157.455,141.646 C154.226,144.029 150.013,144.533 146.006,144.751 C141.999,144.969 137.851,145.009 134.202,146.679 C130.553,148.35 127.535,152.208 128.292,156.149 z" fill="#EFEFEF"/>
      <path d="M438.728,195.402 L479.848,195.402 L479.848,218.44 L438.728,218.44 z" fill="#EFEFEF"/>
      <path d="M475.907,205.941 L442.855,205.941 L442.855,199.474 L475.907,199.474 z" fill="#E6E6E6"/>
      <path d="M445.876,136.266 L445.876,145.231 L453.415,151.668 L453.415,195.401 L467.677,195.401 L467.677,151.668 L474.489,145.027 L474.489,136.266 z" fill="#EFEFEF"/>
      <path d="M450.899,136.266 L448.97,136.266 L448.97,126.684 L450.899,126.684 z" fill="#EFEFEF"/>
      <path d="M455.043,140.853 L453.113,140.853 L453.113,131.271 L455.043,131.271 z" fill="#EFEFEF"/>
      <path d="M472.975,144.577 L447.876,144.577 L447.876,139.722 L472.975,139.722 z" fill="#FBFBFB"/>
    </g>
  </g>
  <g id="Background_Simple">
    <path d="M425.205,126.935 C424.619,104.754 413.059,78.554 399.666,60.862 C385.603,42.285 357.947,35.91 334.664,36.778 C311.38,37.647 288.958,49.589 274.396,67.778 C254.322,92.853 248.322,128.74 222.918,148.396 C194.744,170.196 153.797,163.67 121.253,178.16 C89.207,192.429 68.432,228.634 72.282,263.502 C76.133,298.369 104.308,329.168 138.696,336.101 L206.154,344.383 C216.02,345.594 225.96,346.175 235.896,345.915 C273.406,344.934 293.352,335.415 316.989,323.603 C350.962,306.628 364.86,287.92 374.153,276.316 C417.947,221.63 426.618,180.388 425.205,126.935" fill="#EFEFEF"/>
  </g>
  <g id="Floor">
    <path d="M467.527,452.785 C467.527,452.93 366.548,453.046 242.011,453.046 C117.431,453.046 16.473,452.93 16.473,452.785 C16.473,452.641 117.431,452.525 242.011,452.525 C366.548,452.525 467.527,452.641 467.527,452.785" fill="#324148"/>
  </g>
  <g id="Windows">
    <path d="M119.035,343.574 L110.851,343.574 L110.851,17.399 L119.035,17.399 z" fill="#566D77"/>
    <path d="M395.158,347.269 L386.973,347.269 L386.973,21.094 L395.158,21.094 z" fill="#566D77"/>
    <path d="M454.709,339.665 L17.692,339.665 L17.692,347.481 L454.709,347.481 z" fill="#566D77"/>
    <g>
      <path d="M281.807,106.798 C281.894,106.913 257.519,125.603 227.371,148.539 C197.213,171.483 172.703,189.984 172.615,189.87 C172.528,189.755 196.898,171.069 227.056,148.125 C257.203,125.189 281.72,106.684 281.807,106.798" fill="#324148"/>
      <path d="M292.452,84.781 C292.541,84.894 276.437,97.757 256.488,113.508 C236.532,129.264 220.287,141.941 220.198,141.828 C220.109,141.715 236.209,128.855 256.165,113.099 C276.115,97.348 292.363,84.668 292.452,84.781" fill="#324148"/>
      <path d="M89.287,182.977 C89.379,183.087 71.395,198.268 49.123,216.879 C26.843,235.497 8.713,250.495 8.62,250.385 C8.528,250.274 26.509,235.097 48.789,216.479 C71.061,197.868 89.195,182.867 89.287,182.977" fill="#324148"/>
      <path d="M99.061,159.89 C99.154,160 83.442,173.34 63.974,189.681 C44.498,206.028 28.641,219.186 28.548,219.076 C28.456,218.966 44.164,205.629 63.639,189.282 C83.108,172.941 98.969,159.78 99.061,159.89" fill="#324148"/>
      <path d="M476.278,239.427 C476.37,239.537 458.385,254.718 436.113,273.329 C413.834,291.947 395.704,306.945 395.611,306.835 C395.519,306.724 413.5,291.548 435.779,272.929 C458.051,254.318 476.186,239.317 476.278,239.427" fill="#324148"/>
      <path d="M486.051,216.34 C486.144,216.45 470.433,229.79 450.964,246.131 C431.488,262.478 415.631,275.635 415.538,275.526 C415.447,275.416 431.154,262.079 450.629,245.732 C470.098,229.391 485.959,216.23 486.051,216.34" fill="#324148"/>
    </g>
  </g>
  <g id="Paper_Bin">
    <path d="M90.881,347.814 L39.584,347.814 L39.584,259.261 L90.881,259.261 z" fill="#324148"/>
    <g>
      <path d="M79.005,284.117 L51.096,284.117 C48.9,284.117 47.118,282.337 47.118,280.142 L47.118,274.238 C47.118,272.043 48.9,270.263 51.096,270.263 L79.005,270.263 C81.201,270.263 82.98,272.043 82.98,274.238 L82.98,280.142 C82.98,282.337 81.201,284.117 79.005,284.117" fill="#566D77"/>
      <path d="M91.235,293.381 C91.235,293.526 79.751,293.642 65.589,293.642 C51.421,293.642 39.94,293.526 39.94,293.381 C39.94,293.237 51.421,293.121 65.589,293.121 C79.751,293.121 91.235,293.237 91.235,293.381" fill="#566D77"/>
      <path d="M91.235,336.265 C91.235,336.409 79.751,336.525 65.589,336.525 C51.421,336.525 39.94,336.409 39.94,336.265 C39.94,336.121 51.421,336.004 65.589,336.004 C79.751,336.004 91.235,336.121 91.235,336.265" fill="#566D77"/>
    </g>
  </g>
  <g id="Character">
    <g>
      <path d="M255.066,171.294 C256.946,169.585 258.195,167.144 258.272,164.604 C258.349,162.065 257.186,159.473 255.115,158.002 C253.045,156.53 250.097,156.313 247.926,157.632 C246.023,158.789 244.691,161.009 242.497,161.393 C240.45,161.75 238.117,160.38 236.388,161.532 C235.408,162.186 235.02,163.447 234.149,164.24 C233.031,165.26 231.365,165.324 229.963,165.892 C227.986,166.694 226.518,168.632 226.281,170.752 C226.028,173.019 227.071,175.198 227.946,177.304 C228.822,179.409 229.55,181.81 228.691,183.921" fill="#324148"/>
      <path d="M231.704,212.927 L227.98,173.244 L229.034,172.325 C236.131,166.135 239.415,162.636 248.279,165.818 C252.345,167.588 255.192,171.344 255.803,175.736 C256.523,180.929 257.391,187.776 257.596,191.971 C257.962,199.437 249.204,201.096 249.204,201.096 L250.598,214.194 z" fill="#FFCAAD"/>
      <path d="M252.585,180.373 C252.117,179.998 252.041,179.315 252.416,178.847 C252.791,178.379 253.475,178.304 253.942,178.679 C254.41,179.054 254.485,179.737 254.11,180.205 C253.736,180.672 253.053,180.748 252.585,180.373" fill="#324148"/>
      <path d="M255.56,178.405 C255.452,178.541 254.684,178.023 253.657,178.081 C252.627,178.124 251.915,178.715 251.793,178.59 C251.735,178.535 251.836,178.295 252.147,178.028 C252.452,177.762 252.985,177.491 253.626,177.46 C254.267,177.428 254.825,177.645 255.154,177.88 C255.489,178.115 255.614,178.344 255.56,178.405" fill="#324148"/>
      <path d="M243.013,180.014 C243.542,180.296 243.742,180.953 243.46,181.483 C243.178,182.012 242.52,182.211 241.991,181.929 C241.462,181.647 241.262,180.99 241.544,180.461 C241.826,179.932 242.484,179.732 243.013,180.014" fill="#324148"/>
      <path d="M244.783,179.824 C244.674,179.961 243.907,179.442 242.88,179.5 C241.85,179.543 241.138,180.135 241.016,180.01 C240.957,179.954 241.059,179.714 241.37,179.447 C241.674,179.181 242.208,178.91 242.849,178.879 C243.49,178.847 244.047,179.064 244.376,179.299 C244.711,179.534 244.836,179.763 244.783,179.824" fill="#324148"/>
      <path d="M249.195,188.379 C249.183,188.299 249.811,188.131 250.835,187.925 C251.102,187.879 251.309,187.806 251.32,187.66 C251.358,187.494 251.237,187.213 251.08,186.902 C250.774,186.238 250.464,185.567 250.14,184.864 C248.835,181.958 247.897,179.549 248.044,179.483 C248.192,179.417 249.369,181.718 250.674,184.624 C250.984,185.334 251.28,186.012 251.572,186.681 C251.69,186.985 251.899,187.337 251.788,187.789 C251.727,188.016 251.526,188.189 251.351,188.247 C251.176,188.312 251.025,188.321 250.896,188.335 C249.856,188.436 249.207,188.459 249.195,188.379" fill="#324148"/>
      <path d="M249.204,201.095 C249.204,201.095 245.884,201.618 240.68,198.778 C240.68,198.778 242.006,204.154 249.409,203.025 z" fill="#F1AA81"/>
      <path d="M250.899,176.213 C251.036,176.715 251.825,176.929 252.659,176.926 C253.497,176.907 254.374,176.672 254.711,176.163 C255.05,175.667 254.357,174.975 253.041,174.992 C251.726,175.009 250.754,175.723 250.899,176.213" fill="#324148"/>
      <path d="M239.514,177.695 C239.881,178.089 240.941,177.937 241.991,177.771 C243.236,177.491 244.341,177.253 244.654,176.784 C244.892,176.51 244.861,176.168 244.461,175.916 C244.072,175.664 243.298,175.537 242.354,175.705 C241.411,175.872 240.541,176.289 240.035,176.7 C239.518,177.115 239.36,177.49 239.514,177.695" fill="#324148"/>
      <path d="M244.914,188.58 C244.749,188.608 245.05,189.852 246.278,190.687 C247.499,191.536 248.768,191.37 248.735,191.206 C248.741,191.025 247.668,190.905 246.631,190.174 C245.577,189.468 245.081,188.51 244.914,188.58" fill="#324148"/>
      <path d="M255.069,171.295 C252.792,172.946 248.715,172.726 246.172,171.524 C244.373,170.675 242.689,169.103 240.72,169.393 C238.898,169.661 237.947,171.037 237.486,172.821 C237.057,174.476 235.139,176.007 232.822,175.427 C233.11,179.069 233.644,181.766 232.565,185.13 C232.373,185.726 231.538,186.197 231.071,186.614 C230.605,187.03 229.853,187.19 229.35,186.818 C228.856,186.454 228.776,185.76 228.737,185.148 C228.511,181.537 227.772,177.679 227.546,174.067 C227.461,172.714 227.904,171.536 228.499,170.317 C229.171,168.942 230.559,168.089 231.877,167.31 C234.485,165.771 237.124,164.216 240.025,163.347 C242.926,162.478 246.16,162.35 248.904,163.63 C251.649,164.909 254.936,167.367 254.701,170.386" fill="#324148"/>
      <path d="M230.979,182.357 C230.851,182.3 225.626,181.471 226.205,186.591 C226.705,191.018 231.494,189.91 231.499,189.762 C231.504,189.614 230.979,182.357 230.979,182.357" fill="#FFCAAD"/>
      <path d="M229.753,187.739 C229.733,187.726 229.678,187.794 229.551,187.857 C229.426,187.917 229.211,187.963 228.982,187.883 C228.515,187.725 228.107,187 228.066,186.213 C228.045,185.814 228.119,185.433 228.253,185.115 C228.378,184.792 228.58,184.564 228.811,184.516 C229.042,184.457 229.21,184.592 229.266,184.714 C229.328,184.835 229.302,184.923 229.326,184.929 C229.338,184.94 229.418,184.854 229.378,184.675 C229.357,184.588 229.304,184.486 229.199,184.405 C229.092,184.322 228.937,184.282 228.774,184.303 C228.438,184.335 228.142,184.654 227.995,185.002 C227.831,185.352 227.738,185.781 227.762,186.228 C227.812,187.109 228.284,187.923 228.92,188.09 C229.231,188.162 229.485,188.063 229.615,187.957 C229.748,187.845 229.769,187.747 229.753,187.739" fill="#F1AA81"/>
      <path d="M292.453,429.828 L301.366,452.785 L329.985,441.841 C328.772,439.172 311.868,439.345 311.868,439.345 L306.76,424.401 z" fill="#EF686E"/>
      <g clip-path="url(#Clip_1)" opacity="0.6">
        <path d="M302.544,441.489 C302.049,441.852 301.903,442.622 302.246,443.133 C302.589,443.642 303.37,443.797 303.872,443.442 C304.374,443.088 304.576,442.17 304.179,441.701 C303.781,441.231 302.855,441.101 302.451,441.566" fill="#FFFFFF"/>
      </g>
      <g clip-path="url(#Clip_2)" opacity="0.6">
        <path d="M301.366,452.785 L300.558,450.436 L328.301,440.822 C328.301,440.822 329.786,440.889 329.985,441.841 z" fill="#FFFFFF"/>
      </g>
      <path d="M312.276,439.022 C312.325,439.164 311.65,439.494 311.134,440.207 C310.6,440.906 310.477,441.646 310.328,441.64 C310.188,441.662 310.077,440.747 310.716,439.895 C311.348,439.039 312.257,438.882 312.276,439.022" fill="#324148"/>
      <path d="M315.753,439.116 C315.837,439.238 315.322,439.707 315.073,440.48 C314.802,441.246 314.927,441.931 314.785,441.978 C314.662,442.051 314.253,441.267 314.58,440.314 C314.899,439.357 315.699,438.983 315.753,439.116" fill="#324148"/>
      <path d="M318.831,442.056 C318.716,442.135 318.254,441.511 318.32,440.608 C318.38,439.704 318.924,439.151 319.027,439.244 C319.15,439.329 318.883,439.903 318.84,440.644 C318.779,441.385 318.965,441.99 318.831,442.056" fill="#324148"/>
      <path d="M310.734,435.745 C310.724,435.894 310.009,435.947 309.24,436.303 C308.463,436.642 307.95,437.143 307.832,437.051 C307.712,436.981 308.114,436.234 309.026,435.828 C309.935,435.415 310.76,435.609 310.734,435.745" fill="#324148"/>
      <path d="M308.753,432.611 C308.777,432.668 308.258,432.965 307.317,433.151 C306.849,433.244 306.276,433.298 305.642,433.264 C305.324,433.247 304.991,433.209 304.651,433.142 C304.487,433.108 304.298,433.083 304.09,432.97 C303.879,432.884 303.649,432.548 303.741,432.252 C303.805,431.975 304.026,431.782 304.232,431.698 C304.44,431.611 304.628,431.588 304.797,431.567 C305.146,431.522 305.484,431.513 305.806,431.532 C306.447,431.571 307.012,431.716 307.46,431.894 C308.357,432.255 308.784,432.69 308.747,432.736 C308.701,432.805 308.211,432.492 307.341,432.243 C306.908,432.119 306.378,432.022 305.787,432.011 C305.492,432.007 305.184,432.025 304.867,432.072 C304.533,432.108 304.274,432.205 304.249,432.37 C304.24,432.432 304.244,432.454 304.342,432.518 C304.439,432.575 304.592,432.608 304.754,432.642 C305.07,432.711 305.38,432.757 305.677,432.786 C306.271,432.842 306.813,432.829 307.266,432.787 C308.173,432.702 308.727,432.534 308.753,432.611" fill="#324148"/>
      <path d="M308.648,432.88 C308.607,432.921 308.138,432.526 307.741,431.641 C307.545,431.2 307.384,430.639 307.336,429.996 C307.315,429.675 307.322,429.335 307.369,428.986 C307.428,428.64 307.488,428.183 308.006,427.913 C308.286,427.794 308.605,427.925 308.757,428.084 C308.926,428.241 309.008,428.401 309.106,428.553 C309.287,428.867 309.405,429.197 309.476,429.519 C309.619,430.162 309.563,430.764 309.43,431.233 C309.154,432.189 308.635,432.578 308.605,432.535 C308.532,432.484 308.916,432.027 309.071,431.151 C309.148,430.719 309.158,430.184 309.009,429.631 C308.936,429.355 308.825,429.075 308.667,428.813 C308.505,428.526 308.297,428.323 308.196,428.399 C308.052,428.45 307.898,428.772 307.874,429.06 C307.825,429.372 307.808,429.68 307.816,429.972 C307.834,430.558 307.945,431.083 308.085,431.509 C308.367,432.363 308.716,432.829 308.648,432.88" fill="#324148"/>
      <path d="M195.386,417.109 C195.352,416.216 233.172,362.457 233.172,362.457 L254.042,370.465 L206.432,425.324 z" fill="#FFCAAD"/>
      <path d="M195.386,417.109 L195.05,417.548 L188.565,426.014 L180.533,431.522 L191.288,452.24 L203.13,452.253 C203.13,452.253 202.275,449.407 196.577,447.933 L196.203,436.56 L206.432,425.324" fill="#EF686E"/>
      <g clip-path="url(#Clip_3)" opacity="0.6">
        <path d="M180.533,431.522 L191.287,452.24 L203.129,452.252 L201.797,450.471 L192.168,449.932 L182.241,430.35 z" fill="#FFFFFF"/>
      </g>
      <path d="M196.505,442.722 C196.417,442.843 195.734,442.454 194.818,442.48 C193.902,442.479 193.231,442.886 193.139,442.767 C193.028,442.678 193.696,441.968 194.812,441.959 C195.927,441.939 196.613,442.629 196.505,442.722" fill="#324148"/>
      <path d="M196.316,439.902 C196.197,439.985 195.67,439.286 194.727,439.101 C193.784,438.907 193.028,439.348 192.951,439.225 C192.911,439.172 193.047,438.973 193.38,438.793 C193.706,438.612 194.245,438.474 194.829,438.591 C195.412,438.709 195.857,439.044 196.088,439.337 C196.325,439.632 196.374,439.868 196.316,439.902" fill="#324148"/>
      <path d="M196.395,436.279 C196.265,436.344 195.862,435.66 195.037,435.374 C194.215,435.078 193.472,435.356 193.412,435.224 C193.38,435.165 193.53,435 193.858,434.877 C194.181,434.755 194.692,434.7 195.211,434.883 C195.729,435.067 196.093,435.43 196.266,435.728 C196.444,436.03 196.457,436.253 196.395,436.279" fill="#324148"/>
      <path d="M199.566,433.472 C199.425,433.522 199.093,432.848 198.359,432.371 C197.637,431.874 196.887,431.825 196.88,431.675 C196.839,431.537 197.757,431.337 198.647,431.939 C199.544,432.532 199.708,433.456 199.566,433.472" fill="#324148"/>
      <path d="M201.112,431.041 C201.052,431.081 200.662,430.604 200.079,429.802 C199.751,429.333 199.419,428.86 199.079,428.377 C198.908,428.1 198.669,427.857 198.53,427.42 C198.469,427.199 198.473,426.937 198.603,426.7 C198.724,426.449 199.058,426.291 199.318,426.327 C199.835,426.403 200.123,426.669 200.424,426.901 C200.713,427.151 200.951,427.435 201.142,427.725 C201.523,428.309 201.702,428.92 201.762,429.434 C201.877,430.481 201.534,431.078 201.493,431.051 C201.402,431.031 201.596,430.426 201.399,429.492 C201.299,429.032 201.103,428.496 200.745,427.994 C200.566,427.745 200.35,427.504 200.095,427.293 C199.847,427.091 199.522,426.869 199.279,426.847 C199.162,426.842 199.105,426.872 199.055,426.954 C199.005,427.041 198.99,427.169 199.024,427.289 C199.087,427.542 199.315,427.835 199.48,428.114 C199.788,428.618 200.089,429.111 200.387,429.6 C200.891,430.454 201.173,431.002 201.112,431.041" fill="#324148"/>
      <path d="M201.536,431.394 C201.48,431.39 201.525,430.768 202.167,430.056 C202.791,429.383 204.16,428.665 205.678,429.425 C205.786,429.518 205.871,429.686 205.862,429.848 C205.855,430.012 205.785,430.133 205.719,430.223 C205.578,430.407 205.423,430.498 205.294,430.595 C205.019,430.789 204.736,430.946 204.456,431.074 C203.898,431.33 203.355,431.457 202.899,431.507 C201.978,431.606 201.424,431.428 201.435,431.37 C201.443,431.287 201.996,431.328 202.839,431.144 C203.258,431.052 203.748,430.898 204.248,430.641 C204.498,430.513 204.751,430.361 204.996,430.181 C205.12,430.086 205.246,429.999 205.303,429.915 C205.361,429.81 205.346,429.84 205.327,429.809 C205.288,429.765 205.13,429.716 204.984,429.682 C204.837,429.647 204.69,429.623 204.544,429.614 C204.252,429.591 203.967,429.616 203.703,429.673 C203.171,429.788 202.74,430.047 202.424,430.321 C201.792,430.881 201.615,431.427 201.536,431.394" fill="#324148"/>
      <g clip-path="url(#Clip_4)" opacity="0.6">
        <path d="M189.98,431.168 C189.98,431.943 189.351,432.572 188.575,432.572 C187.799,432.572 187.17,431.943 187.17,431.168 C187.17,430.392 187.799,429.763 188.575,429.763 C189.351,429.763 189.98,430.392 189.98,431.168" fill="#FFFFFF"/>
      </g>
      <path d="M310.497,251.224 L317.684,251.224 C321.029,251.099 322.895,251.158 323.876,250.328 C325.19,249.218 323.552,247.953 323.552,247.953 C323.552,247.953 326.008,247.271 325.87,245.79 C325.776,244.78 324.643,244.599 324.643,244.599 C324.643,244.599 326.815,243.898 327.288,243.038 C327.933,241.865 326.472,241.132 326.472,241.132 C329.475,239.52 329.317,237.74 328.659,237.523 C328.001,237.307 325.679,238.21 325.679,238.21 C323.739,238.641 318.44,239.917 320.541,237.163 C322.641,234.408 323.217,231.5 322.825,230.604 C322.435,229.709 321.045,229.928 320.811,230.977 C320.621,231.826 319.867,233.141 319.26,234.106 C318.759,234.902 318.131,235.612 317.393,236.195 C316.531,236.873 315.775,237.415 315.121,237.859 L307.762,241.444 z" fill="#FFCAAD"/>
      <path d="M314.334,234.629 L318.163,253.65 L327.525,252.687 L327.792,233.245 z" fill="#E6E6E6"/>
      <path d="M314.079,232.146 C314.079,232.146 313.379,233.006 313.462,234.771 L328.675,233.207 C328.675,233.207 328.807,231.616 327.536,230.762 z" fill="#566D77"/>
      <path d="M315.632,230.208 L315.313,232.162 L326.804,231.067 L325.84,229.136 z" fill="#566D77"/>
      <path d="M314.636,239.458 C314.655,239.636 316.744,249.012 316.744,249.012 L328.191,247.834 L328.285,238.054 z" fill="#566D77"/>
      <path d="M332.186,237.729 C332.463,237.563 332.486,237.138 332.3,236.874 C332.115,236.61 331.79,236.482 331.472,236.421 C330.152,236.166 328.847,236.829 327.665,237.471 C326.507,238.1 325.33,238.743 324.412,239.688 C324.147,239.96 323.891,240.339 324.03,240.691 C324.142,240.977 324.469,241.111 324.771,241.164 C325.472,241.287 326.217,241.13 326.809,240.736 C325.852,241.037 324.981,241.608 324.324,242.367 C324.089,242.637 323.871,242.976 323.937,243.327 C324.016,243.75 324.496,243.999 324.925,243.973 C325.354,243.946 325.742,243.718 326.11,243.496 C325.239,243.68 324.429,244.149 323.835,244.813 C323.668,245.001 323.51,245.223 323.507,245.475 C323.501,245.98 324.107,246.275 324.612,246.253 C325.117,246.231 325.612,246.026 326.113,246.087 C325.088,246.132 324.103,246.715 323.572,247.592 C323.37,247.925 323.254,248.409 323.548,248.664 C323.738,248.829 324.017,248.821 324.267,248.804 C324.628,248.779 324.989,248.755 325.35,248.73 C325.933,248.691 326.529,248.648 327.069,248.424 C327.608,248.199 328.091,247.755 328.206,247.182 C328.319,246.608 327.948,245.937 327.369,245.86 C328.085,245.552 328.823,245.142 329.166,244.441 C329.51,243.74 329.229,242.701 328.467,242.531 C329.04,241.701 330.499,241.696 330.819,240.739 C331.032,240.099 330.579,239.446 330.153,238.923 C331.031,238.784 331.835,238.242 332.295,237.482" fill="#FFCAAD"/>
      <path d="M330.431,238.996 C330.456,239.048 329.824,239.452 328.739,240.012 C328.195,240.287 327.535,240.599 326.765,240.867 C326.377,241.001 325.976,241.124 325.528,241.223 C325.298,241.265 325.052,241.293 324.786,241.248 C324.523,241.208 324.227,241.049 324.076,240.773 C323.784,240.209 324.062,239.604 324.412,239.283 C324.773,238.944 325.157,238.764 325.494,238.552 C326.148,238.171 326.763,237.813 327.335,237.479 C328.391,236.879 329.06,236.535 329.092,236.588 C329.124,236.641 328.515,237.081 327.502,237.75 C326.945,238.11 326.347,238.496 325.711,238.906 C325.376,239.126 324.995,239.328 324.722,239.597 C324.445,239.85 324.317,240.267 324.469,240.554 C324.617,240.836 325.053,240.865 325.447,240.789 C325.852,240.706 326.26,240.592 326.633,240.474 C327.386,240.235 328.049,239.959 328.604,239.724 C329.712,239.243 330.401,238.936 330.431,238.996" fill="#F1AA81"/>
      <path d="M329.051,242.318 C329.076,242.375 328.578,242.623 327.749,242.981 C327.272,243.179 326.784,243.38 326.283,243.588 C325.997,243.701 325.707,243.815 325.411,243.932 C325.113,244.028 324.729,244.172 324.296,244.036 C324.093,243.97 323.888,243.827 323.783,243.608 C323.68,243.39 323.69,243.161 323.744,242.968 C323.87,242.568 324.152,242.339 324.366,242.14 C324.819,241.733 325.27,241.42 325.666,241.191 C326.462,240.734 327.015,240.593 327.035,240.645 C327.063,240.708 326.561,240.951 325.838,241.459 C325.478,241.714 325.066,242.039 324.65,242.443 C324.44,242.645 324.231,242.856 324.169,243.088 C324.105,243.335 324.189,243.528 324.439,243.608 C324.924,243.749 325.613,243.353 326.148,243.195 C326.655,243.021 327.149,242.851 327.632,242.685 C328.484,242.406 329.026,242.261 329.051,242.318" fill="#F1AA81"/>
      <path d="M327.823,245.354 C327.852,245.397 327.355,245.804 326.391,246.156 C325.907,246.327 325.322,246.484 324.627,246.534 C324.283,246.551 323.84,246.506 323.503,246.2 C323.341,246.055 323.203,245.848 323.17,245.596 C323.135,245.345 323.225,245.087 323.366,244.904 C323.653,244.538 324.023,244.369 324.327,244.189 C324.643,244.012 324.952,243.848 325.249,243.697 C325.843,243.396 326.389,243.149 326.855,242.958 C327.787,242.576 328.388,242.409 328.41,242.464 C328.433,242.524 327.876,242.795 326.988,243.247 C326.545,243.474 326.018,243.747 325.443,244.064 C325.15,244.23 324.851,244.399 324.546,244.572 C324.236,244.755 323.914,244.928 323.727,245.173 C323.543,245.41 323.587,245.679 323.801,245.875 C324.003,246.069 324.309,246.124 324.614,246.119 C325.241,246.096 325.826,245.978 326.296,245.852 C327.242,245.592 327.789,245.291 327.823,245.354" fill="#F1AA81"/>
      <path d="M323.956,248.973 C323.957,248.999 323.86,249.039 323.688,248.985 C323.524,248.93 323.292,248.762 323.198,248.436 C323.106,248.115 323.201,247.702 323.459,247.378 C323.718,247.057 324.083,246.804 324.464,246.639 C325.995,245.876 327.284,245.475 327.333,245.581 C327.387,245.701 326.152,246.302 324.685,247.033 C324.301,247.197 323.991,247.411 323.779,247.641 C323.571,247.872 323.482,248.154 323.51,248.369 C323.581,248.837 323.977,248.921 323.956,248.973" fill="#F1AA81"/>
      <path d="M189.065,299.761 L188.729,302.167 L182.662,305.165 C181.252,305.598 180.346,306.968 180.501,308.435 L180.903,312.233 C181.053,313.642 182.044,314.819 183.408,315.203 L192.603,317.802 C193.526,318.063 194.483,317.516 194.728,316.589 C194.94,315.779 194.537,314.933 193.773,314.589 L186.715,311.731 C186.521,310.469 187.291,309.258 188.516,308.9 L194.982,307.008 L195.793,311.993 C195.94,312.898 196.706,313.623 197.622,313.601 C198.09,313.59 198.491,313.377 198.546,312.712 C198.689,311.001 199.311,301.539 199.311,301.539 z" fill="#FFCAAD"/>
      <path d="M160.155,446.452 C160.906,449.094 159.375,451.844 156.733,452.595 C154.092,453.346 151.342,451.814 150.59,449.173 C149.839,446.531 151.371,443.781 154.012,443.03 C156.654,442.279 159.404,443.81 160.155,446.452" fill="#324148"/>
      <path d="M156.399,447.704 L158.584,441.095 L156.876,440.301 L154.818,447.17 z" fill="#566D77"/>
      <path d="M174.115,367.56 L186.33,316.382 L190.11,317.692 L178.411,368.349 z" fill="#324148"/>
      <path d="M167.803,444.703 L140.242,437.769 C138.762,437.397 137.865,435.896 138.237,434.417 L155.375,366.295 C157.345,358.463 165.291,353.712 173.122,355.682 L177.679,356.828 C185.511,358.799 190.263,366.744 188.293,374.576 L171.155,442.698 C170.783,444.178 169.282,445.075 167.803,444.703" fill="#EF686E"/>
      <path d="M183.197,329.507 L187.142,330.542 L191.804,312.003 L187.568,310.774 z" fill="#324148"/>
      <path d="M171.082,443.758 C171.082,443.758 171.104,443.607 171.168,443.317 C171.238,443.01 171.336,442.582 171.463,442.03 C171.736,440.886 172.131,439.227 172.638,437.099 C173.681,432.803 175.183,426.616 177.038,418.979 C178.912,411.326 181.142,402.224 183.617,392.116 C184.86,387.063 186.165,381.758 187.517,376.259 C187.855,374.884 188.197,373.497 188.541,372.099 C188.921,370.732 188.913,369.282 188.574,367.899 C187.867,365.128 185.561,362.79 182.699,362.099 C179.844,361.376 176.713,362.37 174.796,364.494 C173.852,365.562 173.169,366.84 172.869,368.228 C172.523,369.625 172.18,371.013 171.84,372.387 C170.479,377.886 169.166,383.19 167.915,388.242 C165.406,398.342 163.145,407.439 161.245,415.084 C159.334,422.707 157.787,428.883 156.712,433.17 C156.171,435.289 155.749,436.942 155.458,438.082 C155.313,438.629 155.202,439.053 155.121,439.357 C155.043,439.644 154.992,439.787 154.992,439.787 C154.992,439.787 155.014,439.637 155.078,439.346 C155.148,439.04 155.247,438.613 155.373,438.062 C155.646,436.916 156.041,435.258 156.548,433.13 C157.591,428.834 159.093,422.649 160.948,415.011 C162.822,407.359 165.052,398.255 167.528,388.148 C168.77,383.092 170.076,377.786 171.428,372.285 C171.767,370.91 172.108,369.524 172.453,368.125 C172.762,366.69 173.484,365.322 174.478,364.203 C176.494,361.965 179.794,360.916 182.803,361.678 C185.819,362.405 188.249,364.871 188.991,367.789 C189.35,369.242 189.352,370.788 188.957,372.201 C188.612,373.599 188.269,374.986 187.929,376.361 C186.568,381.858 185.256,387.16 184.005,392.212 C181.496,402.311 179.235,411.406 177.335,419.052 C175.424,426.675 173.876,432.851 172.802,437.139 C172.261,439.259 171.839,440.911 171.548,442.052 C171.403,442.599 171.291,443.023 171.211,443.326 C171.133,443.613 171.082,443.758 171.082,443.758" fill="#324148"/>
      <path d="M166.363,394.459 C166.329,394.651 162.534,393.708 157.886,392.354 C153.238,390.997 149.498,389.742 149.531,389.549 C149.565,389.356 153.36,390.299 158.009,391.655 C162.656,393.011 166.397,394.266 166.363,394.459" fill="#324148"/>
      <path d="M186.259,316.009 C186.238,316.071 185.485,315.907 184.335,315.413 C184.048,315.283 183.737,315.138 183.415,314.923 C183.257,314.808 183.089,314.697 182.942,314.477 C182.831,314.297 182.741,314.108 182.661,313.907 C182.341,313.099 182.257,312.185 182.116,311.263 C181.992,310.345 181.875,309.469 181.762,308.633 C181.714,308.234 181.651,307.828 181.699,307.428 C181.733,307.223 181.749,307.049 181.888,306.839 C182.009,306.671 182.138,306.562 182.264,306.457 C183.283,305.682 184.062,305.496 184.081,305.561 C184.113,305.627 183.401,305.939 182.506,306.735 C182.401,306.834 182.293,306.948 182.224,307.059 C182.172,307.129 182.138,307.319 182.129,307.469 C182.106,307.793 182.173,308.16 182.238,308.566 C182.363,309.4 182.494,310.273 182.632,311.19 C182.772,312.122 182.846,313.014 183.11,313.738 C183.175,313.917 183.251,314.091 183.336,314.244 C183.399,314.352 183.536,314.472 183.667,314.572 C183.938,314.776 184.231,314.938 184.496,315.082 C185.574,315.648 186.287,315.936 186.259,316.009" fill="#F1AA81"/>
      <path d="M223.902,293.44 C223.223,287.441 222.98,264.106 222.98,264.106 C222.133,253.235 221.723,241.374 221.077,233.479 C218.89,206.756 237.825,208.069 237.825,208.069 L244.567,208.159 C252.608,208.763 258.551,214.192 259.745,221.623 L275.191,291.968 z" fill="#EF686E"/>
      <path d="M229.757,210.696 L229.357,205.599 C229.257,204.32 230.296,203.239 231.578,203.289 L249.728,203.996 C250.874,204.04 251.783,204.98 251.789,206.127 L251.819,212.05 z" fill="#EF686E"/>
      <path d="M210.715,254.896 L236.527,231.665 C236.527,231.665 245.044,216.095 229.35,210.298 C229.35,210.298 229.506,209.784 216.704,220.818 C208.978,227.478 201.213,234.24 196.269,238.556 C192.891,241.505 190.854,245.689 190.611,250.167 L187.928,299.564 L205.201,302.562 z" fill="#EF686E"/>
      <path d="M264.958,219.175 L278.416,244.496 L309.546,239.104 L313.455,255.415 L277.143,264.865 C275.474,265.388 273.694,265.454 271.991,265.053 C268.689,264.278 266.028,261.843 264.962,258.624 L251.708,224.175 C250.501,221.036 247.984,214.586 250.462,212.314 L248.736,211.861 C252.838,208.1 262.347,213.17 264.958,219.175" fill="#EF686E"/>
      <path d="M276.06,255.189 C276.009,255.213 275.655,254.635 275.383,253.583 C275.108,252.537 274.99,251.001 275.344,249.37 C275.705,247.741 276.456,246.396 277.143,245.56 C277.831,244.718 278.395,244.342 278.43,244.385 C278.49,244.449 278.024,244.916 277.44,245.779 C276.853,246.638 276.197,247.935 275.853,249.482 C275.517,251.03 275.571,252.483 275.744,253.508 C275.913,254.537 276.14,255.156 276.06,255.189" fill="#324148"/>
      <path d="M210.715,255.121 C210.57,255.183 209.941,253.647 208.494,252.29 C207.068,250.909 205.503,250.355 205.559,250.207 C205.571,250.075 207.32,250.436 208.853,251.912 C210.402,253.373 210.846,255.102 210.715,255.121" fill="#324148"/>
      <path d="M269.416,226.17 C269.416,226.314 256.315,226.43 240.158,226.43 C223.996,226.43 210.898,226.314 210.898,226.17 C210.898,226.026 223.996,225.909 240.158,225.909 C256.315,225.909 269.416,226.026 269.416,226.17" fill="#FBFBFB"/>
      <path d="M214.855,222.413 L267.13,222.413 L257.795,217.241 L249.409,221.924 L238.834,216.784 L229.35,221.696 L221.951,216.322 z" fill="#FBFBFB"/>
      <path d="M275.216,238.87 C275.216,239.014 257.541,239.13 235.744,239.13 C213.939,239.13 196.269,239.014 196.269,238.87 C196.269,238.726 213.939,238.61 235.744,238.61 C257.541,238.61 275.216,238.726 275.216,238.87" fill="#FBFBFB"/>
      <path d="M211.638,235.114 L265.621,235.114 L256.287,229.942 L247.901,234.625 L237.325,229.485 L227.842,234.396 L219.735,229.485 z" fill="#FBFBFB"/>
      <path d="M270.437,229.485 L265.622,235.114 L273.429,235.114 z" fill="#FBFBFB"/>
      <path d="M211.857,235.114 L206.887,229.311 L200.215,235.114 z" fill="#FBFBFB"/>
      <path d="M234.714,234.482 C234.737,234.509 234.431,234.815 233.858,235.346 C233.196,235.94 232.373,236.679 231.397,237.555 C229.303,239.403 226.388,241.929 223.148,244.695 C219.905,247.461 216.952,249.943 214.799,251.719 C213.781,252.545 212.922,253.241 212.232,253.801 C211.618,254.283 211.268,254.537 211.246,254.509 C211.223,254.482 211.53,254.175 212.104,253.644 C212.766,253.05 213.589,252.311 214.566,251.434 C216.659,249.586 219.573,247.06 222.814,244.295 C226.052,241.531 229.004,239.051 231.157,237.275 C232.176,236.449 233.035,235.752 233.726,235.192 C234.339,234.709 234.691,234.455 234.714,234.482" fill="#324148"/>
      <path d="M253.263,210.294 L222.587,282.383 L223.507,290.893 L257.795,212.05 C257.795,212.05 256.275,209.649 253.263,210.294" fill="#566D77"/>
      <path d="M224.472,282.383 L220.658,282.383 C217.627,282.383 215.118,284.74 214.93,287.765 L213.004,318.593 C212.789,322.029 215.626,324.879 219.063,324.681 C222.099,324.506 224.472,321.992 224.472,318.95 z" fill="#566D77"/>
      <path d="M226.535,284.028 C226.581,284.063 226.101,284.966 225.378,286.476 C225.01,287.227 224.581,288.123 224.066,289.11 C223.814,289.606 223.471,290.149 222.948,290.552 C222.454,290.97 221.59,291.188 220.924,290.77 C220.278,290.376 219.948,289.698 219.865,289.038 C219.794,288.371 219.96,287.76 220.154,287.227 C220.575,286.172 221.014,285.299 221.362,284.531 C222.074,283.016 222.547,282.094 222.613,282.123 C222.679,282.152 222.325,283.126 221.7,284.678 C221.399,285.453 220.98,286.38 220.606,287.388 C220.435,287.891 220.306,288.44 220.372,288.977 C220.438,289.498 220.727,290.049 221.188,290.321 C221.646,290.603 222.215,290.479 222.639,290.146 C223.078,289.813 223.388,289.359 223.645,288.881 C224.152,287.952 224.623,287.09 225.052,286.305 C225.858,284.839 226.465,283.978 226.535,284.028" fill="#324148"/>
      <path d="M221.682,290.447 C221.718,290.447 221.746,290.944 221.766,291.842 C221.776,292.84 221.788,294.115 221.803,295.642 C221.811,298.851 221.786,303.284 221.727,308.179 C221.69,310.622 221.655,312.949 221.623,315.082 C221.598,317.191 221.544,319.159 221,320.72 C220.479,322.29 219.546,323.334 218.794,323.846 C218.418,324.109 218.09,324.254 217.866,324.335 C217.638,324.41 217.514,324.433 217.509,324.417 C217.489,324.37 217.982,324.233 218.672,323.684 C219.356,323.144 220.197,322.116 220.649,320.609 C221.126,319.102 221.144,317.196 221.143,315.076 C221.162,312.943 221.184,310.616 221.206,308.173 C221.266,303.277 221.349,298.845 221.435,295.637 C221.487,294.111 221.53,292.836 221.564,291.839 C221.606,290.942 221.646,290.446 221.682,290.447" fill="#324148"/>
      <path d="M223.258,287.8 C223.258,288.32 222.836,288.741 222.316,288.741 C221.796,288.741 221.374,288.32 221.374,287.8 C221.374,287.279 221.796,286.858 222.316,286.858 C222.836,286.858 223.258,287.279 223.258,287.8" fill="#324148"/>
      <path d="M272.008,277.48 C271.99,277.485 271.931,277.31 271.831,276.972 C271.722,276.577 271.587,276.087 271.423,275.491 C271.078,274.203 270.606,272.331 270.047,270.012 C268.925,265.376 267.478,258.947 265.977,251.827 C264.476,244.703 263.188,238.242 262.278,233.561 C261.845,231.274 261.489,229.397 261.227,228.012 C261.122,227.402 261.036,226.902 260.966,226.498 C260.912,226.151 260.893,225.967 260.91,225.963 C260.928,225.959 260.982,226.136 261.07,226.477 C261.164,226.876 261.282,227.37 261.425,227.971 C261.728,229.348 262.139,231.214 262.639,233.487 C263.638,238.22 264.99,244.632 266.487,251.719 C267.987,258.836 269.376,265.274 270.406,269.929 C270.906,272.202 271.317,274.068 271.62,275.444 C271.746,276.049 271.85,276.546 271.934,276.948 C271.999,277.293 272.026,277.476 272.008,277.48" fill="#324148"/>
      <path d="M251.819,210.385 C251.819,210.529 246.873,210.646 240.773,210.646 C234.67,210.646 229.725,210.529 229.725,210.385 C229.725,210.241 234.67,210.125 240.773,210.125 C246.873,210.125 251.819,210.241 251.819,210.385" fill="#324148"/>
      <path d="M233.435,210.294 C233.291,210.294 233.174,208.765 233.174,206.88 C233.174,204.995 233.291,203.466 233.435,203.466 C233.579,203.466 233.695,204.995 233.695,206.88 C233.695,208.765 233.579,210.294 233.435,210.294" fill="#324148"/>
      <path d="M238.401,210.294 C238.257,210.294 238.141,208.798 238.141,206.953 C238.141,205.108 238.257,203.612 238.401,203.612 C238.546,203.612 238.661,205.108 238.661,206.953 C238.661,208.798 238.546,210.294 238.401,210.294" fill="#324148"/>
      <path d="M242.794,210.15 C242.65,210.15 242.533,208.712 242.533,206.938 C242.533,205.164 242.65,203.726 242.794,203.726 C242.938,203.726 243.054,205.164 243.054,206.938 C243.054,208.712 242.938,210.15 242.794,210.15" fill="#324148"/>
      <path d="M248.043,210.479 C247.899,210.479 247.783,209.013 247.783,207.205 C247.783,205.396 247.899,203.93 248.043,203.93 C248.187,203.93 248.303,205.396 248.303,207.205 C248.303,209.013 248.187,210.479 248.043,210.479" fill="#324148"/>
      <path d="M247.132,292.361 L291.762,436.321 L311.249,427.278 L274.902,290.893 z" fill="#324148"/>
      <path d="M223.902,293.44 L226.223,368.394 L189.98,418.924 L209.594,431.523 L252.652,379.331 C254.812,376.711 255.986,373.419 255.971,370.024 L255.604,291.968 z" fill="#324148"/>
      <path d="M235.78,292.888 C235.812,292.878 235.918,293.104 236.052,293.532 C236.187,293.958 236.333,294.594 236.411,295.397 C236.583,296.992 236.328,299.297 235.244,301.523 C234.178,303.767 232.519,305.376 231.19,306.265 C229.853,307.169 228.884,307.45 228.866,307.399 C228.828,307.319 229.733,306.92 230.973,305.967 C232.211,305.028 233.754,303.446 234.774,301.298 C235.816,299.155 236.115,296.973 236.044,295.42 C235.983,293.859 235.692,292.911 235.78,292.888" fill="#566D77"/>
      <path d="M276.269,301.562 C276.248,301.616 275.553,301.431 274.546,300.862 C273.542,300.297 272.258,299.294 271.178,297.886 C270.102,296.475 269.47,294.973 269.189,293.856 C268.903,292.735 268.907,292.015 268.964,292.01 C269.127,291.961 269.473,294.849 271.591,297.571 C273.662,300.327 276.359,301.417 276.269,301.562" fill="#566D77"/>
      <path d="M244.686,292.692 C244.695,292.692 244.711,292.819 244.733,293.068 C244.754,293.343 244.782,293.709 244.818,294.173 C244.883,295.175 244.975,296.603 245.093,298.426 C245.316,302.121 245.632,307.466 245.921,314.079 C246.212,320.691 246.449,328.572 246.397,337.327 C246.371,341.703 246.26,346.297 246.064,351.056 C245.867,355.8 245.668,360.794 244.286,365.71 C242.933,370.661 240.083,374.865 237.241,378.662 C234.365,382.463 231.556,386.093 228.874,389.551 C223.507,396.463 218.606,402.635 214.46,407.794 C210.313,412.951 206.918,417.092 204.558,419.942 C203.386,421.343 202.468,422.44 201.824,423.211 C201.52,423.564 201.282,423.842 201.102,424.051 C200.937,424.24 200.85,424.333 200.842,424.327 C200.835,424.321 200.91,424.216 201.061,424.018 C201.23,423.8 201.456,423.511 201.743,423.144 C202.369,422.359 203.261,421.242 204.4,419.814 C206.727,416.898 210.061,412.718 214.173,407.564 C218.281,402.378 223.15,396.183 228.495,389.257 C231.152,385.783 233.941,382.136 236.832,378.357 C239.662,374.565 242.459,370.422 243.785,365.567 C245.145,360.733 245.352,355.777 245.555,351.035 C245.756,346.282 245.878,341.694 245.917,337.323 C245.996,328.579 245.797,320.704 245.554,314.093 C245.274,307.505 245.048,302.164 244.891,298.437 C244.814,296.611 244.755,295.182 244.713,294.179 C244.699,293.713 244.688,293.346 244.68,293.071 C244.675,292.821 244.677,292.693 244.686,292.692" fill="#566D77"/>
      <path d="M302.059,430.375 C301.92,430.413 293.231,399.342 282.654,360.985 C272.073,322.614 263.611,291.488 263.749,291.45 C263.888,291.411 272.576,322.476 283.156,360.847 C293.733,399.204 302.198,430.337 302.059,430.375" fill="#566D77"/>
    </g>
  </g>
  <g id="Plants">
    <path d="M403.333,308.012 L458.887,308.012 L458.887,300.378 L403.333,300.378 z" fill="#324148"/>
    <path d="M403.428,307.916 L458.79,307.916 L458.79,300.474 L403.428,300.474 z M458.98,308.107 L403.238,308.107 L403.238,300.284 L458.98,300.284 z" fill="#324148"/>
    <path d="M408.484,305.471 L416.48,344.92 L446.067,344.92 L453.797,308.012 z" fill="#324148"/>
    <path d="M408.484,341.189 L412.749,347.052 L448.711,347.052 L453.797,341.189 z" fill="#324148"/>
    <g>
      <path d="M429.023,306.623 C428.914,306.623 428.774,288.348 428.711,265.809 C428.647,243.262 428.684,224.989 428.794,224.989 C428.903,224.989 429.043,243.26 429.106,265.808 C429.169,288.347 429.132,306.623 429.023,306.623" fill="#324148"/>
      <path d="M441.398,260.889 C441.41,260.895 441.358,261.041 441.249,261.314 C441.119,261.624 440.955,262.016 440.753,262.496 C440.642,262.757 440.521,263.041 440.391,263.349 C440.276,263.67 440.153,264.017 440.021,264.386 C439.886,264.759 439.744,265.157 439.592,265.576 C439.444,265.998 439.328,266.458 439.181,266.933 C438.575,268.826 438.092,271.15 437.628,273.735 C437.223,276.332 436.92,279.208 436.768,282.24 C436.498,288.31 436.84,293.813 437.207,297.778 C437.385,299.761 437.565,301.364 437.698,302.47 C437.754,302.99 437.8,303.411 437.837,303.746 C437.865,304.038 437.874,304.194 437.86,304.196 C437.846,304.198 437.812,304.047 437.758,303.758 C437.703,303.425 437.631,303.006 437.544,302.491 C437.366,301.39 437.143,299.789 436.928,297.805 C436.49,293.84 436.101,288.32 436.373,282.221 C436.526,279.176 436.841,276.284 437.268,273.674 C437.755,271.077 438.269,268.746 438.914,266.851 C439.069,266.375 439.196,265.915 439.354,265.494 C439.516,265.076 439.669,264.68 439.814,264.308 C439.957,263.941 440.091,263.597 440.216,263.277 C440.353,262.966 440.493,262.688 440.612,262.435 C440.842,261.965 441.029,261.582 441.177,261.28 C441.31,261.017 441.385,260.883 441.398,260.889" fill="#324148"/>
      <path d="M439.978,246.108 C439.991,246.113 439.929,246.32 439.801,246.711 C439.657,247.133 439.464,247.699 439.223,248.41 C439.094,248.781 438.952,249.19 438.798,249.634 C438.66,250.09 438.51,250.583 438.351,251.11 C438.026,252.168 437.649,253.37 437.315,254.721 C437.137,255.396 436.951,256.1 436.757,256.835 C436.59,257.577 436.416,258.347 436.237,259.145 C435.848,260.736 435.569,262.464 435.21,264.269 C434.598,267.899 434.059,271.912 433.687,276.144 C433.336,280.38 433.183,284.427 433.129,288.11 C433.119,291.793 433.166,295.111 433.316,297.892 C433.366,299.285 433.455,300.542 433.526,301.646 C433.59,302.752 433.66,303.703 433.73,304.479 C433.787,305.227 433.832,305.824 433.866,306.269 C433.893,306.678 433.901,306.894 433.887,306.896 C433.874,306.897 433.839,306.684 433.787,306.277 C433.735,305.834 433.665,305.239 433.577,304.493 C433.483,303.718 433.39,302.768 433.305,301.664 C433.212,300.559 433.104,299.301 433.037,297.908 C432.849,295.123 432.774,291.798 432.765,288.107 C432.798,284.417 432.941,280.358 433.292,276.111 C433.666,271.867 434.217,267.842 434.851,264.206 C435.22,262.396 435.513,260.666 435.916,259.073 C436.105,258.275 436.287,257.503 436.461,256.76 C436.664,256.027 436.859,255.322 437.044,254.648 C437.398,253.296 437.794,252.097 438.14,251.043 C438.311,250.518 438.471,250.028 438.62,249.574 C438.786,249.133 438.938,248.727 439.078,248.358 C439.349,247.657 439.565,247.099 439.726,246.682 C439.878,246.301 439.965,246.103 439.978,246.108" fill="#324148"/>
      <path d="M425.509,309.857 C425.502,309.857 425.491,309.785 425.478,309.643 C425.464,309.479 425.447,309.272 425.425,309.014 C425.386,308.432 425.331,307.623 425.262,306.594 C425.128,304.462 424.939,301.428 424.705,297.692 C424.223,290.177 423.526,279.795 422.261,268.378 C421.614,262.669 420.865,257.248 420.086,252.332 C419.672,249.878 419.296,247.544 418.87,245.372 C418.48,243.193 418.058,241.175 417.671,239.334 C417.306,237.487 416.899,235.834 416.571,234.375 C416.249,232.915 415.938,231.665 415.678,230.645 C415.433,229.645 415.24,228.857 415.101,228.29 C415.043,228.038 414.997,227.835 414.961,227.675 C414.931,227.535 414.919,227.463 414.926,227.461 C414.933,227.46 414.957,227.528 415,227.664 C415.046,227.822 415.105,228.021 415.178,228.269 C415.334,228.832 415.551,229.613 415.827,230.607 C416.111,231.621 416.444,232.866 416.786,234.323 C417.135,235.779 417.562,237.43 417.945,239.275 C418.35,241.115 418.787,243.132 419.193,245.311 C419.633,247.482 420.022,249.818 420.447,252.273 C421.246,257.192 422.007,262.619 422.655,268.334 C423.92,279.762 424.573,290.155 424.985,297.675 C425.189,301.437 425.33,304.481 425.416,306.586 C425.453,307.616 425.484,308.427 425.505,309.01 C425.51,309.269 425.515,309.476 425.518,309.641 C425.519,309.784 425.516,309.856 425.509,309.857" fill="#324148"/>
      <path d="M428.57,233.775 C428.329,231.186 425.713,229.233 423.112,229.206 C420.512,229.179 418.089,230.738 416.498,232.796 C414.908,234.853 414.031,237.365 413.313,239.864 C411.562,245.964 410.605,252.372 411.354,258.674 C412.102,264.976 414.659,271.181 419.181,275.633 C419.917,276.357 420.869,277.081 421.878,276.865 C422.429,276.748 422.882,276.364 423.3,275.986 C432.184,267.962 437.313,255.942 436.962,243.977 C436.891,241.58 436.577,239.087 435.25,237.09 C433.923,235.093 430.83,232.973 428.57,233.775" fill="#EF686E"/>
      <path d="M409.154,213.037 C407.933,215.247 406.713,217.458 405.492,219.669 C405.406,219.824 405.294,219.997 405.118,220.012 C404.925,220.028 404.781,219.846 404.675,219.684 C401.449,214.731 398.221,209.778 394.994,204.825 L397.224,203.56 z" fill="#EF686E"/>
      <g clip-path="url(#Clip_5)" opacity="0.2">
        <path d="M409.154,213.037 C407.933,215.247 406.713,217.458 405.492,219.669 C405.406,219.824 405.294,219.997 405.118,220.012 C404.925,220.028 404.781,219.846 404.675,219.684 C401.449,214.731 398.221,209.778 394.994,204.825 L397.224,203.56 z" fill="#000000"/>
      </g>
      <path d="M428.794,224.989 C417.784,218.493 406.775,211.996 395.766,205.5 C395.43,205.301 395.064,205.066 394.962,204.689 C394.83,204.2 395.197,203.729 395.55,203.365 C400.092,198.679 406.69,195.963 413.2,196.431 C419.71,196.899 425.97,200.66 429.157,206.355 C432.344,212.051 432.449,219.583 428.794,224.989" fill="#EF686E"/>
      <path d="M400.526,199.278 C400.525,199.264 400.673,199.246 400.959,199.224 C401.243,199.21 401.664,199.158 402.207,199.164 C403.292,199.138 404.87,199.209 406.79,199.528 C408.708,199.843 410.962,200.461 413.316,201.511 C415.669,202.556 418.103,204.069 420.321,206.056 C422.521,208.066 424.269,210.338 425.544,212.575 C426.823,214.814 427.662,216.994 428.167,218.872 C428.675,220.75 428.904,222.313 428.985,223.395 C429.046,223.935 429.036,224.359 429.05,224.643 C429.056,224.928 429.053,225.078 429.04,225.079 C429.005,225.081 428.963,224.483 428.833,223.412 C428.705,222.341 428.435,220.798 427.898,218.949 C426.853,215.271 424.429,210.311 420.055,206.35 C415.679,202.395 410.504,200.476 406.74,199.804 C404.846,199.453 403.284,199.339 402.206,199.319 C401.127,199.295 400.528,199.313 400.526,199.278" fill="#324148"/>
      <path d="M424.323,211.537 C424.343,211.587 423.706,211.881 422.654,212.296 C421.601,212.711 420.131,213.241 418.486,213.764 C416.841,214.286 415.334,214.702 414.235,214.97 C413.136,215.239 412.447,215.365 412.433,215.313 C412.42,215.259 413.083,215.037 414.16,214.701 C415.377,214.32 416.798,213.876 418.366,213.386 C419.93,212.881 421.345,212.424 422.559,212.033 C423.634,211.686 424.303,211.485 424.323,211.537" fill="#324148"/>
      <path d="M419.123,197.567 C419.229,197.557 419.463,199.204 419.514,201.251 C419.566,203.299 419.416,204.955 419.31,204.951 C419.197,204.947 419.171,203.295 419.118,201.261 C419.067,199.228 419.012,197.576 419.123,197.567" fill="#324148"/>
      <path d="M395.477,205.13 C395.461,205.08 396.375,204.748 397.876,204.286 C399.376,203.823 401.466,203.237 403.796,202.675 C406.126,202.115 408.253,201.684 409.8,201.413 C411.347,201.141 412.311,201.02 412.321,201.072 C412.331,201.128 411.385,201.346 409.855,201.687 C408.326,202.028 406.213,202.501 403.889,203.06 C401.565,203.621 399.47,204.162 397.953,204.555 C396.435,204.947 395.494,205.184 395.477,205.13" fill="#324148"/>
      <path d="M413.564,227.647 C410.724,225.493 407.72,225.069 404.158,225.21 C400.596,225.351 397.128,226.436 393.864,227.867 C388.294,230.306 383.059,233.901 379.732,238.989 C376.404,244.078 375.246,250.814 377.737,256.361 C377.986,256.914 378.308,257.491 378.865,257.729 C379.452,257.981 380.123,257.785 380.729,257.586 C387.063,255.52 393.443,253.435 399.267,250.199 C405.091,246.963 410.392,242.464 413.517,236.58 C414.267,235.168 414.895,233.655 415.017,232.061 C415.14,230.467 414.7,228.773 413.564,227.647" fill="#EF686E"/>
      <path d="M413.621,226.979 C413.625,226.992 413.468,227.055 413.165,227.164 C412.822,227.282 412.383,227.433 411.838,227.621 C411.545,227.718 411.225,227.825 410.877,227.941 C410.528,228.066 410.157,228.223 409.754,228.378 C408.953,228.703 408.022,229.026 407.043,229.502 C406.547,229.728 406.028,229.964 405.489,230.209 C404.951,230.458 404.413,230.764 403.844,231.054 C402.695,231.618 401.534,232.338 400.297,233.069 C397.869,234.604 395.299,236.452 392.797,238.631 C390.316,240.835 388.156,243.149 386.323,245.362 C385.441,246.497 384.579,247.557 383.873,248.624 C383.513,249.152 383.141,249.646 382.826,250.149 C382.514,250.652 382.214,251.136 381.927,251.599 C381.33,252.51 380.891,253.392 380.467,254.145 C380.261,254.526 380.058,254.874 379.89,255.204 C379.73,255.533 379.584,255.837 379.449,256.116 C379.194,256.632 378.988,257.049 378.828,257.374 C378.682,257.66 378.599,257.808 378.586,257.802 C378.573,257.797 378.632,257.639 378.755,257.342 C378.898,257.008 379.082,256.581 379.31,256.05 C379.435,255.766 379.572,255.457 379.721,255.12 C379.88,254.784 380.073,254.429 380.27,254.042 C380.678,253.277 381.101,252.381 381.686,251.456 C381.968,250.986 382.263,250.495 382.568,249.984 C382.879,249.474 383.246,248.973 383.603,248.437 C384.302,247.356 385.16,246.281 386.04,245.133 C387.869,242.892 390.038,240.553 392.536,238.333 C395.055,236.139 397.65,234.286 400.105,232.758 C401.356,232.031 402.531,231.317 403.693,230.762 C404.269,230.477 404.813,230.176 405.358,229.933 C405.904,229.694 406.429,229.465 406.931,229.246 C407.923,228.784 408.865,228.477 409.678,228.171 C410.086,228.024 410.462,227.877 410.815,227.763 C411.168,227.658 411.493,227.562 411.791,227.474 C412.346,227.315 412.794,227.187 413.142,227.087 C413.453,227.003 413.617,226.966 413.621,226.979" fill="#324148"/>
      <path d="M391.428,238.995 C391.459,239.1 388.365,240.097 384.519,241.221 C380.671,242.346 377.529,243.173 377.497,243.068 C377.467,242.963 380.56,241.966 384.407,240.841 C388.254,239.717 391.398,238.89 391.428,238.995" fill="#324148"/>
      <path d="M391.145,254.243 C391.091,254.244 391.029,253.422 390.993,252.09 C390.956,250.76 390.951,248.919 391.007,246.889 C391.064,244.857 391.172,243.02 391.284,241.693 C391.394,240.366 391.501,239.548 391.555,239.552 C391.611,239.556 391.602,240.38 391.563,241.709 C391.518,243.167 391.463,244.939 391.403,246.9 C391.353,248.859 391.309,250.632 391.272,252.09 C391.237,253.42 391.201,254.243 391.145,254.243" fill="#324148"/>
      <path d="M404.207,247.589 C404.098,247.596 403.75,243.858 403.431,239.239 C403.111,234.619 402.941,230.868 403.05,230.861 C403.159,230.854 403.507,234.591 403.826,239.212 C404.145,243.83 404.315,247.581 404.207,247.589" fill="#324148"/>
      <path d="M387.948,230.498 C387.95,230.443 388.797,230.422 390.163,230.431 C391.528,230.44 393.413,230.481 395.494,230.55 C397.576,230.618 399.46,230.703 400.823,230.784 C402.186,230.865 403.03,230.942 403.029,230.997 C403.028,231.051 402.183,231.073 400.817,231.063 C399.452,231.054 397.565,231.014 395.481,230.945 C393.398,230.876 391.513,230.791 390.15,230.711 C388.787,230.63 387.945,230.553 387.948,230.498" fill="#324148"/>
      <path d="M420.597,277.411 C420.583,277.412 420.568,277.257 420.55,276.96 C420.535,276.62 420.516,276.191 420.492,275.663 C420.443,274.535 420.431,272.902 420.473,270.886 C420.509,268.868 420.643,266.468 420.881,263.809 C421.138,261.153 421.51,258.241 422.043,255.207 C422.591,252.175 423.247,249.312 423.923,246.73 C424.618,244.154 425.322,241.854 425.984,239.949 C426.641,238.041 427.215,236.512 427.651,235.472 C427.856,234.984 428.022,234.588 428.154,234.274 C428.273,234.002 428.341,233.862 428.354,233.867 C428.367,233.872 428.323,234.022 428.228,234.304 C428.115,234.624 427.971,235.029 427.795,235.527 C427.404,236.583 426.87,238.123 426.249,240.037 C425.622,241.949 424.95,244.249 424.276,246.823 C423.621,249.401 422.979,252.255 422.433,255.276 C421.902,258.3 421.52,261.199 421.243,263.845 C420.988,266.492 420.825,268.883 420.753,270.894 C420.675,272.905 420.644,274.535 420.646,275.661 C420.64,276.189 420.634,276.618 420.63,276.958 C420.621,277.255 420.611,277.411 420.597,277.411" fill="#324148"/>
      <path d="M422.34,254.877 C422.376,254.915 421.878,255.471 421.022,256.323 C420.168,257.175 418.954,258.318 417.57,259.532 C416.186,260.747 414.892,261.8 413.936,262.535 C412.979,263.272 412.362,263.694 412.329,263.652 C412.296,263.608 412.849,263.108 413.759,262.318 C414.775,261.438 415.979,260.392 417.31,259.235 C418.63,258.066 419.824,257.01 420.831,256.119 C421.733,255.32 422.302,254.836 422.34,254.877" fill="#324148"/>
      <path d="M432.795,263.298 C432.747,263.328 432.223,262.576 431.392,261.355 C430.488,260.037 429.367,258.401 428.128,256.592 C426.861,254.8 425.718,253.18 424.796,251.875 C423.939,250.671 423.417,249.918 423.461,249.884 C423.503,249.851 424.105,250.544 425.02,251.707 C425.936,252.871 427.161,254.51 428.453,256.365 C429.743,258.221 430.854,259.94 431.626,261.202 C432.399,262.466 432.84,263.27 432.795,263.298" fill="#324148"/>
      <path d="M427.318,236.814 C427.377,236.906 423.904,239.244 419.562,242.036 C415.218,244.828 411.651,247.016 411.591,246.924 C411.533,246.833 415.005,244.495 419.348,241.703 C423.69,238.911 427.258,236.722 427.318,236.814" fill="#324148"/>
      <path d="M437.11,247.383 C437.034,247.461 434.681,245.288 431.857,242.529 C429.032,239.77 426.804,237.47 426.881,237.392 C426.957,237.314 429.308,239.487 432.133,242.246 C434.958,245.005 437.186,247.305 437.11,247.383" fill="#324148"/>
      <path d="M439.572,247.171 L442.553,246.924 C444.67,246.749 446.723,246.123 448.574,245.081 C449.488,244.567 450.407,244.063 451.38,243.672 C455.065,242.192 459.177,242.457 463.144,242.258 C469.618,241.933 476.024,240.296 481.859,237.473 C482.196,237.31 482.495,237.061 482.675,236.733 C483.287,235.617 482.15,234.624 481.171,234.021 C476.148,230.926 471.036,227.792 465.341,226.255 C459.645,224.719 453.179,224.979 448.32,228.323 C442.615,232.25 440.536,240.313 439.572,247.171" fill="#EF686E"/>
      <path d="M482.742,236.366 C482.735,236.378 482.561,236.297 482.236,236.131 C481.879,235.943 481.41,235.698 480.823,235.39 C479.598,234.746 477.834,233.795 475.604,232.726 C473.374,231.668 470.671,230.475 467.526,229.613 C464.394,228.742 460.781,228.287 457.055,228.764 C453.346,229.253 449.929,230.697 447.511,232.863 C445.077,235.022 443.59,237.629 442.54,239.844 C441.493,242.078 440.847,243.979 440.378,245.28 C440.158,245.903 439.981,246.403 439.846,246.783 C439.722,247.126 439.651,247.304 439.638,247.3 C439.626,247.296 439.672,247.11 439.771,246.759 C439.888,246.372 440.041,245.865 440.231,245.231 C440.657,243.913 441.263,241.994 442.286,239.727 C443.312,237.479 444.791,234.816 447.268,232.59 C449.733,230.355 453.228,228.868 457.004,228.372 C460.793,227.886 464.466,228.362 467.624,229.261 C470.796,230.152 473.504,231.381 475.727,232.474 C477.949,233.579 479.694,234.569 480.898,235.256 C481.469,235.59 481.927,235.857 482.275,236.061 C482.588,236.249 482.749,236.354 482.742,236.366" fill="#324148"/>
      <path d="M475.583,240.212 C475.521,240.303 471.623,237.78 466.875,234.579 C462.126,231.377 458.327,228.709 458.388,228.618 C458.449,228.527 462.348,231.049 467.097,234.251 C471.844,237.452 475.644,240.122 475.583,240.212" fill="#324148"/>
      <path d="M471.838,228.245 C471.859,228.349 470.506,228.7 468.794,228.855 C467.083,229.015 465.69,228.916 465.691,228.81 C465.692,228.698 467.068,228.619 468.758,228.461 C470.447,228.308 471.817,228.135 471.838,228.245" fill="#324148"/>
      <path d="M454.356,225.113 C454.45,225.169 453.877,226.314 453.077,227.671 C452.276,229.028 451.55,230.083 451.457,230.028 C451.363,229.972 451.935,228.827 452.736,227.469 C453.536,226.113 454.261,225.058 454.356,225.113" fill="#324148"/>
      <path d="M457.849,242.509 C457.822,242.553 457.099,242.176 455.972,241.492 C454.846,240.808 453.325,239.806 451.698,238.626 C450.072,237.444 448.637,236.327 447.607,235.51 C446.578,234.692 445.954,234.166 445.988,234.122 C446.02,234.079 446.703,234.525 447.775,235.286 C448.945,236.136 450.363,237.166 451.93,238.305 C453.551,239.482 455.04,240.515 456.124,241.257 C457.208,241.998 457.879,242.46 457.849,242.509" fill="#324148"/>
      <path d="M443.962,259.836 C441.117,259.085 437.729,261.851 437.143,264.732 C436.557,267.615 437.638,270.563 438.902,273.217 C441.703,279.094 445.57,284.545 450.661,288.603 C455.754,292.659 462.13,295.254 468.641,295.221 C467.44,289.638 468.96,283.805 468.289,278.133 C467.703,273.182 465.396,268.452 461.854,264.944 C458.311,261.438 453.557,259.177 448.602,258.641 C446.786,258.444 444.686,258.16 443.962,259.836" fill="#EF686E"/>
      <path d="M468.64,295.221 C468.634,295.234 468.495,295.168 468.236,295.033 C467.979,294.893 467.609,294.667 467.172,294.319 C466.28,293.642 465.257,292.335 464.365,290.564 C463.911,289.684 463.405,288.728 462.91,287.67 C462.429,286.608 461.917,285.477 461.379,284.288 C460.837,283.104 460.241,281.873 459.5,280.674 C458.762,279.472 457.885,278.298 456.912,277.156 C454.966,274.868 452.877,272.891 451.067,271 C449.246,269.118 447.715,267.304 446.609,265.653 C445.492,264.006 444.816,262.532 444.431,261.492 C444.248,260.968 444.117,260.558 444.051,260.273 C443.98,259.99 443.949,259.84 443.961,259.836 C443.998,259.825 444.16,260.417 444.575,261.436 C444.999,262.45 445.705,263.886 446.84,265.494 C447.964,267.109 449.501,268.886 451.328,270.746 C453.147,272.617 455.247,274.589 457.215,276.9 C458.197,278.053 459.085,279.246 459.83,280.472 C460.58,281.696 461.176,282.944 461.712,284.138 C462.238,285.33 462.738,286.466 463.207,287.533 C463.685,288.585 464.178,289.551 464.614,290.436 C465.47,292.211 466.426,293.497 467.271,294.201 C468.102,294.917 468.664,295.183 468.64,295.221" fill="#324148"/>
      <path d="M453.937,290.581 C453.885,290.571 453.974,289.838 454.198,288.667 C454.42,287.496 454.786,285.889 455.278,284.137 C455.772,282.386 456.299,280.823 456.721,279.709 C457.142,278.594 457.449,277.922 457.498,277.94 C457.551,277.96 457.337,278.665 456.986,279.8 C456.633,280.935 456.151,282.501 455.659,284.244 C455.168,285.987 454.762,287.576 454.471,288.727 C454.179,289.879 453.993,290.592 453.937,290.581" fill="#324148"/>
      <path d="M468.102,276.876 C468.084,276.93 467.324,276.736 466.099,276.415 C464.873,276.095 463.181,275.657 461.299,275.232 C459.416,274.81 457.7,274.48 456.456,274.243 C455.211,274.008 454.441,273.857 454.449,273.801 C454.456,273.749 455.241,273.802 456.5,273.968 C457.759,274.133 459.494,274.421 461.386,274.847 C463.279,275.273 464.968,275.757 466.177,276.147 C467.386,276.537 468.118,276.826 468.102,276.876" fill="#324148"/>
      <path d="M443.385,280.858 C443.333,280.848 443.443,280.001 443.693,278.643 C443.943,277.286 444.34,275.42 444.872,273.381 C445.405,271.341 445.97,269.519 446.415,268.212 C446.861,266.906 447.179,266.113 447.23,266.129 C447.282,266.148 447.059,266.971 446.682,268.295 C446.307,269.621 445.786,271.45 445.255,273.481 C444.726,275.512 444.285,277.362 443.966,278.702 C443.647,280.041 443.441,280.869 443.385,280.858" fill="#324148"/>
      <path d="M461.579,264.932 C461.567,265.041 458.017,264.754 453.651,264.29 C449.283,263.828 445.753,263.365 445.765,263.256 C445.776,263.147 449.325,263.434 453.693,263.897 C458.059,264.361 461.591,264.824 461.579,264.932" fill="#324148"/>
      <path d="M458.978,307.98 C458.978,308.089 446.499,308.178 431.111,308.178 C415.716,308.178 403.241,308.089 403.241,307.98 C403.241,307.871 415.716,307.782 431.111,307.782 C446.499,307.782 458.978,307.871 458.978,307.98" fill="#566D77"/>
      <path d="M450.297,324.037 C450.297,324.146 441.889,324.235 431.521,324.235 C421.148,324.235 412.742,324.146 412.742,324.037 C412.742,323.928 421.148,323.84 431.521,323.84 C441.889,323.84 450.297,323.928 450.297,324.037" fill="#566D77"/>
      <path d="M450.625,326.333 C450.625,326.442 442.218,326.531 431.849,326.531 C421.477,326.531 413.071,326.442 413.071,326.333 C413.071,326.224 421.477,326.136 431.849,326.136 C442.218,326.136 450.625,326.224 450.625,326.333" fill="#566D77"/>
      <path d="M450.625,322.145 C450.625,322.254 441.929,322.343 431.203,322.343 C420.475,322.343 411.78,322.254 411.78,322.145 C411.78,322.036 420.475,321.948 431.203,321.948 C441.929,321.948 450.625,322.036 450.625,322.145" fill="#566D77"/>
      <path d="M33.156,367.703 C36.679,367.856 39.97,369.798 42.271,372.47 C44.573,375.141 45.969,378.487 46.851,381.901 C48.558,388.507 47.408,396.275 45.472,402.817 C38.359,400.206 34.025,392.559 32.07,388.542 C28.979,382.193 27.25,368.841 33.156,367.703" fill="#EF686E"/>
      <path d="M55.67,410.894 C53.446,407.642 53.432,403.147 55.242,399.648 C57.051,396.15 60.492,393.645 64.268,392.521 C66.013,392 68.035,391.793 69.541,392.818 C70.949,393.776 71.545,395.636 71.347,397.328 C71.15,399.019 70.279,400.561 69.255,401.922 C65.746,406.589 61.494,410.461 55.67,410.894" fill="#EF686E"/>
      <g clip-path="url(#Clip_6)" opacity="0.3">
        <path d="M55.67,410.894 C53.446,407.642 53.432,403.147 55.242,399.648 C57.051,396.15 60.492,393.645 64.268,392.521 C66.013,392 68.035,391.793 69.541,392.818 C70.949,393.776 71.545,395.636 71.347,397.328 C71.15,399.019 70.279,400.561 69.255,401.922 C65.746,406.589 61.494,410.461 55.67,410.894" fill="#FFFFFF"/>
      </g>
      <path d="M48.079,417.888 C43.723,410.818 35.767,406.101 27.474,405.672 C25.362,405.563 22.832,405.971 21.932,407.884 C21.029,409.8 22.335,412.019 23.804,413.545 C29.916,419.896 40.075,421.942 48.169,418.454" fill="#EF686E"/>
      <g clip-path="url(#Clip_7)" opacity="0.3">
        <path d="M48.079,417.888 C43.723,410.818 35.767,406.101 27.474,405.672 C25.362,405.563 22.832,405.971 21.932,407.884 C21.029,409.8 22.335,412.019 23.804,413.545 C29.916,419.896 40.075,421.942 48.169,418.454" fill="#FFFFFF"/>
      </g>
      <path d="M55.73,433.552 C55.7,433.556 55.596,433.058 55.439,432.153 C55.282,431.247 55.07,429.935 54.851,428.304 C54.432,425.056 53.916,420.481 54.563,415.461 C55.214,410.437 57.229,406.154 59.324,403.593 C60.359,402.3 61.349,401.384 62.084,400.825 C62.437,400.528 62.75,400.348 62.947,400.208 C63.15,400.074 63.261,400.011 63.27,400.024 C63.345,400.11 61.554,401.18 59.576,403.787 C57.581,406.356 55.652,410.573 55.009,415.52 C54.371,420.469 54.829,425.015 55.167,428.266 C55.349,429.838 55.499,431.139 55.613,432.127 C55.716,433.04 55.761,433.547 55.73,433.552" fill="#324148"/>
      <path d="M35.371,377.754 C35.386,377.748 35.481,377.936 35.65,378.299 C35.832,378.704 36.071,379.234 36.368,379.895 C36.984,381.284 37.85,383.306 38.901,385.811 C41.004,390.822 43.815,397.785 46.749,405.542 C49.681,413.302 52.178,420.384 53.915,425.533 C54.785,428.108 55.471,430.197 55.928,431.647 C56.142,432.338 56.313,432.893 56.445,433.318 C56.558,433.702 56.611,433.906 56.597,433.911 C56.581,433.916 56.5,433.722 56.359,433.347 C56.207,432.929 56.009,432.383 55.762,431.702 C55.237,430.222 54.508,428.162 53.614,425.638 C51.801,420.517 49.257,413.456 46.328,405.701 C43.396,397.949 40.634,390.972 38.607,385.932 C37.607,383.447 36.792,381.421 36.206,379.963 C35.941,379.289 35.729,378.748 35.566,378.334 C35.424,377.96 35.357,377.76 35.371,377.754" fill="#324148"/>
      <path d="M30.848,411.138 C30.851,411.107 31.335,411.137 32.213,411.218 C32.654,411.251 33.19,411.31 33.803,411.441 C34.417,411.564 35.127,411.661 35.882,411.896 C36.265,412.002 36.663,412.113 37.077,412.227 C37.492,412.346 37.907,412.519 38.345,412.671 C39.23,412.961 40.124,413.394 41.077,413.825 C42.945,414.761 44.914,415.966 46.798,417.477 C48.663,419.013 50.246,420.695 51.545,422.331 C52.161,423.176 52.768,423.963 53.232,424.771 C53.472,425.168 53.725,425.539 53.927,425.921 C54.123,426.302 54.313,426.67 54.495,427.023 C54.879,427.714 55.119,428.389 55.366,428.965 C55.619,429.538 55.786,430.051 55.909,430.476 C56.168,431.319 56.297,431.786 56.266,431.795 C56.166,431.829 55.664,429.936 54.212,427.168 C54.024,426.825 53.828,426.465 53.625,426.093 C53.418,425.721 53.16,425.36 52.917,424.971 C52.446,424.183 51.835,423.414 51.219,422.588 C49.92,420.988 48.352,419.34 46.515,417.826 C44.657,416.338 42.724,415.14 40.893,414.196 C39.958,413.762 39.081,413.322 38.214,413.021 C37.784,412.863 37.376,412.684 36.97,412.558 C36.564,412.435 36.173,412.317 35.798,412.203 C32.792,411.348 30.835,411.243 30.848,411.138" fill="#324148"/>
      <path d="M55.526,452.792 L54.477,452.792 C47.69,452.792 42.188,447.291 42.188,440.504 L42.188,427.166 L67.815,427.166 L67.815,440.504 C67.815,447.291 62.313,452.792 55.526,452.792" fill="#EF686E"/>
      <g clip-path="url(#Clip_8)" opacity="0.3">
        <path d="M55.526,452.792 L54.477,452.792 C47.69,452.792 42.188,447.291 42.188,440.504 L42.188,427.166 L67.815,427.166 L67.815,440.504 C67.815,447.291 62.313,452.792 55.526,452.792" fill="#000000"/>
      </g>
      <path d="M59.502,427.235 C59.527,427.247 59.433,427.521 59.208,427.993 C58.984,428.465 58.613,429.129 58.071,429.894 C57.001,431.422 55.131,433.337 52.559,434.649 C49.986,435.964 47.34,436.354 45.474,436.325 C44.536,436.315 43.781,436.227 43.267,436.131 C42.753,436.036 42.476,435.952 42.481,435.924 C42.493,435.843 43.629,436.067 45.469,436.006 C47.299,435.955 49.857,435.523 52.354,434.248 C54.851,432.974 56.701,431.155 57.815,429.704 C58.944,428.249 59.43,427.198 59.502,427.235" fill="#FBFBFB"/>
      <path d="M67.572,444.485 C67.565,444.511 67.266,444.466 66.743,444.31 C66.219,444.156 65.479,443.859 64.634,443.361 C62.953,442.391 60.85,440.407 59.847,437.529 C58.857,434.645 59.284,431.786 60.007,429.985 C60.364,429.071 60.762,428.38 61.079,427.935 C61.394,427.489 61.601,427.269 61.622,427.285 C61.699,427.334 60.927,428.282 60.306,430.093 C59.679,431.873 59.325,434.624 60.273,437.381 C61.232,440.134 63.209,442.079 64.802,443.09 C66.41,444.131 67.603,444.399 67.572,444.485" fill="#FBFBFB"/>
      <path d="M61.006,452.085 C60.896,452.091 61.158,450.571 60.469,448.3 C60.132,447.172 59.501,445.898 58.56,444.659 C57.607,443.433 56.324,442.26 54.769,441.36 C51.632,439.55 48.198,439.356 45.878,439.652 C43.521,439.939 42.153,440.566 42.124,440.477 C42.113,440.453 42.444,440.28 43.072,440.04 C43.701,439.8 44.641,439.522 45.836,439.336 C48.19,438.953 51.74,439.093 54.994,440.971 C56.604,441.9 57.923,443.125 58.891,444.408 C59.846,445.702 60.467,447.036 60.775,448.211 C61.089,449.385 61.157,450.373 61.128,451.046 C61.102,451.721 61.029,452.088 61.006,452.085" fill="#FBFBFB"/>
    </g>
  </g>
  <g id="Signals">
    <g>
      <path d="M347.715,124.502 C347.57,124.502 347.454,103.412 347.454,77.401 C347.454,51.381 347.57,30.295 347.715,30.295 C347.859,30.295 347.975,51.381 347.975,77.401 C347.975,103.412 347.859,124.502 347.715,124.502" fill="#324148"/>
      <path d="M417.771,124.502 C417.627,124.502 417.51,103.412 417.51,77.401 C417.51,51.381 417.627,30.295 417.771,30.295 C417.915,30.295 418.032,51.381 418.032,77.401 C418.032,103.412 417.915,124.502 417.771,124.502" fill="#324148"/>
      <path d="M425.809,101.681 L340.071,101.681 C334.427,101.681 329.853,97.105 329.853,91.463 L329.853,77.098 C329.853,71.453 334.427,66.88 340.071,66.88 L426.351,66.88 C431.994,66.88 436.568,71.453 436.568,77.097 L436.568,90.922 C436.568,96.864 431.751,101.681 425.809,101.681" fill="#EF686E"/>
      <path d="M342.869,91.113 L342.869,91.113 C343.762,91.12 344.492,90.402 344.499,89.509 L344.581,79.449 L358.796,93.897 C359.423,94.534 360.447,94.543 361.084,93.916 C361.721,93.289 361.728,92.265 361.102,91.629 L346.888,77.18 L356.946,77.262 C357.84,77.27 358.57,76.551 358.577,75.658 C358.585,74.765 357.866,74.034 356.973,74.028 L341.391,73.901 L341.265,89.483 C341.257,90.376 341.975,91.106 342.869,91.113" fill="#FBFBFB"/>
      <path d="M380.025,91.777 L380.025,94.039 L372.174,94.039 L372.174,92.253 L375.949,88.723 C376.755,87.974 376.871,87.513 376.871,87.096 C376.871,86.448 376.438,86.059 375.575,86.059 C374.839,86.059 374.177,86.39 373.774,87.038 L371.657,85.857 C372.42,84.59 373.846,83.754 375.834,83.754 C378.153,83.754 379.752,84.95 379.752,86.822 C379.752,87.801 379.478,88.695 378.038,90.02 L376.136,91.777 z" fill="#FBFBFB"/>
      <path d="M386.87,88.997 C386.87,86.879 386.208,86.087 385.3,86.087 C384.378,86.087 383.716,86.879 383.716,88.997 C383.716,91.115 384.378,91.907 385.3,91.907 C386.208,91.907 386.87,91.115 386.87,88.997 M380.849,88.997 C380.849,85.669 382.722,83.754 385.3,83.754 C387.864,83.754 389.736,85.669 389.736,88.997 C389.736,92.325 387.864,94.24 385.3,94.24 C382.722,94.24 380.849,92.325 380.849,88.997" fill="#FBFBFB"/>
      <path d="M390.949,88.882 L395.155,88.882 L395.155,90.985 L390.949,90.985 z" fill="#FBFBFB"/>
      <path d="M403.813,90.884 C403.813,92.598 402.459,94.24 399.419,94.24 C398.022,94.24 396.539,93.894 395.501,93.246 L396.539,91.1 C397.345,91.647 398.382,91.935 399.333,91.935 C400.298,91.935 400.932,91.561 400.932,90.884 C400.932,90.279 400.485,89.905 399.391,89.905 L398.195,89.905 L398.195,88.104 L399.996,86.159 L396.02,86.159 L396.02,83.955 L403.309,83.955 L403.309,85.741 L401.22,87.988 C402.919,88.349 403.813,89.444 403.813,90.884" fill="#FBFBFB"/>
      <path d="M412.515,90.797 C412.515,92.598 411.161,94.24 408.121,94.24 C406.725,94.24 405.241,93.894 404.218,93.246 L405.241,91.1 C406.062,91.647 407.071,91.935 408.036,91.935 C409,91.935 409.649,91.546 409.649,90.869 C409.649,90.25 409.231,89.847 407.69,89.847 L404.953,89.847 L405.457,83.955 L411.881,83.955 L411.881,86.159 L407.819,86.159 L407.69,87.628 L408.367,87.628 C411.348,87.628 412.515,89.011 412.515,90.797" fill="#FBFBFB"/>
      <path d="M374.966,76.783 L375.49,76.783 L375.49,78.274 C375.109,78.596 374.578,78.761 374.043,78.761 C372.868,78.761 372.006,77.935 372.006,76.804 C372.006,75.674 372.868,74.849 374.054,74.849 C374.66,74.849 375.174,75.051 375.524,75.438 L375.185,75.778 C374.868,75.472 374.507,75.335 374.076,75.335 C373.191,75.335 372.552,75.951 372.552,76.804 C372.552,77.646 373.191,78.274 374.07,78.274 C374.393,78.274 374.694,78.203 374.966,78.028 z" fill="#FBFBFB"/>
      <path d="M378.779,77.323 L377.955,75.449 L377.13,77.323 z M378.97,77.76 L376.938,77.76 L376.518,78.716 L375.955,78.716 L377.687,74.892 L378.227,74.892 L379.965,78.716 L379.391,78.716 z" fill="#FBFBFB"/>
      <path d="M381.1,75.368 L379.788,75.368 L379.788,74.893 L382.952,74.893 L382.952,75.368 L381.641,75.368 L381.641,78.717 L381.1,78.717 z" fill="#FBFBFB"/>
      <path d="M386.322,78.241 L386.322,78.716 L383.547,78.716 L383.547,74.892 L386.246,74.892 L386.246,75.367 L384.093,75.367 L384.093,76.542 L386.01,76.542 L386.01,77.006 L384.093,77.006 L384.093,78.241 z" fill="#FBFBFB"/>
      <path d="M386.856,78.279 L387.058,77.853 C387.342,78.11 387.829,78.296 388.32,78.296 C388.981,78.296 389.265,78.039 389.265,77.705 C389.265,76.771 386.949,77.362 386.949,75.941 C386.949,75.351 387.408,74.848 388.414,74.848 C388.861,74.848 389.326,74.968 389.642,75.187 L389.462,75.624 C389.128,75.411 388.752,75.313 388.414,75.313 C387.763,75.313 387.485,75.586 387.485,75.919 C387.485,76.853 389.8,76.269 389.8,77.673 C389.8,78.257 389.331,78.76 388.32,78.76 C387.736,78.76 387.163,78.563 386.856,78.279" fill="#FBFBFB"/>
      <path d="M428.63,147.467 L337.249,147.467 C333.164,147.467 329.853,144.155 329.853,140.07 L329.853,120.063 C329.853,115.977 333.164,112.666 337.249,112.666 L429.172,112.666 C433.257,112.666 436.568,115.977 436.568,120.062 L436.568,139.529 C436.568,143.913 433.014,147.467 428.63,147.467" fill="#EF686E"/>
      <path d="M352.282,118.893 L352.282,118.893 C351.666,119.539 351.689,120.563 352.336,121.18 L359.613,128.124 L339.351,128.6 C338.458,128.621 337.751,129.361 337.771,130.254 C337.793,131.147 338.534,131.854 339.427,131.834 L359.689,131.359 L352.745,138.637 C352.128,139.283 352.152,140.307 352.799,140.924 C353.444,141.54 354.469,141.517 355.085,140.87 L365.843,129.597 L354.569,118.839 C353.923,118.223 352.899,118.247 352.282,118.893" fill="#FBFBFB"/>
      <path d="M379.997,136.671 C379.997,138.385 378.643,140.027 375.603,140.027 C374.206,140.027 372.723,139.681 371.685,139.033 L372.723,136.887 C373.529,137.434 374.566,137.722 375.517,137.722 C376.482,137.722 377.116,137.348 377.116,136.671 C377.116,136.066 376.669,135.692 375.575,135.692 L374.379,135.692 L374.379,133.891 L376.18,131.946 L372.204,131.946 L372.204,129.742 L379.493,129.742 L379.493,131.528 L377.404,133.775 C379.103,134.136 379.997,135.231 379.997,136.671" fill="#FBFBFB"/>
      <path d="M386.783,136.714 C386.783,135.936 386.221,135.446 385.4,135.446 C384.579,135.446 384.003,135.965 384.003,136.729 C384.003,137.478 384.55,137.996 385.415,137.996 C386.221,137.996 386.783,137.506 386.783,136.714 M389.549,136.584 C389.549,138.688 387.791,140.027 385.587,140.027 C382.764,140.027 380.921,138.327 380.921,135.058 C380.921,131.543 383.095,129.541 386.278,129.541 C387.417,129.541 388.512,129.8 389.246,130.276 L388.209,132.32 C387.633,131.917 386.999,131.802 386.35,131.802 C384.91,131.802 383.945,132.609 383.802,134.15 C384.363,133.66 385.126,133.401 386.077,133.401 C387.978,133.401 389.549,134.654 389.549,136.584" fill="#FBFBFB"/>
      <path d="M390.545,134.669 L394.751,134.669 L394.751,136.772 L390.545,136.772 z" fill="#FBFBFB"/>
      <path d="M405.469,137.895 L403.971,137.895 L403.971,139.825 L401.191,139.825 L401.191,137.895 L395.861,137.895 L395.861,136.037 L400.384,129.742 L403.336,129.742 L399.232,135.634 L401.277,135.634 L401.277,133.919 L403.971,133.919 L403.971,135.634 L405.469,135.634 z" fill="#FBFBFB"/>
      <path d="M413.696,129.743 L413.696,131.529 L410.138,139.826 L407.027,139.826 L410.426,132.005 L407.776,132.005 L407.776,133.56 L405.342,133.56 L405.342,129.743 z" fill="#FBFBFB"/>
      <path d="M374.966,122.569 L375.49,122.569 L375.49,124.06 C375.109,124.382 374.578,124.547 374.043,124.547 C372.868,124.547 372.006,123.721 372.006,122.59 C372.006,121.46 372.868,120.635 374.054,120.635 C374.66,120.635 375.174,120.837 375.524,121.225 L375.185,121.564 C374.868,121.258 374.507,121.121 374.076,121.121 C373.191,121.121 372.552,121.738 372.552,122.59 C372.552,123.432 373.191,124.06 374.07,124.06 C374.393,124.06 374.694,123.989 374.966,123.814 z" fill="#FBFBFB"/>
      <path d="M378.779,123.109 L377.955,121.235 L377.13,123.109 z M378.97,123.546 L376.938,123.546 L376.518,124.502 L375.955,124.502 L377.687,120.678 L378.227,120.678 L379.965,124.502 L379.391,124.502 z" fill="#FBFBFB"/>
      <path d="M381.1,121.154 L379.788,121.154 L379.788,120.679 L382.952,120.679 L382.952,121.154 L381.641,121.154 L381.641,124.503 L381.1,124.503 z" fill="#FBFBFB"/>
      <path d="M386.322,124.027 L386.322,124.502 L383.547,124.502 L383.547,120.678 L386.246,120.678 L386.246,121.153 L384.093,121.153 L384.093,122.328 L386.01,122.328 L386.01,122.792 L384.093,122.792 L384.093,124.027 z" fill="#FBFBFB"/>
      <path d="M386.856,124.065 L387.058,123.639 C387.342,123.896 387.829,124.082 388.32,124.082 C388.981,124.082 389.265,123.825 389.265,123.491 C389.265,122.557 386.949,123.148 386.949,121.727 C386.949,121.137 387.408,120.634 388.414,120.634 C388.861,120.634 389.326,120.754 389.642,120.973 L389.462,121.41 C389.128,121.197 388.752,121.099 388.414,121.099 C387.763,121.099 387.485,121.372 387.485,121.705 C387.485,122.639 389.8,122.055 389.8,123.459 C389.8,124.043 389.331,124.546 388.32,124.546 C387.736,124.546 387.163,124.349 386.856,124.065" fill="#FBFBFB"/>
      <path d="M58.834,68.019 C58.69,68.019 58.574,59.574 58.574,49.158 C58.574,38.739 58.69,30.296 58.834,30.296 C58.978,30.296 59.094,38.739 59.094,49.158 C59.094,59.574 58.978,68.019 58.834,68.019" fill="#324148"/>
      <path d="M185.873,68.574 C185.729,68.574 185.613,60.004 185.613,49.435 C185.613,38.863 185.729,30.295 185.873,30.295 C186.017,30.295 186.134,38.863 186.134,49.435 C186.134,60.004 186.017,68.574 185.873,68.574" fill="#324148"/>
      <path d="M208.779,111.906 L40.15,111.906 C36.123,111.906 32.86,108.642 32.86,104.616 L32.86,74.17 C32.86,70.143 36.123,66.879 40.15,66.879 L208.779,66.879 C212.805,66.879 216.07,70.143 216.07,74.17 L216.07,104.616 C216.07,108.642 212.805,111.906 208.779,111.906" fill="#EF686E"/>
      <path d="M93.729,93.589 C96.132,93.589 97.683,92.064 97.683,89.893 C97.683,87.721 96.132,86.196 93.729,86.196 L91.053,86.196 L91.053,93.589 z M90.097,85.369 L93.781,85.369 C96.675,85.369 98.626,87.23 98.626,89.893 C98.626,92.555 96.675,94.416 93.781,94.416 L90.097,94.416 z" fill="#FBFBFB"/>
      <path d="M100.813,90.616 L105.634,90.616 C105.518,89.285 104.548,88.354 103.217,88.354 C101.899,88.354 100.93,89.285 100.813,90.616 M106.5,91.301 L100.813,91.301 C100.917,92.723 102.002,93.666 103.489,93.666 C104.316,93.666 105.052,93.369 105.57,92.774 L106.086,93.369 C105.479,94.093 104.536,94.48 103.462,94.48 C101.343,94.48 99.896,93.033 99.896,91.017 C99.896,89.001 101.304,87.566 103.217,87.566 C105.13,87.566 106.513,88.975 106.513,91.017 C106.513,91.095 106.5,91.198 106.5,91.301" fill="#FBFBFB"/>
      <path d="M114.359,91.017 C114.359,89.44 113.261,88.368 111.827,88.368 C110.379,88.368 109.294,89.44 109.294,91.017 C109.294,92.606 110.379,93.666 111.827,93.666 C113.261,93.666 114.359,92.606 114.359,91.017 M115.277,91.017 C115.277,93.085 113.83,94.48 111.891,94.48 C110.805,94.48 109.875,94.015 109.306,93.137 L109.306,96.923 L108.388,96.923 L108.388,87.618 L109.267,87.618 L109.267,88.962 C109.823,88.057 110.766,87.566 111.891,87.566 C113.83,87.566 115.277,88.962 115.277,91.017" fill="#FBFBFB"/>
      <path d="M121.327,92.374 L121.327,91.263 L119.194,91.263 C117.876,91.263 117.449,91.779 117.449,92.478 C117.449,93.266 118.083,93.757 119.168,93.757 C120.202,93.757 120.965,93.266 121.327,92.374 M122.244,90.203 L122.244,94.416 L121.365,94.416 L121.365,93.356 C120.952,94.054 120.15,94.48 119.026,94.48 C117.488,94.48 116.545,93.679 116.545,92.503 C116.545,91.457 117.217,90.578 119.168,90.578 L121.327,90.578 L121.327,90.164 C121.327,89.001 120.668,88.368 119.401,88.368 C118.522,88.368 117.695,88.678 117.14,89.169 L116.725,88.484 C117.411,87.902 118.419,87.566 119.491,87.566 C121.249,87.566 122.244,88.445 122.244,90.203" fill="#FBFBFB"/>
      <path d="M128.165,87.566 L128.165,88.458 C128.088,88.458 128.01,88.444 127.945,88.444 C126.524,88.444 125.658,89.349 125.658,90.952 L125.658,94.416 L124.74,94.416 L124.74,87.617 L125.619,87.617 L125.619,88.949 C126.046,88.044 126.912,87.566 128.165,87.566" fill="#FBFBFB"/>
      <path d="M133.698,94.002 C133.337,94.325 132.794,94.48 132.263,94.48 C130.984,94.48 130.273,93.756 130.273,92.503 L130.273,88.393 L129.058,88.393 L129.058,87.617 L130.273,87.617 L130.273,86.131 L131.191,86.131 L131.191,87.617 L133.259,87.617 L133.259,88.393 L131.191,88.393 L131.191,92.451 C131.191,93.252 131.604,93.692 132.367,93.692 C132.742,93.692 133.117,93.576 133.375,93.343 z" fill="#FBFBFB"/>
      <path d="M141.492,87.617 L141.492,94.415 L140.613,94.415 L140.613,93.175 C140.136,94.002 139.257,94.48 138.171,94.48 C136.439,94.48 135.302,93.511 135.302,91.559 L135.302,87.617 L136.22,87.617 L136.22,91.469 C136.22,92.916 136.969,93.653 138.262,93.653 C139.682,93.653 140.575,92.735 140.575,91.184 L140.575,87.617 z" fill="#FBFBFB"/>
      <path d="M147.49,87.566 L147.49,88.458 C147.413,88.458 147.336,88.444 147.27,88.444 C145.849,88.444 144.983,89.349 144.983,90.952 L144.983,94.416 L144.065,94.416 L144.065,87.617 L144.944,87.617 L144.944,88.949 C145.371,88.044 146.237,87.566 147.49,87.566" fill="#FBFBFB"/>
      <path d="M149.313,90.616 L154.134,90.616 C154.018,89.285 153.048,88.354 151.717,88.354 C150.399,88.354 149.43,89.285 149.313,90.616 M155,91.301 L149.313,91.301 C149.417,92.723 150.502,93.666 151.989,93.666 C152.816,93.666 153.552,93.369 154.07,92.774 L154.586,93.369 C153.979,94.093 153.036,94.48 151.962,94.48 C149.843,94.48 148.396,93.033 148.396,91.017 C148.396,89.001 149.804,87.566 151.717,87.566 C153.63,87.566 155.013,88.975 155.013,91.017 C155.013,91.095 155,91.198 155,91.301" fill="#FBFBFB"/>
      <path d="M155.945,93.64 L156.359,92.916 C156.901,93.343 157.819,93.679 158.775,93.679 C160.068,93.679 160.597,93.239 160.597,92.567 C160.597,90.797 156.191,92.192 156.191,89.504 C156.191,88.393 157.147,87.566 158.879,87.566 C159.758,87.566 160.715,87.811 161.283,88.199 L160.882,88.935 C160.288,88.522 159.577,88.354 158.879,88.354 C157.651,88.354 157.108,88.832 157.108,89.478 C157.108,91.314 161.515,89.931 161.515,92.541 C161.515,93.718 160.481,94.48 158.711,94.48 C157.587,94.48 156.501,94.118 155.945,93.64" fill="#FBFBFB"/>
      <path d="M184.923,85.235 L184.923,85.235 C184.538,85.615 184.536,86.235 184.915,86.619 L189.197,90.944 L176.935,90.881 C176.395,90.879 175.954,91.315 175.951,91.855 C175.949,92.396 176.385,92.836 176.924,92.839 L189.187,92.902 L184.861,97.183 C184.478,97.563 184.474,98.183 184.855,98.567 C185.234,98.951 185.855,98.954 186.238,98.574 L192.939,91.942 L186.307,85.242 C185.926,84.858 185.307,84.855 184.923,85.235" fill="#FBFBFB"/>
      <path d="M72.075,99.221 L46.755,99.221 L46.755,97.382 L72.075,97.382 z" fill="#FBFBFB"/>
      <path d="M74.839,81.568 C74.702,81.37 74.526,81.214 74.328,81.082 C74.326,81.081 71.743,80.161 70.301,80.161 C68.106,80.161 66.464,81.019 64.634,82.104 C63.963,82.502 63.19,82.96 62.368,83.448 C62.36,83.453 62.351,83.455 62.341,83.453 L54.389,82.087 C54.261,82.065 54.13,82.082 54.012,82.135 L52.747,82.709 C52.438,82.849 52.432,83.285 52.737,83.433 L57.999,85.973 C58.026,85.986 58.027,86.024 58,86.039 C55.062,87.782 52.543,89.276 52.543,89.276 C52.516,89.292 52.49,89.309 52.463,89.324 C51.436,89.916 50.221,90.103 49.057,89.839 L46.244,89.202 C46.102,89.17 45.951,89.169 45.813,89.218 C45.299,89.402 45.172,90.06 45.568,90.423 L48.728,93.321 C49.222,93.776 49.935,93.904 50.556,93.651 L52.127,93.014 L61.057,89.254 L73.676,83.942 C74.927,83.434 75.412,82.404 74.839,81.568" fill="#FBFBFB"/>
      <path d="M63.439,89.393 L59.694,90.959 L58.986,94.057 C58.945,94.238 59.081,94.411 59.267,94.413 L59.635,94.416 C60.138,94.42 60.608,94.165 60.878,93.74 z" fill="#FBFBFB"/>
    </g>
  </g>
</svg>
