<?xml version="1.0" encoding="UTF-8"?>
<!DOCTYPE svg PUBLIC "-//W3C//DTD SVG 1.1//EN" "http://www.w3.org/Graphics/SVG/1.1/DTD/svg11.dtd">
<svg version="1.1" xmlns="http://www.w3.org/2000/svg" xmlns:xlink="http://www.w3.org/1999/xlink" x="0" y="0" width="500" height="428" viewBox="0, 0, 500, 428">
  <g id="Background">
    <rect x="0" y="0" width="500" height="428" fill="#FFFFFF"/>
  </g>
  <defs>
    <clipPath id="Clip_1">
      <path d="M0.06,0.439 L500,0.439 L500,428 L0.06,428 z"/>
    </clipPath>
  </defs>
  <g id="Layer_1">
    <path d="M0.06,382.837 L500,382.837 L500,383.087 L0.06,383.087 z" fill="#E4E4DE"/>
    <path d="M393.105,399.059 L409.667,399.059 L409.667,399.309 L393.105,399.309 z" fill="#E4E4DE"/>
    <path d="M329.193,395.425 L367,395.425 L367,395.675 L329.193,395.675 z" fill="#E4E4DE"/>
    <path d="M265,389.647 L334.081,389.647 L334.081,389.897 L265,389.897 z" fill="#E4E4DE"/>
    <path d="M52.459,391.328 L65.152,391.328 L65.152,391.578 L52.459,391.578 z" fill="#E4E4DE"/>
    <path d="M74.056,391.328 L110.889,391.328 L110.889,391.578 L74.056,391.578 z" fill="#E4E4DE"/>
    <path d="M152.333,395.55 L211.862,395.55 L211.862,395.8 L152.333,395.8 z" fill="#E4E4DE"/>
    <path d="M43.915,55.642 C40.905,55.642 38.457,58.09 38.457,61.099 L38.457,332.531 C38.457,335.541 40.905,337.989 43.915,337.989 L237.014,337.989 C240.022,337.989 242.471,335.541 242.471,332.531 L242.471,61.099 C242.471,58.09 240.022,55.642 237.014,55.642 L43.915,55.642 M237.014,338.239 L43.915,338.239 C40.767,338.239 38.207,335.678 38.207,332.531 L38.207,61.099 C38.207,57.952 40.767,55.392 43.915,55.392 L237.014,55.392 C240.16,55.392 242.721,57.952 242.721,61.099 L242.721,332.531 C242.721,335.678 240.16,338.239 237.014,338.239" fill="#E4E4DE"/>
    <path d="M260.212,55.642 C257.203,55.642 254.755,58.09 254.755,61.099 L254.755,332.531 C254.755,335.541 257.203,337.989 260.212,337.989 L453.311,337.989 C456.32,337.989 458.769,335.541 458.769,332.531 L458.769,61.099 C458.769,58.09 456.32,55.642 453.311,55.642 L260.212,55.642 M453.311,338.239 L260.212,338.239 C257.065,338.239 254.505,335.678 254.505,332.531 L254.505,61.099 C254.505,57.952 257.065,55.392 260.212,55.392 L453.311,55.392 C456.458,55.392 459.019,57.952 459.019,61.099 L459.019,332.531 C459.019,335.678 456.458,338.239 453.311,338.239" fill="#E4E4DE"/>
    <path d="M233.904,0.439 L255.459,0.439 L255.459,382.837 L233.904,382.837 z" fill="#F1F0EC"/>
    <path d="M255.459,0.439 L258.486,0.439 L258.486,382.837 L255.459,382.837 z" fill="#D4D5CF"/>
    <path d="M139.167,344.322 L25.5,344.322 C25.5,337.327 31.171,331.655 38.167,331.655 L139.167,331.655 L139.167,344.322" fill="#DDDED8"/>
    <path d="M147.5,344.322 L97.834,344.322 C97.834,337.327 103.505,331.655 110.5,331.655 L147.5,331.655 L147.5,344.322" fill="#D4D5CF"/>
    <path d="M218.587,344.322 L104.92,344.322 C104.92,337.327 110.591,331.655 117.587,331.655 L218.587,331.655 L218.587,344.322" fill="#DDDED8"/>
    <path d="M226.92,344.322 L177.254,344.322 C177.254,337.327 182.925,331.655 189.92,331.655 L226.92,331.655 L226.92,344.322" fill="#D4D5CF"/>
    <path d="M379.957,344.322 L266.29,344.322 C266.29,337.327 271.961,331.655 278.957,331.655 L379.957,331.655 L379.957,344.322" fill="#DDDED8"/>
    <path d="M388.29,344.322 L338.624,344.322 C338.624,337.327 344.294,331.655 351.29,331.655 L388.29,331.655 L388.29,344.322" fill="#D4D5CF"/>
    <path d="M428.42,304.772 L378.08,304.772 L385.167,382.837 L421.333,382.837 L428.42,304.772" fill="#E4E4DE"/>
    <path d="M402.75,317.787 C401.825,285.493 409.384,218.62 422.886,191.416 L423.781,191.86 C410.817,217.981 402.817,285.194 403.75,317.758 L402.75,317.787" fill="#E4E4DE"/>
    <path d="M407.747,254.197 C407.747,254.197 404.444,222.931 392.222,213.337 C385.667,233.077 399.088,239.883 407.747,254.197" fill="#E4E4DE"/>
    <path d="M392.473,214.19 C388.141,228.043 394.011,235.357 400.79,243.805 C402.863,246.388 404.994,249.043 406.963,252.024 C405.954,244.871 402.097,222.47 392.473,214.19 z M407.747,254.697 C407.576,254.697 407.412,254.608 407.319,254.456 C405.066,250.731 402.496,247.528 400.01,244.431 C392.935,235.615 386.825,228.002 391.748,213.179 C391.799,213.025 391.922,212.905 392.078,212.858 C392.233,212.812 392.403,212.843 392.531,212.944 C404.778,222.557 408.108,252.859 408.244,254.144 C408.269,254.377 408.128,254.596 407.907,254.671 L407.747,254.697" fill="#E4E4DE"/>
    <path d="M409.565,242.353 C409.565,242.353 422.531,213.443 437.2,208.319 C437.017,229.118 422.389,231.61 409.565,242.353" fill="#E4E4DE"/>
    <path d="M436.687,209.046 C424.87,213.792 414.125,234.131 410.959,240.585 C413.688,238.464 416.451,236.665 419.139,234.915 C428.339,228.924 436.305,223.738 436.687,209.046 z M409.565,242.853 C409.459,242.853 409.353,242.819 409.263,242.752 C409.078,242.611 409.013,242.36 409.109,242.148 C409.642,240.96 422.332,212.983 437.035,207.847 C437.188,207.793 437.358,207.817 437.491,207.913 C437.623,208.008 437.701,208.161 437.7,208.324 C437.561,224.112 429.276,229.507 419.684,235.753 C416.456,237.855 413.117,240.029 409.886,242.736 C409.793,242.814 409.679,242.853 409.565,242.853" fill="#E4E4DE"/>
    <path d="M403.539,298.21 C403.539,298.21 398.529,254.707 383.356,243.225 C375.757,267.536 392.627,280.873 403.539,298.21" fill="#E4E4DE"/>
    <path d="M383.681,244.267 C378.341,262.569 387.153,274.479 396.474,287.077 C398.516,289.836 400.612,292.669 402.57,295.596 C401.206,286.146 395.818,254.471 383.681,244.267 z M403.539,298.823 C403.333,298.823 403.135,298.719 403.021,298.537 C400.688,294.831 398.045,291.259 395.49,287.805 C385.833,274.754 376.713,262.427 382.772,243.042 C382.832,242.852 382.98,242.702 383.169,242.642 C383.361,242.581 383.567,242.616 383.726,242.736 C398.932,254.244 403.941,296.354 404.147,298.141 C404.18,298.424 404.011,298.693 403.742,298.788 L403.539,298.823" fill="#E4E4DE"/>
    <path d="M405.287,274.757 C405.287,274.757 422.205,243.774 440.054,237.183 C440.28,262.653 420.755,261.326 405.287,274.757" fill="#E4E4DE"/>
    <path d="M439.441,238.08 C425.486,243.84 412.068,264.548 407.484,272.192 C411.583,269.097 415.827,266.86 419.955,264.684 C430.308,259.227 439.274,254.499 439.441,238.08 z M405.287,275.369 C405.151,275.369 405.016,275.324 404.903,275.234 C404.672,275.048 404.608,274.724 404.75,274.463 C405.445,273.19 421.982,243.203 439.842,236.608 C440.03,236.54 440.239,236.565 440.402,236.679 C440.566,236.792 440.665,236.978 440.667,237.177 C440.825,255.066 431.418,260.025 420.526,265.768 C415.58,268.375 410.466,271.071 405.688,275.219 C405.574,275.319 405.43,275.369 405.287,275.369" fill="#E4E4DE"/>
    <path d="M413.255,222.571 C413.255,222.571 410.951,200.76 402.424,194.067 C397.851,207.838 407.214,212.586 413.255,222.571" fill="#E4E4DE"/>
    <path d="M402.599,194.662 C399.577,204.326 403.672,209.429 408.401,215.322 C409.847,217.124 411.334,218.976 412.708,221.055 C412.004,216.065 409.313,200.438 402.599,194.662 z M413.255,222.92 C413.135,222.92 413.021,222.858 412.957,222.752 C411.385,220.153 409.591,217.919 407.857,215.758 C402.922,209.608 398.659,204.297 402.093,193.957 C402.129,193.849 402.215,193.766 402.324,193.733 C402.432,193.699 402.551,193.722 402.64,193.793 C411.184,200.5 413.507,221.638 413.602,222.535 C413.619,222.697 413.521,222.85 413.366,222.902 L413.255,222.92" fill="#E4E4DE"/>
    <path d="M417.222,207.883 C417.222,207.883 426.267,187.715 436.5,184.141 C436.372,198.65 426.167,200.389 417.222,207.883" fill="#E4E4DE"/>
    <path d="M436.143,184.648 C427.898,187.959 420.403,202.148 418.194,206.65 C420.098,205.171 422.025,203.916 423.9,202.694 C430.318,198.515 435.875,194.896 436.143,184.648 z M417.222,208.232 L417.011,208.162 C416.882,208.064 416.837,207.889 416.903,207.741 C417.275,206.912 426.128,187.395 436.385,183.812 C436.493,183.775 436.611,183.792 436.703,183.857 C436.795,183.924 436.85,184.031 436.849,184.144 C436.751,195.158 430.973,198.921 424.281,203.279 C422.029,204.746 419.7,206.262 417.446,208.151 L417.222,208.232" fill="#E4E4DE"/>
    <path d="M156.04,195.119 C146.533,194.452 142.421,195.564 138.31,187.007 C134.198,178.451 119.864,173.871 115.196,181.328 C110.529,188.785 108.862,193.972 98.084,189.545 C87.305,185.118 83.749,188.34 82.193,194.23 C80.638,200.12 55.969,197.28 63.191,205.7 L154.534,205.7 C154.534,205.7 165.547,195.786 156.04,195.119" fill="#F1F0EC"/>
    <path d="M438.801,149.405 C433.422,149.028 431.096,149.657 428.769,144.816 C426.443,139.975 418.333,137.384 415.692,141.603 C413.051,145.822 412.108,148.756 406.01,146.252 C399.911,143.747 397.899,145.57 397.02,148.902 C396.139,152.235 382.182,150.628 386.268,155.392 L437.948,155.392 C437.948,155.392 444.18,149.783 438.801,149.405" fill="#F1F0EC"/>
    <g clip-path="url(#Clip_1)">
      <path d="M374.417,32.157 C371.749,27.822 364.122,26.376 357.297,29.749 C350.472,33.121 355.121,11.997 342.363,15.537 C324.137,20.596 329.213,35.711 321.619,34.324 C314.025,32.938 291.766,36.654 303.535,44.201 L370.888,44.201 C370.888,44.201 377.084,36.493 374.417,32.157" fill="#F1F0EC"/>
      <path d="M443.889,416.677 C443.889,422.931 357.083,428.001 250,428.001 C142.918,428.001 56.111,422.931 56.111,416.677 C56.111,410.424 142.918,405.354 250,405.354 C357.083,405.354 443.889,410.424 443.889,416.677" fill="#F1F0EC"/>
    </g>
    <path d="M81.464,0.439 L83.193,0.439 L83.193,125.963 L81.464,125.963 z" fill="#3769A4"/>
    <path d="M183.085,0.439 L184.814,0.439 L184.814,125.963 L183.085,125.963 z" fill="#3769A4"/>
    <path d="M61.797,79.228 L204.481,79.228 L204.481,111.688 L61.797,111.688 z" fill="#3769A4"/>
    <path d="M61.797,79.228 L204.481,79.228 L204.481,111.688 L61.797,111.688 z M145.012,100.199 L196.302,100.199 L196.302,90.717 L145.012,90.717 z M115.286,100.199 L137.253,100.199 L137.253,90.717 L115.286,90.717 z" fill="#648FBD"/>
    <path d="M79.294,93.013 L75.757,89.476 L70.869,89.476 L75.124,93.731 L66.553,93.731 L66.553,97.185 L75.128,97.185 L70.869,101.438 L75.757,101.438 L79.294,97.901 L81.733,95.452 L79.294,93.013" fill="#FFFFFE"/>
    <path d="M145.012,90.717 L196.302,90.717 L196.302,100.199 L145.012,100.199 z" fill="#4571AA"/>
    <path d="M115.286,90.717 L137.253,90.717 L137.253,100.199 L115.286,100.199 z" fill="#4571AA"/>
    <path d="M87.865,85.785 L107.212,85.785 L107.212,105.131 L87.865,105.131 z" fill="#FFFFFE"/>
    <path d="M105.025,90.719 L104.542,90.717 L104.36,90.723 L104.347,90.723 L104.345,90.724 C103.946,90.749 103.555,90.854 103.196,91.034 L100.204,92.535 L94.58,91.598 C94.103,91.537 93.619,91.616 93.186,91.824 L92.653,92.081 L96.319,94.645 L92.91,96.247 L90.654,95.596 L89.65,96.08 L92.294,98.083 L104.197,92.356 C104.435,92.241 104.655,92.096 104.854,91.925 L104.892,91.892 L104.89,91.892 C105.066,91.734 105.225,91.557 105.361,91.36 C105.547,91.089 105.354,90.719 105.025,90.719" fill="#132529"/>
    <path d="M89.188,101.194 L105.89,101.194 L105.89,102.819 L89.188,102.819 z" fill="#132529"/>
    <path d="M61.797,121.337 L204.481,121.337 L204.481,153.796 L61.797,153.796 z" fill="#3769A4"/>
    <path d="M61.797,121.337 L204.481,121.337 L204.481,153.796 L61.797,153.796 z M145.012,142.307 L196.302,142.307 L196.302,132.826 L145.012,132.826 z M115.286,142.307 L137.253,142.307 L137.253,132.826 L115.286,132.826 z" fill="#648FBD"/>
    <path d="M68.993,135.121 L72.53,131.585 L77.418,131.585 L73.163,135.84 L81.733,135.84 L81.733,139.293 L73.159,139.293 L77.418,143.546 L72.53,143.546 L68.993,140.009 L66.553,137.561 L68.993,135.121" fill="#FFFFFE"/>
    <path d="M145.012,132.826 L196.302,132.826 L196.302,142.307 L145.012,142.307 z" fill="#4571AA"/>
    <path d="M115.286,132.826 L137.253,132.826 L137.253,142.307 L115.286,142.307 z" fill="#4571AA"/>
    <path d="M87.865,127.893 L107.212,127.893 L107.212,147.24 L87.865,147.24 z" fill="#FFFFFE"/>
    <path d="M105.025,132.827 L104.542,132.826 L104.36,132.831 L104.347,132.832 L104.345,132.833 C103.946,132.858 103.555,132.963 103.196,133.143 L100.204,134.644 L94.58,133.706 C94.103,133.646 93.619,133.724 93.186,133.933 L92.653,134.189 L96.319,136.753 L92.91,138.356 L90.654,137.705 L89.65,138.188 L92.294,140.191 L97.848,137.519 L101.033,135.986 L104.197,134.464 C104.435,134.35 104.655,134.205 104.854,134.033 L104.892,134 L104.89,134.001 C105.066,133.843 105.225,133.665 105.361,133.469 C105.547,133.197 105.354,132.828 105.025,132.827" fill="#132529"/>
    <path d="M89.188,143.303 L105.89,143.303 L105.89,144.927 L89.188,144.927 z" fill="#132529"/>
    <path d="M327.039,110.966 L318.907,106.107 L323.64,105.18 L336.238,107.678 L327.039,110.966" fill="#3769A4"/>
    <path d="M326.143,110.431 L318.907,106.107 L323.64,105.18 L332.223,106.882 L326.645,108.147 L326.143,110.431" fill="#28609E"/>
    <path d="M383.285,96.072 L373.387,83.653 L377.047,82.936 C380.017,82.355 383.091,82.645 385.9,83.771 L405.037,91.447 L383.285,96.072" fill="#3769A4"/>
    <path d="M382.765,95.42 L373.387,83.653 L377.047,82.936 C378.045,82.741 379.054,82.644 380.061,82.644 C382.052,82.644 384.035,83.023 385.9,83.771 L403.32,90.758 L382.765,95.42" fill="#28609E"/>
    <path d="M435.143,87.165 L432.205,86.391 C429.357,85.641 426.374,85.57 423.494,86.183 L326.645,108.147 L325.728,112.322 L329.507,115.017 L427.495,95.83 C430.705,95.201 433.695,93.746 436.171,91.61 C437.742,90.254 437.149,87.693 435.143,87.165" fill="#3769A4"/>
    <path d="M333.634,127.076 L333.525,126.561 L375.92,117.529 L376.029,118.043 L333.634,127.076" fill="#3769A4"/>
    <path d="M342.918,96.707 L342.809,96.192 L370.442,90.304 L370.552,90.819 L342.918,96.707" fill="#3769A4"/>
    <path d="M314.355,131.183 L314.246,130.668 L325.606,128.248 L325.715,128.763 L314.355,131.183" fill="#3769A4"/>
    <path d="M328.665,115.097 C328.476,115.097 328.288,115.084 328.102,115.059 C328.386,114.891 328.689,114.759 329.011,114.663 L329.504,115.015 C329.222,115.07 328.942,115.097 328.665,115.097" fill="#ADB5B2"/>
    <path d="M329.504,115.015 L329.011,114.663 C329.12,114.631 329.232,114.603 329.346,114.579 L384.012,102.933 L383.936,104.356 L329.51,115.014 C329.508,115.014 329.506,115.014 329.504,115.015 M405.792,100.076 L406.915,98.055 L425.064,94.188 C426.353,93.913 427.664,93.776 428.973,93.776 C430.144,93.776 431.315,93.886 432.468,94.105 C432.35,94.164 432.226,94.224 432.107,94.283 C430.65,94.993 429.098,95.513 427.491,95.827 L405.792,100.076" fill="#28609E"/>
    <path d="M325.728,112.322 L323.268,122.711 L328,121.784 L336.614,110.535 L325.728,112.322" fill="#3769A4"/>
    <path d="M326.645,108.147 L320.898,97.757 L325.315,96.893 L338.037,105.917 L326.645,108.147" fill="#3769A4"/>
    <path d="M384.143,100.46 L382.549,130.439 C387.086,129.551 391.001,126.706 393.246,122.664 L408.195,95.75 L384.143,100.46" fill="#3769A4"/>
    <path d="M358.505,106.544 L358.052,104.336 L359.262,104.087 L359.715,106.296 L358.505,106.544" fill="#86ABCF"/>
    <path d="M360.947,106.043 L360.494,103.835 L361.704,103.587 L362.157,105.795 L360.947,106.043" fill="#86ABCF"/>
    <path d="M363.388,105.543 L362.935,103.335 L364.146,103.086 L364.598,105.295 L363.388,105.543" fill="#86ABCF"/>
    <path d="M365.83,105.043 L365.377,102.834 L366.587,102.586 L367.04,104.794 L365.83,105.043" fill="#86ABCF"/>
    <path d="M368.271,104.542 L367.819,102.334 L369.028,102.085 L369.481,104.294 L368.271,104.542" fill="#86ABCF"/>
    <path d="M370.713,104.042 L370.26,101.833 L371.47,101.585 L371.923,103.793 L370.713,104.042" fill="#86ABCF"/>
    <path d="M373.154,103.541 L372.702,101.333 L373.912,101.085 L374.364,103.293 L373.154,103.541" fill="#86ABCF"/>
    <path d="M375.596,103.04 L375.144,100.832 L376.353,100.584 L376.806,102.792 L375.596,103.04" fill="#86ABCF"/>
    <path d="M378.038,102.54 L377.585,100.331 L378.795,100.083 L379.247,102.292 L378.038,102.54" fill="#86ABCF"/>
    <path d="M380.479,102.039 L380.026,99.831 L381.236,99.583 L381.689,101.791 L380.479,102.039" fill="#86ABCF"/>
    <path d="M382.921,101.539 L382.468,99.33 L383.678,99.082 L384.106,101.17 L384.099,101.297 L382.921,101.539" fill="#86ABCF"/>
    <path d="M384.099,101.297 L384.106,101.17 L384.13,101.291 L384.099,101.297" fill="#86ABCF"/>
    <path d="M385.201,100.252 L384.91,98.83 L386.12,98.582 L386.413,100.015 L385.201,100.252" fill="#86ABCF"/>
    <path d="M385.362,101.038 L385.201,100.252 L386.413,100.015 L386.572,100.79 L385.362,101.038" fill="#86ABCF"/>
    <path d="M387.647,99.773 L387.351,98.329 L388.561,98.081 L388.859,99.536 L387.647,99.773" fill="#86ABCF"/>
    <path d="M387.804,100.538 L387.647,99.773 L388.859,99.536 L389.014,100.289 L387.804,100.538" fill="#86ABCF"/>
    <path d="M390.093,99.294 L389.793,97.829 L391.002,97.581 L391.305,99.057 L390.093,99.294" fill="#86ABCF"/>
    <path d="M390.246,100.037 L390.093,99.294 L391.305,99.057 L391.455,99.789 L390.246,100.037" fill="#86ABCF"/>
    <path d="M392.539,98.815 L392.234,97.328 L393.444,97.08 L393.751,98.578 L392.539,98.815" fill="#86ABCF"/>
    <path d="M392.687,99.537 L392.539,98.815 L393.751,98.578 L393.897,99.289 L392.687,99.537" fill="#86ABCF"/>
    <path d="M394.985,98.336 L394.676,96.828 L395.886,96.58 L396.197,98.099 L394.985,98.336" fill="#86ABCF"/>
    <path d="M395.128,99.036 L394.985,98.336 L396.197,98.099 L396.338,98.788 L395.128,99.036" fill="#86ABCF"/>
    <path d="M397.431,97.857 L397.118,96.327 L398.327,96.079 L398.643,97.62 L397.431,97.857" fill="#86ABCF"/>
    <path d="M397.57,98.535 L397.431,97.857 L398.643,97.62 L398.78,98.287 L397.57,98.535" fill="#86ABCF"/>
    <path d="M399.877,97.378 L399.559,95.826 L400.769,95.579 L401.089,97.141 L399.877,97.378" fill="#86ABCF"/>
    <path d="M400.012,98.035 L399.877,97.378 L401.089,97.141 L401.222,97.787 L400.012,98.035" fill="#86ABCF"/>
    <path d="M402.323,96.899 L402,95.326 L403.21,95.078 L403.535,96.662 L402.323,96.899" fill="#86ABCF"/>
    <path d="M402.453,97.534 L402.323,96.899 L403.535,96.662 L403.663,97.286 L402.453,97.534" fill="#86ABCF"/>
    <path d="M404.769,96.42 L404.442,94.825 L405.652,94.577 L405.981,96.183 L404.769,96.42" fill="#86ABCF"/>
    <path d="M404.895,97.034 L404.769,96.42 L405.981,96.183 L406.104,96.786 L404.895,97.034" fill="#86ABCF"/>
    <path d="M407.814,96.435 L408.195,95.75 L407.215,95.941 L406.884,94.325 L408.094,94.077 L408.546,96.285 L407.814,96.435" fill="#86ABCF"/>
    <path d="M407.336,96.533 L407.215,95.941 L408.195,95.75 L407.814,96.435 L407.336,96.533" fill="#86ABCF"/>
    <path d="M409.778,96.033 L409.325,93.824 L410.535,93.576 L410.988,95.785 L409.778,96.033" fill="#86ABCF"/>
    <path d="M431.51,86.222 C431.341,86.184 431.171,86.149 431,86.115 L431.004,86.115 C431.174,86.148 431.342,86.184 431.51,86.222" fill="#FFFFFE"/>
    <path d="M426.887,89.179 C426.364,89.179 425.893,88.804 425.789,88.272 C425.671,87.669 426.066,87.082 426.669,86.963 L431,86.115 C431.171,86.149 431.341,86.184 431.51,86.222 C431.742,86.274 431.973,86.331 432.202,86.391 L435.144,87.167 C435.394,87.232 435.613,87.326 435.818,87.452 L427.099,89.159 C427.028,89.173 426.957,89.179 426.887,89.179" fill="#86ABCF"/>
    <path d="M278.049,135.331 C290.278,161.76 320.256,176.141 289.005,190.748 C257.755,205.354 254.668,165.344 255.578,153.157 C256.489,140.969 271.441,121.049 278.049,135.331" fill="#132529"/>
    <path d="M301.335,172.9 L301.282,172.895 C301.145,172.865 301.057,172.73 301.086,172.592 C302.703,164.991 297.037,159.366 290.477,152.853 C285.587,147.999 280.045,142.497 277.12,135.428 C275.686,131.962 273.75,130.458 271.373,130.946 C264.983,132.267 257.793,146.94 257.926,155.517 C257.928,155.657 257.815,155.773 257.675,155.775 C257.531,155.767 257.418,155.665 257.416,155.524 C257.282,146.782 264.688,131.808 271.27,130.447 C273.093,130.069 275.671,130.594 277.591,135.233 C280.477,142.208 285.98,147.671 290.835,152.492 C297.502,159.109 303.259,164.825 301.584,172.699 C301.559,172.818 301.453,172.9 301.335,172.9" fill="#132529"/>
    <path d="M254.345,144.501 C257.42,146.586 262.699,138.55 265.237,128.033 C258.889,122.8 255.031,123.613 252.49,128.19 C249.527,133.528 250.826,142.114 254.345,144.501" fill="#132529"/>
    <path d="M243.829,310.136 C243.829,310.136 286.741,301.395 317.991,308.713 C308.82,294.972 269.932,234.096 269.932,234.096 L251.445,256.079 L243.829,310.136" fill="#3769A4"/>
    <path d="M243.829,310.136 L243.829,310.136 M243.829,310.136 C243.829,310.136 245.432,308.024 248.442,306.002 C248.564,307.087 248.697,308.164 248.842,309.235 C245.659,309.763 243.829,310.136 243.829,310.136 M317.991,308.713 L317.991,308.713 M317.991,308.713 C308.769,306.554 298.532,305.793 288.682,305.793 C282.294,305.793 276.067,306.113 270.388,306.579 C269.648,286.382 272.55,262.856 275.286,245.891 C276.919,262.525 279.876,281.715 285.162,302.033 C307.914,302.162 317.991,308.713 317.991,308.713" fill="#275E9C"/>
    <path d="M257.187,177.773 C256.519,180.709 255.77,183.374 254.918,186.132 C254.073,188.864 253.139,191.578 252.098,194.278 C251.049,196.976 249.927,199.671 248.596,202.345 C247.274,205.027 245.826,207.701 243.899,210.378 C243.666,210.712 243.419,211.047 243.153,211.385 C242.886,211.727 242.677,212.02 242.256,212.494 C241.881,212.936 241.5,213.342 241.122,213.686 C240.74,214.062 240.36,214.39 239.983,214.688 C238.465,215.913 236.965,216.777 235.501,217.539 C232.577,219.055 229.708,220 226.865,220.847 C224.012,221.644 221.183,222.269 218.343,222.732 C215.488,223.198 212.706,223.541 209.749,223.685 L208.414,216.745 C213.356,214.838 218.451,212.893 223.051,210.653 C225.349,209.554 227.565,208.338 229.396,207.077 C230.304,206.449 231.1,205.776 231.655,205.19 C231.805,205.044 231.93,204.905 232.017,204.778 C232.138,204.646 232.206,204.531 232.257,204.434 L232.6,203.894 C232.741,203.676 232.88,203.444 233.017,203.197 C234.12,201.277 235.158,199.02 236.111,196.697 C237.051,194.358 237.947,191.929 238.772,189.454 C239.604,186.981 240.394,184.466 241.151,181.935 C241.9,179.429 242.655,176.798 243.325,174.397 L257.187,177.773" fill="#3769A4"/>
    <path d="M209.994,217.724 L201.921,218.143 L206.499,226.421 C206.499,226.421 211.666,224.581 212.934,219.505 L209.994,217.724" fill="#F0B1AD"/>
    <path d="M195.969,223.428 L202.501,228.565 L206.499,226.421 L201.921,218.143 L195.969,223.428" fill="#F0B1AD"/>
    <path d="M276.726,409.129 L267.684,409.983 L265.822,389.171 L274.863,388.316 L276.726,409.129" fill="#F0B1AD"/>
    <path d="M347.588,378.36 L341.021,384.526 L326.843,368.944 L333.41,362.777 L347.588,378.36" fill="#F0B1AD"/>
    <path d="M339.222,382.924 L344.157,374.032 C344.336,373.708 344.707,373.57 345.048,373.7 L352.646,376.592 C353.434,376.892 353.776,377.903 353.349,378.642 C351.575,381.712 350.563,383.106 348.393,387.016 C347.058,389.421 344.458,394.939 342.614,398.261 C340.811,401.511 337.387,399.937 337.857,398.389 C339.966,391.446 339.569,387.581 338.974,384.517 C338.867,383.964 338.958,383.397 339.222,382.924" fill="#132529"/>
    <path d="M266.483,407.281 L277.222,407.281 C277.612,407.281 277.965,407.553 278.07,407.934 L280.405,416.431 C280.647,417.312 279.999,418.123 279.095,418.13 C275.311,418.165 273.517,418.148 268.794,418.148 C265.889,418.148 258.372,418.148 254.36,418.148 C250.436,418.148 249.615,414.181 251.239,413.822 C258.519,412.21 262.716,409.989 264.962,407.869 C265.367,407.487 265.911,407.281 266.483,407.281" fill="#132529"/>
    <path d="M275.904,399.904 L275.9,399.904 L275.593,396.473 L275.597,396.473 L275.904,399.904" fill="#BEBFBB"/>
    <path d="M275.9,399.904 L266.782,399.904 L266.497,396.707 L275.593,396.473 L275.9,399.904" fill="#CC908A"/>
    <path d="M329.79,372.183 L326.845,368.949 L326.846,368.948 L329.79,372.183 M340.722,370.814 L333.414,362.782 L333.415,362.78 L340.727,370.809 L340.722,370.814" fill="#BEBFBB"/>
    <path d="M334.157,376.978 L329.79,372.183 L326.846,368.948 L333.414,362.782 L340.722,370.814 L334.157,376.978" fill="#CC908A"/>
    <path d="M243.142,178.122 C243.741,184.919 246.003,198.408 252.759,225.148 L289.387,221.98 C287.627,208.251 286.8,199.36 290.222,173.45 C290.714,169.721 287.943,166.335 284.188,166.128 C281.586,165.985 278.51,165.903 275.419,166.021 C269.23,166.257 264.163,166.498 258.787,167.461 C255.469,168.055 251.908,168.922 249.06,169.677 C245.29,170.675 242.8,174.237 243.142,178.122" fill="#132529"/>
    <path d="M272.151,147.436 C271.565,152.878 271.366,162.774 275.419,166.021 C275.419,166.021 275.742,171.643 264.322,173.48 C256.306,172.797 258.787,167.461 258.787,167.461 C264.631,165.519 264.094,161.105 262.695,157.037 L272.151,147.436" fill="#F0B1AD"/>
    <path d="M263.467,159.939 C263.456,159.867 263.444,159.794 263.431,159.722 C263.444,159.794 263.457,159.867 263.469,159.939 C263.469,159.939 263.468,159.939 263.467,159.939 M262.699,157.032 L262.699,157.032 L263.304,156.418 L262.699,157.032" fill="#09181B"/>
    <path d="M263.469,159.939 C263.457,159.867 263.444,159.794 263.431,159.722 C263.272,158.828 263.009,157.922 262.699,157.032 L268.296,151.353 C268.538,151.891 269.031,153.465 269.013,154.666 C268.978,157.073 265.72,159.412 263.469,159.939" fill="#CC908A"/>
    <path d="M276.938,138.933 C274.668,147.626 273.894,151.354 268.562,154.996 C260.542,160.475 250.361,155.786 249.988,146.59 C249.653,138.314 253.421,125.488 262.723,123.68 C271.886,121.898 279.208,130.241 276.938,138.933" fill="#F0B1AD"/>
    <path d="M257.923,122.985 C254.233,126.693 261.944,136.06 274.739,144.325 C284.646,138.324 281.251,130.285 276.721,125.728 C272.278,121.259 262.147,118.741 257.923,122.985" fill="#132529"/>
    <path d="M261.375,132.619 L261.195,132.544 C257.115,128.471 255.526,125.382 256.471,123.362 C257.861,120.389 264.136,120.925 264.402,120.949 C264.542,120.962 264.646,121.086 264.633,121.226 C264.62,121.366 264.501,121.468 264.356,121.457 C264.294,121.452 258.171,120.929 256.932,123.578 C256.1,125.358 257.699,128.334 261.556,132.184 C261.655,132.283 261.655,132.444 261.556,132.544 L261.375,132.619" fill="#132529"/>
    <path d="M277.657,146.78 C276.802,148.435 275.262,149.541 273.796,149.981 C271.592,150.645 270.444,148.684 271.019,146.58 C271.536,144.686 273.306,142.058 275.537,142.315 C277.735,142.569 278.634,144.888 277.657,146.78" fill="#F0B1AD"/>
    <path d="M252.759,225.148 C252.759,225.148 242.18,279.93 250.453,318.579 C255.993,344.464 263.098,396.794 263.098,396.794 L278.721,396.393 C278.721,396.393 274.659,341.518 271.532,319.937 C266.183,283.021 279.581,222.828 279.581,222.828 L252.759,225.148" fill="#132529"/>
    <path d="M270.392,292.668 C259.406,273.001 264.607,246.63 267.049,236.218 L274.861,248.538 C272.873,261.313 270.896,277.292 270.392,292.668" fill="#09181B"/>
    <path d="M261.723,397.399 L280.13,397.349 L280.074,391.186 L260.582,390.931 L261.723,397.399" fill="#3769A4"/>
    <path d="M260.768,224.564 C260.768,224.564 268.038,282.703 283.797,314.443 C296.526,340.08 330.492,376.575 330.492,376.575 L339.177,367.628 C339.177,367.628 316.234,327.966 306.774,310.936 C283.577,269.178 302.535,237.313 289.387,221.98 L260.768,224.564" fill="#132529"/>
    <path d="M329.612,377.772 L340.819,366.848 L337.102,361.789 L325.217,373.652 L329.612,377.772" fill="#3769A4"/>
    <path d="M289.75,219.783 L291.685,222.919 C291.835,223.162 291.557,223.448 291.133,223.484 L252.72,226.807 C252.39,226.835 252.103,226.697 252.064,226.491 L251.45,223.241 C251.407,223.016 251.677,222.799 252.038,222.768 L289.129,219.56 C289.402,219.536 289.653,219.627 289.75,219.783" fill="#FFFFFE"/>
    <path d="M285.127,224.361 L286.121,224.275 C286.318,224.258 286.46,224.144 286.436,224.02 L285.602,219.801 C285.577,219.677 285.396,219.59 285.197,219.607 L284.204,219.693 C284.006,219.71 283.864,219.825 283.889,219.949 L284.723,224.168 C284.748,224.292 284.929,224.378 285.127,224.361" fill="#132529"/>
    <path d="M255.543,226.92 L256.536,226.835 C256.734,226.817 256.876,226.702 256.852,226.579 L256.017,222.359 C255.993,222.236 255.811,222.149 255.613,222.166 L254.62,222.252 C254.422,222.269 254.28,222.384 254.305,222.507 L255.139,226.727 C255.163,226.85 255.345,226.938 255.543,226.92" fill="#132529"/>
    <path d="M270.335,225.641 L271.329,225.555 C271.526,225.538 271.668,225.423 271.644,225.299 L270.81,221.08 C270.785,220.957 270.603,220.87 270.405,220.887 L269.412,220.973 C269.214,220.99 269.072,221.105 269.097,221.228 L269.931,225.447 C269.956,225.571 270.137,225.658 270.335,225.641" fill="#132529"/>
    <path d="M262.224,138.635 C262.083,139.352 261.589,139.857 261.121,139.766 C260.652,139.673 260.387,139.018 260.527,138.302 C260.668,137.585 261.162,137.079 261.63,137.171 C262.099,137.263 262.364,137.918 262.224,138.635" fill="#132529"/>
    <path d="M254.125,137.043 C253.985,137.759 253.491,138.266 253.022,138.173 C252.554,138.082 252.289,137.426 252.43,136.71 C252.57,135.993 253.064,135.487 253.533,135.579 C254.001,135.671 254.266,136.327 254.125,137.043" fill="#132529"/>
    <path d="M253.731,135.66 L252.108,134.825 C252.108,134.825 252.727,136.343 253.731,135.66" fill="#132529"/>
    <path d="M256.91,138.829 C256.91,138.829 255.087,141.674 253.457,142.899 C254.229,143.968 255.917,143.88 255.917,143.88 L256.91,138.829" fill="#E67C77"/>
    <path d="M259.229,147.295 C261.766,147.295 263.24,145.815 263.311,145.742 L263.308,145.49 L263.055,145.493 C263.036,145.513 261.111,147.434 257.959,146.813 C257.859,146.791 257.769,146.857 257.75,146.953 C257.73,147.05 257.794,147.143 257.89,147.162 C258.364,147.255 258.812,147.295 259.229,147.295" fill="#132529"/>
    <path d="M267.088,135.857 L267.272,135.805 C267.44,135.703 267.494,135.485 267.392,135.316 C266.185,133.319 264.246,133.231 264.164,133.229 C263.956,133.236 263.804,133.376 263.796,133.571 C263.788,133.767 263.941,133.933 264.138,133.941 C264.205,133.943 265.781,134.029 266.782,135.685 C266.849,135.795 266.967,135.857 267.088,135.857" fill="#132529"/>
    <path d="M251.877,132.987 L252.05,132.942 C253.755,131.99 255.196,132.727 255.21,132.734 C255.385,132.826 255.601,132.758 255.691,132.585 C255.783,132.411 255.716,132.195 255.542,132.104 C255.469,132.064 253.74,131.181 251.703,132.319 C251.531,132.416 251.47,132.633 251.565,132.804 C251.631,132.921 251.752,132.987 251.877,132.987" fill="#132529"/>
    <path d="M274.861,165 C274.861,165 273.364,174.654 273.494,190.393 C273.579,200.797 270.933,247.345 285.162,302.033 C307.914,302.162 317.991,308.713 317.991,308.713 C317.991,308.713 295.929,219.679 293.137,173.657 C292.858,169.071 289.219,165.422 284.634,165.134 C280.113,164.851 274.861,165 274.861,165" fill="#3769A4"/>
    <path d="M297.865,240.838 L297.687,240.789 C291.294,236.975 284.751,226.277 284.476,225.824 C284.376,225.66 284.428,225.445 284.592,225.346 C284.758,225.246 284.971,225.298 285.07,225.462 C285.137,225.572 291.8,236.466 298.043,240.191 C298.208,240.29 298.263,240.503 298.164,240.668 C298.099,240.778 297.983,240.838 297.865,240.838" fill="#FFFFFE"/>
    <path d="M296.758,205.11 C296.756,205.107 296.754,205.104 296.752,205.101 C295.842,199.122 295.05,193.326 294.422,187.851 C294.426,187.848 294.429,187.846 294.433,187.844 C295.05,193.324 295.85,199.125 296.758,205.11" fill="#BEBFBB"/>
    <path d="M294.422,187.851 C294.408,187.728 294.393,187.601 294.379,187.478 L294.394,187.491 C294.407,187.608 294.42,187.726 294.433,187.844 C294.429,187.846 294.426,187.848 294.422,187.851" fill="#09181B"/>
    <path d="M296.752,205.101 C290.234,194.982 287.006,181.01 287.006,181.01 L294.379,187.478 C294.393,187.601 294.408,187.728 294.422,187.851 C295.05,193.326 295.842,199.122 296.752,205.101" fill="#275E9C"/>
    <path d="M257.668,166.771 C257.668,166.771 256.854,176.409 256.854,201.199 C256.854,225.118 259.807,259.574 255.264,302.954 C247.905,304.766 243.829,310.136 243.829,310.136 C243.829,310.136 249.968,231.38 242.913,178.009 C242.304,173.402 245.716,169.222 250.284,168.363 C254.723,167.529 257.668,166.771 257.668,166.771" fill="#3769A4"/>
    <path d="M328.841,246.079 L306.806,251.814 L304.768,243.982 L326.802,238.247 L328.841,246.079" fill="#3769A4"/>
    <path d="M328.141,243.391 L328.093,243.207 L328.141,243.391" fill="#FFFFFE"/>
    <path d="M306.426,250.352 L306.059,248.942 L328.093,243.207 L328.141,243.391 L328.46,244.617 L306.426,250.352" fill="#C8DAE8"/>
    <path d="M327.796,246.427 L308.891,250.384 L306.94,241.063 L325.846,237.106 L327.796,246.427" fill="#132529"/>
    <path d="M309.423,235.293 L307.861,243.225 L315.346,241.335 C315.346,241.335 315.854,235.879 312.777,233.714 L309.423,235.293" fill="#F0B1AD"/>
    <path d="M309.765,247.36 L317.292,246.627 L315.346,241.335 L307.861,243.225 L309.765,247.36" fill="#F0B1AD"/>
    <path d="M290.388,167.781 C292.582,170.047 294.53,172.279 296.506,174.616 C298.45,176.953 300.365,179.319 302.182,181.803 C304.015,184.278 305.786,186.809 307.456,189.522 C308.289,190.893 309.121,192.245 309.877,193.752 L310.453,194.857 L311.003,196.042 L311.543,197.234 C311.722,197.625 311.906,198.134 312.082,198.58 C312.734,200.376 313.142,202.009 313.476,203.626 C313.808,205.234 314.072,206.805 314.292,208.357 C314.719,211.462 314.972,214.512 315.146,217.547 C315.466,223.625 315.46,229.594 315.025,235.661 L307.969,236.035 C306.832,230.329 305.764,224.545 304.575,218.926 C303.984,216.113 303.347,213.331 302.644,210.647 C302.297,209.306 301.919,207.998 301.511,206.753 C301.098,205.519 300.665,204.319 300.215,203.379 C300.09,203.151 300.018,202.967 299.86,202.702 L299.405,201.92 L298.949,201.135 L298.42,200.326 C297.742,199.255 296.943,198.146 296.17,197.047 C294.579,194.845 292.81,192.654 291.042,190.46 C287.482,186.107 283.629,181.719 279.952,177.509 L290.388,167.781" fill="#3769A4"/>
    <path d="M339.477,384.459 C338.979,386.049 338.335,387.102 337.725,387.308 C337.461,387.396 337.199,387.335 336.918,387.124 C336.757,387.002 336.747,386.883 336.753,386.804 C336.811,386.109 338.492,385.017 339.477,384.459 z M337.49,387.704 C337.606,387.704 337.723,387.684 337.839,387.646 C338.913,387.283 339.618,385.295 339.942,384.143 L339.883,383.956 L339.688,383.937 C339.361,384.108 336.492,385.642 336.398,386.775 C336.384,386.948 336.426,387.198 336.704,387.408 C336.964,387.605 337.228,387.704 337.49,387.704" fill="#3769A4"/>
    <path d="M339.378,384.094 C338.406,384.508 336.521,384.763 335.989,384.314 C335.901,384.238 335.813,384.116 335.927,383.839 C336.012,383.627 336.163,383.485 336.384,383.408 C337.218,383.11 338.732,383.776 339.378,384.094 z M337.046,384.907 C338.065,384.907 339.314,384.583 339.864,384.247 L339.949,384.091 L339.857,383.939 C339.761,383.886 337.488,382.636 336.266,383.071 C335.946,383.184 335.721,383.397 335.596,383.705 C335.401,384.185 335.614,384.463 335.759,384.585 C336.03,384.816 336.506,384.907 337.046,384.907" fill="#3769A4"/>
    <path d="M264.037,408.408 C262.88,408.624 260.741,408.906 259.86,408.24 C259.616,408.055 259.489,407.813 259.47,407.499 C259.462,407.354 259.519,407.296 259.568,407.263 C260.116,406.89 262.419,407.696 264.037,408.408 z M261.718,409.019 C262.75,409.019 263.871,408.819 264.65,408.647 L264.788,408.492 L264.687,408.312 C264.245,408.104 260.35,406.304 259.368,406.967 C259.243,407.052 259.097,407.216 259.114,407.519 C259.139,407.938 259.317,408.276 259.645,408.524 C260.131,408.892 260.896,409.019 261.718,409.019" fill="#3769A4"/>
    <path d="M261.94,405.017 C263.291,405.017 264.079,407.252 264.339,408.148 C263.07,407.483 261.315,405.881 261.399,405.255 C261.406,405.21 261.425,405.069 261.792,405.025 L261.94,405.017 z M264.611,408.651 L264.726,408.608 L264.785,408.433 C264.748,408.269 263.863,404.427 261.749,404.672 C261.22,404.735 261.075,404.998 261.046,405.207 C260.914,406.186 263.371,408.158 264.543,408.637 L264.611,408.651" fill="#3769A4"/>
    <path d="M261.83,137.252 L260.206,136.417 C260.206,136.417 260.825,137.935 261.83,137.252" fill="#132529"/>
    <path d="M277.531,164.755 L274.753,164.826 C274.595,164.83 274.461,164.94 274.43,165.095 C274.081,166.848 272.214,177.375 273.43,196.295 C274.619,190.776 277.527,179.099 278.759,176.552 C277.697,175.745 275.999,174.386 275.999,174.386 L279.116,172.391 L277.874,165.038 C277.845,164.872 277.699,164.751 277.531,164.755" fill="#3769A4"/>
    <path d="M273.43,196.295 C273.138,191.75 273.024,187.689 273.024,184.118 C273.023,172.824 274.165,166.427 274.43,165.095 C274.461,164.94 274.595,164.83 274.753,164.826 L277.531,164.755 C277.534,164.755 277.537,164.755 277.54,164.755 C277.704,164.755 277.846,164.875 277.874,165.038 L279.116,172.391 L275.999,174.386 C275.999,174.386 277.697,175.745 278.759,176.552 C277.527,179.099 274.619,190.774 273.43,196.294 C273.43,196.295 273.43,196.295 273.43,196.295" fill="#5580B3"/>
    <path d="M254.623,167.058 L257.915,166.484 C257.915,166.484 258.202,175.887 256.864,196.692 C255.675,191.172 253.198,179.736 253.057,176.552 C254.119,175.745 255.817,174.386 255.817,174.386 L252.7,172.391 L254.623,167.058" fill="#3769A4"/>
    <path d="M256.864,196.692 C255.675,191.172 253.198,179.736 253.057,176.552 C254.119,175.745 255.817,174.386 255.817,174.386 L252.7,172.391 L254.623,167.058 L257.915,166.484 C257.915,166.484 257.941,167.335 257.94,169.09 C257.94,173.172 257.799,182.145 256.864,196.692" fill="#5580B3"/>
    <path d="M212.153,295.966 L174.446,295.966 C165.392,295.966 157.984,303.374 157.984,312.428 L157.984,391.849 C157.984,400.902 165.392,408.311 174.446,408.311 L212.153,408.311 C221.207,408.311 228.614,400.902 228.614,391.849 L228.614,312.428 C228.614,303.374 221.207,295.966 212.153,295.966" fill="#132529"/>
    <path d="M198.272,221.256 L188.326,221.256 C182.216,221.256 177.217,226.255 177.217,232.365 L177.217,339.723 C177.217,345.833 182.216,350.832 188.326,350.832 L198.272,350.832 C204.382,350.832 209.381,345.833 209.381,339.723 L209.381,232.365 C209.381,226.255 204.382,221.256 198.272,221.256 M198.272,223.052 C203.407,223.052 207.585,227.23 207.585,232.365 L207.585,339.723 C207.585,344.858 203.407,349.035 198.272,349.035 L188.326,349.035 C183.191,349.035 179.013,344.858 179.013,339.723 L179.013,232.365 C179.013,227.23 183.191,223.052 188.326,223.052 L198.272,223.052" fill="#132529"/>
    <path d="M218.974,409.583 C218.974,411.897 217.097,413.774 214.782,413.774 C212.467,413.774 210.591,411.897 210.591,409.583 C210.591,407.268 212.467,405.391 214.782,405.391 C217.097,405.391 218.974,407.268 218.974,409.583" fill="#132529"/>
    <path d="M204.226,409.583 C204.226,411.897 202.35,413.774 200.035,413.774 C197.72,413.774 195.843,411.897 195.843,409.583 C195.843,407.268 197.72,405.391 200.035,405.391 C202.35,405.391 204.226,407.268 204.226,409.583" fill="#132529"/>
    <path d="M180.11,409.583 C180.11,411.897 178.234,413.774 175.919,413.774 C173.604,413.774 171.728,411.897 171.728,409.583 C171.728,407.268 173.604,405.391 175.919,405.391 C178.234,405.391 180.11,407.268 180.11,409.583" fill="#132529"/>
    <path d="M165.363,409.583 C165.363,411.897 163.486,413.774 161.171,413.774 C158.856,413.774 156.98,411.897 156.98,409.583 C156.98,407.268 158.856,405.391 161.171,405.391 C163.486,405.391 165.363,407.268 165.363,409.583" fill="#132529"/>
    <path d="M201.508,295.966 L163.801,295.966 C154.747,295.966 147.339,303.374 147.339,312.428 L147.339,391.849 C147.339,400.902 154.747,408.311 163.801,408.311 L201.508,408.311 C210.562,408.311 217.97,400.902 217.97,391.849 L217.97,312.428 C217.97,303.374 210.562,295.966 201.508,295.966" fill="#3769A4"/>
    <path d="M201.508,408.311 L163.801,408.311 C161.669,408.311 159.629,407.9 157.755,407.154 C151.669,404.731 147.339,398.771 147.339,391.849 L147.339,312.428 C147.339,303.374 154.747,295.966 163.801,295.966 L201.508,295.966 C210.562,295.966 217.97,303.374 217.97,312.428 L217.97,391.849 C217.97,400.902 210.562,408.311 201.508,408.311" fill="#5580B3"/>
    <path d="M194.069,306.433 L163.389,306.433 C156.022,306.433 149.994,312.46 149.994,319.827 L149.994,384.449 C149.994,391.816 156.022,397.843 163.389,397.843 L194.069,397.843 C201.437,397.843 207.464,391.816 207.464,384.449 L207.464,319.827 C207.464,312.46 201.437,306.433 194.069,306.433" fill="#3769A4"/>
    <path d="M159.726,313.95 C158.117,313.95 156.809,315.259 156.809,316.868 L156.809,387.409 C156.809,389.018 158.117,390.326 159.726,390.326 C161.335,390.326 162.644,389.018 162.644,387.409 L162.644,316.868 C162.644,315.259 161.335,313.95 159.726,313.95 z M159.726,391.225 C157.622,391.225 155.91,389.513 155.91,387.409 L155.91,316.868 C155.91,314.764 157.622,313.052 159.726,313.052 C161.83,313.052 163.542,314.764 163.542,316.868 L163.542,387.409 C163.542,389.513 161.83,391.225 159.726,391.225" fill="#FFFFFE"/>
    <path d="M197.861,313.95 C196.252,313.95 194.943,315.259 194.943,316.868 L194.943,387.409 C194.943,389.018 196.252,390.326 197.861,390.326 C199.47,390.326 200.779,389.018 200.779,387.409 L200.779,316.868 C200.779,315.259 199.47,313.95 197.861,313.95 z M197.861,391.225 C195.757,391.225 194.045,389.513 194.045,387.409 L194.045,316.868 C194.045,314.764 195.757,313.052 197.861,313.052 C199.965,313.052 201.677,314.764 201.677,316.868 L201.677,387.409 C201.677,389.513 199.965,391.225 197.861,391.225" fill="#FFFFFE"/>
    <path d="M185.149,313.95 C183.541,313.95 182.232,315.259 182.232,316.868 L182.232,387.409 C182.232,389.018 183.541,390.326 185.149,390.326 C186.758,390.326 188.067,389.018 188.067,387.409 L188.067,316.868 C188.067,315.259 186.758,313.95 185.149,313.95 z M185.149,391.225 C183.045,391.225 181.333,389.513 181.333,387.409 L181.333,316.868 C181.333,314.764 183.045,313.052 185.149,313.052 C187.253,313.052 188.965,314.764 188.965,316.868 L188.965,387.409 C188.965,389.513 187.253,391.225 185.149,391.225" fill="#FFFFFE"/>
    <path d="M172.438,313.95 C170.829,313.95 169.52,315.259 169.52,316.868 L169.52,387.409 C169.52,389.018 170.829,390.326 172.438,390.326 C174.046,390.326 175.355,389.018 175.355,387.409 L175.355,316.868 C175.355,315.259 174.046,313.95 172.438,313.95 z M172.438,391.225 C170.333,391.225 168.622,389.513 168.622,387.409 L168.622,316.868 C168.622,314.764 170.333,313.052 172.438,313.052 C174.542,313.052 176.253,314.764 176.253,316.868 L176.253,387.409 C176.253,389.513 174.542,391.225 172.438,391.225" fill="#FFFFFE"/>
  </g>
</svg>
