<?xml version="1.0" encoding="UTF-8"?>
<!DOCTYPE svg PUBLIC "-//W3C//DTD SVG 1.1//EN" "http://www.w3.org/Graphics/SVG/1.1/DTD/svg11.dtd">
<svg version="1.1" xmlns="http://www.w3.org/2000/svg" xmlns:xlink="http://www.w3.org/1999/xlink" x="0" y="0" width="1400" height="980" viewBox="0, 0, 1400, 980">
  <g id="Background">
    <rect x="0" y="0" width="1400" height="980" fill="#FFFFFF"/>
  </g>
  <defs>
    <linearGradient id="Gradient_1" gradientUnits="userSpaceOnUse" x1="700.5" y1="1693.568" x2="700.5" y2="0">
      <stop offset="0" stop-color="#FFBDCA"/>
      <stop offset="0.497" stop-color="#FFBDCA"/>
      <stop offset="1" stop-color="#91A8C4"/>
    </linearGradient>
    <linearGradient id="Gradient_2" gradientUnits="userSpaceOnUse" x1="700.5" y1="1105.055" x2="700.5" y2="813">
      <stop offset="0" stop-color="#706894"/>
      <stop offset="0.291" stop-color="#706894"/>
      <stop offset="0.867" stop-color="#212B40"/>
      <stop offset="1" stop-color="#212B40"/>
    </linearGradient>
    <clipPath id="Clip_1">
      <path d="M0,0 L1400,0 L1400,980 L0,980 z"/>
    </clipPath>
    <linearGradient id="Gradient_3" gradientUnits="userSpaceOnUse" x1="1251" y1="129" x2="1163" y2="129">
      <stop offset="0" stop-color="#E8E7D4" stop-opacity="0.37"/>
      <stop offset="1" stop-color="#000000"/>
    </linearGradient>
    <clipPath id="Clip_2">
      <path d="M1201,95 L1213.67,95 L1213.67,107.669 L1201,107.669 z"/>
    </clipPath>
    <clipPath id="Clip_3">
      <path d="M1222.78,115.164 L1235.89,115.164 L1235.89,132.169 L1222.78,132.169 z"/>
    </clipPath>
    <clipPath id="Clip_4">
      <path d="M1194.78,99.164 L1207.89,99.164 L1207.89,116.169 L1194.78,116.169 z"/>
    </clipPath>
    <clipPath id="Clip_5">
      <path d="M1194.91,132.066 L1207.76,132.066 L1207.76,149.268 L1194.91,149.268 z"/>
    </clipPath>
    <clipPath id="Clip_6">
      <path d="M1216,145 L1228.67,145 L1228.67,159.669 L1216,159.669 z"/>
    </clipPath>
  </defs>
  <g id="Layer_1">
    <path d="M0,980 L1400,980 L1400,0 L0,0 z" fill="url(#Gradient_1)"/>
    <path d="M0,980 L1400,980 L1400,813 L0,813 z" fill="url(#Gradient_2)"/>
    <g clip-path="url(#Clip_1)">
      <path d="M1343,695 L1343,819 L1317,819 L1317,623.731 L1278,525 L1239,623.731 L1239,819 L1217,819 L1217,654 L1165,654 L1165,759 L1120,759 L1120,819 L1097,819 L1097,637 L1003,637 L1003,819 L975,819 L975,740 L897,740 L897,657 L847,657 L847,819 L835,819 L835,730 L743,730 L743,819 L727,819 L727,757 L701,757 L701,689 L659,689 L659,819 L635,819 L635,713 L619,713 L619,672 L616.965,672 C616.236,657 603.394,644.058 586.5,644.058 C569.606,644.058 555.821,657 555.038,672 L553,672 L553,713 L539,713 L539,819 L517,819 L517,740 L455,740 L455,657 L453.742,657 L416,601.115 L378.258,657 L377,657 L377,819 L353,819 L353,721 L319,721 L319,819 L287,819 L287,763.445 L287,740.16 L287,678 L237,678 L237,740 L187,740 L187,819 L171,819 L171,601 L151,601 L151,550 L87,550 L87,601 L68,601 L68,819 L54,819 L54,764 L0,764 L0,819.331 L0,834.234 L0,851 L1402,851 L1402,819.331 L1402,695 z" fill="#192333"/>
      <path d="M1084.036,353.986 L1074.074,360.6 L994.144,341.304 C994.383,340.43 994.522,339.521 994.522,338.577 C994.522,332.499 989.266,327.571 982.783,327.571 C977.315,327.571 972.736,331.078 971.429,335.82 L885.173,314.996 C884.925,308.529 879.618,303.359 873.09,303.359 C868.56,303.359 864.62,305.85 862.543,309.533 L761.082,285.038 C761.082,285.038 761.002,233.357 756.796,199.949 C751.612,158.779 726.528,160.474 722.495,161.02 C718.47,160.474 693.445,158.779 688.262,199.949 C684.055,233.357 684.044,285.038 684.044,285.038 L582.583,309.533 C580.507,305.85 576.565,303.359 572.036,303.359 C565.508,303.359 560.202,308.529 559.953,314.996 L473.697,335.82 C472.39,331.078 467.811,327.571 462.345,327.571 C455.86,327.571 450.605,332.499 450.605,338.577 C450.605,339.521 450.744,340.43 450.983,341.304 L371.053,360.6 L361.09,353.986 C361.09,353.986 360.777,358.695 361.09,360.222 C361.925,364.273 365.035,369.394 373.105,371.595 C381.176,373.796 675.262,359.855 675.262,359.855 C675.262,359.855 677.59,353.236 679.596,352.518 C681.608,351.798 687.633,362.056 687.633,362.056 L687.982,389.938 L696.411,397.275 L611.294,412.907 L609.089,419 L615.326,419 L682.462,415.515 L683.929,419 L714.379,419 C714.379,419 718,429.426 722,431.065 L722,431.302 C722,431.302 722.318,431.275 722.501,431.236 C722.684,431.275 723,431.302 723,431.302 L723,431.066 C727,429.431 730.748,419 730.748,419 L761.198,419 L762.665,415.515 L829.801,419 L836.038,419 L833.832,412.907 L748.715,397.111 L757.144,389.856 L757.495,362.016 C757.495,362.016 763.517,351.778 765.531,352.498 C767.537,353.215 769.865,359.844 769.865,359.844 C769.865,359.844 1063.951,373.791 1072.02,371.59 C1080.092,369.389 1083.203,364.27 1084.036,360.22 C1084.35,358.693 1084.036,353.986 1084.036,353.986" fill="#192333"/>
    </g>
    <path d="M1163,129 C1163,153.301 1182.699,173 1207,173 L1207,173 C1231.301,173 1251,153.301 1251,129 L1251,129 C1251,104.7 1231.301,85 1207,85 L1207,85 C1182.699,85 1163,104.7 1163,129 z" fill="url(#Gradient_3)"/>
    <g>
      <g clip-path="url(#Clip_2)" opacity="0.7">
        <path d="M1213.669,101.335 C1213.669,104.834 1210.834,107.669 1207.335,107.669 C1203.836,107.669 1201,104.834 1201,101.335 C1201,97.836 1203.836,95.001 1207.335,95.001 C1210.834,95.001 1213.669,97.836 1213.669,101.335" fill="#E2E0D2"/>
      </g>
      <g clip-path="url(#Clip_3)" opacity="0.7">
        <path d="M1235.405,121.86 C1236.771,126.447 1235.161,130.975 1231.807,131.973 C1228.454,132.972 1224.629,130.062 1223.263,125.474 C1221.897,120.886 1223.509,116.359 1226.862,115.36 C1230.216,114.362 1234.04,117.272 1235.405,121.86" fill="#E2E0D2"/>
      </g>
      <g clip-path="url(#Clip_4)" opacity="0.7">
        <path d="M1207.405,105.86 C1208.771,110.447 1207.161,114.975 1203.807,115.973 C1200.454,116.972 1196.629,114.062 1195.263,109.474 C1193.897,104.886 1195.509,100.359 1198.862,99.36 C1202.216,98.362 1206.04,101.272 1207.405,105.86" fill="#E2E0D2"/>
      </g>
      <g clip-path="url(#Clip_5)" opacity="0.7">
        <path d="M1207.564,141.816 C1206.696,146.523 1203.205,149.824 1199.763,149.19 C1196.323,148.555 1194.237,144.225 1195.106,139.518 C1195.974,134.81 1199.467,131.509 1202.908,132.144 C1206.348,132.778 1208.433,137.108 1207.564,141.816" fill="#E2E0D2"/>
      </g>
      <g clip-path="url(#Clip_6)" opacity="0.7">
        <path d="M1228.669,151.335 C1228.669,154.834 1224.834,159.669 1221.335,159.669 C1217.836,159.669 1216,154.834 1216,151.335 C1216,147.836 1218.836,145.001 1222.335,145.001 C1225.834,145.001 1228.669,147.836 1228.669,151.335" fill="#E2E0D2"/>
      </g>
    </g>
  </g>
</svg>
