<?xml version="1.0" encoding="UTF-8"?>
<!DOCTYPE svg PUBLIC "-//W3C//DTD SVG 1.1//EN" "http://www.w3.org/Graphics/SVG/1.1/DTD/svg11.dtd">
<svg version="1.1" xmlns="http://www.w3.org/2000/svg" xmlns:xlink="http://www.w3.org/1999/xlink" x="0" y="0" width="876.333" height="876.333" viewBox="0, 0, 876.333, 876.333">
  <g id="Background">
    <rect x="0" y="0" width="876.333" height="876.333" fill="#FFFFFF"/>
  </g>
  <g id="layer1">
    <path d="M860.667,438.167 C860.667,671.507 671.507,860.667 438.167,860.667 C204.826,860.667 15.667,671.507 15.667,438.167 C15.667,204.826 204.826,15.667 438.167,15.667 C671.507,15.667 860.667,204.826 860.667,438.167 z" fill="#006F0F" id="path10"/>
    <path d="M833.167,438.167 C833.167,656.319 656.319,833.167 438.167,833.167 C220.014,833.167 43.167,656.319 43.167,438.167 C43.167,220.014 220.014,43.167 438.167,43.167 C656.319,43.167 833.167,220.014 833.167,438.167 z" fill="#FFFFFF" id="path10"/>
    <path d="M438.167,402.751 C418.608,402.751 402.751,418.607 402.751,438.166 C402.751,457.725 418.608,473.581 438.167,473.581 C457.725,473.581 473.582,457.725 473.582,438.166 C473.582,418.607 457.725,402.751 438.167,402.751 M644.869,494.073 C611.101,519.068 574.268,537.114 534.717,548.105 C565.252,521.256 584.559,481.925 584.559,438.166 C584.559,394.407 565.252,355.077 534.72,328.228 C574.505,339.284 611.538,357.477 645.464,382.704 C673.815,403.787 693.242,425.113 703.846,438.173 C693.182,451.313 673.576,472.824 644.869,494.073 M438.167,537.337 C383.483,537.337 338.995,492.85 338.995,438.166 C338.995,383.482 383.483,338.995 438.167,338.995 C492.85,338.995 537.338,383.482 537.338,438.166 C537.338,492.85 492.85,537.337 438.167,537.337 M231.276,493.928 C202.685,472.733 183.13,451.274 172.479,438.154 C193.389,412.397 248.816,354.473 341.32,328.49 C310.957,355.333 291.775,394.548 291.775,438.166 C291.775,481.924 311.08,521.254 341.614,548.103 C301.99,537.091 265.094,518.997 231.276,493.928 M753.169,425.42 C752.117,423.78 726.825,384.821 675.404,346.131 C645.34,323.51 612.36,305.482 577.381,292.55 C533.719,276.405 486.88,268.219 438.167,268.219 C389.454,268.219 342.617,276.405 298.955,292.55 C263.976,305.482 230.996,323.51 200.932,346.131 C149.51,384.821 124.216,423.779 123.164,425.419 C120.725,429.222 119.428,433.647 119.428,438.166 C119.428,443.952 119.428,449.417 143.045,476.542 C159.739,495.716 179.759,514.273 200.94,530.208 C248.182,565.749 327.686,608.114 438.167,608.114 C548.65,608.114 628.154,565.751 675.393,530.213 C696.575,514.277 716.595,495.72 733.289,476.547 C756.905,449.422 756.905,443.954 756.905,438.166 C756.905,433.647 755.608,429.224 753.169,425.42" fill="#006F0F" id="path24"/>
  </g>
</svg>
