<?xml version="1.0" encoding="UTF-8"?>
<!DOCTYPE svg PUBLIC "-//W3C//DTD SVG 1.1//EN" "http://www.w3.org/Graphics/SVG/1.1/DTD/svg11.dtd">
<svg version="1.1" xmlns="http://www.w3.org/2000/svg" xmlns:xlink="http://www.w3.org/1999/xlink" x="0" y="0" width="3000" height="2000" viewBox="0, 0, 3000, 2000">
  <g id="Background">
    <rect x="0" y="0" width="3000" height="2000" fill="#FFFFFF"/>
  </g>
  <g id="layer1">
    <path d="M860.667,438.167 C860.667,671.507 671.507,860.667 438.167,860.667 C204.826,860.667 15.667,671.507 15.667,438.167 C15.667,204.826 204.826,15.667 438.167,15.667 C671.507,15.667 860.667,204.826 860.667,438.167 z" fill="#006F0F" id="path10"/>
    <path d="M833.167,438.167 C833.167,656.319 656.319,833.167 438.167,833.167 C220.014,833.167 43.167,656.319 43.167,438.167 C43.167,220.014 220.014,43.167 438.167,43.167 C656.319,43.167 833.167,220.014 833.167,438.167 z" fill="#FFFFFF" id="path10"/>
    <path d="M438.167,402.751 C418.608,402.751 402.751,418.607 402.751,438.166 C402.751,457.725 418.608,473.581 438.167,473.581 C457.725,473.581 473.582,457.725 473.582,438.166 C473.582,418.607 457.725,402.751 438.167,402.751 M644.869,494.073 C611.101,519.068 574.268,537.114 534.717,548.105 C565.252,521.256 584.559,481.925 584.559,438.166 C584.559,394.407 565.252,355.077 534.72,328.228 C574.505,339.284 611.538,357.477 645.464,382.704 C673.815,403.787 693.242,425.113 703.846,438.173 C693.182,451.313 673.576,472.824 644.869,494.073 M438.167,537.337 C383.483,537.337 338.995,492.85 338.995,438.166 C338.995,383.482 383.483,338.995 438.167,338.995 C492.85,338.995 537.338,383.482 537.338,438.166 C537.338,492.85 492.85,537.337 438.167,537.337 M231.276,493.928 C202.685,472.733 183.13,451.274 172.479,438.154 C193.389,412.397 248.816,354.473 341.32,328.49 C310.957,355.333 291.775,394.548 291.775,438.166 C291.775,481.924 311.08,521.254 341.614,548.103 C301.99,537.091 265.094,518.997 231.276,493.928 M753.169,425.42 C752.117,423.78 726.825,384.821 675.404,346.131 C645.34,323.51 612.36,305.482 577.381,292.55 C533.719,276.405 486.88,268.219 438.167,268.219 C389.454,268.219 342.617,276.405 298.955,292.55 C263.976,305.482 230.996,323.51 200.932,346.131 C149.51,384.821 124.216,423.779 123.164,425.419 C120.725,429.222 119.428,433.647 119.428,438.166 C119.428,443.952 119.428,449.417 143.045,476.542 C159.739,495.716 179.759,514.273 200.94,530.208 C248.182,565.749 327.686,608.114 438.167,608.114 C548.65,608.114 628.154,565.751 675.393,530.213 C696.575,514.277 716.595,495.72 733.289,476.547 C756.905,449.422 756.905,443.954 756.905,438.166 C756.905,433.647 755.608,429.224 753.169,425.42" fill="#006F0F" id="path24"/>
    <path d="M1791,442.5 C1791,675.84 1601.84,865 1368.5,865 C1135.16,865 946,675.84 946,442.5 C946,209.16 1135.16,20 1368.5,20 C1601.84,20 1791,209.16 1791,442.5 z" fill="#006F0F" id="path10"/>
    <path d="M1763.5,442.5 C1763.5,660.653 1586.652,837.5 1368.5,837.5 C1150.348,837.5 973.5,660.653 973.5,442.5 C973.5,224.348 1150.348,47.5 1368.5,47.5 C1586.652,47.5 1763.5,224.348 1763.5,442.5 z" fill="#FFFFFF" id="path10"/>
    <g>
      <path d="M1245.9,702.609 C1233.042,733.27 1197.753,747.708 1167.087,734.843 C1136.43,721.98 1122.017,686.684 1134.884,656.021 L1181.447,545.01 C1194.32,514.35 1229.587,499.956 1260.235,512.797 C1290.908,525.662 1305.334,560.937 1292.469,591.596 L1245.899,702.608 z" fill="#006F0F" id="path4"/>
      <path d="M1208.657,716.936 C1208.657,735.179 1193.864,750 1175.601,750 C1157.345,750 1142.536,735.179 1142.536,716.936 C1142.536,698.671 1157.345,683.872 1175.601,683.872 C1193.864,683.872 1208.657,698.671 1208.657,716.936 z" fill="#006F0F" id="path6"/>
      <path d="M1429.791,217.267 C1445.605,204.105 1462.912,222.264 1471.927,254.412 C1480.963,286.604 1488.873,316.458 1488.873,316.458 L1510.263,335.084 C1510.263,335.084 1529.082,364.789 1550.152,394.747 C1559.997,401.083 1570.798,414.861 1570.798,414.861 L1573.86,435.741 L1559.634,451.476 L1552.151,447.968 L1550.62,429.703 C1550.62,429.703 1542.264,415.988 1536.331,406.25 C1534.565,403.382 1470.162,349.416 1470.162,349.416 L1465.148,343.378 C1465.148,343.378 1441.418,300.002 1434.303,276.635 C1427.218,253.246 1414.053,230.368 1429.795,217.269 z" fill="#006F0F" id="path18"/>
      <path d="M1280.012,437.023 L1296.425,443.914 L1253.384,546.697 L1236.979,539.807 L1280.009,437.023 z" fill="#006F0F" id="path10"/>
      <path d="M1477.536,262.45 C1466.012,224.708 1444.899,199.449 1421.376,205.806 C1396.681,212.46 1385.578,251.053 1396.633,291.984 C1400.388,305.952 1406.275,318.307 1413.328,328.364 C1413.328,328.364 1413.088,351.137 1405.429,367.828 C1407.032,382.84 1406.044,398.679 1406.87,413.882 C1411.264,420.644 1416.297,426.918 1421.822,432.785 C1429.095,435.486 1436.431,438.036 1443.788,440.461 C1454.739,436.695 1464.157,428.342 1469.005,416.604 C1470.536,412.929 1471.47,409.164 1471.94,405.4 C1471.94,405.4 1480.871,365.042 1486.314,333.128 C1481.022,310.121 1478.298,286.011 1477.532,262.451 z" fill="#006F0F" id="path22"/>
      <path d="M1425.432,215.989 C1437.101,206.401 1449.347,213.416 1449.347,213.416 L1470.165,238.527 L1488.853,292.193 L1494.061,311.372 L1498.931,312.028 L1502.289,321.3 L1517.427,334.248 L1558.041,395.251 L1531.058,415.536 L1469.907,355.003 L1457.659,344.35 C1457.659,344.35 1425.112,267.295 1422.895,251.687 C1420.653,236.079 1419.514,221.791 1419.514,221.791 L1425.426,215.986 z" fill="#006F0F" id="path20"/>
      <path d="M1290.155,639.729 L1288.793,676.555 L1305.86,741.789 C1305.86,741.789 1317.614,741.91 1319.109,731.924 C1320.604,721.887 1320.188,699.306 1320.188,699.306 L1332.613,677.386 L1327.453,643.025 L1303.473,635.561 L1290.151,639.726 z" fill="#006F0F" id="path24"/>
      <path d="M1445.667,737.403 L1480.943,740.506 L1548.325,739.362 C1548.325,739.362 1551.303,728.007 1541.904,724.179 C1532.527,720.328 1510.478,715.356 1510.478,715.356 L1492.192,698.112 L1457.556,694.966 L1444.606,716.463 L1445.673,737.406 z" fill="#006F0F" id="path26"/>
      <path d="M1406.541,375.781 L1402.66,421.942 L1411.803,439.909 L1437.456,555.792 L1428.193,588.6 L1445.154,719.939 L1484.617,710.753 L1495.461,698.421 L1481.768,569.886 L1484.131,543.203 L1494.124,445.12 L1406.54,375.781 z" fill="#006F0F" id="path28"/>
      <path d="M1416.578,379.374 L1399.377,415.096 L1454.43,571.59 L1440.715,567.064 L1307.273,635.89 L1310.878,664.064 L1328.103,683.369 L1467.889,611.67 L1505.482,590.089 L1497.359,483.882 L1491.615,396.92 L1416.576,379.378 z" fill="#006F0F" id="path30"/>
      <path d="M1416.503,213.526 C1435.781,220.67 1428.677,244.718 1405.279,268.598 C1381.881,292.454 1359.93,314.186 1359.93,314.186 L1354.433,342.019 C1354.433,342.019 1338.053,373.127 1322.59,406.317 C1321.98,418.011 1315.428,434.257 1315.428,434.257 L1298.849,447.311 L1278.112,442.802 L1277.437,434.552 L1292.486,424.155 C1292.486,424.155 1300.22,410.079 1305.71,400.064 C1307.331,397.112 1322.023,314.376 1322.023,314.376 L1324.734,307.019 C1324.734,307.019 1350.524,264.834 1367.261,247.015 C1383.996,229.241 1397.263,206.403 1416.5,213.527 z" fill="#006F0F" id="path34"/>
      <path d="M1415.406,209.103 C1429.558,214.485 1433.039,232.726 1433.039,232.726 L1418.165,259.155 L1422.619,260.813 L1380.949,302.061 L1366.911,316.137 L1368.779,320.687 L1362.409,328.257 L1358.721,347.797 L1328.172,411.499 L1297.182,394.276 L1317.041,316.945 L1320.193,301.018 C1320.193,301.018 1370.774,234.401 1383.198,224.706 C1395.616,214.989 1407.436,206.867 1407.436,206.867 L1415.409,209.096 z" fill="#006F0F" id="path36"/>
      <path d="M1447.646,216.819 L1411.271,216.12 L1423.07,155.246 L1454.812,159.2 L1447.646,216.822 z" fill="#006F0F" id="path12"/>
      <path d="M1453.127,212.396 C1464.227,218.711 1472.051,240.953 1477.727,254.9 C1483.406,268.849 1493.738,303.889 1487.764,344.206 C1489.018,359.174 1499.862,407.718 1499.862,407.718 L1503.755,417.308 L1506.582,426.812 L1500.395,436.125 L1433.055,444.779 L1397.073,431.979 L1391.427,361.238 L1385.004,271.891 L1394.533,228.004 L1402.68,212.398 L1411.285,204.807 L1453.125,212.398 z" fill="#006F0F" id="path32"/>
      <path d="M1415.763,192.9 L1408.919,206.87 L1447.989,224.22 L1448.229,212.206 L1454.82,221.328 L1449.143,204.828 L1446.888,207.698 L1417.905,196.598 L1415.771,192.897 z" fill="#006F0F" id="path44"/>
      <path d="M1300.396,396.128 L1297.183,404.612 L1323.356,415.286 L1324.923,409.674 L1300.396,396.129 z" fill="#006F0F" id="path46"/>
      <path d="M1556.601,396.339 L1559.536,399.637 L1537.932,418.752 L1533.34,413.815 L1556.602,396.338 z" fill="#006F0F" id="path48"/>
      <path d="M1413.061,198.406 L1406.232,207.699 L1427.605,221.796 L1435.397,218.626 L1431.419,227.321 L1465.72,274.843 L1447.987,224.218 L1413.062,198.403 z" fill="#006F0F" id="path52"/>
      <path d="M1465.711,274.849 L1454.803,221.329 L1450.976,210.252 L1454.803,212.21 L1457.377,216.827 L1454.803,217.31 L1458.353,222.752 L1465.709,274.827 z" fill="#006F0F" id="path54"/>
      <path d="M1445.775,223.24 L1463.336,268.083 L1454.811,221.327 L1446.879,207.696 L1445.777,223.24 z" fill="#006F0F" id="path56"/>
      <path d="M1446.88,207.7 L1445.2,216.822 L1450.985,224.222 L1462.424,270.277 L1476.5,282.652 L1454.557,224.222 L1452.707,215.206 L1446.879,207.7 z" fill="#006F0F" id="path58"/>
      <path d="M1480.455,159.879 C1480.936,153.864 1481.22,147.759 1480.515,141.721 C1479.623,133.789 1476.072,124.647 1471.286,118.247 C1466.845,112.334 1460.719,107.445 1453.638,105.064 C1449.643,103.726 1444.942,102.786 1440.668,102.786 C1419.694,102.786 1402.66,119.818 1402.66,140.782 C1402.66,155.39 1410.916,168.04 1422.982,174.42 C1430.324,185.54 1447.875,207.888 1470.137,207.696 C1471.86,204.339 1475.603,191.452 1478.174,176.801 C1483.128,177.102 1486.381,175.909 1487.593,173.528 C1488.786,171.148 1482.807,169.701 1480.448,159.877 z" fill="#006F0F" id="path14"/>
      <path d="M1444.072,134.598 C1454.789,129.222 1456.149,138.51 1465.717,128.752 C1469.671,124.69 1462.42,97.346 1434.265,99.643 C1409.142,101.705 1387.847,130.58 1401.274,154.351 C1406.048,162.771 1414.057,169.32 1420.436,176.507 C1425.18,168.171 1449.537,152.926 1456.171,150.226 C1453.832,142.507 1452.705,131.239 1450.409,123.415 L1444.072,134.598 z" fill="#006F0F" id="path38"/>
      <path d="M1444.903,171.7 C1436.971,172.423 1431.3,168.169 1430.497,159.922 C1429.436,149.12 1435.59,144.867 1442.159,151.395 C1448.708,157.923 1442.702,166.534 1442.702,166.534 L1444.913,171.699 z" fill="#006F0F" id="path42"/>
      <path d="M1473.784,157.094 C1473.784,158.733 1472.994,160.047 1470.764,160.047 C1468.533,160.047 1465.701,157.094 1465.701,157.094 C1465.701,157.094 1468.528,154.14 1470.764,154.14 C1472.994,154.14 1473.784,155.46 1473.784,157.094 z" fill="#006F0F" id="path16"/>
      <path d="M1446.793,100.895 C1471.034,105.699 1482.557,120.903 1484.813,124.008 C1487.067,127.112 1459.872,135.617 1456.704,136.49 C1447.625,139.021 1433.513,128.155 1442.65,119.692 L1446.796,100.896 z" fill="#006F0F" id="path40"/>
      <path d="M1193.425,716.936 C1193.425,726.76 1185.436,734.733 1175.603,734.733 C1165.783,734.733 1157.81,726.76 1157.81,716.936 C1157.81,707.07 1165.783,699.118 1175.603,699.118 C1185.436,699.118 1193.425,707.07 1193.425,716.936 z" fill="#006F0F" id="path8"/>
    </g>
    <g>
      <path d="M946,1383.5 C946,1616.84 756.84,1806 523.5,1806 C290.16,1806 101,1616.84 101,1383.5 C101,1150.16 290.16,961 523.5,961 C756.84,961 946,1150.16 946,1383.5 z" fill="#006F0F" id="path10"/>
      <path d="M918.5,1383.5 C918.5,1601.652 741.652,1778.5 523.5,1778.5 C305.348,1778.5 128.5,1601.652 128.5,1383.5 C128.5,1165.348 305.348,988.5 523.5,988.5 C741.652,988.5 918.5,1165.348 918.5,1383.5 z" fill="#FFFFFF" id="path10"/>
    </g>
    <g>
      <path d="M1866,1377.5 C1866,1610.84 1676.84,1800 1443.5,1800 C1210.16,1800 1021,1610.84 1021,1377.5 C1021,1144.16 1210.16,955 1443.5,955 C1676.84,955 1866,1144.16 1866,1377.5 z" fill="#006F0F" id="path10"/>
      <path d="M1838.5,1377.5 C1838.5,1595.652 1661.652,1772.5 1443.5,1772.5 C1225.348,1772.5 1048.5,1595.652 1048.5,1377.5 C1048.5,1159.348 1225.348,982.5 1443.5,982.5 C1661.652,982.5 1838.5,1159.348 1838.5,1377.5 z" fill="#FFFFFF" id="path10"/>
    </g>
    <path d="M1380.89,1292.289 C1383.575,1290.389 1380.89,1286.977 1380.89,1286.977 C1381.231,1276.793 1385.73,1270.906 1387.832,1268.686 L1387.855,1268.976 C1385.914,1273.275 1389.386,1283.916 1389.386,1286.596 C1389.386,1289.633 1386.252,1302.536 1385.811,1307.095 C1385.362,1311.647 1380.444,1318.864 1380.444,1318.864 C1380.444,1318.864 1376.417,1313.925 1376.866,1312.028 C1377.307,1310.129 1378.653,1303.299 1378.653,1300.637 C1378.653,1297.981 1378.204,1294.188 1380.89,1292.289 z M1529.203,1290.746 C1530.07,1284.041 1532.026,1269.802 1532.935,1269.512 C1533.461,1269.82 1533.975,1270.165 1534.489,1270.509 C1536.599,1272.552 1540.016,1276.979 1541.585,1276.979 C1541.892,1276.979 1541.88,1276.76 1541.696,1276.403 C1543.258,1277.903 1544.27,1279.001 1544.27,1279.001 C1544.27,1279.925 1545.551,1287.465 1547.845,1296.969 C1550.055,1306.131 1547.696,1303.762 1548.145,1306.336 C1548.735,1309.732 1550.542,1307.836 1550.377,1317.724 C1550.346,1319.931 1540.991,1332.527 1540.991,1332.527 L1535.916,1343.406 C1535.916,1343.406 1532.49,1331.39 1529.805,1310.888 C1528.904,1303.988 1528.846,1296.993 1529.203,1290.746 z M1341.534,1331.64 C1343.026,1335.182 1340.64,1341.003 1341.833,1343.534 C1343.026,1346.068 1347.203,1353.91 1348.392,1357.453 C1349.589,1360.993 1349.884,1367.828 1352.865,1370.359 C1355.661,1372.734 1359.93,1372.808 1360.456,1372.808 C1362.309,1375 1365.266,1378.485 1365.481,1378.631 L1374.806,1384.647 L1374.702,1384.354 C1375.059,1384.751 1375.396,1385.104 1375.68,1385.36 C1375.68,1385.36 1376.041,1392.513 1376.041,1393.523 C1376.041,1393.523 1376.417,1399.968 1375.228,1407.307 C1374.031,1414.649 1373.736,1440.71 1374.334,1448.811 C1374.921,1456.909 1378.208,1473.356 1378.208,1484.238 C1378.208,1495.12 1377.61,1515.618 1380.594,1519.414 C1383.575,1523.21 1376.121,1528.016 1376.421,1534.345 C1376.716,1540.672 1377.61,1580.91 1377.61,1587.993 C1377.61,1595.079 1383.575,1615.325 1382.378,1617.602 C1381.189,1619.88 1379.393,1626.963 1380.89,1629.75 C1380.89,1629.75 1366.578,1632.533 1366.873,1636.079 C1367.18,1639.616 1369.263,1649.745 1370.751,1652.27 C1370.751,1652.27 1368.07,1658.09 1365.385,1659.359 C1362.704,1660.627 1358.53,1660.627 1358.53,1664.417 C1358.53,1668.216 1354.656,1668.469 1357.034,1668.722 C1357.034,1668.722 1352.262,1670.747 1397.583,1670.747 C1397.583,1670.747 1402.056,1668.979 1403.843,1669.735 C1405.635,1670.497 1406.525,1671 1410.406,1671 C1414.281,1671 1416.667,1671 1416.667,1671 C1416.667,1671 1416.943,1665.131 1414.967,1660.368 C1415.201,1660.325 1415.796,1659.99 1417.323,1658.767 C1421.005,1656.368 1427.411,1650.517 1425.907,1639.369 C1425.313,1634.561 1421.135,1632.786 1421.135,1631.268 C1421.135,1630.881 1421.109,1630.494 1421.109,1630.009 C1421.396,1628.375 1422.136,1626.146 1423.525,1622.917 C1423.525,1622.917 1423.667,1621.532 1423.912,1619.151 C1424.902,1615.011 1425.366,1608.202 1425.754,1601.043 C1428.984,1569.074 1434.691,1511.307 1435.834,1491.714 C1436.582,1486.814 1437.645,1482.655 1438.761,1479.021 C1439.705,1476.914 1440.652,1474.6 1441.258,1471.319 C1441.408,1470.858 1441.565,1470.392 1441.703,1469.941 C1443.318,1464.745 1444.231,1451.714 1444.618,1444.804 C1444.887,1442.768 1445.171,1440.713 1445.455,1438.676 C1446.713,1434.871 1447.031,1430.678 1447.223,1426.882 C1448.193,1420.943 1449.099,1416.451 1449.759,1415.406 C1451.408,1416.439 1453.464,1420.808 1455.589,1426.66 C1456.092,1428.282 1456.621,1430.041 1457.208,1432.108 C1458.792,1437.664 1460.25,1441.984 1461.565,1445.753 C1464.726,1457.01 1467.288,1467.681 1467.933,1470.401 C1467.987,1470.855 1468.044,1471.285 1468.094,1471.758 C1467.987,1476.026 1468.266,1479.698 1468.765,1482.884 C1468.792,1483.673 1468.827,1484.417 1468.838,1485.253 C1468.838,1485.253 1470.626,1492.592 1472.716,1496.638 C1472.946,1497.245 1473.157,1497.909 1473.353,1498.62 C1474.5,1504.084 1473.729,1515.481 1476.594,1523.21 C1476.771,1523.686 1476.92,1524.079 1477.085,1524.524 C1477.994,1527.891 1479.302,1530.851 1480.396,1533.321 C1481.147,1535.37 1481.707,1537.056 1482.256,1539.154 C1482.149,1541.672 1481.147,1543.441 1480.898,1546.023 C1480.587,1546.627 1480.315,1547.267 1480.169,1548.011 C1479.571,1551.048 1481.362,1553.073 1481.362,1558.637 C1481.362,1564.205 1480.764,1568.763 1481.957,1571.037 C1483.146,1573.318 1481.657,1575.596 1481.362,1579.139 C1481.063,1582.676 1475.697,1614.315 1477.189,1618.615 C1478.677,1622.917 1480.169,1624.941 1490.603,1633.04 C1490.603,1633.04 1489.114,1636.333 1487.618,1639.369 C1486.13,1642.406 1485.236,1646.452 1484.941,1649.236 C1484.646,1652.02 1482.551,1655.563 1486.13,1658.6 C1489.705,1661.64 1488.221,1663.408 1488.221,1664.17 C1488.221,1664.926 1483.146,1668.469 1485.539,1669.735 C1487.922,1671 1529.364,1669.735 1529.364,1669.735 C1529.364,1669.735 1529.663,1665.436 1529.364,1663.914 C1529.065,1662.399 1525.187,1652.776 1524.596,1649.745 C1524.596,1649.745 1528.167,1647.214 1528.167,1643.925 C1528.167,1640.635 1525.486,1640.125 1526.38,1638.104 C1527.274,1636.079 1532.935,1637.342 1539.199,1605.202 C1545.459,1573.065 1535.03,1538.648 1532.935,1514.606 C1530.852,1490.564 1529.36,1409.082 1529.065,1386.556 C1529.065,1386.556 1536.817,1376.686 1541.585,1372.89 C1541.992,1372.57 1542.306,1372.164 1542.579,1371.725 C1544.316,1370.969 1553.273,1366.652 1553.906,1366.017 L1553.956,1366.216 L1560.105,1363.746 L1560.101,1363.731 L1560.557,1364.029 L1561.447,1365.17 C1561.447,1365.17 1575.421,1353.025 1577.209,1349.226 C1579,1345.433 1582.579,1337.457 1585.26,1334.801 C1587.945,1332.146 1585.26,1315.824 1586.154,1306.711 C1587.052,1297.606 1584.808,1293.426 1583.024,1288.496 C1581.236,1283.559 1573.634,1261.923 1573.189,1255.469 C1572.74,1249.011 1555.302,1209.916 1554.846,1205.361 C1554.401,1200.802 1549.038,1197.772 1549.483,1195.113 C1549.932,1192.454 1547.247,1188.661 1547.247,1188.661 C1547.247,1188.661 1494.922,1175.752 1491.351,1172.337 C1488.727,1169.839 1486.602,1167.958 1485.643,1167.126 C1484.381,1163.805 1483.054,1161.854 1481.957,1160.57 L1481.769,1160.564 C1481.435,1159.918 1481.063,1159.558 1481.063,1159.558 C1482.256,1156.521 1483.146,1148.673 1484.941,1147.155 C1486.729,1145.639 1491.496,1141.59 1493.587,1138.553 C1495.674,1135.516 1496.568,1128.431 1495.969,1126.406 C1495.375,1124.381 1493.288,1125.394 1494.178,1124.125 C1495.075,1122.863 1495.674,1119.826 1495.371,1117.292 C1495.075,1114.762 1495.674,1115.524 1497.461,1110.206 C1499.249,1104.895 1497.162,1103.886 1495.969,1098.568 C1494.772,1093.254 1490.008,1089.202 1487.922,1087.939 C1485.831,1086.674 1487.922,1084.649 1487.922,1084.649 C1487.922,1084.649 1484.941,1084.649 1483.146,1082.878 C1481.362,1081.103 1483.449,1079.335 1483.449,1079.335 C1483.449,1079.335 1481.063,1080.853 1479.571,1081.106 C1478.079,1081.359 1472.716,1077.057 1470.929,1076.045 C1469.133,1075.033 1470.33,1077.313 1468.539,1077.313 C1466.755,1077.313 1462.574,1076.551 1457.81,1077.057 C1453.034,1077.56 1445.585,1082.116 1443.495,1083.131 C1441.408,1084.143 1441.408,1082.369 1440.518,1082.369 C1439.62,1082.369 1440.518,1084.143 1438.727,1084.903 C1436.935,1085.662 1429.486,1092.748 1427.1,1095.278 C1424.714,1097.812 1425.017,1110.463 1425.604,1116.03 C1426.206,1121.595 1427.695,1120.582 1425.907,1122.104 C1424.116,1123.619 1425.846,1136.51 1426.805,1137.794 C1428.178,1139.648 1430.679,1139.309 1430.974,1142.602 C1431.277,1145.889 1433.36,1156.521 1436.045,1160.57 C1436.045,1160.57 1434.415,1161.357 1432.977,1162.939 L1433.061,1162.598 C1433.061,1162.598 1432.854,1162.961 1432.532,1163.497 C1432.121,1164.016 1431.738,1164.583 1431.442,1165.242 C1430.261,1167.074 1428.703,1169.251 1427.695,1169.681 C1425.907,1170.437 1386.551,1179.295 1374.031,1183.597 C1374.031,1183.597 1368.964,1183.847 1368.964,1185.368 C1368.964,1186.887 1368.07,1192.454 1366.578,1194.985 C1365.086,1197.519 1358.231,1213.206 1359.424,1216.999 C1360.617,1220.801 1360.916,1223.329 1358.53,1228.643 C1356.141,1233.958 1352.865,1256.484 1351.073,1262.808 C1349.286,1269.134 1346.309,1282.547 1344.219,1287.358 C1342.132,1292.164 1344.215,1305.829 1342.132,1310.635 C1340.041,1315.446 1342.73,1316.961 1342.427,1318.989 C1342.132,1321.011 1340.041,1328.1 1341.534,1331.64" fill="#006F0F"/>
  </g>
</svg>
