<?xml version="1.0" encoding="UTF-8"?>
<!DOCTYPE svg PUBLIC "-//W3C//DTD SVG 1.1//EN" "http://www.w3.org/Graphics/SVG/1.1/DTD/svg11.dtd">
<svg version="1.1" xmlns="http://www.w3.org/2000/svg" xmlns:xlink="http://www.w3.org/1999/xlink" x="0" y="0" width="1056.551" height="1152.687" viewBox="0, 0, 1056.551, 1152.687">
  <g id="Layer_1">
    <g id="path815-6">
      <path d="M697.968,525.043 C690.392,568.227 679.557,616.995 627.185,651.767 C586.232,678.957 568.099,683.204 427.175,683.587 C289.288,683.961 175.661,684.09 27.136,683.587 C9.396,683.527 13.897,643.726 25.595,630.391 C38.074,616.166 63.149,624.889 82.07,624.629 C147.33,623.73 276.584,623.602 276.584,623.602 C533.06,622.248 630.946,429.628 645.088,416.673 C663.056,400.214 679.917,399.691 689.104,419.49 C699.294,441.451 697.968,525.043 697.968,525.043 z" fill="#F2E9E4"/>
      <path d="M697.968,525.043 C690.392,568.227 679.557,616.995 627.185,651.767 C586.232,678.957 568.099,683.204 427.175,683.587 C289.288,683.961 175.661,684.09 27.136,683.587 C9.396,683.527 13.897,643.726 25.595,630.391 C38.074,616.166 63.149,624.889 82.07,624.629 C147.33,623.73 276.584,623.602 276.584,623.602 C533.06,622.248 630.946,429.628 645.088,416.673 C663.056,400.214 679.917,399.691 689.104,419.49 C699.294,441.451 697.968,525.043 697.968,525.043 z" fill-opacity="0" stroke="#000000" stroke-width="2.25"/>
    </g>
    <g id="path817-7">
      <path d="M520.276,645.706 C520.276,680.644 548.599,708.967 583.537,708.967 C618.475,708.967 646.798,680.644 646.798,645.706 C646.798,610.768 618.475,582.445 583.537,582.445 C548.599,582.445 520.276,610.768 520.276,645.706 z" fill="#22223B"/>
      <path d="M520.276,645.706 C520.276,680.644 548.599,708.967 583.537,708.967 C618.475,708.967 646.798,680.644 646.798,645.706 C646.798,610.768 618.475,582.445 583.537,582.445 C548.599,582.445 520.276,610.768 520.276,645.706 z" fill-opacity="0" stroke="#000000" stroke-width="2.25"/>
    </g>
    <g id="path817-3-5">
      <path d="M40.919,688.511 C40.919,699.948 50.19,709.219 61.626,709.219 C73.063,709.219 82.334,699.948 82.334,688.511 C82.334,677.074 73.063,667.803 61.626,667.803 C50.19,667.803 40.919,677.074 40.919,688.511 z" fill="#22223B"/>
      <path d="M40.919,688.511 C40.919,699.948 50.19,709.219 61.626,709.219 C73.063,709.219 82.334,699.948 82.334,688.511 C82.334,677.074 73.063,667.803 61.626,667.803 C50.19,667.803 40.919,677.074 40.919,688.511 z" fill-opacity="0" stroke="#000000" stroke-width="2.25"/>
    </g>
    <path d="M574.436,645.706 C574.436,650.732 578.511,654.807 583.537,654.807 C588.564,654.807 592.638,650.732 592.638,645.706 C592.638,640.679 588.564,636.605 583.537,636.605 C578.511,636.605 574.436,640.679 574.436,645.706 z" fill="#F2E9E4" id="path817-35-1"/>
    <path d="M56.885,688.511 C56.885,691.13 59.008,693.252 61.626,693.252 C64.245,693.252 66.367,691.13 66.367,688.511 C66.367,685.893 64.245,683.77 61.626,683.77 C59.008,683.77 56.885,685.893 56.885,688.511 z" fill="#F2E9E4" id="path817-35-6-2"/>
    <path d="M611.975,534.148 L611.951,531.982 L627.407,531.982 L627.407,534.044 L621.525,534.044 L621.525,542.464 L618.062,542.464 L618.062,534.148 z" fill="#000000" id="polygon4659-0"/>
    <path d="M681.855,531.972 L678.371,531.972 L678.371,535.827 L669.646,535.827 L669.646,531.944 L666.107,531.944 L666.107,542.495 L669.541,542.495 L669.541,538.031 L678.476,538.031 L678.476,542.492 L681.855,542.492 z" fill="#000000" id="polygon4661-9"/>
    <path d="M571.444,531.958 C571.36,531.952 571.28,531.944 571.19,531.944 L571.184,531.944 C571.182,531.944 571.182,531.944 571.179,531.944 L571.179,531.944 L559.981,531.944 L559.981,531.947 C559.976,531.947 559.967,531.947 559.961,531.947 C558.724,531.947 557.719,532.945 557.705,534.182 L557.702,534.182 L557.697,542.47 L561.166,542.47 L561.166,534.151 L569.993,534.151 L569.993,542.47 L573.452,542.47 L573.452,534.081 C573.389,532.969 572.537,532.075 571.449,531.957 z" fill="#000000" id="path4663-3"/>
    <path d="M589.483,542.547 C590.658,542.512 591.6,541.56 591.607,540.378 L591.607,540.358 C591.607,540.355 591.607,540.352 591.607,540.347 L591.607,540.347 L591.607,531.944 L588.144,531.944 L588.144,540.239 L579.328,540.239 L579.328,531.969 L575.855,531.969 L575.855,540.416 C575.886,541.598 576.846,542.547 578.035,542.547 L578.035,542.547 z" fill="#000000" id="path4665-6"/>
    <path d="M609.455,534.148 L609.455,531.944 L595.991,531.944 C594.798,531.944 593.835,532.9 593.811,534.086 L593.811,540.232 C593.811,540.274 593.814,540.309 593.817,540.347 C593.862,541.487 594.773,542.398 595.916,542.44 L609.454,542.44 L609.454,540.236 L597.272,540.236 L597.272,534.145 L609.454,534.145 z" fill="#000000" id="path4667-0"/>
    <path d="M663.628,534.044 L663.628,531.941 L650.129,531.944 C648.954,531.963 648.008,532.91 647.987,534.082 L647.987,540.204 C648.016,541.372 648.954,542.31 650.125,542.335 L663.631,542.335 L663.631,540.273 L651.45,540.273 L651.45,534.043 z" fill="#000000" id="path4669-6"/>
    <path d="M645.676,534.044 L645.676,532.003 L632.1,532.003 C630.908,532.009 629.945,532.97 629.927,534.159 L629.927,540.315 L629.927,540.315 C629.956,541.484 630.897,542.422 632.069,542.443 L645.571,542.443 L645.571,540.305 L633.289,540.305 L633.289,538.167 L645.679,538.167 L645.679,536.067 L633.289,536.067 L633.289,534.044 z" fill="#000000" id="path4671-2"/>
    <g id="path4720-7">
      <path d="M699.626,431.139 L699.626,466.916 L690.959,464.891 L692.14,432.996 z" fill="#4A4E69"/>
      <path d="M699.626,431.139 L699.626,466.916 L690.959,464.891 L692.14,432.996 z" fill-opacity="0" stroke="#000000" stroke-width="0.75"/>
    </g>
    <g id="path4742">
      <path d="M842.233,56.198 C794.709,111.829 842.233,290.309 842.233,290.309 L1019.392,290.309 C1019.392,290.309 1068.391,108.361 1019.392,52.853 C977.289,5.156 883.651,7.713 842.233,56.198 z" fill="#F2E9E4"/>
      <path d="M842.233,56.198 C794.709,111.829 842.233,290.309 842.233,290.309 L1019.392,290.309 C1019.392,290.309 1068.391,108.361 1019.392,52.853 C977.289,5.156 883.651,7.713 842.233,56.198 z" fill-opacity="0" stroke="#000000" stroke-width="2.415"/>
    </g>
    <g id="path5244">
      <path d="M836.585,205.511 C814.56,207.282 814.675,320.714 836.585,320.714 C852.498,320.714 836.585,320.714 852.498,320.714 C874.651,320.714 874.471,202.463 852.498,204.231 C836.585,205.511 852.498,204.231 836.585,205.511 z" fill="#22223B"/>
      <path d="M836.585,205.511 C814.56,207.282 814.675,320.714 836.585,320.714 C852.498,320.714 836.585,320.714 852.498,320.714 C874.651,320.714 874.471,202.463 852.498,204.231 C836.585,205.511 852.498,204.231 836.585,205.511 z" fill-opacity="0" stroke="#000000" stroke-width="0.412"/>
    </g>
    <g id="path815">
      <path d="M16.206,135.871 C23.782,179.055 34.617,227.823 86.988,262.595 C127.941,289.785 146.075,294.032 286.999,294.415 C424.886,294.789 538.513,294.918 687.038,294.415 C704.778,294.354 700.277,254.554 688.578,241.219 C676.1,226.994 651.025,235.717 632.104,235.457 C566.844,234.558 437.589,234.43 437.589,234.43 C181.114,233.076 83.228,40.456 69.086,27.501 C51.118,11.041 34.257,10.519 25.07,30.318 C14.88,52.279 16.206,135.871 16.206,135.871 z" fill="#F2E9E4"/>
      <path d="M16.206,135.871 C23.782,179.055 34.617,227.823 86.988,262.595 C127.941,289.785 146.075,294.032 286.999,294.415 C424.886,294.789 538.513,294.918 687.038,294.415 C704.778,294.354 700.277,254.554 688.578,241.219 C676.1,226.994 651.025,235.717 632.104,235.457 C566.844,234.558 437.589,234.43 437.589,234.43 C181.114,233.076 83.228,40.456 69.086,27.501 C51.118,11.041 34.257,10.519 25.07,30.318 C14.88,52.279 16.206,135.871 16.206,135.871 z" fill-opacity="0" stroke="#000000" stroke-width="2.251"/>
    </g>
    <g id="path817">
      <path d="M193.897,256.534 C193.897,291.472 165.575,319.795 130.637,319.795 C95.699,319.795 67.376,291.472 67.376,256.534 C67.376,221.596 95.699,193.273 130.637,193.273 C165.575,193.273 193.897,221.596 193.897,256.534 z" fill="#22223B"/>
      <path d="M193.897,256.534 C193.897,291.472 165.575,319.795 130.637,319.795 C95.699,319.795 67.376,291.472 67.376,256.534 C67.376,221.596 95.699,193.273 130.637,193.273 C165.575,193.273 193.897,221.596 193.897,256.534 z" fill-opacity="0" stroke="#000000" stroke-width="2.25"/>
    </g>
    <g id="path817-3">
      <path d="M673.255,299.339 C673.255,310.776 663.984,320.047 652.547,320.047 C641.111,320.047 631.84,310.776 631.84,299.339 C631.84,287.902 641.111,278.631 652.547,278.631 C663.984,278.631 673.255,287.902 673.255,299.339 z" fill="#22223B"/>
      <path d="M673.255,299.339 C673.255,310.776 663.984,320.047 652.547,320.047 C641.111,320.047 631.84,310.776 631.84,299.339 C631.84,287.902 641.111,278.631 652.547,278.631 C663.984,278.631 673.255,287.902 673.255,299.339 z" fill-opacity="0" stroke="#000000" stroke-width="2.25"/>
    </g>
    <path d="M139.738,256.534 C139.738,261.56 135.663,265.635 130.637,265.635 C125.61,265.635 121.536,261.56 121.536,256.534 C121.536,251.507 125.61,247.433 130.637,247.433 C135.663,247.433 139.738,251.507 139.738,256.534 z" fill="#F2E9E4" id="path817-35"/>
    <path d="M657.289,299.339 C657.289,301.957 655.166,304.08 652.547,304.08 C649.929,304.08 647.806,301.957 647.806,299.339 C647.806,296.721 649.929,294.598 652.547,294.598 C655.166,294.598 657.289,296.721 657.289,299.339 z" fill="#F2E9E4" id="path817-35-6"/>
    <path d="M92.691,153.292 L92.691,144.976 L86.603,144.976 L86.579,142.81 L102.035,142.81 L102.035,144.872 L96.153,144.872 L96.153,153.292 z" fill="#000000" id="polygon4659"/>
    <path d="M152.999,146.655 L144.274,146.655 L144.274,142.772 L140.735,142.772 L140.735,153.323 L144.169,153.323 L144.169,148.859 L153.104,148.859 L153.104,153.32 L156.483,153.32 L156.483,142.8 L152.999,142.8 z" fill="#000000" id="polygon4661"/>
    <path d="M46.072,142.786 C45.988,142.779 45.908,142.772 45.818,142.772 L45.811,142.772 C45.808,142.772 45.808,142.772 45.804,142.772 L45.804,142.772 L34.606,142.772 L34.606,142.776 C34.599,142.776 34.592,142.776 34.585,142.776 C33.348,142.776 32.343,143.773 32.329,145.011 L32.326,145.011 L32.319,153.299 L35.788,153.299 L35.788,144.98 L44.615,144.98 L44.615,153.299 L48.074,153.299 L48.074,144.91 C48.011,143.798 47.16,142.904 46.071,142.786 z" fill="#000000" id="path4663"/>
    <path d="M64.111,153.375 C65.286,153.34 66.228,152.388 66.235,151.206 L66.235,151.185 C66.235,151.182 66.235,151.178 66.235,151.174 L66.235,151.174 L66.235,142.772 L62.773,142.772 L62.773,151.067 L53.956,151.067 L53.956,142.796 L50.483,142.796 L50.483,151.244 C50.515,152.426 51.474,153.375 52.663,153.375 L52.663,153.375 z" fill="#000000" id="path4665"/>
    <path d="M84.083,144.976 L84.083,142.772 L70.619,142.772 C69.426,142.772 68.463,143.728 68.439,144.914 L68.439,151.06 C68.439,151.102 68.443,151.136 68.446,151.175 C68.491,152.315 69.402,153.226 70.546,153.267 L84.083,153.267 L84.083,151.063 L71.902,151.063 L71.902,144.973 L84.083,144.973 z" fill="#000000" id="path4667"/>
    <path d="M138.256,144.872 L138.256,142.769 L124.757,142.772 C123.582,142.793 122.636,143.739 122.616,144.91 L122.616,151.032 C122.643,152.2 123.582,153.139 124.754,153.163 L138.259,153.163 L138.259,151.102 L126.078,151.102 L126.078,144.872 z" fill="#000000" id="path4669"/>
    <path d="M120.304,144.872 L120.304,142.831 L106.728,142.831 C105.536,142.838 104.573,143.798 104.556,144.987 L104.556,151.143 L104.556,151.143 C104.583,152.311 105.526,153.25 106.697,153.271 L120.199,153.271 L120.199,151.133 L107.917,151.133 L107.917,148.995 L120.307,148.995 L120.307,146.895 L107.917,146.895 L107.917,144.872 z" fill="#000000" id="path4671"/>
    <g id="path4720">
      <path d="M14.548,41.967 L14.548,77.744 L23.215,75.719 L22.034,43.824 z" fill="#4A4E69"/>
      <path d="M14.548,41.967 L14.548,77.744 L23.215,75.719 L22.034,43.824 z" fill-opacity="0" stroke="#000000" stroke-width="0.75"/>
    </g>
    <g id="path5244-6">
      <path d="M1025.696,205.511 C1047.721,207.282 1047.606,320.714 1025.696,320.714 C1009.783,320.714 1025.696,320.714 1009.783,320.714 C987.629,320.714 987.81,202.463 1009.783,204.231 C1025.696,205.511 1009.783,204.231 1025.696,205.511 z" fill="#22223B"/>
      <path d="M1025.696,205.511 C1047.721,207.282 1047.606,320.714 1025.696,320.714 C1009.783,320.714 1025.696,320.714 1009.783,320.714 C987.629,320.714 987.81,202.463 1009.783,204.231 C1025.696,205.511 1009.783,204.231 1025.696,205.511 z" fill-opacity="0" stroke="#000000" stroke-width="0.412"/>
    </g>
    <g id="path906">
      <path d="M973.252,59.852 C973.252,67.872 954.398,74.374 931.14,74.374 C907.883,74.374 889.029,67.872 889.029,59.852 C889.029,51.832 907.883,45.331 931.14,45.331 C954.398,45.331 973.252,51.832 973.252,59.852 z" fill="#4A4E69"/>
      <path d="M973.252,59.852 C973.252,67.872 954.398,74.374 931.14,74.374 C907.883,74.374 889.029,67.872 889.029,59.852 C889.029,51.832 907.883,45.331 931.14,45.331 C954.398,45.331 973.252,51.832 973.252,59.852 z" fill-opacity="0" stroke="#000000" stroke-width="1.5"/>
    </g>
    <g id="path910">
      <path d="M32.959,877.229 C58.973,796.956 590.869,800.075 652.553,877.229 C714.236,954.384 716.458,997.853 652.553,1079.164 C588.647,1160.476 59.493,1153.03 35.478,1079.164 C11.463,1005.298 6.946,957.503 32.959,877.229 z" fill="#F2E9E4"/>
      <path d="M32.959,877.229 C58.973,796.956 590.869,800.075 652.553,877.229 C714.236,954.384 716.458,997.853 652.553,1079.164 C588.647,1160.476 59.493,1153.03 35.478,1079.164 C11.463,1005.298 6.946,957.503 32.959,877.229 z" fill-opacity="0" stroke="#000000" stroke-width="2.25"/>
    </g>
    <g id="path910-3">
      <path d="M72.619,900.376 C94.122,838.581 533.785,840.982 584.772,900.376 C635.759,959.771 637.596,993.234 584.772,1055.829 C531.948,1118.424 94.552,1112.692 74.701,1055.829 C54.851,998.966 51.117,962.172 72.619,900.376 z" fill="#4A4E69"/>
      <path d="M72.619,900.376 C94.122,838.581 533.785,840.982 584.772,900.376 C635.759,959.771 637.596,993.234 584.772,1055.829 C531.948,1118.424 94.552,1112.692 74.701,1055.829 C54.851,998.966 51.117,962.172 72.619,900.376 z" fill-opacity="0" stroke="#000000" stroke-width="1.795"/>
    </g>
    <g id="path5244-5">
      <path d="M646.276,833.748 C644.324,811.733 519.367,811.847 519.367,833.748 C519.367,849.655 519.367,833.748 519.367,849.655 C519.367,871.799 649.632,871.619 647.686,849.655 C646.276,833.748 647.686,849.655 646.276,833.748 z" fill="#22223B"/>
      <path d="M646.276,833.748 C644.324,811.733 519.367,811.847 519.367,833.748 C519.367,849.655 519.367,833.748 519.367,849.655 C519.367,871.799 649.632,871.619 647.686,849.655 C646.276,833.748 647.686,849.655 646.276,833.748 z" fill-opacity="0" stroke="#000000" stroke-width="0.432"/>
    </g>
    <g id="path5244-6-6">
      <path d="M646.276,1109.747 C644.324,1131.762 519.367,1131.648 519.367,1109.747 C519.367,1093.84 519.367,1109.747 519.367,1093.84 C519.367,1071.696 649.632,1071.876 647.686,1093.84 C646.276,1109.747 647.686,1093.84 646.276,1109.747 z" fill="#22223B"/>
      <path d="M646.276,1109.747 C644.324,1131.762 519.367,1131.648 519.367,1109.747 C519.367,1093.84 519.367,1109.747 519.367,1093.84 C519.367,1071.696 649.632,1071.876 647.686,1093.84 C646.276,1109.747 647.686,1093.84 646.276,1109.747 z" fill-opacity="0" stroke="#000000" stroke-width="0.432"/>
    </g>
    <g id="path4720-7-2">
      <path d="M700.402,941.463 L700.402,1014.136 L691.735,1010.023 L692.917,945.234 z" fill="#4A4E69"/>
      <path d="M700.402,941.463 L700.402,1014.136 L691.735,1010.023 L692.917,945.234 z" fill-opacity="0" stroke="#000000" stroke-width="1.069"/>
    </g>
    <g id="path5244-5-9">
      <path d="M82.895,851.219 C82.234,842.737 39.872,842.781 39.872,851.219 C39.872,857.346 39.872,851.219 39.872,857.346 C39.872,865.877 84.033,865.808 83.373,857.346 C82.895,851.219 83.373,857.346 82.895,851.219 z" fill="#22223B"/>
      <path d="M82.895,851.219 C82.234,842.737 39.872,842.781 39.872,851.219 C39.872,857.346 39.872,851.219 39.872,857.346 C39.872,865.877 84.033,865.808 83.373,857.346 C82.895,851.219 83.373,857.346 82.895,851.219 z" fill-opacity="0" stroke="#000000" stroke-width="0.156"/>
    </g>
    <g id="path5244-5-9-1">
      <path d="M82.895,1097.436 C82.234,1088.955 39.872,1088.999 39.872,1097.436 C39.872,1103.564 39.872,1097.436 39.872,1103.564 C39.872,1112.095 84.033,1112.025 83.373,1103.564 C82.895,1097.436 83.373,1103.564 82.895,1097.436 z" fill="#22223B"/>
      <path d="M82.895,1097.436 C82.234,1088.955 39.872,1088.999 39.872,1097.436 C39.872,1103.564 39.872,1097.436 39.872,1103.564 C39.872,1112.095 84.033,1112.025 83.373,1103.564 C82.895,1097.436 83.373,1103.564 82.895,1097.436 z" fill-opacity="0" stroke="#000000" stroke-width="0.156"/>
    </g>
    <g id="rect1761">
      <path d="M16.691,119.106 L89.222,119.106 L89.222,135.387 L16.691,135.387 z" fill="#4A4E69"/>
      <path d="M16.691,119.106 L89.222,119.106 L89.222,135.387 L16.691,135.387 z" fill-opacity="0" stroke="#000000" stroke-width="2.469"/>
    </g>
    <g id="rect1761-3">
      <path d="M822.669,119.602 L1039.612,119.602 L1039.612,134.89 L822.669,134.89 z" fill="#4A4E69"/>
      <path d="M822.669,119.602 L1039.612,119.602 L1039.612,134.89 L822.669,134.89 z" fill-opacity="0" stroke="#000000" stroke-width="4.138"/>
    </g>
    <g id="rect1761-6-7">
      <path d="M624.952,508.278 L697.483,508.278 L697.483,524.559 L624.952,524.559 z" fill="#4A4E69"/>
      <path d="M624.952,508.278 L697.483,508.278 L697.483,524.559 L624.952,524.559 z" fill-opacity="0" stroke="#000000" stroke-width="2.469"/>
    </g>
    <path d="M911.841,181.094 C918.557,175.61 927.255,171.385 936.701,168.653 C945.964,165.973 957.042,164.651 966.84,166.91 C956.515,162.761 942.473,162.467 928.968,165.997 C914.964,169.656 903.157,176.147 895.717,185.87 C901.423,175.525 913.942,167.13 929.9,162.95 C939.166,160.523 952.536,159.439 963.346,162.006 C954.038,157.552 939.953,156.203 924.315,160.118 C910.041,163.695 897.227,170.456 890.39,179.227 C896.344,168.731 909.915,161.251 923.865,157.625 C935.199,154.68 946.866,154.616 955.613,156.343 C945.588,152.082 932.575,151.283 918.091,154.311 C893.054,159.548 876.682,175.826 879.357,189.671 C880.606,196.555 889.276,202.287 898.414,204.331 C897.782,196.285 902.911,187.694 911.841,181.094" fill="#004290" id="path34"/>
    <path d="M950.44,191.389 C943.724,196.87 935.031,201.097 925.583,203.831 C916.314,206.507 905.239,207.829 895.441,205.57 C905.766,209.717 919.808,210.015 933.313,206.483 C947.315,202.824 959.121,196.33 966.564,186.61 C960.858,196.957 948.337,205.352 932.384,209.53 C923.115,211.959 909.743,213.041 898.937,210.474 C908.245,214.931 922.328,216.277 937.964,212.364 C952.24,208.787 965.054,202.024 971.891,193.255 C965.937,203.749 952.368,211.228 938.416,214.855 C927.08,217.8 915.415,217.864 906.668,216.137 C916.693,220.402 929.708,221.199 944.192,218.167 C969.227,212.932 985.597,196.657 982.924,182.809 C981.677,175.927 973.005,170.193 963.864,168.152 C964.501,176.195 959.372,184.789 950.44,191.389" fill="#E60013" id="path36"/>
  </g>
</svg>
