<?xml version="1.0" encoding="UTF-8"?>
<!DOCTYPE svg PUBLIC "-//W3C//DTD SVG 1.1//EN" "http://www.w3.org/Graphics/SVG/1.1/DTD/svg11.dtd">
<svg version="1.1" xmlns="http://www.w3.org/2000/svg" xmlns:xlink="http://www.w3.org/1999/xlink" x="0" y="0" width="1936" height="1737" viewBox="0, 0, 1936, 1737">
  <g id="Background">
    <rect x="0" y="0" width="1936" height="1737" fill="#FFFFFF"/>
  </g>
  <g id="Layer_1">
    <path d="M479.858,273.747 L351.64,273.747 C344.101,273.747 337.159,271.138 331.671,266.774 C326.184,271.138 319.242,273.747 311.702,273.747 L32.141,273.747 C14.418,273.747 0,259.328 0,241.605 L0,32.395 C0,14.672 14.418,0.253 32.141,0.253 L311.702,0.253 C319.242,0.253 326.184,2.862 331.671,7.226 C337.159,2.862 344.101,0.253 351.64,0.253 L479.858,0.253 C497.581,0.253 512,14.672 512,32.395 L512,241.605 C512,259.328 497.581,273.747 479.858,273.747 z M338.975,241.605 C338.975,245.904 342.283,249.402 346.582,249.402 L479.858,249.402 C484.157,249.402 487.654,245.904 487.654,241.605 L487.654,32.395 C487.654,28.096 484.157,24.598 479.858,24.598 L346.582,24.598 C342.283,24.598 338.975,28.096 338.975,32.395 L324.367,32.395 C324.367,28.096 321.15,24.598 316.852,24.598 L32.141,24.598 C27.842,24.598 24.344,28.096 24.344,32.395 L24.344,241.605 C24.344,245.904 27.842,249.402 32.141,249.402 L316.852,249.402 C321.15,249.402 324.367,245.904 324.367,241.605 L338.975,241.605 z M324.367,75.497 L338.974,75.497 L338.974,47.097 L324.367,47.097 z M324.367,114.325 L338.974,114.325 L338.974,85.925 L324.367,85.925 z M324.367,153.153 L338.974,153.153 L338.974,124.753 L324.367,124.753 z M324.367,191.981 L338.974,191.981 L338.974,163.58 L324.367,163.58 z M324.367,230.81 L338.974,230.81 L338.974,202.41 L324.367,202.41 z M248.534,76.397 C248.504,76.437 248.473,76.474 248.441,76.512 L225.126,104.072 L238.37,203.958 C238.609,205.776 237.907,207.591 236.505,208.771 L225.771,217.813 C223.968,219.407 219.627,220.167 217.426,215.933 L185.775,146.494 L156.988,177.981 L162.026,200.676 C162.354,202.146 162.049,203.685 161.185,204.919 L149.327,221.864 C147.833,224.312 142.122,225.947 139.927,220.741 L132.509,201.793 C129.521,203.868 121.34,208.409 116.749,203.819 C112.327,199.396 114.982,192.123 117.225,188.049 L97.639,182.664 C93.853,181.646 91.957,176.913 95.539,173.435 L111.152,159.864 C112.289,158.876 113.786,158.41 115.285,158.582 L138.379,161.224 L166.682,129.303 L94.322,105.079 C91.673,104.194 89.188,100.758 91.578,96.978 L99.438,85.36 C100.466,83.842 102.203,82.964 104.031,83.001 L204.759,85.736 L229.724,59.66 C229.757,59.624 229.793,59.588 229.829,59.554 C237.877,51.601 247.649,47.66 253.486,51.037 C257.314,53.253 259.095,63.197 248.534,76.397 z M368.846,226.77 L466.249,226.77 L466.249,214.498 L368.846,214.498 z M368.846,202.982 L444.548,202.982 L444.548,190.709 L368.846,190.709 z M368.846,179.196 L444.548,179.196 L444.548,154.651 L368.846,154.651 z M368.846,143.138 L444.548,143.138 L444.548,130.863 L368.846,130.863 z M368.846,83.289 L444.548,83.289 L444.548,71.017 L368.846,71.017 z M368.846,119.35 L444.548,119.35 L444.548,94.804 L368.846,94.804 z M454.563,202.982 L461.414,202.982 L461.414,190.709 L454.563,190.709 z M454.563,179.196 L461.414,179.196 L461.414,154.651 L454.563,154.651 z M454.563,143.138 L461.414,143.138 L461.414,130.863 L454.563,130.863 z M454.563,83.289 L461.414,83.289 L461.414,71.017 L454.563,71.017 z M454.563,119.35 L461.414,119.35 L461.414,94.804 L454.563,94.804 z M368.846,59.503 L466.249,59.503 L466.249,47.23 L368.846,47.23 z" fill="#010000"/>
    <path d="M1191.859,273.747 L1063.641,273.747 C1056.102,273.747 1049.16,271.138 1043.672,266.774 C1038.184,271.138 1031.242,273.747 1023.703,273.747 L744.141,273.747 C726.418,273.747 712,259.328 712,241.605 L712,32.395 C712,14.672 726.418,0.253 744.141,0.253 L1023.703,0.253 C1031.242,0.253 1038.184,2.862 1043.672,7.226 C1049.16,2.862 1056.102,0.253 1063.641,0.253 L1191.859,0.253 C1209.582,0.253 1224,14.672 1224,32.395 L1224,241.605 C1224,259.328 1209.582,273.747 1191.859,273.747 z M1050.975,241.605 C1050.975,245.904 1054.283,249.402 1058.582,249.402 L1191.859,249.402 C1196.158,249.402 1199.656,245.904 1199.656,241.605 L1199.656,32.395 C1199.656,28.096 1196.158,24.598 1191.859,24.598 L1058.582,24.598 C1054.283,24.598 1050.975,28.096 1050.975,32.395 L1036.369,32.395 C1036.369,28.096 1033.15,24.598 1028.852,24.598 L744.141,24.598 C739.842,24.598 736.346,28.096 736.346,32.395 L736.346,241.605 C736.346,245.904 739.842,249.402 744.141,249.402 L1028.852,249.402 C1033.15,249.402 1036.369,245.904 1036.369,241.605 L1050.975,241.605 z M1036.369,75.497 L1050.974,75.497 L1050.974,47.097 L1036.369,47.097 z M1036.369,114.325 L1050.974,114.325 L1050.974,85.925 L1036.369,85.925 z M1036.369,153.153 L1050.974,153.153 L1050.974,124.753 L1036.369,124.753 z M1036.369,191.981 L1050.974,191.981 L1050.974,163.58 L1036.369,163.58 z M1036.369,230.81 L1050.974,230.81 L1050.974,202.41 L1036.369,202.41 z M1080.848,226.77 L1178.25,226.77 L1178.25,214.498 L1080.848,214.498 z M1080.848,202.982 L1156.549,202.982 L1156.549,190.709 L1080.848,190.709 z M1080.848,179.196 L1156.549,179.196 L1156.549,154.651 L1080.848,154.651 z M1080.848,143.138 L1156.549,143.138 L1156.549,130.863 L1080.848,130.863 z M1080.848,83.289 L1156.549,83.289 L1156.549,71.017 L1080.848,71.017 z M1080.848,119.35 L1156.549,119.35 L1156.549,94.804 L1080.848,94.804 z M1166.564,202.982 L1173.414,202.982 L1173.414,190.709 L1166.564,190.709 z M1166.564,179.196 L1173.414,179.196 L1173.414,154.651 L1166.564,154.651 z M1166.564,143.138 L1173.414,143.138 L1173.414,130.863 L1166.564,130.863 z M1166.564,83.289 L1173.414,83.289 L1173.414,71.017 L1166.564,71.017 z M1166.564,119.35 L1173.414,119.35 L1173.414,94.804 L1166.564,94.804 z M1080.848,59.503 L1178.25,59.503 L1178.25,47.23 L1080.848,47.23 z M933.162,183.726 C937.582,183.726 940.196,183.726 940.196,183.726 C943.748,183.726 948.771,180.701 948.771,175.151 L948.771,81.533 C948.771,69.489 945.991,49.824 922.519,49.824 L847.299,49.824 C823.825,49.824 821.047,69.489 821.047,81.533 L821.047,175.151 C821.047,180.701 826.069,183.726 829.621,183.726 C829.621,183.726 832.235,183.726 836.655,183.726 L803.25,224.176 L836.169,224.176 L840.538,215.436 L929.279,215.436 L933.648,224.176 L966.566,224.176 L933.162,183.726 z M926.17,162.273 C919.486,162.273 914.068,156.856 914.068,150.173 C914.068,143.49 919.486,138.072 926.17,138.072 C932.852,138.072 938.269,143.49 938.269,150.173 C938.269,156.856 932.852,162.273 926.17,162.273 z M864.102,58.319 L905.715,58.319 C907.414,58.319 908.79,59.696 908.79,61.395 C908.79,63.093 907.414,64.469 905.715,64.469 L864.102,64.469 C862.402,64.469 861.026,63.093 861.026,61.395 C861.026,59.696 862.402,58.319 864.102,58.319 z M833.19,100.76 C833.19,91.006 835.44,75.079 854.449,75.079 L915.367,75.079 C934.377,75.079 936.628,91.006 936.628,100.76 L936.628,116.759 C936.628,121.841 932.56,123.703 929.684,123.703 C929.684,123.703 840.17,123.703 840.133,123.703 C837.256,123.703 833.19,121.841 833.19,116.759 L833.19,100.76 z M862.201,138.072 L907.615,138.072 L907.615,141.534 L862.201,141.534 z M862.201,158.812 L907.615,158.812 L907.615,162.274 L862.201,162.274 z M831.547,150.173 C831.547,143.49 836.965,138.072 843.648,138.072 C850.33,138.072 855.748,143.49 855.748,150.173 C855.748,156.856 850.33,162.273 843.648,162.273 C836.965,162.273 831.547,156.856 831.547,150.173 z M913.425,183.726 L915.429,187.735 L854.389,187.735 L856.393,183.726 C873.693,183.726 896.124,183.726 913.425,183.726 z M847.188,202.136 L850.34,195.832 L919.477,195.832 L922.629,202.136 L847.188,202.136" fill="#010000"/>
    <path d="M1903.859,0.253 L1775.641,0.253 C1768.102,0.253 1761.16,2.862 1755.672,7.226 C1750.184,2.862 1743.242,0.253 1735.703,0.253 L1456.141,0.253 C1438.418,0.253 1424,14.672 1424,32.395 L1424,241.605 C1424,259.328 1438.418,273.747 1456.141,273.747 L1735.703,273.747 C1743.242,273.747 1750.184,271.138 1755.672,266.774 C1761.16,271.138 1768.102,273.747 1775.641,273.747 L1903.859,273.747 C1921.582,273.747 1936,259.328 1936,241.605 L1936,32.395 C1936,14.672 1921.582,0.253 1903.859,0.253 z M1911.656,241.605 C1911.656,245.904 1908.158,249.402 1903.859,249.402 L1770.582,249.402 C1766.283,249.402 1762.975,245.904 1762.975,241.605 L1748.369,241.605 C1748.369,245.904 1745.15,249.402 1740.852,249.402 L1456.141,249.402 C1451.842,249.402 1448.346,245.904 1448.346,241.605 L1448.346,32.395 C1448.346,28.096 1451.842,24.598 1456.141,24.598 L1740.852,24.598 C1745.15,24.598 1748.369,28.096 1748.369,32.395 L1762.975,32.395 C1762.975,28.096 1766.283,24.598 1770.582,24.598 L1903.859,24.598 C1908.158,24.598 1911.656,28.096 1911.656,32.395 L1911.656,241.605 z M1748.369,47.097 L1762.974,47.097 L1762.974,75.497 L1748.369,75.497 z M1748.369,85.925 L1762.974,85.925 L1762.974,114.325 L1748.369,114.325 z M1748.369,124.754 L1762.974,124.754 L1762.974,153.153 L1748.369,153.153 z M1748.369,163.58 L1762.974,163.58 L1762.974,191.981 L1748.369,191.981 z M1748.369,202.409 L1762.974,202.409 L1762.974,230.809 L1748.369,230.809 z M1792.848,214.498 L1890.25,214.498 L1890.25,226.769 L1792.848,226.769 z M1792.848,190.709 L1868.549,190.709 L1868.549,202.982 L1792.848,202.982 z M1792.848,154.65 L1868.549,154.65 L1868.549,179.196 L1792.848,179.196 z M1792.848,130.862 L1868.549,130.862 L1868.549,143.137 L1792.848,143.137 z M1792.848,71.017 L1868.549,71.017 L1868.549,83.289 L1792.848,83.289 z M1792.848,94.804 L1868.549,94.804 L1868.549,119.35 L1792.848,119.35 z M1878.564,190.709 L1885.414,190.709 L1885.414,202.982 L1878.564,202.982 z M1878.564,154.65 L1885.414,154.65 L1885.414,179.196 L1878.564,179.196 z M1878.564,130.862 L1885.414,130.862 L1885.414,143.137 L1878.564,143.137 z M1878.564,71.017 L1885.414,71.017 L1885.414,83.289 L1878.564,83.289 z M1878.564,94.804 L1885.414,94.804 L1885.414,119.35 L1878.564,119.35 z M1792.848,47.229 L1890.25,47.229 L1890.25,59.502 L1792.848,59.502 z M1677.487,93.65 L1671.311,93.65 L1671.311,73.361 C1671.311,57.787 1657.723,49.824 1642.776,49.824 L1552.075,49.824 C1537.129,49.824 1523.541,57.787 1523.541,73.361 L1523.541,93.65 L1517.364,93.65 C1513.436,93.65 1510.25,96.738 1510.25,100.545 L1510.25,135.479 C1510.25,139.288 1513.436,142.374 1517.364,142.374 L1523.541,142.374 L1523.541,199.021 L1531.004,199.021 L1531.004,214.391 C1531.004,219.794 1535.525,224.176 1541.102,224.176 L1554.867,224.176 C1560.445,224.176 1564.966,219.794 1564.966,214.391 L1564.966,199.021 C1574.35,199.021 1620.109,199.021 1629.493,199.021 L1629.493,214.391 C1629.493,219.794 1634.014,224.176 1639.591,224.176 L1653.357,224.176 C1658.934,224.176 1663.454,219.794 1663.454,214.391 L1663.454,199.021 L1671.311,199.021 L1671.311,142.374 L1677.487,142.374 C1681.416,142.374 1684.602,139.288 1684.602,135.479 L1684.602,100.545 C1684.602,96.738 1681.416,93.65 1677.487,93.65 z M1555.556,57.864 L1639.296,57.864 C1643.068,57.864 1646.126,60.826 1646.126,64.484 C1646.126,68.141 1643.068,71.105 1639.296,71.105 L1555.556,71.105 C1551.783,71.105 1548.726,68.141 1548.726,64.484 C1548.726,60.826 1551.783,57.864 1555.556,57.864 z M1541.785,185.097 C1535.223,185.097 1529.902,179.94 1529.902,173.579 C1529.902,167.217 1535.223,162.061 1541.785,162.061 C1548.35,162.061 1553.67,167.217 1553.67,173.579 C1553.67,179.94 1548.35,185.097 1541.785,185.097 z M1533.94,82.658 L1594.326,82.658 L1594.326,143.931 L1533.94,143.931 z M1560.973,182.374 L1633.879,182.374 L1633.879,186.323 L1560.973,186.323 z M1560.973,163.652 L1633.879,163.652 L1633.879,167.602 L1560.973,167.602 z M1600.525,82.658 L1660.911,82.658 L1660.911,143.931 L1600.525,143.931 z M1653.066,185.097 C1646.502,185.097 1641.181,179.94 1641.181,173.579 C1641.181,167.217 1646.502,162.061 1653.066,162.061 C1659.629,162.061 1664.949,167.217 1664.949,173.579 C1664.949,179.94 1659.629,185.097 1653.066,185.097" fill="#010000"/>
    <path d="M784.604,1454.121 L787.257,1465.21 L781.068,1466.69 L778.416,1455.602 L784.604,1454.121 z M845.083,1633.31 L831.66,1636.521 L831.66,1706.765 C831.66,1723.229 818.265,1736.625 801.801,1736.625 L682.683,1736.625 C675.678,1736.625 669.23,1734.201 664.131,1730.148 C659.032,1734.201 652.583,1736.625 645.58,1736.625 L385.859,1736.625 C369.394,1736.625 356,1723.229 356,1706.765 L356,1512.403 C356,1497.18 367.455,1484.589 382.196,1482.776 L634.042,1422.538 C640.854,1420.909 647.69,1421.767 653.592,1424.522 C657.608,1419.394 663.315,1415.536 670.128,1413.907 L785.978,1386.197 C801.991,1382.367 818.135,1392.279 821.964,1408.293 L867.177,1597.322 C871.007,1613.336 861.096,1629.479 845.083,1633.31 z M809.044,1512.403 C809.044,1508.409 805.794,1505.16 801.801,1505.16 L677.983,1505.16 C673.989,1505.16 670.916,1508.409 670.916,1512.403 L657.347,1512.403 C657.347,1508.409 654.356,1505.16 650.363,1505.16 L385.859,1505.16 C381.866,1505.16 378.618,1508.409 378.618,1512.403 L378.618,1706.765 C378.618,1710.759 381.866,1714.009 385.859,1714.009 L650.363,1714.009 C654.356,1714.009 657.347,1710.759 657.347,1706.765 L670.916,1706.765 C670.916,1710.759 673.989,1714.009 677.983,1714.009 L801.801,1714.009 C805.794,1714.009 809.044,1710.759 809.044,1706.765 L809.044,1512.403 z M817.548,1487.049 L799.969,1413.554 C799.04,1409.67 795.123,1407.265 791.239,1408.193 L670.818,1436.996 C666.934,1437.926 664.7,1441.801 665.629,1445.685 L652.433,1448.842 C651.504,1444.957 647.839,1442.492 643.956,1443.422 L480.396,1482.543 L645.58,1482.543 C651.535,1482.543 657.085,1484.3 661.75,1487.316 L655.61,1462.126 L668.807,1458.97 L674.609,1482.543 L702.981,1482.543 L700.968,1474.126 L769.367,1457.766 L772.018,1468.854 L714.79,1482.543 L760.776,1482.543 L774.507,1479.259 L775.292,1482.543 L784.86,1482.543 L783.557,1477.094 L789.745,1475.613 L791.403,1482.543 L801.801,1482.543 C807.577,1482.543 812.973,1484.197 817.548,1487.049 z M845.182,1602.584 L831.66,1546.052 L831.66,1613.265 L839.822,1611.313 C843.706,1610.385 846.111,1606.468 845.182,1602.584 z M783.833,1431.584 L695.827,1452.634 L698.479,1463.723 L786.486,1442.674 L783.833,1431.584 z M698.668,1537.588 L789.157,1537.588 L789.157,1526.186 L698.668,1526.186 z M698.668,1648.785 L768.997,1648.785 L768.997,1625.981 L698.668,1625.981 z M778.301,1648.785 L784.664,1648.785 L784.664,1625.981 L778.301,1625.981 z M698.668,1670.884 L768.997,1670.884 L768.997,1659.482 L698.668,1659.482 z M778.301,1670.884 L784.664,1670.884 L784.664,1659.482 L778.301,1659.482 z M778.301,1593.186 L784.664,1593.186 L784.664,1570.382 L778.301,1570.382 z M778.301,1559.685 L784.664,1559.685 L784.664,1548.284 L778.301,1548.284 z M698.668,1692.982 L789.157,1692.982 L789.157,1681.582 L698.668,1681.582 z M698.668,1593.186 L768.997,1593.186 L768.997,1570.382 L698.668,1570.382 z M657.347,1588.519 L670.916,1588.519 L670.916,1562.134 L657.347,1562.134 z M657.347,1552.446 L670.916,1552.446 L670.916,1526.061 L657.347,1526.061 z M698.668,1559.685 L768.997,1559.685 L768.997,1548.284 L698.668,1548.284 z M778.301,1615.286 L784.664,1615.286 L784.664,1603.882 L778.301,1603.882 z M698.668,1615.286 L768.997,1615.286 L768.997,1603.882 L698.668,1603.882 z M598.105,1575.717 L598.105,1608.172 C598.105,1611.71 595.146,1614.577 591.496,1614.577 L585.757,1614.577 L585.757,1667.203 L578.458,1667.203 L578.458,1681.481 C578.458,1686.502 574.259,1690.572 569.079,1690.572 L556.289,1690.572 C551.108,1690.572 546.908,1686.502 546.908,1681.481 L546.908,1667.203 C538.19,1667.203 495.679,1667.203 486.96,1667.203 L486.96,1681.481 C486.96,1686.502 482.76,1690.572 477.579,1690.572 L464.79,1690.572 C459.609,1690.572 455.409,1686.502 455.409,1681.481 L455.409,1667.203 L448.477,1667.203 L448.477,1614.577 L442.738,1614.577 C439.088,1614.577 436.128,1611.71 436.128,1608.172 L436.128,1575.717 C436.128,1572.18 439.088,1569.311 442.738,1569.311 L448.477,1569.311 L448.477,1550.462 C448.477,1535.993 461.1,1528.596 474.985,1528.596 L559.248,1528.596 C573.133,1528.596 585.757,1535.993 585.757,1550.462 L585.757,1569.311 L591.496,1569.311 C595.146,1569.311 598.105,1572.18 598.105,1575.717 z M471.873,1542.216 C471.873,1545.612 474.713,1548.366 478.218,1548.366 L556.015,1548.366 C559.52,1548.366 562.36,1545.612 562.36,1542.216 C562.36,1538.816 559.52,1536.065 556.015,1536.065 L478.218,1536.065 C474.713,1536.065 471.873,1538.816 471.873,1542.216 z M476.466,1643.567 C476.466,1637.656 471.523,1632.866 465.425,1632.866 C459.329,1632.866 454.385,1637.656 454.385,1643.567 C454.385,1649.477 459.329,1654.267 465.425,1654.267 C471.523,1654.267 476.466,1649.477 476.466,1643.567 z M458.137,1616.023 L514.238,1616.023 L514.238,1559.099 L458.137,1559.099 z M483.251,1655.406 L550.981,1655.406 L550.981,1651.737 L483.251,1651.737 z M483.251,1638.015 L550.981,1638.015 L550.981,1634.345 L483.251,1634.345 z M519.996,1616.023 L576.097,1616.023 L576.097,1559.099 L519.996,1559.099 z M579.848,1643.567 C579.848,1637.656 574.905,1632.866 568.808,1632.866 C562.71,1632.866 557.766,1637.656 557.766,1643.567 C557.766,1649.477 562.71,1654.267 568.808,1654.267 C574.905,1654.267 579.848,1649.477 579.848,1643.567 z M657.347,1624.591 L670.916,1624.591 L670.916,1598.207 L657.347,1598.207 z M657.347,1696.735 L670.916,1696.735 L670.916,1670.35 L657.347,1670.35 z M657.347,1660.663 L670.916,1660.663 L670.916,1634.277 L657.347,1634.277 z" fill="#010000"/>
    <path d="M1496.605,1454.121 L1499.258,1465.21 L1493.068,1466.69 L1490.416,1455.602 L1496.605,1454.121 z M1557.084,1633.31 L1543.66,1636.521 L1543.66,1706.765 C1543.66,1723.229 1530.266,1736.625 1513.801,1736.625 L1394.684,1736.625 C1387.678,1736.625 1381.23,1734.201 1376.131,1730.148 C1371.033,1734.201 1364.584,1736.625 1357.58,1736.625 L1097.859,1736.625 C1081.395,1736.625 1068,1723.229 1068,1706.765 L1068,1512.403 C1068,1497.18 1079.454,1484.589 1094.196,1482.776 L1346.043,1422.538 C1352.855,1420.909 1359.691,1421.767 1365.592,1424.522 C1369.607,1419.394 1375.316,1415.536 1382.129,1413.907 L1497.979,1386.197 C1513.992,1382.367 1530.135,1392.279 1533.965,1408.293 L1579.178,1597.322 C1583.008,1613.336 1573.096,1629.479 1557.084,1633.31 z M1521.045,1512.403 C1521.045,1508.409 1517.795,1505.16 1513.801,1505.16 L1389.982,1505.16 C1385.99,1505.16 1382.916,1508.409 1382.916,1512.403 L1369.348,1512.403 C1369.348,1508.409 1366.357,1505.16 1362.363,1505.16 L1097.859,1505.16 C1093.865,1505.16 1090.617,1508.409 1090.617,1512.403 L1090.617,1706.765 C1090.617,1710.759 1093.865,1714.009 1097.859,1714.009 L1362.363,1714.009 C1366.357,1714.009 1369.348,1710.759 1369.348,1706.765 L1382.916,1706.765 C1382.916,1710.759 1385.99,1714.009 1389.982,1714.009 L1513.801,1714.009 C1517.795,1714.009 1521.045,1710.759 1521.045,1706.765 L1521.045,1512.403 z M1529.549,1487.049 L1511.969,1413.554 C1511.041,1409.67 1507.123,1407.265 1503.238,1408.193 L1382.818,1436.996 C1378.934,1437.926 1376.701,1441.801 1377.629,1445.685 L1364.434,1448.842 C1363.504,1444.957 1359.84,1442.492 1355.955,1443.422 L1192.396,1482.543 L1357.58,1482.543 C1363.535,1482.543 1369.086,1484.3 1373.75,1487.316 L1367.609,1462.126 L1380.807,1458.97 L1386.609,1482.543 L1414.98,1482.543 L1412.969,1474.126 L1481.367,1457.766 L1484.018,1468.854 L1426.791,1482.543 L1472.775,1482.543 L1486.508,1479.259 L1487.293,1482.543 L1496.859,1482.543 L1495.557,1477.094 L1501.746,1475.613 L1503.402,1482.543 L1513.801,1482.543 C1519.578,1482.543 1524.973,1484.197 1529.549,1487.049 z M1557.182,1602.584 L1543.66,1546.052 L1543.66,1613.265 L1551.822,1611.313 C1555.707,1610.385 1558.111,1606.468 1557.182,1602.584 z M1495.834,1431.584 L1407.828,1452.634 L1410.48,1463.723 L1498.486,1442.674 L1495.834,1431.584 z M1410.668,1537.588 L1501.158,1537.588 L1501.158,1526.186 L1410.668,1526.186 z M1410.668,1648.785 L1480.996,1648.785 L1480.996,1625.981 L1410.668,1625.981 z M1490.301,1648.785 L1496.664,1648.785 L1496.664,1625.981 L1490.301,1625.981 z M1410.668,1670.884 L1480.996,1670.884 L1480.996,1659.482 L1410.668,1659.482 z M1490.301,1670.884 L1496.664,1670.884 L1496.664,1659.482 L1490.301,1659.482 z M1490.301,1593.186 L1496.664,1593.186 L1496.664,1570.382 L1490.301,1570.382 z M1490.301,1559.685 L1496.664,1559.685 L1496.664,1548.284 L1490.301,1548.284 z M1410.668,1692.982 L1501.158,1692.982 L1501.158,1681.582 L1410.668,1681.582 z M1410.668,1593.186 L1480.996,1593.186 L1480.996,1570.382 L1410.668,1570.382 z M1369.348,1588.519 L1382.916,1588.519 L1382.916,1562.134 L1369.348,1562.134 z M1369.348,1552.446 L1382.916,1552.446 L1382.916,1526.061 L1369.348,1526.061 z M1410.668,1559.685 L1480.996,1559.685 L1480.996,1548.284 L1410.668,1548.284 z M1490.301,1615.286 L1496.664,1615.286 L1496.664,1603.882 L1490.301,1603.882 z M1410.668,1615.286 L1480.996,1615.286 L1480.996,1603.882 L1410.668,1603.882 z M1369.348,1624.591 L1382.916,1624.591 L1382.916,1598.207 L1369.348,1598.207 z M1369.348,1696.735 L1382.916,1696.735 L1382.916,1670.35 L1369.348,1670.35 z M1369.348,1660.663 L1382.916,1660.663 L1382.916,1634.277 L1369.348,1634.277 z M1299.44,1529.723 C1294.019,1526.585 1284.938,1530.246 1277.462,1537.635 C1277.429,1537.666 1277.396,1537.7 1277.364,1537.733 L1254.171,1561.959 L1160.594,1559.418 C1158.896,1559.383 1157.281,1560.199 1156.327,1561.609 L1149.024,1572.403 C1146.805,1575.914 1149.112,1579.106 1151.573,1579.929 L1218.797,1602.433 L1192.503,1632.088 L1171.049,1629.634 C1169.656,1629.475 1168.266,1629.908 1167.209,1630.825 L1152.704,1643.433 C1149.376,1646.664 1151.138,1651.061 1154.654,1652.007 L1172.851,1657.01 C1170.768,1660.795 1168.301,1667.552 1172.409,1671.661 C1176.674,1675.925 1184.274,1671.705 1187.05,1669.778 L1193.941,1687.382 C1195.98,1692.218 1201.286,1690.698 1202.675,1688.424 L1213.691,1672.684 C1214.493,1671.536 1214.776,1670.106 1214.473,1668.74 L1209.792,1647.656 L1236.535,1618.404 L1265.939,1682.915 C1267.983,1686.849 1272.017,1686.142 1273.692,1684.661 L1283.665,1676.262 C1284.968,1675.164 1285.62,1673.477 1285.397,1671.79 L1273.093,1578.993 L1294.754,1553.389 C1294.783,1553.353 1294.812,1553.319 1294.84,1553.283 C1304.651,1541.019 1302.997,1531.781 1299.44,1529.723" fill="#010000"/>
    <path d="M1852.605,742.121 L1855.258,753.21 L1849.068,754.69 L1846.416,743.602 L1852.605,742.121 z M1913.084,921.31 L1899.66,924.521 L1899.66,994.765 C1899.66,1011.229 1886.266,1024.625 1869.801,1024.625 L1750.684,1024.625 C1743.678,1024.625 1737.23,1022.201 1732.131,1018.148 C1727.033,1022.201 1720.584,1024.625 1713.58,1024.625 L1453.859,1024.625 C1437.395,1024.625 1424,1011.229 1424,994.765 L1424,800.403 C1424,785.18 1435.455,772.589 1450.197,770.776 L1702.043,710.538 C1708.855,708.909 1715.691,709.767 1721.592,712.522 C1725.607,707.395 1731.316,703.536 1738.129,701.907 L1853.979,674.197 C1869.992,670.367 1886.135,680.279 1889.965,696.293 L1935.178,885.322 C1939.008,901.336 1929.096,917.479 1913.084,921.31 z M1877.045,800.403 C1877.045,796.409 1873.795,793.16 1869.801,793.16 L1745.982,793.16 C1741.99,793.16 1738.916,796.409 1738.916,800.403 L1725.348,800.403 C1725.348,796.409 1722.357,793.16 1718.363,793.16 L1453.859,793.16 C1449.865,793.16 1446.617,796.409 1446.617,800.403 L1446.617,994.765 C1446.617,998.759 1449.865,1002.009 1453.859,1002.009 L1718.363,1002.009 C1722.357,1002.009 1725.348,998.759 1725.348,994.765 L1738.916,994.765 C1738.916,998.759 1741.99,1002.009 1745.982,1002.009 L1869.801,1002.009 C1873.795,1002.009 1877.045,998.759 1877.045,994.765 L1877.045,800.403 z M1885.549,775.049 L1867.969,701.554 C1867.041,697.67 1863.123,695.265 1859.238,696.193 L1738.818,724.996 C1734.934,725.926 1732.701,729.801 1733.629,733.686 L1720.434,736.842 C1719.504,732.957 1715.84,730.492 1711.955,731.422 L1548.396,770.543 L1713.58,770.543 C1719.535,770.543 1725.086,772.3 1729.75,775.316 L1723.609,750.126 L1736.807,746.97 L1742.609,770.543 L1770.982,770.543 L1768.969,762.126 L1837.367,745.766 L1840.018,756.854 L1782.791,770.543 L1828.775,770.543 L1842.508,767.259 L1843.293,770.543 L1852.859,770.543 L1851.557,765.094 L1857.746,763.613 L1859.402,770.543 L1869.801,770.543 C1875.578,770.543 1880.973,772.197 1885.549,775.049 z M1913.182,890.584 L1899.66,834.052 L1899.66,901.265 L1907.822,899.313 C1911.707,898.385 1914.111,894.468 1913.182,890.584 z M1851.834,719.584 L1763.828,740.634 L1766.48,751.723 L1854.486,730.674 L1851.834,719.584 z M1766.668,825.588 L1857.158,825.588 L1857.158,814.186 L1766.668,814.186 z M1766.668,936.785 L1836.996,936.785 L1836.996,913.981 L1766.668,913.981 z M1846.301,936.785 L1852.664,936.785 L1852.664,913.981 L1846.301,913.981 z M1766.668,958.884 L1836.996,958.884 L1836.996,947.482 L1766.668,947.482 z M1846.301,958.884 L1852.664,958.884 L1852.664,947.482 L1846.301,947.482 z M1846.301,881.186 L1852.664,881.186 L1852.664,858.382 L1846.301,858.382 z M1846.301,847.685 L1852.664,847.685 L1852.664,836.284 L1846.301,836.284 z M1766.668,980.982 L1857.158,980.982 L1857.158,969.582 L1766.668,969.582 z M1766.668,881.186 L1836.996,881.186 L1836.996,858.382 L1766.668,858.382 z M1725.348,876.519 L1738.916,876.519 L1738.916,850.134 L1725.348,850.134 z M1725.348,840.446 L1738.916,840.446 L1738.916,814.061 L1725.348,814.061 z M1766.668,847.685 L1836.996,847.685 L1836.996,836.284 L1766.668,836.284 z M1846.301,903.286 L1852.664,903.286 L1852.664,891.882 L1846.301,891.882 z M1766.668,903.286 L1836.996,903.286 L1836.996,891.882 L1766.668,891.882 z M1725.348,912.591 L1738.916,912.591 L1738.916,886.207 L1725.348,886.207 z M1725.348,984.735 L1738.916,984.735 L1738.916,958.35 L1725.348,958.35 z M1725.348,948.663 L1738.916,948.663 L1738.916,922.277 L1725.348,922.277 z M1630.025,940.994 L1661.059,978.572 L1630.477,978.572 L1626.418,970.452 L1543.975,970.452 L1539.916,978.572 L1509.334,978.572 L1540.367,940.994 C1536.262,940.994 1533.832,940.994 1533.832,940.994 C1530.533,940.994 1525.867,938.184 1525.867,933.027 L1525.867,846.054 C1525.867,834.865 1528.449,816.596 1550.256,816.596 L1620.137,816.596 C1641.943,816.596 1644.527,834.865 1644.527,846.054 L1644.527,933.027 C1644.527,938.184 1639.859,940.994 1636.561,940.994 C1636.561,940.994 1634.131,940.994 1630.025,940.994 z M1563.01,827.345 C1563.01,828.922 1564.287,830.2 1565.865,830.2 L1604.525,830.2 C1606.105,830.2 1607.383,828.922 1607.383,827.345 C1607.383,825.767 1606.105,824.487 1604.525,824.487 L1565.865,824.487 C1564.287,824.487 1563.01,825.767 1563.01,827.345 z M1537.148,878.78 C1537.148,883.501 1540.926,885.231 1543.598,885.231 C1543.633,885.231 1626.793,885.231 1626.793,885.231 C1629.467,885.231 1633.244,883.501 1633.244,878.78 L1633.244,863.916 C1633.244,854.854 1631.154,840.058 1613.492,840.058 L1556.898,840.058 C1539.238,840.058 1537.148,854.854 1537.148,863.916 L1537.148,878.78 z M1564.102,921.063 L1606.291,921.063 L1606.291,917.847 L1564.102,917.847 z M1564.102,901.797 L1606.291,901.797 L1606.291,898.58 L1564.102,898.58 z M1558.705,940.994 L1556.842,944.719 L1613.551,944.719 L1611.689,940.994 C1595.615,940.994 1574.777,940.994 1558.705,940.994 z M1546.863,921.063 C1553.072,921.063 1558.105,916.03 1558.105,909.822 C1558.105,903.613 1553.072,898.58 1546.863,898.58 C1540.656,898.58 1535.621,903.613 1535.621,909.822 C1535.621,916.03 1540.656,921.063 1546.863,921.063 z M1620.24,958.097 L1617.311,952.24 L1553.082,952.24 L1550.154,958.097 L1620.24,958.097 z M1634.77,909.822 C1634.77,903.613 1629.738,898.58 1623.529,898.58 C1617.32,898.58 1612.287,903.613 1612.287,909.822 C1612.287,916.03 1617.32,921.063 1623.529,921.063 C1629.738,921.063 1634.77,916.03 1634.77,909.822" fill="#010000"/>
    <path d="M479.859,712.253 L351.641,712.253 C344.102,712.253 337.16,714.862 331.672,719.226 C326.184,714.862 319.242,712.253 311.703,712.253 L32.141,712.253 C14.418,712.253 0,726.672 0,744.395 L0,953.605 C0,971.328 14.418,985.747 32.141,985.747 L311.703,985.747 C319.242,985.747 326.184,983.138 331.672,978.774 C337.16,983.138 344.102,985.747 351.641,985.747 L479.859,985.747 C497.582,985.747 512,971.328 512,953.605 L512,744.395 C512,726.672 497.582,712.253 479.859,712.253 z M487.656,953.605 C487.656,957.904 484.158,961.402 479.859,961.402 L346.582,961.402 C342.283,961.402 338.975,957.904 338.975,953.605 L324.369,953.605 C324.369,957.904 321.15,961.402 316.852,961.402 L32.141,961.402 C27.842,961.402 24.346,957.904 24.346,953.605 L24.346,744.395 C24.346,740.096 27.842,736.598 32.141,736.598 L316.852,736.598 C321.15,736.598 324.369,740.096 324.369,744.395 L338.975,744.395 C338.975,740.096 342.283,736.598 346.582,736.598 L479.859,736.598 C484.158,736.598 487.656,740.096 487.656,744.395 L487.656,953.605 z M324.369,759.097 L338.975,759.097 L338.975,787.497 L324.369,787.497 z M324.369,797.925 L338.975,797.925 L338.975,826.325 L324.369,826.325 z M324.369,836.754 L338.975,836.754 L338.975,865.153 L324.369,865.153 z M324.369,875.58 L338.975,875.58 L338.975,903.981 L324.369,903.981 z M324.369,914.409 L338.975,914.409 L338.975,942.809 L324.369,942.809 z M368.848,926.498 L466.25,926.498 L466.25,938.769 L368.848,938.769 z M368.848,902.709 L444.549,902.709 L444.549,914.982 L368.848,914.982 z M368.848,866.65 L444.549,866.65 L444.549,891.196 L368.848,891.196 z M368.848,842.862 L444.549,842.862 L444.549,855.137 L368.848,855.137 z M368.848,783.017 L444.549,783.017 L444.549,795.289 L368.848,795.289 z M368.848,806.804 L444.549,806.804 L444.549,831.35 L368.848,831.35 z M454.564,902.709 L461.414,902.709 L461.414,914.982 L454.564,914.982 z M454.564,866.65 L461.414,866.65 L461.414,891.196 L454.564,891.196 z M454.564,842.862 L461.414,842.862 L461.414,855.137 L454.564,855.137 z M454.564,783.017 L461.414,783.017 L461.414,795.289 L454.564,795.289 z M454.564,806.804 L461.414,806.804 L461.414,831.35 L454.564,831.35 z M368.848,759.229 L466.25,759.229 L466.25,771.502 L368.848,771.502 z M57.768,775.085 L162.125,775.085 L162.125,799.942 L57.768,799.942 z M57.768,837.729 L288.405,837.729 L288.405,862.586 L57.768,862.586 z M57.768,900.371 L288.405,900.371 L288.405,925.228 L57.768,925.228 z" fill="#010000"/>
    <path d="M1140.604,742.121 L1143.257,753.21 L1137.068,754.69 L1134.416,743.602 L1140.604,742.121 z M1201.084,921.31 L1187.66,924.521 L1187.66,994.765 C1187.66,1011.229 1174.266,1024.625 1157.801,1024.625 L1038.683,1024.625 C1031.678,1024.625 1025.231,1022.201 1020.131,1018.148 C1015.032,1022.201 1008.584,1024.625 1001.58,1024.625 L741.859,1024.625 C725.394,1024.625 712,1011.229 712,994.765 L712,800.403 C712,785.18 723.455,772.589 738.196,770.776 L990.043,710.538 C996.854,708.909 1003.69,709.767 1009.592,712.522 C1013.607,707.395 1019.315,703.536 1026.128,701.907 L1141.979,674.197 C1157.991,670.367 1174.135,680.279 1177.965,696.293 L1223.178,885.322 C1227.008,901.336 1217.096,917.479 1201.084,921.31 z M1165.044,800.403 C1165.044,796.409 1161.795,793.16 1157.801,793.16 L1033.982,793.16 C1029.989,793.16 1026.916,796.409 1026.916,800.403 L1013.347,800.403 C1013.347,796.409 1010.356,793.16 1006.363,793.16 L741.859,793.16 C737.865,793.16 734.617,796.409 734.617,800.403 L734.617,994.765 C734.617,998.759 737.865,1002.009 741.859,1002.009 L1006.363,1002.009 C1010.356,1002.009 1013.347,998.759 1013.347,994.765 L1026.916,994.765 C1026.916,998.759 1029.989,1002.009 1033.982,1002.009 L1157.801,1002.009 C1161.795,1002.009 1165.044,998.759 1165.044,994.765 L1165.044,800.403 z M1173.548,775.049 L1155.969,701.554 C1155.04,697.67 1151.123,695.265 1147.238,696.193 L1026.818,724.996 C1022.934,725.926 1020.7,729.801 1021.629,733.686 L1008.434,736.842 C1007.504,732.957 1003.84,730.492 999.955,731.422 L836.395,770.543 L1001.58,770.543 C1007.535,770.543 1013.086,772.3 1017.75,775.316 L1011.609,750.126 L1024.807,746.97 L1030.609,770.543 L1058.98,770.543 L1056.968,762.126 L1125.367,745.766 L1128.018,756.854 L1070.79,770.543 L1116.775,770.543 L1130.507,767.259 L1131.293,770.543 L1140.859,770.543 L1139.557,765.094 L1145.745,763.613 L1147.402,770.543 L1157.801,770.543 C1163.577,770.543 1168.973,772.197 1173.548,775.049 z M1201.182,890.584 L1187.66,834.052 L1187.66,901.265 L1195.822,899.313 C1199.707,898.385 1202.111,894.468 1201.182,890.584 z M1139.834,719.584 L1051.827,740.634 L1054.479,751.723 L1142.486,730.674 L1139.834,719.584 z M1054.668,825.588 L1145.157,825.588 L1145.157,814.186 L1054.668,814.186 z M1054.668,936.785 L1124.996,936.785 L1124.996,913.981 L1054.668,913.981 z M1134.301,936.785 L1140.664,936.785 L1140.664,913.981 L1134.301,913.981 z M1054.668,958.884 L1124.996,958.884 L1124.996,947.482 L1054.668,947.482 z M1134.301,958.884 L1140.664,958.884 L1140.664,947.482 L1134.301,947.482 z M1134.301,881.186 L1140.664,881.186 L1140.664,858.382 L1134.301,858.382 z M1134.301,847.685 L1140.664,847.685 L1140.664,836.284 L1134.301,836.284 z M1054.668,980.982 L1145.157,980.982 L1145.157,969.582 L1054.668,969.582 z M1054.668,881.186 L1124.996,881.186 L1124.996,858.382 L1054.668,858.382 z M1013.347,876.519 L1026.916,876.519 L1026.916,850.134 L1013.347,850.134 z M1013.347,840.446 L1026.916,840.446 L1026.916,814.061 L1013.347,814.061 z M1054.668,847.685 L1124.996,847.685 L1124.996,836.284 L1054.668,836.284 z M1134.301,903.286 L1140.664,903.286 L1140.664,891.882 L1134.301,891.882 z M1054.668,903.286 L1124.996,903.286 L1124.996,891.882 L1054.668,891.882 z M1013.347,912.591 L1026.916,912.591 L1026.916,886.207 L1013.347,886.207 z M1013.347,984.735 L1026.916,984.735 L1026.916,958.35 L1013.347,958.35 z M1013.347,948.663 L1026.916,948.663 L1026.916,922.277 L1013.347,922.277 z M765.705,851.505 L862.726,851.505 L862.726,828.396 L765.705,828.396 z M765.705,909.744 L980.127,909.744 L980.127,886.635 L765.705,886.635 z M765.705,967.982 L980.127,967.982 L980.127,944.873 L765.705,944.873 z" fill="#010000"/>
  </g>
</svg>
