<?xml version="1.0" encoding="UTF-8"?>
<!DOCTYPE svg PUBLIC "-//W3C//DTD SVG 1.1//EN" "http://www.w3.org/Graphics/SVG/1.1/DTD/svg11.dtd">
<svg version="1.1" xmlns="http://www.w3.org/2000/svg" xmlns:xlink="http://www.w3.org/1999/xlink" x="0" y="0" width="221.69" height="480.352" viewBox="0, 0, 221.69, 480.352">
  <g id="Background">
    <rect x="0" y="0" width="221.69" height="480.352" fill="#FFFFFF"/>
  </g>
  <g id="Layer_1">
    <path d="M100,249 L156,247 L154,351.063 L112,351.063 L100,249 z" fill="#393635"/>
    <path d="M113.943,88.071 C125.77,78.227 138.714,91.808 145.456,115.851 C152.214,139.927 158.13,162.254 158.13,162.254 L174.127,176.184 C174.127,176.184 188.201,198.4 203.959,220.805 C211.322,225.544 219.4,235.848 219.4,235.848 L221.69,251.464 L211.051,263.232 L205.454,260.608 L204.309,246.948 C204.309,246.948 198.06,236.691 193.623,229.408 C192.302,227.263 144.136,186.903 144.136,186.903 L140.386,182.387 C140.386,182.387 122.639,149.947 117.318,132.471 C112.019,114.979 102.173,97.869 113.946,88.072" fill="#FDBB97" id="path18"/>
    <path d="M149.651,121.862 C141.032,93.636 125.242,74.745 107.65,79.499 C89.181,84.476 80.877,113.339 89.145,143.95 C91.953,154.397 96.356,163.637 101.631,171.158 C101.631,171.158 101.451,188.19 95.723,200.673 C96.922,211.9 96.183,223.746 96.801,235.116 C100.087,240.173 103.851,244.865 107.983,249.253 C113.423,251.273 118.909,253.18 124.411,254.994 C132.601,252.177 139.645,245.93 143.271,237.152 C144.416,234.403 145.114,231.587 145.466,228.772 C145.466,228.772 152.145,198.589 156.216,174.721 C152.258,157.515 150.221,139.483 149.648,121.863" fill="#FC9160" id="path22"/>
    <path d="M110.683,87.115 C119.41,79.944 128.569,85.191 128.569,85.191 L144.138,103.971 L158.115,144.107 L162.01,158.45 L165.652,158.941 L168.163,165.875 L179.485,175.559 L209.859,221.182 L189.679,236.353 L143.945,191.081 L134.785,183.114 C134.785,183.114 110.444,125.486 108.786,113.813 C107.109,102.14 106.257,91.454 106.257,91.454 L110.679,87.113" fill="#393635" id="path20"/>
    <path d="M6.037,408.661 L12.632,435.421 L38.321,478.817 C38.321,478.817 46.798,476.486 45.819,468.998 C44.83,461.474 39.886,445.323 39.886,445.323 L44.311,427.005 L33.533,403.36 L14.756,402.925 L6.034,408.66" fill="#2D2F2E" id="path24"/>
    <path d="M119.817,479.072 L146.199,481.393 L196.593,480.537 C196.593,480.537 198.82,472.045 191.791,469.182 C184.778,466.302 168.288,462.583 168.288,462.583 L154.612,449.687 L128.708,447.334 L119.023,463.411 L119.821,479.074" fill="#2D2F2E" id="path26"/>
    <path d="M104.005,85.273 C118.423,90.616 113.11,108.601 95.611,126.46 C78.112,144.302 61.695,160.555 61.695,160.555 L57.584,181.371 C57.584,181.371 45.334,204.636 33.769,229.458 C33.313,238.204 28.413,250.354 28.413,250.354 L16.014,260.117 L0.505,256.745 L0,250.575 L11.255,242.799 C11.255,242.799 17.039,232.272 21.145,224.782 C22.357,222.574 33.345,160.697 33.345,160.697 L35.373,155.195 C35.373,155.195 54.661,123.645 67.178,110.319 C79.694,97.026 89.616,79.946 104.003,85.274" fill="#FDBB97" id="path34"/>
    <path d="M103.185,81.965 C113.769,85.99 116.372,99.632 116.372,99.632 L105.248,119.398 L108.579,120.638 L77.415,151.487 L66.916,162.014 L68.313,165.417 L63.549,171.078 L60.791,185.692 L37.944,233.334 L14.767,220.453 L29.619,162.618 L31.977,150.707 C31.977,150.707 69.805,100.885 79.097,93.634 C88.384,86.367 97.224,80.293 97.224,80.293 L103.187,81.96" fill="#393635" id="path36"/>
    <path d="M127.297,87.736 L100.092,87.213 L108.917,41.686 L132.656,44.643 L127.297,87.738" fill="#FC9160" id="path12"/>
    <path d="M110,247.937 L166,245.937 L164,350 L122,350 L110,247.937 z" fill="#393635"/>
    <path d="M131.396,84.428 C139.697,89.151 145.549,105.785 149.794,116.216 C154.041,126.648 161.768,152.854 157.3,183.006 C158.238,194.201 166.348,230.506 166.348,230.506 L169.26,237.678 L171.374,244.786 L166.747,251.751 L116.384,258.223 L89.474,248.65 L85.251,195.744 L80.448,128.923 L87.574,96.101 L93.667,84.429 L100.103,78.752 L131.394,84.429" fill="#4B4B4B" id="path32"/>
    <path d="M103.452,69.847 L98.333,80.295 L127.553,93.271 L127.733,84.286 L132.662,91.108 L128.416,78.768 L126.73,80.914 L105.054,72.613 L103.458,69.845" fill="#DFEDF4" id="path44"/>
    <path d="M17.171,221.838 L14.768,228.183 L34.342,236.166 L35.514,231.969 L17.171,221.839" fill="#DFEDF4" id="path46"/>
    <path d="M208.782,221.996 L210.977,224.462 L194.82,238.758 L191.386,235.066 L208.783,221.995" fill="#DFEDF4" id="path48"/>
    <path d="M101.431,73.965 L96.324,80.915 L112.308,91.458 L118.136,89.087 L115.161,95.59 L140.814,131.131 L127.552,93.269 L101.432,73.963" fill="#595959" id="path52"/>
    <path d="M140.807,131.135 L132.649,91.109 L129.787,82.824 L132.649,84.289 L134.574,87.742 L132.649,88.103 L135.304,92.173 L140.806,131.119" fill="#595959" id="path54"/>
    <path d="M125.897,92.538 L139.031,126.075 L132.655,91.107 L126.723,80.913 L125.899,92.538" fill="#F2F2F4" id="path56"/>
    <path d="M126.724,80.916 L125.467,87.738 L129.794,93.272 L138.349,127.716 L148.876,136.971 L132.465,93.272 L131.082,86.529 L126.723,80.916" fill="#393635" id="path58"/>
    <path d="M151.834,45.151 C152.194,40.653 152.406,36.087 151.879,31.571 C151.212,25.639 148.556,18.802 144.977,14.015 C141.655,9.593 137.074,5.937 131.778,4.156 C128.79,3.155 125.274,2.452 122.078,2.452 C106.392,2.452 93.652,15.19 93.652,30.869 C93.652,41.794 99.827,51.255 108.851,56.026 C114.342,64.343 127.468,81.056 144.117,80.913 C145.406,78.402 148.205,68.764 150.128,57.807 C153.833,58.032 156.266,57.14 157.172,55.359 C158.065,53.579 153.593,52.497 151.829,45.15" fill="#FDBB97" id="path14"/>
    <path d="M124.624,26.244 C132.639,22.223 133.656,29.17 140.812,21.872 C143.769,18.834 138.346,-1.616 117.289,0.102 C98.5,1.644 82.574,23.239 92.616,41.017 C96.186,47.314 102.176,52.212 106.947,57.587 C110.495,51.353 128.711,39.951 133.672,37.932 C131.923,32.159 131.08,23.732 129.363,17.88 L124.624,26.244" fill="#000000" id="path38"/>
    <path d="M125.245,53.992 C119.313,54.533 115.072,51.351 114.471,45.183 C113.678,37.105 118.28,33.924 123.193,38.806 C128.091,43.688 123.599,50.128 123.599,50.128 L125.253,53.991" fill="#FDBB97" id="path42"/>
    <path d="M146.845,43.068 C146.845,44.294 146.254,45.277 144.586,45.277 C142.918,45.277 140.8,43.068 140.8,43.068 C140.8,43.068 142.914,40.859 144.586,40.859 C146.254,40.859 146.845,41.846 146.845,43.068" fill="#401D11" id="path16"/>
    <path d="M121,336 L144,369 L46.265,435.009 L23,399 L121,336 z" fill="#393635"/>
    <path d="M126.659,1.038 C144.788,4.631 153.406,16.002 155.093,18.324 C156.779,20.645 136.44,27.006 134.071,27.659 C127.281,29.552 116.727,21.425 123.56,15.096 L126.661,1.039" fill="#000000" id="path40"/>
    <path d="M132.5,372 C120.626,372 111,362.374 111,350.5 C111,338.626 120.626,329 132.5,329 C144.374,329 154,338.626 154,350.5 C154,362.374 144.374,372 132.5,372 z" fill="#393635"/>
    <path d="M142.5,373 C130.626,373 121,363.374 121,351.5 C121,339.626 130.626,330 142.5,330 C154.374,330 164,339.626 164,351.5 C164,363.374 154.374,373 142.5,373 z" fill="#393635"/>
    <path d="M122.611,344.252 L162.796,342.457 L166.33,460.342 L123.461,460.752 L122.611,344.252 z" fill="#393635"/>
  </g>
</svg>
