<?xml version="1.0" encoding="UTF-8"?>
<!DOCTYPE svg PUBLIC "-//W3C//DTD SVG 1.1//EN" "http://www.w3.org/Graphics/SVG/1.1/DTD/svg11.dtd">
<svg version="1.1" xmlns="http://www.w3.org/2000/svg" xmlns:xlink="http://www.w3.org/1999/xlink" x="0" y="0" width="700" height="700" viewBox="0, 0, 700, 700">
  <g id="Background">
    <rect x="0" y="0" width="700" height="700" fill="#FFFFFF"/>
  </g>
  <g id="Layer_1">
    <path d="M318.267,265.906 C318.267,258.215 324.524,251.958 332.214,251.958 C339.905,251.958 346.162,258.215 346.162,265.906 C346.162,273.596 339.905,279.853 332.214,279.853 C324.524,279.853 318.267,273.596 318.267,265.906 z M342.704,281.755 C347.838,278.346 351.233,272.518 351.233,265.906 C351.233,255.418 342.702,246.887 332.214,246.887 C321.727,246.887 313.195,255.418 313.195,265.906 C313.195,272.518 316.59,278.346 321.725,281.755 C310.106,286.042 301.784,297.195 301.784,310.284 L306.855,310.284 C306.855,296.3 318.231,284.925 332.214,284.925 C346.198,284.925 357.573,296.3 357.573,310.284 L362.645,310.284 C362.645,297.195 354.322,286.042 342.704,281.755" fill="#355583"/>
    <path d="M368.062,269.076 C373.197,265.667 376.592,259.838 376.592,253.226 C376.592,242.739 368.061,234.208 357.573,234.208 C352.492,234.208 347.882,236.221 344.467,239.479 C343.202,240.685 342.109,242.063 341.213,243.576 C342.795,244.215 344.301,245.005 345.696,245.951 C346.593,244.492 347.747,243.213 349.1,242.173 C351.452,240.366 354.385,239.279 357.573,239.279 C365.264,239.279 371.52,245.536 371.52,253.226 C371.52,259.61 367.203,264.993 361.34,266.643 C360.14,266.98 358.88,267.174 357.573,267.174 C357.124,267.174 356.683,267.148 356.244,267.106 C356.153,268.932 355.867,270.704 355.391,272.401 C356.115,272.338 356.832,272.246 357.573,272.246 C358.603,272.246 359.612,272.325 360.61,272.445 C373.164,273.953 382.932,284.651 382.932,297.604 L388.004,297.604 C388.004,284.516 379.681,273.363 368.062,269.076" fill="#E15E44"/>
    <path d="M306.855,272.246 C307.597,272.246 308.313,272.338 309.038,272.401 C308.562,270.704 308.275,268.932 308.185,267.106 C307.747,267.148 307.304,267.174 306.855,267.174 C305.549,267.174 304.289,266.98 303.089,266.643 C297.225,264.993 292.908,259.61 292.908,253.226 C292.908,245.536 299.165,239.279 306.855,239.279 C310.044,239.279 312.977,240.366 315.329,242.173 C316.682,243.213 317.835,244.492 318.732,245.951 C320.128,245.005 321.633,244.215 323.215,243.576 C322.32,242.063 321.227,240.685 319.962,239.479 C316.547,236.221 311.936,234.208 306.855,234.208 C296.368,234.208 287.836,242.739 287.836,253.226 C287.836,259.838 291.231,265.667 296.366,269.076 C284.748,273.363 276.425,284.516 276.425,297.604 L281.497,297.604 C281.497,284.651 291.264,273.953 303.818,272.445 C304.816,272.325 305.826,272.246 306.855,272.246" fill="#E15E44"/>
    <path d="M112.113,281.125 C103.136,281.125 95.832,273.822 95.832,264.845 C95.832,255.868 103.136,248.565 112.113,248.565 C121.09,248.565 128.393,255.868 128.393,264.845 C128.393,273.822 121.09,281.125 112.113,281.125 z M124.357,283.346 C130.35,279.367 134.313,272.563 134.313,264.845 C134.313,252.604 124.355,242.645 112.113,242.645 C99.871,242.645 89.913,252.604 89.913,264.845 C89.913,272.563 93.876,279.367 99.869,283.346 C86.307,288.35 76.593,301.368 76.593,316.646 L82.513,316.646 C82.513,300.324 95.791,287.045 112.113,287.045 C128.435,287.045 141.713,300.324 141.713,316.646 L147.633,316.646 C147.633,301.368 137.918,288.35 124.357,283.346" fill="#355583"/>
    <path d="M153.958,268.546 C159.95,264.566 163.913,257.763 163.913,250.045 C163.913,237.803 153.955,227.845 141.713,227.845 C135.783,227.845 130.401,230.196 126.415,233.998 C124.938,235.406 123.662,237.015 122.617,238.78 C124.463,239.527 126.221,240.449 127.85,241.553 C128.897,239.85 130.244,238.357 131.823,237.144 C134.568,235.034 137.992,233.765 141.713,233.765 C150.69,233.765 157.993,241.068 157.993,250.045 C157.993,257.497 152.955,263.78 146.11,265.706 C144.709,266.099 143.238,266.325 141.713,266.325 C141.189,266.325 140.673,266.295 140.162,266.247 C140.056,268.378 139.722,270.446 139.166,272.427 C140.012,272.354 140.848,272.246 141.713,272.246 C142.915,272.246 144.094,272.338 145.259,272.479 C159.912,274.239 171.313,286.726 171.313,301.846 L177.233,301.846 C177.233,286.568 167.519,273.55 153.958,268.546" fill="#E15E44"/>
    <path d="M126.913,105.01 C117.936,105.01 110.633,97.707 110.633,88.73 C110.633,79.753 117.936,72.45 126.913,72.45 C135.89,72.45 143.193,79.753 143.193,88.73 C143.193,97.707 135.89,105.01 126.913,105.01 z M139.157,107.231 C145.15,103.251 149.113,96.448 149.113,88.73 C149.113,76.488 139.155,66.53 126.913,66.53 C114.671,66.53 104.713,76.488 104.713,88.73 C104.713,96.448 108.676,103.251 114.669,107.231 C101.107,112.235 91.393,125.253 91.393,140.531 L97.313,140.531 C97.313,124.208 110.591,110.93 126.913,110.93 C143.235,110.93 156.513,124.208 156.513,140.531 L162.433,140.531 C162.433,125.253 152.719,112.235 139.157,107.231" fill="#E15E44"/>
    <path d="M115.622,430.187 C112.347,428.747 109.008,427.278 105.733,426.293 C108.17,424.273 110.479,421.503 110.63,417.816 C111.009,408.619 118.16,401.414 126.913,401.414 C135.573,401.414 142.424,408.362 143.202,417.935 C143.494,421.523 145.844,424.149 148.153,426.047 C145.477,426.995 142.644,428.271 139.866,429.523 C135.01,431.711 129.986,433.975 126.913,433.975 C124.23,433.975 119.854,432.05 115.622,430.187 z M139.31,436.251 C140.295,435.818 141.289,435.375 142.297,434.92 C146.581,432.992 151.006,430.996 154.16,430.541 C156.525,430.199 157.141,428.632 157.294,427.974 C157.837,425.677 156.016,424.415 154.256,423.195 C152.397,421.908 149.29,419.754 149.104,417.455 C148.07,404.73 138.736,395.494 126.913,395.494 C114.975,395.494 105.225,405.192 104.716,417.573 C104.603,420.283 100.707,422.742 98.614,424.062 C96.925,425.127 95.015,426.332 95.653,428.673 C95.841,429.358 96.544,430.957 99.053,431.032 C103.117,431.153 108.263,433.417 113.237,435.606 C113.702,435.811 114.162,436.012 114.621,436.213 C101.084,441.229 91.393,454.235 91.393,469.495 L97.313,469.495 C97.313,453.173 110.592,439.895 126.913,439.895 C143.233,439.895 156.513,453.173 156.513,469.495 L162.433,469.495 C162.433,454.274 152.792,441.297 139.31,436.251" fill="#E15D44"/>
    <path d="M302.762,136.09 C304.25,121.155 316.891,109.45 332.214,109.45 C347.538,109.45 360.179,121.155 361.667,136.09 L302.762,136.09 z M315.934,87.25 C315.934,78.273 323.239,70.97 332.214,70.97 C341.19,70.97 348.495,78.273 348.495,87.25 C348.495,96.227 341.19,103.53 332.214,103.53 C323.239,103.53 315.934,96.227 315.934,87.25 z M344.459,105.751 C350.452,101.771 354.414,94.968 354.414,87.25 C354.414,75.008 344.456,65.05 332.214,65.05 C319.973,65.05 310.014,75.008 310.014,87.25 C310.014,94.968 313.977,101.771 319.97,105.751 C306.408,110.755 296.694,123.772 296.694,139.051 L296.694,142.011 L367.734,142.011 L367.734,139.051 C367.734,123.772 358.02,110.755 344.459,105.751" fill="#355583"/>
    <path d="M549.867,70.97 C558.843,70.97 566.147,78.273 566.147,87.25 C566.147,96.227 558.843,103.53 549.867,103.53 C540.892,103.53 533.587,96.227 533.587,87.25 C533.587,78.273 540.892,70.97 549.867,70.97 z M549.867,109.45 C562.109,109.45 572.067,99.492 572.067,87.25 C572.067,75.008 562.109,65.05 549.867,65.05 C537.625,65.05 527.667,75.008 527.667,87.25 C527.667,99.492 537.625,109.45 549.867,109.45" fill="#E15D44"/>
    <path d="M567.602,108.321 C565.864,109.787 563.935,111.022 561.869,112.027 C571.361,116.261 578.246,125.322 579.32,136.09 L520.414,136.09 C521.487,125.322 528.372,116.261 537.865,112.027 C535.8,111.022 533.87,109.787 532.132,108.321 C521.518,114.471 514.347,125.927 514.347,139.051 L514.347,142.011 L585.388,142.011 L585.388,139.051 C585.388,125.927 578.216,114.471 567.602,108.321" fill="#365583"/>
    <path d="M549.867,288.729 C542.177,288.729 535.92,282.472 535.92,274.781 C535.92,267.091 542.177,260.834 549.867,260.834 C557.558,260.834 563.814,267.091 563.814,274.781 C563.814,282.472 557.558,288.729 549.867,288.729 z M560.356,290.631 C565.491,287.222 568.886,281.393 568.886,274.781 C568.886,264.293 560.354,255.762 549.867,255.762 C539.379,255.762 530.848,264.293 530.848,274.781 C530.848,281.393 534.243,287.222 539.377,290.631 C527.759,294.918 519.436,306.07 519.436,319.159 L524.509,319.159 C524.509,305.176 535.884,293.8 549.867,293.8 C563.851,293.8 575.226,305.176 575.226,319.159 L580.298,319.159 C580.298,306.07 571.975,294.918 560.356,290.631" fill="#355583"/>
    <path d="M585.716,277.952 C590.85,274.542 594.245,268.714 594.245,262.102 C594.245,251.614 585.714,243.083 575.226,243.083 C570.145,243.083 565.534,245.097 562.119,248.354 C560.854,249.56 559.762,250.938 558.866,252.451 C560.448,253.091 561.954,253.881 563.349,254.827 C564.246,253.368 565.399,252.088 566.753,251.049 C569.104,249.242 572.037,248.155 575.226,248.155 C582.916,248.155 589.173,254.411 589.173,262.102 C589.173,268.486 584.856,273.869 578.992,275.518 C577.792,275.855 576.532,276.049 575.226,276.049 C574.777,276.049 574.335,276.023 573.897,275.982 C573.807,277.808 573.519,279.579 573.043,281.276 C573.768,281.214 574.484,281.121 575.226,281.121 C576.256,281.121 577.266,281.201 578.264,281.321 C590.817,282.829 600.585,293.526 600.585,306.479 L605.656,306.479 C605.656,293.391 597.334,282.239 585.716,277.952" fill="#355583"/>
    <path d="M524.509,281.121 C525.249,281.121 525.966,281.214 526.69,281.276 C526.214,279.579 525.928,277.808 525.837,275.982 C525.399,276.023 524.957,276.049 524.509,276.049 C523.202,276.049 521.942,275.855 520.742,275.518 C514.878,273.869 510.561,268.486 510.561,262.102 C510.561,254.411 516.817,248.155 524.509,248.155 C527.696,248.155 530.63,249.242 532.981,251.049 C534.335,252.088 535.488,253.368 536.385,254.827 C537.78,253.881 539.286,253.091 540.868,252.451 C539.973,250.938 538.88,249.56 537.614,248.354 C534.199,245.097 529.589,243.083 524.509,243.083 C514.02,243.083 505.489,251.614 505.489,262.102 C505.489,268.714 508.885,274.542 514.018,277.952 C502.4,282.239 494.078,293.391 494.078,306.479 L499.149,306.479 C499.149,293.526 508.917,282.829 521.471,281.321 C522.469,281.201 523.478,281.121 524.509,281.121" fill="#355583"/>
    <path d="M603.467,260.2 C608.601,256.791 611.996,250.963 611.996,244.351 C611.996,233.863 603.465,225.332 592.977,225.332 C587.896,225.332 583.286,227.346 579.871,230.603 C578.605,231.809 577.513,233.188 576.617,234.7 C578.199,235.34 579.705,236.13 581.1,237.076 C581.997,235.617 583.15,234.337 584.504,233.298 C586.855,231.491 589.788,230.403 592.977,230.403 C600.667,230.403 606.924,236.66 606.924,244.351 C606.924,249.971 603.576,254.808 598.774,257.012 C598.988,258.215 599.12,259.446 599.12,260.709 C599.12,261.862 598.996,262.983 598.817,264.086 C609.988,266.733 618.336,276.759 618.336,288.729 L623.407,288.729 C623.407,275.64 615.085,264.488 603.467,260.2" fill="#E15E44"/>
    <path d="M500.614,260.709 C500.614,259.446 500.746,258.215 500.959,257.012 C496.158,254.808 492.81,249.971 492.81,244.351 C492.81,236.66 499.066,230.403 506.757,230.403 C509.945,230.403 512.878,231.491 515.23,233.298 C516.583,234.337 517.737,235.617 518.634,237.076 C520.029,236.13 521.535,235.34 523.117,234.7 C522.222,233.188 521.128,231.809 519.863,230.603 C516.448,227.346 511.838,225.332 506.757,225.332 C496.27,225.332 487.738,233.863 487.738,244.351 C487.738,250.963 491.133,256.791 496.268,260.2 C484.649,264.488 476.327,275.64 476.327,288.729 L481.398,288.729 C481.398,276.759 489.745,266.733 500.917,264.086 C500.738,262.983 500.614,261.862 500.614,260.709" fill="#E15E44"/>
    <path d="M549.867,230.403 C556.648,230.403 562.254,235.291 563.497,241.714 C566.274,240.04 568.278,239.665 568.278,239.665 C566.183,231.44 558.735,225.332 549.867,225.332 C540.999,225.332 533.552,231.44 531.456,239.665 C531.456,239.665 533.46,240.04 536.236,241.714 C537.48,235.291 543.086,230.403 549.867,230.403" fill="#E15E44"/>
    <path d="M517.862,623.824 L581.872,623.824 L581.872,628.808 L517.862,628.808 z M532.292,605.571 L567.442,605.571 C574.682,605.571 580.635,610.946 581.66,617.904 L518.074,617.904 C519.1,610.946 525.053,605.571 532.292,605.571 z M533.587,583.371 C533.587,574.395 540.892,567.091 549.867,567.091 C558.843,567.091 566.147,574.395 566.147,583.371 C566.147,592.348 558.843,599.651 549.867,599.651 C540.892,599.651 533.587,592.348 533.587,583.371 z M567.442,599.651 L564.909,599.651 C569.299,595.593 572.067,589.807 572.067,583.371 C572.067,571.129 562.109,561.171 549.867,561.171 C537.625,561.171 527.667,571.129 527.667,583.371 C527.667,589.807 530.435,595.593 534.824,599.651 L532.292,599.651 C521.07,599.651 511.941,608.78 511.941,620.001 L511.941,634.728 L587.792,634.728 L587.792,620.001 C587.792,608.78 578.664,599.651 567.442,599.651" fill="#355583"/>
    <path d="M549.867,401.685 C558.844,401.685 566.147,408.987 566.147,417.964 C566.147,426.941 558.844,434.244 549.867,434.244 C540.89,434.244 533.587,426.941 533.587,417.964 C533.587,408.987 540.89,401.685 549.867,401.685 z M549.867,440.164 C562.109,440.164 572.067,430.206 572.067,417.964 C572.067,405.723 562.109,395.764 549.867,395.764 C537.625,395.764 527.667,405.723 527.667,417.964 C527.667,430.206 537.625,440.164 549.867,440.164" fill="#E15D44"/>
    <path d="M570.587,438.33 L563.326,438.33 L563.326,444.25 L570.587,444.25 C575.892,444.25 580.207,448.566 580.207,453.87 L580.207,463.306 L519.526,463.306 L519.526,453.87 C519.526,448.566 523.843,444.25 529.146,444.25 L536.408,444.25 L536.408,438.33 L529.146,438.33 C520.577,438.33 513.606,445.301 513.606,453.87 L513.606,469.226 L586.127,469.226 L586.127,453.87 C586.127,445.301 579.156,438.33 570.587,438.33" fill="#355583"/>
    <path d="M107.014,583.027 C107.014,574.1 114.277,566.836 123.205,566.836 C132.133,566.836 139.396,574.1 139.396,583.027 C139.396,591.956 132.133,599.22 123.205,599.22 C114.277,599.22 107.014,591.956 107.014,583.027 z M138.522,602.705 C137.503,602.214 136.459,601.801 135.408,601.412 C141.354,597.452 145.284,590.693 145.284,583.027 C145.284,570.853 135.38,560.948 123.205,560.948 C111.03,560.948 101.126,570.853 101.126,583.027 C101.126,590.703 105.067,597.47 111.027,601.428 C97.54,606.404 87.878,619.352 87.878,634.546 L93.766,634.546 C93.766,618.313 106.972,605.107 123.205,605.107 C127.678,605.107 131.972,606.083 135.967,608.01 L138.522,602.705" fill="#355583"/>
    <path d="M150.492,630.534 C144.405,630.534 139.453,625.582 139.453,619.494 C139.453,613.407 144.405,608.455 150.492,608.455 C156.58,608.455 161.532,613.407 161.532,619.494 C161.532,625.582 156.58,630.534 150.492,630.534 z M150.492,604.039 C141.97,604.039 135.037,610.972 135.037,619.494 C135.037,628.018 141.97,634.95 150.492,634.95 C159.015,634.95 165.948,628.018 165.948,619.494 C165.948,610.972 159.015,604.039 150.492,604.039" fill="#E15D44"/>
    <path d="M152.7,612.011 L148.284,612.011 L148.284,617.286 L143.009,617.286 L143.009,621.702 L148.284,621.702 L148.284,626.979 L152.7,626.979 L152.7,621.702 L157.977,621.702 L157.977,617.286 L152.7,617.286 L152.7,612.011" fill="#E15D44"/>
    <path d="M312.315,583.027 C312.315,574.1 319.578,566.836 328.506,566.836 C337.435,566.836 344.698,574.1 344.698,583.027 C344.698,591.956 337.435,599.22 328.506,599.22 C319.578,599.22 312.315,591.956 312.315,583.027 z M343.824,602.705 C342.804,602.214 341.76,601.801 340.709,601.412 C346.656,597.452 350.585,590.693 350.585,583.027 C350.585,570.853 340.682,560.948 328.506,560.948 C316.331,560.948 306.427,570.853 306.427,583.027 C306.427,590.703 310.369,597.47 316.329,601.428 C302.841,606.404 293.18,619.352 293.18,634.546 L299.067,634.546 C299.067,618.313 312.273,605.107 328.506,605.107 C332.98,605.107 337.273,606.083 341.268,608.01 L343.824,602.705" fill="#355583"/>
    <path d="M355.794,630.534 C349.706,630.534 344.754,625.582 344.754,619.494 C344.754,613.407 349.706,608.455 355.794,608.455 C361.881,608.455 366.833,613.407 366.833,619.494 C366.833,625.582 361.881,630.534 355.794,630.534 z M355.794,604.039 C347.271,604.039 340.338,610.972 340.338,619.494 C340.338,628.018 347.271,634.95 355.794,634.95 C364.316,634.95 371.249,628.018 371.249,619.494 C371.249,610.972 364.316,604.039 355.794,604.039" fill="#E15D44"/>
    <path d="M348.31,617.286 L363.278,617.286 L363.278,621.702 L348.31,621.702 z" fill="#E15D44"/>
    <path d="M303.25,463.406 C306.066,449.997 317.981,439.895 332.214,439.895 C346.448,439.895 358.362,449.997 361.179,463.406 L303.25,463.406 z M311.035,426.293 C313.472,424.273 315.781,421.503 315.931,417.816 C316.31,408.619 323.461,401.414 332.214,401.414 C340.874,401.414 347.726,408.362 348.503,417.935 C348.795,421.523 351.145,424.149 353.455,426.047 C350.778,426.995 347.945,428.271 345.167,429.523 C340.311,431.711 335.287,433.975 332.214,433.975 C329.532,433.975 325.155,432.05 320.923,430.187 C317.648,428.747 314.31,427.278 311.035,426.293 z M344.611,436.251 C345.596,435.818 346.59,435.375 347.599,434.92 C351.883,432.992 356.308,430.996 359.462,430.541 C361.826,430.199 362.441,428.631 362.595,427.974 C363.139,425.677 361.317,424.415 359.557,423.195 C357.698,421.908 354.591,419.754 354.406,417.455 C353.371,404.73 344.037,395.494 332.214,395.494 C320.276,395.494 310.526,405.192 310.017,417.573 C309.904,420.283 306.008,422.742 303.915,424.062 C302.227,425.127 300.316,426.332 300.955,428.673 C301.143,429.358 301.845,430.957 304.354,431.032 C308.418,431.153 313.564,433.417 318.539,435.606 C319.003,435.811 319.463,436.012 319.922,436.213 C306.385,441.229 296.694,454.235 296.694,469.495 L367.734,469.495 C367.734,454.274 358.094,441.297 344.611,436.251" fill="#355583"/>
  </g>
</svg>
